<?xml version="1.0" encoding="UTF-8" standalone="no"?>
<svg
   width="536"
   height="597"
   viewBox="0 0 536 597"
   fill="none"
   version="1.1"
   id="vanemsvg"
   data-bigger=""
   sodipodi:docname="vanem_U.svg"
   inkscape:version="1.1.2 (b8e25be833, 2022-02-05)"
   xmlns:inkscape="http://www.inkscape.org/namespaces/inkscape"
   xmlns:sodipodi="http://sodipodi.sourceforge.net/DTD/sodipodi-0.dtd"
   xmlns="http://www.w3.org/2000/svg"
   xmlns:svg="http://www.w3.org/2000/svg">
  <defs
     id="defs183" />
  <sodipodi:namedview
     id="namedview181"
     pagecolor="#505050"
     bordercolor="#eeeeee"
     borderopacity="1"
     inkscape:pageshadow="0"
     inkscape:pageopacity="0"
     inkscape:pagecheckerboard="0"
     showgrid="false"
     inkscape:zoom="1.3098827"
     inkscape:cx="248.11382"
     inkscape:cy="298.50001"
     inkscape:window-width="1920"
     inkscape:window-height="986"
     inkscape:window-x="-11"
     inkscape:window-y="-11"
     inkscape:window-maximized="1"
     inkscape:current-layer="pereliikmed_vanem_svg" />
  <g
     id="lapsevanem_svg_tr체kit채hed"
     style="display:inline">
    <g
       id="pereliikmed_vanem_svg">
      <g
         id="vanem-joonis">
        <g
           id="vanem-joonis_2">
          <g
             id="Jooned">
            <rect
               id="Rectangle 335"
               x="200.5"
               y="248.5"
               width="87"
               height="154"
               rx="2.5"
               fill="#ecf0f2"
               stroke="#00377a" />
            <path
               id="Vector"
               d="m 244,192 v 68"
               stroke="#ed1c24"
               stroke-width="3"
               stroke-miterlimit="10" />
            <path
               id="Vector_2"
               d="m 243,386 v -29 h 159 v 29"
               stroke="#ed1c24"
               stroke-width="3"
               stroke-miterlimit="10" />
            <path
               id="Vector_3"
               d="m 137,458 v -25 h 107 v 25"
               stroke="#ec0138"
               stroke-width="3"
               stroke-miterlimit="10" />
            <path
               id="Vector_4"
               d="m 136.586,393 v -36 h 106 v 36"
               stroke="#ec0138"
               stroke-width="3"
               stroke-miterlimit="10" />
            <path
               id="Vector_5"
               d="m 244,359 v 99"
               stroke="#ec0138"
               stroke-width="3"
               stroke-miterlimit="10" />
            <path
               id="Vector 1"
               d="M 137,261 V 16 h 211"
               stroke="#007025"
               stroke-width="3" />
            <rect
               id="Rectangle 320"
               x="243"
               y="16"
               width="3"
               height="52"
               fill="#007025" />
            <rect
               id="Rectangle 321"
               x="345"
               y="16"
               width="3"
               height="47"
               fill="#007025" />
            <path
               id="Vector_6"
               d="m 346,191.683 v 41 H 244 v -41"
               stroke="#ed1c24"
               stroke-width="3"
               stroke-miterlimit="10" />
          </g>
          <g
             id="pereliikmed">
            <g
               id="t체tar">
              <path
                 id="Vector_7"
                 d="m 128.756,494.103 -1.292,-7.211 c -0.249,-1.364 -1.027,-2.574 -2.165,-3.366 -1.139,-0.792 -2.544,-1.101 -3.909,-0.86 v 0 c -0.679,0.115 -1.328,0.365 -1.909,0.734 -0.582,0.369 -1.083,0.851 -1.476,1.417 -0.392,0.566 -0.667,1.204 -0.81,1.878 -0.142,0.674 -0.148,1.369 -0.018,2.045 v 0 l 0.31,1.706 c 0.182,1.066 0.032,2.163 -0.431,3.141 -0.462,0.977 -1.214,1.789 -2.154,2.326 -1.716,1.002 -3.176,2.391 -4.264,4.055 -1.088,1.664 -1.774,3.559 -2.003,5.533 -0.324,3.477 0.747,6.941 2.977,9.628 2.229,2.688 5.435,4.38 8.912,4.704 3.463,0.424 6.952,-0.544 9.702,-2.691 2.75,-2.146 4.536,-5.297 4.966,-8.759 0.216,-2.091 -0.085,-4.204 -0.879,-6.151 -0.793,-1.948 -2.054,-3.67 -3.67,-5.014 -0.97,-0.789 -1.636,-1.89 -1.887,-3.115 z"
                 fill="#c49a6c" />
              <path
                 id="Vector_8"
                 d="m 148.748,494.103 1.292,-7.211 c 0.257,-1.362 1.043,-2.567 2.186,-3.351 1.143,-0.785 2.55,-1.085 3.914,-0.836 v 0 c 0.679,0.115 1.328,0.365 1.909,0.734 0.581,0.369 1.083,0.851 1.475,1.417 0.393,0.566 0.668,1.204 0.81,1.878 0.143,0.674 0.149,1.369 0.019,2.045 v 0 l -0.336,1.68 c -0.182,1.066 -0.032,2.163 0.431,3.141 0.462,0.978 1.214,1.79 2.153,2.326 1.727,0.995 3.197,2.38 4.292,4.046 1.095,1.665 1.785,3.563 2.015,5.543 0.382,3.519 -0.65,7.047 -2.869,9.806 -2.218,2.76 -5.442,4.524 -8.962,4.906 -3.52,0.383 -7.048,-0.649 -9.807,-2.868 -2.759,-2.219 -4.524,-5.443 -4.906,-8.963 -0.223,-2.09 0.075,-4.204 0.866,-6.152 0.791,-1.948 2.052,-3.67 3.67,-5.013 0.974,-0.785 1.63,-1.896 1.848,-3.128 z"
                 fill="#c49a6c" />
              <path
                 id="Vector_9"
                 d="m 154.188,515.426 h -4.665 c -1.732,0 -4.459,-1.408 -4.459,-3.153 v -6.306 c 0,-0.156 0.061,-0.305 0.17,-0.416 0.108,-0.111 0.256,-0.175 0.412,-0.179 7.237,-0.336 11.734,-6.319 11.734,-13.659 v -5.402 c 0.258,0.107 0.534,0.164 0.814,0.168 1.77,0 3.192,-2.262 3.192,-5.04 0,-2.391 -1.06,-4.394 -2.481,-4.963 h -1.293 l -0.258,0.091 v -0.104 c -1.51,-0.013 -3.017,-0.129 -4.51,-0.349 -2.792,-1.628 -5.35,-10.842 -6.888,-17.95 -0.194,5.648 -1.422,14.681 -7.03,17.963 -8.4,4.963 -20.561,0.53 -20.561,0.53 -0.311,-0.166 -0.656,-0.259 -1.008,-0.271 -1.77,0 -3.192,2.261 -3.192,5.053 0,2.791 1.422,5.04 3.192,5.04 0.352,-0.002 0.699,-0.091 1.008,-0.259 v 5.531 c 0,7.328 4.484,13.311 11.721,13.66 0.156,0.003 0.304,0.068 0.412,0.179 0.109,0.111 0.17,0.26 0.17,0.416 v 6.823 c 0,1.46 -2.481,2.585 -3.877,2.585 h -5.169 c -1.867,0 -3.716,0.367 -5.44,1.082 -1.725,0.714 -3.292,1.761 -4.612,3.081 -1.32,1.32 -2.367,2.887 -3.082,4.612 -0.714,1.725 -1.082,3.573 -1.082,5.44 v 31.132 c 0,3.75 1.482,7.348 4.123,10.01 2.64,2.663 6.226,4.174 9.976,4.205 h 32.683 c 3.77,0 7.386,-1.498 10.052,-4.164 2.665,-2.666 4.163,-6.281 4.163,-10.051 v -31.158 c 0,-3.77 -1.498,-7.386 -4.163,-10.052 -2.666,-2.666 -6.282,-4.163 -10.052,-4.163 z"
                 fill="#f7b7b7" />
              <path
                 id="Vector_10"
                 d="m 138.978,476.127 c 5.608,-3.282 6.836,-12.315 7.03,-17.963 1.538,7.108 4.097,16.322 6.901,17.963 1.493,0.22 3,0.336 4.51,0.349 v -2.998 C 157.419,461.615 150.363,452 138.5,452 h -1.293 c -11.437,0 -18.389,8.956 -18.854,20.238 v 4.419 c 0,0 12.225,4.381 20.625,-0.53 z"
                 fill="#c49a6c" />
              <path
                 id="Vector_11"
                 d="m 169.225,529.396 c 0,-1.848 -0.364,-3.678 -1.073,-5.384 -0.708,-1.707 -1.746,-3.257 -3.055,-4.562 -1.308,-1.305 -2.861,-2.339 -4.57,-3.043 -1.709,-0.704 -3.54,-1.063 -5.388,-1.058 h -0.362 l -8.425,-0.543 -2.96,1.37 c -1.864,0.876 -3.903,1.317 -5.962,1.29 -2.06,-0.027 -4.086,-0.521 -5.927,-1.445 l -2.21,-1.15 -8.607,0.452 h -0.439 c -3.717,0.01 -7.278,1.493 -9.903,4.124 -2.626,2.63 -4.102,6.194 -4.106,9.911 v 15.184 h 14.397 v 30.46 h 34.181 v -30.46 h 14.396 z"
                 fill="#a9ebb4" />
              <path
                 id="Vector_12"
                 d="m 133.124,497.05 2.817,0.866 c 1.653,0.491 3.413,0.491 5.066,0 l 3.334,-0.931 -2.171,1.965 c -0.943,0.921 -2.213,1.43 -3.531,1.415 -1.318,-0.014 -2.576,-0.551 -3.499,-1.493 v 0 z"
                 fill="#e09090" />
              <path
                 id="Vector_13"
                 d="m 134.92,485.096 c 0,0 -3.528,2.042 -4.691,2.042 -1.163,0 -4.691,-2.042 -4.691,-2.042 0,0 3.528,-2.016 4.691,-2.016 1.163,0 4.691,2.016 4.691,2.016 z"
                 fill="#ffffff" />
              <path
                 id="Vector_14"
                 d="m 130.268,487.319 c 1.163,0 2.106,-0.943 2.106,-2.107 0,-1.163 -0.943,-2.106 -2.106,-2.106 -1.164,0 -2.107,0.943 -2.107,2.106 0,1.164 0.943,2.107 2.107,2.107 z"
                 fill="#2e3192" />
              <path
                 id="Vector_15"
                 d="m 151.902,485.096 c 0,0 -3.528,2.042 -4.691,2.042 -1.163,0 -4.691,-2.042 -4.691,-2.042 0,0 3.54,-2.016 4.691,-2.016 1.15,0 4.691,2.016 4.691,2.016 z"
                 fill="#ffffff" />
              <path
                 id="Vector_16"
                 d="m 147.249,487.319 c 1.163,0 2.106,-0.943 2.106,-2.107 0,-1.163 -0.943,-2.106 -2.106,-2.106 -1.163,0 -2.106,0.943 -2.106,2.106 0,1.164 0.943,2.107 2.106,2.107 z"
                 fill="#2e3192" />
              <path
                 id="Vector_17"
                 d="m 140.387,491.57 c -0.09,0.448 -0.333,0.851 -0.686,1.141 -0.353,0.289 -0.796,0.447 -1.253,0.447 -0.457,0 -0.899,-0.158 -1.253,-0.447 -0.353,-0.29 -0.595,-0.693 -0.685,-1.141 0.207,-1.246 0.532,-2.471 0.969,-3.657 0.086,-0.258 0.268,-0.473 0.509,-0.601 0.241,-0.127 0.521,-0.157 0.783,-0.084 0.162,0.05 0.309,0.138 0.428,0.258 0.119,0.119 0.208,0.266 0.257,0.427 0.424,1.187 0.736,2.412 0.931,3.657 z"
                 fill="#e09090" />
            </g>
            <g
               id="poeg 2">
              <path
                 id="Vector_18"
                 d="m 261.617,515.336 h -9.615 c -0.074,0.003 -0.149,-0.008 -0.219,-0.033 -0.071,-0.026 -0.135,-0.065 -0.19,-0.115 -0.056,-0.051 -0.1,-0.111 -0.132,-0.179 -0.032,-0.068 -0.05,-0.141 -0.053,-0.216 v -8.413 c 0,-0.151 0.06,-0.295 0.167,-0.402 0.106,-0.106 0.251,-0.166 0.402,-0.166 3.405,-0.07 6.652,-1.453 9.061,-3.862 2.409,-2.409 3.792,-5.656 3.862,-9.061 v -2.12 c 0.254,0.102 0.526,0.155 0.801,0.155 1.745,0 3.153,-2.132 3.153,-4.768 0,-2.637 -1.408,-4.782 -3.153,-4.782 -0.276,0.004 -0.548,0.061 -0.801,0.168 v -5.944 c 0,-11.244 -9.512,-20.354 -21.233,-20.354 h -1.163 c -11.734,0 -21.233,9.11 -21.233,20.354 v 6.022 c -0.308,-0.159 -0.648,-0.243 -0.995,-0.246 -1.744,0 -3.153,2.145 -3.153,4.782 0,2.636 1.409,4.768 3.153,4.768 0.347,0.003 0.69,-0.081 0.995,-0.245 v 2.248 c 0.069,3.389 1.438,6.621 3.825,9.027 2.387,2.405 5.608,3.801 8.995,3.896 0.152,0 0.298,0.06 0.407,0.166 0.108,0.106 0.171,0.251 0.175,0.403 v 8.387 c -0.004,0.152 -0.067,0.297 -0.175,0.403 -0.109,0.106 -0.255,0.166 -0.407,0.166 h -9.679 c -3.631,-0.07 -7.141,1.301 -9.763,3.812 -2.623,2.512 -4.145,5.959 -4.233,9.589 v 0 33.174 c 0,7.443 6.203,12.768 14.009,12.768 h 37.166 c 7.754,0 14.009,-5.351 14.009,-12.768 v -33.174 c -0.075,-3.636 -1.589,-7.093 -4.211,-9.613 -2.621,-2.52 -6.136,-3.896 -9.772,-3.827 z"
                 fill="#f7b7b7" />
              <path
                 id="Vector_19"
                 d="m 239.041,500.798 2.675,0.814 c 1.569,0.465 3.239,0.465 4.807,0 l 3.141,-0.879 -2.094,1.796 c -0.9,0.867 -2.106,1.343 -3.355,1.324 -1.25,-0.02 -2.441,-0.533 -3.313,-1.427 z"
                 fill="#e09090" />
              <path
                 id="Vector_20"
                 d="m 258.128,460.245 c -0.281,-0.004 -0.563,0.017 -0.84,0.065 v -0.065 c 0,-4.549 -7.004,-8.245 -15.637,-8.245 -8.632,0 -15.65,3.722 -15.65,8.245 0.007,0.399 0.072,0.796 0.194,1.176 -0.598,-0.579 -1.354,-0.968 -2.173,-1.12 -0.818,-0.152 -1.663,-0.06 -2.43,0.265 -0.766,0.326 -1.419,0.869 -1.879,1.564 -0.459,0.694 -0.704,1.508 -0.703,2.341 -0.004,0.571 0.108,1.138 0.33,1.664 0.222,0.527 0.55,1.003 0.962,1.399 -0.249,0.233 -0.449,0.513 -0.59,0.825 -0.14,0.311 -0.217,0.647 -0.226,0.988 -0.01,0.341 0.048,0.681 0.17,1 0.123,0.318 0.307,0.61 0.543,0.857 0.409,0.403 0.94,0.659 1.51,0.727 0.571,0.068 1.147,-0.057 1.639,-0.353 0.492,-0.296 0.871,-0.748 1.078,-1.284 0.207,-0.536 0.229,-1.125 0.063,-1.675 0.074,-0.012 0.144,-0.038 0.207,-0.077 v 0.491 c 0.003,1.559 0.624,3.054 1.725,4.158 1.102,1.104 2.595,1.728 4.155,1.735 1.192,0 2.356,-0.365 3.334,-1.047 0.456,1.566 1.46,2.915 2.828,3.803 1.369,0.887 3.011,1.253 4.626,1.03 1.616,-0.222 3.098,-1.018 4.175,-2.242 1.078,-1.225 1.679,-2.795 1.695,-4.426 v -0.323 c 0.621,0.205 1.291,0.209 1.914,0.012 0.623,-0.198 1.168,-0.588 1.556,-1.114 0.389,-0.526 0.601,-1.162 0.607,-1.815 0.005,-0.654 -0.196,-1.293 -0.575,-1.826 l 0.62,-0.233 v 0.336 c 0,1.345 0.399,2.659 1.146,3.777 0.747,1.118 1.808,1.989 3.051,2.503 1.242,0.515 2.608,0.649 3.927,0.387 1.319,-0.262 2.53,-0.91 3.48,-1.86 0.951,-0.951 1.599,-2.162 1.861,-3.481 0.262,-1.318 0.127,-2.685 -0.387,-3.927 -0.514,-1.242 -1.386,-2.304 -2.504,-3.051 -1.117,-0.747 -2.432,-1.145 -3.776,-1.145 v 0 z m -30.524,3.605 -0.155,0.104 v -0.323 z"
                 fill="#c49a6c" />
              <path
                 id="Vector_21"
                 d="m 275.571,528.518 c -0.046,-1.812 -0.448,-3.598 -1.184,-5.254 -0.736,-1.657 -1.791,-3.152 -3.105,-4.4 -1.314,-1.249 -2.862,-2.226 -4.554,-2.875 -1.692,-0.65 -3.496,-0.959 -5.308,-0.911 h -0.31 l -9.744,-0.504 -2.986,1.292 c -1.89,0.837 -3.938,1.258 -6.005,1.233 -2.067,-0.024 -4.105,-0.493 -5.974,-1.375 l -2.326,-1.099 -9.925,0.427 h -0.336 c -3.657,-0.09 -7.2,1.274 -9.85,3.794 -2.651,2.52 -4.193,5.99 -4.288,9.646 v 14.487 h 14.487 v 31.752 h 36.947 v -31.727 h 14.499 z"
                 fill="#a9ebb4" />
              <path
                 id="Vector_22"
                 d="m 240.308,485.174 c 0,0 -3.515,2.016 -4.691,2.016 -1.176,0 -4.691,-2.016 -4.691,-2.016 0,0 3.541,-2.016 4.691,-2.016 1.15,0 4.691,2.016 4.691,2.016 z"
                 fill="#ffffff" />
              <path
                 id="Vector_23"
                 d="m 235.655,487.396 c 1.164,0 2.107,-0.943 2.107,-2.106 0,-1.164 -0.943,-2.107 -2.107,-2.107 -1.163,0 -2.106,0.943 -2.106,2.107 0,1.163 0.943,2.106 2.106,2.106 z"
                 fill="#3c2415" />
              <path
                 id="Vector_24"
                 d="m 257.302,485.174 c 0,0 -3.528,2.016 -4.692,2.016 -1.163,0 -4.716,-2.016 -4.716,-2.016 0,0 3.528,-2.016 4.678,-2.016 1.15,0 4.73,2.016 4.73,2.016 z"
                 fill="#ffffff" />
              <path
                 id="Vector_25"
                 d="m 252.649,487.396 c 1.164,0 2.107,-0.943 2.107,-2.106 0,-1.164 -0.943,-2.107 -2.107,-2.107 -1.163,0 -2.106,0.943 -2.106,2.107 0,1.163 0.943,2.106 2.106,2.106 z"
                 fill="#3c2415" />
              <path
                 id="Vector_26"
                 d="m 246.317,495.292 c 0.022,0.273 -0.012,0.546 -0.101,0.805 -0.089,0.258 -0.231,0.495 -0.416,0.696 -0.185,0.2 -0.41,0.361 -0.66,0.47 -0.25,0.11 -0.521,0.166 -0.794,0.166 -0.273,0 -0.543,-0.056 -0.793,-0.166 -0.25,-0.109 -0.475,-0.27 -0.66,-0.47 -0.185,-0.201 -0.327,-0.438 -0.416,-0.696 -0.089,-0.259 -0.123,-0.532 -0.101,-0.805 0.207,-1.242 0.531,-2.462 0.969,-3.644 0.04,-0.13 0.105,-0.25 0.191,-0.355 0.087,-0.105 0.193,-0.192 0.313,-0.255 0.12,-0.064 0.251,-0.103 0.387,-0.116 0.135,-0.013 0.271,10e-4 0.401,0.041 0.161,0.052 0.306,0.141 0.425,0.26 0.12,0.119 0.209,0.265 0.26,0.425 0.446,1.181 0.779,2.401 0.995,3.644 z"
                 fill="#e09090" />
            </g>
            <g
               id="vend">
              <path
                 id="Vector_27"
                 d="m 431.517,329.053 h -10.196 c -0.167,0 -0.327,-0.064 -0.448,-0.18 -0.12,-0.116 -0.191,-0.273 -0.198,-0.44 v -9.318 c -0.002,-0.082 0.013,-0.164 0.043,-0.241 0.031,-0.077 0.076,-0.147 0.134,-0.206 0.058,-0.059 0.127,-0.106 0.203,-0.138 0.076,-0.032 0.158,-0.048 0.24,-0.048 3.675,-0.189 7.136,-1.781 9.671,-4.448 2.534,-2.667 3.948,-6.205 3.95,-9.884 v -2.365 c 0.273,0.122 0.567,0.188 0.866,0.194 1.848,0 3.347,-2.378 3.347,-5.311 0,-2.934 -1.499,-5.299 -3.347,-5.299 -0.298,0.002 -0.592,0.063 -0.866,0.181 v -6.604 c -0.002,-2.966 -0.587,-5.903 -1.724,-8.643 -1.137,-2.74 -2.802,-5.23 -4.901,-7.326 -2.099,-2.096 -4.59,-3.759 -7.332,-4.893 -2.741,-1.133 -5.679,-1.716 -8.645,-1.714 h -1.293 c -5.97,0.024 -11.688,2.413 -15.901,6.645 -4.212,4.232 -6.575,9.961 -6.572,15.931 v 6.643 c -0.324,-0.18 -0.689,-0.273 -1.06,-0.271 -1.848,0 -3.347,2.377 -3.347,5.298 0,2.921 1.499,5.311 3.347,5.311 0.372,-0.002 0.737,-0.1 1.06,-0.284 v 2.455 c -0.01,3.7 1.409,7.261 3.962,9.938 2.552,2.678 6.041,4.266 9.737,4.433 0.082,0 0.164,0.016 0.24,0.048 0.076,0.032 0.145,0.079 0.203,0.138 0.058,0.059 0.103,0.129 0.133,0.206 0.031,0.077 0.046,0.159 0.044,0.241 v 9.305 c 0,0.168 -0.067,0.329 -0.186,0.448 -0.118,0.118 -0.279,0.185 -0.447,0.185 h -10.339 c -3.942,0.021 -7.715,1.601 -10.495,4.395 -2.78,2.795 -4.34,6.576 -4.34,10.518 v 36.792 c 0,3.943 1.562,7.725 4.345,10.518 2.784,2.793 6.56,4.369 10.503,4.383 h 39.622 c 3.953,0 7.745,-1.57 10.541,-4.364 2.796,-2.794 4.369,-6.584 4.373,-10.537 v -36.792 c -0.002,-1.958 -0.39,-3.897 -1.141,-5.706 -0.751,-1.809 -1.851,-3.452 -3.237,-4.835 -1.386,-1.384 -3.031,-2.481 -4.841,-3.229 -1.81,-0.748 -3.749,-1.132 -5.708,-1.13 z"
                 fill="#f7b7b7" />
              <path
                 id="Vector_28"
                 d="m 405.943,310.017 3.218,0.879 c 1.894,0.491 3.883,0.491 5.777,0 l 3.773,-0.943 -2.507,1.925 c -1.138,0.928 -2.567,1.424 -4.036,1.4 -1.468,-0.023 -2.881,-0.565 -3.989,-1.529 z"
                 fill="#e09090" />
              <path
                 id="Vector_29"
                 d="m 415.028,305.184 c 10e-4,0.393 -0.075,0.783 -0.224,1.146 -0.149,0.364 -0.369,0.695 -0.646,0.973 -0.278,0.279 -0.607,0.5 -0.97,0.651 -0.363,0.151 -0.753,0.228 -1.146,0.228 -0.796,0 -1.56,-0.315 -2.124,-0.877 -0.565,-0.562 -0.883,-1.325 -0.887,-2.121 0,-1.654 2.998,-10.028 2.998,-10.028 0,0 2.999,8.374 2.999,10.028 z"
                 fill="#e09090" />
              <path
                 id="Vector_30"
                 d="m 407.416,293.889 c -1.245,0.758 -2.589,1.34 -3.993,1.732 -1.397,-0.4 -2.736,-0.982 -3.981,-1.732 1.241,-0.754 2.581,-1.332 3.981,-1.719 1.407,0.376 2.752,0.955 3.993,1.719 z"
                 fill="#ffffff" />
              <path
                 id="Vector_31"
                 d="m 403.41,295.776 c 0.992,0 1.796,-0.804 1.796,-1.796 0,-0.992 -0.804,-1.797 -1.796,-1.797 -0.992,0 -1.797,0.805 -1.797,1.797 0,0.992 0.805,1.796 1.797,1.796 z"
                 fill="#231f20" />
              <path
                 id="Vector_32"
                 d="m 424.423,293.889 c -1.244,0.752 -2.583,1.335 -3.981,1.732 -1.402,-0.396 -2.745,-0.979 -3.993,-1.732 1.243,-0.759 2.588,-1.338 3.993,-1.719 1.402,0.382 2.742,0.961 3.981,1.719 z"
                 fill="#ffffff" />
              <path
                 id="Vector_33"
                 d="m 420.468,295.776 c 0.992,0 1.796,-0.804 1.796,-1.796 0,-0.992 -0.804,-1.797 -1.796,-1.797 -0.992,0 -1.796,0.805 -1.796,1.797 0,0.992 0.804,1.796 1.796,1.796 z"
                 fill="#231f20" />
              <path
                 id="Vector_34"
                 d="m 389.737,285.373 c 0,-9.783 5.699,-17.756 12.639,-17.756 2.232,0.04 4.387,0.822 6.126,2.222 0.888,0.715 1.994,1.104 3.133,1.104 1.14,0 2.246,-0.389 3.134,-1.104 1.74,-1.398 3.894,-2.18 6.126,-2.222 6.991,0 12.639,7.947 12.639,17.756 v 0.866 l 1.576,1.357 v -3.877 c -0.003,-6.027 -2.4,-11.805 -6.662,-16.066 -4.263,-4.26 -10.043,-6.653 -16.07,-6.653 h -1.292 c -6.026,0 -11.806,2.393 -16.069,6.653 -4.263,4.261 -6.659,10.039 -6.663,16.066 v 3.877 l 1.448,-1.357 c -0.039,-0.336 -0.065,-0.621 -0.065,-0.866 z"
                 fill="#a97c50" />
              <path
                 id="Vector_35"
                 d="m 432.099,327.257 h -0.388 l -10.558,-0.621 -3.231,1.525 c -2.042,0.96 -4.276,1.443 -6.532,1.414 -2.257,-0.029 -4.477,-0.57 -6.494,-1.582 l -2.507,-1.292 -10.843,0.478 h -0.361 c -4.043,0.044 -7.905,1.681 -10.748,4.556 -2.843,2.874 -4.437,6.754 -4.437,10.797 v 16.528 h 15.714 v 36.883 h 39.997 V 359.06 h 15.767 v -16.528 c -0.007,-2.013 -0.41,-4.005 -1.187,-5.862 -0.776,-1.857 -1.911,-3.543 -3.339,-4.961 -1.428,-1.418 -3.122,-2.542 -4.984,-3.306 -1.862,-0.764 -3.856,-1.153 -5.869,-1.146 z"
                 fill="#a3c1e5" />
              <path
                 id="Vector_36"
                 d="m 416.088,287.906 1.874,2.171 c 0,0 1.938,-1.422 8.723,-1.861 -3.36,-1.466 -7.157,-1.577 -10.597,-0.31 z"
                 fill="#a97c50" />
              <path
                 id="Vector_37"
                 d="m 407.971,287.906 -1.848,2.171 c 0,0 -1.938,-1.422 -8.723,-1.861 3.353,-1.459 7.139,-1.57 10.571,-0.31 z"
                 fill="#a97c50" />
            </g>
            <g
               id="천de">
              <g
                 id="Group 774">
                <path
                   id="Vector_38"
                   d="m 343.207,269.348 c -4.678,-5.066 -13.401,14.383 -16.8,27.565 -3.425,-13.182 -12.161,-32.631 -16.8,-27.565 -8.568,9.292 -12.277,35.719 -12.277,45.541 0,9.822 6.668,10.791 15.366,10.933 4.59,0.171 9.186,-0.058 13.737,-0.685 4.555,0.626 9.155,0.855 13.75,0.685 8.697,-0.142 15.366,-1.111 15.366,-10.933 0,-9.822 -3.787,-36.249 -12.342,-45.541 z"
                   fill="#db8dff" />
                <path
                   id="Vector_39"
                   d="m 345.649,332.555 h -7.289 c -0.432,-0.001 -0.859,-0.091 -1.255,-0.264 -0.396,-0.174 -0.752,-0.427 -1.045,-0.744 h -0.582 c -0.486,-0.621 -0.725,-1.398 -0.672,-2.184 v -7.031 c -0.007,-0.159 0.046,-0.316 0.149,-0.438 0.103,-0.123 0.248,-0.201 0.407,-0.221 6.888,-0.387 12.38,-6.991 12.38,-15.068 v -3.153 c 0.246,0.122 0.515,0.188 0.789,0.194 1.667,0 3.024,-2.494 3.024,-5.57 0,-3.076 -1.293,-5.57 -3.024,-5.57 -0.273,0.012 -0.541,0.078 -0.789,0.194 v -6.242 c 0,-13.104 -9.149,-23.714 -20.444,-23.714 h -1.111 c -11.295,0 -20.445,10.61 -20.445,23.714 v 6.345 c -0.281,-0.194 -0.615,-0.297 -0.956,-0.297 -1.68,0 -3.037,2.494 -3.037,5.57 0,3.076 1.357,5.57 3.037,5.57 0.339,-0.001 0.671,-0.1 0.956,-0.285 v 3.244 c 0,8.077 5.493,14.681 12.381,15.055 0.16,0.017 0.307,0.095 0.411,0.218 0.103,0.123 0.155,0.281 0.144,0.442 v 7.534 c 0.05,0.578 -0.095,1.156 -0.413,1.641 h -0.763 c -0.244,0.297 -0.552,0.537 -0.901,0.7 -0.349,0.163 -0.73,0.246 -1.115,0.243 h -7.754 c -3.777,0 -7.401,1.495 -10.079,4.159 -2.678,2.664 -4.193,6.279 -4.214,10.057 v 35.267 c 0.024,3.776 1.54,7.39 4.218,10.053 2.677,2.662 6.299,4.159 10.075,4.162 h 37.917 c 1.866,0 3.715,-0.368 5.44,-1.082 1.724,-0.714 3.291,-1.761 4.611,-3.081 1.321,-1.32 2.368,-2.888 3.082,-4.612 0.714,-1.725 1.082,-3.573 1.082,-5.44 v -35.035 c 0.015,-1.876 -0.341,-3.737 -1.048,-5.475 -0.708,-1.739 -1.753,-3.319 -3.074,-4.652 -1.322,-1.332 -2.894,-2.39 -4.626,-3.111 -1.733,-0.722 -3.591,-1.093 -5.467,-1.093 z"
                   fill="#f7b7b7" />
                <path
                   id="Vector_40"
                   d="m 345.855,331.754 h -7.379 c -0.742,-0.006 -1.459,-0.265 -2.033,-0.735 -0.574,-0.471 -0.969,-1.124 -1.12,-1.85 0.013,-0.068 0.013,-0.139 0,-0.207 l -2.042,0.969 c -2.005,0.938 -4.196,1.41 -6.409,1.38 -2.214,-0.029 -4.392,-0.558 -6.372,-1.548 l -2.494,-1.176 v 0.517 c -0.003,0.712 -0.288,1.394 -0.791,1.897 -0.503,0.504 -1.185,0.788 -1.897,0.791 h -7.844 c -3.833,-0.003 -7.511,1.515 -10.225,4.222 -2.714,2.707 -4.242,6.38 -4.249,10.213 v 14.216 h 14.474 v 35.693 h 38.381 c 0.328,0 0.651,0 0.97,0 V 360.43 h 13.478 v -14.216 c 0,-3.833 -1.521,-7.509 -4.231,-10.22 -2.709,-2.712 -6.384,-4.237 -10.217,-4.24 z"
                   fill="#ffca63" />
                <path
                   id="Vector_41"
                   d="m 322.775,301.992 c -1.259,0.775 -2.621,1.371 -4.045,1.77 -1.417,-0.4 -2.774,-0.991 -4.032,-1.757 1.253,-0.773 2.611,-1.36 4.032,-1.745 1.422,0.388 2.783,0.971 4.045,1.732 z"
                   fill="#ffffff" />
                <path
                   id="Vector_42"
                   d="m 318.769,303.904 c 1.007,0 1.823,-0.815 1.823,-1.822 0,-1.006 -0.816,-1.822 -1.823,-1.822 -1.006,0 -1.822,0.816 -1.822,1.822 0,1.007 0.816,1.822 1.822,1.822 z"
                   fill="#231f20" />
                <path
                   id="Vector_43"
                   d="m 340.04,301.992 c -1.255,0.775 -2.612,1.371 -4.032,1.77 -1.416,-0.399 -2.768,-0.995 -4.019,-1.77 1.253,-0.773 2.611,-1.36 4.032,-1.745 1.414,0.393 2.767,0.98 4.019,1.745 z"
                   fill="#ffffff" />
                <path
                   id="Vector_44"
                   d="m 336.034,303.904 c 1.006,0 1.822,-0.815 1.822,-1.822 0,-1.006 -0.816,-1.822 -1.822,-1.822 -1.006,0 -1.822,0.816 -1.822,1.822 0,1.007 0.816,1.822 1.822,1.822 z"
                   fill="#231f20" />
                <path
                   id="Vector_45"
                   d="m 334.082,317.499 -3.256,0.724 c -1.926,0.414 -3.917,0.414 -5.842,0 l -3.877,-0.775 2.585,1.589 c 1.216,0.78 2.634,1.186 4.078,1.17 1.444,-0.016 2.852,-0.454 4.051,-1.26 z"
                   fill="#ce5967" />
                <path
                   id="Vector_46"
                   d="m 330.697,311.71 c 0,0.805 -0.32,1.578 -0.89,2.147 -0.569,0.57 -1.342,0.89 -2.147,0.89 -0.805,0 -1.578,-0.32 -2.147,-0.89 -0.57,-0.569 -0.89,-1.342 -0.89,-2.147 0,-1.68 3.037,-10.158 3.037,-10.158 0,0 3.037,8.478 3.037,10.158 z"
                   fill="#e09090" />
                <path
                   id="Vector_47"
                   d="m 322.426,295.491 c 0.535,0.176 1.013,0.492 1.386,0.914 0.372,0.423 0.625,0.937 0.733,1.49 l 0.142,0.737 c -0.825,-0.825 -1.821,-1.459 -2.917,-1.858 -1.096,-0.4 -2.266,-0.555 -3.428,-0.456 -1.495,0.293 -2.923,0.858 -4.213,1.667 0,0 1.499,-2.791 4.071,-3.062 1.432,-0.103 2.871,0.09 4.226,0.568 z"
                   fill="#db8dff" />
                <path
                   id="Vector_48"
                   d="m 333.475,295.491 c -0.534,0.177 -1.012,0.493 -1.384,0.916 -0.373,0.422 -0.626,0.936 -0.735,1.488 l -0.142,0.737 c 0.825,-0.825 1.82,-1.46 2.916,-1.859 1.096,-0.4 2.267,-0.555 3.429,-0.455 1.498,0.295 2.93,0.86 4.226,1.667 0,0 -1.512,-2.791 -4.084,-3.062 -1.432,-0.103 -2.871,0.09 -4.226,0.568 z"
                   fill="#db8dff" />
                <path
                   id="Vector_49"
                   d="m 340.958,266.104 c -1.496,-1.699 -3.35,-3.045 -5.428,-3.941 -3.538,-1.029 -7.239,-1.38 -10.907,-1.034 -3.877,0.517 -12.018,1.706 -16.71,10.946 -4.691,9.24 -2.171,20.535 -2.171,20.535 0,0 2.275,-1.176 15.818,-3.296 9.667,-1.499 12.794,-11.217 13.841,-17.821 0,1.137 0.077,2.43 0.129,3.877 0.31,8.801 12.212,17.304 12.212,17.304 1.241,-12.988 -2.92,-22.706 -6.784,-26.57 z"
                   fill="#db8dff" />
              </g>
            </g>
            <g
               id="ema">
              <path
                 id="Vector_50"
                 d="m 346,192 v 25"
                 stroke="#ed1c24"
                 stroke-width="3"
                 stroke-miterlimit="10" />
              <path
                 id="Vector_51"
                 d="m 339.104,137.136 c 2.301,1.395 4.962,2.081 7.651,1.973 2.689,-0.108 5.287,-1.005 7.469,-2.581 l 0.543,-0.374 c 0.721,-2.039 1.782,-3.939 3.14,-5.622 h -1.176 c -0.852,-0.073 -1.641,-0.476 -2.199,-1.123 -0.558,-0.647 -0.84,-1.487 -0.786,-2.34 v -6.979 c -0.008,-0.159 0.045,-0.316 0.148,-0.438 0.103,-0.123 0.249,-0.201 0.407,-0.221 6.888,-0.388 12.381,-6.991 12.381,-15.068 v -3.153 c 0.247,0.115 0.515,0.181 0.788,0.193 1.667,0 3.024,-2.4937 3.024,-5.5694 0,-3.0756 -1.292,-5.5698 -3.024,-5.5698 -0.275,-3e-4 -0.545,0.0663 -0.788,0.1938 v -6.2418 c 0,-13.104 -9.15,-23.7138 -20.445,-23.7138 h -1.111 c -11.295,0 -20.444,10.6098 -20.444,23.7138 v 6.3452 c -0.281,-0.194 -0.615,-0.2976 -0.957,-0.2972 -1.68,0 -3.037,2.4942 -3.037,5.5698 0,3.0757 1.357,5.5694 3.037,5.5694 0.339,-0.009 0.668,-0.107 0.957,-0.284 v 3.244 c 0,8.077 5.492,14.68 12.38,15.055 0.08,0.007 0.158,0.029 0.229,0.066 0.071,0.036 0.134,0.087 0.186,0.148 0.052,0.061 0.091,0.132 0.115,0.209 0.024,0.076 0.033,0.157 0.026,0.236 v 7.483 c 0.053,0.719 -0.181,1.431 -0.651,1.978 -0.469,0.547 -1.137,0.886 -1.856,0.942 h -2.081 c 1.148,1.377 2.064,2.931 2.714,4.601 z"
                 fill="#f7b7b7" />
              <path
                 id="Vector_52"
                 d="m 339.104,137.136 -3.36,-2.016 0.44,1.033 c 3.204,7.896 7.521,25.73 6.616,64.37 h 5.35 c -0.904,-38.64 3.399,-56.474 6.617,-64.37 l -0.543,0.375 c -2.182,1.576 -4.779,2.473 -7.468,2.581 -2.689,0.108 -5.351,-0.578 -7.652,-1.973 z"
                 fill="#2e3192" />
              <path
                 id="Vector_53"
                 d="m 335.744,135.12 3.36,2.016 z"
                 fill="#2e3192" />
              <path
                 id="Vector_54"
                 d="m 328.882,131.01 -0.478,-0.297 z"
                 fill="#1c75bc" />
              <path
                 id="Vector_55"
                 d="m 334.451,134.409 -1.215,-0.724 z"
                 fill="#1c75bc" />
              <path
                 id="Vector_56"
                 d="m 334.465,134.409 1.292,0.762 z"
                 fill="#1c75bc" />
              <path
                 id="Vector_57"
                 d="m 331.983,132.871 -3.101,-1.861 z"
                 fill="#1c75bc" />
              <path
                 id="Vector_58"
                 d="M 333.211,133.608 332.1,132.936 Z"
                 fill="#1c75bc" />
              <path
                 id="Vector_59"
                 d="m 328.094,130.532 0.323,0.194 z"
                 fill="#1c75bc" />
              <path
                 id="Vector_60"
                 d="m 341.637,97.7463 c -1.248,0.7722 -2.596,1.368 -4.006,1.7705 -1.418,-0.4003 -2.774,-0.9916 -4.032,-1.7575 1.258,-0.7626 2.614,-1.3496 4.032,-1.7447 1.409,0.3891 2.757,0.9719 4.006,1.7317 z"
                 fill="#ffffff" />
              <path
                 id="Vector_61"
                 d="m 337.631,99.659 c 1.006,0 1.822,-0.8158 1.822,-1.8222 0,-1.0063 -0.816,-1.8222 -1.822,-1.8222 -1.007,0 -1.822,0.8159 -1.822,1.8222 0,1.0064 0.815,1.8222 1.822,1.8222 z"
                 fill="#231f20" />
              <path
                 id="Vector_62"
                 d="m 358.903,97.7463 c -1.255,0.7753 -2.612,1.3712 -4.032,1.7705 -1.415,-0.4018 -2.768,-0.9976 -4.019,-1.7705 1.253,-0.7724 2.611,-1.36 4.032,-1.7446 1.414,0.3904 2.767,0.9777 4.019,1.7446 z"
                 fill="#ffffff" />
              <path
                 id="Vector_63"
                 d="m 354.896,99.659 c 1.007,0 1.823,-0.8158 1.823,-1.8222 0,-1.0063 -0.816,-1.8222 -1.823,-1.8222 -1.006,0 -1.822,0.8159 -1.822,1.8222 0,1.0064 0.816,1.8222 1.822,1.8222 z"
                 fill="#231f20" />
              <path
                 id="Vector_64"
                 d="m 352.945,113.254 -3.257,0.724 c -1.925,0.413 -3.916,0.413 -5.841,0 l -3.877,-0.776 2.584,1.59 c 1.215,0.782 2.633,1.191 4.078,1.175 1.445,-0.016 2.854,-0.456 4.051,-1.266 z"
                 fill="#be1e2d" />
              <path
                 id="Vector_65"
                 d="m 349.558,107.464 c 0,0.806 -0.32,1.578 -0.889,2.148 -0.57,0.569 -1.342,0.889 -2.148,0.889 -0.805,0 -1.578,-0.32 -2.147,-0.889 -0.57,-0.57 -0.89,-1.342 -0.89,-2.148 0,-1.68 3.037,-10.1571 3.037,-10.1571 0,0 3.037,8.4771 3.037,10.1571 z"
                 fill="#e09090" />
              <path
                 id="Vector_66"
                 d="m 368.219,102.386 c 0.571,0 1.034,-0.533 1.034,-1.189 0,-0.657 -0.463,-1.189 -1.034,-1.189 -0.571,0 -1.033,0.532 -1.033,1.189 0,0.656 0.462,1.189 1.033,1.189 z"
                 fill="#2e3192" />
              <path
                 id="Vector_67"
                 d="m 323.532,102.166 c 0.571,0 1.034,-0.532 1.034,-1.189 0,-0.657 -0.463,-1.1889 -1.034,-1.1889 -0.571,0 -1.034,0.5319 -1.034,1.1889 0,0.657 0.463,1.189 1.034,1.189 z"
                 fill="#2e3192" />
              <path
                 id="Vector_68"
                 d="m 350.18,92.8097 1.874,2.171 c 0,0 1.938,-1.4215 8.723,-1.8609 -3.361,-1.4659 -7.157,-1.577 -10.597,-0.3101 z"
                 fill="#a7a9ac" />
              <path
                 id="Vector_69"
                 d="m 342.063,92.8096 -1.848,2.1711 c 0,0 -1.938,-1.4215 -8.723,-1.8609 3.353,-1.4591 7.139,-1.5701 10.571,-0.3102 z"
                 fill="#a7a9ac" />
              <path
                 id="Vector_70"
                 d="m 369.266,69.7936 c -2.675,-5.376 -6.978,-8.4775 -10.338,-7.7538 -1.863,0.4279 -3.813,0.2699 -5.583,-0.4523 -0.267,-0.1122 -0.522,-0.2507 -0.762,-0.4136 -2.549,-1.7249 -5.488,-2.7857 -8.55,-3.0858 -3.063,-0.3002 -6.152,0.1697 -8.987,1.367 -14.719,6.0093 -11.23,29.7231 -11.23,29.7231 5.985,0.8351 12.083,0.0911 17.692,-2.1581 6.177,-2.3649 12.458,-4.8333 14.435,-10.3385 0.232,0.5815 0.478,1.1631 0.762,1.7317 3.115,6.2677 10.429,11.3206 10.429,11.3206 0,0 5.247,-13.6338 2.132,-19.9403 z"
                 fill="#a7a9ac" />
              <path
                 id="Vector_71"
                 d="m 336.183,136.154 -0.439,-1.034 c -0.647,-1.668 -1.564,-3.218 -2.714,-4.588 h -5.285 c -7.444,0 -13.492,7.005 -13.492,15.65 v 38.627 c 0,8.646 6.048,15.715 13.492,15.715 h 17.64 c 0.904,-38.214 -5.997,-56.474 -9.202,-64.37 z"
                 fill="#1c75bc" />
              <path
                 id="Vector_72"
                 d="m 374.694,137.239 c -0.168,-0.271 -0.336,-0.53 -0.517,-0.788 l -0.155,-0.246 c -1.149,-1.713 -2.695,-3.124 -4.506,-4.112 -1.811,-0.987 -3.834,-1.523 -5.897,-1.561 h -5.712 c -1.369,1.681 -2.444,3.582 -3.179,5.622 -3.218,7.896 -11.398,26.156 -10.494,64.37 h 19.385 c 7.444,0 13.492,-7.069 13.492,-15.715 v -38.64 c 0.017,-3.14 -0.818,-6.227 -2.417,-8.93 z"
                 fill="#1c75bc" />
            </g>
            <g
               id="isa">
              <path
                 id="Vector_73"
                 d="m 253.298,125.104 c -0.002,0.352 0.055,0.701 0.168,1.034 v -5.04 c 0.003,-0.169 0.07,-0.331 0.187,-0.454 0.118,-0.122 0.277,-0.195 0.446,-0.205 3.827,-0.17 7.442,-1.81 10.09,-4.578 2.648,-2.769 4.126,-6.452 4.126,-10.283 v -5.945 c 0.288,0.1162 0.594,0.1818 0.904,0.1939 1.913,0 3.463,-2.4683 3.463,-5.5053 0,-3.0369 -1.55,-5.531 -3.463,-5.531 -0.312,-8e-4 -0.62,0.0653 -0.904,0.1938 v -3.3471 c 0,-3.0762 -0.607,-6.1222 -1.784,-8.9641 -1.178,-2.8419 -2.904,-5.4239 -5.08,-7.5985 -2.175,-2.1746 -4.758,-3.8992 -7.601,-5.0752 -2.842,-1.1761 -5.889,-1.7805 -8.965,-1.7788 h -1.292 c -6.211,0 -12.167,2.4671 -16.558,6.8586 -4.392,4.3914 -6.859,10.3476 -6.859,16.558 v 0 3.4763 c -0.345,-0.2027 -0.737,-0.3139 -1.137,-0.323 -1.913,0 -3.477,2.4553 -3.477,5.4923 0,3.0369 1.564,5.5052 3.477,5.5052 0.384,-0.0037 0.761,-0.1013 1.098,-0.2843 v 6.0872 c -0.003,3.832 1.473,7.517 4.122,10.286 2.649,2.769 6.265,4.408 10.094,4.575 0.169,0.01 0.328,0.083 0.446,0.205 0.117,0.123 0.184,0.285 0.187,0.454 v 1.538 h 18.286 z"
                 fill="#f7b7b7" />
              <path
                 id="Vector_74"
                 d="m 253.467,126.138 c -0.114,-0.333 -0.17,-0.682 -0.168,-1.034 v -2.455 h -18.468 v 3.024 c 0.002,0.545 -0.144,1.079 -0.422,1.548 -0.277,0.468 -0.676,0.853 -1.154,1.114 0.258,0.478 0.53,1.034 0.84,1.68 0,0.129 0.116,0.271 0.181,0.401 2.856,6.19 7.663,19.113 9.847,39.363 2.223,-20.677 7.211,-33.729 10.041,-39.764 0.336,-0.698 0.634,-1.292 0.905,-1.822 -0.782,-0.449 -1.357,-1.187 -1.602,-2.055 z"
                 fill="#b3b3b3" />
              <path
                 id="Vector_75"
                 d="m 233.255,128.335 v -0.142 c -0.5,0.3 -1.071,0.461 -1.654,0.465 h 0.439 c 0.424,-0.015 0.839,-0.126 1.215,-0.323 z"
                 fill="#fbb040" />
              <path
                 id="Vector_76"
                 d="m 238.333,108.692 3.218,0.879 c 1.888,0.519 3.878,0.541 5.776,0.065 l 3.774,-0.944 -2.507,1.926 c -1.138,0.928 -2.568,1.424 -4.036,1.4 -1.469,-0.024 -2.881,-0.565 -3.989,-1.53 z"
                 fill="#e09090" />
              <path
                 id="Vector_77"
                 d="m 247.47,103.859 c 0,0.795 -0.316,1.558 -0.878,2.12 -0.562,0.562 -1.325,0.878 -2.12,0.878 -0.795,0 -1.558,-0.316 -2.12,-0.878 -0.562,-0.562 -0.878,-1.325 -0.878,-2.12 v 0 c 0,-1.654 2.998,-10.0284 2.998,-10.0284 0,0 2.998,8.3744 2.998,10.0284 z"
                 fill="#e09090" />
              <path
                 id="Vector_78"
                 d="m 239.716,92.564 c -1.243,0.7621 -2.588,1.345 -3.993,1.7317 -1.401,-0.3916 -2.74,-0.9743 -3.981,-1.7317 1.242,-0.7532 2.581,-1.3316 3.981,-1.7188 1.403,0.3863 2.747,0.9647 3.993,1.7188 z"
                 fill="#ffffff" />
              <path
                 id="Vector_79"
                 d="m 235.8,94.451 c 0.992,0 1.797,-0.8042 1.797,-1.7963 0,-0.9921 -0.805,-1.7963 -1.797,-1.7963 -0.992,0 -1.796,0.8042 -1.796,1.7963 0,0.9921 0.804,1.7963 1.796,1.7963 z"
                 fill="#231f20" />
              <path
                 id="Vector_80"
                 d="m 256.812,92.564 c -1.242,0.7551 -2.581,1.3376 -3.98,1.7317 -1.406,-0.3867 -2.75,-0.9696 -3.993,-1.7317 1.243,-0.7587 2.588,-1.3374 3.993,-1.7188 1.399,0.3895 2.738,0.9678 3.98,1.7188 z"
                 fill="#ffffff" />
              <path
                 id="Vector_81"
                 d="m 252.859,94.451 c 0.992,0 1.796,-0.8042 1.796,-1.7963 0,-0.9921 -0.804,-1.7963 -1.796,-1.7963 -0.992,0 -1.797,0.8042 -1.797,1.7963 0,0.9921 0.805,1.7963 1.797,1.7963 z"
                 fill="#231f20" />
              <path
                 id="Vector_82"
                 d="m 238.708,86.8779 c 0.535,0.1771 1.012,0.493 1.385,0.9153 0.372,0.4223 0.626,0.936 0.734,1.4884 l 0.181,0.8013 c -0.825,-0.8243 -1.821,-1.4583 -2.917,-1.8579 -1.096,-0.3995 -2.266,-0.555 -3.428,-0.4554 -1.493,0.298 -2.92,0.8627 -4.213,1.6671 0,0 1.512,-2.856 4.097,-3.1274 1.411,-0.0818 2.824,0.1113 4.161,0.5686 z"
                 fill="#939598" />
              <path
                 id="Vector_83"
                 d="m 249.77,86.878 c -0.534,0.1771 -1.012,0.4929 -1.385,0.9152 -0.372,0.4224 -0.626,0.936 -0.734,1.4885 l -0.181,0.8012 c 0.825,-0.825 1.82,-1.4595 2.916,-1.8591 1.096,-0.3996 2.267,-0.5546 3.429,-0.4541 1.498,0.2942 2.93,0.8591 4.226,1.667 0,0 -1.512,-2.7913 -4.084,-3.0627 -1.415,-0.106 -2.837,0.0652 -4.187,0.504 z"
                 fill="#939598" />
              <path
                 id="Vector_84"
                 d="m 221.455,84.3837 c 0,-10.08 5.867,-18.2861 13.027,-18.2861 2.298,0.0402 4.517,0.8451 6.306,2.2873 0.917,0.7341 2.057,1.134 3.231,1.134 1.175,0 2.314,-0.3999 3.231,-1.134 1.789,-1.4422 4.008,-2.2471 6.306,-2.2873 7.198,0 13.027,8.1803 13.027,18.2861 v 0.8917 l 1.563,1.4086 v -3.9932 c 0,-6.2105 -2.467,-12.1666 -6.858,-16.5581 -4.392,-4.3914 -10.348,-6.8585 -16.558,-6.8585 h -1.37 c -6.21,0 -12.167,2.4671 -16.558,6.8585 -4.392,4.3915 -6.859,10.3476 -6.859,16.5581 v 3.9932 l 1.487,-1.4086 c 0.051,-0.2972 0.025,-0.6332 0.025,-0.8917 z"
                 fill="#bcbec0" />
              <path
                 id="Vector_85"
                 d="m 280.062,144.709 c 0.069,-4.184 -1.526,-8.225 -4.433,-11.234 -2.908,-3.01 -6.891,-4.742 -11.075,-4.817 h -7.883 c -0.583,-0.003 -1.155,-0.164 -1.654,-0.465 -0.272,0.517 -0.569,1.124 -0.905,1.822 -3.683,7.857 -11.049,27.63 -11.178,60.596 v 9.912 h 21.865 c 4.113,0 8.058,-1.634 10.966,-4.542 2.908,-2.908 4.542,-6.852 4.542,-10.965 v -38.175 c -0.029,-0.716 -0.111,-1.429 -0.245,-2.132 z"
                 fill="#4c2911" />
              <path
                 id="Vector_86"
                 d="m 244.122,169.78 c -2.184,-20.251 -6.991,-33.174 -9.86,-39.364 0,-0.129 -0.129,-0.272 -0.181,-0.401 -0.31,-0.646 -0.581,-1.202 -0.84,-1.68 -0.399,0.21 -0.842,0.32 -1.292,0.323 h -8.439 c -2.072,0.034 -4.116,0.476 -6.017,1.3 -1.901,0.824 -3.621,2.015 -5.061,3.505 -1.44,1.489 -2.573,3.248 -3.333,5.175 -0.76,1.928 -1.133,3.986 -1.097,6.058 v 40.32 c 0,4.113 1.634,8.057 4.542,10.965 2.909,2.909 6.853,4.543 10.966,4.543 h 21.75 v -9.912 c -0.023,-6.959 -0.403,-13.912 -1.138,-20.832 z"
                 fill="#4c2911" />
            </g>
            <g
               id="abikaasa">
              <path
                 id="Vector_87"
                 d="m 158.544,329.134 h -10.158 c -0.083,0.003 -0.167,-0.01 -0.245,-0.04 -0.078,-0.03 -0.15,-0.075 -0.21,-0.133 -0.06,-0.058 -0.108,-0.127 -0.141,-0.204 -0.033,-0.077 -0.05,-0.16 -0.05,-0.244 v -9.317 c -0.001,-0.083 0.013,-0.165 0.044,-0.242 0.03,-0.076 0.076,-0.146 0.133,-0.205 0.058,-0.059 0.127,-0.106 0.203,-0.138 0.076,-0.032 0.158,-0.049 0.241,-0.049 3.673,-0.191 7.133,-1.784 9.667,-4.451 2.533,-2.666 3.949,-6.202 3.953,-9.88 v -2.365 c 0.273,0.123 0.567,0.189 0.866,0.194 1.848,0 3.347,-2.378 3.347,-5.312 0,-2.933 -1.499,-5.298 -3.347,-5.298 -0.298,0 -0.592,0.061 -0.866,0.181 v -6.604 c 0,-2.971 -0.586,-5.912 -1.724,-8.656 -1.138,-2.745 -2.807,-5.237 -4.91,-7.335 -2.103,-2.099 -4.6,-3.762 -7.346,-4.894 -2.747,-1.132 -5.69,-1.711 -8.661,-1.704 h -1.292 c -5.971,0.023 -11.689,2.413 -15.901,6.645 -4.212,4.231 -6.576,9.96 -6.572,15.931 v 6.643 c -0.325,-0.178 -0.69,-0.271 -1.06,-0.272 -1.848,0 -3.347,2.378 -3.347,5.299 0,2.92 1.499,5.311 3.347,5.311 0.372,-0.004 0.736,-0.102 1.06,-0.284 v 2.455 c -0.015,3.691 1.394,7.246 3.933,9.925 2.54,2.679 6.014,4.276 9.701,4.459 0.165,0.003 0.323,0.071 0.439,0.19 0.116,0.118 0.181,0.277 0.181,0.443 v 9.304 c 0,0.168 -0.067,0.329 -0.186,0.448 -0.118,0.119 -0.279,0.186 -0.447,0.186 h -10.339 c -3.942,0.02 -7.715,1.6 -10.495,4.395 -2.78,2.794 -4.341,6.576 -4.341,10.518 v 36.792 c 0,1.957 0.386,3.894 1.135,5.702 0.749,1.808 1.846,3.45 3.23,4.834 1.383,1.384 3.026,2.481 4.834,3.23 1.807,0.749 3.745,1.134 5.702,1.134 h 39.622 c 3.952,-0.003 7.741,-1.574 10.537,-4.367 2.796,-2.793 4.369,-6.581 4.376,-10.533 v -36.792 c -0.007,-3.952 -1.58,-7.74 -4.376,-10.533 -2.796,-2.793 -6.585,-4.364 -10.537,-4.367 z"
                 fill="#f7b7b7" />
              <path
                 id="Vector_88"
                 d="m 141.924,305.433 c 0,0.768 -0.305,1.504 -0.848,2.047 -0.542,0.543 -1.279,0.848 -2.046,0.848 -0.768,0 -1.504,-0.305 -2.047,-0.848 -0.543,-0.543 -0.848,-1.279 -0.848,-2.047 0,-1.603 2.895,-9.68 2.895,-9.68 0,0 2.894,8.077 2.894,9.68 z"
                 fill="#e09090" />
              <path
                 id="Vector_89"
                 d="m 133.188,298.066 c 0,0 -2.068,1.706 -2.998,1.706 -0.931,0 -2.999,-1.706 -2.999,-1.706 0,0 2.055,-1.744 2.999,-1.744 0.943,0 2.998,1.744 2.998,1.744 z"
                 fill="#ffffff" />
              <path
                 id="Vector_90"
                 d="m 150.414,298.066 c 0,0 -2.067,1.706 -2.998,1.706 -0.93,0 -2.998,-1.706 -2.998,-1.706 0,0 2.055,-1.744 2.998,-1.744 0.944,0 2.998,1.744 2.998,1.744 z"
                 fill="#ffffff" />
              <path
                 id="Vector_91"
                 d="m 159.112,327.337 h -0.388 l -10.571,-0.62 -3.231,1.525 c -2.042,0.959 -4.276,1.443 -6.532,1.414 -2.257,-0.03 -4.477,-0.57 -6.494,-1.582 l -2.507,-1.292 -10.83,0.478 h -0.361 c -4.044,0.044 -7.908,1.681 -10.753,4.555 -2.845,2.874 -4.442,6.753 -4.445,10.797 v 16.529 h 15.727 v 36.882 h 39.997 v -36.882 h 15.728 v -16.529 c -0.017,-4.057 -1.641,-7.942 -4.516,-10.805 -2.875,-2.862 -6.767,-4.47 -10.824,-4.47 z"
                 fill="#c06c29" />
              <path
                 id="Vector_92"
                 d="m 130.191,299.63 c 0.863,0 1.563,-0.7 1.563,-1.563 0,-0.864 -0.7,-1.564 -1.563,-1.564 -0.864,0 -1.564,0.7 -1.564,1.564 0,0.863 0.7,1.563 1.564,1.563 z"
                 fill="#2b3990" />
              <path
                 id="Vector_93"
                 d="m 147.417,299.63 c 0.864,0 1.564,-0.7 1.564,-1.563 0,-0.864 -0.7,-1.564 -1.564,-1.564 -0.863,0 -1.563,0.7 -1.563,1.564 0,0.863 0.7,1.563 1.563,1.563 z"
                 fill="#2b3990" />
              <path
                 id="Vector_94"
                 d="m 132.581,311.041 3.102,0.84 c 1.825,0.478 3.744,0.478 5.569,0 l 3.645,-0.904 -2.43,1.848 c -1.096,0.904 -2.477,1.389 -3.898,1.368 -1.421,-0.022 -2.787,-0.548 -3.856,-1.485 z"
                 fill="#e09090" />
              <path
                 id="Vector_95"
                 d="m 135.967,292.445 -7.443,-1.06 c -0.324,-0.058 -0.656,-0.044 -0.973,0.041 -0.317,0.085 -0.611,0.239 -0.862,0.45 l -1.5,0.853 1.797,-2.119 c 0.317,-0.409 0.767,-0.694 1.272,-0.805 0.506,-0.111 1.034,-0.041 1.493,0.198 z"
                 fill="#a87e4c" />
              <path
                 id="Vector_96"
                 d="m 141.989,292.445 7.444,-1.06 c 0.323,-0.056 0.655,-0.041 0.972,0.044 0.316,0.084 0.611,0.237 0.863,0.447 l 1.499,0.853 -1.796,-2.145 c -0.319,-0.407 -0.769,-0.69 -1.274,-0.801 -0.504,-0.111 -1.032,-0.042 -1.492,0.194 z"
                 fill="#a87e4c" />
              <path
                 id="Vector_97"
                 d="m 154.847,267.762 c -0.301,-0.02 -0.603,-0.02 -0.904,0 v 0 c 0,-4.833 -7.444,-8.762 -16.632,-8.762 -9.188,0 -16.645,3.877 -16.645,8.762 0,0.438 0.065,0.873 0.194,1.292 -0.773,-0.913 -1.877,-1.482 -3.07,-1.582 -1.192,-0.099 -2.375,0.279 -3.288,1.052 -0.914,0.773 -1.483,1.877 -1.582,3.07 -0.099,1.192 0.279,2.375 1.052,3.288 0.197,0.234 0.418,0.446 0.659,0.634 -0.412,0.513 -0.625,1.157 -0.603,1.814 0.022,0.658 0.279,1.286 0.724,1.77 0.446,0.484 1.05,0.793 1.703,0.871 0.653,0.077 1.313,-0.082 1.859,-0.449 0.28,-0.259 0.503,-0.573 0.657,-0.922 0.153,-0.349 0.233,-0.726 0.235,-1.107 -0.002,-0.34 -0.063,-0.677 -0.181,-0.995 l 0.206,-0.078 v 0.517 c 0.001,1.137 0.312,2.251 0.898,3.225 0.587,0.973 1.428,1.768 2.432,2.299 1.005,0.532 2.135,0.78 3.269,0.717 1.135,-0.062 2.231,-0.433 3.171,-1.072 0.462,1.683 1.516,3.143 2.969,4.11 1.453,0.967 3.206,1.376 4.937,1.153 1.73,-0.224 3.322,-1.065 4.482,-2.369 1.159,-1.304 1.808,-2.984 1.828,-4.729 v -0.349 c 0.542,0.184 1.122,0.224 1.684,0.115 0.562,-0.109 1.086,-0.362 1.521,-0.735 0.625,-0.545 1.025,-1.305 1.121,-2.129 0.095,-0.825 -0.12,-1.655 -0.604,-2.329 l 0.659,-0.259 c -0.013,0.121 -0.013,0.242 0,0.362 0,1.431 0.424,2.831 1.219,4.021 0.795,1.19 1.926,2.117 3.248,2.665 1.322,0.548 2.778,0.691 4.181,0.412 1.404,-0.279 2.694,-0.969 3.706,-1.981 1.012,-1.012 1.701,-2.301 1.98,-3.705 0.28,-1.404 0.136,-2.859 -0.411,-4.181 -0.548,-1.323 -1.476,-2.453 -2.666,-3.248 -1.19,-0.795 -2.589,-1.22 -4.02,-1.22 v 0 z m -32.488,3.877 -0.155,0.103 v -0.336 z"
                 fill="#fbb040" />
            </g>
            <g
               id="mina">
              <path
                 id="Vector_98"
                 d="m 262.458,331.694 h -7.289 c -0.839,0 -1.645,-0.334 -2.238,-0.928 -0.594,-0.594 -0.928,-1.399 -0.928,-2.239 v -6.358 c 0.006,-0.157 0.071,-0.306 0.18,-0.418 0.11,-0.112 0.258,-0.18 0.415,-0.189 3.531,-0.166 6.863,-1.686 9.303,-4.244 2.44,-2.558 3.801,-5.958 3.801,-9.493 v -5.454 c 0.267,0.106 0.552,0.163 0.84,0.168 1.77,0 3.205,-2.274 3.205,-5.079 0,-2.804 -1.435,-5.078 -3.205,-5.078 -0.29,0.002 -0.575,0.064 -0.84,0.18 v -3.127 c 10e-4,-2.846 -0.559,-5.664 -1.648,-8.293 -1.09,-2.628 -2.688,-5.016 -4.703,-7.026 -2.015,-2.01 -4.406,-3.602 -7.038,-4.686 -2.631,-1.083 -5.45,-1.637 -8.296,-1.628 h -1.189 c -5.737,0.003 -11.237,2.284 -15.293,6.34 -4.057,4.056 -6.337,9.557 -6.34,15.293 v 3.231 c -0.309,-0.17 -0.656,-0.259 -1.008,-0.259 -1.771,0 -3.218,2.275 -3.218,5.079 0,2.804 1.447,5.079 3.218,5.079 0.352,0 0.699,-0.089 1.008,-0.259 v 5.544 c 0.006,3.531 1.37,6.924 3.809,9.477 2.44,2.553 5.768,4.069 9.295,4.235 0.079,0 0.157,0.016 0.23,0.046 0.073,0.031 0.139,0.076 0.195,0.133 0.055,0.056 0.099,0.123 0.128,0.197 0.029,0.073 0.043,0.152 0.041,0.231 v 6.875 c 0,0.686 -0.272,1.343 -0.757,1.828 -0.485,0.485 -1.142,0.757 -1.828,0.757 h -7.753 c -3.778,0 -7.401,1.495 -10.08,4.159 -2.678,2.663 -4.193,6.279 -4.213,10.056 v 35.267 c 0.024,3.777 1.54,7.39 4.217,10.053 2.678,2.663 6.299,4.159 10.076,4.163 h 37.916 c 1.867,0 3.715,-0.368 5.44,-1.082 1.725,-0.715 3.292,-1.762 4.612,-3.082 1.32,-1.32 2.367,-2.887 3.081,-4.612 0.715,-1.724 1.082,-3.573 1.082,-5.44 v -35.086 c 0.016,-1.877 -0.341,-3.739 -1.049,-5.478 -0.709,-1.739 -1.755,-3.321 -3.077,-4.653 -1.323,-1.333 -2.897,-2.39 -4.631,-3.111 -1.734,-0.721 -3.593,-1.091 -5.471,-1.089 z"
                 fill="#f7b7b7" />
              <path
                 id="Vector_99"
                 d="m 258.612,271.562 c 0.581,-1.382 0.88,-2.868 0.879,-4.368 0,-7.236 -7.017,-13.194 -15.508,-13.194 -8.49,0 -15.508,5.919 -15.508,13.194 0.002,1.457 0.283,2.901 0.827,4.252 -5.531,4.032 -8.451,10.584 -8.296,19.178 21.388,-0.336 22.693,-15.017 22.796,-18.919 l 0.065,-0.724 c 0.271,24.67 21.969,18.7 21.969,18.7 -0.039,-9.46 -2.946,-14.952 -7.224,-18.119 z"
                 fill="#3c2415" />
              <path
                 id="Vector_100"
                 d="m 237.555,315.578 2.972,0.814 c 1.75,0.453 3.587,0.453 5.337,0 l 3.489,-0.878 -2.326,1.783 c -1.045,0.861 -2.362,1.326 -3.716,1.312 -1.355,-0.014 -2.661,-0.506 -3.689,-1.389 z"
                 fill="#e09090" />
              <path
                 id="Vector_101"
                 d="m 246.601,309.001 c -0.048,0.702 -0.361,1.36 -0.876,1.841 -0.514,0.48 -1.192,0.748 -1.896,0.748 -0.704,0 -1.382,-0.268 -1.897,-0.748 -0.514,-0.481 -0.827,-1.139 -0.875,-1.841 0,-1.538 2.778,-9.266 2.778,-9.266 0,0 2.766,7.728 2.766,9.266 z"
                 fill="#e09090" />
              <path
                 id="Vector_102"
                 d="m 247.558,296.31 c 0,0 2.752,-4.032 8.852,-1.693 -2.494,-1.68 -7.689,-3.864 -8.852,1.693 z"
                 fill="#231f20" />
              <path
                 id="Vector_103"
                 d="m 239.61,296.31 c 0,0 -2.765,-4.032 -8.852,-1.693 2.481,-1.68 7.689,-3.864 8.852,1.693 z"
                 fill="#231f20" />
              <path
                 id="Vector_104"
                 d="m 237.865,300.058 c 0,0 -2.054,1.706 -2.998,1.706 -0.943,0 -2.998,-1.706 -2.998,-1.706 0,0 2.055,-1.706 2.998,-1.706 0.944,0 2.998,1.706 2.998,1.706 z"
                 fill="#ffffff" />
              <path
                 id="Vector_105"
                 d="m 255.092,300.058 c 0,0 -2.055,1.706 -2.998,1.706 -0.944,0 -2.998,-1.706 -2.998,-1.706 0,0 2.054,-1.706 2.998,-1.706 0.943,0 2.998,1.706 2.998,1.706 z"
                 fill="#ffffff" />
              <path
                 id="Vector_106"
                 d="m 235.294,301.557 c 0.828,0 1.499,-0.671 1.499,-1.499 0,-0.828 -0.671,-1.499 -1.499,-1.499 -0.828,0 -1.499,0.671 -1.499,1.499 0,0.828 0.671,1.499 1.499,1.499 z"
                 fill="#231f20" />
              <path
                 id="Vector_107"
                 d="m 251.796,301.557 c 0.828,0 1.499,-0.671 1.499,-1.499 0,-0.828 -0.671,-1.499 -1.499,-1.499 -0.828,0 -1.499,0.671 -1.499,1.499 0,0.828 0.671,1.499 1.499,1.499 z"
                 fill="#231f20" />
              <path
                 id="Vector_108"
                 d="m 262.664,331.345 h -7.379 c -0.742,-0.005 -1.46,-0.264 -2.034,-0.735 -0.573,-0.47 -0.969,-1.123 -1.119,-1.849 0.013,-0.069 0.013,-0.139 0,-0.207 l -2.042,0.969 c -2.005,0.938 -4.197,1.409 -6.41,1.38 -2.213,-0.029 -4.391,-0.558 -6.371,-1.548 l -2.494,-1.176 v 0.517 c -0.004,0.712 -0.288,1.394 -0.791,1.897 -0.504,0.503 -1.185,0.788 -1.897,0.791 h -7.845 c -3.833,-0.003 -7.51,1.515 -10.224,4.222 -2.714,2.707 -4.243,6.38 -4.249,10.213 v 14.216 h 14.473 v 35.693 h 38.382 c 0.327,0 0.65,0 0.969,0 v -35.706 h 13.479 v -14.216 c 0,-3.833 -1.522,-7.509 -4.231,-10.221 -2.709,-2.711 -6.384,-4.236 -10.217,-4.24 z"
                 fill="#6ba5b1" />
            </g>
          </g>
        </g>
        <g
           id="vanem-labelid">
          <g
             id="data-label=t체tar">
            <path
               d="m 107,554.5 c 0,-6.904 5.596,-12.5 12.5,-12.5 h 37 c 6.904,0 12.5,5.596 12.5,12.5 v 0 c 0,6.904 -5.596,12.5 -12.5,12.5 h -37 c -6.904,0 -12.5,-5.596 -12.5,-12.5 z"
               fill="#ecf0f2"
               id="path127" />
            <path
               id="test label"
               d="m 115.892,550.912 v -1.094 h 7.636 v 1.094 h -3.201 V 560 h -1.233 v -9.088 z m 16.221,-1.094 h 1.233 v 6.742 c 0,0.696 -0.164,1.317 -0.492,1.864 -0.325,0.544 -0.784,0.973 -1.377,1.288 -0.594,0.311 -1.29,0.467 -2.088,0.467 -0.799,0 -1.495,-0.156 -2.088,-0.467 -0.594,-0.315 -1.054,-0.744 -1.383,-1.288 -0.324,-0.547 -0.487,-1.168 -0.487,-1.864 v -6.742 h 1.233 v 6.642 c 0,0.497 0.11,0.94 0.328,1.328 0.219,0.384 0.531,0.687 0.935,0.909 0.408,0.219 0.895,0.329 1.462,0.329 0.566,0 1.054,-0.11 1.461,-0.329 0.408,-0.222 0.719,-0.525 0.935,-0.909 0.219,-0.388 0.328,-0.831 0.328,-1.328 z m -4.156,-1.273 c -0.209,0 -0.395,-0.079 -0.557,-0.238 -0.159,-0.163 -0.239,-0.348 -0.239,-0.557 0,-0.229 0.08,-0.418 0.239,-0.567 0.162,-0.152 0.348,-0.228 0.557,-0.228 0.228,0 0.417,0.076 0.567,0.228 0.152,0.149 0.228,0.338 0.228,0.567 0,0.209 -0.076,0.394 -0.228,0.557 -0.15,0.159 -0.339,0.238 -0.567,0.238 z m 2.863,0 c -0.208,0 -0.394,-0.079 -0.556,-0.238 -0.16,-0.163 -0.239,-0.348 -0.239,-0.557 0,-0.229 0.079,-0.418 0.239,-0.567 0.162,-0.152 0.348,-0.228 0.556,-0.228 0.229,0 0.418,0.076 0.567,0.228 0.153,0.149 0.229,0.338 0.229,0.567 0,0.209 -0.076,0.394 -0.229,0.557 -0.149,0.159 -0.338,0.238 -0.567,0.238 z m 4.431,2.367 v -1.094 h 7.637 v 1.094 h -3.202 V 560 h -1.233 v -9.088 z m 8.768,9.088 h -1.293 l 3.739,-10.182 h 1.272 L 151.476,560 h -1.292 l -3.043,-8.571 h -0.08 z m 0.477,-3.977 h 5.21 v 1.093 h -5.21 z m 8.566,3.977 v -10.182 h 3.44 c 0.796,0 1.449,0.136 1.959,0.408 0.511,0.268 0.888,0.638 1.134,1.109 0.245,0.47 0.368,1.005 0.368,1.605 0,0.6 -0.123,1.132 -0.368,1.596 -0.246,0.464 -0.622,0.829 -1.129,1.094 -0.507,0.262 -1.155,0.393 -1.944,0.393 h -2.784 v -1.114 h 2.745 c 0.543,0 0.981,-0.079 1.312,-0.239 0.335,-0.159 0.577,-0.384 0.726,-0.676 0.152,-0.295 0.229,-0.646 0.229,-1.054 0,-0.407 -0.077,-0.764 -0.229,-1.069 -0.153,-0.304 -0.396,-0.54 -0.731,-0.706 -0.335,-0.169 -0.777,-0.253 -1.327,-0.253 h -2.168 V 560 Z m 4.793,-4.574 2.505,4.574 h -1.431 l -2.466,-4.574 z"
               fill="#0e1013" />
          </g>
          <g
             id="data-label=abikaasa">
            <path
               d="m 97,375 c 0,-7.18 5.82,-13 13,-13 h 54 c 7.18,0 13,5.82 13,13 v 0 c 0,7.18 -5.82,13 -13,13 h -54 c -7.18,0 -13,-5.82 -13,-13 z"
               fill="#ecf0f2"
               id="path131" />
            <path
               id="test label_2"
               d="m 104.293,380.5 h -1.292 l 3.738,-10.182 h 1.273 l 3.739,10.182 h -1.293 l -3.043,-8.571 h -0.079 z m 0.477,-3.977 h 5.211 v 1.093 h -5.211 z m 8.566,3.977 v -10.182 h 3.56 c 0.709,0 1.294,0.123 1.755,0.368 0.461,0.242 0.804,0.568 1.029,0.979 0.226,0.408 0.338,0.861 0.338,1.358 0,0.437 -0.078,0.798 -0.233,1.084 -0.153,0.285 -0.355,0.51 -0.607,0.676 -0.248,0.165 -0.519,0.288 -0.81,0.368 v 0.099 c 0.311,0.02 0.624,0.129 0.939,0.328 0.315,0.199 0.579,0.484 0.791,0.855 0.212,0.371 0.318,0.826 0.318,1.362 0,0.511 -0.116,0.97 -0.348,1.378 -0.232,0.407 -0.598,0.73 -1.099,0.969 -0.5,0.239 -1.151,0.358 -1.954,0.358 z m 1.233,-1.094 h 2.446 c 0.806,0 1.378,-0.156 1.716,-0.467 0.341,-0.315 0.512,-0.696 0.512,-1.144 0,-0.344 -0.088,-0.662 -0.264,-0.954 -0.175,-0.295 -0.426,-0.53 -0.75,-0.706 -0.325,-0.179 -0.71,-0.269 -1.154,-0.269 h -2.506 z m 0,-4.613 h 2.287 c 0.372,0 0.706,-0.073 1.005,-0.219 0.301,-0.146 0.54,-0.351 0.716,-0.617 0.179,-0.265 0.268,-0.576 0.268,-0.934 0,-0.448 -0.156,-0.827 -0.467,-1.139 -0.312,-0.315 -0.806,-0.472 -1.482,-0.472 h -2.327 z m 9.106,-4.475 V 380.5 h -1.233 v -10.182 z m 2.472,10.182 v -10.182 h 1.233 v 5.051 h 0.119 l 4.574,-5.051 h 1.611 l -4.276,4.594 4.276,5.588 h -1.492 l -3.539,-4.733 -1.273,1.432 v 3.301 z m 9.55,0 h -1.292 l 3.738,-10.182 h 1.273 l 3.739,10.182 h -1.293 l -3.042,-8.571 h -0.08 z m 0.478,-3.977 h 5.21 v 1.093 h -5.21 z m 8.983,3.977 h -1.292 l 3.738,-10.182 h 1.273 l 3.739,10.182 h -1.293 l -3.042,-8.571 h -0.08 z m 0.478,-3.977 h 5.21 v 1.093 h -5.21 z m 14.134,-3.659 c -0.06,-0.504 -0.302,-0.895 -0.726,-1.174 -0.424,-0.278 -0.945,-0.417 -1.561,-0.417 -0.451,0 -0.845,0.073 -1.183,0.218 -0.335,0.146 -0.597,0.347 -0.786,0.602 -0.185,0.255 -0.278,0.545 -0.278,0.87 0,0.272 0.064,0.506 0.194,0.701 0.132,0.192 0.301,0.353 0.507,0.482 0.205,0.126 0.421,0.231 0.646,0.314 0.225,0.079 0.433,0.144 0.622,0.193 l 1.034,0.279 c 0.265,0.069 0.56,0.166 0.885,0.288 0.328,0.123 0.641,0.29 0.939,0.502 0.302,0.209 0.55,0.478 0.746,0.806 0.195,0.328 0.293,0.731 0.293,1.208 0,0.55 -0.144,1.047 -0.432,1.491 -0.285,0.444 -0.703,0.797 -1.253,1.059 -0.547,0.262 -1.212,0.393 -1.994,0.393 -0.729,0 -1.36,-0.118 -1.894,-0.353 -0.53,-0.235 -0.948,-0.563 -1.253,-0.984 -0.301,-0.421 -0.472,-0.91 -0.512,-1.467 h 1.273 c 0.033,0.384 0.162,0.703 0.388,0.955 0.228,0.248 0.517,0.434 0.865,0.556 0.351,0.12 0.729,0.179 1.133,0.179 0.471,0 0.894,-0.076 1.268,-0.228 0.375,-0.156 0.671,-0.372 0.89,-0.647 0.219,-0.278 0.328,-0.603 0.328,-0.974 0,-0.338 -0.094,-0.613 -0.283,-0.825 -0.189,-0.212 -0.438,-0.385 -0.746,-0.517 -0.308,-0.133 -0.641,-0.249 -0.999,-0.348 l -1.253,-0.358 c -0.796,-0.229 -1.425,-0.556 -1.889,-0.98 -0.464,-0.424 -0.696,-0.979 -0.696,-1.665 0,-0.57 0.154,-1.068 0.462,-1.492 0.312,-0.427 0.729,-0.759 1.253,-0.994 0.527,-0.239 1.115,-0.358 1.765,-0.358 0.656,0 1.239,0.118 1.75,0.353 0.51,0.232 0.915,0.55 1.213,0.955 0.301,0.404 0.46,0.863 0.477,1.377 z m 3.777,7.636 h -1.293 l 3.739,-10.182 h 1.273 l 3.738,10.182 h -1.292 l -3.043,-8.571 h -0.079 z m 0.477,-3.977 h 5.211 v 1.093 h -5.211 z"
               fill="#0e1013" />
          </g>
          <g
             id="data-label=채i">
            <path
               d="M 231,39.5 C 231,32.5964 236.596,27 243.5,27 h 5 c 6.904,0 12.5,5.5964 12.5,12.5 v 0 c 0,6.9036 -5.596,12.5 -12.5,12.5 h -5 C 236.596,52 231,46.4036 231,39.5 Z"
               fill="#ecf0f2"
               id="path135" />
            <path
               id="test label_3"
               d="m 241.068,45 h -1.293 l 3.739,-10.1818 h 1.272 L 248.525,45 h -1.293 l -3.042,-8.571 h -0.08 z m 0.477,-3.9773 h 5.21 v 1.0938 h -5.21 z m 1.173,-7.4772 c -0.209,0 -0.394,-0.0796 -0.557,-0.2387 -0.159,-0.1624 -0.238,-0.348 -0.238,-0.5568 0,-0.2287 0.079,-0.4176 0.238,-0.5668 0.163,-0.1524 0.348,-0.2287 0.557,-0.2287 0.229,0 0.418,0.0763 0.567,0.2287 0.152,0.1492 0.229,0.3381 0.229,0.5668 0,0.2088 -0.077,0.3944 -0.229,0.5568 -0.149,0.1591 -0.338,0.2387 -0.567,0.2387 z m 2.864,0 c -0.209,0 -0.395,-0.0796 -0.557,-0.2387 -0.159,-0.1624 -0.239,-0.348 -0.239,-0.5568 0,-0.2287 0.08,-0.4176 0.239,-0.5668 0.162,-0.1524 0.348,-0.2287 0.557,-0.2287 0.228,0 0.417,0.0763 0.567,0.2287 0.152,0.1492 0.228,0.3381 0.228,0.5668 0,0.2088 -0.076,0.3944 -0.228,0.5568 -0.15,0.1591 -0.339,0.2387 -0.567,0.2387 z m 5.762,1.2727 V 45 h -1.233 V 34.8182 Z"
               fill="#0e1013" />
          </g>
          <g
             id="data-label=채mm">
            <path
               d="M 322,39.5 C 322,32.5964 327.596,27 334.5,27 h 26 c 6.904,0 12.5,5.5964 12.5,12.5 v 0 c 0,6.9036 -5.596,12.5 -12.5,12.5 h -26 C 327.596,52 322,46.4036 322,39.5 Z"
               fill="#ecf0f2"
               id="path139" />
            <path
               id="test label_4"
               d="m 331.965,45 h -1.293 l 3.739,-10.1818 h 1.273 L 339.422,45 h -1.292 l -3.043,-8.571 h -0.079 z m 0.477,-3.9773 h 5.211 v 1.0938 h -5.211 z m 1.174,-7.4772 c -0.209,0 -0.395,-0.0796 -0.557,-0.2387 -0.159,-0.1624 -0.239,-0.348 -0.239,-0.5568 0,-0.2287 0.08,-0.4176 0.239,-0.5668 0.162,-0.1524 0.348,-0.2287 0.557,-0.2287 0.228,0 0.417,0.0763 0.566,0.2287 0.153,0.1492 0.229,0.3381 0.229,0.5668 0,0.2088 -0.076,0.3944 -0.229,0.5568 -0.149,0.1591 -0.338,0.2387 -0.566,0.2387 z m 2.863,0 c -0.209,0 -0.394,-0.0796 -0.557,-0.2387 -0.159,-0.1624 -0.238,-0.348 -0.238,-0.5568 0,-0.2287 0.079,-0.4176 0.238,-0.5668 0.163,-0.1524 0.348,-0.2287 0.557,-0.2287 0.229,0 0.418,0.0763 0.567,0.2287 0.152,0.1492 0.229,0.3381 0.229,0.5668 0,0.2088 -0.077,0.3944 -0.229,0.5568 -0.149,0.1591 -0.338,0.2387 -0.567,0.2387 z m 4.529,1.2727 h 1.472 l 3.46,8.4517 h 0.119 l 3.461,-8.4517 h 1.471 V 45 h -1.153 v -7.7358 h -0.1 L 346.557,45 h -1.114 l -3.182,-7.7358 h -0.099 V 45 h -1.154 z m 12.455,0 h 1.472 l 3.46,8.4517 h 0.12 l 3.46,-8.4517 h 1.471 V 45 h -1.153 v -7.7358 h -0.099 L 359.012,45 h -1.114 l -3.182,-7.7358 h -0.099 V 45 h -1.154 z"
               fill="#0e1013" />
          </g>
          <g
             id="data-label=poeg">
            <path
               d="m 216,554.5 c 0,-6.904 5.596,-12.5 12.5,-12.5 h 30 c 6.904,0 12.5,5.596 12.5,12.5 v 0 c 0,6.904 -5.596,12.5 -12.5,12.5 h -30 c -6.904,0 -12.5,-5.596 -12.5,-12.5 z"
               fill="#ecf0f2"
               id="path143" />
            <path
               id="test label_5"
               d="m 225.572,560 v -10.182 h 3.44 c 0.799,0 1.452,0.144 1.959,0.433 0.51,0.285 0.888,0.671 1.133,1.158 0.246,0.487 0.368,1.031 0.368,1.631 0,0.6 -0.122,1.145 -0.368,1.635 -0.241,0.491 -0.616,0.882 -1.123,1.174 -0.507,0.288 -1.157,0.432 -1.949,0.432 h -2.466 v -1.093 h 2.426 c 0.547,0 0.986,-0.095 1.318,-0.284 0.331,-0.189 0.571,-0.444 0.721,-0.766 0.152,-0.324 0.228,-0.691 0.228,-1.098 0,-0.408 -0.076,-0.772 -0.228,-1.094 -0.15,-0.321 -0.391,-0.573 -0.726,-0.756 -0.335,-0.185 -0.779,-0.278 -1.333,-0.278 h -2.167 V 560 Z m 17.477,-5.091 c 0,1.074 -0.193,2.002 -0.581,2.784 -0.388,0.782 -0.92,1.386 -1.596,1.81 -0.676,0.424 -1.448,0.636 -2.317,0.636 -0.868,0 -1.64,-0.212 -2.317,-0.636 -0.676,-0.424 -1.208,-1.028 -1.596,-1.81 -0.387,-0.782 -0.581,-1.71 -0.581,-2.784 0,-1.074 0.194,-2.002 0.581,-2.784 0.388,-0.782 0.92,-1.385 1.596,-1.81 0.677,-0.424 1.449,-0.636 2.317,-0.636 0.869,0 1.641,0.212 2.317,0.636 0.676,0.425 1.208,1.028 1.596,1.81 0.388,0.782 0.581,1.71 0.581,2.784 z m -1.193,0 c 0,-0.882 -0.147,-1.626 -0.442,-2.232 -0.292,-0.607 -0.688,-1.066 -1.188,-1.377 -0.498,-0.312 -1.054,-0.468 -1.671,-0.468 -0.616,0 -1.175,0.156 -1.675,0.468 -0.497,0.311 -0.894,0.77 -1.189,1.377 -0.291,0.606 -0.437,1.35 -0.437,2.232 0,0.882 0.146,1.626 0.437,2.232 0.295,0.607 0.692,1.066 1.189,1.377 0.5,0.312 1.059,0.468 1.675,0.468 0.617,0 1.173,-0.156 1.671,-0.468 0.5,-0.311 0.896,-0.77 1.188,-1.377 0.295,-0.606 0.442,-1.35 0.442,-2.232 z m 3.267,5.091 v -10.182 h 6.144 v 1.094 h -4.911 v 3.44 h 4.593 v 1.094 h -4.593 v 3.46 h 4.991 V 560 Z m 15.327,-7 c -0.109,-0.335 -0.254,-0.635 -0.433,-0.9 -0.175,-0.268 -0.386,-0.497 -0.631,-0.686 -0.242,-0.189 -0.517,-0.333 -0.825,-0.432 -0.308,-0.1 -0.646,-0.15 -1.014,-0.15 -0.604,0 -1.152,0.156 -1.646,0.468 -0.494,0.311 -0.887,0.77 -1.178,1.377 -0.292,0.606 -0.438,1.35 -0.438,2.232 0,0.882 0.148,1.626 0.443,2.232 0.295,0.607 0.694,1.066 1.198,1.377 0.504,0.312 1.07,0.468 1.7,0.468 0.583,0 1.097,-0.124 1.541,-0.373 0.448,-0.252 0.796,-0.607 1.044,-1.064 0.252,-0.461 0.378,-1.003 0.378,-1.626 l 0.378,0.08 h -3.062 v -1.094 h 3.877 v 1.094 c 0,0.838 -0.179,1.568 -0.537,2.187 -0.354,0.62 -0.845,1.101 -1.471,1.442 -0.623,0.338 -1.339,0.507 -2.148,0.507 -0.901,0 -1.694,-0.212 -2.376,-0.636 -0.68,-0.424 -1.21,-1.028 -1.591,-1.81 -0.378,-0.782 -0.567,-1.71 -0.567,-2.784 0,-0.805 0.108,-1.53 0.323,-2.172 0.219,-0.647 0.527,-1.197 0.925,-1.651 0.398,-0.454 0.868,-0.802 1.412,-1.044 0.543,-0.242 1.142,-0.363 1.795,-0.363 0.537,0 1.037,0.081 1.501,0.244 0.467,0.159 0.883,0.386 1.248,0.681 0.368,0.291 0.674,0.641 0.92,1.049 0.245,0.404 0.414,0.853 0.507,1.347 z"
               fill="#0e1013" />
          </g>
          <g
             id="data-label=lapsed">
            <path
               d="m 155,430.5 c 0,-6.904 5.596,-12.5 12.5,-12.5 h 46 c 6.904,0 12.5,5.596 12.5,12.5 v 0 c 0,6.904 -5.596,12.5 -12.5,12.5 h -46 c -6.904,0 -12.5,-5.596 -12.5,-12.5 z"
               fill="#ecf0f2"
               id="path147" />
            <path
               id="test label_6"
               d="m 164.622,436 v -10.182 h 1.233 v 9.088 h 4.733 V 436 Z m 8.935,0 h -1.293 l 3.739,-10.182 h 1.273 L 181.014,436 h -1.292 l -3.043,-8.571 h -0.08 z m 0.477,-3.977 h 5.21 v 1.093 h -5.21 z M 182.6,436 v -10.182 h 3.44 c 0.799,0 1.452,0.144 1.959,0.433 0.511,0.285 0.889,0.671 1.134,1.158 0.245,0.487 0.368,1.031 0.368,1.631 0,0.6 -0.123,1.145 -0.368,1.635 -0.242,0.491 -0.617,0.882 -1.124,1.174 -0.507,0.288 -1.156,0.432 -1.949,0.432 h -2.466 v -1.093 h 2.427 c 0.546,0 0.986,-0.095 1.317,-0.284 0.332,-0.189 0.572,-0.444 0.721,-0.766 0.152,-0.324 0.229,-0.691 0.229,-1.098 0,-0.408 -0.077,-0.772 -0.229,-1.094 -0.149,-0.321 -0.391,-0.573 -0.726,-0.756 -0.335,-0.185 -0.779,-0.278 -1.332,-0.278 h -2.168 V 436 Z m 14.455,-7.636 c -0.06,-0.504 -0.302,-0.895 -0.726,-1.174 -0.424,-0.278 -0.944,-0.417 -1.561,-0.417 -0.451,0 -0.845,0.073 -1.183,0.218 -0.335,0.146 -0.597,0.347 -0.786,0.602 -0.185,0.255 -0.278,0.545 -0.278,0.87 0,0.272 0.065,0.506 0.194,0.701 0.132,0.192 0.301,0.353 0.507,0.482 0.205,0.126 0.421,0.231 0.646,0.314 0.226,0.079 0.433,0.144 0.622,0.193 l 1.034,0.279 c 0.265,0.069 0.56,0.166 0.885,0.288 0.328,0.123 0.641,0.29 0.939,0.502 0.302,0.209 0.551,0.478 0.746,0.806 0.196,0.328 0.293,0.731 0.293,1.208 0,0.55 -0.144,1.047 -0.432,1.491 -0.285,0.444 -0.703,0.797 -1.253,1.059 -0.547,0.262 -1.211,0.393 -1.994,0.393 -0.729,0 -1.36,-0.118 -1.894,-0.353 -0.53,-0.235 -0.948,-0.563 -1.253,-0.984 -0.301,-0.421 -0.472,-0.91 -0.512,-1.467 h 1.273 c 0.033,0.384 0.162,0.703 0.388,0.955 0.229,0.248 0.517,0.434 0.865,0.556 0.351,0.12 0.729,0.179 1.133,0.179 0.471,0 0.894,-0.076 1.268,-0.228 0.375,-0.156 0.671,-0.372 0.89,-0.647 0.219,-0.278 0.328,-0.603 0.328,-0.974 0,-0.338 -0.094,-0.613 -0.283,-0.825 -0.189,-0.212 -0.438,-0.385 -0.746,-0.517 -0.308,-0.133 -0.641,-0.249 -0.999,-0.348 l -1.253,-0.358 c -0.795,-0.229 -1.425,-0.556 -1.889,-0.98 -0.464,-0.424 -0.696,-0.979 -0.696,-1.665 0,-0.57 0.154,-1.068 0.462,-1.492 0.312,-0.427 0.729,-0.759 1.253,-0.994 0.527,-0.239 1.115,-0.358 1.765,-0.358 0.656,0 1.239,0.118 1.75,0.353 0.51,0.232 0.915,0.55 1.213,0.955 0.302,0.404 0.461,0.863 0.477,1.377 z m 3.36,7.636 v -10.182 h 6.144 v 1.094 h -4.911 v 3.44 h 4.593 v 1.094 h -4.593 v 3.46 h 4.991 V 436 Z m 11.509,0 h -3.142 v -10.182 h 3.281 c 0.988,0 1.833,0.204 2.536,0.612 0.702,0.404 1.241,0.986 1.615,1.745 0.375,0.755 0.562,1.66 0.562,2.714 0,1.061 -0.189,1.974 -0.567,2.74 -0.378,0.762 -0.928,1.349 -1.65,1.759 -0.723,0.408 -1.601,0.612 -2.635,0.612 z m -1.909,-1.094 h 1.829 c 0.842,0 1.54,-0.162 2.093,-0.487 0.554,-0.325 0.966,-0.787 1.238,-1.387 0.272,-0.6 0.408,-1.314 0.408,-2.143 0,-0.822 -0.134,-1.529 -0.403,-2.123 -0.268,-0.596 -0.669,-1.054 -1.203,-1.372 -0.534,-0.321 -1.198,-0.482 -1.994,-0.482 h -1.968 z"
               fill="#0e1013" />
          </g>
          <g
             id="data-label=isa">
            <path
               d="m 225,179.5 c 0,-6.904 5.596,-12.5 12.5,-12.5 h 14 c 6.904,0 12.5,5.596 12.5,12.5 v 0 c 0,6.904 -5.596,12.5 -12.5,12.5 h -14 c -6.904,0 -12.5,-5.596 -12.5,-12.5 z"
               fill="#ecf0f2"
               id="path151" />
            <path
               id="test label_7"
               d="M 235.919,174.818 V 185 h -1.233 v -10.182 z m 8.04,2.546 c -0.059,-0.504 -0.301,-0.895 -0.726,-1.174 -0.424,-0.278 -0.944,-0.417 -1.561,-0.417 -0.45,0 -0.845,0.073 -1.183,0.218 -0.335,0.146 -0.596,0.347 -0.785,0.602 -0.186,0.255 -0.279,0.545 -0.279,0.87 0,0.272 0.065,0.506 0.194,0.701 0.133,0.192 0.302,0.353 0.507,0.482 0.206,0.126 0.421,0.231 0.647,0.314 0.225,0.079 0.432,0.144 0.621,0.193 l 1.034,0.279 c 0.265,0.069 0.56,0.166 0.885,0.288 0.328,0.123 0.641,0.29 0.94,0.502 0.301,0.209 0.55,0.478 0.745,0.806 0.196,0.328 0.294,0.731 0.294,1.208 0,0.55 -0.144,1.047 -0.433,1.491 -0.285,0.444 -0.702,0.797 -1.253,1.059 -0.547,0.262 -1.211,0.393 -1.993,0.393 -0.729,0 -1.361,-0.118 -1.894,-0.353 -0.531,-0.235 -0.948,-0.563 -1.253,-0.984 -0.302,-0.421 -0.473,-0.91 -0.512,-1.467 h 1.272 c 0.034,0.384 0.163,0.703 0.388,0.955 0.229,0.248 0.517,0.434 0.865,0.556 0.352,0.12 0.729,0.179 1.134,0.179 0.47,0 0.893,-0.076 1.268,-0.228 0.374,-0.156 0.671,-0.372 0.889,-0.647 0.219,-0.278 0.329,-0.603 0.329,-0.974 0,-0.338 -0.095,-0.613 -0.284,-0.825 -0.189,-0.212 -0.437,-0.385 -0.746,-0.517 -0.308,-0.133 -0.641,-0.249 -0.999,-0.348 l -1.253,-0.358 c -0.795,-0.229 -1.425,-0.556 -1.889,-0.98 -0.464,-0.424 -0.696,-0.979 -0.696,-1.665 0,-0.57 0.154,-1.068 0.462,-1.492 0.312,-0.427 0.73,-0.759 1.253,-0.994 0.527,-0.239 1.116,-0.358 1.765,-0.358 0.656,0 1.24,0.118 1.75,0.353 0.511,0.232 0.915,0.55 1.213,0.955 0.302,0.404 0.461,0.863 0.478,1.377 z m 3.778,7.636 h -1.293 l 3.739,-10.182 h 1.272 L 255.194,185 h -1.293 l -3.042,-8.571 h -0.08 z m 0.477,-3.977 h 5.21 v 1.093 h -5.21 z"
               fill="#0e1013" />
          </g>
          <g
             id="data-label=ema">
            <path
               d="m 322,179.5 c 0,-6.904 5.596,-12.5 12.5,-12.5 h 22 c 6.904,0 12.5,5.596 12.5,12.5 v 0 c 0,6.904 -5.596,12.5 -12.5,12.5 h -22 c -6.904,0 -12.5,-5.596 -12.5,-12.5 z"
               fill="#ecf0f2"
               id="path155" />
            <path
               id="test label_8"
               d="m 331.591,185 v -10.182 h 6.145 v 1.094 h -4.912 v 3.44 h 4.594 v 1.094 h -4.594 v 3.46 h 4.992 V 185 Z m 8.368,-10.182 h 1.471 l 3.46,8.452 h 0.12 l 3.46,-8.452 h 1.471 V 185 h -1.153 v -7.736 h -0.099 L 345.507,185 h -1.114 l -3.182,-7.736 h -0.099 V 185 h -1.153 z M 352.831,185 h -1.292 l 3.738,-10.182 h 1.273 L 360.289,185 h -1.293 l -3.043,-8.571 h -0.079 z m 0.478,-3.977 h 5.21 v 1.093 h -5.21 z"
               fill="#0e1013" />
          </g>
          <g
             id="data-label=vanemad">
            <path
               d="m 254,215.5 c 0,-6.904 5.596,-12.5 12.5,-12.5 h 60 c 6.904,0 12.5,5.596 12.5,12.5 v 0 c 0,6.904 -5.596,12.5 -12.5,12.5 h -60 c -6.904,0 -12.5,-5.596 -12.5,-12.5 z"
               fill="#ecf0f2"
               id="path159" />
            <path
               id="test label_9"
               d="m 263.684,210.818 3.022,8.571 h 0.12 l 3.023,-8.571 h 1.292 L 267.403,221 h -1.273 l -3.739,-10.182 z M 272.27,221 h -1.293 l 3.739,-10.182 h 1.272 L 279.727,221 h -1.293 l -3.042,-8.571 h -0.08 z m 0.477,-3.977 h 5.21 v 1.093 h -5.21 z m 16.64,-6.205 V 221 h -1.193 l -5.549,-7.994 h -0.099 V 221 h -1.233 v -10.182 h 1.193 l 5.568,8.014 h 0.1 v -8.014 z M 291.854,221 v -10.182 h 6.145 v 1.094 h -4.912 v 3.44 h 4.594 v 1.094 h -4.594 v 3.46 h 4.991 V 221 Z m 8.367,-10.182 h 1.472 l 3.46,8.452 h 0.119 l 3.461,-8.452 h 1.471 V 221 h -1.153 v -7.736 h -0.1 L 305.77,221 h -1.114 l -3.182,-7.736 h -0.099 V 221 h -1.154 z M 313.094,221 h -1.293 l 3.739,-10.182 h 1.273 L 320.551,221 h -1.292 l -3.043,-8.571 h -0.079 z m 0.477,-3.977 h 5.21 v 1.093 h -5.21 z M 325.279,221 h -3.142 v -10.182 h 3.282 c 0.987,0 1.832,0.204 2.535,0.612 0.703,0.404 1.241,0.986 1.616,1.745 0.374,0.755 0.562,1.66 0.562,2.714 0,1.061 -0.189,1.974 -0.567,2.74 -0.378,0.762 -0.928,1.349 -1.651,1.759 -0.722,0.408 -1.601,0.612 -2.635,0.612 z m -1.909,-1.094 h 1.83 c 0.842,0 1.539,-0.162 2.093,-0.487 0.553,-0.325 0.966,-0.787 1.238,-1.387 0.271,-0.6 0.407,-1.314 0.407,-2.143 0,-0.822 -0.134,-1.529 -0.402,-2.123 -0.269,-0.596 -0.67,-1.054 -1.203,-1.372 -0.534,-0.321 -1.199,-0.482 -1.994,-0.482 h -1.969 z"
               fill="#0e1013" />
          </g>
          <g
             id="data-label=vend">
            <path
               d="m 384,375 c 0,-7.18 5.82,-13 13,-13 h 29 c 7.18,0 13,5.82 13,13 v 0 c 0,7.18 -5.82,13 -13,13 h -29 c -7.18,0 -13,-5.82 -13,-13 z"
               fill="#ecf0f2"
               id="path163" />
            <path
               id="test label_10"
               d="m 393.935,370.318 3.022,8.571 h 0.12 l 3.023,-8.571 h 1.292 l -3.739,10.182 h -1.272 l -3.739,-10.182 z m 9.043,10.182 v -10.182 h 6.145 v 1.094 h -4.912 v 3.44 h 4.594 v 1.094 h -4.594 v 3.46 h 4.992 v 1.094 z m 16.441,-10.182 V 380.5 h -1.193 l -5.548,-7.994 h -0.1 v 7.994 h -1.233 v -10.182 h 1.193 l 5.569,8.014 h 0.099 v -8.014 z m 5.609,10.182 h -3.142 v -10.182 h 3.282 c 0.987,0 1.832,0.204 2.535,0.612 0.703,0.404 1.241,0.986 1.616,1.745 0.374,0.755 0.562,1.66 0.562,2.714 0,1.061 -0.189,1.974 -0.567,2.74 -0.378,0.762 -0.928,1.349 -1.651,1.759 -0.722,0.408 -1.601,0.612 -2.635,0.612 z m -1.909,-1.094 h 1.83 c 0.842,0 1.539,-0.162 2.093,-0.487 0.553,-0.325 0.966,-0.787 1.238,-1.387 0.272,-0.6 0.407,-1.314 0.407,-2.143 0,-0.822 -0.134,-1.529 -0.402,-2.123 -0.269,-0.596 -0.67,-1.054 -1.203,-1.372 -0.534,-0.321 -1.199,-0.482 -1.994,-0.482 h -1.969 z"
               fill="#0e1013" />
          </g>
          <g
             id="data-label=천de">
            <path
               d="m 304,375 c 0,-7.18 5.82,-13 13,-13 h 20 c 7.18,0 13,5.82 13,13 v 0 c 0,7.18 -5.82,13 -13,13 h -20 c -7.18,0 -13,-5.82 -13,-13 z"
               fill="#ecf0f2"
               id="path167" />
            <path
               id="test label_11"
               d="m 322.277,375.409 c 0,1.074 -0.194,2.002 -0.582,2.784 -0.387,0.782 -0.919,1.386 -1.596,1.81 -0.676,0.424 -1.448,0.636 -2.316,0.636 -0.869,0 -1.641,-0.212 -2.317,-0.636 -0.676,-0.424 -1.208,-1.028 -1.596,-1.81 -0.388,-0.782 -0.582,-1.71 -0.582,-2.784 0,-1.074 0.194,-2.002 0.582,-2.784 0.388,-0.782 0.92,-1.385 1.596,-1.81 0.676,-0.424 1.448,-0.636 2.317,-0.636 0.868,0 1.64,0.212 2.316,0.636 0.677,0.425 1.209,1.028 1.596,1.81 0.388,0.782 0.582,1.71 0.582,2.784 z m -1.193,0 c 0,-0.882 -0.148,-1.626 -0.443,-2.232 -0.291,-0.607 -0.687,-1.066 -1.188,-1.377 -0.497,-0.312 -1.054,-0.468 -1.67,-0.468 -0.617,0 -1.175,0.156 -1.676,0.468 -0.497,0.311 -0.893,0.77 -1.188,1.377 -0.292,0.606 -0.437,1.35 -0.437,2.232 0,0.882 0.145,1.626 0.437,2.232 0.295,0.607 0.691,1.066 1.188,1.377 0.501,0.312 1.059,0.468 1.676,0.468 0.616,0 1.173,-0.156 1.67,-0.468 0.501,-0.311 0.897,-0.77 1.188,-1.377 0.295,-0.606 0.443,-1.35 0.443,-2.232 z m -4.833,-6.105 -0.914,-0.04 c 0,-0.507 0.144,-0.921 0.432,-1.243 0.292,-0.325 0.651,-0.487 1.079,-0.487 0.189,0 0.356,0.033 0.502,0.1 0.146,0.062 0.285,0.135 0.418,0.218 0.132,0.083 0.268,0.158 0.407,0.224 0.143,0.063 0.304,0.094 0.483,0.094 0.189,0 0.348,-0.072 0.477,-0.218 0.133,-0.149 0.199,-0.328 0.199,-0.537 l 0.895,0.079 c 0,0.517 -0.146,0.928 -0.438,1.233 -0.288,0.305 -0.646,0.458 -1.074,0.458 -0.228,0 -0.417,-0.032 -0.566,-0.095 -0.15,-0.066 -0.282,-0.141 -0.398,-0.224 -0.116,-0.082 -0.239,-0.155 -0.368,-0.218 -0.129,-0.067 -0.288,-0.1 -0.477,-0.1 -0.189,0 -0.347,0.075 -0.473,0.224 -0.122,0.146 -0.184,0.323 -0.184,0.532 z m 11.241,11.196 h -3.142 v -10.182 h 3.281 c 0.988,0 1.833,0.204 2.536,0.612 0.703,0.404 1.241,0.986 1.616,1.745 0.374,0.755 0.561,1.66 0.561,2.714 0,1.061 -0.188,1.974 -0.566,2.74 -0.378,0.762 -0.928,1.349 -1.651,1.759 -0.722,0.408 -1.601,0.612 -2.635,0.612 z m -1.909,-1.094 h 1.83 c 0.841,0 1.539,-0.162 2.093,-0.487 0.553,-0.325 0.966,-0.787 1.238,-1.387 0.271,-0.6 0.407,-1.314 0.407,-2.143 0,-0.822 -0.134,-1.529 -0.402,-2.123 -0.269,-0.596 -0.67,-1.054 -1.204,-1.372 -0.533,-0.321 -1.198,-0.482 -1.993,-0.482 h -1.969 z m 8.83,1.094 v -10.182 h 6.145 v 1.094 h -4.912 v 3.44 h 4.593 v 1.094 h -4.593 v 3.46 h 4.991 v 1.094 z"
               fill="#0e1013" />
          </g>
        </g>
      </g>
    </g>
    <g
       id="data-label=mina">
      <path
         d="m 207,375.5 c 0,-6.904 5.596,-12.5 12.5,-12.5 h 47 c 6.904,0 12.5,5.596 12.5,12.5 v 0 c 0,6.904 -5.596,12.5 -12.5,12.5 h -47 c -6.904,0 -12.5,-5.596 -12.5,-12.5 z"
         fill="#00377a"
         id="path174" />
      <path
         id="test label_12"
         d="m 217.477,367.955 h 3.793 l 4.005,9.772 h 0.171 l 4.006,-9.772 h 3.792 V 382.5 h -2.983 v -9.467 h -0.121 l -3.764,9.396 h -2.031 l -3.764,-9.432 h -0.121 v 9.503 h -2.983 z m 21.376,0 V 382.5 h -3.075 v -14.545 z m 14.697,0 V 382.5 h -2.657 l -6.328,-9.155 h -0.106 v 9.155 h -3.076 v -14.545 h 2.699 l 6.279,9.147 h 0.127 v -9.147 z m 5.047,14.545 h -3.295 l 5.021,-14.545 h 3.963 l 5.015,14.545 h -3.296 l -3.643,-11.222 h -0.114 z m -0.205,-5.717 h 7.784 v 2.4 h -7.784 z"
         fill="#ecf0f2" />
    </g>
  </g>
</svg>
