<svg width="142" height="142" viewBox="0 0 142 142" fill="none" xmlns="http://www.w3.org/2000/svg">
<path fill-rule="evenodd" clip-rule="evenodd" d="M71 0C52.1696 0 34.1105 7.48034 20.7954 20.7954C7.48034 34.1105 0 52.1696 0 71C0 89.8304 7.48034 107.89 20.7954 121.205C34.1105 134.52 52.1696 142 71 142C89.8304 142 107.89 134.52 121.205 121.205C134.52 107.89 142 89.8304 142 71C142 52.1696 134.52 34.1105 121.205 20.7954C107.89 7.48034 89.8304 0 71 0V0ZM71 21.9762C74.4615 22.0547 77.4064 23.234 79.8415 25.5134C82.082 27.9116 83.2425 30.8398 83.323 34.2986C83.2425 37.7573 82.082 40.607 79.8415 42.8475C77.4064 45.3631 74.4615 46.6209 71 46.6209C67.5386 46.6209 64.6943 45.3631 62.4537 42.8475C59.9381 40.607 58.677 37.7573 58.677 34.2986C58.677 30.8398 59.9381 27.9116 62.4537 25.5134C64.6943 23.234 67.5386 22.0547 71 21.9762V21.9762ZM60.032 58.0612H82.0283V120.025H60.032V58.0612Z" fill="#6387FF"/>
</svg>
