<svg width="388" height="147" viewBox="0 0 388 147" fill="none" xmlns="http://www.w3.org/2000/svg">
<path d="M169.6 38.2V48.4H170.7C173.4 48.4 175.5 50.6 175.5 53.2V54.9C175.5 56.2 176.6 57.3 177.9 57.3H193.9V49.5C191.4 49.2 189.6 47.1 189.6 44.6V41.3C189.6 40.1 188.5 39 187.3 39H177.9C175.2 39 173 36.7 172.9 34V28.8C172.9 27.6 171.9 26.5 170.7 26.5H156.3V33.2H164.7C167.4 33.2 169.6 35.5 169.6 38.2V38.2Z" fill="#0072BC"/>
<path d="M164.4 56.8998V50.7998H156.3V59.1998H162.2C163.4 59.1998 164.4 58.1998 164.4 56.8998V56.8998Z" fill="#3E88C8"/>
<path d="M166.9 38.1999C166.9 36.9999 165.9 35.8999 164.7 35.8999H156.3V48.3999H166.9V38.1999V38.1999Z" fill="#0C3984"/>
<path d="M180.5 73.9998V78.7998C180.5 79.8998 181.4 80.6998 182.4 80.7998H193.9V59.6998H177.9C175.3 59.6998 173.1 57.4998 173.1 54.8998V53.1998C173.1 51.8998 172 50.7998 170.7 50.7998H167.2V56.8998C167.1 59.6998 164.9 61.8998 162.2 61.8998H156.3V68.6998H175.2C178.1 68.6998 180.5 71.0998 180.5 73.9998V73.9998Z" fill="#354E91"/>
<path d="M218.9 24.4H210.9V32.5C210.9 35.2 208.7 37.4 206 37.4H204.1V45H212.8C213.9 45 214.8 44.1 214.8 43V38.2C214.8 35.3 217.1 32.9 220 32.9H226.3C227.4 32.9 228.3 32 228.3 31V0H223.8V19.4C223.8 22.2 221.6 24.4 218.9 24.4V24.4Z" fill="#93D2F3"/>
<path d="M191.7 19.5C192.9 19.5 193.9 18.5 193.9 17.3V0H186.5V19.5H191.7Z" fill="#93D2F3"/>
<path d="M163.9 18.0999C163.9 16.8999 162.9 15.8999 161.7 15.8999H156.3V23.7999H163.9V18.0999V18.0999Z" fill="#93D2F3"/>
<path d="M166.6 18.1V23.8H170.7C173.4 23.8 175.7 26 175.7 28.8V34C175.7 35.2 176.7 36.3 177.9 36.3H187.3C190.1 36.3 192.3 38.6 192.3 41.3V44.6C192.3 45.8 193.3 46.8 194.5 46.8H200.8V34.6C200.8 33 199.5 31.7 198 31.7H189.3C185.9 31.7 183.2 29 183.2 25.6V15.1H173.4C170.7 15.1 168.4 12.9 168.4 10.1V0H159.9C157.9 0 156.3 1.60001 156.3 3.60001V13.2H161.7C164.4 13.2 166.6 15.4 166.6 18.1V18.1Z" fill="#4E8FCC"/>
<path d="M218.9 21.7C220.1 21.7 221.1 20.7 221.1 19.4V0H210.9V21.7H218.9Z" fill="#4E8FCC"/>
<path d="M235.3 16.4H231.6V25.6H244.5C245.3 25.6 246.1 25.1 246.5 24.3V3.60001C246.5 1.60001 244.9 0 242.9 0H240.3V11.4C240.3 14.2 238 16.4 235.3 16.4V16.4Z" fill="#3C87C7"/>
<path d="M191.7 22.3H186.5V25.6C186.5 27.1 187.8 28.4 189.3 28.4H198C201.4 28.4 204.1 31.2 204.1 34.6V34.7H206C207.2 34.7 208.2 33.7 208.2 32.5V0H196.6V17.3C196.6 20 194.4 22.2 191.7 22.3V22.3Z" fill="#4E8FCC"/>
<path d="M231.6 28.2999V30.9999C231.6 33.8999 229.2 36.1999 226.3 36.1999H220C219 36.1999 218.1 37.0999 218.1 38.1999V42.9999C218.1 45.8999 215.7 48.2999 212.8 48.2999H204.4V54.5999H220.3C221.4 54.5999 222.3 53.6999 222.3 52.5999V47.7999C222.3 44.8999 224.6 42.5999 227.5 42.5999H246.5V27.8999C245.9 28.0999 245.2 28.2999 244.5 28.2999H231.6Z" fill="#2E4A8E"/>
<path d="M228.6 68.5V68.3C228.6 67 227.6 66 226.3 66H218.5C217.3 66 216.3 67 216.3 68.3V70.1C216.2 72.8 214 75 211.3 75H205.9V86.6C205.9 88.6 207.5 90.2 209.5 90.2H242.9C244.9 90.2 246.5 88.6 246.5 86.6V73.5H233.6C230.8 73.5 228.6 71.2 228.6 68.5Z" fill="#0C3984"/>
<path d="M235.8 51.0999C235.8 52.3999 236.8 53.3999 238.1 53.3999H246.5V45.8999H235.8V51.0999Z" fill="#3E88C8"/>
<path d="M235.3 13.7C236.5 13.7 237.6 12.7 237.6 11.4V0H231.6V13.7H235.3Z" fill="#93D2F3"/>
<path d="M193.9 86.6V84.1H182.4C179.5 84 177.2 81.7 177.2 78.8V74C177.2 72.9 176.3 72 175.2 72H156.3V86.6C156.3 88.6 157.9 90.2 159.9 90.2H190.2C192.2 90.2 193.9 88.6 193.9 86.6V86.6Z" fill="#0C3984"/>
<path d="M173.4 12.4H183.2V0H171.1V10.1C171.1 11.4 172.2 12.4 173.4 12.4V12.4Z" fill="#4B8DCB"/>
<path d="M233.1 51.0999V45.8999H227.5C226.5 45.8999 225.6 46.7999 225.6 47.7999V52.5999C225.6 55.4999 223.2 57.8999 220.3 57.8999H205.9V72.2999H211.3C212.5 72.2999 213.5 71.2999 213.5 70.0999V68.2999C213.6 65.4999 215.8 63.2999 218.5 63.2999H226.3C229.1 63.2999 231.3 65.4999 231.3 68.2999V68.4999C231.3 69.6999 232.3 70.6999 233.6 70.7999H246.5V56.0999H238.1C235.3 56.0999 233.1 53.8999 233.1 51.0999Z" fill="#0072BC"/>
<path d="M0 115H18.3V118.6H4V128.4H17.3V132H4V142.6H18.4V146.2H0V115Z" fill="#0C3984"/>
<path d="M33.2 143.3C35.5 143.3 37.9 142.9 40.4 142.2L40.9 145.3C38.8 146.1 35.7 146.7 32.9 146.7C26.1 146.7 23.8 143.4 23.8 138.3V131.4C23.8 126.7 26 122.9 32.8 122.9C39.5 122.9 41.4 126.8 41.4 131.5V136.3H27.8V138.2C27.8 141.8 28.8 143.3 33.2 143.3V143.3ZM27.8 133H37.6V131.2C37.6 128 36.5 126.2 32.8 126.2C29.1 126.2 27.8 128 27.8 131.2V133Z" fill="#0C3984"/>
<path d="M53.9 146.7C51.5 146.7 48.4 146.1 46.6 145.4L47.1 142.3C49.1 142.9 51.7 143.3 53.6 143.3C57.2 143.3 57.8 142.6 57.8 140.2C57.8 137.8 57.6 137.5 53.1 136.4C47.4 134.9 46.9 133.8 46.9 129C46.9 124.8 48.7 122.9 54.7 122.9C56.9 122.9 59.3 123.2 61.2 123.7L60.9 126.9C59 126.6 56.5 126.3 54.6 126.3C51.2 126.3 50.8 127.1 50.8 129.1C50.8 131.7 50.8 132.1 54.6 133.1C61.2 134.7 61.7 135.5 61.7 140C61.7 144.5 60.4 146.7 53.9 146.7V146.7Z" fill="#0C3984"/>
<path d="M80 145.8C78.6 146.3 76.9 146.7 75.2 146.7C71.4 146.7 69.5 145.2 69.5 141.5V126.7H65.5V123.4H69.5V117.8L73.5 117.2V123.4H79.9L79.6 126.7H73.5V140.8C73.5 142.5 73.7 143.3 75.8 143.3C76.9 143.3 78 143.1 79.5 142.8L80 145.8Z" fill="#0C3984"/>
<path d="M89.3 119.7H85.4V114.1H89.3V119.7ZM89.3 146.2H85.4V123.4H89.3V146.2Z" fill="#0C3984"/>
<path d="M111.1 146.2H107.1V115H111.1V146.2V146.2ZM116.6 130.3L129 146.2H124.2L112.1 130.3L123.3 115H128.1L116.6 130.3V130.3Z" fill="#0C3984"/>
<path d="M141.3 143.3C143.6 143.3 146 142.9 148.5 142.2L149 145.3C146.9 146.1 143.8 146.7 141 146.7C134.2 146.7 131.9 143.4 131.9 138.3V131.4C131.9 126.7 134.1 122.9 140.9 122.9C147.6 122.9 149.5 126.8 149.5 131.5V136.3H135.9V138.2C135.9 141.8 136.9 143.3 141.3 143.3V143.3ZM135.9 133H145.7V131.2C145.7 128 144.6 126.2 140.9 126.2C137.2 126.2 135.9 128 135.9 131.2V133Z" fill="#0C3984"/>
<path d="M163.8 143.3C166.1 143.3 168.6 142.9 171 142.2L171.6 145.3C169.4 146.1 166.4 146.7 163.5 146.7C156.8 146.7 154.5 143.4 154.5 138.3V131.4C154.5 126.7 156.6 122.9 163.4 122.9C170.1 122.9 172 126.8 172 131.5V136.3H158.4V138.2C158.4 141.8 159.4 143.3 163.8 143.3V143.3ZM158.4 133H168.2V131.2C168.2 128 167.1 126.2 163.4 126.2C159.7 126.2 158.4 128 158.4 131.2V133Z" fill="#0C3984"/>
<path d="M178.2 146.2V114.1L182.1 113.5V146.2H178.2V146.2Z" fill="#0C3984"/>
<path d="M197.8 143.3C200 143.3 202.5 142.9 205 142.2L205.5 145.3C203.3 146.1 200.3 146.7 197.4 146.7C190.7 146.7 188.4 143.4 188.4 138.3V131.4C188.4 126.7 190.6 122.9 197.3 122.9C204.1 122.9 205.9 126.8 205.9 131.5V136.3H192.3V138.2C192.3 141.8 193.3 143.3 197.8 143.3V143.3ZM192.3 133H202.1V131.2C202.1 128 201 126.2 197.3 126.2C193.6 126.2 192.3 128 192.3 131.2V133Z" fill="#0C3984"/>
<path d="M222.6 146.2H226.7V115H222.6V146.2V146.2Z" fill="#0C3984"/>
<path d="M248.4 146.2V128.8C248.4 127.3 247.6 126.7 246.2 126.7C244.5 126.7 241 127.7 238.5 129V146.2H234.6V123.4H237.8L238.2 125.4C240.7 124.1 244.6 122.9 247.4 122.9C251 122.9 252.3 125.2 252.3 128.7V146.2H248.4Z" fill="#0C3984"/>
<path d="M265.9 146.7C263.5 146.7 260.5 146.1 258.6 145.4L259.1 142.3C261.1 142.9 263.7 143.3 265.7 143.3C269.3 143.3 269.9 142.6 269.9 140.2C269.9 137.8 269.7 137.5 265.1 136.4C259.4 134.9 258.9 133.8 258.9 129C258.9 124.8 260.8 122.9 266.8 122.9C269 122.9 271.4 123.2 273.2 123.7L273 126.9C271 126.6 268.5 126.3 266.6 126.3C263.3 126.3 262.8 127.1 262.8 129.1C262.8 131.7 262.8 132.1 266.7 133.1C273.2 134.7 273.8 135.5 273.8 140C273.8 144.5 272.4 146.7 265.9 146.7V146.7Z" fill="#0C3984"/>
<path d="M292 145.8C290.6 146.3 288.9 146.7 287.2 146.7C283.4 146.7 281.6 145.2 281.6 141.5V126.7H277.5V123.4H281.6V117.8L285.5 117.2V123.4H292L291.6 126.7H285.5V140.8C285.5 142.5 285.7 143.3 287.8 143.3C288.9 143.3 290.1 143.1 291.5 142.8L292 145.8Z" fill="#0C3984"/>
<path d="M301.3 119.7H297.4V114.1H301.3V119.7ZM301.3 146.2H297.4V123.4H301.3V146.2Z" fill="#0C3984"/>
<path d="M320.7 145.8C319.3 146.3 317.6 146.7 315.9 146.7C312.1 146.7 310.3 145.2 310.3 141.5V126.7H306.2V123.4H310.3V117.8L314.2 117.2V123.4H320.7L320.3 126.7H314.2V140.8C314.2 142.5 314.4 143.3 316.5 143.3C317.6 143.3 318.7 143.1 320.2 142.8L320.7 145.8Z" fill="#0C3984"/>
<path d="M329.8 123.4V140.8C329.8 142.3 330.5 142.9 332 142.9C333.7 142.9 337.2 141.9 339.6 140.6V123.4H343.6V146.2H340.4L340 144.2C337.5 145.4 333.5 146.7 330.8 146.7C327.2 146.7 325.9 144.4 325.9 140.8V123.4H329.8Z" fill="#0C3984"/>
<path d="M354.8 123.4V140.8C354.8 142.3 355.5 142.9 357 142.9C358.6 142.9 362.1 141.9 364.6 140.6V123.4H368.5V146.2H365.3L365 144.2C362.4 145.4 358.5 146.7 355.8 146.7C352.1 146.7 350.8 144.4 350.8 140.8V123.4H354.8Z" fill="#0C3984"/>
<path d="M387.9 145.8C386.5 146.3 384.8 146.7 383.1 146.7C379.3 146.7 377.5 145.2 377.5 141.5V126.7H373.4V123.4H377.5V117.8L381.4 117.2V123.4H387.9L387.5 126.7H381.4V140.8C381.4 142.5 381.6 143.3 383.7 143.3C384.8 143.3 385.9 143.1 387.4 142.8L387.9 145.8Z" fill="#0C3984"/>
</svg>
