<svg width="238" height="125" viewBox="0 0 238 125" fill="none" xmlns="http://www.w3.org/2000/svg">
<g clip-path="url(#clip0)">
<path d="M41.8512 98.9503H38.1293V101.994H42.4529V102.92H36.9968V94.3318H42.3939V95.2638H38.1293V98.0242H41.8512V98.9503ZM47.5255 102.289C47.1009 102.788 46.4776 103.038 45.6557 103.038C44.9755 103.038 44.4564 102.841 44.0986 102.448C43.7446 102.051 43.5657 101.465 43.5618 100.69V96.5378H44.653V100.661C44.653 101.628 45.0462 102.112 45.8327 102.112C46.6663 102.112 47.2208 101.801 47.4961 101.18V96.5378H48.5873V102.92H47.5491L47.5255 102.289ZM53.3355 97.517C53.1704 97.4894 52.9914 97.4757 52.7988 97.4757C52.0831 97.4757 51.5974 97.7804 51.3418 98.3899V102.92H50.2506V96.5378H51.3123L51.33 97.2751C51.6879 96.7049 52.1951 96.4198 52.8518 96.4198C53.0642 96.4198 53.2254 96.4474 53.3355 96.5024V97.517ZM53.9371 99.6699C53.9371 99.0446 54.059 98.4823 54.3029 97.9829C54.5506 97.4835 54.8927 97.0982 55.3292 96.8268C55.7696 96.5555 56.271 96.4198 56.8333 96.4198C57.7023 96.4198 58.4042 96.7207 58.939 97.3223C59.4777 97.9239 59.7471 98.7242 59.7471 99.723V99.7996C59.7471 100.421 59.6272 100.979 59.3873 101.475C59.1514 101.966 58.8112 102.35 58.3669 102.625C57.9265 102.9 57.4192 103.038 56.8451 103.038C55.98 103.038 55.2781 102.737 54.7393 102.135C54.2045 101.534 53.9371 100.738 53.9371 99.7466V99.6699ZM55.0343 99.7996C55.0343 100.507 55.1974 101.076 55.5238 101.504C55.8541 101.933 56.2946 102.147 56.8451 102.147C57.3995 102.147 57.8399 101.931 58.1663 101.498C58.4927 101.062 58.6559 100.452 58.6559 99.6699C58.6559 98.9699 58.4888 98.4037 58.1545 97.9711C57.8242 97.5346 57.3838 97.3164 56.8333 97.3164C56.2946 97.3164 55.86 97.5307 55.5297 97.9593C55.1994 98.388 55.0343 99.0014 55.0343 99.7996ZM60.8265 99.6699C60.8265 99.0446 60.9484 98.4823 61.1922 97.9829C61.44 97.4835 61.7821 97.0982 62.2186 96.8268C62.659 96.5555 63.1603 96.4198 63.7227 96.4198C64.5917 96.4198 65.2936 96.7207 65.8284 97.3223C66.3671 97.9239 66.6365 98.7242 66.6365 99.723V99.7996C66.6365 100.421 66.5165 100.979 66.2767 101.475C66.0407 101.966 65.7006 102.35 65.2562 102.625C64.8158 102.9 64.3086 103.038 63.7345 103.038C62.8693 103.038 62.1674 102.737 61.6287 102.135C61.0939 101.534 60.8265 100.738 60.8265 99.7466V99.6699ZM61.9236 99.7996C61.9236 100.507 62.0868 101.076 62.4132 101.504C62.7435 101.933 63.1839 102.147 63.7345 102.147C64.2889 102.147 64.7293 101.931 65.0557 101.498C65.3821 101.062 65.5453 100.452 65.5453 99.6699C65.5453 98.9699 65.3781 98.4037 65.0439 97.9711C64.7136 97.5346 64.2732 97.3164 63.7227 97.3164C63.1839 97.3164 62.7494 97.5307 62.4191 97.9593C62.0888 98.388 61.9236 99.0014 61.9236 99.7996ZM73.3961 99.7996C73.3961 100.771 73.1739 101.553 72.7296 102.147C72.2852 102.741 71.6836 103.038 70.9246 103.038C70.15 103.038 69.5405 102.792 69.0961 102.301V105.374H68.0049V96.5378H69.0018L69.0548 97.2456C69.4992 96.6951 70.1166 96.4198 70.907 96.4198C71.6737 96.4198 72.2793 96.7089 72.7237 97.2869C73.172 97.865 73.3961 98.6691 73.3961 99.6994V99.7996ZM72.3049 99.6758C72.3049 98.9562 72.1515 98.388 71.8448 97.9711C71.5381 97.5543 71.1173 97.3459 70.5825 97.3459C69.9219 97.3459 69.4264 97.6389 69.0961 98.2248V101.274C69.4225 101.856 69.9219 102.147 70.5943 102.147C71.1173 102.147 71.5322 101.941 71.8389 101.528C72.1496 101.111 72.3049 100.494 72.3049 99.6758ZM78.7283 102.92C78.6654 102.794 78.6142 102.57 78.5749 102.248C78.0677 102.774 77.4621 103.038 76.7582 103.038C76.129 103.038 75.6119 102.861 75.2069 102.507C74.8058 102.149 74.6053 101.697 74.6053 101.15C74.6053 100.486 74.8569 99.9707 75.3603 99.605C75.8675 99.2354 76.5793 99.0505 77.4955 99.0505H78.5572V98.5492C78.5572 98.1677 78.4432 97.865 78.2151 97.6408C77.987 97.4127 77.6508 97.2987 77.2065 97.2987C76.8172 97.2987 76.4908 97.397 76.2273 97.5936C75.9639 97.7902 75.8321 98.0282 75.8321 98.3073H74.735C74.735 97.9888 74.8471 97.6821 75.0712 97.3872C75.2993 97.0883 75.606 96.8524 75.9914 96.6794C76.3807 96.5064 76.8074 96.4198 77.2714 96.4198C78.0067 96.4198 78.5828 96.6047 78.9996 96.9743C79.4164 97.34 79.6327 97.8453 79.6484 98.4902V101.428C79.6484 102.014 79.7231 102.48 79.8726 102.826V102.92H78.7283ZM76.9175 102.088C77.2596 102.088 77.584 102 77.8907 101.823C78.1974 101.646 78.4196 101.416 78.5572 101.133V99.8232H77.702C76.365 99.8232 75.6965 100.215 75.6965 100.997C75.6965 101.339 75.8105 101.607 76.0386 101.799C76.2667 101.992 76.5596 102.088 76.9175 102.088ZM85.6648 101.994H89.7348V102.92H84.5264V94.3318H85.6648V101.994ZM92.0411 102.92H90.9498V96.5378H92.0411V102.92ZM90.8614 94.845C90.8614 94.668 90.9145 94.5186 91.0206 94.3967C91.1307 94.2748 91.292 94.2138 91.5043 94.2138C91.7166 94.2138 91.8779 94.2748 91.988 94.3967C92.0981 94.5186 92.1531 94.668 92.1531 94.845C92.1531 95.0219 92.0981 95.1694 91.988 95.2873C91.8779 95.4053 91.7166 95.4643 91.5043 95.4643C91.292 95.4643 91.1307 95.4053 91.0206 95.2873C90.9145 95.1694 90.8614 95.0219 90.8614 94.845ZM94.9785 102.92H93.8873V96.5378H94.9785V102.92ZM93.7988 94.845C93.7988 94.668 93.8519 94.5186 93.958 94.3967C94.0682 94.2748 94.2294 94.2138 94.4417 94.2138C94.6541 94.2138 94.8153 94.2748 94.9254 94.3967C95.0355 94.5186 95.0905 94.668 95.0905 94.845C95.0905 95.0219 95.0355 95.1694 94.9254 95.2873C94.8153 95.4053 94.6541 95.4643 94.4417 95.4643C94.2294 95.4643 94.0682 95.4053 93.958 95.2873C93.8519 95.1694 93.7988 95.0219 93.7988 94.845ZM98.2108 94.9924V96.5378H99.4023V97.3813H98.2108V101.339C98.2108 101.595 98.2639 101.787 98.3701 101.917C98.4762 102.043 98.6571 102.106 98.9127 102.106C99.0386 102.106 99.2116 102.082 99.4318 102.035V102.92C99.1447 102.999 98.8655 103.038 98.5942 103.038C98.1066 103.038 97.7389 102.89 97.4912 102.596C97.2435 102.301 97.1196 101.882 97.1196 101.339V97.3813H95.9576V96.5378H97.1196V94.9924H98.2108Z" fill="#231F20"/>
<path d="M15.8512 110.95H12.1293V113.994H16.4529V114.92H10.9968V106.332H16.3939V107.264H12.1293V110.024H15.8512V110.95ZM21.5255 114.289C21.1009 114.788 20.4776 115.038 19.6557 115.038C18.9755 115.038 18.4564 114.841 18.0986 114.448C17.7446 114.051 17.5657 113.465 17.5618 112.69V108.538H18.653V112.661C18.653 113.628 19.0462 114.112 19.8327 114.112C20.6663 114.112 21.2208 113.801 21.4961 113.18V108.538H22.5873V114.92H21.5491L21.5255 114.289ZM27.3355 109.517C27.1704 109.489 26.9914 109.476 26.7988 109.476C26.0831 109.476 25.5974 109.78 25.3418 110.39V114.92H24.2506V108.538H25.3123L25.33 109.275C25.6879 108.705 26.1951 108.42 26.8518 108.42C27.0642 108.42 27.2254 108.447 27.3355 108.502V109.517ZM27.9371 111.67C27.9371 111.045 28.059 110.482 28.3029 109.983C28.5506 109.484 28.8927 109.098 29.3292 108.827C29.7696 108.556 30.271 108.42 30.8333 108.42C31.7023 108.42 32.4042 108.721 32.939 109.322C33.4777 109.924 33.7471 110.724 33.7471 111.723V111.8C33.7471 112.421 33.6272 112.979 33.3873 113.475C33.1514 113.966 32.8112 114.35 32.3669 114.625C31.9265 114.9 31.4192 115.038 30.8451 115.038C29.98 115.038 29.2781 114.737 28.7393 114.135C28.2045 113.534 27.9371 112.738 27.9371 111.747V111.67ZM29.0343 111.8C29.0343 112.507 29.1974 113.076 29.5238 113.504C29.8541 113.933 30.2946 114.147 30.8451 114.147C31.3995 114.147 31.8399 113.931 32.1663 113.498C32.4927 113.062 32.6559 112.452 32.6559 111.67C32.6559 110.97 32.4888 110.404 32.1545 109.971C31.8242 109.535 31.3838 109.316 30.8333 109.316C30.2946 109.316 29.86 109.531 29.5297 109.959C29.1994 110.388 29.0343 111.001 29.0343 111.8ZM34.8265 111.67C34.8265 111.045 34.9484 110.482 35.1922 109.983C35.44 109.484 35.7821 109.098 36.2186 108.827C36.659 108.556 37.1603 108.42 37.7227 108.42C38.5917 108.42 39.2936 108.721 39.8284 109.322C40.3671 109.924 40.6365 110.724 40.6365 111.723V111.8C40.6365 112.421 40.5165 112.979 40.2767 113.475C40.0407 113.966 39.7006 114.35 39.2562 114.625C38.8158 114.9 38.3086 115.038 37.7345 115.038C36.8693 115.038 36.1674 114.737 35.6287 114.135C35.0939 113.534 34.8265 112.738 34.8265 111.747V111.67ZM35.9236 111.8C35.9236 112.507 36.0868 113.076 36.4132 113.504C36.7435 113.933 37.1839 114.147 37.7345 114.147C38.2889 114.147 38.7293 113.931 39.0557 113.498C39.3821 113.062 39.5453 112.452 39.5453 111.67C39.5453 110.97 39.3781 110.404 39.0439 109.971C38.7136 109.535 38.2732 109.316 37.7227 109.316C37.1839 109.316 36.7494 109.531 36.4191 109.959C36.0888 110.388 35.9236 111.001 35.9236 111.8ZM47.3961 111.8C47.3961 112.771 47.1739 113.553 46.7296 114.147C46.2852 114.741 45.6836 115.038 44.9246 115.038C44.15 115.038 43.5405 114.792 43.0961 114.301V117.374H42.0049V108.538H43.0018L43.0548 109.246C43.4992 108.695 44.1166 108.42 44.907 108.42C45.6737 108.42 46.2793 108.709 46.7237 109.287C47.172 109.865 47.3961 110.669 47.3961 111.699V111.8ZM46.3049 111.676C46.3049 110.956 46.1515 110.388 45.8448 109.971C45.5381 109.554 45.1173 109.346 44.5825 109.346C43.9219 109.346 43.4264 109.639 43.0961 110.225V113.274C43.4225 113.856 43.9219 114.147 44.5943 114.147C45.1173 114.147 45.5322 113.941 45.8389 113.528C46.1496 113.111 46.3049 112.494 46.3049 111.676ZM52.7283 114.92C52.6654 114.794 52.6142 114.57 52.5749 114.248C52.0677 114.774 51.4621 115.038 50.7582 115.038C50.129 115.038 49.6119 114.861 49.2069 114.507C48.8058 114.149 48.6053 113.697 48.6053 113.15C48.6053 112.486 48.8569 111.971 49.3603 111.605C49.8675 111.235 50.5793 111.051 51.4955 111.051H52.5572V110.549C52.5572 110.168 52.4432 109.865 52.2151 109.641C51.987 109.413 51.6508 109.299 51.2065 109.299C50.8172 109.299 50.4908 109.397 50.2273 109.594C49.9639 109.79 49.8321 110.028 49.8321 110.307H48.735C48.735 109.989 48.8471 109.682 49.0712 109.387C49.2993 109.088 49.606 108.852 49.9914 108.679C50.3807 108.506 50.8074 108.42 51.2714 108.42C52.0067 108.42 52.5828 108.605 52.9996 108.974C53.4164 109.34 53.6327 109.845 53.6484 110.49V113.428C53.6484 114.014 53.7231 114.48 53.8726 114.826V114.92H52.7283ZM50.9175 114.088C51.2596 114.088 51.584 114 51.8907 113.823C52.1974 113.646 52.4196 113.416 52.5572 113.133V111.823H51.702C50.365 111.823 49.6965 112.215 49.6965 112.997C49.6965 113.339 49.8105 113.607 50.0386 113.799C50.2667 113.992 50.5596 114.088 50.9175 114.088ZM61.0569 111.092C60.0856 110.813 59.3778 110.471 58.9334 110.066C58.493 109.657 58.2728 109.153 58.2728 108.556C58.2728 107.879 58.5422 107.321 59.0809 106.88C59.6236 106.436 60.3274 106.214 61.1925 106.214C61.7824 106.214 62.3073 106.328 62.7674 106.556C63.2314 106.784 63.5893 107.099 63.8409 107.5C64.0965 107.901 64.2243 108.339 64.2243 108.815H63.0859C63.0859 108.296 62.9208 107.889 62.5905 107.594C62.2602 107.295 61.7942 107.146 61.1925 107.146C60.6342 107.146 60.1977 107.27 59.8831 107.517C59.5724 107.761 59.4171 108.101 59.4171 108.538C59.4171 108.888 59.5646 109.185 59.8595 109.428C60.1583 109.668 60.6636 109.889 61.3754 110.089C62.0911 110.29 62.6495 110.512 63.0505 110.756C63.4556 110.995 63.7544 111.277 63.9471 111.599C64.1437 111.922 64.242 112.301 64.242 112.738C64.242 113.434 63.9707 113.992 63.428 114.413C62.8854 114.829 62.1599 115.038 61.2515 115.038C60.6617 115.038 60.1112 114.926 59.6 114.702C59.0888 114.474 58.6936 114.163 58.4144 113.77C58.1391 113.376 58.0015 112.93 58.0015 112.431H59.1399C59.1399 112.95 59.3306 113.361 59.712 113.664C60.0974 113.962 60.6106 114.112 61.2515 114.112C61.8492 114.112 62.3073 113.99 62.6259 113.746C62.9444 113.502 63.1036 113.17 63.1036 112.749C63.1036 112.329 62.9562 112.004 62.6613 111.776C62.3663 111.544 61.8315 111.316 61.0569 111.092ZM65.2389 111.67C65.2389 111.045 65.3608 110.482 65.6046 109.983C65.8523 109.484 66.1944 109.098 66.6309 108.827C67.0713 108.556 67.5727 108.42 68.135 108.42C69.004 108.42 69.706 108.721 70.2407 109.322C70.7795 109.924 71.0488 110.724 71.0488 111.723V111.8C71.0488 112.421 70.9289 112.979 70.689 113.475C70.4531 113.966 70.1129 114.35 69.6686 114.625C69.2282 114.9 68.7209 115.038 68.1468 115.038C67.2817 115.038 66.5798 114.737 66.0411 114.135C65.5063 113.534 65.2389 112.738 65.2389 111.747V111.67ZM66.336 111.8C66.336 112.507 66.4992 113.076 66.8255 113.504C67.1559 113.933 67.5963 114.147 68.1468 114.147C68.7013 114.147 69.1417 113.931 69.468 113.498C69.7944 113.062 69.9576 112.452 69.9576 111.67C69.9576 110.97 69.7905 110.404 69.4563 109.971C69.1259 109.535 68.6855 109.316 68.135 109.316C67.5963 109.316 67.1618 109.531 66.8314 109.959C66.5011 110.388 66.336 111.001 66.336 111.8ZM73.8978 106.992V108.538H75.0893V109.381H73.8978V113.339C73.8978 113.595 73.9509 113.787 74.057 113.917C74.1632 114.043 74.3441 114.106 74.5997 114.106C74.7255 114.106 74.8985 114.082 75.1187 114.035V114.92C74.8317 114.999 74.5525 115.038 74.2812 115.038C73.7936 115.038 73.4259 114.89 73.1782 114.596C72.9304 114.301 72.8066 113.882 72.8066 113.339V109.381H71.6446V108.538H72.8066V106.992H73.8978ZM80.0852 113.227C80.0852 112.932 79.9732 112.704 79.749 112.543C79.5288 112.378 79.1415 112.236 78.587 112.118C78.0365 112 77.5981 111.859 77.2717 111.693C76.9492 111.528 76.7094 111.332 76.5521 111.104C76.3987 110.876 76.322 110.604 76.322 110.29C76.322 109.767 76.5422 109.324 76.9827 108.963C77.427 108.601 77.9933 108.42 78.6814 108.42C79.4049 108.42 79.9909 108.607 80.4391 108.98C80.8914 109.354 81.1175 109.832 81.1175 110.414H80.0203C80.0203 110.115 79.8925 109.857 79.6369 109.641C79.3853 109.425 79.0668 109.316 78.6814 109.316C78.2842 109.316 77.9736 109.403 77.7494 109.576C77.5253 109.749 77.4132 109.975 77.4132 110.254C77.4132 110.518 77.5174 110.716 77.7259 110.85C77.9343 110.984 78.3098 111.111 78.8525 111.233C79.399 111.355 79.8414 111.501 80.1796 111.67C80.5178 111.839 80.7675 112.043 80.9287 112.283C81.0939 112.519 81.1764 112.808 81.1764 113.15C81.1764 113.721 80.9484 114.179 80.4922 114.525C80.0361 114.867 79.4443 115.038 78.7168 115.038C78.2056 115.038 77.7534 114.947 77.3602 114.767C76.9669 114.586 76.6582 114.334 76.4341 114.012C76.2139 113.685 76.1038 113.333 76.1038 112.956H77.195C77.2147 113.321 77.3602 113.612 77.6315 113.829C77.9067 114.041 78.2685 114.147 78.7168 114.147C79.1297 114.147 79.46 114.065 79.7077 113.899C79.9594 113.73 80.0852 113.506 80.0852 113.227ZM83.7836 114.92H82.6923V108.538H83.7836V114.92ZM82.6039 106.845C82.6039 106.668 82.657 106.519 82.7631 106.397C82.8732 106.275 83.0345 106.214 83.2468 106.214C83.4591 106.214 83.6204 106.275 83.7305 106.397C83.8406 106.519 83.8956 106.668 83.8956 106.845C83.8956 107.022 83.8406 107.169 83.7305 107.287C83.6204 107.405 83.4591 107.464 83.2468 107.464C83.0345 107.464 82.8732 107.405 82.7631 107.287C82.657 107.169 82.6039 107.022 82.6039 106.845ZM89.4755 114.92C89.4126 114.794 89.3615 114.57 89.3222 114.248C88.8149 114.774 88.2093 115.038 87.5055 115.038C86.8763 115.038 86.3592 114.861 85.9542 114.507C85.5531 114.149 85.3525 113.697 85.3525 113.15C85.3525 112.486 85.6042 111.971 86.1075 111.605C86.6148 111.235 87.3266 111.051 88.2428 111.051H89.3045V110.549C89.3045 110.168 89.1905 109.865 88.9624 109.641C88.7343 109.413 88.3981 109.299 87.9538 109.299C87.5645 109.299 87.2381 109.397 86.9746 109.594C86.7111 109.79 86.5794 110.028 86.5794 110.307H85.4823C85.4823 109.989 85.5944 109.682 85.8185 109.387C86.0466 109.088 86.3533 108.852 86.7387 108.679C87.128 108.506 87.5546 108.42 88.0186 108.42C88.754 108.42 89.3301 108.605 89.7469 108.974C90.1637 109.34 90.38 109.845 90.3957 110.49V113.428C90.3957 114.014 90.4704 114.48 90.6198 114.826V114.92H89.4755ZM87.6647 114.088C88.0068 114.088 88.3313 114 88.638 113.823C88.9447 113.646 89.1669 113.416 89.3045 113.133V111.823H88.4492C87.1122 111.823 86.4438 112.215 86.4438 112.997C86.4438 113.339 86.5578 113.607 86.7859 113.799C87.0139 113.992 87.3069 114.088 87.6647 114.088ZM96.0464 114.92C95.9835 114.794 95.9324 114.57 95.893 114.248C95.3858 114.774 94.7802 115.038 94.0763 115.038C93.4472 115.038 92.9301 114.861 92.525 114.507C92.1239 114.149 91.9234 113.697 91.9234 113.15C91.9234 112.486 92.1751 111.971 92.6784 111.605C93.1857 111.235 93.8974 111.051 94.8136 111.051H95.8754V110.549C95.8754 110.168 95.7613 109.865 95.5332 109.641C95.3052 109.413 94.969 109.299 94.5246 109.299C94.1353 109.299 93.8089 109.397 93.5455 109.594C93.282 109.79 93.1503 110.028 93.1503 110.307H92.0532C92.0532 109.989 92.1652 109.682 92.3894 109.387C92.6175 109.088 92.9242 108.852 93.3095 108.679C93.6988 108.506 94.1255 108.42 94.5895 108.42C95.3248 108.42 95.9009 108.605 96.3177 108.974C96.7346 109.34 96.9508 109.845 96.9666 110.49V113.428C96.9666 114.014 97.0413 114.48 97.1907 114.826V114.92H96.0464ZM94.2356 114.088C94.5777 114.088 94.9021 114 95.2088 113.823C95.5155 113.646 95.7377 113.416 95.8754 113.133V111.823H95.0201C93.6831 111.823 93.0146 112.215 93.0146 112.997C93.0146 113.339 93.1286 113.607 93.3567 113.799C93.5848 113.992 93.8778 114.088 94.2356 114.088ZM99.8627 114.92H98.7715V105.86H99.8627V114.92ZM102.151 114.92V109.381H101.143V108.538H102.151V107.883C102.151 107.199 102.334 106.67 102.7 106.296C103.066 105.923 103.583 105.736 104.251 105.736C104.503 105.736 104.752 105.769 105 105.836L104.941 106.721C104.756 106.686 104.56 106.668 104.351 106.668C103.997 106.668 103.724 106.772 103.532 106.981C103.339 107.185 103.242 107.48 103.242 107.865V108.538H104.605V109.381H103.242V114.92H102.151ZM105.525 111.67C105.525 111.045 105.647 110.482 105.891 109.983C106.139 109.484 106.481 109.098 106.917 108.827C107.358 108.556 107.859 108.42 108.421 108.42C109.29 108.42 109.992 108.721 110.527 109.322C111.066 109.924 111.335 110.724 111.335 111.723V111.8C111.335 112.421 111.215 112.979 110.975 113.475C110.739 113.966 110.399 114.35 109.955 114.625C109.515 114.9 109.007 115.038 108.433 115.038C107.568 115.038 106.866 114.737 106.327 114.135C105.793 113.534 105.525 112.738 105.525 111.747V111.67ZM106.622 111.8C106.622 112.507 106.785 113.076 107.112 113.504C107.442 113.933 107.883 114.147 108.433 114.147C108.988 114.147 109.428 113.931 109.754 113.498C110.081 113.062 110.244 112.452 110.244 111.67C110.244 110.97 110.077 110.404 109.743 109.971C109.412 109.535 108.972 109.316 108.421 109.316C107.883 109.316 107.448 109.531 107.118 109.959C106.787 110.388 106.622 111.001 106.622 111.8ZM113.736 108.538L113.771 109.34C114.259 108.727 114.896 108.42 115.682 108.42C117.031 108.42 117.711 109.181 117.723 110.703V114.92H116.632V110.697C116.628 110.237 116.522 109.896 116.313 109.676C116.109 109.456 115.788 109.346 115.352 109.346C114.998 109.346 114.687 109.44 114.42 109.629C114.153 109.818 113.944 110.066 113.795 110.372V114.92H112.704V108.538H113.736ZM119.103 111.676C119.103 110.697 119.335 109.91 119.799 109.316C120.263 108.719 120.871 108.42 121.622 108.42C122.369 108.42 122.961 108.675 123.397 109.187V105.86H124.489V114.92H123.486L123.433 114.236C122.996 114.77 122.389 115.038 121.61 115.038C120.871 115.038 120.267 114.735 119.799 114.13C119.335 113.524 119.103 112.734 119.103 111.758V111.676ZM120.195 111.8C120.195 112.523 120.344 113.089 120.643 113.498C120.942 113.907 121.355 114.112 121.882 114.112C122.574 114.112 123.079 113.801 123.397 113.18V110.248C123.071 109.647 122.57 109.346 121.893 109.346C121.359 109.346 120.942 109.552 120.643 109.965C120.344 110.378 120.195 110.99 120.195 111.8Z" fill="#231F20"/>
<path fill-rule="evenodd" clip-rule="evenodd" d="M8.7002 8.40039H127.7V88.0004H8.7002V8.40039Z" fill="#0D4DA1"/>
<path fill-rule="evenodd" clip-rule="evenodd" d="M69.1001 19.9998H72.5001L69.7001 21.9998L70.8001 25.2998L68.0001 23.2998L65.3001 25.2998L66.4001 21.9998L63.6001 19.9998H67.0001L68.0001 16.7998L69.1001 19.9998Z" fill="#FFF101"/>
<path fill-rule="evenodd" clip-rule="evenodd" d="M69.2002 72.9998H72.6002L69.9002 75.0998L70.9002 78.3998L68.2002 76.3998L65.4002 78.3998L66.5002 75.0998L63.7002 72.9998H67.2002L68.2002 69.7998L69.2002 72.9998Z" fill="#FFF101"/>
<path fill-rule="evenodd" clip-rule="evenodd" d="M82.2999 69.4998H85.7999L82.9999 71.5998L84.0999 74.8998L81.2999 72.8998L78.5999 74.8998L79.6999 71.5998L76.8999 69.4998H80.2999L81.2999 66.2998L82.2999 69.4998Z" fill="#FFF101"/>
<path fill-rule="evenodd" clip-rule="evenodd" d="M82.2999 23.4998H85.7999L82.9999 25.4998L84.0999 28.7998L81.2999 26.7998L78.5999 28.7998L79.6999 25.4998L76.8999 23.4998H80.2999L81.2999 20.2998L82.2999 23.4998Z" fill="#FFF101"/>
<path fill-rule="evenodd" clip-rule="evenodd" d="M92.1001 33.2H95.5001L92.8001 35.3L93.8001 38.6L91.1001 36.6L88.3001 38.6L89.4001 35.3L86.6001 33.2H90.0001L91.1001 30L92.1001 33.2Z" fill="#FFF101"/>
<path fill-rule="evenodd" clip-rule="evenodd" d="M92.1001 59.9002H95.5001L92.8001 62.0002L93.8001 65.3002L91.1001 63.2002L88.3001 65.3002L89.4001 62.0002L86.6001 59.9002H90.0001L91.1001 56.7002L92.1001 59.9002Z" fill="#FFF101"/>
<path fill-rule="evenodd" clip-rule="evenodd" d="M95.6998 46.3996H99.1998L96.3998 48.3996L97.4998 51.6996L94.6998 49.6996L91.9998 51.6996L93.0998 48.3996L90.2998 46.3996H93.6998L94.6998 43.0996L95.6998 46.3996Z" fill="#FFF101"/>
<path fill-rule="evenodd" clip-rule="evenodd" d="M55.7002 23.4998H59.1002L56.3002 25.5998L57.4002 28.8998L54.6002 26.7998L51.9002 28.8998L53.0002 25.5998L50.2002 23.4998H53.6002L54.6002 20.2998L55.7002 23.4998Z" fill="#FFF101"/>
<path fill-rule="evenodd" clip-rule="evenodd" d="M46.2002 33.2H49.6002L46.8002 35.3L47.9002 38.6L45.2002 36.6L42.4002 38.6L43.5002 35.3L40.7002 33.2H44.1002L45.2002 30L46.2002 33.2Z" fill="#FFF101"/>
<path fill-rule="evenodd" clip-rule="evenodd" d="M42.7002 46.4002H46.1002L43.3002 48.5002L44.4002 51.8002L41.6002 49.7002L38.9002 51.8002L40.0002 48.5002L37.2002 46.4002H40.6002L41.6002 43.2002L42.7002 46.4002Z" fill="#FFF101"/>
<path fill-rule="evenodd" clip-rule="evenodd" d="M46.2002 59.9002H49.6002L46.8002 62.0002L47.9002 65.3002L45.2002 63.3002L42.4002 65.3002L43.5002 62.0002L40.7002 59.9002H44.1002L45.2002 56.7002L46.2002 59.9002Z" fill="#FFF101"/>
<path fill-rule="evenodd" clip-rule="evenodd" d="M55.7998 69.5998H59.1998L56.4998 71.5998L57.4998 74.8998L54.7998 72.8998L51.9998 74.8998L53.0998 71.5998L50.2998 69.5998H53.6998L54.7998 66.2998L55.7998 69.5998Z" fill="#FFF101"/>
<path fill-rule="evenodd" clip-rule="evenodd" d="M194 24.1998C203.3 25.0998 211.9 28.0998 219.3 32.7998C219.3 32.7998 219.5 32.8998 219.8 33.0998C210.4 19.7998 195.3 10.3998 177.7 8.79976C162.2 7.39976 147.6 12.0998 136.4 20.8998C144.9 22.5998 152.4 26.8998 158.1 32.7998C168.4 26.2998 180.9 22.9998 194 24.1998Z" fill="#007CC3"/>
<path fill-rule="evenodd" clip-rule="evenodd" d="M229.8 61.5002C229.8 61.3002 229.8 60.5002 229.7 60.3002C228.9 50.4002 225.3 41.0002 219.8 33.1002C219.5 32.9002 219.3 32.8002 219.3 32.8002C211.9 28.1002 203.3 25.1002 194 24.2002C180.9 23.0002 168.4 26.3002 158.1 32.8002C164.5 39.5002 168.6 48.3002 169.4 57.9002C169.6 60.3002 169.6 62.7002 169.4 65.2002C169 69.1002 168.2 72.8002 166.8 76.3002C164.4 82.6002 160.5 88.1002 155.5 92.5002L155.6 92.4002C174.6 81.3002 198.3 76.6002 221.6 80.1002C219.4 82.1002 216.3 83.8002 213.7 85.2002C216.8 84.3002 227.9 79.9002 228.1 79.6002C228.1 79.6002 230.6 71.2002 229.8 61.5002V61.5002Z" fill="#231F20"/>
<path fill-rule="evenodd" clip-rule="evenodd" d="M228.8 60.1995C221.4 55.1995 215.4 52.1995 202.5 50.9995C192.8 50.0995 183.3 51.6995 174.9 55.1995C175.1 57.5995 175.2 59.9995 174.9 62.3995C173.8 74.2995 167.5 84.3995 158.5 90.6995C181.9 77.2995 203.1 75.4995 221.1 78.1995C222.3 78.3995 226 78.9995 227.7 79.4995C229.8 68.9995 229.1 61.9995 228.8 60.1995Z" fill="white"/>
<path d="M185.851 98.9503H182.129V101.994H186.453V102.92H180.997V94.3318H186.394V95.2638H182.129V98.0242H185.851V98.9503ZM190.222 103.038C189.357 103.038 188.653 102.755 188.11 102.189C187.568 101.618 187.296 100.857 187.296 99.9058V99.7053C187.296 99.0722 187.416 98.5079 187.656 98.0124C187.9 97.513 188.238 97.1237 188.671 96.8445C189.107 96.5614 189.579 96.4198 190.086 96.4198C190.916 96.4198 191.561 96.6931 192.021 97.2397C192.481 97.7863 192.711 98.5688 192.711 99.5873V100.041H188.388C188.403 100.671 188.586 101.18 188.936 101.569C189.29 101.955 189.738 102.147 190.281 102.147C190.666 102.147 190.993 102.069 191.26 101.911C191.528 101.754 191.761 101.546 191.962 101.286L192.629 101.805C192.094 102.627 191.292 103.038 190.222 103.038ZM190.086 97.3164C189.646 97.3164 189.276 97.4776 188.977 97.8001C188.679 98.1186 188.494 98.5669 188.423 99.1449H191.62V99.0623C191.588 98.5079 191.439 98.0793 191.172 97.7765C190.904 97.4698 190.542 97.3164 190.086 97.3164ZM197.695 101.227C197.695 100.932 197.583 100.704 197.359 100.543C197.139 100.378 196.752 100.236 196.197 100.118C195.647 100 195.208 99.8586 194.882 99.6935C194.559 99.5283 194.319 99.3317 194.162 99.1036C194.009 98.8756 193.932 98.6042 193.932 98.2896C193.932 97.7667 194.152 97.3243 194.593 96.9625C195.037 96.6007 195.603 96.4198 196.291 96.4198C197.015 96.4198 197.601 96.6066 198.049 96.9802C198.501 97.3538 198.728 97.8315 198.728 98.4135H197.63C197.63 98.1147 197.503 97.8571 197.247 97.6408C196.995 97.4245 196.677 97.3164 196.291 97.3164C195.894 97.3164 195.584 97.4029 195.36 97.5759C195.135 97.749 195.023 97.9751 195.023 98.2543C195.023 98.5177 195.128 98.7163 195.336 98.85C195.544 98.9837 195.92 99.1115 196.463 99.2334C197.009 99.3553 197.452 99.5008 197.79 99.6699C198.128 99.839 198.378 100.043 198.539 100.283C198.704 100.519 198.787 100.808 198.787 101.15C198.787 101.721 198.558 102.179 198.102 102.525C197.646 102.867 197.054 103.038 196.327 103.038C195.816 103.038 195.363 102.947 194.97 102.767C194.577 102.586 194.268 102.334 194.044 102.012C193.824 101.685 193.714 101.333 193.714 100.956H194.805C194.825 101.321 194.97 101.612 195.242 101.829C195.517 102.041 195.879 102.147 196.327 102.147C196.74 102.147 197.07 102.065 197.318 101.899C197.569 101.73 197.695 101.506 197.695 101.227ZM201.689 94.9924V96.5378H202.88V97.3813H201.689V101.339C201.689 101.595 201.742 101.787 201.848 101.917C201.954 102.043 202.135 102.106 202.39 102.106C202.516 102.106 202.689 102.082 202.91 102.035V102.92C202.622 102.999 202.343 103.038 202.072 103.038C201.584 103.038 201.217 102.89 200.969 102.596C200.721 102.301 200.597 101.882 200.597 101.339V97.3813H199.435V96.5378H200.597V94.9924H201.689ZM205.346 102.92H204.254V96.5378H205.346V102.92ZM204.166 94.845C204.166 94.668 204.219 94.5186 204.325 94.3967C204.435 94.2748 204.596 94.2138 204.809 94.2138C205.021 94.2138 205.182 94.2748 205.293 94.3967C205.403 94.5186 205.458 94.668 205.458 94.845C205.458 95.0219 205.403 95.1694 205.293 95.2873C205.182 95.4053 205.021 95.4643 204.809 95.4643C204.596 95.4643 204.435 95.4053 204.325 95.2873C204.219 95.1694 204.166 95.0219 204.166 94.845Z" fill="#231F20"/>
<path d="M157.306 106.992V108.538H158.498V109.381H157.306V113.339C157.306 113.595 157.359 113.787 157.466 113.917C157.572 114.043 157.753 114.106 158.008 114.106C158.134 114.106 158.307 114.082 158.527 114.035V114.92C158.24 114.999 157.961 115.038 157.69 115.038C157.202 115.038 156.834 114.89 156.587 114.596C156.339 114.301 156.215 113.882 156.215 113.339V109.381H155.053V108.538H156.215V106.992H157.306ZM163.718 114.289C163.293 114.788 162.67 115.038 161.848 115.038C161.168 115.038 160.649 114.841 160.291 114.448C159.937 114.051 159.758 113.465 159.754 112.69V108.538H160.845V112.661C160.845 113.628 161.239 114.112 162.025 114.112C162.859 114.112 163.413 113.801 163.688 113.18V108.538H164.78V114.92H163.741L163.718 114.289ZM167.629 114.92H166.537V105.86H167.629V114.92ZM172.029 115.038C171.164 115.038 170.46 114.755 169.917 114.189C169.374 113.618 169.103 112.857 169.103 111.906V111.705C169.103 111.072 169.223 110.508 169.463 110.012C169.707 109.513 170.045 109.124 170.477 108.845C170.914 108.561 171.386 108.42 171.893 108.42C172.723 108.42 173.368 108.693 173.828 109.24C174.288 109.786 174.518 110.569 174.518 111.587V112.041H170.194C170.21 112.671 170.393 113.18 170.743 113.569C171.097 113.955 171.545 114.147 172.088 114.147C172.473 114.147 172.8 114.069 173.067 113.911C173.334 113.754 173.568 113.546 173.769 113.286L174.435 113.805C173.901 114.627 173.098 115.038 172.029 115.038ZM171.893 109.316C171.453 109.316 171.083 109.478 170.784 109.8C170.485 110.119 170.301 110.567 170.23 111.145H173.427V111.062C173.395 110.508 173.246 110.079 172.978 109.776C172.711 109.47 172.349 109.316 171.893 109.316ZM177.809 113.439L179.39 108.538H180.505L178.216 114.92H177.385L175.072 108.538H176.187L177.809 113.439ZM182.74 114.92H181.649V108.538H182.74V114.92ZM181.561 106.845C181.561 106.668 181.614 106.519 181.72 106.397C181.83 106.275 181.991 106.214 182.204 106.214C182.416 106.214 182.577 106.275 182.687 106.397C182.797 106.519 182.852 106.668 182.852 106.845C182.852 107.022 182.797 107.169 182.687 107.287C182.577 107.405 182.416 107.464 182.204 107.464C181.991 107.464 181.83 107.405 181.72 107.287C181.614 107.169 181.561 107.022 181.561 106.845ZM186.274 111.965L185.589 112.679V114.92H184.498V105.86H185.589V111.34L186.173 110.638L188.161 108.538H189.488L187.005 111.204L189.777 114.92H188.497L186.274 111.965ZM194.555 114.289C194.13 114.788 193.507 115.038 192.685 115.038C192.005 115.038 191.486 114.841 191.128 114.448C190.774 114.051 190.595 113.465 190.591 112.69V108.538H191.682V112.661C191.682 113.628 192.076 114.112 192.862 114.112C193.696 114.112 194.25 113.801 194.525 113.18V108.538H195.617V114.92H194.579L194.555 114.289ZM201.368 109.311C201.851 108.717 202.48 108.42 203.255 108.42C204.604 108.42 205.284 109.181 205.296 110.703V114.92H204.205V110.697C204.201 110.237 204.095 109.896 203.886 109.676C203.682 109.456 203.361 109.346 202.925 109.346C202.571 109.346 202.26 109.44 201.993 109.629C201.725 109.818 201.517 110.066 201.368 110.372V114.92H200.276V105.86H201.368V109.311ZM209.578 115.038C208.713 115.038 208.009 114.755 207.467 114.189C206.924 113.618 206.653 112.857 206.653 111.906V111.705C206.653 111.072 206.773 110.508 207.012 110.012C207.256 109.513 207.594 109.124 208.027 108.845C208.463 108.561 208.935 108.42 209.443 108.42C210.272 108.42 210.917 108.693 211.377 109.24C211.837 109.786 212.067 110.569 212.067 111.587V112.041H207.744C207.76 112.671 207.942 113.18 208.292 113.569C208.646 113.955 209.095 114.147 209.637 114.147C210.023 114.147 210.349 114.069 210.616 113.911C210.884 113.754 211.118 113.546 211.318 113.286L211.985 113.805C211.45 114.627 210.648 115.038 209.578 115.038ZM209.443 109.316C209.002 109.316 208.633 109.478 208.334 109.8C208.035 110.119 207.85 110.567 207.779 111.145H210.976V111.062C210.945 110.508 210.795 110.079 210.528 109.776C210.26 109.47 209.899 109.316 209.443 109.316ZM217.276 114.92C217.213 114.794 217.162 114.57 217.122 114.248C216.615 114.774 216.01 115.038 215.306 115.038C214.676 115.038 214.159 114.861 213.754 114.507C213.353 114.149 213.153 113.697 213.153 113.15C213.153 112.486 213.404 111.971 213.908 111.605C214.415 111.235 215.127 111.051 216.043 111.051H217.105V110.549C217.105 110.168 216.991 109.865 216.763 109.641C216.534 109.413 216.198 109.299 215.754 109.299C215.365 109.299 215.038 109.397 214.775 109.594C214.511 109.79 214.38 110.028 214.38 110.307H213.282C213.282 109.989 213.395 109.682 213.619 109.387C213.847 109.088 214.153 108.852 214.539 108.679C214.928 108.506 215.355 108.42 215.819 108.42C216.554 108.42 217.13 108.605 217.547 108.974C217.964 109.34 218.18 109.845 218.196 110.49V113.428C218.196 114.014 218.271 114.48 218.42 114.826V114.92H217.276ZM215.465 114.088C215.807 114.088 216.131 114 216.438 113.823C216.745 113.646 216.967 113.416 217.105 113.133V111.823H216.249C214.912 111.823 214.244 112.215 214.244 112.997C214.244 113.339 214.358 113.607 214.586 113.799C214.814 113.992 215.107 114.088 215.465 114.088ZM221.688 111.965L221.004 112.679V114.92H219.912V105.86H221.004V111.34L221.587 110.638L223.575 108.538H224.902L222.419 111.204L225.191 114.92H223.911L221.688 111.965ZM229.745 113.227C229.745 112.932 229.633 112.704 229.409 112.543C229.189 112.378 228.801 112.236 228.247 112.118C227.696 112 227.258 111.859 226.931 111.693C226.609 111.528 226.369 111.332 226.212 111.104C226.058 110.876 225.982 110.604 225.982 110.29C225.982 109.767 226.202 109.324 226.642 108.963C227.087 108.601 227.653 108.42 228.341 108.42C229.065 108.42 229.651 108.607 230.099 108.98C230.551 109.354 230.777 109.832 230.777 110.414H229.68C229.68 110.115 229.552 109.857 229.297 109.641C229.045 109.425 228.727 109.316 228.341 109.316C227.944 109.316 227.633 109.403 227.409 109.576C227.185 109.749 227.073 109.975 227.073 110.254C227.073 110.518 227.177 110.716 227.386 110.85C227.594 110.984 227.97 111.111 228.512 111.233C229.059 111.355 229.501 111.501 229.839 111.67C230.178 111.839 230.427 112.043 230.588 112.283C230.754 112.519 230.836 112.808 230.836 113.15C230.836 113.721 230.608 114.179 230.152 114.525C229.696 114.867 229.104 115.038 228.377 115.038C227.865 115.038 227.413 114.947 227.02 114.767C226.627 114.586 226.318 114.334 226.094 114.012C225.874 113.685 225.764 113.333 225.764 112.956H226.855C226.874 113.321 227.02 113.612 227.291 113.829C227.567 114.041 227.928 114.147 228.377 114.147C228.789 114.147 229.12 114.065 229.367 113.899C229.619 113.73 229.745 113.506 229.745 113.227Z" fill="#231F20"/>
</g>
<defs>
<clipPath id="clip0">
<rect width="238" height="125" fill="white"/>
</clipPath>
</defs>
</svg>
