<svg width="131" height="96" viewBox="0 0 131 96" fill="none" xmlns="http://www.w3.org/2000/svg">
<mask id="mask0_724_19" style="mask-type:luminance" maskUnits="userSpaceOnUse" x="0" y="0" width="131" height="96">
<path d="M0.052124 0.608887H131V95.3047H0.052124V0.608887Z" fill="white"/>
</mask>
<g mask="url(#mask0_724_19)">
<mask id="mask1_724_19" style="mask-type:luminance" maskUnits="userSpaceOnUse" x="-34" y="-24" width="165" height="135">
<path d="M48.9253 -23.856C3.60236 -23.856 -33.1442 6.24379 -33.1442 43.3781C-33.1442 80.5124 3.60236 110.612 48.9253 110.612C94.2534 110.612 131 80.5124 131 43.3781C131 6.24379 94.2534 -23.856 48.9253 -23.856Z" fill="white"/>
</mask>
<g mask="url(#mask1_724_19)">
<path d="M-33.1442 -23.856H131V110.612H-33.1442V-23.856Z" fill="white"/>
</g>
</g>
<mask id="mask2_724_19" style="mask-type:luminance" maskUnits="userSpaceOnUse" x="27" y="14" width="74" height="68">
<path d="M27.8805 14.6782H101V81.5825H27.8805V14.6782Z" fill="white"/>
</mask>
<g mask="url(#mask2_724_19)">
<path d="M100.731 48.0796C100.731 49.1577 100.671 50.2314 100.555 51.3052C100.44 52.379 100.268 53.4443 100.037 54.5012C99.8049 55.5581 99.5177 56.6023 99.1749 57.6338C98.8321 58.6653 98.4384 59.6799 97.9844 60.6733C97.5305 61.671 97.0302 62.6434 96.4697 63.5945C95.9138 64.5457 95.307 65.4715 94.6492 66.3678C93.9961 67.264 93.292 68.1264 92.5416 68.9592C91.7958 69.792 90.9991 70.591 90.1653 71.3562C89.3315 72.1172 88.456 72.8401 87.5434 73.5249C86.6309 74.2055 85.6813 74.8481 84.6992 75.4484C83.7172 76.0487 82.7074 76.5983 81.6651 77.1098C80.6229 77.6171 79.5575 78.0779 78.4643 78.488C77.3711 78.9023 76.264 79.2659 75.1337 79.5787C74.0035 79.8915 72.8547 80.1536 71.6966 80.3608C70.5386 80.5721 69.3713 80.7328 68.1947 80.8385C67.0227 80.9442 65.8415 80.9949 64.6603 80.9949C63.4791 80.9949 62.3025 80.9442 61.1259 80.8385C59.9493 80.7328 58.782 80.5721 57.624 80.3608C56.4659 80.1536 55.3217 79.8915 54.1915 79.5787C53.0612 79.2659 51.9495 78.9023 50.8609 78.488C49.7677 78.0779 48.7023 77.6171 47.6601 77.1098C46.6178 76.5983 45.6034 76.0487 44.6213 75.4484C43.6393 74.8481 42.6943 74.2055 41.7818 73.5249C40.8646 72.8401 39.9938 72.1172 39.1553 71.3562C38.3215 70.591 37.5294 69.792 36.779 68.9592C36.0286 68.1264 35.3291 67.264 34.6713 66.3678C34.0136 65.4715 33.4067 64.5457 32.8509 63.5945C32.295 62.6434 31.7901 61.671 31.3408 60.6733C30.8868 59.6799 30.4884 58.6653 30.1457 57.6338C29.8029 56.6023 29.5157 55.5581 29.2841 54.5012C29.0571 53.4443 28.8811 52.379 28.7653 51.3052C28.6495 50.2314 28.5939 49.1577 28.5939 48.0796C28.5939 47.0016 28.6495 45.9236 28.7653 44.8498C28.8811 43.7803 29.0571 42.715 29.2841 41.6581C29.5157 40.597 29.8029 39.5528 30.1457 38.5213C30.4884 37.4898 30.8868 36.4794 31.3408 35.4817C31.7901 34.484 32.295 33.5117 32.8509 32.5605C33.4067 31.6093 34.0136 30.6877 34.6713 29.7915C35.3291 28.8953 36.0286 28.0286 36.779 27.1958C37.5294 26.363 38.3215 25.564 39.1553 24.8031C39.9938 24.0379 40.8646 23.315 41.7818 22.6344C42.6943 21.9495 43.6393 21.3069 44.6213 20.7066C45.6034 20.1106 46.6178 19.5567 47.6601 19.0495C48.7023 18.5379 49.7677 18.0814 50.8609 17.6671C51.9495 17.2528 53.0612 16.8934 54.1915 16.5764C55.3217 16.2635 56.4659 16.0057 57.624 15.7943C58.782 15.5829 59.9493 15.4265 61.1259 15.3208C62.3025 15.2151 63.4791 15.1602 64.6603 15.1602C65.8415 15.1602 67.0227 15.2151 68.1947 15.3208C69.3713 15.4265 70.5386 15.5829 71.6966 15.7943C72.8547 16.0057 74.0035 16.2635 75.1337 16.5764C76.264 16.8934 77.3711 17.2528 78.4643 17.6671C79.5575 18.0814 80.6229 18.5379 81.6651 19.0495C82.7074 19.5567 83.7172 20.1106 84.6992 20.7066C85.6813 21.3069 86.6309 21.9495 87.5434 22.6344C88.456 23.315 89.3315 24.0379 90.1653 24.8031C90.9991 25.564 91.7958 26.363 92.5416 27.1958C93.292 28.0286 93.9961 28.8953 94.6492 29.7915C95.307 30.6877 95.9138 31.6093 96.4697 32.5605C97.0302 33.5117 97.5305 34.484 97.9844 35.4817C98.4384 36.4794 98.8321 37.4898 99.1749 38.5213C99.5177 39.5528 99.8049 40.597 100.037 41.6581C100.268 42.715 100.44 43.7803 100.555 44.8498C100.671 45.9236 100.731 47.0016 100.731 48.0796Z" fill="#4125D0"/>
</g>
<path d="M75 28H53V48.3475H65.697C65.7667 49.8602 65.5342 51.3305 64.9949 52.7627C64.4556 54.1907 63.6513 55.4873 62.5773 56.6398C61.2244 57.6356 59.7274 58.3856 58.0769 58.8941C56.4311 59.3983 54.7342 59.6314 53 59.5847V68C66.571 67.5169 75 61.0381 75 47.1907V28Z" fill="#F1F1F2"/>
</svg>
