<svg width="16" height="16" viewBox="0 0 16 16" fill="none" xmlns="http://www.w3.org/2000/svg">
<path d="M14.4688 0.96875H1.53125C1.22012 0.96875 0.96875 1.22012 0.96875 1.53125V14.4688C0.96875 14.7799 1.22012 15.0312 1.53125 15.0312H14.4688C14.7799 15.0312 15.0312 14.7799 15.0312 14.4688V1.53125C15.0312 1.22012 14.7799 0.96875 14.4688 0.96875ZM5.14004 12.9518H3.05352V6.24043H5.14004V12.9518ZM4.09766 5.32285C3.85846 5.32285 3.62464 5.25192 3.42576 5.11903C3.22688 4.98615 3.07187 4.79727 2.98034 4.57628C2.8888 4.3553 2.86486 4.11213 2.91152 3.87754C2.95818 3.64294 3.07336 3.42745 3.2425 3.25832C3.41163 3.08919 3.62712 2.974 3.86172 2.92734C4.09631 2.88068 4.33948 2.90462 4.56046 2.99616C4.78145 3.08769 4.97033 3.2427 5.10321 3.44158C5.2361 3.64046 5.30703 3.87428 5.30703 4.11348C5.30527 4.78145 4.76387 5.32285 4.09766 5.32285ZM12.9518 12.9518H10.867V9.6875C10.867 8.90879 10.8529 7.90859 9.78242 7.90859C8.69785 7.90859 8.53086 8.75586 8.53086 9.63125V12.9518H6.44785V6.24043H8.44824V7.15801H8.47637C8.7541 6.63066 9.43438 6.07344 10.4504 6.07344C12.5633 6.07344 12.9518 7.46387 12.9518 9.2709V12.9518Z" fill="#173148"/>
</svg>
