<svg width="36" height="36" viewBox="0 0 36 36" fill="none" xmlns="http://www.w3.org/2000/svg">
<circle cx="18" cy="18" r="18" fill="#E7D2D1"/>
<path d="M24.7522 22.2809C21.914 22.9704 19.3654 21.9234 16.8515 20.6593C15.9248 20.1996 14.9748 19.8293 13.9554 19.7655C12.7274 19.6889 12.0671 20.2379 11.7543 21.5531C11.6269 22.1021 11.4067 22.3447 10.8507 22.3064C9.76173 22.2554 8.66118 22.2937 7.56065 22.2937C7.27103 22.2937 6.95825 22.2937 7.00459 21.8468C7.24787 19.8676 7.54907 17.9013 8.84655 16.3563C10.3062 14.607 12.1713 14.3261 14.1871 14.5814C16.4113 14.8623 18.4154 15.986 20.5123 16.7138C20.8482 16.8287 21.1842 16.9564 21.5317 17.0458C23.1072 17.4671 23.9761 16.8798 24.2078 15.1432C24.2657 14.7091 24.3699 14.6708 24.6827 14.6836C25.9107 14.6963 27.1502 14.7091 28.3782 14.6836C28.969 14.6708 29.0617 14.9262 28.969 15.5008C28.6099 17.8374 27.9148 19.9825 26.2003 21.5658C25.8412 22.1021 25.2851 22.166 24.7522 22.2809Z" fill="#173348"/>
</svg>
