<svg width="456" height="90" viewBox="0 0 456 90" fill="none" xmlns="http://www.w3.org/2000/svg">
<path d="M105.032 22V3.09091H116.444V5.12216H107.322V11.5114H115.853V13.5426H107.322V19.9688H116.592V22H105.032ZM120.311 22V3.09091H131.723V5.12216H122.601V11.5114H131.132V13.5426H122.601V19.9688H131.871V22H120.311ZM145.931 7.81818C145.82 6.88258 145.371 6.15625 144.583 5.6392C143.795 5.12216 142.829 4.86364 141.684 4.86364C140.847 4.86364 140.114 4.99905 139.486 5.26989C138.865 5.54072 138.378 5.91311 138.028 6.38707C137.683 6.86103 137.511 7.39962 137.511 8.00284C137.511 8.50757 137.631 8.94152 137.871 9.30469C138.117 9.66169 138.431 9.96023 138.812 10.2003C139.194 10.4342 139.594 10.6281 140.013 10.782C140.431 10.9297 140.816 11.0497 141.167 11.142L143.087 11.6591C143.58 11.7884 144.127 11.9669 144.731 12.1946C145.34 12.4223 145.922 12.7332 146.476 13.1271C147.036 13.5149 147.498 14.0135 147.861 14.6229C148.224 15.2322 148.405 15.9801 148.405 16.8665C148.405 17.8883 148.138 18.8116 147.602 19.6364C147.073 20.4612 146.297 21.1167 145.275 21.603C144.26 22.0893 143.026 22.3324 141.573 22.3324C140.219 22.3324 139.046 22.1139 138.055 21.6768C137.07 21.2398 136.295 20.6304 135.729 19.8487C135.168 19.067 134.851 18.1591 134.778 17.125H137.141C137.203 17.839 137.443 18.4299 137.861 18.8977C138.286 19.3594 138.822 19.7041 139.468 19.9318C140.12 20.1534 140.822 20.2642 141.573 20.2642C142.447 20.2642 143.232 20.1226 143.927 19.8395C144.623 19.5502 145.174 19.1501 145.58 18.6392C145.986 18.1222 146.19 17.5189 146.19 16.8295C146.19 16.2017 146.014 15.6908 145.663 15.2969C145.312 14.9029 144.851 14.5829 144.278 14.3366C143.706 14.0904 143.087 13.875 142.422 13.6903L140.096 13.0256C138.618 12.6009 137.449 11.9946 136.587 11.2067C135.726 10.4188 135.295 9.38778 135.295 8.11364C135.295 7.05492 135.581 6.13163 136.153 5.34375C136.732 4.54972 137.507 3.93418 138.48 3.49716C139.459 3.05398 140.551 2.83239 141.758 2.83239C142.976 2.83239 144.06 3.0509 145.008 3.48793C145.956 3.9188 146.707 4.50971 147.261 5.26065C147.821 6.0116 148.116 6.86411 148.147 7.81818H145.931ZM150.876 5.12216V3.09091H165.058V5.12216H159.112V22H156.822V5.12216H150.876ZM170.622 3.09091V22H168.332V3.09091H170.622ZM120.987 43.5455C120.987 45.5398 120.626 47.2633 119.906 48.7159C119.186 50.1686 118.198 51.2888 116.942 52.0767C115.687 52.8646 114.253 53.2585 112.64 53.2585C111.027 53.2585 109.593 52.8646 108.337 52.0767C107.082 51.2888 106.094 50.1686 105.374 48.7159C104.653 47.2633 104.293 45.5398 104.293 43.5455C104.293 41.5511 104.653 39.8277 105.374 38.375C106.094 36.9223 107.082 35.8021 108.337 35.0142C109.593 34.2263 111.027 33.8324 112.64 33.8324C114.253 33.8324 115.687 34.2263 116.942 35.0142C118.198 35.8021 119.186 36.9223 119.906 38.375C120.626 39.8277 120.987 41.5511 120.987 43.5455ZM118.771 43.5455C118.771 41.9081 118.497 40.5263 117.949 39.3999C117.407 38.2734 116.672 37.4209 115.742 36.8423C114.819 36.2637 113.785 35.9744 112.64 35.9744C111.495 35.9744 110.458 36.2637 109.528 36.8423C108.605 37.4209 107.87 38.2734 107.322 39.3999C106.78 40.5263 106.509 41.9081 106.509 43.5455C106.509 45.1828 106.78 46.5646 107.322 47.6911C107.87 48.8175 108.605 49.67 109.528 50.2486C110.458 50.8272 111.495 51.1165 112.64 51.1165C113.785 51.1165 114.819 50.8272 115.742 50.2486C116.672 49.67 117.407 48.8175 117.949 47.6911C118.497 46.5646 118.771 45.1828 118.771 43.5455ZM109.796 32.2074L108.097 32.1335C108.097 31.1918 108.365 30.4223 108.901 29.8253C109.442 29.2221 110.11 28.9205 110.904 28.9205C111.255 28.9205 111.566 28.982 111.837 29.1051C112.107 29.2221 112.366 29.3575 112.612 29.5114C112.858 29.6652 113.111 29.8037 113.369 29.9268C113.634 30.0438 113.933 30.1023 114.265 30.1023C114.616 30.1023 114.911 29.9669 115.151 29.696C115.397 29.419 115.521 29.0866 115.521 28.6989L117.183 28.8466C117.183 29.8068 116.912 30.5701 116.37 31.1364C115.835 31.7027 115.17 31.9858 114.376 31.9858C113.951 31.9858 113.6 31.9273 113.323 31.8104C113.046 31.6873 112.8 31.5488 112.585 31.3949C112.369 31.241 112.141 31.1056 111.901 30.9886C111.661 30.8655 111.366 30.804 111.015 30.804C110.664 30.804 110.372 30.9425 110.138 31.2195C109.91 31.4903 109.796 31.8196 109.796 32.2074ZM126.866 34.0909V53H124.577V34.0909H126.866ZM144.124 40C143.921 39.3783 143.653 38.8213 143.32 38.3288C142.994 37.8303 142.603 37.4055 142.148 37.0547C141.698 36.7038 141.188 36.4361 140.615 36.2514C140.043 36.0668 139.415 35.9744 138.732 35.9744C137.611 35.9744 136.593 36.2637 135.675 36.8423C134.758 37.4209 134.029 38.2734 133.487 39.3999C132.946 40.5263 132.675 41.9081 132.675 43.5455C132.675 45.1828 132.949 46.5646 133.497 47.6911C134.044 48.8175 134.786 49.67 135.722 50.2486C136.657 50.8272 137.71 51.1165 138.879 51.1165C139.963 51.1165 140.917 50.8857 141.742 50.424C142.573 49.9562 143.219 49.2976 143.68 48.4482C144.148 47.5926 144.382 46.5862 144.382 45.429L145.084 45.5767H139.396V43.5455H146.598V45.5767C146.598 47.134 146.266 48.4882 145.601 49.6392C144.942 50.7902 144.031 51.6828 142.868 52.3168C141.711 52.9446 140.381 53.2585 138.879 53.2585C137.205 53.2585 135.734 52.8646 134.466 52.0767C133.204 51.2888 132.219 50.1686 131.511 48.7159C130.81 47.2633 130.459 45.5398 130.459 43.5455C130.459 42.0497 130.659 40.7048 131.059 39.5107C131.465 38.3104 132.038 37.2886 132.776 36.4453C133.515 35.602 134.389 34.9557 135.399 34.5064C136.408 34.0571 137.519 33.8324 138.732 33.8324C139.729 33.8324 140.658 33.9832 141.52 34.2848C142.388 34.5803 143.16 35.0019 143.837 35.5497C144.521 36.0914 145.09 36.7408 145.546 37.4979C146.001 38.2488 146.315 39.0829 146.487 40H144.124ZM150.26 53V34.0909H161.672V36.1222H152.55V42.5114H161.081V44.5426H152.55V50.9688H161.819V53H150.26ZM165.539 53V34.0909H167.829V43.4716H168.05L176.545 34.0909H179.536L171.596 42.6222L179.536 53H176.766L170.192 44.2102L167.829 46.8693V53H165.539ZM182.24 53V34.0909H193.652V36.1222H184.53V42.5114H193.061V44.5426H184.53V50.9688H193.799V53H182.24ZM197.519 53V34.0909H208.931V36.1222H199.809V42.5114H208.34V44.5426H199.809V50.9688H209.078V53H197.519ZM212.798 53V34.0909H215.088V50.9688H223.877V53H212.798ZM237.504 38.8182C237.393 37.8826 236.944 37.1562 236.156 36.6392C235.368 36.1222 234.402 35.8636 233.257 35.8636C232.42 35.8636 231.687 35.9991 231.059 36.2699C230.438 36.5407 229.951 36.9131 229.6 37.3871C229.256 37.861 229.083 38.3996 229.083 39.0028C229.083 39.5076 229.203 39.9415 229.443 40.3047C229.69 40.6617 230.004 40.9602 230.385 41.2003C230.767 41.4342 231.167 41.6281 231.585 41.782C232.004 41.9297 232.389 42.0497 232.74 42.142L234.66 42.6591C235.152 42.7884 235.7 42.9669 236.304 43.1946C236.913 43.4223 237.495 43.7332 238.049 44.1271C238.609 44.5149 239.07 45.0135 239.433 45.6229C239.797 46.2322 239.978 46.9801 239.978 47.8665C239.978 48.8883 239.71 49.8116 239.175 50.6364C238.646 51.4612 237.87 52.1167 236.848 52.603C235.833 53.0893 234.599 53.3324 233.146 53.3324C231.792 53.3324 230.619 53.1139 229.628 52.6768C228.643 52.2398 227.868 51.6304 227.301 50.8487C226.741 50.067 226.424 49.1591 226.35 48.125H228.714C228.776 48.839 229.016 49.4299 229.434 49.8977C229.859 50.3594 230.394 50.7041 231.041 50.9318C231.693 51.1534 232.395 51.2642 233.146 51.2642C234.02 51.2642 234.805 51.1226 235.5 50.8395C236.196 50.5502 236.747 50.1501 237.153 49.6392C237.559 49.1222 237.762 48.5189 237.762 47.8295C237.762 47.2017 237.587 46.6908 237.236 46.2969C236.885 45.9029 236.424 45.5829 235.851 45.3366C235.279 45.0904 234.66 44.875 233.995 44.6903L231.669 44.0256C230.191 43.6009 229.022 42.9946 228.16 42.2067C227.298 41.4188 226.867 40.3878 226.867 39.1136C226.867 38.0549 227.154 37.1316 227.726 36.3438C228.305 35.5497 229.08 34.9342 230.053 34.4972C231.032 34.054 232.124 33.8324 233.331 33.8324C234.549 33.8324 235.633 34.0509 236.581 34.4879C237.528 34.9188 238.279 35.5097 238.833 36.2607C239.393 37.0116 239.689 37.8641 239.72 38.8182H237.504ZM255.892 34.0909H258.182V46.6108C258.182 47.9034 257.877 49.0575 257.268 50.0732C256.665 51.0826 255.812 51.8797 254.71 52.4645C253.608 53.0431 252.316 53.3324 250.832 53.3324C249.349 53.3324 248.056 53.0431 246.955 52.4645C245.853 51.8797 244.997 51.0826 244.388 50.0732C243.785 49.0575 243.483 47.9034 243.483 46.6108V34.0909H245.773V46.4261C245.773 47.3494 245.976 48.1712 246.382 48.8913C246.788 49.6054 247.367 50.1686 248.118 50.581C248.875 50.9872 249.78 51.1903 250.832 51.1903C251.885 51.1903 252.79 50.9872 253.547 50.581C254.304 50.1686 254.883 49.6054 255.283 48.8913C255.689 48.1712 255.892 47.3494 255.892 46.4261V34.0909ZM272.835 38.8182C272.725 37.8826 272.275 37.1562 271.487 36.6392C270.699 36.1222 269.733 35.8636 268.588 35.8636C267.751 35.8636 267.019 35.9991 266.391 36.2699C265.769 36.5407 265.283 36.9131 264.932 37.3871C264.587 37.861 264.415 38.3996 264.415 39.0028C264.415 39.5076 264.535 39.9415 264.775 40.3047C265.021 40.6617 265.335 40.9602 265.717 41.2003C266.098 41.4342 266.498 41.6281 266.917 41.782C267.336 41.9297 267.72 42.0497 268.071 42.142L269.992 42.6591C270.484 42.7884 271.032 42.9669 271.635 43.1946C272.244 43.4223 272.826 43.7332 273.38 44.1271C273.94 44.5149 274.402 45.0135 274.765 45.6229C275.128 46.2322 275.31 46.9801 275.31 47.8665C275.31 48.8883 275.042 49.8116 274.507 50.6364C273.977 51.4612 273.202 52.1167 272.18 52.603C271.164 53.0893 269.93 53.3324 268.477 53.3324C267.123 53.3324 265.951 53.1139 264.96 52.6768C263.975 52.2398 263.199 51.6304 262.633 50.8487C262.073 50.067 261.756 49.1591 261.682 48.125H264.046C264.107 48.839 264.347 49.4299 264.766 49.8977C265.19 50.3594 265.726 50.7041 266.372 50.9318C267.025 51.1534 267.726 51.2642 268.477 51.2642C269.351 51.2642 270.136 51.1226 270.832 50.8395C271.527 50.5502 272.078 50.1501 272.485 49.6392C272.891 49.1222 273.094 48.5189 273.094 47.8295C273.094 47.2017 272.918 46.6908 272.568 46.2969C272.217 45.9029 271.755 45.5829 271.183 45.3366C270.61 45.0904 269.992 44.875 269.327 44.6903L267 44.0256C265.523 43.6009 264.353 42.9946 263.492 42.2067C262.63 41.4188 262.199 40.3878 262.199 39.1136C262.199 38.0549 262.485 37.1316 263.058 36.3438C263.636 35.5497 264.412 34.9342 265.384 34.4972C266.363 34.054 267.456 33.8324 268.662 33.8324C269.881 33.8324 270.964 34.0509 271.912 34.4879C272.86 34.9188 273.611 35.5097 274.165 36.2607C274.725 37.0116 275.02 37.8641 275.051 38.8182H272.835ZM289.155 38.8182C289.045 37.8826 288.595 37.1562 287.807 36.6392C287.02 36.1222 286.053 35.8636 284.908 35.8636C284.071 35.8636 283.339 35.9991 282.711 36.2699C282.089 36.5407 281.603 36.9131 281.252 37.3871C280.907 37.861 280.735 38.3996 280.735 39.0028C280.735 39.5076 280.855 39.9415 281.095 40.3047C281.341 40.6617 281.655 40.9602 282.037 41.2003C282.418 41.4342 282.819 41.6281 283.237 41.782C283.656 41.9297 284.04 42.0497 284.391 42.142L286.312 42.6591C286.804 42.7884 287.352 42.9669 287.955 43.1946C288.565 43.4223 289.146 43.7332 289.7 44.1271C290.26 44.5149 290.722 45.0135 291.085 45.6229C291.448 46.2322 291.63 46.9801 291.63 47.8665C291.63 48.8883 291.362 49.8116 290.827 50.6364C290.297 51.4612 289.522 52.1167 288.5 52.603C287.484 53.0893 286.25 53.3324 284.797 53.3324C283.443 53.3324 282.271 53.1139 281.28 52.6768C280.295 52.2398 279.519 51.6304 278.953 50.8487C278.393 50.067 278.076 49.1591 278.002 48.125H280.366C280.427 48.839 280.667 49.4299 281.086 49.8977C281.511 50.3594 282.046 50.7041 282.692 50.9318C283.345 51.1534 284.047 51.2642 284.797 51.2642C285.672 51.2642 286.456 51.1226 287.152 50.8395C287.847 50.5502 288.398 50.1501 288.805 49.6392C289.211 49.1222 289.414 48.5189 289.414 47.8295C289.414 47.2017 289.239 46.6908 288.888 46.2969C288.537 45.9029 288.075 45.5829 287.503 45.3366C286.93 45.0904 286.312 44.875 285.647 44.6903L283.32 44.0256C281.843 43.6009 280.673 42.9946 279.812 42.2067C278.95 41.4188 278.519 40.3878 278.519 39.1136C278.519 38.0549 278.805 37.1316 279.378 36.3438C279.956 35.5497 280.732 34.9342 281.704 34.4972C282.683 34.054 283.776 33.8324 284.982 33.8324C286.201 33.8324 287.284 34.0509 288.232 34.4879C289.18 34.9188 289.931 35.5097 290.485 36.2607C291.045 37.0116 291.341 37.8641 291.371 38.8182H289.155ZM311.089 43.5455C311.089 45.5398 310.729 47.2633 310.009 48.7159C309.289 50.1686 308.301 51.2888 307.045 52.0767C305.789 52.8646 304.355 53.2585 302.743 53.2585C301.13 53.2585 299.696 52.8646 298.44 52.0767C297.184 51.2888 296.196 50.1686 295.476 48.7159C294.756 47.2633 294.396 45.5398 294.396 43.5455C294.396 41.5511 294.756 39.8277 295.476 38.375C296.196 36.9223 297.184 35.8021 298.44 35.0142C299.696 34.2263 301.13 33.8324 302.743 33.8324C304.355 33.8324 305.789 34.2263 307.045 35.0142C308.301 35.8021 309.289 36.9223 310.009 38.375C310.729 39.8277 311.089 41.5511 311.089 43.5455ZM308.873 43.5455C308.873 41.9081 308.599 40.5263 308.052 39.3999C307.51 38.2734 306.774 37.4209 305.845 36.8423C304.922 36.2637 303.887 35.9744 302.743 35.9744C301.598 35.9744 300.561 36.2637 299.631 36.8423C298.708 37.4209 297.972 38.2734 297.424 39.3999C296.883 40.5263 296.612 41.9081 296.612 43.5455C296.612 45.1828 296.883 46.5646 297.424 47.6911C297.972 48.8175 298.708 49.67 299.631 50.2486C300.561 50.8272 301.598 51.1165 302.743 51.1165C303.887 51.1165 304.922 50.8272 305.845 50.2486C306.774 49.67 307.51 48.8175 308.052 47.6911C308.599 46.5646 308.873 45.1828 308.873 43.5455ZM299.899 32.2074L298.2 32.1335C298.2 31.1918 298.468 30.4223 299.003 29.8253C299.545 29.2221 300.213 28.9205 301.007 28.9205C301.358 28.9205 301.668 28.982 301.939 29.1051C302.21 29.2221 302.469 29.3575 302.715 29.5114C302.961 29.6652 303.213 29.8037 303.472 29.9268C303.737 30.0438 304.035 30.1023 304.368 30.1023C304.718 30.1023 305.014 29.9669 305.254 29.696C305.5 29.419 305.623 29.0866 305.623 28.6989L307.285 28.8466C307.285 29.8068 307.014 30.5701 306.473 31.1364C305.937 31.7027 305.272 31.9858 304.478 31.9858C304.054 31.9858 303.703 31.9273 303.426 31.8104C303.149 31.6873 302.903 31.5488 302.687 31.3949C302.472 31.241 302.244 31.1056 302.004 30.9886C301.764 30.8655 301.468 30.804 301.118 30.804C300.767 30.804 300.474 30.9425 300.24 31.2195C300.013 31.4903 299.899 31.8196 299.899 32.2074ZM329.674 34.0909V53H327.458L317.154 38.1534H316.969V53H314.679V34.0909H316.895L327.236 48.9744H327.421V34.0909H329.674ZM334.771 53H332.37L339.314 34.0909H341.677L348.62 53H346.22L340.569 37.0824H340.422L334.771 53ZM335.657 45.6136H345.334V47.6449H335.657V45.6136ZM351.306 53V34.0909H357.695C359.172 34.0909 360.385 34.3433 361.333 34.848C362.281 35.3466 362.982 36.0329 363.438 36.907C363.893 37.781 364.121 38.7751 364.121 39.8892C364.121 41.0033 363.893 41.9912 363.438 42.853C362.982 43.7147 362.284 44.3918 361.342 44.8842C360.4 45.3705 359.197 45.6136 357.732 45.6136H352.561V43.5455H357.658C358.668 43.5455 359.48 43.3977 360.096 43.1023C360.717 42.8068 361.167 42.3883 361.444 41.8466C361.727 41.2988 361.868 40.6463 361.868 39.8892C361.868 39.1321 361.727 38.4704 361.444 37.9041C361.16 37.3378 360.708 36.9008 360.086 36.593C359.465 36.2791 358.643 36.1222 357.621 36.1222H353.596V53H351.306ZM360.206 44.5057L364.86 53H362.201L357.621 44.5057H360.206ZM368.452 53H366.052L372.995 34.0909H375.358L382.302 53H379.901L374.251 37.0824H374.103L368.452 53ZM369.339 45.6136H379.015V47.6449H369.339V45.6136ZM385.763 53H383.362L390.305 34.0909H392.669L399.612 53H397.211L391.561 37.0824H391.413L385.763 53ZM386.649 45.6136H396.325V47.6449H386.649V45.6136ZM402.297 34.0909H405.03L411.456 49.7869H411.678L418.104 34.0909H420.837V53H418.695V38.6335H418.51L412.601 53H410.533L404.624 38.6335H404.439V53H402.297V34.0909ZM425.944 53H423.543L430.486 34.0909H432.85L439.793 53H437.393L431.742 37.0824H431.594L425.944 53ZM426.83 45.6136H436.506V47.6449H426.83V45.6136ZM439.235 36.1222V34.0909H453.417V36.1222H447.471V53H445.181V36.1222H439.235ZM120.987 74.5455C120.987 76.5398 120.626 78.2633 119.906 79.7159C119.186 81.1686 118.198 82.2888 116.942 83.0767C115.687 83.8646 114.253 84.2585 112.64 84.2585C111.027 84.2585 109.593 83.8646 108.337 83.0767C107.082 82.2888 106.094 81.1686 105.374 79.7159C104.653 78.2633 104.293 76.5398 104.293 74.5455C104.293 72.5511 104.653 70.8277 105.374 69.375C106.094 67.9223 107.082 66.8021 108.337 66.0142C109.593 65.2263 111.027 64.8324 112.64 64.8324C114.253 64.8324 115.687 65.2263 116.942 66.0142C118.198 66.8021 119.186 67.9223 119.906 69.375C120.626 70.8277 120.987 72.5511 120.987 74.5455ZM118.771 74.5455C118.771 72.9081 118.497 71.5263 117.949 70.3999C117.407 69.2734 116.672 68.4209 115.742 67.8423C114.819 67.2637 113.785 66.9744 112.64 66.9744C111.495 66.9744 110.458 67.2637 109.528 67.8423C108.605 68.4209 107.87 69.2734 107.322 70.3999C106.78 71.5263 106.509 72.9081 106.509 74.5455C106.509 76.1828 106.78 77.5646 107.322 78.6911C107.87 79.8175 108.605 80.67 109.528 81.2486C110.458 81.8272 111.495 82.1165 112.64 82.1165C113.785 82.1165 114.819 81.8272 115.742 81.2486C116.672 80.67 117.407 79.8175 117.949 78.6911C118.497 77.5646 118.771 76.1828 118.771 74.5455ZM109.796 63.2074L108.097 63.1335C108.097 62.1918 108.365 61.4223 108.901 60.8253C109.442 60.2221 110.11 59.9205 110.904 59.9205C111.255 59.9205 111.566 59.982 111.837 60.1051C112.107 60.2221 112.366 60.3575 112.612 60.5114C112.858 60.6652 113.111 60.8037 113.369 60.9268C113.634 61.0438 113.933 61.1023 114.265 61.1023C114.616 61.1023 114.911 60.9669 115.151 60.696C115.397 60.419 115.521 60.0866 115.521 59.6989L117.183 59.8466C117.183 60.8068 116.912 61.5701 116.37 62.1364C115.835 62.7027 115.17 62.9858 114.376 62.9858C113.951 62.9858 113.6 62.9273 113.323 62.8104C113.046 62.6873 112.8 62.5488 112.585 62.3949C112.369 62.241 112.141 62.1056 111.901 61.9886C111.661 61.8655 111.366 61.804 111.015 61.804C110.664 61.804 110.372 61.9425 110.138 62.2195C109.91 62.4903 109.796 62.8196 109.796 63.2074ZM134.918 69.8182C134.807 68.8826 134.357 68.1562 133.57 67.6392C132.782 67.1222 131.815 66.8636 130.67 66.8636C129.833 66.8636 129.101 66.9991 128.473 67.2699C127.851 67.5407 127.365 67.9131 127.014 68.3871C126.669 68.861 126.497 69.3996 126.497 70.0028C126.497 70.5076 126.617 70.9415 126.857 71.3047C127.103 71.6617 127.417 71.9602 127.799 72.2003C128.181 72.4342 128.581 72.6281 128.999 72.782C129.418 72.9297 129.802 73.0497 130.153 73.142L132.074 73.6591C132.566 73.7884 133.114 73.9669 133.717 74.1946C134.327 74.4223 134.908 74.7332 135.462 75.1271C136.022 75.5149 136.484 76.0135 136.847 76.6229C137.21 77.2322 137.392 77.9801 137.392 78.8665C137.392 79.8883 137.124 80.8116 136.589 81.6364C136.059 82.4612 135.284 83.1167 134.262 83.603C133.246 84.0893 132.012 84.3324 130.56 84.3324C129.205 84.3324 128.033 84.1139 127.042 83.6768C126.057 83.2398 125.281 82.6304 124.715 81.8487C124.155 81.067 123.838 80.1591 123.764 79.125H126.128C126.189 79.839 126.429 80.4299 126.848 80.8977C127.273 81.3594 127.808 81.7041 128.454 81.9318C129.107 82.1534 129.809 82.2642 130.56 82.2642C131.434 82.2642 132.218 82.1226 132.914 81.8395C133.61 81.5502 134.16 81.1501 134.567 80.6392C134.973 80.1222 135.176 79.5189 135.176 78.8295C135.176 78.2017 135.001 77.6908 134.65 77.2969C134.299 76.9029 133.837 76.5829 133.265 76.3366C132.692 76.0904 132.074 75.875 131.409 75.6903L129.082 75.0256C127.605 74.6009 126.436 73.9946 125.574 73.2067C124.712 72.4188 124.281 71.3878 124.281 70.1136C124.281 69.0549 124.567 68.1316 125.14 67.3438C125.718 66.5497 126.494 65.9342 127.467 65.4972C128.445 65.054 129.538 64.8324 130.744 64.8324C131.963 64.8324 133.046 65.0509 133.994 65.4879C134.942 65.9188 135.693 66.5097 136.247 67.2607C136.807 68.0116 137.103 68.8641 137.133 69.8182H134.918ZM147.617 84V82.3381L153.858 75.5057C154.591 74.7055 155.194 74.0099 155.668 73.419C156.142 72.822 156.493 72.2618 156.721 71.7386C156.954 71.2093 157.071 70.6553 157.071 70.0767C157.071 69.4119 156.911 68.8364 156.591 68.3501C156.277 67.8639 155.846 67.4884 155.299 67.2237C154.751 66.959 154.135 66.8267 153.452 66.8267C152.726 66.8267 152.092 66.9775 151.55 67.2791C151.015 67.5746 150.599 67.9901 150.304 68.5256C150.014 69.0611 149.87 69.6889 149.87 70.4091H147.691C147.691 69.3011 147.946 68.3286 148.457 67.4915C148.968 66.6544 149.663 66.0019 150.544 65.5341C151.43 65.0663 152.424 64.8324 153.526 64.8324C154.634 64.8324 155.616 65.0663 156.471 65.5341C157.327 66.0019 157.998 66.6328 158.484 67.4268C158.97 68.2209 159.213 69.1042 159.213 70.0767C159.213 70.7723 159.087 71.4524 158.835 72.1172C158.589 72.7758 158.158 73.5114 157.542 74.3239C156.933 75.1302 156.087 76.1151 155.003 77.2784L150.756 81.821V81.9688H159.546V84H147.617ZM169.267 84.2585C167.876 84.2585 166.691 83.88 165.712 83.1229C164.733 82.3596 163.985 81.2547 163.468 79.8082C162.951 78.3556 162.693 76.6013 162.693 74.5455C162.693 72.5019 162.951 70.7569 163.468 69.3104C163.992 67.8577 164.742 66.7498 165.721 65.9865C166.706 65.2171 167.888 64.8324 169.267 64.8324C170.645 64.8324 171.824 65.2171 172.803 65.9865C173.788 66.7498 174.539 67.8577 175.056 69.3104C175.579 70.7569 175.841 72.5019 175.841 74.5455C175.841 76.6013 175.582 78.3556 175.065 79.8082C174.548 81.2547 173.8 82.3596 172.821 83.1229C171.843 83.88 170.658 84.2585 169.267 84.2585ZM169.267 82.2273C170.645 82.2273 171.716 81.5625 172.48 80.233C173.243 78.9034 173.625 77.0076 173.625 74.5455C173.625 72.9081 173.449 71.514 173.098 70.3629C172.754 69.2119 172.255 68.3348 171.603 67.7315C170.956 67.1283 170.178 66.8267 169.267 66.8267C167.9 66.8267 166.832 67.5007 166.063 68.8487C165.293 70.1906 164.909 72.0895 164.909 74.5455C164.909 76.1828 165.081 77.5739 165.426 78.7188C165.77 79.8636 166.266 80.7346 166.912 81.3317C167.565 81.9287 168.349 82.2273 169.267 82.2273ZM179.089 84V82.3381L185.331 75.5057C186.063 74.7055 186.666 74.0099 187.14 73.419C187.614 72.822 187.965 72.2618 188.193 71.7386C188.427 71.2093 188.544 70.6553 188.544 70.0767C188.544 69.4119 188.384 68.8364 188.063 68.3501C187.75 67.8639 187.319 67.4884 186.771 67.2237C186.223 66.959 185.607 66.8267 184.924 66.8267C184.198 66.8267 183.564 66.9775 183.022 67.2791C182.487 67.5746 182.071 67.9901 181.776 68.5256C181.487 69.0611 181.342 69.6889 181.342 70.4091H179.163C179.163 69.3011 179.418 68.3286 179.929 67.4915C180.44 66.6544 181.136 66.0019 182.016 65.5341C182.902 65.0663 183.896 64.8324 184.998 64.8324C186.106 64.8324 187.088 65.0663 187.943 65.5341C188.799 66.0019 189.47 66.6328 189.956 67.4268C190.442 68.2209 190.686 69.1042 190.686 70.0767C190.686 70.7723 190.559 71.4524 190.307 72.1172C190.061 72.7758 189.63 73.5114 189.014 74.3239C188.405 75.1302 187.559 76.1151 186.475 77.2784L182.228 81.821V81.9688H191.018V84H179.089ZM200.48 84.2585C199.397 84.2585 198.421 84.0431 197.553 83.6122C196.686 83.1813 195.99 82.5904 195.467 81.8395C194.944 81.0885 194.657 80.233 194.608 79.2727H196.824C196.91 80.1283 197.298 80.8362 197.987 81.3963C198.683 81.9503 199.514 82.2273 200.48 82.2273C201.256 82.2273 201.945 82.0457 202.548 81.6825C203.158 81.3194 203.635 80.8208 203.98 80.1868C204.33 79.5466 204.506 78.8234 204.506 78.017C204.506 77.1922 204.324 76.4567 203.961 75.8104C203.604 75.1579 203.112 74.6439 202.484 74.2685C201.856 73.893 201.139 73.7022 200.333 73.696C199.754 73.6899 199.16 73.7791 198.551 73.9638C197.941 74.1423 197.44 74.3731 197.046 74.6562L194.904 74.3977L196.048 65.0909H205.872V67.1222H197.969L197.304 72.6989H197.415C197.803 72.3911 198.289 72.1357 198.874 71.9325C199.459 71.7294 200.068 71.6278 200.702 71.6278C201.859 71.6278 202.89 71.9048 203.795 72.4588C204.706 73.0066 205.42 73.7576 205.937 74.7116C206.46 75.6657 206.722 76.7552 206.722 77.9801C206.722 79.1866 206.451 80.2637 205.909 81.2116C205.374 82.1534 204.635 82.8982 203.693 83.446C202.752 83.9877 201.681 84.2585 200.48 84.2585Z" fill="#173148"/>
<circle cx="44" cy="45.6211" r="44" transform="rotate(-90 44 45.6211)" fill="#173348"/>
<path d="M27.2265 37.3238C34.4798 35.7086 40.9929 38.1614 47.4172 41.1226C49.7856 42.1994 52.2132 43.0669 54.8185 43.2164C57.9566 43.3959 59.6441 42.1097 60.4435 39.0288C60.7691 37.7426 61.3316 37.1743 62.7527 37.264C65.5356 37.3837 68.3481 37.2939 71.1606 37.2939C71.9007 37.2939 72.7 37.2939 72.5816 38.3408C71.9599 42.9771 71.1901 47.5835 67.8744 51.2028C64.1441 55.3007 59.3777 55.9588 54.2264 55.3605C48.5422 54.7025 43.4205 52.0703 38.062 50.3653C37.2034 50.0961 36.3449 49.797 35.4567 49.5876C31.4304 48.6005 29.2101 49.9764 28.6179 54.0444C28.4699 55.0614 28.2035 55.1512 27.4041 55.1212C24.266 55.0913 21.0982 55.0614 17.9601 55.1212C16.4502 55.1512 16.2134 54.5529 16.4502 53.2069C17.368 47.7331 19.1443 42.7079 23.5259 38.9989C24.4436 37.7426 25.8647 37.593 27.2265 37.3238Z" fill="white"/>
</svg>
