<svg width="58" height="58" viewBox="0 0 58 58" fill="none" xmlns="http://www.w3.org/2000/svg">
<mask id="mask0_6038_89661" style="mask-type:luminance" maskUnits="userSpaceOnUse" x="22" y="23" width="36" height="35">
<path d="M22.543 23.4018H58V58H22.543V23.4018Z" fill="white"/>
</mask>
<g mask="url(#mask0_6038_89661)">
<path d="M29.2732 24.3954H49.9723C52.719 24.3954 54.9422 26.5976 54.9422 29.2967C54.9422 31.9957 52.7038 34.1979 49.9723 34.1979H46.96C45.9736 34.1979 45.1769 34.7318 44.7899 35.6216C44.4257 36.5188 44.6154 37.4531 45.2983 38.1279L56.6797 49.3244C57.6206 50.2513 58.1365 51.4822 58.1365 52.7872C58.1365 54.0997 57.6206 55.3231 56.6797 56.25C55.7389 57.1769 54.4945 57.6885 53.1591 57.6885C51.8312 57.6885 50.5793 57.1769 49.6384 56.25L38.2494 45.0683C37.5589 44.3861 36.6029 44.2007 35.7075 44.564C34.797 44.9274 34.2583 45.7282 34.2583 46.6996V49.6581C34.2583 52.3646 32.0199 54.5594 29.2732 54.5594C26.5265 54.5594 24.2957 52.3497 24.2957 49.6581V29.3041C24.2957 26.5976 26.5341 24.3954 29.2732 24.3954Z" fill="white"/>
</g>
<path d="M18.8781 42.3617C19.5079 42.7176 19.7203 43.5185 19.3637 44.1413C19.1209 44.5566 18.6732 44.7938 18.2255 44.7938C17.9979 44.7938 17.7703 44.7419 17.5654 44.6159C11.2905 41.0641 7.39041 34.4203 7.39041 27.2945C7.39041 16.2685 16.5183 7.28159 27.7329 7.28159C34.979 7.28159 41.7169 11.1225 45.3286 17.2992C45.6928 17.922 45.4803 18.708 44.843 19.0714C44.2132 19.4273 43.4089 19.2197 43.0371 18.5968C39.8882 13.221 34.0306 9.89166 27.7177 9.89166C17.96 9.89166 10.0233 17.6996 10.0233 27.3094C10.0309 33.4934 13.4226 39.2623 18.8781 42.3617Z" fill="white"/>
<path d="M27.7328 0C39.1218 0 49.5169 7.01455 53.6066 17.4622C53.8646 18.1296 53.5307 18.8859 52.8403 19.1454C52.1574 19.4049 51.3986 19.0713 51.133 18.3965C47.4303 8.94985 38.0292 2.59523 27.7328 2.59523C13.893 2.59523 2.6405 13.6658 2.6405 27.287C2.6405 37.4233 9.08998 46.6845 18.6959 50.3179C19.3712 50.5774 19.7203 51.3263 19.4547 52.0011C19.2574 52.5201 18.7642 52.8315 18.2255 52.8315C18.0661 52.8315 17.9068 52.8019 17.7475 52.75C7.12478 48.7236 0 38.491 0 27.287C0 12.2421 12.4437 0 27.7328 0Z" fill="white"/>
</svg>
