<svg width="253" height="39" viewBox="0 0 253 39" fill="none" xmlns="http://www.w3.org/2000/svg">
<path d="M53 36.5H59.2244V35.4062H54.233V31.946H58.8267V30.8523H54.233V27.4119H59.1449V26.3182H53V36.5ZM64.4098 36.6591C65.9609 36.6591 67.0944 35.8835 67.4524 34.7301L66.3188 34.4119C66.0206 35.2074 65.3295 35.6051 64.4098 35.6051C63.0326 35.6051 62.0831 34.7152 62.0284 33.0795H67.5717V32.5824C67.5717 29.7386 65.8813 28.7642 64.2904 28.7642C62.2223 28.7642 60.8501 30.3949 60.8501 32.7415C60.8501 35.0881 62.2024 36.6591 64.4098 36.6591ZM62.0284 32.0653C62.108 30.8771 62.9481 29.8182 64.2904 29.8182C65.5632 29.8182 66.3785 30.7727 66.3785 32.0653H62.0284ZM74.7656 30.5739C74.3977 29.4901 73.5724 28.7642 72.061 28.7642C70.4502 28.7642 69.2571 29.679 69.2571 30.9716C69.2571 32.0256 69.8835 32.7315 71.2855 33.0597L72.5582 33.358C73.3288 33.5369 73.6917 33.9048 73.6917 34.4318C73.6917 35.0881 72.9957 35.625 71.9019 35.625C70.9424 35.625 70.3409 35.2124 70.1321 34.392L69.0184 34.6705C69.2919 35.968 70.3607 36.6591 71.9218 36.6591C73.6967 36.6591 74.9048 35.6896 74.9048 34.3722C74.9048 33.3082 74.2386 32.6371 72.8764 32.304L71.7429 32.0256C70.838 31.8018 70.4304 31.4986 70.4304 30.9119C70.4304 30.2557 71.1264 29.7784 72.061 29.7784C73.0852 29.7784 73.5078 30.3452 73.7116 30.8722L74.7656 30.5739ZM79.992 28.8636H78.3613V27.0341H77.188V28.8636H76.0346V29.858H77.188V34.6307C77.188 35.9631 78.2619 36.5994 79.2562 36.5994C79.6937 36.5994 79.9721 36.5199 80.1312 36.4602L79.8925 35.4062C79.7931 35.4261 79.634 35.4659 79.3755 35.4659C78.8584 35.4659 78.3613 35.3068 78.3613 34.3125V29.858H79.992V28.8636ZM81.7569 36.5H82.9302V28.8636H81.7569V36.5ZM82.3535 27.5909C82.8109 27.5909 83.1887 27.2329 83.1887 26.7954C83.1887 26.358 82.8109 26 82.3535 26C81.8961 26 81.5182 26.358 81.5182 26.7954C81.5182 27.2329 81.8961 27.5909 82.3535 27.5909ZM89.1757 36.5H90.4087V33.1989L91.6814 31.767L95.2212 36.5H96.7127L92.4371 30.9119L96.7127 26.3182H95.1019L90.528 31.3693H90.4087V26.3182H89.1757V36.5ZM100.791 36.6591C102.342 36.6591 103.475 35.8835 103.833 34.7301L102.7 34.4119C102.401 35.2074 101.71 35.6051 100.791 35.6051C99.4135 35.6051 98.4639 34.7152 98.4092 33.0795H103.953V32.5824C103.953 29.7386 102.262 28.7642 100.671 28.7642C98.6031 28.7642 97.231 30.3949 97.231 32.7415C97.231 35.0881 98.5832 36.6591 100.791 36.6591ZM98.4092 32.0653C98.4888 30.8771 99.329 29.8182 100.671 29.8182C101.944 29.8182 102.759 30.7727 102.759 32.0653H98.4092ZM108.939 36.6591C110.49 36.6591 111.624 35.8835 111.982 34.7301L110.848 34.4119C110.55 35.2074 109.859 35.6051 108.939 35.6051C107.562 35.6051 106.612 34.7152 106.558 33.0795H112.101V32.5824C112.101 29.7386 110.411 28.7642 108.82 28.7642C106.752 28.7642 105.379 30.3949 105.379 32.7415C105.379 35.0881 106.732 36.6591 108.939 36.6591ZM106.558 32.0653C106.637 30.8771 107.477 29.8182 108.82 29.8182C110.093 29.8182 110.908 30.7727 110.908 32.0653H106.558ZM115.059 26.3182H113.886V36.5H115.059V26.3182ZM120.41 36.6591C121.961 36.6591 123.094 35.8835 123.452 34.7301L122.319 34.4119C122.021 35.2074 121.33 35.6051 120.41 35.6051C119.033 35.6051 118.083 34.7152 118.028 33.0795H123.572V32.5824C123.572 29.7386 121.881 28.7642 120.29 28.7642C118.222 28.7642 116.85 30.3949 116.85 32.7415C116.85 35.0881 118.202 36.6591 120.41 36.6591ZM118.028 32.0653C118.108 30.8771 118.948 29.8182 120.29 29.8182C121.563 29.8182 122.379 30.7727 122.379 32.0653H118.028ZM130.686 26.3182H129.453V36.5H130.686V26.3182ZM134.172 31.9062C134.172 30.5739 134.998 29.8182 136.121 29.8182C137.21 29.8182 137.871 30.5291 137.871 31.7273V36.5H139.045V31.6477C139.045 29.6989 138.006 28.7642 136.459 28.7642C135.306 28.7642 134.59 29.2812 134.232 30.0568H134.133V28.8636H132.999V36.5H134.172V31.9062ZM146.598 30.5739C146.23 29.4901 145.404 28.7642 143.893 28.7642C142.282 28.7642 141.089 29.679 141.089 30.9716C141.089 32.0256 141.716 32.7315 143.118 33.0597L144.39 33.358C145.161 33.5369 145.524 33.9048 145.524 34.4318C145.524 35.0881 144.828 35.625 143.734 35.625C142.775 35.625 142.173 35.2124 141.964 34.392L140.851 34.6705C141.124 35.968 142.193 36.6591 143.754 36.6591C145.529 36.6591 146.737 35.6896 146.737 34.3722C146.737 33.3082 146.071 32.6371 144.708 32.304L143.575 32.0256C142.67 31.8018 142.262 31.4986 142.262 30.9119C142.262 30.2557 142.958 29.7784 143.893 29.7784C144.917 29.7784 145.34 30.3452 145.544 30.8722L146.598 30.5739ZM151.824 28.8636H150.193V27.0341H149.02V28.8636H147.867V29.858H149.02V34.6307C149.02 35.9631 150.094 36.5994 151.088 36.5994C151.526 36.5994 151.804 36.5199 151.963 36.4602L151.725 35.4062C151.625 35.4261 151.466 35.4659 151.208 35.4659C150.691 35.4659 150.193 35.3068 150.193 34.3125V29.858H151.824V28.8636ZM153.589 36.5H154.763V28.8636H153.589V36.5ZM154.186 27.5909C154.643 27.5909 155.021 27.2329 155.021 26.7954C155.021 26.358 154.643 26 154.186 26C153.729 26 153.351 26.358 153.351 26.7954C153.351 27.2329 153.729 27.5909 154.186 27.5909ZM160.233 28.8636H158.602V27.0341H157.429V28.8636H156.275V29.858H157.429V34.6307C157.429 35.9631 158.503 36.5994 159.497 36.5994C159.934 36.5994 160.213 36.5199 160.372 36.4602L160.133 35.4062C160.034 35.4261 159.875 35.4659 159.616 35.4659C159.099 35.4659 158.602 35.3068 158.602 34.3125V29.858H160.233V28.8636ZM166.81 33.3778C166.81 34.8097 165.716 35.4659 164.841 35.4659C163.867 35.4659 163.171 34.75 163.171 33.6364V28.8636H161.998V33.7159C161.998 35.6648 163.032 36.5994 164.464 36.5994C165.617 36.5994 166.373 35.983 166.731 35.2074H166.81V36.5H167.983V28.8636H166.81V33.3778ZM174.945 33.3778C174.945 34.8097 173.851 35.4659 172.976 35.4659C172.002 35.4659 171.306 34.75 171.306 33.6364V28.8636H170.132V33.7159C170.132 35.6648 171.166 36.5994 172.598 36.5994C173.752 36.5994 174.507 35.983 174.865 35.2074H174.945V36.5H176.118V28.8636H174.945V33.3778ZM181.588 28.8636H179.957V27.0341H178.784V28.8636H177.631V29.858H178.784V34.6307C178.784 35.9631 179.858 36.5994 180.852 36.5994C181.29 36.5994 181.568 36.5199 181.727 36.4602L181.489 35.4062C181.389 35.4261 181.23 35.4659 180.972 35.4659C180.455 35.4659 179.957 35.3068 179.957 34.3125V29.858H181.588V28.8636Z" fill="white"/>
<path d="M52.2637 17.7972H55.4231V13.5506L56.9773 11.6534L61.0707 17.7972H64.8503L59.2392 9.5447L64.7846 2.85371H60.9977L55.6201 9.44254H55.4231V2.85371H52.2637V17.7972ZM69.6293 18.0161C72.4019 18.0161 74.2699 16.6661 74.7076 14.5867L71.8328 14.3969C71.519 15.2506 70.7164 15.6957 69.6803 15.6957C68.1261 15.6957 67.1411 14.6669 67.1411 12.996V12.9887H74.7734V12.135C74.7734 8.32616 72.4676 6.44363 69.5052 6.44363C66.2071 6.44363 64.0692 8.78584 64.0692 12.2445C64.0692 15.7979 66.178 18.0161 69.6293 18.0161ZM67.1411 11.0624C67.2068 9.78548 68.1772 8.76396 69.5562 8.76396C70.9062 8.76396 71.8401 9.72711 71.8474 11.0624H67.1411ZM80.8821 18.0161C83.6547 18.0161 85.5227 16.6661 85.9605 14.5867L83.0857 14.3969C82.7719 15.2506 81.9692 15.6957 80.9331 15.6957C79.379 15.6957 78.3939 14.6669 78.3939 12.996V12.9887H86.0262V12.135C86.0262 8.32616 83.7205 6.44363 80.758 6.44363C77.4599 6.44363 75.3221 8.78584 75.3221 12.2445C75.3221 15.7979 77.4308 18.0161 80.8821 18.0161ZM78.3939 11.0624C78.4596 9.78548 79.43 8.76396 80.8091 8.76396C82.159 8.76396 83.093 9.72711 83.1003 11.0624H78.3939ZM90.1356 2.85371H87.0273V17.7972H90.1356V2.85371ZM96.7058 18.0161C99.4786 18.0161 101.347 16.6661 101.784 14.5867L98.9094 14.3969C98.5957 15.2506 97.7931 15.6957 96.7569 15.6957C95.2028 15.6957 94.2178 14.6669 94.2178 12.996V12.9887H101.85V12.135C101.85 8.32616 99.5442 6.44363 96.5818 6.44363C93.2838 6.44363 91.1459 8.78584 91.1459 12.2445C91.1459 15.7979 93.2546 18.0161 96.7058 18.0161ZM94.2178 11.0624C94.2834 9.78548 95.2539 8.76396 96.6329 8.76396C97.9827 8.76396 98.9167 9.72711 98.924 11.0624H94.2178ZM107.915 18.0161C111.315 18.0161 113.431 15.6884 113.431 12.2372C113.431 8.76396 111.315 6.44363 107.915 6.44363C104.515 6.44363 102.399 8.76396 102.399 12.2372C102.399 15.6884 104.515 18.0161 107.915 18.0161ZM107.929 15.6082C106.361 15.6082 105.558 14.1708 105.558 12.2153C105.558 10.2598 106.361 8.81503 107.929 8.81503C109.469 8.81503 110.272 10.2598 110.272 12.2153C110.272 14.1708 109.469 15.6082 107.929 15.6082ZM105.828 5.21051C105.828 4.53193 106.164 4.10142 106.667 4.10142C107.054 4.10142 107.346 4.31303 107.667 4.55382C108.075 4.85298 108.542 5.20322 109.36 5.19592C110.68 5.18862 111.716 4.15979 111.731 2.31375L110.031 2.26268C110.024 2.93397 109.724 3.38636 109.163 3.39365C108.798 3.39365 108.491 3.18205 108.156 2.94126C107.718 2.6421 107.229 2.29186 106.47 2.29916C105.142 2.30646 104.099 3.33528 104.099 5.18862L105.828 5.21051ZM114.425 22H117.533V16.0022H117.628C118.059 16.9361 119 17.9796 120.81 17.9796C123.363 17.9796 125.355 15.9584 125.355 12.208C125.355 8.35535 123.276 6.44363 120.817 6.44363C118.942 6.44363 118.044 7.56002 117.628 8.4721H117.489V6.58957H114.425V22ZM117.468 12.1934C117.468 10.1941 118.314 8.91718 119.824 8.91718C121.364 8.91718 122.181 10.2525 122.181 12.1934C122.181 14.1489 121.349 15.506 119.824 15.506C118.329 15.506 117.468 14.1927 117.468 12.1934ZM126.4 22H129.508V16.0022H129.603C130.034 16.9361 130.975 17.9796 132.785 17.9796C135.338 17.9796 137.33 15.9584 137.33 12.208C137.33 8.35535 135.251 6.44363 132.792 6.44363C130.917 6.44363 130.019 7.56002 129.603 8.4721H129.465V6.58957H126.4V22ZM129.443 12.1934C129.443 10.1941 130.289 8.91718 131.8 8.91718C133.339 8.91718 134.156 10.2525 134.156 12.1934C134.156 14.1489 133.325 15.506 131.8 15.506C130.304 15.506 129.443 14.1927 129.443 12.1934ZM138.375 17.7972H141.484V6.58957H138.375V17.7972ZM139.937 5.14484C140.864 5.14484 141.622 4.43707 141.622 3.56877C141.622 2.70777 140.864 2 139.937 2C139.017 2 138.259 2.70777 138.259 3.56877C138.259 4.43707 139.017 5.14484 139.937 5.14484ZM142.946 6.58957V18.2641C142.946 19.1105 142.589 19.5337 141.589 19.5337C141.458 19.5337 141.341 19.5337 141.181 19.5191V21.9489C141.421 21.9635 141.589 21.9635 141.757 21.9635C144.449 22.0365 146.055 20.9128 146.055 18.3153V6.58957H142.946ZM144.493 5.14484C145.42 5.14484 146.179 4.43707 146.179 3.56877C146.179 2.70777 145.42 2 144.493 2C143.574 2 142.815 2.70777 142.815 3.56877C142.815 4.43707 143.574 5.14484 144.493 5.14484ZM150.713 18.0088C152.369 18.0088 153.442 17.2864 153.989 16.243H154.077V17.7972H157.025V10.2379C157.025 7.56731 154.762 6.44363 152.267 6.44363C149.582 6.44363 147.816 7.72784 147.386 9.77089L150.261 10.0044C150.472 9.26013 151.136 8.71288 152.253 8.71288C153.311 8.71288 153.916 9.24554 153.916 10.1649V10.2087C153.916 10.931 153.15 11.0259 151.202 11.2156C148.984 11.4199 146.992 12.1641 146.992 14.6669C146.992 16.8851 148.575 18.0088 150.713 18.0088ZM151.603 15.8636C150.648 15.8636 149.962 15.4185 149.962 14.5648C149.962 13.6891 150.684 13.2587 151.779 13.1054C152.457 13.0106 153.566 12.8501 153.938 12.602V13.7914C153.938 14.9661 152.968 15.8636 151.603 15.8636ZM170.302 7.1514H173.33C173.287 4.48814 171.097 2.6494 167.77 2.6494C164.494 2.6494 162.094 4.45896 162.108 7.1733C162.101 9.37688 163.655 10.6392 166.179 11.2448L167.807 11.6534C169.434 12.0474 170.338 12.5145 170.345 13.5214C170.338 14.6158 169.303 15.3601 167.697 15.3601C166.055 15.3601 164.874 14.6012 164.771 13.1054H161.714C161.794 16.3378 164.107 18.0088 167.734 18.0088C171.382 18.0088 173.527 16.2648 173.534 13.5287C173.527 11.0405 171.652 9.71981 169.054 9.13608L167.711 8.81503C166.413 8.51587 165.326 8.0343 165.347 6.96169C165.347 5.99854 166.201 5.29077 167.748 5.29077C169.258 5.29077 170.185 5.97666 170.302 7.1514ZM179.638 18.0161C183.037 18.0161 185.154 15.6884 185.154 12.2372C185.154 8.76396 183.037 6.44363 179.638 6.44363C176.237 6.44363 174.121 8.76396 174.121 12.2372C174.121 15.6884 176.237 18.0161 179.638 18.0161ZM179.652 15.6082C178.084 15.6082 177.281 14.1708 177.281 12.2153C177.281 10.2598 178.084 8.81503 179.652 8.81503C181.192 8.81503 181.995 10.2598 181.995 12.2153C181.995 14.1708 181.192 15.6082 179.652 15.6082ZM177.55 5.21051C177.55 4.53193 177.886 4.10142 178.39 4.10142C178.777 4.10142 179.069 4.31303 179.389 4.55382C179.798 4.85298 180.266 5.20322 181.082 5.19592C182.404 5.18862 183.439 4.15979 183.454 2.31375L181.753 2.26268C181.746 2.93397 181.447 3.38636 180.885 3.39365C180.52 3.39365 180.214 3.18205 179.878 2.94126C179.441 2.6421 178.952 2.29186 178.192 2.29916C176.865 2.30646 175.821 3.33528 175.821 5.18862L177.55 5.21051ZM189.256 11.3178C189.263 9.87304 190.124 9.02664 191.38 9.02664C192.627 9.02664 193.379 9.84385 193.372 11.2156V17.7972H196.48V10.6611C196.48 8.04889 194.948 6.44363 192.613 6.44363C190.949 6.44363 189.745 7.26086 189.242 8.56694H189.11V6.58957H186.147V17.7972H189.256V11.3178ZM201.099 18.0088C202.755 18.0088 203.827 17.2864 204.375 16.243H204.462V17.7972H207.41V10.2379C207.41 7.56731 205.147 6.44363 202.652 6.44363C199.967 6.44363 198.201 7.72784 197.771 9.77089L200.645 10.0044C200.857 9.26013 201.522 8.71288 202.638 8.71288C203.696 8.71288 204.301 9.24554 204.301 10.1649V10.2087C204.301 10.931 203.535 11.0259 201.587 11.2156C199.368 11.4199 197.376 12.1641 197.376 14.6669C197.376 16.8851 198.961 18.0088 201.099 18.0088ZM201.988 15.8636C201.033 15.8636 200.346 15.4185 200.346 14.5648C200.346 13.6891 201.069 13.2587 202.164 13.1054C202.842 13.0106 203.952 12.8501 204.323 12.602V13.7914C204.323 14.9661 203.353 15.8636 201.988 15.8636ZM218.841 6.58957H215.55L213.231 14.6085H213.114L210.786 6.58957H207.502L211.42 17.7972H214.923L218.841 6.58957ZM224.131 18.0161C226.904 18.0161 228.772 16.6661 229.209 14.5867L226.335 14.3969C226.02 15.2506 225.218 15.6957 224.182 15.6957C222.628 15.6957 221.643 14.6669 221.643 12.996V12.9887H229.275V12.135C229.275 8.32616 226.97 6.44363 224.007 6.44363C220.709 6.44363 218.571 8.78584 218.571 12.2445C218.571 15.7979 220.68 18.0161 224.131 18.0161ZM221.643 11.0624C221.708 9.78548 222.679 8.76396 224.058 8.76396C225.408 8.76396 226.342 9.72711 226.349 11.0624H221.643ZM235.384 18.0161C238.157 18.0161 240.024 16.6661 240.462 14.5867L237.587 14.3969C237.274 15.2506 236.471 15.6957 235.435 15.6957C233.881 15.6957 232.895 14.6669 232.895 12.996V12.9887H240.528V12.135C240.528 8.32616 238.222 6.44363 235.259 6.44363C231.962 6.44363 229.824 8.78584 229.824 12.2445C229.824 15.7979 231.933 18.0161 235.384 18.0161ZM232.895 11.0624C232.961 9.78548 233.932 8.76396 235.311 8.76396C236.661 8.76396 237.595 9.72711 237.602 11.0624H232.895ZM241.587 17.7972H244.652V16.0022H244.79C245.221 16.9361 246.163 17.9796 247.972 17.9796C250.526 17.9796 252.518 15.9584 252.518 12.208C252.518 8.35535 250.439 6.44363 247.979 6.44363C246.104 6.44363 245.206 7.56002 244.79 8.4721H244.696V2.85371H241.587V17.7972ZM244.63 12.1934C244.63 10.1941 245.476 8.91718 246.987 8.91718C248.527 8.91718 249.343 10.2525 249.343 12.1934C249.343 14.1489 248.512 15.506 246.987 15.506C245.491 15.506 244.63 14.1927 244.63 12.1934Z" fill="white"/>
<path d="M38.169 13.0213C38.0935 12.2747 37.7916 11.528 37.1122 10.856C36.5084 10.1093 35.5271 9.43733 34.2438 8.76533C32.9606 8.09333 31.2245 7.42133 28.96 6.74933C26.7709 6.152 24.6574 5.928 22.7703 6.00267C21.9399 6.07733 21.1096 6.152 20.2793 6.30133C19.449 6.45067 18.6941 6.74933 17.9393 7.12267C17.1844 7.496 16.5051 8.01867 15.9767 8.69067C15.3728 9.36267 14.9199 10.184 14.618 11.1547C14.3915 12.1253 14.3915 13.096 14.7689 14.0667C15.0709 14.888 15.5993 15.8587 16.5051 16.9787C17.4109 18.0987 18.8451 19.144 20.8831 20.264C19.147 19.816 17.5618 19.6667 16.1276 19.7413C15.5238 19.7413 14.8444 19.8907 14.2405 20.04C13.6367 20.1893 13.0328 20.4133 12.5044 20.7867C11.976 21.0853 11.4476 21.5333 11.0702 22.056C10.6928 22.5787 10.3909 23.2507 10.1644 24.072C9.86247 25.2667 10.0134 26.3867 10.6928 27.5067C10.9947 27.9547 11.3721 28.4773 11.976 29C12.5044 29.5227 13.2593 30.0453 14.1651 30.568C15.0709 31.0907 16.1276 31.5387 17.4109 32.0613C18.6941 32.5093 20.2038 32.9573 22.0154 33.4053C23.978 33.7787 25.8651 33.8533 27.5258 33.6293C28.2051 33.5547 28.96 33.3307 29.7148 33.1067C30.4696 32.8827 31.149 32.5093 31.8283 32.0613C32.5077 31.6133 33.0361 31.016 33.5645 30.344C34.0929 29.5973 34.4703 28.776 34.7722 27.7307C35.1497 26.4613 35.0742 25.2667 34.6967 23.9973C34.5458 23.4747 34.2438 22.952 33.8664 22.3547C33.489 21.7573 33.0361 21.16 32.3567 20.5627C31.7529 19.9653 30.9225 19.368 29.9412 18.7707C28.96 18.1733 27.8277 17.576 26.5445 17.0533C28.3561 17.7253 30.0167 18.1733 31.5264 18.3227C32.2058 18.3973 32.8096 18.3973 33.489 18.3973C34.1684 18.3227 34.7722 18.248 35.3006 18.024C35.9045 17.8 36.3574 17.5013 36.8103 17.128C37.2632 16.68 37.6406 16.1573 37.8671 15.4107C38.169 14.5147 38.2445 13.768 38.169 13.0213ZM24.129 1C34.5458 1 43 9.36267 43 19.6667C43 29.9707 34.5458 38.3333 24.129 38.3333C19.5999 38.3333 15.4483 36.7653 12.2025 34.152C10.8438 36.0933 8.80569 38.0347 6.23923 37.96C4.57857 37.8853 3.06889 37.288 2.01211 35.944C1.03082 34.6 0.728884 32.808 1.25727 31.24C1.55921 30.344 2.23857 29.5227 3.06889 28.8507C4.12567 27.9547 5.4089 27.2827 6.69213 26.8347C5.78632 24.5947 5.25793 22.2053 5.25793 19.592C5.25793 9.36267 13.7122 1 24.129 1Z" stroke="white"/>
</svg>
