<svg id="Layer_1" data-name="Layer 1" xmlns="http://www.w3.org/2000/svg" viewBox="0 0 372 93"><defs><style>.cls-1{fill:#231f20;}.cls-2{fill:#4125d0;}.cls-3{fill:#f1f1f2;}</style></defs><path class="cls-1" d="M122.09,35.23h9.09c.41,3.68,2.81,5.21,7.15,5.21,3,0,5.88-1.07,5.88-3.83s-3-3.53-8-4.75c-6.33-1.48-13-3.43-13-11.09s6.34-11.24,14.51-11.24c7.92,0,14.05,3.58,14.41,11.24h-8.84c-.36-2.81-2.5-4.39-5.87-4.39-3.17,0-5.27,1.38-5.27,3.42,0,2.56,2.81,3.17,8.28,4.39,6.79,1.59,12.92,3.68,12.92,11.5,0,7.66-6.54,11.9-15,11.9C128.68,47.59,122.29,43.3,122.09,35.23Z"/><path class="cls-1" d="M155.32,33.7c0-7.87,5.62-13.85,14-13.85s14,6,14,13.85-5.52,13.84-14,13.84S155.32,41.56,155.32,33.7Zm10.78-23a7,7,0,0,1,3.37,1,5.87,5.87,0,0,0,2.51.92c1.07,0,1.38-.72,1.53-1.79h4.29c0,4-1.79,6.74-5.11,6.74a8.53,8.53,0,0,1-3.37-.81,6.68,6.68,0,0,0-2.66-1c-.81,0-1.38.66-1.53,1.83h-4.29C160.84,13,163.19,10.66,166.1,10.66Zm8.74,23c0-4.75-1.94-8-5.57-8s-5.52,3.22-5.52,8,1.89,7.91,5.52,7.91S174.84,38.45,174.84,33.7Z"/><path class="cls-1" d="M186.23,20.57h8v3.57h.15a9.16,9.16,0,0,1,8.07-4.34c5.72,0,9.09,4.09,9.09,9.91v17h-8.32V31.4c0-2.76-1.38-4.65-4.09-4.65s-4.6,2.3-4.6,5.52V46.72h-8.32Z"/><path class="cls-1" d="M214.31,39.42c0-5.77,4.6-7.51,10-8.23,4.91-.61,6.65-1.12,6.65-2.91s-1.08-2.81-3.58-2.81c-2.66,0-4,1.18-4.24,3.37h-7.66c.2-4.85,3.93-9,11.85-9,3.93,0,6.59.72,8.48,2.15,2.25,1.63,3.32,4.19,3.32,7.46V42.64c0,2.09.2,3.27.92,3.72v.36H232a7.17,7.17,0,0,1-.87-2.91H231c-1.54,2.2-3.83,3.58-7.77,3.58C218,47.39,214.31,44.58,214.31,39.42Zm16.86-2.05V34.26a20.44,20.44,0,0,1-4.29,1.38c-3.22.71-4.55,1.53-4.55,3.52s1.53,2.91,3.58,2.91C229,42.07,231.17,40.18,231.17,37.37Z"/><path class="cls-1" d="M240,20.57h8.58l3.57,11.8c.77,2.6,1.43,5.26,1.43,5.26h.11s.66-2.66,1.43-5.26l3.62-11.8h8.33l-9,26.15h-9Z"/><path class="cls-1" d="M266.66,33.59c0-7.81,5.47-13.79,13.44-13.79A12.88,12.88,0,0,1,289,23.07c3.11,2.86,4.64,7.41,4.59,12.72h-18.8c.52,3.53,2.46,5.72,5.88,5.72a4.33,4.33,0,0,0,4.34-2.6h8.12a10.64,10.64,0,0,1-4.39,6.18,13.84,13.84,0,0,1-8.17,2.4C272,47.49,266.66,41.51,266.66,33.59Zm18.55-2.75c-.31-3.12-2.25-5.11-5-5.11-3.17,0-4.8,2-5.36,5.11Z"/><path class="cls-1" d="M295.31,33.59c0-7.81,5.47-13.79,13.44-13.79a12.9,12.9,0,0,1,8.94,3.27c3.11,2.86,4.64,7.41,4.59,12.72h-18.8c.51,3.53,2.46,5.72,5.88,5.72a4.33,4.33,0,0,0,4.34-2.6h8.12a10.64,10.64,0,0,1-4.39,6.18,13.84,13.84,0,0,1-8.17,2.4C300.62,47.49,295.31,41.51,295.31,33.59Zm18.54-2.75c-.3-3.12-2.24-5.11-5-5.11-3.17,0-4.8,2-5.36,5.11Z"/><path class="cls-1" d="M333.26,43.4h-.11v3.32h-8V10.2h8.32V23.53h.16a8.54,8.54,0,0,1,7.45-3.73c6.8,0,11.19,6,11.19,13.85,0,8.68-4.39,13.89-11.14,13.89A8.77,8.77,0,0,1,333.26,43.4Zm10.62-9.81c0-4.49-1.79-7.45-5.16-7.45-3.68,0-5.46,3.21-5.46,7.51s2.14,7.3,5.56,7.3C342.09,41,343.88,38.14,343.88,33.59Z"/><path class="cls-1" d="M122.34,61.69H136v2.14H124.78V70H135V72H124.78v6.8h11.56v2.25h-14Z"/><path class="cls-1" d="M137.3,74.08c0-4.07,2.66-7.37,6.64-7.37,4.2,0,6.45,3.25,6.45,7.88H139.55c.17,2.85,1.71,5,4.53,5A3.62,3.62,0,0,0,148,76.73h2.14a5.7,5.7,0,0,1-6,4.72C139.8,81.45,137.3,78.14,137.3,74.08Zm2.31-1.14H148c-.13-2.79-1.57-4.5-4.09-4.5S139.93,70.39,139.61,72.94Z"/><path class="cls-1" d="M151.41,76.51h2.25c.29,2.44,1.92,3.12,4,3.12,2.3,0,3.25-1,3.25-2.3,0-1.57-1.09-2-3.66-2.52-2.76-.57-5.23-1.14-5.23-4.2,0-2.33,1.79-3.85,5-3.85,3.47,0,5.17,1.65,5.5,4.39h-2.25c-.22-1.84-1.22-2.66-3.3-2.66s-2.82.9-2.82,2c0,1.52,1.35,1.81,3.76,2.3,2.82.57,5.18,1.19,5.18,4.42,0,2.82-2.3,4.25-5.53,4.25C153.76,81.47,151.62,79.66,151.41,76.51Z"/><path class="cls-1" d="M163.86,67.06h2V62.64h2.19v4.42h2.71v1.79h-2.71V78c0,1,.52,1.3,1.41,1.3a4.25,4.25,0,0,0,1.17-.19h.08V81a8.47,8.47,0,0,1-1.76.19c-1.79,0-3.09-.73-3.09-2.71V68.85h-2Z"/><path class="cls-1" d="M172.85,61.69H175V64.4h-2.19Zm0,5.37H175v14h-2.19Z"/><path class="cls-1" d="M182.21,61.69h2.44v9.62l9.54-9.62h3.06l-7.83,7.75,8.48,11.63h-2.85l-7.29-10-3.11,3.12v6.86h-2.44Z"/><path class="cls-1" d="M197.23,74.08c0-4.07,2.66-7.37,6.64-7.37,4.2,0,6.45,3.25,6.45,7.88H199.48c.16,2.85,1.71,5,4.53,5a3.62,3.62,0,0,0,3.87-2.87H210a5.7,5.7,0,0,1-6,4.72C199.73,81.45,197.23,78.14,197.23,74.08Zm2.31-1.14H208c-.13-2.79-1.57-4.5-4.09-4.5S199.86,70.39,199.54,72.94Z"/><path class="cls-1" d="M211.44,74.08c0-4.07,2.66-7.37,6.64-7.37,4.2,0,6.45,3.25,6.45,7.88H213.69c.16,2.85,1.71,5,4.53,5a3.62,3.62,0,0,0,3.87-2.87h2.14a5.7,5.7,0,0,1-6,4.72C213.94,81.45,211.44,78.14,211.44,74.08Zm2.31-1.14h8.42c-.13-2.79-1.57-4.5-4.09-4.5S214.07,70.39,213.75,72.94Z"/><path class="cls-1" d="M226.52,61.69h2.2V81.07h-2.2Z"/><path class="cls-1" d="M230.77,74.08c0-4.07,2.65-7.37,6.64-7.37,4.2,0,6.45,3.25,6.45,7.88H233c.16,2.85,1.7,5,4.52,5a3.63,3.63,0,0,0,3.88-2.87h2.14a5.71,5.71,0,0,1-6,4.72C233.26,81.45,230.77,78.14,230.77,74.08Zm2.3-1.14h8.43c-.14-2.79-1.57-4.5-4.09-4.5S233.4,70.39,233.07,72.94Z"/><path class="cls-1" d="M250.23,61.69h2.44V81.07h-2.44Z"/><path class="cls-1" d="M258,68.9h.06a5.24,5.24,0,0,1,4.44-2.17c2.93,0,4.71,1.6,4.71,4.5v9.84H265V71.42c0-1.82-1.19-2.84-3.17-2.84A3.71,3.71,0,0,0,258,72.45v8.62h-2.19v-14H258Z"/><path class="cls-1" d="M269,76.51h2.25c.29,2.44,1.92,3.12,4,3.12,2.3,0,3.25-1,3.25-2.3,0-1.57-1.09-2-3.66-2.52-2.76-.57-5.23-1.14-5.23-4.2,0-2.33,1.79-3.85,5-3.85,3.47,0,5.18,1.65,5.5,4.39H277.9c-.21-1.84-1.22-2.66-3.3-2.66s-2.82.9-2.82,2c0,1.52,1.35,1.81,3.76,2.3,2.82.57,5.18,1.19,5.18,4.42,0,2.82-2.3,4.25-5.53,4.25C271.35,81.47,269.2,79.66,269,76.51Z"/><path class="cls-1" d="M281.44,67.06h2V62.64h2.2v4.42h2.71v1.79h-2.71V78c0,1,.51,1.3,1.4,1.3a4.18,4.18,0,0,0,1.17-.19h.08V81a8.4,8.4,0,0,1-1.76.19c-1.79,0-3.09-.73-3.09-2.71V68.85h-2Z"/><path class="cls-1" d="M290.43,61.69h2.19V64.4h-2.19Zm0,5.37h2.19v14h-2.19Z"/><path class="cls-1" d="M294.49,67.06h2V62.64h2.19v4.42h2.71v1.79h-2.71V78c0,1,.52,1.3,1.41,1.3a4.32,4.32,0,0,0,1.17-.19h.08V81a8.47,8.47,0,0,1-1.76.19c-1.79,0-3.09-.73-3.09-2.71V68.85h-2Z"/><path class="cls-1" d="M312.39,81.07V79.14h-.06a4.83,4.83,0,0,1-4.22,2.25c-2.88,0-4.72-1.73-4.72-4.63v-9.7h2.2V76.7c0,1.82,1.16,2.88,3.14,2.88a3.63,3.63,0,0,0,3.66-3.91V67.06h2.19v14Z"/><path class="cls-1" d="M326.25,81.07V79.14h-.06A4.84,4.84,0,0,1,322,81.39a4.33,4.33,0,0,1-4.71-4.63v-9.7h2.19V76.7c0,1.82,1.17,2.88,3.15,2.88a3.63,3.63,0,0,0,3.66-3.91V67.06h2.19v14Z"/><path class="cls-1" d="M330.3,67.06h2V62.64h2.19v4.42h2.71v1.79h-2.71V78c0,1,.52,1.3,1.41,1.3a4.32,4.32,0,0,0,1.17-.19h.08V81a8.47,8.47,0,0,1-1.76.19c-1.79,0-3.09-.73-3.09-2.71V68.85h-2Z"/><circle class="cls-2" cx="64.57" cy="48.9" r="42.07"/><path class="cls-3" d="M78.5,21.06H50.36V49.62H66.59c-.21,5.33-1.55,9.25-4,11.64S56,65.12,50.36,65.4V77.3c17.37-.68,28.14-9.77,28.14-29.19v-27"/></svg>