<svg width="497" height="33" viewBox="0 0 497 33" fill="none" xmlns="http://www.w3.org/2000/svg">
<path d="M15.912 8.43752V7.94225C15.912 7.69461 15.8165 7.48137 15.6254 7.30252C15.4344 7.12367 15.2067 7.03425 14.9422 7.03425C14.6703 7.03425 14.4426 7.12367 14.2515 7.30252C14.0605 7.48137 13.9724 7.69461 13.9724 7.94225V8.43752C13.9724 8.68515 14.0605 8.89839 14.2515 9.07724C14.4426 9.25609 14.6703 9.34551 14.9422 9.34551C15.2067 9.34551 15.4344 9.25609 15.6254 9.07724C15.8165 8.89839 15.912 8.68515 15.912 8.43752Z" fill="white"/>
<path d="M14.9421 27.0649C14.6703 27.0649 14.4425 27.1543 14.2515 27.3332C14.0605 27.512 13.965 27.7253 13.9723 27.9798V28.4682C13.9723 28.7158 14.0605 28.9359 14.2515 29.1079C14.4425 29.2867 14.6703 29.3762 14.9421 29.3762C15.2066 29.3762 15.4344 29.2867 15.6254 29.1079C15.8164 28.9359 15.9119 28.7158 15.9119 28.4682V27.9798C15.9119 27.7253 15.8164 27.5051 15.6254 27.3263C15.4417 27.1474 15.2066 27.058 14.9421 27.0649Z" fill="white"/>
<path d="M25.3676 17.2906C25.1031 17.2906 24.8754 17.38 24.6844 17.5589C24.4933 17.7377 24.3978 17.951 24.3978 18.1986C24.3978 18.4531 24.4933 18.6664 24.6844 18.8383C24.8754 19.0172 25.1031 19.1066 25.3676 19.1066H25.8966C26.1685 19.1066 26.3962 19.0172 26.5872 18.8383C26.7783 18.6664 26.8664 18.4531 26.8664 18.1986C26.8664 17.951 26.7783 17.7377 26.5872 17.5589C26.3962 17.38 26.1685 17.2906 25.8966 17.2906H25.3676Z" fill="white"/>
<path d="M3.98769 17.2906C3.71585 17.2906 3.4881 17.38 3.29707 17.5589C3.1134 17.7377 3.01788 17.951 3.01788 18.1986C3.01788 18.4531 3.1134 18.6664 3.29707 18.8383C3.4881 19.0172 3.71585 19.1066 3.98769 19.1066H4.50934C4.77383 19.1066 5.00894 19.0172 5.19261 18.8383C5.38364 18.6664 5.47915 18.4531 5.47915 18.1986C5.47915 17.951 5.38364 17.7377 5.19261 17.5589C5.00894 17.38 4.77383 17.2906 4.50934 17.2906H3.98769Z" fill="white"/>
<path d="M29.2027 13.3489C29.1145 13.115 28.9456 12.943 28.7031 12.833C28.4607 12.7298 28.2109 12.716 27.9611 12.8054C27.7113 12.888 27.5276 13.0462 27.41 13.2732C27.2998 13.5002 27.2851 13.7341 27.3806 13.968C27.917 15.3368 28.1815 16.747 28.1741 18.1984C28.1741 19.1546 28.0639 20.0969 27.8288 21.0325C27.6011 21.9611 27.2557 22.8553 26.8002 23.7083C26.3521 24.5681 25.801 25.3661 25.1471 26.1021C24.5006 26.8381 23.7659 27.4985 22.9577 28.0763C22.1422 28.6541 21.2679 29.1425 20.3422 29.5346C19.4091 29.9198 18.4393 30.2087 17.4401 30.3876C16.4335 30.5664 15.4196 30.6421 14.3984 30.6008C13.3845 30.5664 12.378 30.4151 11.3934 30.1606C10.4089 29.9061 9.46852 29.5484 8.57218 29.0944C7.68318 28.6335 6.85297 28.0832 6.08887 27.4435C5.33212 26.8106 4.6562 26.0952 4.07578 25.3111C3.48801 24.5269 3.01046 23.6945 2.62841 22.8072C2.25371 21.9198 1.98921 21.0049 1.83493 20.0557C1.68064 19.1133 1.6439 18.164 1.73207 17.2079C1.81289 16.2586 2.01126 15.3231 2.31983 14.4151C2.63576 13.5071 3.05454 12.6404 3.58353 11.8218C4.10517 11.0032 4.72967 10.2465 5.43498 9.56555C6.14765 8.87767 6.93378 8.27922 7.79339 7.76331C8.66034 7.2474 9.57138 6.83468 10.5338 6.51825C11.4963 6.19495 12.4808 5.98859 13.5021 5.88541C14.5159 5.78223 15.5298 5.78911 16.5437 5.90604C17.5576 6.01611 18.5421 6.2431 19.4972 6.57329C20.4597 6.90347 21.3634 7.32995 22.2157 7.85274C23.0679 8.3824 23.8467 8.99461 24.552 9.68249L14.9715 17.0015L12.0326 14.4839C11.8563 14.3257 11.6432 14.25 11.4008 14.2431C11.1657 14.2362 10.9526 14.305 10.7689 14.4495C10.5779 14.587 10.4604 14.7728 10.4236 14.9929C10.3796 15.213 10.4163 15.4263 10.5412 15.6189L14.1339 21.2044C14.2955 21.4589 14.538 21.6034 14.8539 21.6447H14.9641C15.2506 21.6515 15.4931 21.5552 15.6841 21.3695L29.1072 8.58876C29.3056 8.42367 29.4158 8.21043 29.4231 7.9628C29.4378 7.70828 29.357 7.48816 29.1733 7.30243C28.997 7.11671 28.7692 7.0204 28.5047 7.00665C28.2329 6.99977 27.9978 7.07544 27.7994 7.2474L26.1096 8.54061C25.6835 8.12101 25.2426 7.72204 24.7651 7.35059C24.2949 6.98601 23.7953 6.64207 23.281 6.32565C22.7667 6.01611 22.2304 5.7272 21.672 5.47956C21.1136 5.22505 20.5479 5.00493 19.9675 4.8192C19.3797 4.63347 18.7846 4.48214 18.1821 4.35832C17.5797 4.24138 16.9699 4.15884 16.3527 4.11069C15.7429 4.06254 15.1257 4.04878 14.5086 4.06941C13.8914 4.09005 13.2816 4.15196 12.6718 4.24138C12.062 4.33769 11.4596 4.4615 10.8718 4.61971C10.2767 4.78481 9.69628 4.97741 9.13055 5.20441C8.56483 5.43141 8.0138 5.6928 7.48481 5.98171C6.94848 6.2775 6.44153 6.59392 5.94928 6.94474C5.45702 7.29555 4.99416 7.67389 4.55334 8.07286C4.10517 8.4787 3.69373 8.90519 3.31168 9.35919C2.92229 9.80631 2.56963 10.2809 2.24636 10.7693C1.92309 11.2646 1.62921 11.7668 1.37206 12.2964C1.11491 12.8192 0.894505 13.3558 0.710827 13.9061C0.519805 14.4564 0.372863 15.0135 0.25531 15.5845C0.145104 16.1485 0.0716344 16.7263 0.0275511 17.2973C-0.0091837 17.8751 -0.0091837 18.4529 0.0275511 19.0307C0.0642859 19.6086 0.137756 20.1795 0.247963 20.7435C0.365516 21.3145 0.512457 21.8717 0.696133 22.422C0.879809 22.9723 1.10022 23.5157 1.35737 24.0385C1.61452 24.5613 1.90105 25.0703 2.22432 25.5656C2.54759 26.054 2.90025 26.5286 3.2823 26.9826C3.67169 27.4297 4.08313 27.8631 4.52395 28.262C4.96477 28.6679 5.42764 29.0462 5.91989 29.397C6.40479 29.7479 6.91909 30.0712 7.44808 30.3601C7.98441 30.6559 8.52809 30.9172 9.09382 31.1442C9.65954 31.3712 10.24 31.5707 10.8351 31.7358C11.4228 31.894 12.0253 32.0247 12.6351 32.1142C13.2449 32.2105 13.8547 32.2724 14.4719 32.293C15.089 32.3136 15.7062 32.3068 16.316 32.2586C16.9331 32.2105 17.5429 32.1279 18.1454 32.011C18.7478 31.894 19.343 31.7427 19.9307 31.557C20.5111 31.3712 21.0842 31.1511 21.6352 30.9035C22.1936 30.649 22.73 30.3738 23.2516 30.0574C23.7659 29.7479 24.2655 29.4039 24.7357 29.0325C25.2133 28.6679 25.6614 28.2689 26.0802 27.8493C26.5063 27.4297 26.8957 26.9826 27.2631 26.5217C27.6231 26.054 27.9537 25.5656 28.2549 25.0634C28.5562 24.5613 28.828 24.0385 29.0558 23.5019C29.2909 22.9723 29.4892 22.422 29.6435 21.8648C29.8052 21.3076 29.9301 20.7435 30.0182 20.1726C30.1064 19.6017 30.1578 19.0239 30.1652 18.446C30.1799 17.8682 30.1505 17.2973 30.0844 16.7195C30.0256 16.1485 29.9227 15.5776 29.7831 15.0135C29.6435 14.4564 29.4745 13.8992 29.2615 13.3558L29.2027 13.3489Z" fill="white"/>
<path d="M46.609 23.6995H45.3159V15.8302C45.3159 15.1698 45.3306 14.5576 45.3747 13.9867C45.2572 14.083 45.1249 14.1931 44.9927 14.3169C44.8531 14.4269 44.2139 14.9153 43.0824 15.7752L42.3771 14.9222L45.4923 12.666H46.609V23.6995Z" fill="white"/>
<path d="M58.9059 18.1691C58.9059 20.0814 58.5827 21.4984 57.9361 22.4339C57.3043 23.3694 56.3271 23.8372 54.9973 23.8372C53.7189 23.8372 52.7491 23.3625 52.0879 22.4064C51.4413 21.4365 51.1181 20.0263 51.1181 18.1691C51.1181 16.243 51.4266 14.8122 52.0585 13.8767C52.705 12.9412 53.6822 12.4734 54.9973 12.4734C56.2904 12.4734 57.2602 12.9618 57.9067 13.9317C58.568 14.9085 58.9059 16.3187 58.9059 18.1691ZM52.4699 18.1691C52.4699 19.7649 52.6609 20.9343 53.0577 21.6635C53.4691 22.3995 54.1157 22.7641 54.9973 22.7641C55.8936 22.7641 56.5402 22.3995 56.9369 21.6635C57.3484 20.9137 57.5541 19.7512 57.5541 18.1691C57.5541 16.5732 57.3484 15.4107 56.9369 14.6746C56.5402 13.9455 55.8936 13.574 54.9973 13.574C54.1157 13.574 53.4691 13.9455 53.0577 14.6746C52.6609 15.39 52.4699 16.5594 52.4699 18.1691Z" fill="white"/>
<path d="M60.4174 20.1226V18.967H67.3237V20.1226H60.4174Z" fill="white"/>
<path d="M73.762 23.6995H72.4689V15.8302C72.4689 15.1698 72.4836 14.5576 72.5277 13.9867C72.4101 14.083 72.2779 14.1931 72.1456 14.3169C72.006 14.4269 71.3669 14.9153 70.2354 15.7752L69.5301 14.9222L72.6452 12.666H73.762V23.6995Z" fill="white"/>
<path d="M81.9446 16.9583C83.1789 16.9583 84.1487 17.2541 84.854 17.8388C85.574 18.4097 85.9414 19.187 85.9414 20.1776C85.9414 21.3332 85.5446 22.2343 84.7659 22.8741C84.0018 23.5207 82.9291 23.8371 81.5625 23.8371C80.2254 23.8371 79.2115 23.6445 78.5062 23.2593V22.0486C78.8956 22.2687 79.3658 22.4476 79.9168 22.5714C80.4825 22.7021 81.0409 22.764 81.5919 22.764C82.5324 22.764 83.2524 22.5645 83.7667 22.1587C84.2956 21.7391 84.5601 21.1337 84.5601 20.3427C84.5601 18.8018 83.5462 18.0314 81.5332 18.0314C81.0189 18.0314 80.3429 18.1071 79.5054 18.2515L78.8001 17.8388L79.2409 12.666H85.1185V13.8216H80.387L80.0931 17.1234C80.7176 17.0134 81.3348 16.9583 81.9446 16.9583Z" fill="white"/>
<path d="M103.882 23.6995V18.3065C103.882 17.6462 103.72 17.1509 103.411 16.8207C103.118 16.4905 102.655 16.3254 102.03 16.3254C101.185 16.3254 100.561 16.5593 100.149 17.0133C99.7526 17.4535 99.5616 18.1414 99.5616 19.0769V23.6995H98.2391V18.3065C98.2391 17.6462 98.0775 17.1509 97.7689 16.8207C97.475 16.4905 97.0048 16.3254 96.3583 16.3254C95.5354 16.3254 94.9256 16.5662 94.5362 17.0408C94.1395 17.5223 93.9485 18.2928 93.9485 19.3521V23.6995H92.5966V15.4174H93.684L93.9191 16.5455H93.9778C94.2276 16.1466 94.5803 15.8302 95.0358 15.61C95.506 15.3899 96.0203 15.2799 96.5934 15.2799C97.9599 15.2799 98.8636 15.7476 99.2971 16.6831H99.3559C99.6277 16.2429 100.01 15.9058 100.502 15.6651C101.009 15.4106 101.575 15.2799 102.207 15.2799C103.206 15.2799 103.948 15.5206 104.44 15.9952C104.947 16.4768 105.204 17.2472 105.204 18.3065V23.6995H103.882Z" fill="white"/>
<path d="M109.316 23.6994H107.964V15.4174H109.316V23.6994ZM107.846 13.1887C107.846 12.8998 107.92 12.6865 108.082 12.5558C108.236 12.432 108.419 12.3632 108.64 12.3632C108.853 12.3632 109.037 12.432 109.198 12.5558C109.353 12.6865 109.433 12.8998 109.433 13.1887C109.433 13.4638 109.353 13.6771 109.198 13.8215C109.037 13.9522 108.853 14.0141 108.64 14.0141C108.419 14.0141 108.236 13.9522 108.082 13.8215C107.92 13.6771 107.846 13.4638 107.846 13.1887Z" fill="white"/>
<path d="M118.197 23.6995V18.334C118.197 17.6737 118.028 17.1784 117.697 16.8482C117.381 16.5043 116.874 16.3254 116.169 16.3254C115.243 16.3254 114.567 16.5662 114.141 17.0408C113.707 17.5017 113.494 18.2721 113.494 19.3521V23.6995H112.143V15.4174H113.23L113.465 16.5455H113.524C113.796 16.1466 114.178 15.8302 114.67 15.61C115.155 15.3899 115.706 15.2799 116.316 15.2799C117.388 15.2799 118.197 15.5206 118.726 15.9952C119.269 16.4768 119.548 17.2472 119.548 18.3065V23.6995H118.197Z" fill="white"/>
<path d="M123.546 15.4173V20.7827C123.546 21.4637 123.708 21.9659 124.046 22.2961C124.376 22.6262 124.883 22.7913 125.574 22.7913C126.492 22.7913 127.168 22.5643 127.602 22.1035C128.028 21.6288 128.248 20.8515 128.248 19.7647V15.4173H129.6V23.6993H128.483L128.278 22.5987H128.219C127.94 23.0046 127.558 23.3141 127.073 23.5342C126.581 23.7337 126.022 23.8369 125.398 23.8369C124.34 23.8369 123.532 23.603 122.988 23.1215C122.459 22.6469 122.194 21.8833 122.194 20.8378V15.4173H123.546Z" fill="white"/>
<path d="M135.273 22.8189C135.523 22.8189 135.758 22.8051 135.979 22.7639C136.192 22.7295 136.368 22.6951 136.508 22.6538V23.6168C136.346 23.6925 136.126 23.7406 135.832 23.7819C135.552 23.8163 135.31 23.837 135.097 23.837C133.392 23.837 132.54 23.0046 132.54 21.3331V16.4079H131.276V15.8025L132.54 15.2798L133.099 13.5188H133.863V15.4173H136.419V16.4079H133.863V21.278C133.863 21.7733 133.988 22.1585 134.245 22.4337C134.494 22.6951 134.84 22.8189 135.273 22.8189Z" fill="white"/>
<path d="M139.607 23.6994H138.255V15.4174H139.607V23.6994ZM138.137 13.1887C138.137 12.8998 138.211 12.6865 138.372 12.5558C138.527 12.432 138.71 12.3632 138.931 12.3632C139.144 12.3632 139.328 12.432 139.489 12.5558C139.643 12.6865 139.724 12.8998 139.724 13.1887C139.724 13.4638 139.643 13.6771 139.489 13.8215C139.328 13.9522 139.144 14.0141 138.931 14.0141C138.71 14.0141 138.527 13.9522 138.372 13.8215C138.211 13.6771 138.137 13.4638 138.137 13.1887Z" fill="white"/>
<path d="M145.284 22.8189C145.534 22.8189 145.769 22.8051 145.989 22.7639C146.203 22.7295 146.379 22.6951 146.518 22.6538V23.6168C146.357 23.6925 146.136 23.7406 145.843 23.7819C145.563 23.8163 145.321 23.837 145.108 23.837C143.403 23.837 142.551 23.0046 142.551 21.3331V16.4079H141.287V15.8025L142.551 15.2798L143.109 13.5188H143.874V15.4173H146.43V16.4079H143.874V21.278C143.874 21.7733 143.998 22.1585 144.256 22.4337C144.505 22.6951 144.851 22.8189 145.284 22.8189Z" fill="white"/>
<path d="M226.937 21.9076H225.644V14.0383C225.644 13.3779 225.658 12.7657 225.702 12.1948C225.585 12.2911 225.453 12.4012 225.32 12.525C225.181 12.635 224.542 13.1234 223.41 13.9833L222.705 13.1303L225.82 10.8741H226.937V21.9076Z" fill="white"/>
<path d="M235.325 10.7091C236.398 10.7091 237.25 10.9498 237.882 11.4245C238.506 11.8853 238.822 12.5251 238.822 13.3505C238.822 13.9008 238.646 14.4099 238.293 14.8639C237.94 15.3041 237.36 15.7099 236.559 16.0745C237.514 16.501 238.19 16.9481 238.587 17.4228C238.998 17.8836 239.204 18.4271 239.204 19.0461C239.204 19.9679 238.859 20.697 238.176 21.2473C237.507 21.7839 236.574 22.0453 235.384 22.0453C234.127 22.0453 233.158 21.7908 232.474 21.2749C231.806 20.7658 231.475 20.0367 231.475 19.1012C231.475 17.8355 232.298 16.8449 233.944 16.1295C233.194 15.7443 232.658 15.3247 232.327 14.8639C232.011 14.4099 231.857 13.9008 231.857 13.3505C231.857 12.5457 232.166 11.906 232.798 11.4245C233.422 10.9498 234.267 10.7091 235.325 10.7091ZM232.798 19.1287C232.798 19.734 233.011 20.2018 233.444 20.532C233.892 20.8621 234.531 21.0272 235.354 21.0272C236.155 21.0272 236.772 20.8553 237.206 20.5044C237.654 20.1605 237.882 19.679 237.882 19.0737C237.882 18.5784 237.661 18.1381 237.235 17.7529C236.824 17.3677 236.096 17.0031 235.06 16.6523C234.252 16.9825 233.679 17.3402 233.327 17.7254C232.974 18.1106 232.798 18.5784 232.798 19.1287ZM235.325 11.7271C234.634 11.7271 234.098 11.8853 233.709 12.1949C233.334 12.4907 233.15 12.8828 233.15 13.378C233.15 13.8596 233.304 14.2585 233.62 14.5887C233.951 14.9189 234.539 15.2491 235.384 15.5792C236.162 15.2903 236.714 14.967 237.029 14.6162C237.338 14.2723 237.5 13.8596 237.5 13.378C237.5 12.8828 237.301 12.4907 236.912 12.1949C236.537 11.8853 236.008 11.7271 235.325 11.7271Z" fill="white"/>
<path d="M241.303 21.1097C241.303 20.7796 241.377 20.5319 241.539 20.3668C241.693 20.188 241.928 20.0917 242.244 20.0917C242.552 20.0917 242.802 20.188 242.979 20.3668C243.155 20.5319 243.243 20.7796 243.243 21.1097C243.243 21.4399 243.155 21.7013 242.979 21.8802C242.802 22.0452 242.552 22.1278 242.244 22.1278C241.965 22.1278 241.744 22.0521 241.568 21.9077C241.392 21.7426 241.303 21.4812 241.303 21.1097Z" fill="white"/>
<path d="M253.9 22.0451C252.607 22.0451 251.578 21.6806 250.814 20.9445C250.065 20.1947 249.698 19.1561 249.698 17.8353C249.698 16.5008 250.035 15.4415 250.726 14.6711C251.431 13.8869 252.379 13.4879 253.577 13.4879C254.671 13.4879 255.546 13.8319 256.192 14.506C256.839 15.187 257.162 16.0881 257.162 17.2025V18.0004H251.079C251.093 18.9772 251.351 19.7201 251.843 20.2291C252.35 20.7244 253.055 20.972 253.959 20.972C254.914 20.972 255.854 20.7794 256.78 20.3942V21.5223C256.31 21.7081 255.854 21.8388 255.428 21.9076C255.017 21.997 254.502 22.0451 253.9 22.0451ZM253.547 14.5335C252.842 14.5335 252.269 14.7536 251.843 15.1939C251.431 15.6204 251.182 16.2119 251.108 16.9824H255.722C255.722 16.1982 255.531 15.5928 255.164 15.1664C254.789 14.7468 254.253 14.5335 253.547 14.5335Z" fill="white"/>
<path d="M260.788 21.9076H259.436V10.1587H260.788V21.9076Z" fill="white"/>
<path d="M264.879 13.6257V18.9911C264.879 19.6721 265.04 20.1743 265.378 20.5045C265.709 20.8346 266.216 20.9997 266.907 20.9997C267.825 20.9997 268.501 20.7727 268.934 20.3119C269.361 19.8372 269.581 19.0599 269.581 17.9731V13.6257H270.933V21.9077H269.816L269.61 20.8071H269.552C269.272 21.213 268.89 21.5225 268.405 21.7426C267.913 21.9421 267.355 22.0453 266.73 22.0453C265.672 22.0453 264.864 21.8114 264.32 21.3299C263.791 20.8553 263.527 20.0917 263.527 19.0462V13.6257H264.879Z" fill="white"/>
<path d="M279.192 21.9076L278.927 20.7244H278.869C278.413 21.2403 277.972 21.5911 277.546 21.77C277.113 21.9488 276.562 22.0451 275.9 22.0451C275.033 22.0451 274.35 21.8388 273.843 21.4123C273.351 20.9927 273.109 20.3942 273.109 19.6238C273.109 17.9591 274.534 17.0787 277.399 16.9824L278.898 16.9548V16.4321C278.898 15.7923 278.736 15.3177 278.428 15.0013C278.134 14.6917 277.664 14.5335 277.017 14.5335C276.268 14.5335 275.438 14.7468 274.519 15.1664L274.108 14.2033C274.534 13.9832 275.004 13.8112 275.518 13.6806C276.047 13.5567 276.562 13.4879 277.076 13.4879C278.134 13.4879 278.913 13.7081 279.427 14.1483C279.934 14.5885 280.191 15.2971 280.191 16.267V21.9076H279.192ZM276.165 21.0271C277.002 21.0271 277.664 20.8207 278.134 20.3942C278.604 19.954 278.839 19.3487 278.839 18.5782V17.8353L277.517 17.8904C276.459 17.9316 275.695 18.083 275.225 18.3581C274.754 18.6333 274.519 19.0597 274.519 19.6238C274.519 20.0847 274.651 20.4355 274.931 20.6694C275.225 20.9101 275.636 21.0271 276.165 21.0271Z" fill="white"/>
<path d="M288.38 21.9076L288.116 20.7244H288.057C287.601 21.2403 287.161 21.5911 286.734 21.77C286.301 21.9488 285.75 22.0451 285.089 22.0451C284.222 22.0451 283.538 21.8388 283.031 21.4123C282.539 20.9927 282.297 20.3942 282.297 19.6238C282.297 17.9591 283.722 17.0787 286.587 16.9824L288.086 16.9548V16.4321C288.086 15.7923 287.925 15.3177 287.616 15.0013C287.322 14.6917 286.852 14.5335 286.205 14.5335C285.456 14.5335 284.626 14.7468 283.707 15.1664L283.296 14.2033C283.722 13.9832 284.192 13.8112 284.707 13.6806C285.236 13.5567 285.75 13.4879 286.264 13.4879C287.322 13.4879 288.101 13.7081 288.615 14.1483C289.122 14.5885 289.379 15.2971 289.379 16.267V21.9076H288.38ZM285.353 21.0271C286.191 21.0271 286.852 20.8207 287.322 20.3942C287.792 19.954 288.027 19.3487 288.027 18.5782V17.8353L286.705 17.8904C285.647 17.9316 284.883 18.083 284.413 18.3581C283.942 18.6333 283.707 19.0597 283.707 19.6238C283.707 20.0847 283.84 20.4355 284.119 20.6694C284.413 20.9101 284.824 21.0271 285.353 21.0271Z" fill="white"/>
<path d="M297.833 19.6513C297.833 20.4217 297.524 21.0202 296.922 21.4398C296.312 21.8456 295.452 22.0451 294.336 22.0451C293.16 22.0451 292.249 21.88 291.602 21.5499V20.3667C292.029 20.5731 292.484 20.7382 292.954 20.862C293.439 20.972 293.909 21.0271 294.365 21.0271C295.07 21.0271 295.607 20.9308 295.981 20.7244C296.349 20.5043 296.54 20.1879 296.54 19.7614C296.54 19.4312 296.393 19.1561 296.099 18.9359C295.805 18.7021 295.225 18.4269 294.365 18.1105C293.542 17.8353 292.954 17.5877 292.602 17.3676C292.249 17.1474 291.984 16.9136 291.808 16.6522C291.647 16.377 291.573 16.0468 291.573 15.6616C291.573 14.9875 291.867 14.451 292.455 14.0658C293.042 13.6806 293.843 13.4879 294.865 13.4879C295.82 13.4879 296.753 13.6737 297.656 14.0382L297.186 15.0563C296.305 14.7124 295.496 14.5335 294.776 14.5335C294.13 14.5335 293.638 14.6298 293.307 14.8087C292.991 14.9944 292.837 15.2489 292.837 15.5791C292.837 15.7992 292.895 15.9918 293.013 16.1569C293.145 16.3082 293.344 16.4527 293.601 16.5971C293.873 16.7278 294.394 16.9273 295.158 17.2025C296.216 17.5739 296.922 17.9385 297.274 18.3031C297.642 18.6539 297.833 19.101 297.833 19.6513Z" fill="white"/>
<path d="M302.863 21.0273C303.113 21.0273 303.348 21.0135 303.569 20.9723C303.782 20.9379 303.958 20.9035 304.098 20.8622V21.8252C303.936 21.9009 303.716 21.9491 303.422 21.9903C303.143 22.0247 302.9 22.0454 302.687 22.0454C300.982 22.0454 300.13 21.213 300.13 19.5415V14.6163H298.867V14.011L300.13 13.4882L300.689 11.7272H301.453V13.6257H304.009V14.6163H301.453V19.4865C301.453 19.9817 301.578 20.3669 301.835 20.6421C302.085 20.9035 302.43 21.0273 302.863 21.0273Z" fill="white"/>
<path d="M311.282 21.9076L311.017 20.7244H310.959C310.503 21.2403 310.062 21.5911 309.636 21.77C309.203 21.9488 308.652 22.0451 307.99 22.0451C307.123 22.0451 306.44 21.8388 305.933 21.4123C305.441 20.9927 305.198 20.3942 305.198 19.6238C305.198 17.9591 306.624 17.0787 309.489 16.9824L310.988 16.9548V16.4321C310.988 15.7923 310.826 15.3177 310.518 15.0013C310.224 14.6917 309.754 14.5335 309.107 14.5335C308.358 14.5335 307.527 14.7468 306.609 15.1664L306.198 14.2033C306.624 13.9832 307.094 13.8112 307.608 13.6806C308.137 13.5567 308.652 13.4879 309.166 13.4879C310.224 13.4879 311.003 13.7081 311.517 14.1483C312.024 14.5885 312.281 15.2971 312.281 16.267V21.9076H311.282ZM308.255 21.0271C309.092 21.0271 309.754 20.8207 310.224 20.3942C310.694 19.954 310.929 19.3487 310.929 18.5782V17.8353L309.607 17.8904C308.549 17.9316 307.785 18.083 307.314 18.3581C306.844 18.6333 306.609 19.0597 306.609 19.6238C306.609 20.0847 306.741 20.4355 307.021 20.6694C307.314 20.9101 307.726 21.0271 308.255 21.0271Z" fill="white"/>
<path d="M320.734 19.6513C320.734 20.4217 320.426 21.0202 319.823 21.4398C319.214 21.8456 318.354 22.0451 317.237 22.0451C316.062 22.0451 315.151 21.88 314.504 21.5499V20.3667C314.93 20.5731 315.386 20.7382 315.856 20.862C316.341 20.972 316.811 21.0271 317.267 21.0271C317.972 21.0271 318.508 20.9308 318.883 20.7244C319.25 20.5043 319.441 20.1879 319.441 19.7614C319.441 19.4312 319.294 19.1561 319.001 18.9359C318.707 18.7021 318.126 18.4269 317.267 18.1105C316.444 17.8353 315.856 17.5877 315.503 17.3676C315.151 17.1474 314.886 16.9136 314.71 16.6522C314.548 16.377 314.475 16.0468 314.475 15.6616C314.475 14.9875 314.769 14.451 315.356 14.0658C315.944 13.6806 316.745 13.4879 317.766 13.4879C318.721 13.4879 319.654 13.6737 320.558 14.0382L320.088 15.0563C319.206 14.7124 318.398 14.5335 317.678 14.5335C317.032 14.5335 316.539 14.6298 316.209 14.8087C315.893 14.9944 315.738 15.2489 315.738 15.5791C315.738 15.7992 315.797 15.9918 315.915 16.1569C316.047 16.3082 316.245 16.4527 316.503 16.5971C316.774 16.7278 317.296 16.9273 318.06 17.2025C319.118 17.5739 319.823 17.9385 320.176 18.3031C320.543 18.6539 320.734 19.101 320.734 19.6513Z" fill="white"/>
<path d="M325.765 21.0273C326.015 21.0273 326.25 21.0135 326.47 20.9723C326.683 20.9379 326.86 20.9035 326.999 20.8622V21.8252C326.838 21.9009 326.617 21.9491 326.323 21.9903C326.044 22.0247 325.802 22.0454 325.589 22.0454C323.884 22.0454 323.032 21.213 323.032 19.5415V14.6163H321.768V14.011L323.032 13.4882L323.59 11.7272H324.354V13.6257H326.911V14.6163H324.354V19.4865C324.354 19.9817 324.479 20.3669 324.736 20.6421C324.986 20.9035 325.332 21.0273 325.765 21.0273Z" fill="white"/>
<mask id="mask0_6038_89512" style="mask-type:luminance" maskUnits="userSpaceOnUse" x="178" y="0" width="35" height="33">
<path d="M178.518 0.69603H212.278V32.304H178.518V0.69603Z" fill="white"/>
</mask>
<g mask="url(#mask0_6038_89512)">
<path d="M208.943 11.0486C209.714 12.7201 210.148 14.5636 210.148 16.5034C210.148 24.1182 203.528 30.3091 195.395 30.3091C187.261 30.3091 180.649 24.1182 180.649 16.5034C180.649 8.88864 187.261 2.69087 195.395 2.69087C197.893 2.69087 200.244 3.27557 202.308 4.30738V2.07866C202.198 2.03051 202.081 1.98924 201.963 1.94109C199.884 1.11563 197.672 0.69603 195.395 0.69603C193.117 0.69603 190.906 1.11563 188.826 1.94109C186.813 2.73902 185.013 3.87402 183.463 5.32544C181.913 6.77686 180.693 8.46904 179.841 10.3469C178.959 12.3005 178.518 14.371 178.518 16.5034C178.518 18.6359 178.959 20.7064 179.841 22.6531C180.693 24.5378 181.913 26.2231 183.463 27.6746C185.013 29.126 186.813 30.2679 188.826 31.0658C190.906 31.8844 193.117 32.304 195.395 32.304C197.672 32.304 199.884 31.8844 201.963 31.0658C203.976 30.2679 205.783 29.126 207.334 27.6746C208.884 26.2231 210.096 24.5378 210.948 22.6531C211.83 20.7064 212.278 18.6359 212.278 16.5034C212.278 14.6255 211.926 12.7889 211.242 11.0486H208.943Z" fill="#FEFEFE"/>
</g>
<path d="M191.618 24.715H189.789C189.715 24.715 189.649 24.6531 189.649 24.5843V13.0623C189.649 12.966 189.532 12.9041 189.443 12.9591L187.732 13.9428C187.636 13.991 187.518 13.929 187.518 13.8327V12.0924C187.518 12.0511 187.541 12.0099 187.585 11.9892L189.62 10.7167C189.642 10.7029 189.664 10.696 189.693 10.696H191.618C191.692 10.696 191.75 10.7511 191.75 10.8267V24.5843C191.75 24.6531 191.692 24.715 191.618 24.715Z" fill="#FEFEFE"/>
<path d="M200.427 16.4054C200.743 16.2403 200.986 15.9996 201.162 15.69C201.338 15.3805 201.427 15.0297 201.427 14.6238V14.4931C201.427 14.1079 201.338 13.7708 201.162 13.4751C200.986 13.1793 200.743 12.9454 200.427 12.7872C200.111 12.629 199.744 12.5464 199.333 12.5464C198.929 12.5464 198.561 12.629 198.245 12.7872C197.929 12.9454 197.687 13.1793 197.511 13.4751C197.334 13.7708 197.246 14.1148 197.246 14.5V14.6444C197.246 15.0434 197.334 15.3942 197.511 15.6969C197.687 15.9996 197.929 16.2403 198.245 16.4054C198.561 16.5705 198.929 16.653 199.333 16.653C199.744 16.653 200.111 16.5705 200.427 16.4054ZM200.596 22.5963C200.964 22.4175 201.243 22.1698 201.441 21.8534C201.64 21.537 201.735 21.1724 201.735 20.7528V20.6221C201.735 20.2025 201.64 19.831 201.441 19.5146C201.243 19.1982 200.964 18.9506 200.596 18.7717C200.236 18.5929 199.81 18.5103 199.333 18.5103C198.855 18.5103 198.436 18.5929 198.076 18.7717C197.709 18.9506 197.43 19.1982 197.231 19.5146C197.033 19.8379 196.937 20.2094 196.937 20.629V20.7734C196.937 21.1862 197.033 21.5576 197.231 21.8671C197.43 22.1836 197.709 22.4312 198.076 22.6032C198.436 22.7751 198.855 22.8646 199.333 22.8646C199.81 22.8646 200.236 22.7751 200.596 22.5963ZM196.996 24.2403C196.32 23.9239 195.806 23.4768 195.439 22.9058C195.071 22.328 194.888 21.6608 194.888 20.8972V20.6702C194.888 19.9824 195.071 19.3358 195.439 18.7304C195.806 18.132 196.291 17.6711 196.908 17.3616C196.386 17.1002 195.975 16.715 195.659 16.2197C195.343 15.7175 195.189 15.1879 195.189 14.6376V14.3005C195.189 13.5851 195.358 12.9523 195.703 12.4088C196.048 11.8654 196.533 11.4458 197.158 11.1431C197.782 10.8474 198.51 10.696 199.333 10.696C200.163 10.696 200.89 10.8474 201.515 11.1431C202.139 11.4458 202.624 11.8654 202.969 12.4088C203.307 12.9523 203.484 13.5851 203.484 14.3005V14.6376C203.484 15.2016 203.322 15.7313 203.006 16.2334C202.683 16.7287 202.264 17.107 201.735 17.3616C202.352 17.678 202.852 18.1389 203.227 18.7373C203.601 19.3426 203.785 19.9824 203.785 20.6702V20.8972C203.785 21.6608 203.601 22.328 203.234 22.9058C202.867 23.4768 202.352 23.9239 201.676 24.2403C201 24.5567 200.222 24.715 199.333 24.715C198.451 24.715 197.665 24.5567 196.996 24.2403Z" fill="#FEFEFE"/>
<path d="M211.637 6.66766H208.463V3.69603H206.692V6.66766H203.518V8.33232H206.692V11.3039H208.463V8.33232H211.637V6.66766Z" fill="#FEFEFE"/>
<mask id="mask1_6038_89512" style="mask-type:luminance" maskUnits="userSpaceOnUse" x="358" y="0" width="35" height="33">
<path d="M358.999 0.69603H392.759V32.304H358.999V0.69603Z" fill="white"/>
</mask>
<g mask="url(#mask1_6038_89512)">
<path d="M375.876 32.304C366.567 32.304 358.999 25.2188 358.999 16.5034C358.999 7.78116 366.574 0.69603 375.876 0.69603C380.387 0.69603 384.626 2.34006 387.815 5.32544C391.003 8.31083 392.759 12.2799 392.759 16.5034C392.759 25.2188 385.184 32.304 375.876 32.304ZM375.876 1.72784C367.177 1.72784 360.094 8.3521 360.094 16.5034C360.094 24.6479 367.177 31.2722 375.876 31.2722C384.582 31.2722 391.657 24.6479 391.657 16.5034C391.657 12.555 390.011 8.84737 387.036 6.05459C384.06 3.25493 380.093 1.72784 375.876 1.72784Z" fill="white"/>
</g>
<mask id="mask2_6038_89512" style="mask-type:luminance" maskUnits="userSpaceOnUse" x="365" y="6" width="23" height="22">
<path d="M365.2 6.50853H387.704V27.5782H365.2V6.50853Z" fill="white"/>
</mask>
<g mask="url(#mask2_6038_89512)">
<path d="M386.727 11.0898H382.694C383.796 10.2506 384.281 9.25316 384.281 8.4621C384.281 7.48532 383.509 6.50853 381.834 6.50853C379.424 6.50853 377.492 8.65471 376.456 10.168C375.391 8.64783 373.466 6.50853 371.071 6.50853C369.395 6.50853 368.624 7.48532 368.624 8.4621C368.624 9.25316 369.116 10.2506 370.211 11.0898H366.177C365.906 11.0898 365.678 11.1792 365.487 11.3581C365.296 11.5369 365.2 11.7502 365.2 12.0047V15.6642C365.2 15.9187 365.296 16.1388 365.487 16.3177C365.678 16.4965 365.906 16.5859 366.177 16.5859H367.155V26.6633C367.155 26.911 367.25 27.1311 367.441 27.3099C367.632 27.4888 367.867 27.5782 368.139 27.5782H384.773C385.037 27.5782 385.272 27.4888 385.463 27.3099C385.655 27.1311 385.75 26.911 385.75 26.6633V16.5859H386.727C386.999 16.5859 387.227 16.4965 387.418 16.3177C387.609 16.1388 387.704 15.9187 387.704 15.6642V12.0047C387.704 11.7502 387.609 11.5369 387.418 11.3581C387.227 11.1792 386.999 11.0898 386.727 11.0898ZM381.834 8.33828C381.944 8.33828 382.326 8.33828 382.326 8.48961C382.326 9.06055 381.129 10.4019 378.3 10.8972C379.211 9.71404 380.541 8.33828 381.834 8.33828ZM371.071 8.33828C372.378 8.33828 373.716 9.71404 374.627 10.8972C371.783 10.4019 370.578 9.06055 370.578 8.48961C370.578 8.33828 370.946 8.33828 371.071 8.33828ZM367.155 12.9195H375.472V14.7493H367.155V12.9195ZM369.116 16.5859H375.472V25.7484H369.116V16.5859ZM383.796 25.7484H377.433V16.5859H383.796V25.7484ZM385.75 14.7493H377.433V12.9195H385.75V14.7493Z" fill="white"/>
</g>
<path d="M405.919 22.5076C406.169 22.5076 406.404 22.4938 406.624 22.4526C406.837 22.4182 407.013 22.3838 407.153 22.3425V23.3055C406.991 23.3812 406.771 23.4293 406.477 23.4706C406.198 23.505 405.956 23.5256 405.742 23.5256C404.038 23.5256 403.186 22.6933 403.186 21.0218V16.0966H401.922V15.4912L403.186 14.9685L403.744 13.2075H404.508V15.106H407.065V16.0966H404.508V20.9667C404.508 21.462 404.633 21.8472 404.89 22.1224C405.14 22.3838 405.485 22.5076 405.919 22.5076Z" fill="white"/>
<path d="M414.337 23.3879L414.073 22.2048H414.014C413.558 22.7207 413.118 23.0715 412.692 23.2504C412.258 23.4292 411.707 23.5255 411.046 23.5255C410.179 23.5255 409.496 23.3191 408.989 22.8927C408.496 22.4731 408.254 21.8746 408.254 21.1042C408.254 19.4395 409.679 18.559 412.545 18.4627L414.043 18.4352V17.9124C414.043 17.2727 413.882 16.7981 413.573 16.4816C413.279 16.1721 412.809 16.0139 412.163 16.0139C411.413 16.0139 410.583 16.2271 409.665 16.6467L409.253 15.6837C409.679 15.4636 410.149 15.2916 410.664 15.1609C411.193 15.0371 411.707 14.9683 412.221 14.9683C413.279 14.9683 414.058 15.1884 414.572 15.6287C415.079 16.0689 415.336 16.7774 415.336 17.7473V23.3879H414.337ZM411.31 22.5074C412.148 22.5074 412.809 22.3011 413.279 21.8746C413.75 21.4344 413.985 20.829 413.985 20.0586V19.3157L412.662 19.3707C411.604 19.412 410.84 19.5633 410.37 19.8385C409.9 20.1136 409.665 20.5401 409.665 21.1042C409.665 21.5651 409.797 21.9159 410.076 22.1497C410.37 22.3905 410.781 22.5074 411.31 22.5074ZM409.753 12.8772C409.753 12.602 409.819 12.4094 409.958 12.2994C410.091 12.1893 410.26 12.1343 410.458 12.1343C410.671 12.1343 410.847 12.1893 410.987 12.2994C411.141 12.4094 411.222 12.602 411.222 12.8772C411.222 13.1179 411.141 13.3037 410.987 13.4275C410.847 13.5582 410.671 13.6201 410.458 13.6201C410.26 13.6201 410.091 13.5582 409.958 13.4275C409.819 13.3037 409.753 13.1179 409.753 12.8772ZM412.809 12.8772C412.809 12.602 412.875 12.4094 413.015 12.2994C413.169 12.1893 413.345 12.1343 413.544 12.1343C413.735 12.1343 413.904 12.1893 414.043 12.2994C414.198 12.4094 414.278 12.602 414.278 12.8772C414.278 13.1179 414.198 13.3037 414.043 13.4275C413.904 13.5582 413.735 13.6201 413.544 13.6201C413.345 13.6201 413.169 13.5582 413.015 13.4275C412.875 13.3037 412.809 13.1179 412.809 12.8772Z" fill="white"/>
<path d="M424.143 23.3878V18.0224C424.143 17.362 423.974 16.8668 423.643 16.5366C423.327 16.1927 422.82 16.0138 422.115 16.0138C421.189 16.0138 420.513 16.2546 420.087 16.7292C419.653 17.1901 419.44 17.9605 419.44 19.0405V23.3878H418.089V15.1058H419.176L419.411 16.2339H419.47C419.742 15.835 420.124 15.5185 420.616 15.2984C421.101 15.0783 421.652 14.9682 422.262 14.9682C423.334 14.9682 424.143 15.209 424.672 15.6836C425.215 16.1651 425.494 16.9356 425.494 17.9949V23.3878H424.143Z" fill="white"/>
<path d="M429.492 15.106V20.4714C429.492 21.1524 429.654 21.6546 429.992 21.9847C430.322 22.3149 430.829 22.48 431.52 22.48C432.438 22.48 433.114 22.253 433.548 21.7921C433.974 21.3175 434.194 20.5402 434.194 19.4534V15.106H435.546V23.388H434.429L434.224 22.2874H434.165C433.886 22.6933 433.504 23.0028 433.019 23.2229C432.527 23.4224 431.968 23.5256 431.344 23.5256C430.286 23.5256 429.478 23.2917 428.934 22.8102C428.405 22.3356 428.14 21.572 428.14 20.5264V15.106H429.492Z" fill="white"/>
<path d="M439.691 19.1506C439.926 18.841 440.279 18.4352 440.749 17.9399L443.6 15.1059H445.187L441.631 18.6278L445.451 23.3879H443.835L440.72 19.4808L439.691 20.2787V23.3879H438.369V11.639H439.691V17.8574C439.691 18.1325 439.669 18.5659 439.632 19.1506H439.691Z" fill="white"/>
<path d="M448.392 23.3878H447.04V15.1058H448.392V23.3878ZM446.923 12.8771C446.923 12.5881 446.996 12.3749 447.158 12.2442C447.312 12.1204 447.496 12.0516 447.716 12.0516C447.929 12.0516 448.113 12.1204 448.275 12.2442C448.429 12.3749 448.51 12.5881 448.51 12.8771C448.51 13.1522 448.429 13.3655 448.275 13.5099C448.113 13.6406 447.929 13.7025 447.716 13.7025C447.496 13.7025 447.312 13.6406 447.158 13.5099C446.996 13.3655 446.923 13.1522 446.923 12.8771Z" fill="white"/>
<path d="M457.273 23.3878V18.0224C457.273 17.362 457.104 16.8668 456.773 16.5366C456.457 16.1927 455.95 16.0138 455.245 16.0138C454.319 16.0138 453.644 16.2546 453.217 16.7292C452.784 17.1901 452.571 17.9605 452.571 19.0405V23.3878H451.219V15.1058H452.306L452.541 16.2339H452.6C452.872 15.835 453.254 15.5185 453.746 15.2984C454.231 15.0783 454.782 14.9682 455.392 14.9682C456.465 14.9682 457.273 15.209 457.802 15.6836C458.346 16.1651 458.625 16.9356 458.625 17.9949V23.3878H457.273Z" fill="white"/>
<path d="M468.589 15.1058V15.9037L466.972 16.0963C467.105 16.2614 467.237 16.4953 467.354 16.7842C467.472 17.0594 467.531 17.3827 467.531 17.7473C467.531 18.5589 467.237 19.2056 466.649 19.7008C466.061 20.1823 465.246 20.4162 464.21 20.4162C463.953 20.4162 463.71 20.3887 463.475 20.3337C462.902 20.6295 462.623 20.9872 462.623 21.4068C462.623 21.6269 462.718 21.792 462.917 21.902C463.108 22.0121 463.453 22.0671 463.945 22.0671H465.503C466.458 22.0671 467.193 22.2597 467.707 22.6449C468.236 23.0164 468.5 23.5598 468.5 24.2958C468.5 25.2107 468.096 25.9055 467.296 26.387C466.509 26.8616 465.371 27.1024 463.887 27.1024C462.726 27.1024 461.837 26.896 461.212 26.497C460.58 26.0912 460.272 25.5203 460.272 24.7911C460.272 24.2958 460.433 23.8625 460.771 23.4979C461.124 23.1333 461.609 22.8788 462.241 22.7275C462.006 22.6381 461.807 22.4936 461.653 22.2872C461.491 22.0878 461.418 21.8608 461.418 21.5994C461.418 21.2898 461.506 21.0215 461.682 20.8014C461.859 20.5813 462.131 20.3612 462.505 20.1411C462.05 19.9622 461.682 19.6595 461.389 19.2331C461.095 18.8135 460.948 18.3388 460.948 17.8023C460.948 16.8874 461.242 16.1927 461.829 15.7111C462.417 15.2159 463.24 14.9682 464.298 14.9682C464.768 14.9682 465.18 15.0164 465.532 15.1058H468.589ZM461.565 24.7636C461.565 25.2176 461.756 25.5615 462.153 25.7817C462.564 26.0155 463.137 26.1393 463.887 26.1393C465.018 26.1393 465.856 25.9811 466.385 25.6716C466.928 25.3552 467.207 24.9287 467.207 24.3784C467.207 23.9381 467.06 23.6217 466.767 23.4429C466.473 23.2778 465.914 23.1952 465.091 23.1952H463.475C462.865 23.1952 462.395 23.3328 462.064 23.608C461.726 23.8831 461.565 24.2683 461.565 24.7636ZM462.27 17.7748C462.27 18.3457 462.446 18.7791 462.799 19.068C463.152 19.3638 463.637 19.5082 464.269 19.5082C465.562 19.5082 466.208 18.9235 466.208 17.7473C466.208 16.5022 465.547 15.8762 464.239 15.8762C463.607 15.8762 463.122 16.0413 462.77 16.3715C462.432 16.6879 462.27 17.1557 462.27 17.7748Z" fill="white"/>
<path d="M471.762 23.3878H470.41V15.1058H471.762V23.3878ZM470.292 12.8771C470.292 12.5881 470.366 12.3749 470.528 12.2442C470.682 12.1204 470.866 12.0516 471.086 12.0516C471.299 12.0516 471.483 12.1204 471.644 12.2442C471.799 12.3749 471.879 12.5881 471.879 12.8771C471.879 13.1522 471.799 13.3655 471.644 13.5099C471.483 13.6406 471.299 13.7025 471.086 13.7025C470.866 13.7025 470.682 13.6406 470.528 13.5099C470.366 13.3655 470.292 13.1522 470.292 12.8771Z" fill="white"/>
<path d="M477.439 22.5076C477.689 22.5076 477.924 22.4938 478.145 22.4526C478.358 22.4182 478.534 22.3838 478.674 22.3425V23.3055C478.512 23.3812 478.292 23.4293 477.998 23.4706C477.719 23.505 477.476 23.5256 477.263 23.5256C475.558 23.5256 474.706 22.6933 474.706 21.0218V16.0966H473.443V15.4912L474.706 14.9685L475.265 13.2075H476.029V15.106H478.585V16.0966H476.029V20.9667C476.029 21.462 476.154 21.8472 476.411 22.1224C476.661 22.3838 477.006 22.5076 477.439 22.5076Z" fill="white"/>
<path d="M481.685 15.106V20.4714C481.685 21.1524 481.846 21.6546 482.184 21.9847C482.515 22.3149 483.022 22.48 483.712 22.48C484.631 22.48 485.307 22.253 485.74 21.7921C486.166 21.3175 486.387 20.5402 486.387 19.4534V15.106H487.739V23.388H486.622L486.416 22.2874H486.357C486.078 22.6933 485.696 23.0028 485.211 23.2229C484.719 23.4224 484.161 23.5256 483.536 23.5256C482.478 23.5256 481.67 23.2917 481.126 22.8102C480.597 22.3356 480.333 21.572 480.333 20.5264V15.106H481.685Z" fill="white"/>
<path d="M496.262 21.1316C496.262 21.902 495.954 22.5005 495.351 22.9201C494.741 23.3259 493.882 23.5254 492.765 23.5254C491.59 23.5254 490.679 23.3603 490.032 23.0301V21.847C490.458 22.0534 490.914 22.2185 491.384 22.3423C491.869 22.4523 492.339 22.5074 492.795 22.5074C493.5 22.5074 494.036 22.4111 494.411 22.2047C494.778 21.9846 494.969 21.6682 494.969 21.2417C494.969 20.9115 494.822 20.6363 494.528 20.4162C494.235 20.1823 493.654 19.9072 492.795 19.5908C491.972 19.3156 491.384 19.068 491.031 18.8479C490.679 18.6277 490.414 18.3939 490.238 18.1325C490.076 17.8573 490.003 17.5271 490.003 17.1419C490.003 16.4678 490.297 15.9313 490.884 15.546C491.472 15.1608 492.273 14.9682 493.294 14.9682C494.249 14.9682 495.182 15.154 496.086 15.5185L495.616 16.5366C494.734 16.1927 493.926 16.0138 493.206 16.0138C492.559 16.0138 492.067 16.1101 491.737 16.289C491.421 16.4747 491.266 16.7292 491.266 17.0594C491.266 17.2795 491.325 17.4721 491.443 17.6372C491.575 17.7885 491.773 17.933 492.03 18.0774C492.302 18.2081 492.824 18.4076 493.588 18.6828C494.646 19.0542 495.351 19.4188 495.704 19.7834C496.071 20.1342 496.262 20.5813 496.262 21.1316Z" fill="white"/>
</svg>
