<svg width="238" height="138" viewBox="0 0 238 138" fill="none" xmlns="http://www.w3.org/2000/svg">
<g clip-path="url(#clip0)">
<path d="M41.8512 98.9504H38.1293V101.994H42.4529V102.92H36.9968V94.3319H42.3939V95.2639H38.1293V98.0243H41.8512V98.9504ZM47.5255 102.289C47.1009 102.788 46.4776 103.038 45.6557 103.038C44.9755 103.038 44.4564 102.841 44.0986 102.448C43.7446 102.051 43.5657 101.465 43.5618 100.69V96.5379H44.653V100.661C44.653 101.628 45.0462 102.112 45.8327 102.112C46.6663 102.112 47.2208 101.801 47.4961 101.18V96.5379H48.5873V102.92H47.5491L47.5255 102.289ZM53.3355 97.5171C53.1704 97.4895 52.9914 97.4758 52.7988 97.4758C52.0831 97.4758 51.5974 97.7805 51.3418 98.39V102.92H50.2506V96.5379H51.3123L51.33 97.2752C51.6879 96.7051 52.1951 96.42 52.8518 96.42C53.0642 96.42 53.2254 96.4475 53.3355 96.5025V97.5171ZM53.9371 99.67C53.9371 99.0448 54.059 98.4825 54.3029 97.9831C54.5506 97.4837 54.8927 97.0983 55.3292 96.827C55.7696 96.5556 56.271 96.42 56.8333 96.42C57.7023 96.42 58.4042 96.7208 58.939 97.3224C59.4777 97.9241 59.7471 98.7243 59.7471 99.7231V99.7998C59.7471 100.421 59.6272 100.979 59.3873 101.475C59.1514 101.966 58.8112 102.35 58.3669 102.625C57.9265 102.9 57.4192 103.038 56.8451 103.038C55.98 103.038 55.2781 102.737 54.7393 102.136C54.2045 101.534 53.9371 100.738 53.9371 99.7467V99.67ZM55.0343 99.7998C55.0343 100.508 55.1974 101.076 55.5238 101.504C55.8541 101.933 56.2946 102.147 56.8451 102.147C57.3995 102.147 57.8399 101.931 58.1663 101.499C58.4927 101.062 58.6559 100.453 58.6559 99.67C58.6559 98.9701 58.4888 98.4038 58.1545 97.9713C57.8242 97.5348 57.3838 97.3165 56.8333 97.3165C56.2946 97.3165 55.86 97.5308 55.5297 97.9595C55.1994 98.3881 55.0343 99.0015 55.0343 99.7998ZM60.8265 99.67C60.8265 99.0448 60.9484 98.4825 61.1922 97.9831C61.44 97.4837 61.7821 97.0983 62.2186 96.827C62.659 96.5556 63.1603 96.42 63.7227 96.42C64.5917 96.42 65.2936 96.7208 65.8284 97.3224C66.3671 97.9241 66.6365 98.7243 66.6365 99.7231V99.7998C66.6365 100.421 66.5165 100.979 66.2767 101.475C66.0407 101.966 65.7006 102.35 65.2562 102.625C64.8158 102.9 64.3086 103.038 63.7345 103.038C62.8693 103.038 62.1674 102.737 61.6287 102.136C61.0939 101.534 60.8265 100.738 60.8265 99.7467V99.67ZM61.9236 99.7998C61.9236 100.508 62.0868 101.076 62.4132 101.504C62.7435 101.933 63.1839 102.147 63.7345 102.147C64.2889 102.147 64.7293 101.931 65.0557 101.499C65.3821 101.062 65.5453 100.453 65.5453 99.67C65.5453 98.9701 65.3781 98.4038 65.0439 97.9713C64.7136 97.5348 64.2732 97.3165 63.7227 97.3165C63.1839 97.3165 62.7494 97.5308 62.4191 97.9595C62.0888 98.3881 61.9236 99.0015 61.9236 99.7998ZM73.3961 99.7998C73.3961 100.771 73.1739 101.554 72.7296 102.147C72.2852 102.741 71.6836 103.038 70.9246 103.038C70.15 103.038 69.5405 102.792 69.0961 102.301V105.374H68.0049V96.5379H69.0018L69.0548 97.2457C69.4992 96.6952 70.1166 96.42 70.907 96.42C71.6737 96.42 72.2793 96.709 72.7237 97.287C73.172 97.8651 73.3961 98.6692 73.3961 99.6995V99.7998ZM72.3049 99.6759C72.3049 98.9563 72.1515 98.3881 71.8448 97.9713C71.5381 97.5544 71.1173 97.346 70.5825 97.346C69.9219 97.346 69.4264 97.639 69.0961 98.2249V101.274C69.4225 101.856 69.9219 102.147 70.5943 102.147C71.1173 102.147 71.5322 101.941 71.8389 101.528C72.1496 101.111 72.3049 100.494 72.3049 99.6759ZM78.7283 102.92C78.6654 102.794 78.6142 102.57 78.5749 102.248C78.0677 102.775 77.4621 103.038 76.7582 103.038C76.129 103.038 75.6119 102.861 75.2069 102.507C74.8058 102.149 74.6053 101.697 74.6053 101.151C74.6053 100.486 74.8569 99.9708 75.3603 99.6051C75.8675 99.2355 76.5793 99.0507 77.4955 99.0507H78.5572V98.5493C78.5572 98.1679 78.4432 97.8651 78.2151 97.6409C77.987 97.4129 77.6508 97.2988 77.2065 97.2988C76.8172 97.2988 76.4908 97.3971 76.2273 97.5938C75.9639 97.7904 75.8321 98.0283 75.8321 98.3075H74.735C74.735 97.989 74.8471 97.6822 75.0712 97.3873C75.2993 97.0885 75.606 96.8525 75.9914 96.6795C76.3807 96.5065 76.8074 96.42 77.2714 96.42C78.0067 96.42 78.5828 96.6048 78.9996 96.9744C79.4164 97.3401 79.6327 97.8454 79.6484 98.4903V101.428C79.6484 102.014 79.7231 102.48 79.8726 102.826V102.92H78.7283ZM76.9175 102.088C77.2596 102.088 77.584 102 77.8907 101.823C78.1974 101.646 78.4196 101.416 78.5572 101.133V99.8234H77.702C76.365 99.8234 75.6965 100.215 75.6965 100.997C75.6965 101.339 75.8105 101.607 76.0386 101.799C76.2667 101.992 76.5596 102.088 76.9175 102.088ZM85.6648 101.994H89.7348V102.92H84.5264V94.3319H85.6648V101.994ZM92.0411 102.92H90.9498V96.5379H92.0411V102.92ZM90.8614 94.8451C90.8614 94.6681 90.9145 94.5187 91.0206 94.3968C91.1307 94.2749 91.292 94.214 91.5043 94.214C91.7166 94.214 91.8779 94.2749 91.988 94.3968C92.0981 94.5187 92.1531 94.6681 92.1531 94.8451C92.1531 95.022 92.0981 95.1695 91.988 95.2875C91.8779 95.4054 91.7166 95.4644 91.5043 95.4644C91.292 95.4644 91.1307 95.4054 91.0206 95.2875C90.9145 95.1695 90.8614 95.022 90.8614 94.8451ZM94.9785 102.92H93.8873V96.5379H94.9785V102.92ZM93.7988 94.8451C93.7988 94.6681 93.8519 94.5187 93.958 94.3968C94.0682 94.2749 94.2294 94.214 94.4417 94.214C94.6541 94.214 94.8153 94.2749 94.9254 94.3968C95.0355 94.5187 95.0905 94.6681 95.0905 94.8451C95.0905 95.022 95.0355 95.1695 94.9254 95.2875C94.8153 95.4054 94.6541 95.4644 94.4417 95.4644C94.2294 95.4644 94.0682 95.4054 93.958 95.2875C93.8519 95.1695 93.7988 95.022 93.7988 94.8451ZM98.2108 94.9925V96.5379H99.4023V97.3814H98.2108V101.339C98.2108 101.595 98.2639 101.788 98.3701 101.917C98.4762 102.043 98.6571 102.106 98.9127 102.106C99.0386 102.106 99.2116 102.082 99.4318 102.035V102.92C99.1447 102.999 98.8655 103.038 98.5942 103.038C98.1066 103.038 97.7389 102.891 97.4912 102.596C97.2435 102.301 97.1196 101.882 97.1196 101.339V97.3814H95.9576V96.5379H97.1196V94.9925H98.2108Z" fill="#231F20"/>
<path d="M50.8512 111.95H47.1293V114.994H51.4529V115.92H45.9968V107.332H51.3939V108.264H47.1293V111.024H50.8512V111.95ZM56.5255 115.289C56.1009 115.788 55.4776 116.038 54.6557 116.038C53.9755 116.038 53.4564 115.841 53.0986 115.448C52.7446 115.051 52.5657 114.465 52.5618 113.69V109.538H53.653V113.661C53.653 114.628 54.0462 115.112 54.8327 115.112C55.6663 115.112 56.2208 114.801 56.4961 114.18V109.538H57.5873V115.92H56.5491L56.5255 115.289ZM62.3355 110.517C62.1704 110.49 61.9914 110.476 61.7988 110.476C61.0831 110.476 60.5974 110.781 60.3418 111.39V115.92H59.2506V109.538H60.3123L60.33 110.275C60.6879 109.705 61.1951 109.42 61.8518 109.42C62.0642 109.42 62.2254 109.447 62.3355 109.503V110.517ZM62.9371 112.67C62.9371 112.045 63.059 111.482 63.3029 110.983C63.5506 110.484 63.8927 110.098 64.3292 109.827C64.7696 109.556 65.271 109.42 65.8333 109.42C66.7023 109.42 67.4042 109.721 67.939 110.322C68.4777 110.924 68.7471 111.724 68.7471 112.723V112.8C68.7471 113.421 68.6272 113.979 68.3873 114.475C68.1514 114.966 67.8112 115.35 67.3669 115.625C66.9265 115.9 66.4192 116.038 65.8451 116.038C64.98 116.038 64.2781 115.737 63.7393 115.136C63.2045 114.534 62.9371 113.738 62.9371 112.747V112.67ZM64.0343 112.8C64.0343 113.508 64.1974 114.076 64.5238 114.504C64.8541 114.933 65.2946 115.147 65.8451 115.147C66.3995 115.147 66.8399 114.931 67.1663 114.499C67.4927 114.062 67.6559 113.453 67.6559 112.67C67.6559 111.97 67.4888 111.404 67.1545 110.971C66.8242 110.535 66.3838 110.317 65.8333 110.317C65.2946 110.317 64.86 110.531 64.5297 110.959C64.1994 111.388 64.0343 112.002 64.0343 112.8ZM69.8265 112.67C69.8265 112.045 69.9484 111.482 70.1922 110.983C70.44 110.484 70.7821 110.098 71.2186 109.827C71.659 109.556 72.1603 109.42 72.7227 109.42C73.5917 109.42 74.2936 109.721 74.8284 110.322C75.3671 110.924 75.6365 111.724 75.6365 112.723V112.8C75.6365 113.421 75.5165 113.979 75.2767 114.475C75.0407 114.966 74.7006 115.35 74.2562 115.625C73.8158 115.9 73.3086 116.038 72.7345 116.038C71.8693 116.038 71.1674 115.737 70.6287 115.136C70.0939 114.534 69.8265 113.738 69.8265 112.747V112.67ZM70.9236 112.8C70.9236 113.508 71.0868 114.076 71.4132 114.504C71.7435 114.933 72.1839 115.147 72.7345 115.147C73.2889 115.147 73.7293 114.931 74.0557 114.499C74.3821 114.062 74.5453 113.453 74.5453 112.67C74.5453 111.97 74.3781 111.404 74.0439 110.971C73.7136 110.535 73.2732 110.317 72.7227 110.317C72.1839 110.317 71.7494 110.531 71.4191 110.959C71.0888 111.388 70.9236 112.002 70.9236 112.8ZM82.3961 112.8C82.3961 113.771 82.1739 114.554 81.7296 115.147C81.2852 115.741 80.6836 116.038 79.9246 116.038C79.15 116.038 78.5405 115.792 78.0961 115.301V118.374H77.0049V109.538H78.0018L78.0548 110.246C78.4992 109.695 79.1166 109.42 79.907 109.42C80.6737 109.42 81.2793 109.709 81.7237 110.287C82.172 110.865 82.3961 111.669 82.3961 112.699V112.8ZM81.3049 112.676C81.3049 111.956 81.1515 111.388 80.8448 110.971C80.5381 110.554 80.1173 110.346 79.5825 110.346C78.9219 110.346 78.4264 110.639 78.0961 111.225V114.274C78.4225 114.856 78.9219 115.147 79.5943 115.147C80.1173 115.147 80.5322 114.941 80.8389 114.528C81.1496 114.111 81.3049 113.494 81.3049 112.676ZM87.7283 115.92C87.6654 115.794 87.6142 115.57 87.5749 115.248C87.0677 115.775 86.4621 116.038 85.7582 116.038C85.129 116.038 84.6119 115.861 84.2069 115.507C83.8058 115.149 83.6053 114.697 83.6053 114.151C83.6053 113.486 83.8569 112.971 84.3603 112.605C84.8675 112.235 85.5793 112.051 86.4955 112.051H87.5572V111.549C87.5572 111.168 87.4432 110.865 87.2151 110.641C86.987 110.413 86.6508 110.299 86.2065 110.299C85.8172 110.299 85.4908 110.397 85.2273 110.594C84.9639 110.79 84.8321 111.028 84.8321 111.307H83.735C83.735 110.989 83.8471 110.682 84.0712 110.387C84.2993 110.088 84.606 109.853 84.9914 109.679C85.3807 109.506 85.8074 109.42 86.2714 109.42C87.0067 109.42 87.5828 109.605 87.9996 109.974C88.4164 110.34 88.6327 110.845 88.6484 111.49V114.428C88.6484 115.014 88.7231 115.48 88.8726 115.826V115.92H87.7283ZM85.9175 115.088C86.2596 115.088 86.584 115 86.8907 114.823C87.1974 114.646 87.4196 114.416 87.5572 114.133V112.823H86.702C85.365 112.823 84.6965 113.215 84.6965 113.997C84.6965 114.339 84.8105 114.607 85.0386 114.799C85.2667 114.992 85.5596 115.088 85.9175 115.088Z" fill="#231F20"/>
<path d="M10.1466 124.446H8.12934V127.92H6.99094V119.332H9.83398C10.8013 119.332 11.5445 119.552 12.0636 119.993C12.5866 120.433 12.8481 121.074 12.8481 121.915C12.8481 122.45 12.7026 122.916 12.4116 123.313C12.1245 123.711 11.7235 124.007 11.2083 124.204L13.2256 127.849V127.92H12.0105L10.1466 124.446ZM8.12934 123.52H9.86937C10.4317 123.52 10.878 123.374 11.2083 123.083C11.5426 122.792 11.7097 122.403 11.7097 121.915C11.7097 121.385 11.5504 120.978 11.2319 120.694C10.9173 120.411 10.4612 120.268 9.86348 120.264H8.12934V123.52ZM16.918 128.038C16.0529 128.038 15.349 127.755 14.8064 127.189C14.2637 126.618 13.9924 125.858 13.9924 124.906V124.705C13.9924 124.072 14.1123 123.508 14.3522 123.013C14.596 122.513 14.9342 122.124 15.3667 121.845C15.8032 121.562 16.2751 121.42 16.7823 121.42C17.6121 121.42 18.257 121.693 18.717 122.24C19.1771 122.786 19.4071 123.569 19.4071 124.587V125.042H15.0836C15.0993 125.671 15.2822 126.18 15.6321 126.569C15.9861 126.955 16.4343 127.147 16.977 127.147C17.3624 127.147 17.6887 127.069 17.9561 126.911C18.2235 126.754 18.4575 126.546 18.658 126.286L19.3246 126.805C18.7898 127.627 17.9876 128.038 16.918 128.038ZM16.7823 122.317C16.3419 122.317 15.9723 122.478 15.6734 122.8C15.3746 123.119 15.1898 123.567 15.119 124.145H18.3159V124.062C18.2845 123.508 18.1351 123.079 17.8677 122.777C17.6003 122.47 17.2385 122.317 16.7823 122.317ZM20.4158 124.676C20.4158 123.681 20.6458 122.891 21.1059 122.305C21.566 121.715 22.1755 121.42 22.9344 121.42C23.713 121.42 24.3205 121.695 24.757 122.246L24.8101 121.538H25.807V127.767C25.807 128.592 25.5612 129.243 25.0696 129.719C24.582 130.195 23.9254 130.433 23.0996 130.433C22.6395 130.433 22.1892 130.334 21.7488 130.138C21.3084 129.941 20.9722 129.672 20.7402 129.33L21.3064 128.675C21.7744 129.253 22.3465 129.542 23.0229 129.542C23.5537 129.542 23.9666 129.393 24.2616 129.094C24.5604 128.795 24.7098 128.374 24.7098 127.832V127.283C24.2734 127.786 23.6776 128.038 22.9226 128.038C22.1755 128.038 21.5699 127.737 21.1059 127.136C20.6458 126.534 20.4158 125.714 20.4158 124.676ZM21.5129 124.8C21.5129 125.519 21.6604 126.086 21.9553 126.499C22.2502 126.907 22.6631 127.112 23.1939 127.112C23.8821 127.112 24.3874 126.799 24.7098 126.174V123.26C24.3756 122.651 23.8742 122.346 23.2057 122.346C22.6749 122.346 22.26 122.552 21.9612 122.965C21.6623 123.378 21.5129 123.99 21.5129 124.8ZM28.6441 127.92H27.5529V121.538H28.6441V127.92ZM27.4644 119.845C27.4644 119.668 27.5175 119.519 27.6237 119.397C27.7338 119.275 27.895 119.214 28.1073 119.214C28.3197 119.214 28.4809 119.275 28.591 119.397C28.7011 119.519 28.7562 119.668 28.7562 119.845C28.7562 120.022 28.7011 120.169 28.591 120.287C28.4809 120.405 28.3197 120.464 28.1073 120.464C27.895 120.464 27.7338 120.405 27.6237 120.287C27.5175 120.169 27.4644 120.022 27.4644 119.845ZM30.1069 124.67C30.1069 124.045 30.2288 123.482 30.4726 122.983C30.7204 122.484 31.0625 122.098 31.4989 121.827C31.9394 121.556 32.4407 121.42 33.003 121.42C33.8721 121.42 34.574 121.721 35.1088 122.322C35.6475 122.924 35.9169 123.724 35.9169 124.723V124.8C35.9169 125.421 35.7969 125.979 35.5571 126.475C35.3211 126.966 34.981 127.35 34.5366 127.625C34.0962 127.9 33.589 128.038 33.0148 128.038C32.1497 128.038 31.4478 127.737 30.9091 127.136C30.3743 126.534 30.1069 125.738 30.1069 124.747V124.67ZM31.204 124.8C31.204 125.508 31.3672 126.076 31.6936 126.504C32.0239 126.933 32.4643 127.147 33.0148 127.147C33.5693 127.147 34.0097 126.931 34.3361 126.499C34.6625 126.062 34.8257 125.453 34.8257 124.67C34.8257 123.97 34.6585 123.404 34.3243 122.971C33.994 122.535 33.5536 122.317 33.003 122.317C32.4643 122.317 32.0298 122.531 31.6995 122.959C31.3692 123.388 31.204 124.002 31.204 124.8ZM38.3175 121.538L38.3529 122.34C38.8405 121.727 39.4776 121.42 40.264 121.42C41.6128 121.42 42.2931 122.181 42.3049 123.703V127.92H41.2137V123.697C41.2097 123.237 41.1036 122.897 40.8952 122.676C40.6907 122.456 40.3702 122.346 39.9337 122.346C39.5798 122.346 39.2692 122.44 39.0018 122.629C38.7344 122.818 38.5259 123.066 38.3765 123.372V127.92H37.2853V121.538H38.3175ZM47.8907 127.92C47.8278 127.794 47.7767 127.57 47.7373 127.248C47.2301 127.775 46.6245 128.038 45.9206 128.038C45.2915 128.038 44.7744 127.861 44.3693 127.507C43.9682 127.149 43.7677 126.697 43.7677 126.151C43.7677 125.486 44.0194 124.971 44.5227 124.605C45.03 124.235 45.7417 124.051 46.6579 124.051H47.7196V123.549C47.7196 123.168 47.6056 122.865 47.3775 122.641C47.1495 122.413 46.8133 122.299 46.3689 122.299C45.9796 122.299 45.6532 122.397 45.3898 122.594C45.1263 122.79 44.9946 123.028 44.9946 123.307H43.8975C43.8975 122.989 44.0095 122.682 44.2337 122.387C44.4617 122.088 44.7685 121.853 45.1538 121.679C45.5431 121.506 45.9698 121.42 46.4338 121.42C47.1691 121.42 47.7452 121.605 48.162 121.974C48.5789 122.34 48.7951 122.845 48.8109 123.49V126.428C48.8109 127.014 48.8856 127.48 49.035 127.826V127.92H47.8907ZM46.0799 127.088C46.422 127.088 46.7464 127 47.0531 126.823C47.3598 126.646 47.582 126.416 47.7196 126.133V124.823H46.8644C45.5274 124.823 44.8589 125.215 44.8589 125.997C44.8589 126.339 44.9729 126.607 45.201 126.799C45.4291 126.992 45.722 127.088 46.0799 127.088ZM54.4616 127.92C54.3986 127.794 54.3475 127.57 54.3082 127.248C53.8009 127.775 53.1954 128.038 52.4915 128.038C51.8623 128.038 51.3452 127.861 50.9402 127.507C50.5391 127.149 50.3386 126.697 50.3386 126.151C50.3386 125.486 50.5902 124.971 51.0936 124.605C51.6008 124.235 52.3126 124.051 53.2288 124.051H54.2905V123.549C54.2905 123.168 54.1765 122.865 53.9484 122.641C53.7203 122.413 53.3841 122.299 52.9398 122.299C52.5505 122.299 52.2241 122.397 51.9606 122.594C51.6972 122.79 51.5654 123.028 51.5654 123.307H50.4683C50.4683 122.989 50.5804 122.682 50.8045 122.387C51.0326 122.088 51.3393 121.853 51.7247 121.679C52.114 121.506 52.5406 121.42 53.0046 121.42C53.74 121.42 54.3161 121.605 54.7329 121.974C55.1497 122.34 55.366 122.845 55.3817 123.49V126.428C55.3817 127.014 55.4564 127.48 55.6059 127.826V127.92H54.4616ZM52.6507 127.088C52.9929 127.088 53.3173 127 53.624 126.823C53.9307 126.646 54.1529 126.416 54.2905 126.133V124.823H53.4352C52.0983 124.823 51.4298 125.215 51.4298 125.997C51.4298 126.339 51.5438 126.607 51.7719 126.799C51.9999 126.992 52.2929 127.088 52.6507 127.088ZM58.2779 127.92H57.1866V118.86H58.2779V127.92ZM63.9698 127.92C63.9069 127.794 63.8558 127.57 63.8165 127.248C63.3092 127.775 62.7036 128.038 61.9998 128.038C61.3706 128.038 60.8535 127.861 60.4485 127.507C60.0474 127.149 59.8468 126.697 59.8468 126.151C59.8468 125.486 60.0985 124.971 60.6018 124.605C61.1091 124.235 61.8208 124.051 62.7371 124.051H63.7988V123.549C63.7988 123.168 63.6848 122.865 63.4567 122.641C63.2286 122.413 62.8924 122.299 62.448 122.299C62.0588 122.299 61.7324 122.397 61.4689 122.594C61.2054 122.79 61.0737 123.028 61.0737 123.307H59.9766C59.9766 122.989 60.0887 122.682 60.3128 122.387C60.5409 122.088 60.8476 121.853 61.233 121.679C61.6223 121.506 62.0489 121.42 62.5129 121.42C63.2483 121.42 63.8243 121.605 64.2412 121.974C64.658 122.34 64.8743 122.845 64.89 123.49V126.428C64.89 127.014 64.9647 127.48 65.1141 127.826V127.92H63.9698ZM62.159 127.088C62.5011 127.088 62.8255 127 63.1323 126.823C63.439 126.646 63.6612 126.416 63.7988 126.133V124.823H62.9435C61.6065 124.823 60.938 125.215 60.938 125.997C60.938 126.339 61.0521 126.607 61.2802 126.799C61.5082 126.992 61.8012 127.088 62.159 127.088ZM69.6854 122.517C69.5203 122.49 69.3414 122.476 69.1487 122.476C68.433 122.476 67.9474 122.781 67.6918 123.39V127.92H66.6005V121.538H67.6623L67.68 122.275C68.0378 121.705 68.5451 121.42 69.2018 121.42C69.4141 121.42 69.5753 121.447 69.6854 121.503V122.517ZM73.2245 128.038C72.3594 128.038 71.6555 127.755 71.1129 127.189C70.5702 126.618 70.2989 125.858 70.2989 124.906V124.705C70.2989 124.072 70.4188 123.508 70.6587 123.013C70.9025 122.513 71.2407 122.124 71.6732 121.845C72.1097 121.562 72.5816 121.42 73.0888 121.42C73.9185 121.42 74.5634 121.693 75.0235 122.24C75.4836 122.786 75.7136 123.569 75.7136 124.587V125.042H71.3901C71.4058 125.671 71.5887 126.18 71.9386 126.569C72.2925 126.955 72.7408 127.147 73.2835 127.147C73.6688 127.147 73.9952 127.069 74.2626 126.911C74.53 126.754 74.764 126.546 74.9645 126.286L75.6311 126.805C75.0963 127.627 74.2941 128.038 73.2245 128.038ZM73.0888 122.317C72.6484 122.317 72.2788 122.478 71.9799 122.8C71.6811 123.119 71.4963 123.567 71.4255 124.145H74.6224V124.062C74.591 123.508 74.4415 123.079 74.1741 122.777C73.9067 122.47 73.545 122.317 73.0888 122.317ZM78.014 121.538L78.0494 122.34C78.537 121.727 79.174 121.42 79.9605 121.42C81.3093 121.42 81.9896 122.181 82.0014 123.703V127.92H80.9102V123.697C80.9062 123.237 80.8 122.897 80.5916 122.676C80.3872 122.456 80.0667 122.346 79.6302 122.346C79.2763 122.346 78.9656 122.44 78.6982 122.629C78.4308 122.818 78.2224 123.066 78.073 123.372V127.92H76.9818V121.538H78.014ZM83.3875 124.676C83.3875 123.681 83.6175 122.891 84.0776 122.305C84.5377 121.715 85.1472 121.42 85.9061 121.42C86.6847 121.42 87.2923 121.695 87.7288 122.246L87.7818 121.538H88.7787V127.767C88.7787 128.592 88.5329 129.243 88.0414 129.719C87.5538 130.195 86.8971 130.433 86.0713 130.433C85.6112 130.433 85.161 130.334 84.7205 130.138C84.2801 129.941 83.9439 129.672 83.7119 129.33L84.2782 128.675C84.7461 129.253 85.3183 129.542 85.9946 129.542C86.5255 129.542 86.9384 129.393 87.2333 129.094C87.5321 128.795 87.6816 128.374 87.6816 127.832V127.283C87.2451 127.786 86.6493 128.038 85.8943 128.038C85.1472 128.038 84.5416 127.737 84.0776 127.136C83.6175 126.534 83.3875 125.714 83.3875 124.676ZM84.4846 124.8C84.4846 125.519 84.6321 126.086 84.927 126.499C85.2219 126.907 85.6348 127.112 86.1657 127.112C86.8538 127.112 87.3591 126.799 87.6816 126.174V123.26C87.3473 122.651 86.846 122.346 86.1775 122.346C85.6466 122.346 85.2317 122.552 84.9329 122.965C84.634 123.378 84.4846 123.99 84.4846 124.8ZM94.3704 127.289C93.9457 127.788 93.3224 128.038 92.5006 128.038C91.8203 128.038 91.3012 127.841 90.9434 127.448C90.5895 127.051 90.4106 126.465 90.4066 125.69V121.538H91.4979V125.661C91.4979 126.628 91.8911 127.112 92.6775 127.112C93.5112 127.112 94.0656 126.801 94.3409 126.18V121.538H95.4321V127.92H94.394L94.3704 127.289ZM104.999 124.127H101.395V127.92H100.263V119.332H105.583V120.264H101.395V123.201H104.999V124.127ZM106.35 124.67C106.35 124.045 106.472 123.482 106.716 122.983C106.964 122.484 107.306 122.098 107.742 121.827C108.183 121.556 108.684 121.42 109.246 121.42C110.115 121.42 110.817 121.721 111.352 122.322C111.891 122.924 112.16 123.724 112.16 124.723V124.8C112.16 125.421 112.04 125.979 111.8 126.475C111.564 126.966 111.224 127.35 110.78 127.625C110.339 127.9 109.832 128.038 109.258 128.038C108.393 128.038 107.691 127.737 107.152 127.136C106.618 126.534 106.35 125.738 106.35 124.747V124.67ZM107.447 124.8C107.447 125.508 107.61 126.076 107.937 126.504C108.267 126.933 108.708 127.147 109.258 127.147C109.813 127.147 110.253 126.931 110.579 126.499C110.906 126.062 111.069 125.453 111.069 124.67C111.069 123.97 110.902 123.404 110.568 122.971C110.237 122.535 109.797 122.317 109.246 122.317C108.708 122.317 108.273 122.531 107.943 122.959C107.612 123.388 107.447 124.002 107.447 124.8ZM114.561 121.538L114.596 122.34C115.084 121.727 115.721 121.42 116.507 121.42C117.856 121.42 118.536 122.181 118.548 123.703V127.92H117.457V123.697C117.453 123.237 117.347 122.897 117.138 122.676C116.934 122.456 116.613 122.346 116.177 122.346C115.823 122.346 115.512 122.44 115.245 122.629C114.978 122.818 114.769 123.066 114.62 123.372V127.92H113.529V121.538H114.561ZM119.928 124.676C119.928 123.697 120.16 122.91 120.624 122.317C121.088 121.719 121.696 121.42 122.447 121.42C123.194 121.42 123.786 121.676 124.222 122.187V118.86H125.314V127.92H124.311L124.258 127.236C123.821 127.771 123.214 128.038 122.435 128.038C121.696 128.038 121.092 127.735 120.624 127.13C120.16 126.524 119.928 125.734 119.928 124.758V124.676ZM121.02 124.8C121.02 125.523 121.169 126.09 121.468 126.499C121.767 126.907 122.18 127.112 122.706 127.112C123.399 127.112 123.904 126.801 124.222 126.18V123.248C123.896 122.647 123.395 122.346 122.718 122.346C122.183 122.346 121.767 122.552 121.468 122.965C121.169 123.378 121.02 123.99 121.02 124.8Z" fill="#231F20"/>
<path fill-rule="evenodd" clip-rule="evenodd" d="M8.70001 8.80005H127.7V88.4H8.70001V8.80005Z" fill="#0D4DA1"/>
<path fill-rule="evenodd" clip-rule="evenodd" d="M69.1 20.4H72.5L69.7 22.4L70.8 25.7L68 23.7L65.3 25.7L66.4 22.4L63.6 20.4H67L68 17.2L69.1 20.4Z" fill="#FFF101"/>
<path fill-rule="evenodd" clip-rule="evenodd" d="M69.2 73.4H72.6L69.9 75.5L70.9 78.8L68.2 76.8L65.4 78.8L66.5 75.5L63.7 73.4H67.2L68.2 70.2L69.2 73.4Z" fill="#FFF101"/>
<path fill-rule="evenodd" clip-rule="evenodd" d="M82.3 69.9H85.8L83 72L84.1 75.3L81.3 73.2L78.6 75.3L79.7 72L76.9 69.9H80.3L81.3 66.7L82.3 69.9Z" fill="#FFF101"/>
<path fill-rule="evenodd" clip-rule="evenodd" d="M82.3 23.9H85.8L83 25.9L84.1 29.2L81.3 27.2L78.6 29.2L79.7 25.9L76.9 23.9H80.3L81.3 20.6L82.3 23.9Z" fill="#FFF101"/>
<path fill-rule="evenodd" clip-rule="evenodd" d="M92.1 33.6H95.5L92.8 35.7L93.8 39L91.1 36.9L88.3 39L89.4 35.7L86.6 33.6H90L91.1 30.4L92.1 33.6Z" fill="#FFF101"/>
<path fill-rule="evenodd" clip-rule="evenodd" d="M92.1 60.3H95.5L92.8 62.4L93.8 65.6L91.1 63.6L88.3 65.6L89.4 62.4L86.6 60.3H90L91.1 57.1L92.1 60.3Z" fill="#FFF101"/>
<path fill-rule="evenodd" clip-rule="evenodd" d="M95.7 46.7H99.2L96.4 48.8L97.5 52.1L94.7 50.1L92 52.1L93.1 48.8L90.3 46.7H93.7L94.7 43.5L95.7 46.7Z" fill="#FFF101"/>
<path fill-rule="evenodd" clip-rule="evenodd" d="M55.7 23.9H59.1L56.3 26L57.4 29.2999L54.6 27.2L51.9 29.2999L53 26L50.2 23.9H53.6L54.6 20.7L55.7 23.9Z" fill="#FFF101"/>
<path fill-rule="evenodd" clip-rule="evenodd" d="M46.2 33.6H49.6L46.8 35.7L47.9 39L45.2 37L42.4 39L43.5 35.7L40.7 33.6H44.1L45.2 30.4L46.2 33.6Z" fill="#FFF101"/>
<path fill-rule="evenodd" clip-rule="evenodd" d="M42.7 46.8H46.1L43.3 48.9L44.4 52.1L41.6 50.1L38.9 52.1L40 48.9L37.2 46.8H40.6L41.6 43.6L42.7 46.8Z" fill="#FFF101"/>
<path fill-rule="evenodd" clip-rule="evenodd" d="M46.2 60.3H49.6L46.8 62.4L47.9 65.7L45.2 63.7L42.4 65.7L43.5 62.4L40.7 60.3H44.1L45.2 57.1L46.2 60.3Z" fill="#FFF101"/>
<path fill-rule="evenodd" clip-rule="evenodd" d="M55.8 69.9H59.2L56.5 72L57.5 75.3L54.8 73.3L52 75.3L53.1 72L50.3 69.9H53.7L54.8 66.7L55.8 69.9Z" fill="#FFF101"/>
<path fill-rule="evenodd" clip-rule="evenodd" d="M194 24.6C203.3 25.5 211.9 28.5 219.3 33.2C219.3 33.2 219.5 33.3 219.8 33.5C210.4 20.2 195.3 10.8 177.7 9.20003C162.2 7.80003 147.6 12.5 136.4 21.3C144.9 23 152.4 27.3 158.1 33.2C168.4 26.7 180.9 23.4 194 24.6Z" fill="#007CC3"/>
<path fill-rule="evenodd" clip-rule="evenodd" d="M229.8 61.9C229.8 61.7 229.8 60.9 229.7 60.7C228.9 50.8 225.3 41.4 219.8 33.5C219.5 33.3 219.3 33.2 219.3 33.2C211.9 28.5 203.3 25.5 194 24.6C180.9 23.4 168.4 26.7 158.1 33.2C164.5 39.9 168.6 48.7 169.4 58.3C169.6 60.7 169.6 63.1 169.4 65.6C169 69.5 168.2 73.2 166.8 76.7C164.4 83 160.5 88.5 155.5 92.9L155.6 92.8C174.6 81.7 198.3 77 221.6 80.5C219.4 82.5 216.3 84.2 213.7 85.6C216.8 84.7 227.9 80.3 228.1 80C228.1 80 230.6 71.6 229.8 61.9Z" fill="#231F20"/>
<path fill-rule="evenodd" clip-rule="evenodd" d="M228.8 60.6001C221.4 55.6001 215.4 52.6001 202.5 51.4001C192.8 50.5001 183.3 52.1001 174.9 55.6001C175.1 58.0001 175.2 60.4001 174.9 62.8001C173.8 74.7001 167.5 84.8001 158.5 91.1001C181.9 77.7001 203.1 75.9001 221.1 78.6001C222.3 78.8001 226 79.4001 227.7 79.9001C229.8 69.3001 229.1 62.4001 228.8 60.6001Z" fill="white"/>
<path d="M185.851 98.9504H182.129V101.994H186.453V102.92H180.997V94.3319H186.394V95.2639H182.129V98.0243H185.851V98.9504ZM190.222 103.038C189.357 103.038 188.653 102.755 188.11 102.189C187.568 101.618 187.296 100.858 187.296 99.9059V99.7054C187.296 99.0723 187.416 98.508 187.656 98.0125C187.9 97.5131 188.238 97.1238 188.671 96.8447C189.107 96.5615 189.579 96.42 190.086 96.42C190.916 96.42 191.561 96.6933 192.021 97.2398C192.481 97.7864 192.711 98.569 192.711 99.5874V100.042H188.388C188.403 100.671 188.586 101.18 188.936 101.569C189.29 101.955 189.738 102.147 190.281 102.147C190.666 102.147 190.993 102.069 191.26 101.911C191.528 101.754 191.761 101.546 191.962 101.286L192.629 101.805C192.094 102.627 191.292 103.038 190.222 103.038ZM190.086 97.3165C189.646 97.3165 189.276 97.4778 188.977 97.8002C188.679 98.1187 188.494 98.567 188.423 99.145H191.62V99.0625C191.588 98.508 191.439 98.0794 191.172 97.7766C190.904 97.4699 190.542 97.3165 190.086 97.3165ZM197.695 101.227C197.695 100.932 197.583 100.704 197.359 100.543C197.139 100.378 196.752 100.236 196.197 100.118C195.647 100 195.208 99.8588 194.882 99.6936C194.559 99.5284 194.319 99.3318 194.162 99.1038C194.009 98.8757 193.932 98.6044 193.932 98.2898C193.932 97.7668 194.152 97.3244 194.593 96.9626C195.037 96.6009 195.603 96.42 196.291 96.42C197.015 96.42 197.601 96.6067 198.049 96.9803C198.501 97.3539 198.728 97.8317 198.728 98.4136H197.63C197.63 98.1148 197.503 97.8572 197.247 97.6409C196.995 97.4247 196.677 97.3165 196.291 97.3165C195.894 97.3165 195.584 97.403 195.36 97.5761C195.135 97.7491 195.023 97.9752 195.023 98.2544C195.023 98.5178 195.128 98.7164 195.336 98.8501C195.544 98.9838 195.92 99.1116 196.463 99.2335C197.009 99.3554 197.452 99.5009 197.79 99.67C198.128 99.8391 198.378 100.044 198.539 100.283C198.704 100.519 198.787 100.808 198.787 101.151C198.787 101.721 198.558 102.179 198.102 102.525C197.646 102.867 197.054 103.038 196.327 103.038C195.816 103.038 195.363 102.948 194.97 102.767C194.577 102.586 194.268 102.334 194.044 102.012C193.824 101.685 193.714 101.333 193.714 100.956H194.805C194.825 101.322 194.97 101.613 195.242 101.829C195.517 102.041 195.879 102.147 196.327 102.147C196.74 102.147 197.07 102.065 197.318 101.9C197.569 101.731 197.695 101.506 197.695 101.227ZM201.689 94.9925V96.5379H202.88V97.3814H201.689V101.339C201.689 101.595 201.742 101.788 201.848 101.917C201.954 102.043 202.135 102.106 202.39 102.106C202.516 102.106 202.689 102.082 202.91 102.035V102.92C202.622 102.999 202.343 103.038 202.072 103.038C201.584 103.038 201.217 102.891 200.969 102.596C200.721 102.301 200.597 101.882 200.597 101.339V97.3814H199.435V96.5379H200.597V94.9925H201.689ZM205.346 102.92H204.254V96.5379H205.346V102.92ZM204.166 94.8451C204.166 94.6681 204.219 94.5187 204.325 94.3968C204.435 94.2749 204.596 94.214 204.809 94.214C205.021 94.214 205.182 94.2749 205.293 94.3968C205.403 94.5187 205.458 94.6681 205.458 94.8451C205.458 95.022 205.403 95.1695 205.293 95.2875C205.182 95.4054 205.021 95.4644 204.809 95.4644C204.596 95.4644 204.435 95.4054 204.325 95.2875C204.219 95.1695 204.166 95.022 204.166 94.8451Z" fill="#231F20"/>
<path d="M157.306 107.993V109.538H158.498V110.381H157.306V114.339C157.306 114.595 157.359 114.788 157.466 114.917C157.572 115.043 157.753 115.106 158.008 115.106C158.134 115.106 158.307 115.082 158.527 115.035V115.92C158.24 115.999 157.961 116.038 157.69 116.038C157.202 116.038 156.834 115.891 156.587 115.596C156.339 115.301 156.215 114.882 156.215 114.339V110.381H155.053V109.538H156.215V107.993H157.306ZM163.718 115.289C163.293 115.788 162.67 116.038 161.848 116.038C161.168 116.038 160.649 115.841 160.291 115.448C159.937 115.051 159.758 114.465 159.754 113.69V109.538H160.845V113.661C160.845 114.628 161.239 115.112 162.025 115.112C162.859 115.112 163.413 114.801 163.688 114.18V109.538H164.78V115.92H163.741L163.718 115.289ZM167.629 115.92H166.537V106.86H167.629V115.92ZM172.029 116.038C171.164 116.038 170.46 115.755 169.917 115.189C169.374 114.618 169.103 113.858 169.103 112.906V112.705C169.103 112.072 169.223 111.508 169.463 111.013C169.707 110.513 170.045 110.124 170.477 109.845C170.914 109.562 171.386 109.42 171.893 109.42C172.723 109.42 173.368 109.693 173.828 110.24C174.288 110.786 174.518 111.569 174.518 112.587V113.042H170.194C170.21 113.671 170.393 114.18 170.743 114.569C171.097 114.955 171.545 115.147 172.088 115.147C172.473 115.147 172.8 115.069 173.067 114.911C173.334 114.754 173.568 114.546 173.769 114.286L174.435 114.805C173.901 115.627 173.098 116.038 172.029 116.038ZM171.893 110.317C171.453 110.317 171.083 110.478 170.784 110.8C170.485 111.119 170.301 111.567 170.23 112.145H173.427V112.062C173.395 111.508 173.246 111.079 172.978 110.777C172.711 110.47 172.349 110.317 171.893 110.317ZM177.809 114.44L179.39 109.538H180.505L178.216 115.92H177.385L175.072 109.538H176.187L177.809 114.44ZM182.74 115.92H181.649V109.538H182.74V115.92ZM181.561 107.845C181.561 107.668 181.614 107.519 181.72 107.397C181.83 107.275 181.991 107.214 182.204 107.214C182.416 107.214 182.577 107.275 182.687 107.397C182.797 107.519 182.852 107.668 182.852 107.845C182.852 108.022 182.797 108.169 182.687 108.287C182.577 108.405 182.416 108.464 182.204 108.464C181.991 108.464 181.83 108.405 181.72 108.287C181.614 108.169 181.561 108.022 181.561 107.845ZM186.274 112.965L185.589 113.679V115.92H184.498V106.86H185.589V112.34L186.173 111.638L188.161 109.538H189.488L187.005 112.204L189.777 115.92H188.497L186.274 112.965ZM194.555 115.289C194.13 115.788 193.507 116.038 192.685 116.038C192.005 116.038 191.486 115.841 191.128 115.448C190.774 115.051 190.595 114.465 190.591 113.69V109.538H191.682V113.661C191.682 114.628 192.076 115.112 192.862 115.112C193.696 115.112 194.25 114.801 194.525 114.18V109.538H195.617V115.92H194.579L194.555 115.289ZM201.368 110.311C201.851 109.717 202.48 109.42 203.255 109.42C204.604 109.42 205.284 110.181 205.296 111.703V115.92H204.205V111.697C204.201 111.237 204.095 110.897 203.886 110.676C203.682 110.456 203.361 110.346 202.925 110.346C202.571 110.346 202.26 110.44 201.993 110.629C201.725 110.818 201.517 111.066 201.368 111.372V115.92H200.276V106.86H201.368V110.311ZM209.578 116.038C208.713 116.038 208.009 115.755 207.467 115.189C206.924 114.618 206.653 113.858 206.653 112.906V112.705C206.653 112.072 206.773 111.508 207.012 111.013C207.256 110.513 207.594 110.124 208.027 109.845C208.463 109.562 208.935 109.42 209.443 109.42C210.272 109.42 210.917 109.693 211.377 110.24C211.837 110.786 212.067 111.569 212.067 112.587V113.042H207.744C207.76 113.671 207.942 114.18 208.292 114.569C208.646 114.955 209.095 115.147 209.637 115.147C210.023 115.147 210.349 115.069 210.616 114.911C210.884 114.754 211.118 114.546 211.318 114.286L211.985 114.805C211.45 115.627 210.648 116.038 209.578 116.038ZM209.443 110.317C209.002 110.317 208.633 110.478 208.334 110.8C208.035 111.119 207.85 111.567 207.779 112.145H210.976V112.062C210.945 111.508 210.795 111.079 210.528 110.777C210.26 110.47 209.899 110.317 209.443 110.317ZM217.276 115.92C217.213 115.794 217.162 115.57 217.122 115.248C216.615 115.775 216.01 116.038 215.306 116.038C214.676 116.038 214.159 115.861 213.754 115.507C213.353 115.149 213.153 114.697 213.153 114.151C213.153 113.486 213.404 112.971 213.908 112.605C214.415 112.235 215.127 112.051 216.043 112.051H217.105V111.549C217.105 111.168 216.991 110.865 216.763 110.641C216.534 110.413 216.198 110.299 215.754 110.299C215.365 110.299 215.038 110.397 214.775 110.594C214.511 110.79 214.38 111.028 214.38 111.307H213.282C213.282 110.989 213.395 110.682 213.619 110.387C213.847 110.088 214.153 109.853 214.539 109.679C214.928 109.506 215.355 109.42 215.819 109.42C216.554 109.42 217.13 109.605 217.547 109.974C217.964 110.34 218.18 110.845 218.196 111.49V114.428C218.196 115.014 218.271 115.48 218.42 115.826V115.92H217.276ZM215.465 115.088C215.807 115.088 216.131 115 216.438 114.823C216.745 114.646 216.967 114.416 217.105 114.133V112.823H216.249C214.912 112.823 214.244 113.215 214.244 113.997C214.244 114.339 214.358 114.607 214.586 114.799C214.814 114.992 215.107 115.088 215.465 115.088ZM221.688 112.965L221.004 113.679V115.92H219.912V106.86H221.004V112.34L221.587 111.638L223.575 109.538H224.902L222.419 112.204L225.191 115.92H223.911L221.688 112.965ZM229.745 114.227C229.745 113.932 229.633 113.704 229.409 113.543C229.189 113.378 228.801 113.236 228.247 113.118C227.696 113 227.258 112.859 226.931 112.694C226.609 112.528 226.369 112.332 226.212 112.104C226.058 111.876 225.982 111.604 225.982 111.29C225.982 110.767 226.202 110.324 226.642 109.963C227.087 109.601 227.653 109.42 228.341 109.42C229.065 109.42 229.651 109.607 230.099 109.98C230.551 110.354 230.777 110.832 230.777 111.414H229.68C229.68 111.115 229.552 110.857 229.297 110.641C229.045 110.425 228.727 110.317 228.341 110.317C227.944 110.317 227.633 110.403 227.409 110.576C227.185 110.749 227.073 110.975 227.073 111.254C227.073 111.518 227.177 111.716 227.386 111.85C227.594 111.984 227.97 112.112 228.512 112.234C229.059 112.355 229.501 112.501 229.839 112.67C230.178 112.839 230.427 113.044 230.588 113.283C230.754 113.519 230.836 113.808 230.836 114.151C230.836 114.721 230.608 115.179 230.152 115.525C229.696 115.867 229.104 116.038 228.377 116.038C227.865 116.038 227.413 115.948 227.02 115.767C226.627 115.586 226.318 115.334 226.094 115.012C225.874 114.685 225.764 114.333 225.764 113.956H226.855C226.874 114.322 227.02 114.613 227.291 114.829C227.567 115.041 227.928 115.147 228.377 115.147C228.789 115.147 229.12 115.065 229.367 114.9C229.619 114.731 229.745 114.506 229.745 114.227Z" fill="#231F20"/>
</g>
<defs>
<clipPath id="clip0">
<rect width="238" height="138" fill="white"/>
</clipPath>
</defs>
</svg>
