<?xml version="1.0" encoding="UTF-8"?>
<!-- Created with Inkscape (http://www.inkscape.org/) -->
<svg width="51.539mm" height="28.44mm" version="1.1" viewBox="0 0 51.539 28.44" xmlns="http://www.w3.org/2000/svg" xmlns:cc="http://creativecommons.org/ns#" xmlns:dc="http://purl.org/dc/elements/1.1/" xmlns:rdf="http://www.w3.org/1999/02/22-rdf-syntax-ns#">
 <metadata>
  <rdf:RDF>
   <cc:Work rdf:about="">
    <dc:format>image/svg+xml</dc:format>
    <dc:type rdf:resource="http://purl.org/dc/dcmitype/StillImage"/>
    <dc:title/>
   </cc:Work>
  </rdf:RDF>
 </metadata>
 <g transform="translate(-65.968 -43.386)">
  <g>
   <text x="72.323456" y="65.544151" fill="#231f20" font-family="Arial" font-size="2.7894px" stroke-width=".35278"><tspan x="72.323456 74.183998 75.734909 76.663788 78.214699 79.765617 81.316528 82.867439 83.642899 85.193817 85.813065 86.432312" y="65.544151">Euroopa Liit</tspan> <tspan x="67.906364 69.766899 71.317818 72.246689 73.797607 75.348518 76.899429 78.450348 79.225807 80.620514 81.395966 82.324844 83.875755 85.270462 86.045921 87.596832 89.147751 90.076622 90.695869" y="68.391243">Euroopa struktuuri-</tspan> <tspan x="66.355766 66.975014 68.525925 69.301384 69.920631 71.47155 72.866257 74.417168 75.811874 76.587334 78.138245 79.689163 80.618034 81.237289 83.560867 84.180115 85.574821 86.350281 87.901199 89.45211 91.003021 91.622276" y="71.238335">ja investeerimisfondid</tspan></text>
   <path d="m65.968 43.386h27.492v18.391h-27.492z" fill="#254aa5" fill-rule="evenodd"/>
   <g fill="#fff200" fill-rule="evenodd">
    <path d="m79.916 46.064h0.79202l-0.6386 0.4796 0.24719 0.75939-0.63588-0.4662-0.63581 0.4662 0.2504-0.75939-0.6441-0.4796h0.79139l0.23812-0.74041z"/>
    <path d="m79.95 58.318h0.79248l-0.63701 0.47851 0.24603 0.76059-0.63472-0.4686-0.63701 0.4686 0.25181-0.76059-0.64481-0.47851h0.78969l0.24031-0.7403z"/>
    <path d="m82.983 57.506h0.79301l-0.63909 0.47851 0.24811 0.7583-0.6356-0.46729-0.63821 0.46729 0.2516-0.7583-0.64421-0.47851h0.79139l0.23943-0.74249z"/>
    <path d="m82.983 46.871h0.79301l-0.63909 0.47971 0.24811 0.7571-0.6356-0.4662-0.63821 0.4662 0.2516-0.7571-0.64421-0.47971h0.79139l0.23943-0.7403z"/>
    <path d="m85.235 49.121h0.79079l-0.63687 0.47847 0.24818 0.76172-0.6357-0.46842-0.63698 0.46842 0.24998-0.76172-0.64438-0.47847h0.79089l0.24049-0.73921z"/>
    <path d="m85.235 55.284h0.79079l-0.63687 0.47847 0.24818 0.7596-0.6357-0.4663-0.63698 0.4663 0.24998-0.7596-0.64438-0.47847h0.79089l0.24049-0.7402z"/>
    <path d="m86.079 52.157h0.79252l-0.638 0.47847 0.24659 0.76052-0.63472-0.46722-0.63638 0.46722 0.25111-0.76052-0.64322-0.47847h0.7886l0.23989-0.7415z"/>
    <path d="m76.821 46.879h0.79301l-0.63909 0.4796 0.24828 0.7583-0.63581-0.46838-0.6363 0.46838 0.25093-0.7583-0.64301-0.4796h0.7892l0.23918-0.7414z"/>
    <path d="m74.632 49.13h0.79322l-0.6393 0.47851 0.24828 0.75939-0.63578-0.46722-0.63592 0.46722 0.25061-0.75939-0.64431-0.47851h0.79019l0.23943-0.73921z"/>
    <path d="m73.82 52.165h0.79079l-0.63638 0.47868 0.24719 0.75921-0.63539-0.46722-0.6356 0.46722 0.2492-0.75921-0.64361-0.47868h0.78969l0.24031-0.7402z"/>
    <path d="m74.632 55.292h0.79322l-0.6393 0.47851 0.24828 0.7595-0.63578-0.4675-0.63592 0.4675 0.25061-0.7595-0.64431-0.47851h0.79019l0.23943-0.7403z"/>
    <path d="m76.853 57.513h0.79248l-0.6386 0.47971 0.24723 0.75819-0.63472-0.4674-0.63701 0.4674 0.2516-0.75819-0.64417-0.47971h0.79019l0.2394-0.7415z"/>
   </g>
   <g fill-rule="evenodd">
    <path d="m108.77 47.05c2.145 0.19879 4.1224 0.9005 5.8312 1.9751 2e-3 0.0022 0.0472 0.03341 0.118 0.07849-2.16-3.0819-5.6429-5.2399-9.7255-5.6181-3.5732-0.32889-6.9399 0.76412-9.5278 2.8048 1.9645 0.39 3.6915 1.3765 5.0057 2.7478 2.3869-1.5056 5.2712-2.2675 8.2984-1.9881" fill="#287ac8"/>
    <path d="m117.03 55.499c-1e-3 0-1e-3 -0.0011-1e-3 -0.0011 0 0.0064 1e-3 0.01192 1e-3 0.01831v-0.01718" fill="#fff"/>
    <path d="m117.04 55.649c-3e-3 -0.04202-0.0183-0.22571-0.0215-0.26331-0.20109-2.3019-1.0156-4.4555-2.2978-6.2825-0.0708-0.04509-0.11602-0.07627-0.118-0.07849-1.7088-1.0746-3.6862-1.7763-5.8312-1.9751-3.0272-0.2794-5.9115 0.48249-8.2984 1.9881 1.4767 1.5411 2.4342 3.5657 2.6212 5.7837 0.0461 0.55252 0.0472 1.1177-5e-3 1.6915-0.0837 0.8974-0.2879 1.755-0.59863 2.5544-0.56088 1.4594-1.4701 2.734-2.6145 3.7367l0.02028-0.01842c4.4008-2.549 9.8567-3.6462 15.234-2.8305-0.488 0.46112-1.2209 0.8533-1.8173 1.1628 0.72651-0.18923 3.2809-1.2091 3.3174-1.2865 0 0 2e-3 -0.0011 2e-3 -2e-3h-2e-3s0.5964-1.9301 0.40961-4.1804" fill="#231f20"/>
    <path d="m116.8 55.346c-1.7022-1.1522-3.1058-1.8486-6.0696-2.1237-2.2536-0.20839-4.4286 0.1602-6.3749 0.98231 0.0494 0.54381 0.0538 1.1005 1e-3 1.6646-0.25361 2.7351-1.7086 5.0659-3.7956 6.5274 5.3969-3.1036 10.304-3.5183 14.459-2.8843 0.27608 0.0429 1.1305 0.19029 1.5249 0.29559 0.48352-2.4331 0.31479-4.0429 0.25471-4.4619" fill="#fff"/>
   </g>
   <text x="105.67814" y="65.55233" fill="#231f20" font-family="Arial" font-size="2.7894px" stroke-width=".35278"><tspan x="105.67814 107.53868 109.08959 110.4843 111.25976" y="65.55233">Eesti</tspan> <tspan x="99.940636 100.71609 102.26701 102.88625 104.43716 105.83188 106.45113 107.84583 109.39674 110.1722 111.72311 113.27403 114.82494 116.21965" y="68.387817">tuleviku heaks</tspan></text>
  </g>
 </g>
</svg>
