<svg width="208" height="121" viewBox="0 0 208 121" fill="none" xmlns="http://www.w3.org/2000/svg">
<path d="M32.3078 89.3333V81.7867H37.7645V82.6772H33.3065V84.9886H37.4814V85.874H33.3065V88.4428H37.9395V89.3333H32.3078ZM42.7836 89.3333V88.5303C42.358 89.148 41.7798 89.4569 41.0488 89.4569C40.7262 89.4569 40.4242 89.3951 40.1428 89.2716C39.8648 89.148 39.6572 88.9936 39.5199 88.8083C39.3861 88.6195 39.2917 88.3896 39.2368 88.1185C39.199 87.9366 39.1801 87.6483 39.1801 87.2536V83.8664H40.1067V86.8984C40.1067 87.3823 40.1256 87.7083 40.1634 87.8765C40.2217 88.1202 40.3453 88.3124 40.534 88.4531C40.7228 88.5903 40.9561 88.659 41.2341 88.659C41.5121 88.659 41.7729 88.5886 42.0166 88.4479C42.2602 88.3038 42.4318 88.1099 42.5314 87.8662C42.6343 87.6191 42.6858 87.2622 42.6858 86.7955V83.8664H43.6124V89.3333H42.7836ZM45.0589 89.3333V83.8664H45.8929V84.6952C46.1056 84.3074 46.3012 84.0517 46.4797 83.9282C46.6616 83.8046 46.8606 83.7428 47.0768 83.7428C47.3891 83.7428 47.7066 83.8424 48.0292 84.0414L47.71 84.9011C47.4835 84.7672 47.257 84.7003 47.0305 84.7003C46.828 84.7003 46.6461 84.7621 46.4849 84.8856C46.3236 85.0058 46.2086 85.1739 46.1399 85.3901C46.037 85.7196 45.9855 86.0799 45.9855 86.4712V89.3333H45.0589ZM48.2351 86.5999C48.2351 85.5875 48.5165 84.8376 49.0793 84.3503C49.5495 83.9453 50.1226 83.7428 50.7987 83.7428C51.5503 83.7428 52.1646 83.9899 52.6416 84.4841C53.1186 84.9749 53.3571 85.6544 53.3571 86.5226C53.3571 87.2262 53.2508 87.7804 53.038 88.1854C52.8286 88.5869 52.5215 88.8992 52.1165 89.1223C51.715 89.3453 51.2757 89.4569 50.7987 89.4569C50.0334 89.4569 49.4139 89.2115 48.9403 88.7207C48.4702 88.23 48.2351 87.523 48.2351 86.5999ZM49.1874 86.5999C49.1874 87.3 49.3402 87.825 49.6456 88.1751C49.951 88.5217 50.3354 88.695 50.7987 88.695C51.2586 88.695 51.6412 88.52 51.9467 88.1699C52.2521 87.8199 52.4048 87.2862 52.4048 86.569C52.4048 85.8929 52.2504 85.3815 51.9415 85.0349C51.6361 84.6849 51.2551 84.5099 50.7987 84.5099C50.3354 84.5099 49.951 84.6832 49.6456 85.0298C49.3402 85.3764 49.1874 85.8998 49.1874 86.5999ZM54.1036 86.5999C54.1036 85.5875 54.385 84.8376 54.9478 84.3503C55.418 83.9453 55.9911 83.7428 56.6672 83.7428C57.4188 83.7428 58.0331 83.9899 58.5101 84.4841C58.9871 84.9749 59.2256 85.6544 59.2256 86.5226C59.2256 87.2262 59.1192 87.7804 58.9065 88.1854C58.6971 88.5869 58.39 88.8992 57.985 89.1223C57.5835 89.3453 57.1442 89.4569 56.6672 89.4569C55.9019 89.4569 55.2824 89.2115 54.8088 88.7207C54.3387 88.23 54.1036 87.523 54.1036 86.5999ZM55.0559 86.5999C55.0559 87.3 55.2086 87.825 55.5141 88.1751C55.8195 88.5217 56.2039 88.695 56.6672 88.695C57.127 88.695 57.5097 88.52 57.8151 88.1699C58.1206 87.8199 58.2733 87.2862 58.2733 86.569C58.2733 85.8929 58.1188 85.3815 57.81 85.0349C57.5045 84.6849 57.1236 84.5099 56.6672 84.5099C56.2039 84.5099 55.8195 84.6832 55.5141 85.0298C55.2086 85.3764 55.0559 85.8998 55.0559 86.5999ZM60.317 91.4285V83.8664H61.1612V84.5768C61.3602 84.2988 61.585 84.0912 61.8355 83.9539C62.0861 83.8132 62.3898 83.7428 62.7467 83.7428C63.2134 83.7428 63.6253 83.863 63.9822 84.1032C64.3391 84.3434 64.6085 84.6832 64.7904 85.1224C64.9723 85.5583 65.0632 86.037 65.0632 86.5587C65.0632 87.1181 64.962 87.6226 64.7595 88.0721C64.5604 88.5183 64.2687 88.8615 63.8844 89.1017C63.5034 89.3385 63.1019 89.4569 62.6798 89.4569C62.3709 89.4569 62.0929 89.3917 61.8458 89.2613C61.6022 89.1309 61.4014 88.9661 61.2436 88.7671V91.4285H60.317ZM61.156 86.6307C61.156 87.3343 61.2985 87.8542 61.5833 88.1905C61.8682 88.5268 62.2131 88.695 62.618 88.695C63.0298 88.695 63.3816 88.5217 63.6733 88.1751C63.9684 87.825 64.116 87.2845 64.116 86.5535C64.116 85.8569 63.9719 85.3352 63.6836 84.9886C63.3988 84.642 63.0573 84.4687 62.6592 84.4687C62.2645 84.4687 61.9145 84.654 61.609 85.0246C61.307 85.3918 61.156 85.9272 61.156 86.6307ZM69.7528 88.659C69.4097 88.9507 69.0785 89.1566 68.7593 89.2767C68.4436 89.3968 68.1038 89.4569 67.7401 89.4569C67.1395 89.4569 66.6779 89.311 66.3553 89.0193C66.0327 88.7242 65.8714 88.3484 65.8714 87.892C65.8714 87.6243 65.9315 87.3806 66.0516 87.161C66.1751 86.9379 66.3347 86.7594 66.5303 86.6256C66.7294 86.4918 66.9525 86.3905 67.1995 86.3219C67.3814 86.2738 67.656 86.2275 68.0232 86.1829C68.7713 86.0937 69.3221 85.9873 69.6756 85.8637C69.6791 85.7367 69.6808 85.6561 69.6808 85.6218C69.6808 85.2443 69.5933 84.9783 69.4182 84.8239C69.1814 84.6145 68.8297 84.5099 68.3629 84.5099C67.9271 84.5099 67.6045 84.5871 67.3952 84.7415C67.1892 84.8925 67.0365 85.1619 66.937 85.5497L66.031 85.4262C66.1134 85.0384 66.2489 84.7261 66.4377 84.4893C66.6264 84.249 66.8993 84.0654 67.2562 83.9385C67.6131 83.808 68.0266 83.7428 68.4968 83.7428C68.9635 83.7428 69.3427 83.7977 69.6344 83.9076C69.9262 84.0174 70.1406 84.1564 70.2779 84.3245C70.4152 84.4893 70.5113 84.6986 70.5662 84.9526C70.5971 85.1104 70.6125 85.3953 70.6125 85.8071V87.0426C70.6125 87.904 70.6314 88.4496 70.6692 88.6796C70.7103 88.9061 70.7893 89.124 70.906 89.3333H69.9382C69.8421 89.1411 69.7803 88.9164 69.7528 88.659ZM69.6756 86.5896C69.3393 86.7268 68.8348 86.8435 68.1622 86.9396C67.7812 86.9945 67.5118 87.0563 67.354 87.1249C67.1961 87.1936 67.0743 87.2948 66.9885 87.4287C66.9027 87.5591 66.8598 87.7049 66.8598 87.8662C66.8598 88.1133 66.9525 88.3192 67.1378 88.4839C67.3265 88.6487 67.6011 88.731 67.9614 88.731C68.3183 88.731 68.6358 88.6538 68.9138 88.4994C69.1917 88.3415 69.3959 88.127 69.5263 87.8559C69.6259 87.6466 69.6756 87.3377 69.6756 86.9293V86.5896ZM75.0654 89.3333V81.7867H76.064V88.4428H79.7807V89.3333H75.0654ZM80.8618 82.8523V81.7867H81.7884V82.8523H80.8618ZM80.8618 89.3333V83.8664H81.7884V89.3333H80.8618ZM83.2092 82.8523V81.7867H84.1358V82.8523H83.2092ZM83.2092 89.3333V83.8664H84.1358V89.3333H83.2092ZM87.5745 88.5045L87.7083 89.323C87.4475 89.3779 87.2141 89.4054 87.0082 89.4054C86.6719 89.4054 86.4111 89.3522 86.2258 89.2458C86.0404 89.1394 85.91 89.0004 85.8345 88.8288C85.759 88.6538 85.7213 88.2883 85.7213 87.7324V84.5871H85.0418V83.8664H85.7213V82.5125L86.6427 81.9566V83.8664H87.5745V84.5871H86.6427V87.7838C86.6427 88.0481 86.6582 88.218 86.6891 88.2935C86.7234 88.369 86.7766 88.429 86.8486 88.4737C86.9241 88.5183 87.0305 88.5406 87.1678 88.5406C87.2708 88.5406 87.4063 88.5286 87.5745 88.5045ZM14.7024 101.333V93.7867H20.1591V94.6772H15.7011V96.9886H19.8759V97.874H15.7011V100.443H20.3341V101.333H14.7024ZM25.1782 101.333V100.53C24.7526 101.148 24.1743 101.457 23.4434 101.457C23.1208 101.457 22.8188 101.395 22.5373 101.272C22.2594 101.148 22.0517 100.994 21.9145 100.808C21.7806 100.62 21.6862 100.39 21.6313 100.118C21.5936 99.9366 21.5747 99.6483 21.5747 99.2536V95.8664H22.5013V98.8984C22.5013 99.3823 22.5202 99.7083 22.5579 99.8765C22.6163 100.12 22.7398 100.312 22.9286 100.453C23.1173 100.59 23.3507 100.659 23.6287 100.659C23.9067 100.659 24.1675 100.589 24.4111 100.448C24.6548 100.304 24.8264 100.11 24.9259 99.8662C25.0289 99.6191 25.0804 99.2622 25.0804 98.7955V95.8664H26.007V101.333H25.1782ZM27.4535 101.333V95.8664H28.2874V96.6952C28.5002 96.3074 28.6958 96.0517 28.8743 95.9282C29.0562 95.8046 29.2552 95.7428 29.4714 95.7428C29.7837 95.7428 30.1012 95.8424 30.4238 96.0414L30.1046 96.9011C29.8781 96.7672 29.6516 96.7003 29.4251 96.7003C29.2226 96.7003 29.0407 96.7621 28.8794 96.8856C28.7181 97.0058 28.6032 97.1739 28.5345 97.3901C28.4316 97.7196 28.3801 98.0799 28.3801 98.4712V101.333H27.4535ZM30.6297 98.5999C30.6297 97.5875 30.9111 96.8376 31.4739 96.3503C31.9441 95.9453 32.5172 95.7428 33.1933 95.7428C33.9448 95.7428 34.5591 95.9899 35.0362 96.4841C35.5132 96.9749 35.7517 97.6544 35.7517 98.5226C35.7517 99.2262 35.6453 99.7804 35.4326 100.185C35.2232 100.587 34.9161 100.899 34.5111 101.122C34.1096 101.345 33.6703 101.457 33.1933 101.457C32.428 101.457 31.8085 101.212 31.3349 100.721C30.8648 100.23 30.6297 99.523 30.6297 98.5999ZM31.582 98.5999C31.582 99.3 31.7347 99.825 32.0402 100.175C32.3456 100.522 32.73 100.695 33.1933 100.695C33.6531 100.695 34.0358 100.52 34.3412 100.17C34.6467 99.8199 34.7994 99.2862 34.7994 98.569C34.7994 97.8929 34.6449 97.3815 34.3361 97.0349C34.0306 96.6849 33.6497 96.5099 33.1933 96.5099C32.73 96.5099 32.3456 96.6832 32.0402 97.0298C31.7347 97.3764 31.582 97.8998 31.582 98.5999ZM36.4981 98.5999C36.4981 97.5875 36.7796 96.8376 37.3424 96.3503C37.8125 95.9453 38.3857 95.7428 39.0617 95.7428C39.8133 95.7428 40.4276 95.9899 40.9046 96.4841C41.3817 96.9749 41.6202 97.6544 41.6202 98.5226C41.6202 99.2262 41.5138 99.7804 41.301 100.185C41.0917 100.587 40.7845 100.899 40.3796 101.122C39.978 101.345 39.5388 101.457 39.0617 101.457C38.2964 101.457 37.677 101.212 37.2034 100.721C36.7332 100.23 36.4981 99.523 36.4981 98.5999ZM37.4505 98.5999C37.4505 99.3 37.6032 99.825 37.9086 100.175C38.2141 100.522 38.5984 100.695 39.0617 100.695C39.5216 100.695 39.9043 100.52 40.2097 100.17C40.5151 99.8199 40.6679 99.2862 40.6679 98.569C40.6679 97.8929 40.5134 97.3815 40.2046 97.0349C39.8991 96.6849 39.5182 96.5099 39.0617 96.5099C38.5984 96.5099 38.2141 96.6832 37.9086 97.0298C37.6032 97.3764 37.4505 97.8998 37.4505 98.5999ZM42.7115 103.428V95.8664H43.5558V96.5768C43.7548 96.2988 43.9796 96.0912 44.2301 95.9539C44.4806 95.8132 44.7844 95.7428 45.1413 95.7428C45.608 95.7428 46.0198 95.863 46.3767 96.1032C46.7337 96.3434 47.0031 96.6832 47.1849 97.1224C47.3668 97.5583 47.4578 98.037 47.4578 98.5587C47.4578 99.1181 47.3565 99.6226 47.1541 100.072C46.955 100.518 46.6633 100.861 46.2789 101.102C45.898 101.338 45.4965 101.457 45.0744 101.457C44.7655 101.457 44.4875 101.392 44.2404 101.261C43.9968 101.131 43.796 100.966 43.6381 100.767V103.428H42.7115ZM43.5506 98.6307C43.5506 99.3343 43.693 99.8542 43.9779 100.191C44.2627 100.527 44.6076 100.695 45.0126 100.695C45.4244 100.695 45.7762 100.522 46.0679 100.175C46.363 99.825 46.5106 99.2845 46.5106 98.5535C46.5106 97.8569 46.3665 97.3352 46.0782 96.9886C45.7933 96.642 45.4519 96.4687 45.0538 96.4687C44.6591 96.4687 44.3091 96.654 44.0036 97.0246C43.7016 97.3918 43.5506 97.9272 43.5506 98.6307ZM52.1474 100.659C51.8042 100.951 51.4731 101.157 51.1539 101.277C50.8382 101.397 50.4984 101.457 50.1346 101.457C49.5341 101.457 49.0725 101.311 48.7499 101.019C48.4273 100.724 48.266 100.348 48.266 99.892C48.266 99.6243 48.326 99.3806 48.4462 99.161C48.5697 98.9379 48.7293 98.7594 48.9249 98.6256C49.1239 98.4918 49.347 98.3905 49.5941 98.3219C49.776 98.2738 50.0506 98.2275 50.4178 98.1829C51.1659 98.0937 51.7167 97.9873 52.0702 97.8637C52.0736 97.7367 52.0753 97.6561 52.0753 97.6218C52.0753 97.2443 51.9878 96.9783 51.8128 96.8239C51.576 96.6145 51.2242 96.5099 50.7575 96.5099C50.3217 96.5099 49.9991 96.5871 49.7897 96.7415C49.5838 96.8925 49.4311 97.1619 49.3316 97.5497L48.4256 97.4262C48.5079 97.0384 48.6435 96.7261 48.8322 96.4893C49.021 96.249 49.2938 96.0654 49.6507 95.9385C50.0077 95.808 50.4212 95.7428 50.8914 95.7428C51.3581 95.7428 51.7373 95.7977 52.029 95.9076C52.3207 96.0174 52.5352 96.1564 52.6725 96.3245C52.8098 96.4893 52.9059 96.6986 52.9608 96.9526C52.9917 97.1104 53.0071 97.3953 53.0071 97.8071V99.0426C53.0071 99.904 53.026 100.45 53.0637 100.68C53.1049 100.906 53.1838 101.124 53.3005 101.333H52.3327C52.2366 101.141 52.1749 100.916 52.1474 100.659ZM52.0702 98.5896C51.7339 98.7268 51.2294 98.8435 50.5567 98.9396C50.1758 98.9945 49.9064 99.0563 49.7485 99.1249C49.5907 99.1936 49.4689 99.2948 49.3831 99.4287C49.2973 99.5591 49.2544 99.7049 49.2544 99.8662C49.2544 100.113 49.347 100.319 49.5323 100.484C49.7211 100.649 49.9956 100.731 50.356 100.731C50.7129 100.731 51.0303 100.654 51.3083 100.499C51.5863 100.342 51.7905 100.127 51.9209 99.8559C52.0204 99.6466 52.0702 99.3377 52.0702 98.9293V98.5896ZM57.0121 99.7015L57.9284 99.5573C57.9799 99.9246 58.1223 100.206 58.3556 100.402C58.5924 100.597 58.9219 100.695 59.344 100.695C59.7696 100.695 60.0853 100.609 60.2912 100.438C60.4971 100.263 60.6001 100.058 60.6001 99.825C60.6001 99.6157 60.5091 99.451 60.3272 99.3308C60.2003 99.2485 59.8845 99.1438 59.3801 99.0168C58.7005 98.8452 58.2287 98.6977 57.9644 98.5741C57.7036 98.4471 57.5045 98.2738 57.3673 98.0542C57.2334 97.8311 57.1665 97.5857 57.1665 97.3181C57.1665 97.0744 57.2214 96.8496 57.3312 96.6437C57.4445 96.4344 57.5972 96.261 57.7894 96.1238C57.9335 96.0174 58.1291 95.9282 58.3762 95.8561C58.6268 95.7806 58.8944 95.7428 59.1793 95.7428C59.6083 95.7428 59.9841 95.8046 60.3067 95.9282C60.6327 96.0517 60.8729 96.2199 61.0273 96.4326C61.1818 96.642 61.2882 96.9234 61.3465 97.2769L60.4405 97.4004C60.3993 97.119 60.2792 96.8994 60.0802 96.7415C59.8845 96.5836 59.6066 96.5047 59.2462 96.5047C58.8207 96.5047 58.5169 96.5751 58.3351 96.7158C58.1532 96.8565 58.0622 97.0212 58.0622 97.21C58.0622 97.3301 58.1 97.4382 58.1755 97.5343C58.251 97.6338 58.3694 97.7162 58.5307 97.7814C58.6233 97.8157 58.8962 97.8946 59.3492 98.0182C60.0047 98.1932 60.4611 98.3373 60.7185 98.4506C60.9793 98.5604 61.1835 98.7217 61.3311 98.9345C61.4786 99.1472 61.5524 99.4115 61.5524 99.7272C61.5524 100.036 61.4615 100.328 61.2796 100.602C61.1011 100.873 60.842 101.085 60.5023 101.236C60.1625 101.383 59.7781 101.457 59.3492 101.457C58.6388 101.457 58.0965 101.309 57.7225 101.014C57.3518 100.719 57.115 100.281 57.0121 99.7015ZM64.6771 100.505L64.811 101.323C64.5502 101.378 64.3168 101.405 64.1109 101.405C63.7746 101.405 63.5137 101.352 63.3284 101.246C63.1431 101.139 63.0127 101 62.9372 100.829C62.8617 100.654 62.8239 100.288 62.8239 99.7324V96.5871H62.1444V95.8664H62.8239V94.5125L63.7454 93.9566V95.8664H64.6771V96.5871H63.7454V99.7838C63.7454 100.048 63.7608 100.218 63.7917 100.293C63.826 100.369 63.8792 100.429 63.9513 100.474C64.0268 100.518 64.1332 100.541 64.2705 100.541C64.3734 100.541 64.509 100.529 64.6771 100.505ZM65.578 101.333V95.8664H66.4119V96.6952C66.6247 96.3074 66.8203 96.0517 66.9988 95.9282C67.1807 95.8046 67.3797 95.7428 67.5959 95.7428C67.9082 95.7428 68.2257 95.8424 68.5483 96.0414L68.2291 96.9011C68.0026 96.7672 67.7761 96.7003 67.5496 96.7003C67.3471 96.7003 67.1652 96.7621 67.0039 96.8856C66.8426 97.0058 66.7277 97.1739 66.659 97.3901C66.5561 97.7196 66.5046 98.0799 66.5046 98.4712V101.333H65.578ZM72.6819 101.333V100.53C72.2564 101.148 71.6781 101.457 70.9471 101.457C70.6245 101.457 70.3225 101.395 70.0411 101.272C69.7631 101.148 69.5555 100.994 69.4182 100.808C69.2844 100.62 69.19 100.39 69.1351 100.118C69.0974 99.9366 69.0785 99.6483 69.0785 99.2536V95.8664H70.0051V98.8984C70.0051 99.3823 70.024 99.7083 70.0617 99.8765C70.1201 100.12 70.2436 100.312 70.4324 100.453C70.6211 100.59 70.8545 100.659 71.1325 100.659C71.4104 100.659 71.6713 100.589 71.9149 100.448C72.1586 100.304 72.3302 100.11 72.4297 99.8662C72.5326 99.6191 72.5841 99.2622 72.5841 98.7955V95.8664H73.5107V101.333H72.6819ZM74.9727 101.333V93.7867H75.8993V98.0902L78.0923 95.8664H79.2917L77.2017 97.8946L79.5028 101.333H78.3599L76.5531 98.5381L75.8993 99.1661V101.333H74.9727ZM82.262 100.505L82.3958 101.323C82.135 101.378 81.9016 101.405 81.6957 101.405C81.3594 101.405 81.0986 101.352 80.9132 101.246C80.7279 101.139 80.5975 101 80.522 100.829C80.4465 100.654 80.4088 100.288 80.4088 99.7324V96.5871H79.7293V95.8664H80.4088V94.5125L81.3302 93.9566V95.8664H82.262V96.5871H81.3302V99.7838C81.3302 100.048 81.3457 100.218 81.3765 100.293C81.4109 100.369 81.4641 100.429 81.5361 100.474C81.6116 100.518 81.718 100.541 81.8553 100.541C81.9582 100.541 82.0938 100.529 82.262 100.505ZM86.756 101.333V100.53C86.3304 101.148 85.7522 101.457 85.0212 101.457C84.6986 101.457 84.3966 101.395 84.1152 101.272C83.8372 101.148 83.6296 100.994 83.4923 100.808C83.3584 100.62 83.2641 100.39 83.2092 100.118C83.1714 99.9366 83.1525 99.6483 83.1525 99.2536V95.8664H84.0791V98.8984C84.0791 99.3823 84.098 99.7083 84.1358 99.8765C84.1941 100.12 84.3177 100.312 84.5064 100.453C84.6952 100.59 84.9285 100.659 85.2065 100.659C85.4845 100.659 85.7453 100.589 85.989 100.448C86.2326 100.304 86.4042 100.11 86.5037 99.8662C86.6067 99.6191 86.6582 99.2622 86.6582 98.7955V95.8664H87.5848V101.333H86.756ZM92.6245 101.333V100.53C92.1989 101.148 91.6206 101.457 90.8897 101.457C90.5671 101.457 90.2651 101.395 89.9836 101.272C89.7057 101.148 89.498 100.994 89.3608 100.808C89.2269 100.62 89.1325 100.39 89.0776 100.118C89.0399 99.9366 89.021 99.6483 89.021 99.2536V95.8664H89.9476V98.8984C89.9476 99.3823 89.9665 99.7083 90.0042 99.8765C90.0626 100.12 90.1861 100.312 90.3749 100.453C90.5636 100.59 90.797 100.659 91.075 100.659C91.353 100.659 91.6138 100.589 91.8574 100.448C92.1011 100.304 92.2727 100.11 92.3722 99.8662C92.4752 99.6191 92.5267 99.2622 92.5267 98.7955V95.8664H93.4533V101.333H92.6245ZM94.8998 101.333V95.8664H95.7337V96.6952C95.9465 96.3074 96.1421 96.0517 96.3206 95.9282C96.5025 95.8046 96.7015 95.7428 96.9177 95.7428C97.23 95.7428 97.5475 95.8424 97.8701 96.0414L97.5509 96.9011C97.3244 96.7672 97.0979 96.7003 96.8714 96.7003C96.6689 96.7003 96.487 96.7621 96.3257 96.8856C96.1644 97.0058 96.0495 97.1739 95.9808 97.3901C95.8779 97.7196 95.8264 98.0799 95.8264 98.4712V101.333H94.8998ZM98.426 94.8523V93.7867H99.3526V94.8523H98.426ZM98.426 101.333V95.8664H99.3526V101.333H98.426ZM100.408 99.0683V98.1366H103.255V99.0683H100.408ZM8.6898 106.863V105.787H9.6164V106.863H8.6898ZM7.51611 115.454L7.69113 114.667C7.87645 114.715 8.02231 114.739 8.12869 114.739C8.31745 114.739 8.45815 114.675 8.55081 114.548C8.64347 114.425 8.6898 114.112 8.6898 113.611V107.866H9.6164V113.632C9.6164 114.305 9.52889 114.773 9.35387 115.037C9.1308 115.38 8.76016 115.552 8.24195 115.552C7.99142 115.552 7.74947 115.519 7.51611 115.454ZM14.6098 112.659C14.2666 112.951 13.9354 113.157 13.6162 113.277C13.3005 113.397 12.9607 113.457 12.597 113.457C11.9964 113.457 11.5348 113.311 11.2122 113.019C10.8896 112.724 10.7283 112.348 10.7283 111.892C10.7283 111.624 10.7884 111.381 10.9085 111.161C11.032 110.938 11.1916 110.759 11.3872 110.626C11.5863 110.492 11.8094 110.391 12.0565 110.322C12.2383 110.274 12.5129 110.228 12.8801 110.183C13.6282 110.094 14.1791 109.987 14.5325 109.864C14.536 109.737 14.5377 109.656 14.5377 109.622C14.5377 109.244 14.4502 108.978 14.2752 108.824C14.0384 108.615 13.6866 108.51 13.2199 108.51C12.784 108.51 12.4614 108.587 12.2521 108.742C12.0462 108.893 11.8934 109.162 11.7939 109.55L10.8879 109.426C10.9703 109.038 11.1058 108.726 11.2946 108.489C11.4833 108.249 11.7562 108.065 12.1131 107.938C12.47 107.808 12.8835 107.743 13.3537 107.743C13.8204 107.743 14.1997 107.798 14.4914 107.908C14.7831 108.017 14.9976 108.156 15.1348 108.325C15.2721 108.489 15.3682 108.699 15.4231 108.953C15.454 109.11 15.4694 109.395 15.4694 109.807V111.043C15.4694 111.904 15.4883 112.45 15.5261 112.68C15.5672 112.906 15.6462 113.124 15.7629 113.333H14.7951C14.699 113.141 14.6372 112.916 14.6098 112.659ZM14.5325 110.59C14.1962 110.727 13.6917 110.844 13.0191 110.94C12.6382 110.995 12.3688 111.056 12.2109 111.125C12.053 111.194 11.9312 111.295 11.8454 111.429C11.7596 111.559 11.7167 111.705 11.7167 111.866C11.7167 112.113 11.8094 112.319 11.9947 112.484C12.1834 112.649 12.458 112.731 12.8183 112.731C13.1752 112.731 13.4927 112.654 13.7707 112.499C14.0486 112.342 14.2528 112.127 14.3833 111.856C14.4828 111.647 14.5325 111.338 14.5325 110.929V110.59ZM19.8502 106.852V105.787H20.7768V106.852H19.8502ZM19.8502 113.333V107.866H20.7768V113.333H19.8502ZM22.1924 113.333V107.866H23.0264V108.644C23.4279 108.043 24.0079 107.743 24.7663 107.743C25.0958 107.743 25.3978 107.803 25.6724 107.923C25.9503 108.04 26.158 108.194 26.2952 108.386C26.4325 108.578 26.5286 108.807 26.5835 109.071C26.6178 109.243 26.635 109.543 26.635 109.972V113.333H25.7084V110.008C25.7084 109.63 25.6724 109.349 25.6003 109.164C25.5282 108.975 25.3995 108.826 25.2142 108.716C25.0323 108.603 24.8178 108.546 24.5707 108.546C24.1761 108.546 23.8346 108.671 23.5463 108.922C23.2615 109.172 23.119 109.648 23.119 110.348V113.333H22.1924ZM29.5795 113.333L27.4998 107.866H28.4779L29.6516 111.14C29.7786 111.494 29.8953 111.861 30.0016 112.242C30.084 111.954 30.199 111.607 30.3465 111.202L31.5614 107.866H32.5138L30.4443 113.333H29.5795ZM37.0747 111.573L38.0322 111.691C37.8812 112.251 37.6015 112.685 37.1931 112.994C36.7847 113.302 36.2631 113.457 35.6282 113.457C34.8285 113.457 34.1937 113.212 33.7235 112.721C33.2568 112.227 33.0234 111.535 33.0234 110.646C33.0234 109.726 33.2602 109.013 33.7338 108.505C34.2074 107.997 34.8217 107.743 35.5767 107.743C36.3077 107.743 36.9048 107.992 37.3681 108.489C37.8314 108.987 38.0631 109.687 38.0631 110.59C38.0631 110.644 38.0614 110.727 38.0579 110.837H33.9809C34.0152 111.437 34.1851 111.897 34.4905 112.216C34.7959 112.535 35.1769 112.695 35.6333 112.695C35.9731 112.695 36.2631 112.606 36.5033 112.427C36.7435 112.249 36.934 111.964 37.0747 111.573ZM34.0324 110.075H37.085C37.0438 109.615 36.9271 109.27 36.7349 109.04C36.4398 108.683 36.0572 108.505 35.587 108.505C35.1614 108.505 34.8028 108.647 34.5111 108.932C34.2228 109.217 34.0632 109.598 34.0324 110.075ZM38.8301 111.701L39.7464 111.557C39.7979 111.925 39.9403 112.206 40.1737 112.402C40.4105 112.597 40.7399 112.695 41.162 112.695C41.5876 112.695 41.9033 112.609 42.1092 112.438C42.3151 112.263 42.4181 112.058 42.4181 111.825C42.4181 111.616 42.3272 111.451 42.1453 111.331C42.0183 111.248 41.7026 111.144 41.1981 111.017C40.5186 110.845 40.0467 110.698 39.7824 110.574C39.5216 110.447 39.3226 110.274 39.1853 110.054C39.0514 109.831 38.9845 109.586 38.9845 109.318C38.9845 109.074 39.0394 108.85 39.1493 108.644C39.2625 108.434 39.4152 108.261 39.6074 108.124C39.7515 108.017 39.9472 107.928 40.1943 107.856C40.4448 107.781 40.7125 107.743 40.9973 107.743C41.4263 107.743 41.8021 107.805 42.1247 107.928C42.4507 108.052 42.6909 108.22 42.8454 108.433C42.9998 108.642 43.1062 108.923 43.1645 109.277L42.2585 109.4C42.2173 109.119 42.0972 108.899 41.8982 108.742C41.7026 108.584 41.4246 108.505 41.0642 108.505C40.6387 108.505 40.335 108.575 40.1531 108.716C39.9712 108.856 39.8802 109.021 39.8802 109.21C39.8802 109.33 39.918 109.438 39.9935 109.534C40.069 109.634 40.1874 109.716 40.3487 109.781C40.4413 109.816 40.7142 109.895 41.1672 110.018C41.8227 110.193 42.2791 110.337 42.5365 110.451C42.7973 110.56 43.0015 110.722 43.1491 110.934C43.2967 111.147 43.3704 111.411 43.3704 111.727C43.3704 112.036 43.2795 112.328 43.0976 112.602C42.9191 112.873 42.66 113.085 42.3203 113.236C41.9805 113.383 41.5962 113.457 41.1672 113.457C40.4568 113.457 39.9146 113.309 39.5405 113.014C39.1698 112.719 38.933 112.281 38.8301 111.701ZM46.4951 112.505L46.629 113.323C46.3682 113.378 46.1348 113.405 45.9289 113.405C45.5926 113.405 45.3317 113.352 45.1464 113.246C44.9611 113.139 44.8307 113 44.7552 112.829C44.6797 112.654 44.6419 112.288 44.6419 111.732V108.587H43.9624V107.866H44.6419V106.513L45.5634 105.957V107.866H46.4951V108.587H45.5634V111.784C45.5634 112.048 45.5788 112.218 45.6097 112.293C45.644 112.369 45.6972 112.429 45.7693 112.474C45.8448 112.518 45.9512 112.541 46.0885 112.541C46.1914 112.541 46.327 112.529 46.4951 112.505ZM51.1487 111.573L52.1062 111.691C51.9552 112.251 51.6755 112.685 51.2671 112.994C50.8588 113.302 50.3371 113.457 49.7022 113.457C48.9026 113.457 48.2677 113.212 47.7975 112.721C47.3308 112.227 47.0974 111.535 47.0974 110.646C47.0974 109.726 47.3342 109.013 47.8078 108.505C48.2814 107.997 48.8957 107.743 49.6507 107.743C50.3817 107.743 50.9789 107.992 51.4422 108.489C51.9055 108.987 52.1371 109.687 52.1371 110.59C52.1371 110.644 52.1354 110.727 52.132 110.837H48.0549C48.0892 111.437 48.2591 111.897 48.5646 112.216C48.87 112.535 49.2509 112.695 49.7074 112.695C50.0471 112.695 50.3371 112.606 50.5773 112.427C50.8176 112.249 51.008 111.964 51.1487 111.573ZM48.1064 110.075H51.159C51.1179 109.615 51.0012 109.27 50.809 109.04C50.5139 108.683 50.1312 108.505 49.661 108.505C49.2355 108.505 48.8769 108.647 48.5851 108.932C48.2969 109.217 48.1373 109.598 48.1064 110.075ZM57.0172 111.573L57.9747 111.691C57.8237 112.251 57.544 112.685 57.1356 112.994C56.7272 113.302 56.2056 113.457 55.5707 113.457C54.7711 113.457 54.1362 113.212 53.666 112.721C53.1993 112.227 52.9659 111.535 52.9659 110.646C52.9659 109.726 53.2027 109.013 53.6763 108.505C54.1499 107.997 54.7642 107.743 55.5192 107.743C56.2502 107.743 56.8473 107.992 57.3106 108.489C57.7739 108.987 58.0056 109.687 58.0056 110.59C58.0056 110.644 58.0039 110.727 58.0005 110.837H53.9234C53.9577 111.437 54.1276 111.897 54.433 112.216C54.7385 112.535 55.1194 112.695 55.5758 112.695C55.9156 112.695 56.2056 112.606 56.4458 112.427C56.686 112.249 56.8765 111.964 57.0172 111.573ZM53.9749 110.075H57.0275C56.9863 109.615 56.8697 109.27 56.6775 109.04C56.3823 108.683 55.9997 108.505 55.5295 108.505C55.104 108.505 54.7453 108.647 54.4536 108.932C54.1653 109.217 54.0058 109.598 53.9749 110.075ZM59.133 113.333V107.866H59.9669V108.695C60.1797 108.307 60.3753 108.052 60.5537 107.928C60.7356 107.805 60.9347 107.743 61.1509 107.743C61.4632 107.743 61.7806 107.842 62.1032 108.041L61.7841 108.901C61.5576 108.767 61.3311 108.7 61.1046 108.7C60.9021 108.7 60.7202 108.762 60.5589 108.886C60.3976 109.006 60.2826 109.174 60.214 109.39C60.111 109.72 60.0596 110.08 60.0596 110.471V113.333H59.133ZM62.6592 106.852V105.787H63.5858V106.852H62.6592ZM62.6592 113.333V107.866H63.5858V113.333H62.6592ZM65.0014 113.333V107.866H65.8302V108.633C66.0018 108.366 66.23 108.151 66.5149 107.99C66.7997 107.825 67.124 107.743 67.4878 107.743C67.8928 107.743 68.2239 107.827 68.4813 107.995C68.7422 108.163 68.9258 108.398 69.0322 108.7C69.4646 108.062 70.0274 107.743 70.7206 107.743C71.2629 107.743 71.6798 107.894 71.9715 108.196C72.2632 108.494 72.4091 108.956 72.4091 109.581V113.333H71.4876V109.889C71.4876 109.519 71.4568 109.253 71.395 109.092C71.3366 108.927 71.2285 108.795 71.0707 108.695C70.9128 108.596 70.7275 108.546 70.5147 108.546C70.1303 108.546 69.8112 108.675 69.5572 108.932C69.3033 109.186 69.1763 109.594 69.1763 110.157V113.333H68.2497V109.781C68.2497 109.37 68.1742 109.061 68.0232 108.855C67.8722 108.649 67.6251 108.546 67.2819 108.546C67.0211 108.546 66.7791 108.615 66.5561 108.752C66.3364 108.889 66.1768 109.09 66.0773 109.354C65.9778 109.618 65.928 109.999 65.928 110.497V113.333H65.0014ZM73.7887 106.852V105.787H74.7153V106.852H73.7887ZM73.7887 113.333V107.866H74.7153V113.333H73.7887ZM75.7603 111.701L76.6766 111.557C76.7281 111.925 76.8705 112.206 77.1039 112.402C77.3407 112.597 77.6701 112.695 78.0923 112.695C78.5178 112.695 78.8335 112.609 79.0395 112.438C79.2454 112.263 79.3483 112.058 79.3483 111.825C79.3483 111.616 79.2574 111.451 79.0755 111.331C78.9485 111.248 78.6328 111.144 78.1283 111.017C77.4488 110.845 76.9769 110.698 76.7127 110.574C76.4518 110.447 76.2528 110.274 76.1155 110.054C75.9817 109.831 75.9147 109.586 75.9147 109.318C75.9147 109.074 75.9697 108.85 76.0795 108.644C76.1927 108.434 76.3454 108.261 76.5376 108.124C76.6818 108.017 76.8774 107.928 77.1245 107.856C77.375 107.781 77.6427 107.743 77.9275 107.743C78.3565 107.743 78.7323 107.805 79.0549 107.928C79.3809 108.052 79.6212 108.22 79.7756 108.433C79.93 108.642 80.0364 108.923 80.0947 109.277L79.1887 109.4C79.1476 109.119 79.0274 108.899 78.8284 108.742C78.6328 108.584 78.3548 108.505 77.9945 108.505C77.5689 108.505 77.2652 108.575 77.0833 108.716C76.9014 108.856 76.8105 109.021 76.8105 109.21C76.8105 109.33 76.8482 109.438 76.9237 109.534C76.9992 109.634 77.1176 109.716 77.2789 109.781C77.3716 109.816 77.6444 109.895 78.0974 110.018C78.7529 110.193 79.2093 110.337 79.4667 110.451C79.7275 110.56 79.9317 110.722 80.0793 110.934C80.2269 111.147 80.3007 111.411 80.3007 111.727C80.3007 112.036 80.2097 112.328 80.0278 112.602C79.8494 112.873 79.5903 113.085 79.2505 113.236C78.9108 113.383 78.5264 113.457 78.0974 113.457C77.387 113.457 76.8448 113.309 76.4707 113.014C76.1001 112.719 75.8633 112.281 75.7603 111.701ZM81.6236 113.333V108.587H80.8051V107.866H81.6236V107.285C81.6236 106.917 81.6562 106.645 81.7214 106.466C81.8107 106.226 81.9668 106.032 82.1899 105.884C82.4164 105.733 82.7321 105.658 83.1371 105.658C83.3979 105.658 83.6862 105.689 84.0019 105.751L83.8629 106.559C83.6707 106.525 83.4889 106.507 83.3173 106.507C83.0358 106.507 82.8368 106.567 82.7201 106.688C82.6034 106.808 82.5451 107.032 82.5451 107.362V107.866H83.6107V108.587H82.5451V113.333H81.6236ZM83.9916 110.6C83.9916 109.587 84.273 108.838 84.8359 108.35C85.306 107.945 85.8791 107.743 86.5552 107.743C87.3068 107.743 87.9211 107.99 88.3981 108.484C88.8752 108.975 89.1137 109.654 89.1137 110.523C89.1137 111.226 89.0073 111.78 88.7945 112.185C88.5852 112.587 88.278 112.899 87.8731 113.122C87.4715 113.345 87.0322 113.457 86.5552 113.457C85.7899 113.457 85.1705 113.212 84.6969 112.721C84.2267 112.23 83.9916 111.523 83.9916 110.6ZM84.944 110.6C84.944 111.3 85.0967 111.825 85.4021 112.175C85.7075 112.522 86.0919 112.695 86.5552 112.695C87.0151 112.695 87.3977 112.52 87.7032 112.17C88.0086 111.82 88.1613 111.286 88.1613 110.569C88.1613 109.893 88.0069 109.382 87.698 109.035C87.3926 108.685 87.0117 108.51 86.5552 108.51C86.0919 108.51 85.7075 108.683 85.4021 109.03C85.0967 109.376 84.944 109.9 84.944 110.6ZM90.205 113.333V107.866H91.0389V108.644C91.4405 108.043 92.0205 107.743 92.7789 107.743C93.1084 107.743 93.4104 107.803 93.6849 107.923C93.9629 108.04 94.1705 108.194 94.3078 108.386C94.4451 108.578 94.5412 108.807 94.5961 109.071C94.6304 109.243 94.6475 109.543 94.6475 109.972V113.333H93.7209V110.008C93.7209 109.63 93.6849 109.349 93.6128 109.164C93.5408 108.975 93.4121 108.826 93.2268 108.716C93.0449 108.603 92.8304 108.546 92.5833 108.546C92.1886 108.546 91.8471 108.671 91.5589 108.922C91.274 109.172 91.1316 109.648 91.1316 110.348V113.333H90.205ZM99.6203 113.333V112.644C99.2737 113.186 98.7641 113.457 98.0914 113.457C97.6556 113.457 97.254 113.337 96.8868 113.097C96.523 112.856 96.2399 112.522 96.0374 112.093C95.8384 111.66 95.7389 111.164 95.7389 110.605C95.7389 110.059 95.8298 109.565 96.0117 109.122C96.1936 108.676 96.4664 108.335 96.8302 108.098C97.194 107.861 97.6007 107.743 98.0502 107.743C98.3797 107.743 98.6731 107.813 98.9305 107.954C99.1879 108.091 99.3972 108.271 99.5585 108.494V105.787H100.48V113.333H99.6203ZM96.6912 110.605C96.6912 111.305 96.8388 111.828 97.1339 112.175C97.4291 112.522 97.7774 112.695 98.1789 112.695C98.5839 112.695 98.9271 112.53 99.2085 112.201C99.4933 111.868 99.6357 111.362 99.6357 110.682C99.6357 109.934 99.4916 109.385 99.2033 109.035C98.9151 108.685 98.5599 108.51 98.1377 108.51C97.7259 108.51 97.381 108.678 97.103 109.014C96.8285 109.351 96.6912 109.881 96.6912 110.605ZM101.947 106.852V105.787H102.874V106.852H101.947ZM101.947 113.333V107.866H102.874V113.333H101.947ZM107.836 113.333V112.644C107.49 113.186 106.98 113.457 106.307 113.457C105.871 113.457 105.47 113.337 105.103 113.097C104.739 112.856 104.456 112.522 104.253 112.093C104.054 111.66 103.955 111.164 103.955 110.605C103.955 110.059 104.046 109.565 104.228 109.122C104.409 108.676 104.682 108.335 105.046 108.098C105.41 107.861 105.817 107.743 106.266 107.743C106.596 107.743 106.889 107.813 107.146 107.954C107.404 108.091 107.613 108.271 107.774 108.494V105.787H108.696V113.333H107.836ZM104.907 110.605C104.907 111.305 105.055 111.828 105.35 112.175C105.645 112.522 105.993 112.695 106.395 112.695C106.8 112.695 107.143 112.53 107.424 112.201C107.709 111.868 107.852 111.362 107.852 110.682C107.852 109.934 107.707 109.385 107.419 109.035C107.131 108.685 106.776 108.51 106.354 108.51C105.942 108.51 105.597 108.678 105.319 109.014C105.044 109.351 104.907 109.881 104.907 110.605Z" fill="#231F20"/>
<path fill-rule="evenodd" clip-rule="evenodd" d="M8 7.6439H111.906V77.1514H8V7.6439Z" fill="#254AA5"/>
<path fill-rule="evenodd" clip-rule="evenodd" d="M60.2666 17.7664H63.2601L60.8465 19.5791L61.7807 22.4492L59.3774 20.6872L56.9743 22.4492L57.9207 19.5791L55.4863 17.7664H58.4774L59.3774 14.968L60.2666 17.7664Z" fill="#FFF200"/>
<path fill-rule="evenodd" clip-rule="evenodd" d="M60.394 64.0824H63.3892L60.9816 65.891L61.9115 68.7656L59.5126 66.9946L57.105 68.7656L58.0567 65.891L55.6196 64.0824H58.6043L59.5126 61.2844L60.394 64.0824Z" fill="#FFF200"/>
<path fill-rule="evenodd" clip-rule="evenodd" d="M71.8599 61.013H74.8571L72.4416 62.8215L73.3793 65.6875L70.9771 63.9214L68.5649 65.6875L69.5159 62.8215L67.0811 61.013H70.0721L70.9771 58.2067L71.8599 61.013Z" fill="#FFF200"/>
<path fill-rule="evenodd" clip-rule="evenodd" d="M71.8599 20.8186H74.8571L72.4416 22.6317L73.3793 25.4932L70.9771 23.7312L68.5649 25.4932L69.5159 22.6317L67.0811 20.8186H70.0721L70.9771 18.0206L71.8599 20.8186Z" fill="#FFF200"/>
<path fill-rule="evenodd" clip-rule="evenodd" d="M80.3724 29.3234H83.3612L80.9541 31.1318L81.8921 34.0107L79.4894 32.2403L77.082 34.0107L78.0268 31.1318L75.5913 29.3234H78.5805L79.4894 26.5296L80.3724 29.3234Z" fill="#FFF200"/>
<path fill-rule="evenodd" clip-rule="evenodd" d="M80.3724 52.6146H83.3612L80.9541 54.423L81.8921 57.2939L79.4894 55.5315L77.082 57.2939L78.0268 54.423L75.5913 52.6146H78.5805L79.4894 49.817L80.3724 52.6146Z" fill="#FFF200"/>
<path fill-rule="evenodd" clip-rule="evenodd" d="M83.5607 40.7947H86.556L84.1447 42.6031L85.0767 45.4775L82.6777 43.7117L80.2725 45.4775L81.2216 42.6031L78.7905 40.7947H81.7711L82.6777 37.9922L83.5607 40.7947Z" fill="#FFF200"/>
<path fill-rule="evenodd" clip-rule="evenodd" d="M48.5715 20.8487H51.5687L49.1532 22.6613L50.0916 25.5273L47.6886 23.7571L45.2836 25.5273L46.232 22.6613L43.8018 20.8487H46.7846L47.6886 18.0465L48.5715 20.8487Z" fill="#FFF200"/>
<path fill-rule="evenodd" clip-rule="evenodd" d="M40.2967 29.3565H43.2947L40.8785 31.165L41.8169 34.0352L39.4139 32.2693L37.0105 34.0352L37.9577 31.165L35.5225 29.3565H38.509L39.4139 26.5626L40.2967 29.3565Z" fill="#FFF200"/>
<path fill-rule="evenodd" clip-rule="evenodd" d="M37.2272 40.8243H40.216L37.8108 42.6335L38.7451 45.5029L36.3436 43.7371L33.9414 45.5029L34.8832 42.6335L32.4507 40.8243H35.4354L36.3436 38.0267L37.2272 40.8243Z" fill="#FFF200"/>
<path fill-rule="evenodd" clip-rule="evenodd" d="M40.2967 52.6452H43.2947L40.8785 54.4537L41.8169 57.3242L39.4139 55.5573L37.0105 57.3242L37.9577 54.4537L35.5225 52.6452H38.509L39.4139 49.8472L40.2967 52.6452Z" fill="#FFF200"/>
<path fill-rule="evenodd" clip-rule="evenodd" d="M48.6903 61.0391H51.6855L49.2719 62.8522L50.2063 65.7178L47.8074 63.9512L45.3997 65.7178L46.3507 62.8522L43.916 61.0391H46.9026L47.8074 58.2366L48.6903 61.0391Z" fill="#FFF200"/>
<path fill-rule="evenodd" clip-rule="evenodd" d="M169.328 21.4933C177.435 22.2446 184.909 24.8968 191.367 28.9582C191.375 28.9666 191.546 29.0845 191.813 29.2549C183.649 17.6069 170.486 9.45062 155.055 8.02115C141.551 6.77808 128.826 10.9091 119.045 18.6219C126.47 20.0959 132.997 23.8245 137.964 29.0074C146.985 23.3169 157.887 20.4373 169.328 21.4933" fill="#287AC8"/>
<path fill-rule="evenodd" clip-rule="evenodd" d="M200.534 53.4263C200.53 53.4263 200.53 53.422 200.53 53.422C200.53 53.4463 200.534 53.4671 200.534 53.4912C200.534 53.4671 200.534 53.4463 200.534 53.4263" fill="white"/>
<path fill-rule="evenodd" clip-rule="evenodd" d="M200.873 53.9946C200.861 53.8358 200.804 53.1415 200.792 52.9994C200.032 44.2992 196.953 36.1596 192.107 29.2544C191.839 29.084 191.669 28.9662 191.661 28.9578C185.203 24.8963 177.729 22.2442 169.622 21.4929C158.181 20.4369 147.279 23.3164 138.258 29.007C143.839 34.8315 147.458 42.4836 148.165 50.8666C148.339 52.9548 148.343 55.091 148.144 57.2596C147.828 60.6514 147.056 63.8927 145.881 66.914C143.762 72.4299 140.325 77.2474 136 81.0371L136.077 80.9675C152.71 71.3335 173.33 67.1866 193.655 70.2695C191.811 72.0123 189.041 73.4946 186.787 74.6644C189.532 73.9492 199.187 70.0946 199.325 69.802C199.325 69.802 199.333 69.7979 199.333 69.7944H199.325C199.325 69.7944 201.579 62.4996 200.873 53.9946" fill="#231F20"/>
<path fill-rule="evenodd" clip-rule="evenodd" d="M199.689 52.8502C193.256 48.4954 187.951 45.8632 176.749 44.8235C168.232 44.0359 160.011 45.429 152.655 48.5362C152.842 50.5915 152.858 52.6955 152.659 54.8276C151.701 65.165 146.201 73.9743 138.313 79.498C158.711 67.7679 177.257 66.2006 192.963 68.5968C194.007 68.759 197.236 69.316 198.727 69.714C200.554 60.518 199.916 54.4338 199.689 52.8502" fill="white"/>
<path d="M157.308 89.3333V81.7867H162.765V82.6772H158.307V84.9886H162.481V85.874H158.307V88.4428H162.94V89.3333H157.308ZM167.943 87.5728L168.901 87.6912C168.75 88.2506 168.47 88.6847 168.062 88.9936C167.653 89.3024 167.132 89.4569 166.497 89.4569C165.697 89.4569 165.062 89.2115 164.592 88.7207C164.125 88.2266 163.892 87.535 163.892 86.6462C163.892 85.7265 164.129 85.0126 164.602 84.5047C165.076 83.9968 165.69 83.7428 166.445 83.7428C167.176 83.7428 167.773 83.9916 168.237 84.4893C168.7 84.9869 168.932 85.687 168.932 86.5896C168.932 86.6445 168.93 86.7268 168.926 86.8367H164.849C164.884 87.4372 165.054 87.8971 165.359 88.2163C165.664 88.5354 166.045 88.695 166.502 88.695C166.842 88.695 167.132 88.6058 167.372 88.4273C167.612 88.2489 167.802 87.964 167.943 87.5728ZM164.901 86.0748H167.953C167.912 85.6149 167.796 85.27 167.603 85.0401C167.308 84.6832 166.926 84.5047 166.455 84.5047C166.03 84.5047 165.671 84.6471 165.38 84.932C165.091 85.2168 164.932 85.5978 164.901 86.0748ZM169.699 87.7015L170.615 87.5573C170.666 87.9246 170.809 88.206 171.042 88.4016C171.279 88.5972 171.608 88.695 172.031 88.695C172.456 88.695 172.772 88.6092 172.978 88.4376C173.184 88.2626 173.287 88.0584 173.287 87.825C173.287 87.6157 173.196 87.451 173.014 87.3308C172.887 87.2485 172.571 87.1438 172.067 87.0168C171.387 86.8452 170.915 86.6977 170.651 86.5741C170.39 86.4471 170.191 86.2738 170.054 86.0542C169.92 85.8311 169.853 85.5857 169.853 85.3181C169.853 85.0744 169.908 84.8496 170.018 84.6437C170.131 84.4344 170.284 84.261 170.476 84.1238C170.62 84.0174 170.816 83.9282 171.063 83.8561C171.313 83.7806 171.581 83.7428 171.866 83.7428C172.295 83.7428 172.671 83.8046 172.993 83.9282C173.319 84.0517 173.559 84.2199 173.714 84.4326C173.868 84.642 173.975 84.9234 174.033 85.2769L173.127 85.4004C173.086 85.119 172.966 84.8994 172.767 84.7415C172.571 84.5836 172.293 84.5047 171.933 84.5047C171.507 84.5047 171.203 84.5751 171.022 84.7158C170.84 84.8565 170.749 85.0212 170.749 85.21C170.749 85.3301 170.786 85.4382 170.862 85.5343C170.937 85.6338 171.056 85.7162 171.217 85.7814C171.31 85.8157 171.583 85.8946 172.036 86.0182C172.691 86.1932 173.148 86.3373 173.405 86.4506C173.666 86.5604 173.87 86.7217 174.018 86.9345C174.165 87.1472 174.239 87.4115 174.239 87.7272C174.239 88.0361 174.148 88.3278 173.966 88.6023C173.788 88.8735 173.529 89.0845 173.189 89.2355C172.849 89.3831 172.465 89.4569 172.036 89.4569C171.325 89.4569 170.783 89.3093 170.409 89.0142C170.038 88.719 169.802 88.2815 169.699 87.7015ZM177.364 88.5045L177.497 89.323C177.237 89.3779 177.003 89.4054 176.797 89.4054C176.461 89.4054 176.2 89.3522 176.015 89.2458C175.83 89.1394 175.699 89.0004 175.624 88.8288C175.548 88.6538 175.51 88.2883 175.51 87.7324V84.5871H174.831V83.8664H175.51V82.5125L176.432 81.9566V83.8664H177.364V84.5871H176.432V87.7838C176.432 88.0481 176.447 88.218 176.478 88.2935C176.513 88.369 176.566 88.429 176.638 88.4737C176.713 88.5183 176.82 88.5406 176.957 88.5406C177.06 88.5406 177.195 88.5286 177.364 88.5045ZM178.28 82.8523V81.7867H179.207V82.8523H178.28ZM178.28 89.3333V83.8664H179.207V89.3333H178.28ZM135.718 100.505L135.852 101.323C135.591 101.378 135.358 101.405 135.152 101.405C134.815 101.405 134.555 101.352 134.369 101.246C134.184 101.139 134.054 101 133.978 100.829C133.903 100.654 133.865 100.288 133.865 99.7324V96.5871H133.185V95.8664H133.865V94.5125L134.786 93.9566V95.8664H135.718V96.5871H134.786V99.7838C134.786 100.048 134.802 100.218 134.833 100.293C134.867 100.369 134.92 100.429 134.992 100.474C135.068 100.518 135.174 100.541 135.311 100.541C135.414 100.541 135.55 100.529 135.718 100.505ZM140.212 101.333V100.53C139.786 101.148 139.208 101.457 138.477 101.457C138.155 101.457 137.853 101.395 137.571 101.272C137.293 101.148 137.086 100.994 136.948 100.808C136.815 100.62 136.72 100.39 136.665 100.118C136.627 99.9366 136.609 99.6483 136.609 99.2536V95.8664H137.535V98.8984C137.535 99.3823 137.554 99.7083 137.592 99.8765C137.65 100.12 137.774 100.312 137.962 100.453C138.151 100.59 138.385 100.659 138.663 100.659C138.941 100.659 139.201 100.589 139.445 100.448C139.689 100.304 139.86 100.11 139.96 99.8662C140.063 99.6191 140.114 99.2622 140.114 98.7955V95.8664H141.041V101.333H140.212ZM142.477 101.333V93.7867H143.404V101.333H142.477ZM148.587 99.5728L149.545 99.6912C149.394 100.251 149.114 100.685 148.706 100.994C148.298 101.302 147.776 101.457 147.141 101.457C146.341 101.457 145.706 101.212 145.236 100.721C144.77 100.227 144.536 99.535 144.536 98.6462C144.536 97.7264 144.773 97.0126 145.247 96.5047C145.72 95.9968 146.334 95.7428 147.089 95.7428C147.82 95.7428 148.418 95.9916 148.881 96.4893C149.344 96.9869 149.576 97.687 149.576 98.5896C149.576 98.6445 149.574 98.7268 149.571 98.8367H145.494C145.528 99.4372 145.698 99.8971 146.003 100.216C146.309 100.535 146.69 100.695 147.146 100.695C147.486 100.695 147.776 100.606 148.016 100.427C148.256 100.249 148.447 99.964 148.587 99.5728ZM145.545 98.0748H148.598C148.557 97.6149 148.44 97.27 148.248 97.0401C147.953 96.6832 147.57 96.5047 147.1 96.5047C146.674 96.5047 146.316 96.6471 146.024 96.932C145.736 97.2168 145.576 97.5978 145.545 98.0748ZM152.232 101.333L150.152 95.8664H151.131L152.304 99.1404C152.431 99.4939 152.548 99.8611 152.654 100.242C152.737 99.9537 152.852 99.6071 152.999 99.2021L154.214 95.8664H155.166L153.097 101.333H152.232ZM155.99 94.8523V93.7867H156.917V94.8523H155.99ZM155.99 101.333V95.8664H156.917V101.333H155.99ZM158.337 101.333V93.7867H159.264V98.0902L161.457 95.8664H162.656L160.566 97.8946L162.867 101.333H161.725L159.918 98.5381L159.264 99.1661V101.333H158.337ZM167.186 101.333V100.53C166.761 101.148 166.183 101.457 165.452 101.457C165.129 101.457 164.827 101.395 164.546 101.272C164.268 101.148 164.06 100.994 163.923 100.808C163.789 100.62 163.695 100.39 163.64 100.118C163.602 99.9366 163.583 99.6483 163.583 99.2536V95.8664H164.51V98.8984C164.51 99.3823 164.528 99.7083 164.566 99.8765C164.625 100.12 164.748 100.312 164.937 100.453C165.126 100.59 165.359 100.659 165.637 100.659C165.915 100.659 166.176 100.589 166.419 100.448C166.663 100.304 166.835 100.11 166.934 99.8662C167.037 99.6191 167.089 99.2622 167.089 98.7955V95.8664H168.015V101.333H167.186ZM172.406 101.333V93.7867H173.333V96.4944C173.765 95.9934 174.311 95.7428 174.97 95.7428C175.375 95.7428 175.727 95.8235 176.025 95.9848C176.324 96.1426 176.537 96.3623 176.664 96.6437C176.794 96.9251 176.859 97.3335 176.859 97.8689V101.333H175.933V97.8689C175.933 97.4056 175.831 97.0692 175.629 96.8599C175.43 96.6471 175.147 96.5407 174.779 96.5407C174.505 96.5407 174.246 96.6128 174.002 96.757C173.762 96.8977 173.59 97.0898 173.487 97.3335C173.384 97.5772 173.333 97.9135 173.333 98.3425V101.333H172.406ZM182.017 99.5728L182.975 99.6912C182.824 100.251 182.544 100.685 182.136 100.994C181.727 101.302 181.206 101.457 180.571 101.457C179.771 101.457 179.136 101.212 178.666 100.721C178.199 100.227 177.966 99.535 177.966 98.6462C177.966 97.7264 178.203 97.0126 178.676 96.5047C179.15 95.9968 179.764 95.7428 180.519 95.7428C181.25 95.7428 181.847 95.9916 182.311 96.4893C182.774 96.9869 183.006 97.687 183.006 98.5896C183.006 98.6445 183.004 98.7268 183 98.8367H178.923C178.958 99.4372 179.128 99.8971 179.433 100.216C179.738 100.535 180.119 100.695 180.576 100.695C180.916 100.695 181.206 100.606 181.446 100.427C181.686 100.249 181.877 99.964 182.017 99.5728ZM178.975 98.0748H182.028C181.986 97.6149 181.87 97.27 181.677 97.0401C181.382 96.6832 181 96.5047 180.53 96.5047C180.104 96.5047 179.745 96.6471 179.454 96.932C179.165 97.2168 179.006 97.5978 178.975 98.0748ZM187.711 100.659C187.367 100.951 187.036 101.157 186.717 101.277C186.401 101.397 186.062 101.457 185.698 101.457C185.097 101.457 184.636 101.311 184.313 101.019C183.991 100.724 183.829 100.348 183.829 99.892C183.829 99.6243 183.889 99.3806 184.009 99.161C184.133 98.9379 184.293 98.7594 184.488 98.6256C184.687 98.4918 184.91 98.3905 185.157 98.3219C185.339 98.2738 185.614 98.2275 185.981 98.1829C186.729 98.0937 187.28 97.9873 187.633 97.8637C187.637 97.7367 187.639 97.6561 187.639 97.6218C187.639 97.2443 187.551 96.9783 187.376 96.8239C187.139 96.6145 186.788 96.5099 186.321 96.5099C185.885 96.5099 185.562 96.5871 185.353 96.7415C185.147 96.8925 184.994 97.1619 184.895 97.5497L183.989 97.4262C184.071 97.0384 184.207 96.7261 184.395 96.4893C184.584 96.249 184.857 96.0654 185.214 95.9385C185.571 95.808 185.984 95.7428 186.455 95.7428C186.921 95.7428 187.301 95.7977 187.592 95.9076C187.884 96.0174 188.098 96.1564 188.236 96.3245C188.373 96.4893 188.469 96.6986 188.524 96.9526C188.555 97.1104 188.57 97.3953 188.57 97.8071V99.0426C188.57 99.904 188.589 100.45 188.627 100.68C188.668 100.906 188.747 101.124 188.864 101.333H187.896C187.8 101.141 187.738 100.916 187.711 100.659ZM187.633 98.5896C187.297 98.7268 186.793 98.8435 186.12 98.9396C185.739 98.9945 185.47 99.0563 185.312 99.1249C185.154 99.1936 185.032 99.2948 184.946 99.4287C184.861 99.5591 184.818 99.7049 184.818 99.8662C184.818 100.113 184.91 100.319 185.096 100.484C185.284 100.649 185.559 100.731 185.919 100.731C186.276 100.731 186.594 100.654 186.872 100.499C187.15 100.342 187.354 100.127 187.484 99.8559C187.584 99.6466 187.633 99.3377 187.633 98.9293V98.5896ZM190.017 101.333V93.7867H190.943V98.0902L193.136 95.8664H194.336L192.246 97.8946L194.547 101.333H193.404L191.597 98.5381L190.943 99.1661V101.333H190.017ZM194.912 99.7015L195.829 99.5573C195.88 99.9246 196.023 100.206 196.256 100.402C196.493 100.597 196.822 100.695 197.244 100.695C197.67 100.695 197.986 100.609 198.192 100.438C198.397 100.263 198.5 100.058 198.5 99.825C198.5 99.6157 198.409 99.451 198.228 99.3308C198.101 99.2485 197.785 99.1438 197.28 99.0168C196.601 98.8452 196.129 98.6977 195.865 98.5741C195.604 98.4471 195.405 98.2738 195.268 98.0542C195.134 97.8311 195.067 97.5857 195.067 97.3181C195.067 97.0744 195.122 96.8496 195.232 96.6437C195.345 96.4344 195.498 96.261 195.69 96.1238C195.834 96.0174 196.029 95.9282 196.277 95.8561C196.527 95.7806 196.795 95.7428 197.08 95.7428C197.509 95.7428 197.884 95.8046 198.207 95.9282C198.533 96.0517 198.773 96.2199 198.928 96.4326C199.082 96.642 199.189 96.9234 199.247 97.2769L198.341 97.4004C198.3 97.119 198.18 96.8994 197.981 96.7415C197.785 96.5836 197.507 96.5047 197.147 96.5047C196.721 96.5047 196.417 96.5751 196.235 96.7158C196.054 96.8565 195.963 97.0212 195.963 97.21C195.963 97.3301 196 97.4382 196.076 97.5343C196.151 97.6338 196.27 97.7162 196.431 97.7814C196.524 97.8157 196.797 97.8946 197.25 98.0182C197.905 98.1932 198.361 98.3373 198.619 98.4506C198.88 98.5604 199.084 98.7217 199.231 98.9345C199.379 99.1472 199.453 99.4115 199.453 99.7272C199.453 100.036 199.362 100.328 199.18 100.602C199.001 100.873 198.742 101.085 198.403 101.236C198.063 101.383 197.679 101.457 197.25 101.457C196.539 101.457 195.997 101.309 195.623 101.014C195.252 100.719 195.015 100.281 194.912 99.7015Z" fill="#231F20"/>
</svg>
