<svg id="Layer_1" data-name="Layer 1" xmlns="http://www.w3.org/2000/svg" viewBox="0 0 156 91"><defs><style>.cls-1{fill:#1a1a18;}.cls-2{fill:#134094;}.cls-3{fill:#ffed00;}.cls-3,.cls-4,.cls-5,.cls-6{fill-rule:evenodd;}.cls-4{fill:#0076be;}.cls-5{fill:#fff;}</style></defs><title>Artboard 1</title><polygon class="cls-1" points="24.3 68.84 24.3 63.18 28.4 63.18 28.4 63.84 25.05 63.84 25.05 65.58 28.18 65.58 28.18 66.24 25.05 66.24 25.05 68.17 28.53 68.17 28.53 68.84 24.3 68.84"/><path class="cls-1" d="M32.16,68.84v-.61a1.49,1.49,0,0,1-1.3.7,1.72,1.72,0,0,1-.68-.14,1.06,1.06,0,0,1-.46-.35,1.18,1.18,0,0,1-.22-.51,3.51,3.51,0,0,1,0-.65V64.74h.69V67a5.07,5.07,0,0,0,0,.73.73.73,0,0,0,.28.43.84.84,0,0,0,.53.16,1.14,1.14,0,0,0,.59-.16.86.86,0,0,0,.38-.44,2.07,2.07,0,0,0,.12-.8V64.74h.69v4.1Z"/><path class="cls-1" d="M33.86,68.84v-4.1h.63v.62a1.78,1.78,0,0,1,.44-.58.8.8,0,0,1,.45-.14,1.35,1.35,0,0,1,.71.23l-.24.64a1,1,0,0,0-.51-.15.68.68,0,0,0-.41.14.81.81,0,0,0-.26.38,3,3,0,0,0-.11.81v2.15Z"/><path class="cls-1" d="M36.24,66.79a2.12,2.12,0,0,1,.64-1.69,1.92,1.92,0,0,1,1.29-.46,1.85,1.85,0,0,1,1.38.56,2.1,2.1,0,0,1,.54,1.53A2.65,2.65,0,0,1,39.85,68a1.69,1.69,0,0,1-.69.71,2,2,0,0,1-1,.25,1.85,1.85,0,0,1-1.39-.55,2.19,2.19,0,0,1-.54-1.59Zm.72,0A1.72,1.72,0,0,0,37.3,68,1.14,1.14,0,0,0,39,68a1.77,1.77,0,0,0,.34-1.2A1.7,1.7,0,0,0,39,65.61a1.15,1.15,0,0,0-1.73,0A1.73,1.73,0,0,0,37,66.79Z"/><path class="cls-1" d="M40.64,66.79a2.09,2.09,0,0,1,.64-1.69,1.92,1.92,0,0,1,1.29-.46A1.85,1.85,0,0,1,44,65.2a2.1,2.1,0,0,1,.53,1.53A2.66,2.66,0,0,1,44.25,68a1.69,1.69,0,0,1-.69.71,2,2,0,0,1-1,.25,1.89,1.89,0,0,1-1.4-.55,2.23,2.23,0,0,1-.53-1.59Zm.72,0A1.72,1.72,0,0,0,41.7,68a1.14,1.14,0,0,0,1.73,0,1.77,1.77,0,0,0,.34-1.2,1.65,1.65,0,0,0-.35-1.15,1.09,1.09,0,0,0-.85-.39,1.11,1.11,0,0,0-.87.39A1.73,1.73,0,0,0,41.36,66.79Z"/><path class="cls-1" d="M45.3,70.41V64.74h.63v.53a1.5,1.5,0,0,1,.51-.47,1.42,1.42,0,0,1,.68-.16,1.64,1.64,0,0,1,.93.27,1.6,1.6,0,0,1,.6.77,2.65,2.65,0,0,1,.21,1.07,2.8,2.8,0,0,1-.23,1.14,1.76,1.76,0,0,1-.65.77,1.69,1.69,0,0,1-.91.27,1.26,1.26,0,0,1-.62-.15,1.42,1.42,0,0,1-.46-.37v2Zm.63-3.6A1.8,1.8,0,0,0,46.25,68a1,1,0,0,0,1.57,0,2.34,2.34,0,0,0,0-2.38,1,1,0,0,0-.77-.39,1,1,0,0,0-.79.41A1.86,1.86,0,0,0,45.93,66.81Z"/><path class="cls-1" d="M52.37,68.33a2.54,2.54,0,0,1-.74.46,2.15,2.15,0,0,1-.77.14,1.51,1.51,0,0,1-1-.33,1.09,1.09,0,0,1-.36-.84,1.16,1.16,0,0,1,.14-.56,1.12,1.12,0,0,1,.36-.39,1.43,1.43,0,0,1,.5-.23,5,5,0,0,1,.61-.11,5.27,5.27,0,0,0,1.24-.24,1.53,1.53,0,0,0,0-.18.79.79,0,0,0-.2-.6,1.2,1.2,0,0,0-.79-.23,1.16,1.16,0,0,0-.72.17,1.05,1.05,0,0,0-.35.61l-.68-.1a1.56,1.56,0,0,1,.31-.7,1.25,1.25,0,0,1,.61-.41,2.67,2.67,0,0,1,.93-.15,2.27,2.27,0,0,1,.85.13,1.12,1.12,0,0,1,.49.31,1.07,1.07,0,0,1,.21.47,3.13,3.13,0,0,1,0,.64v.93a10,10,0,0,0,0,1.22,1.58,1.58,0,0,0,.18.5h-.73a1.59,1.59,0,0,1-.14-.51Zm-.06-1.55a5.15,5.15,0,0,1-1.13.26,2.64,2.64,0,0,0-.61.14.61.61,0,0,0-.27.23.6.6,0,0,0,.11.79.94.94,0,0,0,.62.18,1.38,1.38,0,0,0,.71-.17,1.06,1.06,0,0,0,.46-.48,1.62,1.62,0,0,0,.11-.7Z"/><polygon class="cls-1" points="56.35 68.84 56.35 63.18 57.1 63.18 57.1 68.17 59.89 68.17 59.89 68.84 56.35 68.84"/><path class="cls-1" d="M60.69,64v-.8h.7V64Zm0,4.86v-4.1h.7v4.1Z"/><path class="cls-1" d="M62.45,64v-.8h.69V64Zm0,4.86v-4.1h.69v4.1Z"/><path class="cls-1" d="M65.72,68.21l.1.62a2.59,2.59,0,0,1-.52.06,1.18,1.18,0,0,1-.59-.12.6.6,0,0,1-.29-.32,2.27,2.27,0,0,1-.09-.81V65.28h-.51v-.54h.51v-1L65,63.3v1.44h.7v.54H65v2.39a1.09,1.09,0,0,0,0,.39.25.25,0,0,0,.12.13.46.46,0,0,0,.23,0Z"/><polygon class="cls-1" points="11.78 76.91 11.78 71.25 15.88 71.25 15.88 71.91 12.53 71.91 12.53 73.65 15.66 73.65 15.66 74.31 12.53 74.31 12.53 76.24 16.01 76.24 16.01 76.91 11.78 76.91"/><path class="cls-1" d="M19.64,76.91V76.3a1.49,1.49,0,0,1-1.3.7,1.72,1.72,0,0,1-.68-.14,1.16,1.16,0,0,1-.47-.35A1.31,1.31,0,0,1,17,76a3.51,3.51,0,0,1,0-.65V72.81h.69v2.27a5.07,5.07,0,0,0,0,.73.73.73,0,0,0,.28.43.84.84,0,0,0,.53.16,1.08,1.08,0,0,0,.58-.16.83.83,0,0,0,.39-.44,2.07,2.07,0,0,0,.12-.8V72.81h.69v4.1Z"/><path class="cls-1" d="M21.34,76.91v-4.1H22v.62a1.65,1.65,0,0,1,.44-.58.77.77,0,0,1,.45-.14,1.35,1.35,0,0,1,.71.23l-.24.64a1,1,0,0,0-.51-.15.68.68,0,0,0-.41.14.74.74,0,0,0-.26.38,3,3,0,0,0-.11.81v2.15Z"/><path class="cls-1" d="M23.72,74.86a2.09,2.09,0,0,1,.64-1.69,1.92,1.92,0,0,1,1.29-.46,1.85,1.85,0,0,1,1.38.56,2.1,2.1,0,0,1,.54,1.53A2.65,2.65,0,0,1,27.33,76a1.69,1.69,0,0,1-.69.71,2,2,0,0,1-1,.25,1.82,1.82,0,0,1-1.39-.55,2.19,2.19,0,0,1-.54-1.59Zm.72,0A1.77,1.77,0,0,0,24.78,76a1.11,1.11,0,0,0,.87.39,1.08,1.08,0,0,0,.86-.4,1.77,1.77,0,0,0,.34-1.2,1.7,1.7,0,0,0-.34-1.15,1.15,1.15,0,0,0-1.73,0A1.73,1.73,0,0,0,24.44,74.86Z"/><path class="cls-1" d="M28.12,74.86a2.09,2.09,0,0,1,.64-1.69A1.91,1.91,0,0,1,30,72.71a1.85,1.85,0,0,1,1.39.56A2.1,2.1,0,0,1,32,74.8,2.8,2.8,0,0,1,31.73,76a1.69,1.69,0,0,1-.69.71A2,2,0,0,1,30,77a1.85,1.85,0,0,1-1.39-.55,2.23,2.23,0,0,1-.53-1.59Zm.72,0A1.77,1.77,0,0,0,29.18,76a1.11,1.11,0,0,0,.86.39,1.09,1.09,0,0,0,.87-.4,1.83,1.83,0,0,0,.34-1.2,1.7,1.7,0,0,0-.35-1.15,1.09,1.09,0,0,0-.86-.39,1.11,1.11,0,0,0-.86.39A1.73,1.73,0,0,0,28.84,74.86Z"/><path class="cls-1" d="M32.78,78.48V72.81h.63v.53a1.5,1.5,0,0,1,.51-.47,1.39,1.39,0,0,1,.68-.16,1.64,1.64,0,0,1,.93.27,1.6,1.6,0,0,1,.6.77,2.67,2.67,0,0,1,.21,1.08A2.78,2.78,0,0,1,36.11,76a1.71,1.71,0,0,1-1.56,1,1.26,1.26,0,0,1-.62-.15,1.42,1.42,0,0,1-.46-.37v2Zm.63-3.6a1.74,1.74,0,0,0,.32,1.17,1,1,0,0,0,.77.38,1,1,0,0,0,.8-.39,1.89,1.89,0,0,0,.33-1.22,1.83,1.83,0,0,0-.32-1.17,1,1,0,0,0-.77-.39,1,1,0,0,0-.79.41A1.86,1.86,0,0,0,33.41,74.88Z"/><path class="cls-1" d="M39.85,76.4a2.54,2.54,0,0,1-.74.46,2.19,2.19,0,0,1-.77.14,1.51,1.51,0,0,1-1-.33,1.09,1.09,0,0,1-.36-.84,1.16,1.16,0,0,1,.14-.56,1.12,1.12,0,0,1,.36-.39,1.64,1.64,0,0,1,.5-.23,5,5,0,0,1,.61-.11,5.27,5.27,0,0,0,1.24-.24,1.53,1.53,0,0,0,0-.18.79.79,0,0,0-.2-.6,1.2,1.2,0,0,0-.79-.23,1.29,1.29,0,0,0-.73.17,1,1,0,0,0-.34.61L37.06,74a1.6,1.6,0,0,1,.31-.71,1.25,1.25,0,0,1,.61-.41,2.67,2.67,0,0,1,.93-.15,2.49,2.49,0,0,1,.85.13,1.12,1.12,0,0,1,.49.31,1.07,1.07,0,0,1,.21.47,4.11,4.11,0,0,1,0,.64v.93a10,10,0,0,0,0,1.22,1.58,1.58,0,0,0,.18.5H40a1.59,1.59,0,0,1-.14-.51Zm-.06-1.55a5.15,5.15,0,0,1-1.13.26,2.64,2.64,0,0,0-.61.14.56.56,0,0,0-.27.23.54.54,0,0,0-.1.33.59.59,0,0,0,.21.46.94.94,0,0,0,.62.18,1.38,1.38,0,0,0,.71-.17,1.12,1.12,0,0,0,.46-.48,1.62,1.62,0,0,0,.11-.7Z"/><path class="cls-1" d="M43.49,75.68l.69-.11a1,1,0,0,0,.32.64,1.16,1.16,0,0,0,.74.22,1.07,1.07,0,0,0,.71-.2.56.56,0,0,0,.23-.45.43.43,0,0,0-.2-.38,3,3,0,0,0-.71-.23,5.72,5.72,0,0,1-1.06-.34,1,1,0,0,1-.45-.39,1,1,0,0,1-.15-.54,1.07,1.07,0,0,1,.12-.51,1.1,1.1,0,0,1,.35-.39,1.2,1.2,0,0,1,.44-.2,1.89,1.89,0,0,1,.6-.09,2.48,2.48,0,0,1,.85.14,1.09,1.09,0,0,1,.53.38,1.39,1.39,0,0,1,.24.63l-.68.1a.79.79,0,0,0-.26-.5,1,1,0,0,0-.63-.18,1.15,1.15,0,0,0-.68.16.47.47,0,0,0-.21.37.4.4,0,0,0,.09.25.6.6,0,0,0,.26.18l.62.18a8.65,8.65,0,0,1,1,.32,1.07,1.07,0,0,1,.46.37,1,1,0,0,1,.17.59,1.24,1.24,0,0,1-.2.66,1.39,1.39,0,0,1-.59.47,2.13,2.13,0,0,1-.86.17A1.93,1.93,0,0,1,44,76.67,1.56,1.56,0,0,1,43.49,75.68Z"/><path class="cls-1" d="M49.24,76.28l.1.62a2.59,2.59,0,0,1-.52.06,1.18,1.18,0,0,1-.59-.12.62.62,0,0,1-.29-.31,2.38,2.38,0,0,1-.09-.82V73.35h-.51v-.54h.51v-1l.69-.42v1.44h.7v.54h-.7v2.39a1.09,1.09,0,0,0,0,.39.25.25,0,0,0,.12.13.39.39,0,0,0,.24,0Z"/><path class="cls-1" d="M49.91,76.91v-4.1h.63v.62a1.78,1.78,0,0,1,.44-.58.8.8,0,0,1,.45-.14,1.35,1.35,0,0,1,.71.23l-.24.64a1,1,0,0,0-.51-.15.68.68,0,0,0-.41.14.81.81,0,0,0-.26.38,3,3,0,0,0-.11.81v2.15Z"/><path class="cls-1" d="M55.24,76.91V76.3a1.49,1.49,0,0,1-1.3.7,1.72,1.72,0,0,1-.68-.14,1.06,1.06,0,0,1-.46-.35,1.18,1.18,0,0,1-.22-.51,3.51,3.51,0,0,1,0-.65V72.81h.69v2.27a3.63,3.63,0,0,0,.05.73.67.67,0,0,0,.27.43.86.86,0,0,0,.53.16,1.14,1.14,0,0,0,.59-.16.86.86,0,0,0,.38-.44,2.07,2.07,0,0,0,.12-.8V72.81h.69v4.1Z"/><polygon class="cls-1" points="56.95 76.91 56.95 71.25 57.65 71.25 57.65 74.47 59.3 72.81 60.19 72.81 58.63 74.33 60.35 76.91 59.5 76.91 58.14 74.81 57.65 75.28 57.65 76.91 56.95 76.91"/><path class="cls-1" d="M62.42,76.28l.1.62A2.59,2.59,0,0,1,62,77a1.21,1.21,0,0,1-.59-.12.62.62,0,0,1-.29-.31,2.38,2.38,0,0,1-.09-.82V73.35h-.51v-.54H61v-1l.69-.42v1.44h.7v.54h-.7v2.39a1.4,1.4,0,0,0,0,.39.25.25,0,0,0,.12.13.41.41,0,0,0,.24,0Z"/><path class="cls-1" d="M65.79,76.91V76.3a1.49,1.49,0,0,1-1.3.7,1.72,1.72,0,0,1-.68-.14,1.16,1.16,0,0,1-.47-.35,1.31,1.31,0,0,1-.21-.51,3.51,3.51,0,0,1,0-.65V72.81h.69v2.27a5.07,5.07,0,0,0,0,.73.73.73,0,0,0,.28.43.84.84,0,0,0,.53.16,1.08,1.08,0,0,0,.58-.16.83.83,0,0,0,.39-.44,2.07,2.07,0,0,0,.12-.8V72.81h.69v4.1Z"/><path class="cls-1" d="M70.19,76.91V76.3a1.5,1.5,0,0,1-1.3.7,1.69,1.69,0,0,1-.68-.14,1.1,1.1,0,0,1-.47-.35,1.31,1.31,0,0,1-.21-.51,3.33,3.33,0,0,1,0-.65V72.81h.7v2.27a3.9,3.9,0,0,0,0,.73.73.73,0,0,0,.28.43.83.83,0,0,0,.52.16,1.11,1.11,0,0,0,.59-.16A.92.92,0,0,0,70,75.8a2.1,2.1,0,0,0,.11-.8V72.81h.7v4.1Z"/><path class="cls-1" d="M71.89,76.91v-4.1h.62v.62a1.65,1.65,0,0,1,.45-.58.77.77,0,0,1,.44-.14,1.38,1.38,0,0,1,.72.23l-.24.64a1,1,0,0,0-.51-.15.68.68,0,0,0-.41.14.74.74,0,0,0-.26.38,2.64,2.64,0,0,0-.12.81v2.15Z"/><path class="cls-1" d="M74.53,72.05v-.8h.7v.8Zm0,4.86v-4.1h.7v4.1Z"/><rect class="cls-1" x="76.02" y="74.51" width="2.14" height="0.7"/><path class="cls-1" d="M7.28,80.12v-.8H8v.8ZM6.4,86.57,6.53,86a1.76,1.76,0,0,0,.33,0,.36.36,0,0,0,.31-.14,1.39,1.39,0,0,0,.11-.7V80.88H8V85.2a2.07,2.07,0,0,1-.19,1.06.94.94,0,0,1-.84.38A2,2,0,0,1,6.4,86.57Z"/><path class="cls-1" d="M11.72,84.47a2.58,2.58,0,0,1-.75.46,2.14,2.14,0,0,1-.76.14,1.48,1.48,0,0,1-1-.33,1.14,1.14,0,0,1-.23-1.39A1.07,1.07,0,0,1,9.3,83a1.64,1.64,0,0,1,.5-.23,5.26,5.26,0,0,1,.62-.11,5.5,5.5,0,0,0,1.24-.24v-.18a.71.71,0,0,0-.2-.59,1.13,1.13,0,0,0-.79-.24,1.27,1.27,0,0,0-.72.17,1.09,1.09,0,0,0-.35.61l-.68-.09a1.86,1.86,0,0,1,.31-.71,1.29,1.29,0,0,1,.61-.41,2.67,2.67,0,0,1,.93-.15,2.55,2.55,0,0,1,.86.13,1.08,1.08,0,0,1,.48.31,1.21,1.21,0,0,1,.22.47,4.51,4.51,0,0,1,0,.64v.93a9.93,9.93,0,0,0,0,1.22,1.5,1.5,0,0,0,.18.5h-.73a1.59,1.59,0,0,1-.13-.51Zm-.06-1.55a5.26,5.26,0,0,1-1.14.26,2.52,2.52,0,0,0-.6.14.58.58,0,0,0-.37.56.59.59,0,0,0,.21.46.91.91,0,0,0,.61.18,1.42,1.42,0,0,0,.72-.17,1.18,1.18,0,0,0,.46-.48,1.79,1.79,0,0,0,.11-.7Z"/><path class="cls-1" d="M15.64,80.12v-.8h.69v.8Zm0,4.86v-4.1h.69V85Z"/><path class="cls-1" d="M17.39,85v-4.1H18v.58a1.47,1.47,0,0,1,1.3-.68,1.65,1.65,0,0,1,.68.14,1.08,1.08,0,0,1,.47.35,1.31,1.31,0,0,1,.21.51,3.54,3.54,0,0,1,0,.68V85H20v-2.5a2,2,0,0,0-.08-.63.73.73,0,0,0-.29-.34,1,1,0,0,0-.49-.12,1.1,1.1,0,0,0-.76.28,1.37,1.37,0,0,0-.32,1.07V85Z"/><path class="cls-1" d="M22.93,85l-1.56-4.1h.73L23,83.33c.1.27.18.54.26.83.07-.22.15-.48.26-.78l.91-2.5h.72L23.58,85Z"/><path class="cls-1" d="M28.55,83.66l.72.08a1.79,1.79,0,0,1-.63,1,1.92,1.92,0,0,1-1.18.35A1.89,1.89,0,0,1,26,84.52,2.18,2.18,0,0,1,25.51,83a2.27,2.27,0,0,1,.53-1.6,1.8,1.8,0,0,1,1.39-.58,1.77,1.77,0,0,1,1.34.56,2.23,2.23,0,0,1,.52,1.58v.18H26.23a1.54,1.54,0,0,0,.38,1,1.13,1.13,0,0,0,.86.36,1.09,1.09,0,0,0,.65-.2,1.42,1.42,0,0,0,.43-.64Zm-2.28-1.13h2.29a1.33,1.33,0,0,0-.27-.77,1.06,1.06,0,0,0-.86-.4,1.07,1.07,0,0,0-.8.32A1.23,1.23,0,0,0,26.27,82.53Z"/><path class="cls-1" d="M29.86,83.75l.69-.11a1,1,0,0,0,.32.64,1.16,1.16,0,0,0,.74.22,1.07,1.07,0,0,0,.71-.2.56.56,0,0,0,.23-.45.46.46,0,0,0-.2-.38,3,3,0,0,0-.71-.23,6.9,6.9,0,0,1-1.06-.33,1.09,1.09,0,0,1-.45-.39,1.11,1.11,0,0,1,0-1.06,1.17,1.17,0,0,1,.34-.39,1.35,1.35,0,0,1,.45-.2,1.89,1.89,0,0,1,.6-.09,2.38,2.38,0,0,1,.84.14,1.14,1.14,0,0,1,.54.38,1.39,1.39,0,0,1,.24.63l-.68.1a.75.75,0,0,0-.27-.5.94.94,0,0,0-.62-.17,1.22,1.22,0,0,0-.69.15.48.48,0,0,0-.2.37.44.44,0,0,0,.08.25.71.71,0,0,0,.27.18c.07,0,.27.09.61.18a8.37,8.37,0,0,1,1,.32,1.07,1.07,0,0,1,.46.37,1,1,0,0,1,.17.59,1.17,1.17,0,0,1-.21.66,1.3,1.3,0,0,1-.58.47,2.18,2.18,0,0,1-.87.17,1.92,1.92,0,0,1-1.21-.33A1.56,1.56,0,0,1,29.86,83.75Z"/><path class="cls-1" d="M35.61,84.35l.1.62a2.59,2.59,0,0,1-.52.06,1.18,1.18,0,0,1-.59-.12.62.62,0,0,1-.29-.31,2.38,2.38,0,0,1-.09-.82V81.42h-.51v-.54h.51v-1l.69-.42v1.44h.7v.54h-.7v2.39a1.09,1.09,0,0,0,0,.39.25.25,0,0,0,.12.13.37.37,0,0,0,.23,0Z"/><path class="cls-1" d="M39.1,83.66l.71.08a1.72,1.72,0,0,1-.62,1,1.92,1.92,0,0,1-1.18.35,1.89,1.89,0,0,1-1.42-.55A2.14,2.14,0,0,1,36.06,83a2.27,2.27,0,0,1,.53-1.6,1.92,1.92,0,0,1,2.73,0,2.28,2.28,0,0,1,.52,1.58,1.36,1.36,0,0,1,0,.18h-3a1.54,1.54,0,0,0,.38,1,1.13,1.13,0,0,0,.86.36,1.09,1.09,0,0,0,.65-.2,1.42,1.42,0,0,0,.43-.64Zm-2.29-1.13H39.1a1.33,1.33,0,0,0-.26-.77,1.14,1.14,0,0,0-1.66-.08A1.29,1.29,0,0,0,36.81,82.53Z"/><path class="cls-1" d="M43.49,83.66l.72.08a1.69,1.69,0,0,1-.63,1,1.89,1.89,0,0,1-1.17.35A1.91,1.91,0,0,1,41,84.52,2.18,2.18,0,0,1,40.46,83a2.23,2.23,0,0,1,.53-1.6,1.76,1.76,0,0,1,1.38-.58,1.74,1.74,0,0,1,1.34.56,2.23,2.23,0,0,1,.53,1.58s0,.1,0,.18H41.17a1.59,1.59,0,0,0,.39,1,1.19,1.19,0,0,0,1.51.16,1.33,1.33,0,0,0,.42-.64Zm-2.28-1.13H43.5a1.4,1.4,0,0,0-.26-.77,1.06,1.06,0,0,0-.86-.4,1.09,1.09,0,0,0-.81.32A1.33,1.33,0,0,0,41.21,82.53Z"/><path class="cls-1" d="M45.08,85v-4.1h.62v.62a1.76,1.76,0,0,1,.45-.58.77.77,0,0,1,.44-.14,1.33,1.33,0,0,1,.71.23l-.24.64a.94.94,0,0,0-.5-.15.66.66,0,0,0-.41.14.74.74,0,0,0-.26.38,2.64,2.64,0,0,0-.12.81V85Z"/><path class="cls-1" d="M47.72,80.12v-.8h.7v.8Zm0,4.86v-4.1h.7V85Z"/><path class="cls-1" d="M49.48,85v-4.1h.62v.57a1.47,1.47,0,0,1,1.24-.67,1.44,1.44,0,0,1,.75.19,1,1,0,0,1,.41.53,1.46,1.46,0,0,1,1.26-.72,1.27,1.27,0,0,1,.94.34,1.44,1.44,0,0,1,.33,1V85h-.69V82.39a1.81,1.81,0,0,0-.07-.6A.57.57,0,0,0,54,81.5a.73.73,0,0,0-.42-.11,1,1,0,0,0-.72.28,1.28,1.28,0,0,0-.28.92V85h-.7V82.31a1.17,1.17,0,0,0-.17-.69.63.63,0,0,0-.56-.23,1,1,0,0,0-.54.15.91.91,0,0,0-.36.45,2.72,2.72,0,0,0-.11.86V85Z"/><path class="cls-1" d="M56.06,80.12v-.8h.7v.8Zm0,4.86v-4.1h.7V85Z"/><path class="cls-1" d="M57.54,83.75l.69-.11a1,1,0,0,0,.32.64,1.16,1.16,0,0,0,.74.22,1.07,1.07,0,0,0,.71-.2.59.59,0,0,0,.23-.45.46.46,0,0,0-.2-.38,3.17,3.17,0,0,0-.71-.23,6.9,6.9,0,0,1-1.06-.33,1.09,1.09,0,0,1-.45-.39,1.11,1.11,0,0,1,0-1.06,1.07,1.07,0,0,1,.34-.39,1.39,1.39,0,0,1,.44-.2,2,2,0,0,1,.61-.09,2.38,2.38,0,0,1,.84.14,1.14,1.14,0,0,1,.54.38,1.39,1.39,0,0,1,.24.63l-.68.1a.75.75,0,0,0-.27-.5.94.94,0,0,0-.62-.17,1.22,1.22,0,0,0-.69.15.48.48,0,0,0-.2.37.44.44,0,0,0,.08.25.71.71,0,0,0,.27.18c.07,0,.27.09.61.18a8.37,8.37,0,0,1,1,.32,1.07,1.07,0,0,1,.46.37,1,1,0,0,1,.17.59,1.17,1.17,0,0,1-.21.66,1.3,1.3,0,0,1-.58.47,2.18,2.18,0,0,1-.87.17,2,2,0,0,1-1.22-.33A1.59,1.59,0,0,1,57.54,83.75Z"/><path class="cls-1" d="M61.94,85V81.42h-.62v-.54h.62v-.44a1.88,1.88,0,0,1,.07-.61,1,1,0,0,1,.35-.44,1.31,1.31,0,0,1,.71-.17,3.14,3.14,0,0,1,.65.07l-.1.61a2,2,0,0,0-.41,0,.62.62,0,0,0-.45.13.73.73,0,0,0-.13.51v.38h.8v.54h-.8V85Z"/><path class="cls-1" d="M63.71,82.93a2.12,2.12,0,0,1,.63-1.69,1.94,1.94,0,0,1,1.29-.46,1.82,1.82,0,0,1,1.38.56,2.1,2.1,0,0,1,.54,1.53,2.65,2.65,0,0,1-.24,1.24,1.58,1.58,0,0,1-.69.71,2,2,0,0,1-1,.25,1.85,1.85,0,0,1-1.39-.55,2.23,2.23,0,0,1-.53-1.59Zm.71,0a1.77,1.77,0,0,0,.35,1.18,1.11,1.11,0,0,0,.86.39,1.07,1.07,0,0,0,.86-.4,1.77,1.77,0,0,0,.35-1.2,1.7,1.7,0,0,0-.35-1.15,1.09,1.09,0,0,0-.86-.39,1.11,1.11,0,0,0-.86.39A1.73,1.73,0,0,0,64.42,82.93Z"/><path class="cls-1" d="M68.37,85v-4.1H69v.58a1.48,1.48,0,0,1,1.31-.68,1.72,1.72,0,0,1,.68.14,1,1,0,0,1,.46.35,1.18,1.18,0,0,1,.22.51,3.54,3.54,0,0,1,0,.68V85H71v-2.5a1.72,1.72,0,0,0-.08-.63.68.68,0,0,0-.29-.34.9.9,0,0,0-.48-.12,1.13,1.13,0,0,0-.77.28,1.41,1.41,0,0,0-.32,1.07V85Z"/><path class="cls-1" d="M75.42,85v-.52a1.26,1.26,0,0,1-1.14.61,1.59,1.59,0,0,1-.9-.27,1.71,1.71,0,0,1-.64-.76,2.59,2.59,0,0,1-.23-1.11,2.82,2.82,0,0,1,.21-1.11,1.58,1.58,0,0,1,.61-.77,1.63,1.63,0,0,1,.92-.27,1.46,1.46,0,0,1,.66.16,1.33,1.33,0,0,1,.47.41v-2h.69V85Zm-2.19-2a1.79,1.79,0,0,0,.33,1.18,1,1,0,0,0,.78.39,1,1,0,0,0,.78-.37A1.74,1.74,0,0,0,75.44,83a1.93,1.93,0,0,0-.33-1.24,1,1,0,0,0-.8-.39,1,1,0,0,0-.77.38A1.84,1.84,0,0,0,73.23,82.93Z"/><path class="cls-1" d="M77.16,80.12v-.8h.7v.8Zm0,4.86v-4.1h.7V85Z"/><path class="cls-1" d="M81.58,85v-.52a1.27,1.27,0,0,1-1.15.61,1.59,1.59,0,0,1-.9-.27,1.78,1.78,0,0,1-.64-.76,2.59,2.59,0,0,1-.22-1.11,3,3,0,0,1,.2-1.11,1.63,1.63,0,0,1,1.53-1,1.4,1.4,0,0,1,.66.16,1.33,1.33,0,0,1,.47.41v-2h.69V85Zm-2.2-2a1.79,1.79,0,0,0,.33,1.18,1,1,0,0,0,.79.39,1,1,0,0,0,.77-.37A1.74,1.74,0,0,0,81.59,83a2,2,0,0,0-.32-1.24,1,1,0,0,0-.8-.39,1,1,0,0,0-.78.38A1.91,1.91,0,0,0,79.38,82.93Z"/><rect class="cls-2" x="5.66" y="6.02" width="77.93" height="52.13"/><polygon class="cls-3" points="45.2 13.62 47.45 13.62 45.63 14.97 46.34 17.13 44.53 15.81 42.73 17.13 43.44 14.97 41.62 13.62 43.86 13.62 44.53 11.52 45.2 13.62"/><polygon class="cls-3" points="45.3 48.35 47.54 48.35 45.74 49.71 46.43 51.87 44.63 50.54 42.83 51.87 43.54 49.71 41.72 48.35 43.95 48.35 44.63 46.26 45.3 48.35"/><polygon class="cls-3" points="53.9 46.05 56.14 46.05 54.33 47.41 55.03 49.56 53.23 48.23 51.42 49.56 52.14 47.41 50.31 46.05 52.55 46.05 53.23 43.95 53.9 46.05"/><polygon class="cls-3" points="53.9 15.9 56.14 15.9 54.33 17.27 55.03 19.41 53.23 18.09 51.42 19.41 52.14 17.27 50.31 15.9 52.55 15.9 53.23 13.81 53.9 15.9"/><polygon class="cls-3" points="60.28 22.28 62.52 22.28 60.72 23.64 61.42 25.8 59.62 24.47 57.81 25.8 58.52 23.64 56.69 22.28 58.94 22.28 59.62 20.19 60.28 22.28"/><polygon class="cls-3" points="60.28 39.75 62.52 39.75 60.72 41.11 61.42 43.26 59.62 41.94 57.81 43.26 58.52 41.11 56.69 39.75 58.94 39.75 59.62 37.65 60.28 39.75"/><polygon class="cls-3" points="62.67 30.89 64.92 30.89 63.11 32.24 63.81 34.4 62.01 33.08 60.2 34.4 60.92 32.24 59.09 30.89 61.33 30.89 62.01 28.79 62.67 30.89"/><polygon class="cls-3" points="36.43 15.93 38.68 15.93 36.87 17.29 37.57 19.44 35.77 18.11 33.96 19.44 34.67 17.29 32.85 15.93 35.09 15.93 35.77 13.83 36.43 15.93"/><polygon class="cls-3" points="30.22 22.31 32.47 22.31 30.66 23.66 31.36 25.82 29.56 24.49 27.76 25.82 28.47 23.66 26.64 22.31 28.88 22.31 29.56 20.21 30.22 22.31"/><polygon class="cls-3" points="27.92 30.91 30.16 30.91 28.36 32.27 29.06 34.42 27.26 33.09 25.46 34.42 26.16 32.27 24.34 30.91 26.58 30.91 27.26 28.81 27.92 30.91"/><polygon class="cls-3" points="30.22 39.77 32.47 39.77 30.66 41.13 31.36 43.28 29.56 41.96 27.76 43.28 28.47 41.13 26.64 39.77 28.88 39.77 29.56 37.68 30.22 39.77"/><polygon class="cls-3" points="36.52 46.07 38.76 46.07 36.95 47.43 37.66 49.58 35.86 48.25 34.05 49.58 34.76 47.43 32.94 46.07 35.18 46.07 35.86 43.97 36.52 46.07"/><path class="cls-4" d="M127,16.41A37.39,37.39,0,0,1,143.53,22l.33.22a38.08,38.08,0,0,0-54.58-8,26.8,26.8,0,0,1,14.19,7.79A37.52,37.52,0,0,1,127,16.41Z"/><path class="cls-5" d="M150.4,40.36h0v0Z"/><path class="cls-6" d="M150.43,40.79c0-.12-.05-.64-.06-.75a36.57,36.57,0,0,0-6.51-17.81l-.33-.22a37.59,37.59,0,0,0-40.06,0,26.93,26.93,0,0,1,7.43,16.39,27.49,27.49,0,0,1,0,4.8,27,27,0,0,1-9.11,17.83l.06,0A66.88,66.88,0,0,1,145,53a23.66,23.66,0,0,1-5.15,3.3,80.8,80.8,0,0,0,9.4-3.65h0A35,35,0,0,0,150.43,40.79Z"/><path class="cls-5" d="M149.77,39.93c-4.83-3.27-8.81-5.24-17.21-6a37.47,37.47,0,0,0-18.07,2.78,25.66,25.66,0,0,1,0,4.72,25.36,25.36,0,0,1-10.75,18.5c15.29-8.79,29.2-10,41-8.17.79.12,3.21.54,4.33.84A39.22,39.22,0,0,0,149.77,39.93Z"/><polygon class="cls-1" points="118.85 68.86 118.85 63.2 122.94 63.2 122.94 63.87 119.6 63.87 119.6 65.6 122.73 65.6 122.73 66.26 119.6 66.26 119.6 68.19 123.08 68.19 123.08 68.86 118.85 68.86"/><path class="cls-1" d="M126.83,67.54l.72.09a1.8,1.8,0,0,1-.63,1,2.13,2.13,0,0,1-2.6-.2,2.18,2.18,0,0,1-.53-1.56,2.27,2.27,0,0,1,.53-1.6,1.82,1.82,0,0,1,1.39-.57,1.74,1.74,0,0,1,1.34.56,2.19,2.19,0,0,1,.52,1.57V67h-3.06a1.53,1.53,0,0,0,.38,1,1.15,1.15,0,0,0,.86.36,1.09,1.09,0,0,0,.65-.2,1.36,1.36,0,0,0,.43-.64Zm-2.28-1.13h2.29a1.33,1.33,0,0,0-.27-.77,1,1,0,0,0-.86-.4,1.09,1.09,0,0,0-.8.32A1.23,1.23,0,0,0,124.55,66.41Z"/><path class="cls-1" d="M128.14,67.63l.69-.1a1,1,0,0,0,.32.63,1.11,1.11,0,0,0,.74.22,1.14,1.14,0,0,0,.71-.19.58.58,0,0,0,.23-.46.41.41,0,0,0-.2-.37,2.84,2.84,0,0,0-.71-.24,6.9,6.9,0,0,1-1.06-.33,1.09,1.09,0,0,1-.45-.39,1.06,1.06,0,0,1-.15-.55,1.06,1.06,0,0,1,.47-.9,1.2,1.2,0,0,1,.44-.2,1.9,1.9,0,0,1,.6-.08,2.26,2.26,0,0,1,.85.14,1.08,1.08,0,0,1,.53.37,1.38,1.38,0,0,1,.24.64l-.68.09a.71.71,0,0,0-.27-.49.94.94,0,0,0-.62-.18,1.08,1.08,0,0,0-.68.16.45.45,0,0,0-.21.37A.36.36,0,0,0,129,66a.54.54,0,0,0,.26.19l.62.17a6.76,6.76,0,0,1,1,.33,1,1,0,0,1,.46.36,1,1,0,0,1,.17.59,1.22,1.22,0,0,1-.2.66,1.39,1.39,0,0,1-.59.47,2,2,0,0,1-.86.17,1.93,1.93,0,0,1-1.22-.33A1.56,1.56,0,0,1,128.14,67.63Z"/><path class="cls-1" d="M133.89,68.24l.1.61a2.59,2.59,0,0,1-.52.06,1.18,1.18,0,0,1-.59-.12.62.62,0,0,1-.29-.31,2.34,2.34,0,0,1-.09-.82V65.3H132v-.54h.51v-1l.69-.41v1.43h.7v.54h-.7v2.4a1,1,0,0,0,0,.38.22.22,0,0,0,.12.13.39.39,0,0,0,.24.05A1.85,1.85,0,0,0,133.89,68.24Z"/><path class="cls-1" d="M134.57,64v-.8h.7V64Zm0,4.86v-4.1h.7v4.1Z"/><path class="cls-1" d="M104,76.27l.1.62a2.59,2.59,0,0,1-.52.06,1.18,1.18,0,0,1-.59-.12.62.62,0,0,1-.29-.31,2.38,2.38,0,0,1-.09-.82V73.34h-.51V72.8h.51v-1l.69-.42V72.8h.7v.54h-.7v2.39a1.4,1.4,0,0,0,0,.39.25.25,0,0,0,.12.13.39.39,0,0,0,.24,0Z"/><path class="cls-1" d="M107.37,76.9v-.61a1.5,1.5,0,0,1-1.3.7,1.72,1.72,0,0,1-.68-.14,1.1,1.1,0,0,1-.47-.35,1.31,1.31,0,0,1-.21-.51,3.51,3.51,0,0,1,0-.65V72.8h.69v2.27a5.07,5.07,0,0,0,0,.73.78.78,0,0,0,.28.44.9.9,0,0,0,.53.15,1.1,1.1,0,0,0,.58-.16.85.85,0,0,0,.39-.43,2.19,2.19,0,0,0,.11-.81V72.8h.7v4.1Z"/><rect class="cls-1" x="109.06" y="71.24" width="0.69" height="5.66"/><path class="cls-1" d="M113.64,75.58l.72.08a1.72,1.72,0,0,1-.63,1,2.13,2.13,0,0,1-2.6-.2,2.18,2.18,0,0,1-.53-1.56,2.23,2.23,0,0,1,.54-1.6,1.76,1.76,0,0,1,1.38-.58,1.74,1.74,0,0,1,1.34.56,2.23,2.23,0,0,1,.52,1.58V75h-3.06a1.67,1.67,0,0,0,.38,1,1.15,1.15,0,0,0,.86.36,1.07,1.07,0,0,0,.65-.2,1.34,1.34,0,0,0,.43-.64Zm-2.28-1.13h2.29a1.4,1.4,0,0,0-.26-.77,1.06,1.06,0,0,0-.86-.4,1.09,1.09,0,0,0-.81.32A1.21,1.21,0,0,0,111.36,74.45Z"/><path class="cls-1" d="M116.37,76.9l-1.56-4.1h.74l.88,2.45c.09.27.18.54.26.83.06-.22.15-.48.26-.78l.91-2.5h.71L117,76.9Z"/><path class="cls-1" d="M119.19,72v-.8h.7V72Zm0,4.86V72.8h.7v4.1Z"/><polygon class="cls-1" points="120.95 76.9 120.95 71.24 121.64 71.24 121.64 74.46 123.29 72.8 124.19 72.8 122.62 74.32 124.34 76.9 123.49 76.9 122.13 74.8 121.64 75.27 121.64 76.9 120.95 76.9"/><path class="cls-1" d="M127.58,76.9v-.61a1.49,1.49,0,0,1-1.3.7,1.64,1.64,0,0,1-.67-.14,1.1,1.1,0,0,1-.47-.35,1.32,1.32,0,0,1-.22-.51,4.71,4.71,0,0,1,0-.65V72.8h.7v2.27a3.9,3.9,0,0,0,0,.73.74.74,0,0,0,.28.44.86.86,0,0,0,.52.15,1.11,1.11,0,0,0,.59-.16,1,1,0,0,0,.39-.43,2.42,2.42,0,0,0,.11-.81V72.8h.7v4.1Z"/><path class="cls-1" d="M131.49,76.9V71.24h.7v2a1.53,1.53,0,0,1,1.22-.57,1.69,1.69,0,0,1,.8.18,1.1,1.1,0,0,1,.48.5,2.43,2.43,0,0,1,.14.92v2.6h-.69V74.3a1.08,1.08,0,0,0-.23-.76.83.83,0,0,0-.64-.24,1.21,1.21,0,0,0-.58.16.92.92,0,0,0-.39.44,1.91,1.91,0,0,0-.11.75V76.9Z"/><path class="cls-1" d="M138.7,75.58l.71.08a1.72,1.72,0,0,1-.63,1,1.87,1.87,0,0,1-1.17.35,1.93,1.93,0,0,1-1.43-.55,2.18,2.18,0,0,1-.52-1.56,2.27,2.27,0,0,1,.53-1.6,1.92,1.92,0,0,1,2.73,0,2.28,2.28,0,0,1,.52,1.58,1.36,1.36,0,0,1,0,.18h-3.05a1.56,1.56,0,0,0,.38,1,1.13,1.13,0,0,0,.85.36,1.1,1.1,0,0,0,.66-.2,1.42,1.42,0,0,0,.43-.64Zm-2.29-1.13h2.29a1.4,1.4,0,0,0-.26-.77,1.14,1.14,0,0,0-1.66-.08A1.26,1.26,0,0,0,136.41,74.45Z"/><path class="cls-1" d="M143,76.39a2.54,2.54,0,0,1-.74.46,2.19,2.19,0,0,1-.77.14,1.51,1.51,0,0,1-1-.33,1.16,1.16,0,0,1-.22-1.39,1.07,1.07,0,0,1,.36-.4,1.64,1.64,0,0,1,.5-.23,5,5,0,0,1,.61-.11,5.27,5.27,0,0,0,1.24-.24,1.53,1.53,0,0,0,0-.18.75.75,0,0,0-.2-.59,1.15,1.15,0,0,0-.79-.24,1.23,1.23,0,0,0-.72.17,1,1,0,0,0-.35.61l-.68-.09a1.6,1.6,0,0,1,.31-.71,1.25,1.25,0,0,1,.61-.41,2.67,2.67,0,0,1,.93-.15,2.49,2.49,0,0,1,.85.13,1.12,1.12,0,0,1,.49.31,1.07,1.07,0,0,1,.21.47,4.11,4.11,0,0,1,0,.64v.93a9.93,9.93,0,0,0,0,1.22,1.5,1.5,0,0,0,.18.5h-.73a1.59,1.59,0,0,1-.14-.51Zm-.06-1.55a5.15,5.15,0,0,1-1.13.26,2.64,2.64,0,0,0-.61.14.62.62,0,0,0-.37.56.59.59,0,0,0,.21.46.94.94,0,0,0,.62.18,1.38,1.38,0,0,0,.71-.17,1.12,1.12,0,0,0,.46-.48,1.62,1.62,0,0,0,.11-.7Z"/><polygon class="cls-1" points="144.69 76.9 144.69 71.24 145.38 71.24 145.38 74.46 147.03 72.8 147.93 72.8 146.36 74.32 148.09 76.9 147.23 76.9 145.87 74.8 145.38 75.27 145.38 76.9 144.69 76.9"/><path class="cls-1" d="M148.36,75.67l.69-.11a1,1,0,0,0,.32.64,1.16,1.16,0,0,0,.74.22,1.07,1.07,0,0,0,.71-.2.59.59,0,0,0,.23-.45.46.46,0,0,0-.2-.38,3.17,3.17,0,0,0-.71-.23,6.9,6.9,0,0,1-1.06-.33,1,1,0,0,1-.45-.4,1,1,0,0,1-.15-.54,1.08,1.08,0,0,1,.46-.9,1.39,1.39,0,0,1,.44-.2,2,2,0,0,1,.61-.09,2.38,2.38,0,0,1,.84.14,1.14,1.14,0,0,1,.54.38,1.39,1.39,0,0,1,.24.63l-.68.1a.75.75,0,0,0-.27-.5,1,1,0,0,0-.62-.17,1.22,1.22,0,0,0-.69.15.48.48,0,0,0-.2.37.44.44,0,0,0,.08.25.71.71,0,0,0,.27.18c.07,0,.27.09.61.18a9,9,0,0,1,1,.32,1.07,1.07,0,0,1,.46.37,1,1,0,0,1,.17.59,1.17,1.17,0,0,1-.21.66,1.3,1.3,0,0,1-.58.47,2.21,2.21,0,0,1-.87.17,2,2,0,0,1-1.22-.33A1.55,1.55,0,0,1,148.36,75.67Z"/></svg>