<svg width="174" height="82" viewBox="0 0 174 82" fill="none" xmlns="http://www.w3.org/2000/svg">
<path fill-rule="evenodd" clip-rule="evenodd" d="M146.022 11.5711C152.874 12.2047 159.192 14.4482 164.651 17.8806C164.655 17.8893 164.803 17.9891 165.028 18.1323C158.129 8.28617 147.002 1.39082 133.958 0.184459C122.541 -0.865682 111.788 2.62756 103.521 9.14537C109.796 10.3908 115.316 13.5412 119.512 17.924C127.137 13.116 136.353 10.6815 146.022 11.5711Z" fill="#0072CE"/>
<path fill-rule="evenodd" clip-rule="evenodd" d="M172.436 39.0397C172.427 38.9052 172.379 38.3193 172.366 38.1978C171.724 30.8425 169.12 23.9645 165.024 18.128C164.798 17.9848 164.655 17.885 164.647 17.8763C159.188 14.4438 152.869 12.2003 146.017 11.5668C136.345 10.6729 127.132 13.1073 119.508 17.9197C124.225 22.8449 127.284 29.3107 127.883 36.397C128.03 38.1631 128.035 39.9683 127.866 41.7996C127.596 44.6679 126.946 47.4061 125.952 49.962C124.16 54.6226 121.257 58.6973 117.598 61.8998L117.664 61.839C131.723 53.6939 149.155 50.192 166.335 52.7957C164.777 54.2667 162.433 55.5208 160.528 56.5102C162.85 55.907 171.008 52.6481 171.125 52.4008C171.125 52.4008 171.134 52.4008 171.134 52.3964H171.125C171.125 52.3964 173.03 46.2301 172.436 39.0397Z" fill="black"/>
<path fill-rule="evenodd" clip-rule="evenodd" d="M171.685 38.072C166.248 34.3922 161.761 32.166 152.292 31.2895C145.093 30.6255 138.146 31.8015 131.927 34.4269C132.083 36.1626 132.101 37.9418 131.927 39.7427C131.116 48.4823 126.468 55.9287 119.803 60.598C137.043 50.6824 152.722 49.3588 165.996 51.3854C166.877 51.5242 169.607 51.9929 170.869 52.3313C172.414 44.5594 171.876 39.4172 171.685 38.0763V38.072Z" fill="white"/>
<path d="M136.844 70.6784V64.2994H141.457V65.0545H137.686V67.0072H141.218V67.7536H137.686V69.9277H141.604V70.6784H136.844Z" fill="black"/>
<path d="M145.831 69.19L146.642 69.2898C146.517 69.7628 146.278 70.1317 145.935 70.3921C145.588 70.6524 145.15 70.7826 144.612 70.7826C143.935 70.7826 143.401 70.5743 143.006 70.1577C142.611 69.7411 142.411 69.1597 142.411 68.4046C142.411 67.6495 142.611 67.0247 143.01 66.5951C143.41 66.1655 143.93 65.9485 144.568 65.9485C145.206 65.9485 145.692 66.1611 146.083 66.5777C146.473 66.9986 146.673 67.5888 146.673 68.3525C146.673 68.4003 146.673 68.4697 146.668 68.5608H143.223C143.249 69.0685 143.396 69.4591 143.653 69.7281C143.913 69.9972 144.23 70.1317 144.616 70.1317C144.902 70.1317 145.15 70.0579 145.349 69.906C145.553 69.7542 145.714 69.5155 145.831 69.1857V69.19ZM143.262 67.9229H145.844C145.809 67.5367 145.709 67.2416 145.549 67.0507C145.297 66.7469 144.976 66.5994 144.577 66.5994C144.217 66.5994 143.913 66.7209 143.67 66.9596C143.427 67.1982 143.288 67.5237 143.262 67.9229Z" fill="black"/>
<path d="M147.315 69.2985L148.087 69.177C148.131 69.4894 148.252 69.7237 148.452 69.893C148.651 70.0579 148.929 70.1403 149.285 70.1403C149.641 70.1403 149.91 70.0665 150.084 69.919C150.257 69.7715 150.344 69.5979 150.344 69.4026C150.344 69.2247 150.266 69.0858 150.114 68.9817C150.005 68.9123 149.741 68.8255 149.315 68.717C148.743 68.5738 148.343 68.4479 148.122 68.3395C147.901 68.2353 147.732 68.0878 147.619 67.9012C147.506 67.7146 147.445 67.5063 147.445 67.2806C147.445 67.0723 147.493 66.8857 147.588 66.7078C147.684 66.5299 147.81 66.3867 147.975 66.2695C148.096 66.1784 148.261 66.1046 148.474 66.0396C148.686 65.9788 148.912 65.9441 149.151 65.9441C149.511 65.9441 149.832 65.9962 150.105 66.1003C150.379 66.2045 150.583 66.3433 150.713 66.5256C150.843 66.7035 150.934 66.9422 150.982 67.2416L150.218 67.3457C150.183 67.1071 150.079 66.9205 149.914 66.7903C149.749 66.6558 149.511 66.5907 149.207 66.5907C148.847 66.5907 148.591 66.6514 148.439 66.7686C148.283 66.8857 148.209 67.0289 148.209 67.1852C148.209 67.2893 148.244 67.3804 148.304 67.4585C148.369 67.5453 148.469 67.6104 148.604 67.6668C148.682 67.6929 148.912 67.7623 149.294 67.8665C149.849 68.014 150.235 68.1355 150.452 68.231C150.674 68.3264 150.843 68.461 150.969 68.6432C151.095 68.8211 151.155 69.0468 151.155 69.3115C151.155 69.5762 151.077 69.8192 150.925 70.0492C150.773 70.2792 150.552 70.4571 150.266 70.5829C149.979 70.7088 149.654 70.7695 149.289 70.7695C148.686 70.7695 148.231 70.6437 147.914 70.3963C147.597 70.149 147.397 69.7758 147.311 69.2854L147.315 69.2985Z" fill="black"/>
<path d="M153.794 69.9797L153.907 70.6697C153.685 70.7174 153.49 70.7391 153.316 70.7391C153.03 70.7391 152.813 70.6957 152.652 70.6046C152.496 70.5135 152.388 70.3963 152.323 70.2488C152.258 70.1056 152.227 69.7931 152.227 69.3245V66.6644H151.654V66.0569H152.227V64.9113L153.008 64.4426V66.0569H153.794V66.6644H153.008V69.3679C153.008 69.5935 153.021 69.7367 153.047 69.7975C153.073 69.8626 153.121 69.9103 153.182 69.9494C153.243 69.9884 153.334 70.0058 153.451 70.0058C153.538 70.0058 153.655 69.9971 153.794 69.9754V69.9797Z" fill="black"/>
<path d="M154.562 65.202V64.2994H155.347V65.202H154.562ZM154.562 70.6784V66.0569H155.347V70.6784H154.562Z" fill="black"/>
<path d="M120.107 79.0361L120.22 79.7261C119.998 79.7738 119.803 79.7955 119.629 79.7955C119.343 79.7955 119.126 79.7521 118.965 79.661C118.809 79.5699 118.701 79.4527 118.636 79.3052C118.571 79.1576 118.54 78.8495 118.54 78.3809V75.7208H117.967V75.1133H118.54V73.9677L119.321 73.499V75.1133H120.107V75.7208H119.321V78.4243C119.321 78.6499 119.334 78.7931 119.36 78.8539C119.386 78.919 119.434 78.9667 119.495 79.0058C119.556 79.0448 119.647 79.0622 119.764 79.0622C119.851 79.0622 119.968 79.0535 120.107 79.0318V79.0361Z" fill="black"/>
<path d="M123.899 79.7391V79.0622C123.539 79.5872 123.049 79.8433 122.433 79.8433C122.159 79.8433 121.908 79.7912 121.669 79.687C121.435 79.5829 121.257 79.4527 121.144 79.2922C121.027 79.1316 120.949 78.9407 120.901 78.7107C120.871 78.5544 120.853 78.3114 120.853 77.9773V75.1133H121.634V77.6735C121.634 78.0815 121.652 78.3592 121.682 78.5024C121.734 78.7107 121.838 78.8712 121.994 78.9884C122.155 79.1056 122.355 79.162 122.589 79.162C122.823 79.162 123.045 79.1012 123.249 78.984C123.457 78.8625 123.6 78.6977 123.687 78.4937C123.774 78.2854 123.817 77.986 123.817 77.5911V75.1133H124.598V79.7348H123.899V79.7391Z" fill="black"/>
<path d="M126.59 73.3602H125.809V79.7392H126.59V73.3602Z" fill="black"/>
<path d="M130.968 78.2507L131.78 78.3505C131.654 78.8235 131.415 79.1924 131.073 79.4527C130.725 79.7131 130.287 79.8433 129.749 79.8433C129.072 79.8433 128.538 79.635 128.143 79.2184C127.749 78.8018 127.549 78.2203 127.549 77.4653C127.549 76.7102 127.749 76.0853 128.148 75.6557C128.547 75.2261 129.068 75.0092 129.706 75.0092C130.343 75.0092 130.829 75.2218 131.22 75.6384C131.611 76.0593 131.81 76.6495 131.81 77.4132C131.81 77.4609 131.81 77.5304 131.806 77.6215H128.36C128.386 78.1292 128.534 78.5197 128.79 78.7888C129.05 79.0578 129.367 79.1924 129.753 79.1924C130.04 79.1924 130.287 79.1186 130.487 78.9667C130.691 78.8148 130.851 78.5762 130.968 78.2464V78.2507ZM128.399 76.9836H130.981C130.947 76.5974 130.847 76.3023 130.686 76.1114C130.435 75.8076 130.113 75.6601 129.714 75.6601C129.354 75.6601 129.05 75.7816 128.807 76.0202C128.564 76.2589 128.425 76.5844 128.399 76.9836Z" fill="black"/>
<path d="M134.049 79.7392L132.292 75.1177H133.121L134.114 77.8862C134.223 78.1856 134.318 78.4937 134.41 78.8192C134.479 78.5762 134.574 78.2811 134.7 77.9383L135.729 75.1177H136.536L134.787 79.7392H134.058H134.049Z" fill="black"/>
<path d="M137.221 74.2584V73.3558H138.007V74.2584H137.221ZM137.221 79.7391V75.1176H138.007V79.7391H137.221Z" fill="black"/>
<path d="M139.205 79.7392V73.3602H139.986V76.9967L141.839 75.1177H142.854L141.088 76.8318L143.032 79.7392H142.069L140.541 77.3742L139.986 77.9079V79.7392H139.205Z" fill="black"/>
<path d="M146.686 79.7391V79.0622C146.326 79.5872 145.835 79.8433 145.219 79.8433C144.946 79.8433 144.694 79.7912 144.455 79.687C144.221 79.5829 144.043 79.4527 143.93 79.2922C143.813 79.1316 143.735 78.9407 143.687 78.7107C143.657 78.5544 143.639 78.3114 143.639 77.9773V75.1133H144.421V77.6735C144.421 78.0815 144.438 78.3592 144.468 78.5024C144.52 78.7107 144.625 78.8712 144.781 78.9884C144.941 79.1056 145.141 79.162 145.375 79.162C145.61 79.162 145.831 79.1012 146.035 78.984C146.243 78.8625 146.386 78.6977 146.473 78.4937C146.56 78.2854 146.603 77.986 146.603 77.5911V75.1133H147.384V79.7348H146.686V79.7391Z" fill="black"/>
<path d="M151.086 79.7392V73.3602H151.867V75.6471C152.232 75.2218 152.696 75.0092 153.251 75.0092C153.594 75.0092 153.889 75.0786 154.141 75.2132C154.393 75.3477 154.575 75.5343 154.683 75.7729C154.792 76.0116 154.848 76.3588 154.848 76.8101V79.7392H154.063V76.8101C154.063 76.4195 153.976 76.1331 153.807 75.9552C153.638 75.7773 153.399 75.6862 153.086 75.6862C152.856 75.6862 152.635 75.7469 152.431 75.8684C152.227 75.9899 152.08 76.1505 151.993 76.3588C151.906 76.5627 151.863 76.8491 151.863 77.2136V79.7435H151.082L151.086 79.7392Z" fill="black"/>
<path d="M159.205 78.2507L160.016 78.3505C159.891 78.8235 159.652 79.1924 159.309 79.4527C158.962 79.7131 158.524 79.8433 157.986 79.8433C157.309 79.8433 156.775 79.635 156.38 79.2184C155.985 78.8018 155.786 78.2203 155.786 77.4653C155.786 76.7102 155.985 76.0853 156.384 75.6557C156.784 75.2261 157.304 75.0092 157.942 75.0092C158.58 75.0092 159.066 75.2218 159.457 75.6384C159.847 76.0593 160.047 76.6495 160.047 77.4132C160.047 77.4609 160.047 77.5304 160.043 77.6215H156.597C156.623 78.1292 156.771 78.5197 157.027 78.7888C157.287 79.0578 157.604 79.1924 157.994 79.1924C158.281 79.1924 158.528 79.1186 158.728 78.9667C158.932 78.8148 159.092 78.5762 159.209 78.2464L159.205 78.2507ZM156.636 76.9836H159.218C159.183 76.5974 159.083 76.3023 158.923 76.1114C158.671 75.8076 158.35 75.6601 157.951 75.6601C157.591 75.6601 157.287 75.7816 157.044 76.0202C156.801 76.2589 156.662 76.5844 156.636 76.9836Z" fill="black"/>
<path d="M164.017 79.1663C163.727 79.4137 163.449 79.5872 163.18 79.6871C162.911 79.7869 162.624 79.8389 162.316 79.8389C161.809 79.8389 161.418 79.7174 161.145 79.4657C160.871 79.2184 160.737 78.9016 160.737 78.5154C160.737 78.2898 160.789 78.0815 160.893 77.8949C160.997 77.7083 161.132 77.5564 161.297 77.4436C161.466 77.3307 161.652 77.244 161.861 77.1875C162.013 77.1485 162.247 77.1094 162.555 77.0704C163.189 76.9966 163.653 76.9055 163.952 76.8013C163.952 76.6928 163.957 76.6278 163.957 76.5974C163.957 76.2763 163.883 76.0506 163.735 75.9248C163.536 75.7469 163.236 75.6601 162.846 75.6601C162.477 75.6601 162.208 75.7252 162.03 75.851C161.856 75.9812 161.726 76.2112 161.639 76.5366L160.876 76.4325C160.945 76.107 161.058 75.838 161.218 75.6384C161.379 75.4344 161.609 75.2782 161.908 75.174C162.212 75.0656 162.559 75.0092 162.959 75.0092C163.358 75.0092 163.675 75.0569 163.918 75.148C164.165 75.2435 164.347 75.3563 164.464 75.4995C164.582 75.6384 164.66 75.8163 164.707 76.0333C164.733 76.1678 164.746 76.4064 164.746 76.7536V77.7994C164.746 78.5284 164.764 78.9884 164.799 79.1793C164.833 79.3746 164.898 79.5569 164.998 79.7348H164.178C164.1 79.5742 164.043 79.3833 164.022 79.1663H164.017ZM163.948 77.4175C163.662 77.5347 163.236 77.6345 162.668 77.7126C162.347 77.7603 162.117 77.8124 161.987 77.8688C161.852 77.9252 161.748 78.012 161.678 78.1249C161.605 78.2377 161.57 78.3592 161.57 78.4981C161.57 78.7063 161.648 78.8799 161.809 79.0188C161.965 79.1576 162.199 79.2271 162.503 79.2271C162.807 79.2271 163.071 79.162 163.31 79.0275C163.544 78.8973 163.718 78.715 163.826 78.485C163.913 78.3071 163.952 78.0467 163.952 77.7039V77.4175H163.948Z" fill="black"/>
<path d="M165.961 79.7392V73.3602H166.743V76.9967L168.595 75.1177H169.611L167.845 76.8318L169.789 79.7392H168.825L167.298 77.3742L166.743 77.9079V79.7392H165.961Z" fill="black"/>
<path d="M170.097 78.3591L170.869 78.2376C170.913 78.5457 171.034 78.7844 171.234 78.9536C171.433 79.1185 171.711 79.201 172.067 79.201C172.423 79.201 172.692 79.1272 172.865 78.9797C173.039 78.8321 173.126 78.6586 173.126 78.4633C173.126 78.2854 173.048 78.1465 172.896 78.0424C172.787 77.9729 172.523 77.8861 172.097 77.7777C171.525 77.6301 171.125 77.5086 170.904 77.4001C170.683 77.296 170.514 77.1484 170.401 76.9618C170.288 76.7753 170.227 76.567 170.227 76.3413C170.227 76.133 170.275 75.9464 170.37 75.7685C170.466 75.5906 170.592 75.4474 170.757 75.3302C170.878 75.2391 171.043 75.1653 171.256 75.1002C171.468 75.0395 171.694 75.0048 171.933 75.0048C172.293 75.0048 172.614 75.0568 172.887 75.161C173.161 75.2651 173.365 75.404 173.495 75.5862C173.625 75.7642 173.716 76.0028 173.764 76.3023L173 76.4064C172.965 76.1677 172.861 75.9811 172.696 75.8509C172.531 75.7164 172.293 75.6513 171.989 75.6513C171.629 75.6513 171.373 75.7121 171.221 75.8293C171.065 75.9464 170.991 76.0896 170.991 76.2458C170.991 76.35 171.026 76.4411 171.086 76.5192C171.151 76.606 171.251 76.6711 171.386 76.7275C171.464 76.7535 171.694 76.823 172.076 76.9271C172.631 77.0747 173.017 77.1962 173.234 77.2916C173.456 77.3871 173.625 77.5216 173.751 77.7039C173.877 77.8818 173.937 78.1075 173.937 78.3722C173.937 78.6369 173.859 78.8799 173.707 79.1099C173.555 79.3398 173.334 79.5178 173.048 79.6436C172.761 79.7695 172.436 79.8302 172.071 79.8302C171.468 79.8302 171.013 79.7044 170.696 79.457C170.379 79.2053 170.179 78.8365 170.093 78.3461L170.097 78.3591Z" fill="black"/>
<path d="M79.4766 2.28473H0V56.2715H79.4766V2.28473Z" fill="white"/>
<path d="M77.9491 3.7688H1.52747V54.718H77.9491V3.7688Z" fill="#003399"/>
<path d="M38.1089 14.8691L39.7231 13.6888L41.3331 14.8691L40.7212 12.9641L42.3572 11.7881H40.3393L39.7231 9.86139L39.1026 11.7881H37.0848L38.7251 12.9641L38.1089 14.8691Z" fill="#FFCC00"/>
<path d="M29.7642 17.1082L31.3784 15.9322L32.9884 17.1082L32.3765 15.2076L34.0125 14.0272H31.9946L31.3784 12.1005L30.7579 14.0316L28.7401 14.0272L30.376 15.2076L29.7642 17.1082Z" fill="#FFCC00"/>
<path d="M25.2729 18.2191L24.6524 20.1502H22.6345L24.2705 21.3261L23.6586 23.2312L25.2729 22.0508L26.8828 23.2312L26.271 21.3261L27.9069 20.1502H25.8891L25.2729 18.2191Z" fill="#FFCC00"/>
<path d="M23.0294 30.3869L24.6437 31.5629L24.0318 29.6622L25.6678 28.4819H23.65L23.0294 26.5552L22.4132 28.4862L20.3954 28.4819L22.0313 29.6622L21.4195 31.5629L23.0294 30.3869Z" fill="#FFCC00"/>
<path d="M25.8891 36.8439L25.2729 34.9129L24.6524 36.8439H22.6345L24.2705 38.0199L23.6586 39.9249L25.2729 38.7446L26.8828 39.9249L26.271 38.0199L27.9069 36.8439H25.8891Z" fill="#FFCC00"/>
<path d="M32.0077 42.9625L31.3871 41.0358L30.7709 42.9625H28.7531L30.3891 44.1385L29.7772 46.0392L31.3915 44.8632L33.0014 46.0392L32.3896 44.1385L34.0255 42.9625H32.0077Z" fill="#FFCC00"/>
<path d="M40.3393 45.1756L39.7231 43.2489L39.1069 45.1799L37.0891 45.1756L38.7251 46.3559L38.1132 48.2566L39.7231 47.0806L41.3374 48.2566L40.7212 46.3559L42.3615 45.1756H40.3393Z" fill="#FFCC00"/>
<path d="M48.6754 42.9625L48.0592 41.0358L47.4387 42.9625H45.4252L47.0568 44.1385L46.4449 46.0392L48.0592 44.8632L49.6735 46.0392L49.0573 44.1385L50.6932 42.9625H48.6754Z" fill="#FFCC00"/>
<path d="M54.794 36.8439L54.1778 34.9129L53.5573 36.8439H51.5394L53.1797 38.0199L52.5635 39.9249L54.1778 38.7446L55.7877 39.9249L55.1759 38.0199L56.8118 36.8439H54.794Z" fill="#FFCC00"/>
<path d="M59.0293 28.4602H57.0115L56.3909 26.5334L55.7747 28.4645L53.7569 28.4602L55.3929 29.6361L54.781 31.5411L56.3909 30.3608L58.0052 31.5411L57.3933 29.6361L59.0293 28.4602Z" fill="#FFCC00"/>
<path d="M52.5635 23.2051L54.1778 22.0248L55.7877 23.2051L55.1759 21.3001L56.8118 20.1242H54.794L54.1778 18.1974L53.5573 20.1285L51.5394 20.1242L53.1797 21.3001L52.5635 23.2051Z" fill="#FFCC00"/>
<path d="M48.0809 12.1049L47.4647 14.0316L45.4468 14.0272L47.0828 15.2075L46.4709 17.1126L48.0852 15.9322L49.6951 17.1126L49.0833 15.2075L50.7192 14.0272H48.6971L48.0809 12.1049Z" fill="#FFCC00"/>
<path d="M4.91656 69.2595V62.7373H6.23575V65.6317L8.89582 62.7373H10.6663L8.21019 65.2759L10.8008 69.2595H9.09543L7.30325 66.2002L6.23575 67.2894V69.2595H4.91656Z" fill="#003399"/>
<path d="M12.4021 65.9789L11.2695 65.7749C11.3954 65.3193 11.6167 64.9808 11.9291 64.7595C12.2416 64.5382 12.7015 64.4297 13.3177 64.4297C13.8775 64.4297 14.2898 64.4948 14.5631 64.6293C14.8365 64.7595 15.0275 64.9287 15.1403 65.1327C15.2531 65.3366 15.3052 65.7098 15.3052 66.2522L15.2922 67.7103C15.2922 68.1269 15.3139 68.4306 15.3529 68.6302C15.392 68.8255 15.4657 69.0382 15.5786 69.2638H14.3418C14.3071 69.1814 14.2681 69.0599 14.2203 68.895C14.1986 68.8212 14.1856 68.7735 14.1769 68.7474C13.9643 68.9557 13.7343 69.1119 13.4913 69.2161C13.2483 69.3202 12.9879 69.3723 12.7146 69.3723C12.2285 69.3723 11.8467 69.2421 11.5646 68.9774C11.2825 68.7127 11.1437 68.3786 11.1437 67.975C11.1437 67.706 11.2088 67.4716 11.3346 67.259C11.4605 67.0507 11.6427 66.8901 11.8727 66.7773C12.1027 66.6645 12.4325 66.569 12.8664 66.4866C13.4523 66.3781 13.8558 66.2739 14.0815 66.1785V66.0526C14.0815 65.814 14.0207 65.6404 13.9036 65.5406C13.7864 65.4364 13.5607 65.3887 13.2309 65.3887C13.0096 65.3887 12.8361 65.4321 12.7102 65.5189C12.5844 65.6057 12.4846 65.7619 12.4064 65.9789H12.4021ZM14.0771 66.9899C13.9166 67.042 13.6649 67.1071 13.3177 67.1809C12.9706 67.2547 12.7449 67.3284 12.6364 67.3979C12.4715 67.515 12.3934 67.6582 12.3934 67.8361C12.3934 68.0141 12.4585 68.1616 12.5887 68.2918C12.7189 68.422 12.8838 68.4827 13.0877 68.4827C13.3134 68.4827 13.526 68.4089 13.7343 68.2614C13.8862 68.1486 13.986 68.0097 14.0337 67.8492C14.0684 67.7407 14.0815 67.5411 14.0815 67.2373V66.9899H14.0771Z" fill="#003399"/>
<path d="M17.4706 65.9789L16.3337 65.7749C16.4595 65.3193 16.6808 64.9808 16.9933 64.7595C17.3057 64.5382 17.7657 64.4297 18.3819 64.4297C18.9417 64.4297 19.3539 64.4948 19.6273 64.6293C19.9007 64.7595 20.0916 64.9287 20.2044 65.1327C20.3173 65.3366 20.3693 65.7098 20.3693 66.2522L20.3563 67.7103C20.3563 68.1269 20.378 68.4306 20.4171 68.6302C20.4561 68.8255 20.5299 69.0382 20.6427 69.2638H19.406C19.3713 69.1814 19.3322 69.0599 19.2845 68.895C19.2628 68.8212 19.2498 68.7735 19.2411 68.7474C19.0285 68.9557 18.7985 69.1119 18.5555 69.2161C18.3124 69.3202 18.0521 69.3723 17.7787 69.3723C17.2927 69.3723 16.9108 69.2421 16.6287 68.9774C16.3467 68.7127 16.2078 68.3786 16.2078 67.975C16.2078 67.706 16.2729 67.4716 16.3988 67.259C16.5246 67.0507 16.7069 66.8901 16.9368 66.7773C17.1668 66.6645 17.4966 66.569 17.9306 66.4866C18.5164 66.3781 18.92 66.2739 19.1456 66.1785V66.0526C19.1456 65.814 19.0849 65.6404 18.9677 65.5406C18.8505 65.4364 18.6249 65.3887 18.2951 65.3887C18.0738 65.3887 17.9002 65.4321 17.7744 65.5189C17.6485 65.6057 17.5487 65.7619 17.4706 65.9789ZM19.1456 66.9899C18.9851 67.042 18.7334 67.1071 18.3862 67.1809C18.0391 67.2547 17.8134 67.3284 17.7049 67.3979C17.54 67.515 17.4619 67.6582 17.4619 67.8361C17.4619 68.0141 17.527 68.1616 17.6572 68.2918C17.7874 68.422 17.9523 68.4827 18.1562 68.4827C18.3819 68.4827 18.5988 68.4089 18.8028 68.2614C18.9547 68.1486 19.0545 68.0097 19.1022 67.8492C19.1369 67.7407 19.15 67.5411 19.15 67.2373V66.9899H19.1456Z" fill="#003399"/>
<path d="M21.1677 67.9142L22.4218 67.7233C22.4739 67.9663 22.5824 68.1529 22.7473 68.2787C22.9122 68.4046 23.1378 68.4697 23.4329 68.4697C23.7584 68.4697 24.0014 68.4089 24.1619 68.2918C24.2704 68.2093 24.3268 68.0965 24.3268 67.9576C24.3268 67.8622 24.2965 67.784 24.2357 67.7233C24.1749 67.6625 24.0361 67.6105 23.8191 67.5584C22.8124 67.3371 22.1701 67.1331 21.9011 66.9509C21.5279 66.6949 21.3413 66.339 21.3413 65.8877C21.3413 65.4798 21.5019 65.1327 21.8273 64.8549C22.1528 64.5772 22.6518 64.4384 23.3331 64.4384C24.0144 64.4384 24.4613 64.5425 24.7738 64.7551C25.0862 64.9678 25.3032 65.2759 25.4247 65.6881L24.2444 65.9051C24.1923 65.7228 24.0968 65.5796 23.958 65.4842C23.8148 65.3887 23.6152 65.3366 23.3548 65.3366C23.025 65.3366 22.7907 65.3843 22.6475 65.4755C22.552 65.5406 22.5043 65.623 22.5043 65.7272C22.5043 65.8183 22.5477 65.8921 22.6301 65.9528C22.7429 66.0353 23.1335 66.1524 23.7974 66.3043C24.4613 66.4562 24.93 66.6428 25.1904 66.8598C25.4507 67.0811 25.5809 67.3935 25.5809 67.7884C25.5809 68.2223 25.3987 68.5955 25.0385 68.9036C24.6783 69.2161 24.1402 69.3723 23.4329 69.3723C22.7907 69.3723 22.2786 69.2421 21.9054 68.9817C21.5279 68.7214 21.2849 68.3655 21.1677 67.9186V67.9142Z" fill="#003399"/>
<path d="M27.8722 69.2594H26.6224V64.5338H27.7854V65.2064C27.985 64.8896 28.1629 64.6813 28.3235 64.5772C28.484 64.4774 28.662 64.4253 28.8659 64.4253C29.1523 64.4253 29.4257 64.5034 29.6904 64.6596L29.3042 65.7488C29.0916 65.6143 28.8963 65.5449 28.7184 65.5449C28.5405 65.5449 28.3929 65.5926 28.2714 65.6881C28.1499 65.7835 28.0544 65.9571 27.985 66.2131C27.9156 66.4648 27.8809 66.9942 27.8809 67.797V69.2551L27.8722 69.2594Z" fill="#003399"/>
<path d="M31.1528 65.9789L30.0202 65.7749C30.146 65.3193 30.3673 64.9808 30.6798 64.7595C30.9922 64.5382 31.4522 64.4297 32.0684 64.4297C32.6282 64.4297 33.0404 64.4948 33.3138 64.6293C33.5872 64.7595 33.7781 64.9287 33.891 65.1327C34.0038 65.3366 34.0559 65.7098 34.0559 66.2522L34.0428 67.7103C34.0428 68.1269 34.0645 68.4306 34.1036 68.6302C34.1426 68.8255 34.2164 69.0382 34.3292 69.2638H33.0925C33.0578 69.1814 33.0187 69.0599 32.971 68.895C32.9493 68.8212 32.9363 68.7735 32.9276 68.7474C32.715 68.9557 32.485 69.1119 32.242 69.2161C31.999 69.3202 31.7386 69.3723 31.4652 69.3723C30.9792 69.3723 30.5973 69.2421 30.3153 68.9774C30.0332 68.7127 29.8943 68.3786 29.8943 67.975C29.8943 67.706 29.9594 67.4716 30.0853 67.259C30.2111 67.0507 30.3934 66.8901 30.6234 66.7773C30.8534 66.6645 31.1832 66.569 31.6171 66.4866C32.2029 66.3781 32.6065 66.2739 32.8321 66.1785V66.0526C32.8321 65.814 32.7714 65.6404 32.6542 65.5406C32.5371 65.4364 32.3114 65.3887 31.9816 65.3887C31.7603 65.3887 31.5867 65.4321 31.4609 65.5189C31.335 65.6057 31.2352 65.7619 31.1571 65.9789H31.1528ZM32.8278 66.9899C32.6672 67.042 32.4156 67.1071 32.0684 67.1809C31.7212 67.2547 31.4956 67.3284 31.3871 67.3979C31.2222 67.515 31.1441 67.6582 31.1441 67.8361C31.1441 68.0141 31.2092 68.1616 31.3394 68.2918C31.4696 68.422 31.6345 68.4827 31.8384 68.4827C32.0641 68.4827 32.2767 68.4089 32.485 68.2614C32.6369 68.1486 32.7367 68.0097 32.7844 67.8492C32.8191 67.7407 32.8321 67.5411 32.8321 67.2373V66.9899H32.8278Z" fill="#003399"/>
<path d="M36.5336 62.7373V65.137C36.9372 64.664 37.4189 64.4297 37.9787 64.4297C38.2651 64.4297 38.5254 64.4817 38.7554 64.5902C38.9854 64.6987 39.159 64.8332 39.2761 64.9981C39.3933 65.163 39.4758 65.3496 39.5148 65.5493C39.5582 65.7489 39.5799 66.0656 39.5799 66.4866V69.2595H38.3302V66.7643C38.3302 66.2696 38.3085 65.9528 38.2607 65.8226C38.213 65.6881 38.1305 65.584 38.009 65.5059C37.8875 65.4277 37.74 65.3887 37.5577 65.3887C37.3494 65.3887 37.1629 65.4408 37.0023 65.5406C36.8417 65.6404 36.7202 65.7923 36.6421 65.9962C36.5684 66.2002 36.5293 66.4996 36.5293 66.8988V69.2681H35.2795V62.746H36.5293L36.5336 62.7373Z" fill="#003399"/>
<path d="M41.7887 65.9789L40.6561 65.7749C40.782 65.3193 41.0033 64.9808 41.3157 64.7595C41.6282 64.5382 42.0881 64.4297 42.7043 64.4297C43.2641 64.4297 43.6764 64.4948 43.9497 64.6293C44.2231 64.7595 44.4141 64.9287 44.5269 65.1327C44.6397 65.3366 44.6918 65.7098 44.6918 66.2522L44.6788 67.7103C44.6788 68.1269 44.7005 68.4306 44.7395 68.6302C44.7786 68.8255 44.8523 69.0382 44.9652 69.2638H43.7284C43.6937 69.1814 43.6547 69.0599 43.6069 68.895C43.5852 68.8212 43.5722 68.7735 43.5635 68.7474C43.3509 68.9557 43.1209 69.1119 42.8779 69.2161C42.6349 69.3202 42.3745 69.3723 42.1012 69.3723C41.6151 69.3723 41.2333 69.2421 40.9512 68.9774C40.6691 68.7127 40.5303 68.3786 40.5303 67.975C40.5303 67.706 40.5954 67.4716 40.7212 67.259C40.8471 67.0507 41.0293 66.8901 41.2593 66.7773C41.4893 66.6645 41.8191 66.569 42.253 66.4866C42.8388 66.3781 43.2424 66.2739 43.4681 66.1785V66.0526C43.4681 65.814 43.4073 65.6404 43.2901 65.5406C43.173 65.4364 42.9473 65.3887 42.6175 65.3887C42.3962 65.3887 42.2226 65.4321 42.0968 65.5189C41.971 65.6057 41.8712 65.7619 41.793 65.9789H41.7887ZM43.4637 66.9899C43.3032 67.042 43.0515 67.1071 42.7043 67.1809C42.3572 67.2547 42.1315 67.3284 42.023 67.3979C41.8581 67.515 41.78 67.6582 41.78 67.8361C41.78 68.0141 41.8451 68.1616 41.9753 68.2918C42.1055 68.422 42.2704 68.4827 42.4743 68.4827C42.7 68.4827 42.9126 68.4089 43.1209 68.2614C43.2728 68.1486 43.3726 68.0097 43.4203 67.8492C43.455 67.7407 43.4681 67.5411 43.4681 67.2373V66.9899H43.4637Z" fill="#003399"/>
<path d="M45.4816 67.9142L46.7357 67.7233C46.7877 67.9663 46.8962 68.1529 47.0611 68.2787C47.226 68.4046 47.4517 68.4697 47.7467 68.4697C48.0722 68.4697 48.3152 68.4089 48.4758 68.2918C48.5843 68.2093 48.6407 68.0965 48.6407 67.9576C48.6407 67.8622 48.6103 67.784 48.5495 67.7233C48.4888 67.6625 48.3499 67.6105 48.133 67.5584C47.1262 67.3371 46.484 67.1331 46.2149 66.9509C45.8417 66.6949 45.6551 66.339 45.6551 65.8877C45.6551 65.4798 45.8157 65.1327 46.1412 64.8549C46.4666 64.5772 46.9657 64.4384 47.6469 64.4384C48.3282 64.4384 48.7752 64.5425 49.0876 64.7551C49.4001 64.9678 49.617 65.2759 49.7385 65.6881L48.5582 65.9051C48.5061 65.7228 48.4107 65.5796 48.2718 65.4842C48.133 65.3887 47.929 65.3366 47.6686 65.3366C47.3388 65.3366 47.1045 65.3843 46.9613 65.4755C46.8658 65.5406 46.8181 65.623 46.8181 65.7272C46.8181 65.8183 46.8615 65.8921 46.944 65.9528C47.0568 66.0353 47.4473 66.1524 48.1113 66.3043C48.7795 66.4562 49.2439 66.6428 49.5042 66.8598C49.7646 67.0811 49.8948 67.3935 49.8948 67.7884C49.8948 68.2223 49.7125 68.5955 49.3523 68.9036C48.9922 69.2161 48.4541 69.3723 47.7467 69.3723C47.1045 69.3723 46.5925 69.2421 46.2193 68.9817C45.8417 68.7214 45.5987 68.3655 45.4816 67.9186V67.9142Z" fill="#003399"/>
<path d="M53.158 64.5338V65.5319H52.3032V67.4369C52.3032 67.8231 52.3118 68.0488 52.3292 68.1095C52.3466 68.1746 52.3813 68.2267 52.442 68.2657C52.4984 68.3091 52.5722 68.3265 52.6547 68.3265C52.7718 68.3265 52.9367 68.2874 53.158 68.205L53.2665 69.177C52.9758 69.3029 52.646 69.3636 52.2771 69.3636C52.0515 69.3636 51.8475 69.3246 51.6653 69.2508C51.483 69.177 51.3528 69.0772 51.266 68.9557C51.1836 68.8342 51.1228 68.6736 51.0881 68.4697C51.0621 68.3265 51.0491 68.0314 51.0491 67.5888V65.5276H50.4763V64.5295H51.0491V63.5922L52.3032 62.8632V64.5295H53.158V64.5338Z" fill="#003399"/>
<path d="M54.9589 65.9789L53.8263 65.7749C53.9521 65.3193 54.1734 64.9808 54.4859 64.7595C54.7983 64.5382 55.2583 64.4297 55.8745 64.4297C56.4343 64.4297 56.8465 64.4948 57.1199 64.6293C57.3933 64.7595 57.5842 64.9287 57.6971 65.1327C57.8099 65.3366 57.8619 65.7098 57.8619 66.2522L57.8489 67.7103C57.8489 68.1269 57.8706 68.4306 57.9097 68.6302C57.9487 68.8255 58.0225 69.0382 58.1353 69.2638H56.8986C56.8639 69.1814 56.8248 69.0599 56.7771 68.895C56.7554 68.8212 56.7424 68.7735 56.7337 68.7474C56.5211 68.9557 56.2911 69.1119 56.0481 69.2161C55.8051 69.3202 55.5447 69.3723 55.2713 69.3723C54.7853 69.3723 54.4034 69.2421 54.1214 68.9774C53.8393 68.7127 53.7004 68.3786 53.7004 67.975C53.7004 67.706 53.7655 67.4716 53.8914 67.259C54.0172 67.0507 54.1995 66.8901 54.4295 66.7773C54.6594 66.6645 54.9892 66.569 55.4232 66.4866C56.009 66.3781 56.4126 66.2739 56.6382 66.1785V66.0526C56.6382 65.814 56.5775 65.6404 56.4603 65.5406C56.3431 65.4364 56.1175 65.3887 55.7877 65.3887C55.5664 65.3887 55.3928 65.4321 55.267 65.5189C55.1411 65.6057 55.0413 65.7619 54.9632 65.9789H54.9589ZM56.6339 66.9899C56.4733 67.042 56.2216 67.1071 55.8745 67.1809C55.5273 67.2547 55.3017 67.3284 55.1932 67.3979C55.0283 67.515 54.9502 67.6582 54.9502 67.8361C54.9502 68.0141 55.0153 68.1616 55.1455 68.2918C55.2757 68.422 55.4405 68.4827 55.6445 68.4827C55.8702 68.4827 56.0828 68.4089 56.2911 68.2614C56.443 68.1486 56.5428 68.0097 56.5905 67.8492C56.6252 67.7407 56.6382 67.5411 56.6382 67.2373V66.9899H56.6339Z" fill="#003399"/>
<path d="M63.3903 69.2595H62.1406V66.8468C62.1406 66.3347 62.1146 66.0049 62.0625 65.8574C62.0104 65.7055 61.9236 65.5927 61.8021 65.5059C61.6806 65.4234 61.5374 65.38 61.3682 65.38C61.1512 65.38 60.9559 65.4408 60.7867 65.558C60.6131 65.6751 60.4959 65.8357 60.4309 66.031C60.3658 66.2262 60.3354 66.5907 60.3354 67.1158V69.2551H59.0856V64.5295H60.2486V65.2238C60.6608 64.6901 61.1816 64.421 61.8064 64.421C62.0842 64.421 62.3359 64.4688 62.5615 64.5686C62.7915 64.6684 62.9607 64.7942 63.0779 64.9504C63.1951 65.1067 63.2775 65.2802 63.3209 65.4755C63.3686 65.6708 63.3903 65.9528 63.3903 66.3174V69.2551V69.2595Z" fill="#003399"/>
<path d="M67.7689 69.2594V68.5521C67.5953 68.8038 67.3696 69.0034 67.0919 69.151C66.8099 69.2942 66.5148 69.3679 66.2023 69.3679C65.8899 69.3679 65.5992 69.2985 65.3475 69.1596C65.0958 69.0208 64.9135 68.8255 64.8007 68.5738C64.6879 68.3221 64.6315 67.975 64.6315 67.528V64.5382H65.8812V66.7079C65.8812 67.3718 65.9029 67.7797 65.9507 67.9272C65.9984 68.0791 66.0808 68.1963 66.2023 68.2831C66.3238 68.3699 66.4801 68.4133 66.6667 68.4133C66.8793 68.4133 67.0702 68.3568 67.2395 68.2353C67.4087 68.1182 67.5259 67.975 67.5866 67.8014C67.6474 67.6278 67.6821 67.2026 67.6821 66.5256V64.5338H68.9318V69.2594H67.7689Z" fill="#003399"/>
<path d="M74.5601 69.2594H73.3971V68.5651C73.2062 68.8341 72.9762 69.0337 72.7158 69.1683C72.4554 69.2984 72.1908 69.3679 71.9217 69.3679C71.3793 69.3679 70.915 69.1509 70.5287 68.7126C70.1425 68.2743 69.9473 67.6625 69.9473 66.8814C69.9473 66.1003 70.1339 65.4711 70.5114 65.0545C70.8889 64.6379 71.3619 64.4296 71.9391 64.4296C72.4685 64.4296 72.9241 64.6509 73.3103 65.0892V62.7416H74.5601V69.2637V69.2594ZM71.2231 66.7946C71.2231 67.298 71.2925 67.6625 71.4313 67.8881C71.631 68.2136 71.913 68.3785 72.2775 68.3785C72.5639 68.3785 72.8113 68.257 73.0109 68.0096C73.2105 67.7666 73.3147 67.3978 73.3147 66.9118C73.3147 66.3693 73.2192 65.9788 73.0196 65.7401C72.8243 65.5015 72.5726 65.3799 72.2689 65.3799C71.9651 65.3799 71.7221 65.4971 71.5225 65.7358C71.3229 65.9701 71.2231 66.3259 71.2231 66.7946Z" fill="#003399"/>
<path d="M15.0405 80.1948V73.6726H19.8789V74.7748H16.3597V76.2198H19.6359V77.3177H16.3597V79.0925H20.0048V80.1904H15.0448L15.0405 80.1948Z" fill="#003399"/>
<path d="M24.2184 80.1948V79.4874C24.0448 79.7391 23.8192 79.9387 23.5414 80.0863C23.2594 80.2295 22.9643 80.3032 22.6519 80.3032C22.3394 80.3032 22.0487 80.2338 21.797 80.0949C21.5453 79.9561 21.3631 79.7608 21.2502 79.5091C21.1374 79.2574 21.081 78.9103 21.081 78.4633V75.4735H22.3307V77.6432C22.3307 78.3071 22.3524 78.715 22.4002 78.8625C22.4479 79.0144 22.5304 79.1316 22.6519 79.2184C22.7734 79.3052 22.9296 79.3486 23.1162 79.3486C23.3288 79.3486 23.5197 79.2921 23.689 79.1706C23.8582 79.0535 23.9754 78.9103 24.0361 78.7367C24.0969 78.5631 24.1316 78.1379 24.1316 77.4609V75.4691H25.3814V80.1948H24.2184Z" fill="#003399"/>
<path d="M27.8722 80.1947H26.6224V75.4691H27.7854V76.1417C27.985 75.8249 28.1629 75.6166 28.3235 75.5125C28.484 75.4127 28.662 75.3606 28.8659 75.3606C29.1523 75.3606 29.4257 75.4387 29.6904 75.5949L29.3042 76.6841C29.0916 76.5496 28.8963 76.4802 28.7184 76.4802C28.5405 76.4802 28.3929 76.5279 28.2714 76.6234C28.1499 76.7188 28.0544 76.8924 27.985 77.1484C27.9156 77.4001 27.8809 77.9295 27.8809 78.7323V80.1904L27.8722 80.1947Z" fill="#003399"/>
<path d="M29.9291 77.769C29.9291 77.3525 30.0332 76.9532 30.2372 76.5627C30.4411 76.1721 30.7319 75.877 31.1051 75.6731C31.4826 75.4691 31.8992 75.365 32.3635 75.365C33.0795 75.365 33.6653 75.5993 34.121 76.0593C34.5766 76.5236 34.8066 77.1094 34.8066 77.8211C34.8066 78.5328 34.5766 79.1273 34.1166 79.6003C33.6566 80.0689 33.0752 80.3033 32.3765 80.3033C31.9426 80.3033 31.5303 80.2034 31.1354 80.0082C30.7405 79.8129 30.4455 79.5265 30.2372 79.149C30.0332 78.7714 29.9291 78.3115 29.9291 77.769ZM31.2135 77.8341C31.2135 78.3028 31.3264 78.663 31.5477 78.9103C31.769 79.1576 32.0467 79.2835 32.3722 79.2835C32.6976 79.2835 32.971 79.1576 33.1923 78.9103C33.4136 78.663 33.5221 78.2984 33.5221 77.8254C33.5221 77.3524 33.4136 77.0053 33.1923 76.7579C32.971 76.5106 32.6976 76.3848 32.3722 76.3848C32.0467 76.3848 31.7733 76.5106 31.5477 76.7579C31.3264 77.0053 31.2135 77.3655 31.2135 77.8341Z" fill="#003399"/>
<path d="M35.4965 77.769C35.4965 77.3525 35.6007 76.9532 35.8046 76.5627C36.0086 76.1721 36.2993 75.877 36.6725 75.6731C37.05 75.4691 37.4666 75.365 37.9309 75.365C38.6469 75.365 39.2328 75.5993 39.6884 76.0593C40.144 76.5236 40.374 77.1094 40.374 77.8211C40.374 78.5328 40.144 79.1273 39.6841 79.6003C39.2241 80.0689 38.6426 80.3033 37.944 80.3033C37.51 80.3033 37.0978 80.2034 36.7029 80.0082C36.308 79.8129 36.0129 79.5265 35.8046 79.149C35.6007 78.7714 35.4965 78.3115 35.4965 77.769ZM36.781 77.8341C36.781 78.3028 36.8938 78.663 37.1151 78.9103C37.3364 79.1576 37.6142 79.2835 37.9396 79.2835C38.2651 79.2835 38.5385 79.1576 38.7598 78.9103C38.9811 78.663 39.0896 78.2984 39.0896 77.8254C39.0896 77.3524 38.9811 77.0053 38.7598 76.7579C38.5385 76.5106 38.2651 76.3848 37.9396 76.3848C37.6142 76.3848 37.3408 76.5106 37.1151 76.7579C36.8938 77.0053 36.781 77.3655 36.781 77.8341Z" fill="#003399"/>
<path d="M41.3201 75.4735H42.4874V76.1678C42.6393 75.9292 42.8432 75.7382 43.1036 75.5907C43.3596 75.4432 43.646 75.3694 43.9628 75.3694C44.5095 75.3694 44.9782 75.5864 45.3601 76.016C45.7419 76.4456 45.9329 77.0444 45.9329 77.8125C45.9329 78.5806 45.7376 79.2141 45.3557 79.6524C44.9695 80.0907 44.5052 80.3077 43.9541 80.3077C43.6937 80.3077 43.4551 80.2556 43.2424 80.1514C43.0298 80.0473 42.8085 79.8694 42.5742 79.6177V82H41.3244V75.4779L41.3201 75.4735ZM42.5568 77.7561C42.5568 78.2855 42.661 78.6804 42.8736 78.9321C43.0862 79.1837 43.3422 79.3139 43.6417 79.3139C43.9411 79.3139 44.1754 79.1968 44.3663 78.9668C44.5573 78.7324 44.6571 78.3506 44.6571 77.8212C44.6571 77.3265 44.5573 76.9576 44.3577 76.7189C44.1581 76.4803 43.9107 76.3588 43.62 76.3588C43.3292 76.3588 43.0602 76.4759 42.8606 76.7146C42.661 76.9489 42.5568 77.3004 42.5568 77.7647V77.7561Z" fill="#003399"/>
<path d="M47.8552 76.9142L46.7226 76.7102C46.8485 76.2546 47.0698 75.9161 47.3822 75.6948C47.6947 75.4735 48.1547 75.365 48.7709 75.365C49.3306 75.365 49.7429 75.4301 50.0163 75.5646C50.2896 75.6948 50.4806 75.864 50.5934 76.068C50.7062 76.2719 50.7583 76.6451 50.7583 77.1875L50.7453 78.6456C50.7453 79.0622 50.767 79.3659 50.806 79.5656C50.8451 79.7608 50.9189 79.9735 51.0317 80.1991H49.795C49.7602 80.1167 49.7212 79.9952 49.6735 79.8303C49.6518 79.7565 49.6387 79.7088 49.6301 79.6827C49.4174 79.891 49.1874 80.0472 48.9444 80.1514C48.7014 80.2555 48.4411 80.3076 48.1677 80.3076C47.6817 80.3076 47.2998 80.1774 47.0177 79.9127C46.7357 79.648 46.5968 79.3139 46.5968 78.9103C46.5968 78.6413 46.6619 78.4069 46.7877 78.1943C46.9136 77.986 47.0958 77.8254 47.3258 77.7126C47.5558 77.5998 47.8856 77.5043 48.3196 77.4219C48.9054 77.3134 49.3089 77.2092 49.5346 77.1138V76.9879C49.5346 76.7493 49.4738 76.5757 49.3567 76.4759C49.2395 76.3717 49.0139 76.324 48.6841 76.324C48.4628 76.324 48.2892 76.3674 48.1633 76.4542C48.0375 76.541 47.9377 76.6972 47.8596 76.9142H47.8552ZM49.5259 77.9296C49.3654 77.9817 49.1137 78.0468 48.7665 78.1205C48.4194 78.1943 48.1937 78.2681 48.0852 78.3375C47.9203 78.4547 47.8422 78.5979 47.8422 78.7758C47.8422 78.9537 47.9073 79.1012 48.0375 79.2314C48.1677 79.3616 48.3326 79.4224 48.5365 79.4224C48.7622 79.4224 48.9748 79.3486 49.1831 79.201C49.335 79.0882 49.4348 78.9494 49.4825 78.7888C49.5172 78.6803 49.5303 78.4807 49.5303 78.1769V77.9296H49.5259Z" fill="#003399"/>
<path d="M54.564 80.1948V73.7247H55.8832V79.0969H59.1595V80.1948H54.5684H54.564Z" fill="#003399"/>
<path d="M60.0881 74.8312V73.6726H61.3378V74.8312H60.0881ZM60.0881 80.1948V75.4691H61.3378V80.1948H60.0881Z" fill="#003399"/>
<path d="M62.6179 74.8312V73.6726H63.8677V74.8312H62.6179ZM62.6179 80.1948V75.4691H63.8677V80.1948H62.6179Z" fill="#003399"/>
<path d="M67.3176 75.4735V76.4716H66.4627V78.3766C66.4627 78.7628 66.4714 78.9885 66.4887 79.0492C66.5061 79.1143 66.5408 79.1664 66.6016 79.2054C66.658 79.2488 66.7317 79.2662 66.8142 79.2662C66.9314 79.2662 67.0963 79.2271 67.3176 79.1447L67.4261 80.1167C67.1353 80.2426 66.8055 80.3033 66.4367 80.3033C66.211 80.3033 66.0071 80.2643 65.8248 80.1905C65.6426 80.1167 65.5124 80.0169 65.4256 79.8954C65.3431 79.7739 65.2824 79.6133 65.2477 79.4094C65.2216 79.2662 65.2086 78.9711 65.2086 78.5285V76.4673H64.6358V75.4692H65.2086V74.5319L66.4627 73.8029V75.4692H67.3176V75.4735Z" fill="#003399"/>
</svg>
