<svg width="138" height="154" viewBox="0 0 138 154" fill="none" xmlns="http://www.w3.org/2000/svg">
<path d="M31.3472 77.4254V0H109.141V79.9779C109.141 137.834 57.2784 153.433 31.3472 154V120.818C69.9058 120.818 77.2906 91.8895 76.1632 77.4254H31.3472Z" fill="#B0C3D5"/>
<path d="M49.6387 60.0123C49.515 59.7654 49.2145 59.6656 48.9677 59.7893C48.7208 59.913 48.6209 60.2134 48.7447 60.4603L49.1917 60.2363L49.6387 60.0123ZM64.1324 63.9255C63.7956 63.556 63.7958 63.5558 63.796 63.5556C63.796 63.5555 63.7962 63.5554 63.7963 63.5553C63.7966 63.5551 63.7967 63.5549 63.7969 63.5548C63.7971 63.5546 63.7973 63.5544 63.7972 63.5545C63.7971 63.5546 63.7964 63.5552 63.7951 63.5564C63.7924 63.5588 63.7871 63.5633 63.7794 63.5698C63.7639 63.5828 63.7384 63.6038 63.7028 63.6312C63.6316 63.6861 63.5205 63.7668 63.3696 63.8619C63.0677 64.0521 62.6073 64.2996 61.99 64.5135C60.7597 64.9397 58.8887 65.2386 56.3785 64.6633L56.2668 65.1507L56.1551 65.638C58.8558 66.257 60.9176 65.9433 62.3173 65.4584C63.015 65.2167 63.544 64.934 63.9027 64.7079C64.0821 64.5949 64.2191 64.4959 64.3134 64.4231C64.3606 64.3867 64.3972 64.3568 64.4232 64.335C64.4362 64.3241 64.4465 64.3152 64.4541 64.3085C64.458 64.3051 64.4611 64.3023 64.4636 64.3001C64.4649 64.2989 64.466 64.298 64.4669 64.2971C64.4674 64.2967 64.4678 64.2963 64.4682 64.296C64.4683 64.2958 64.4686 64.2956 64.4687 64.2955C64.4689 64.2953 64.4692 64.2951 64.1324 63.9255ZM56.2668 65.1507L56.3785 64.6633C53.8753 64.0896 52.1853 62.9125 51.1225 61.886C50.5903 61.3719 50.215 60.8951 49.9745 60.5502C49.8544 60.3779 49.7681 60.2389 49.713 60.1451C49.6855 60.0983 49.6657 60.0628 49.6535 60.0401C49.6473 60.0288 49.643 60.0207 49.6406 60.016C49.6394 60.0136 49.6386 60.0121 49.6383 60.0115C49.6381 60.0112 49.6381 60.0111 49.6381 60.0112C49.6382 60.0113 49.6382 60.0114 49.6383 60.0116C49.6384 60.0117 49.6385 60.0119 49.6385 60.0119C49.6386 60.0121 49.6387 60.0123 49.1917 60.2363C48.7447 60.4603 48.7448 60.4605 48.7449 60.4608C48.7449 60.4609 48.7451 60.4611 48.7452 60.4613C48.7454 60.4617 48.7456 60.4622 48.7459 60.4627C48.7464 60.4638 48.747 60.465 48.7478 60.4665C48.7493 60.4695 48.7513 60.4733 48.7538 60.478C48.7587 60.4875 48.7655 60.5004 48.7743 60.5166C48.7919 60.5491 48.8173 60.5946 48.8509 60.6518C48.9181 60.7662 49.0182 60.9271 49.1542 61.1222C49.4262 61.5122 49.8426 62.04 50.4278 62.6053C51.5999 63.7374 53.4474 65.0175 56.1551 65.638L56.2668 65.1507Z" fill="black"/>
<circle cx="49.9568" cy="48.3977" r="1.61793" fill="black"/>
<circle cx="69.3718" cy="49.4763" r="1.61793" fill="black"/>
<line x1="113.448" y1="76.2491" x2="134.981" y2="93.5038" stroke="black"/>
<line x1="111.793" y1="118.748" x2="121.572" y2="127.863" stroke="black"/>
<path d="M134.986 93.5078L111.597 119.452" stroke="black"/>
<line y1="-0.5" x2="27.5933" y2="-0.5" transform="matrix(-0.780368 0.625321 0.625321 0.780368 24.5828 62.6393)" stroke="black"/>
<line y1="-0.5" x2="13.3686" y2="-0.5" transform="matrix(-0.731524 0.681815 0.681815 0.731524 26.2666 105.114)" stroke="black"/>
<path d="M2.73267 79.5078L26.1217 105.452" stroke="black"/>
</svg>
