<svg width="138" height="154" viewBox="0 0 138 154" fill="none" xmlns="http://www.w3.org/2000/svg">
<path d="M31.3474 77.4254V0H109.141V79.9779C109.141 137.834 57.2787 153.433 31.3474 154V120.818C69.9061 120.818 77.2909 91.8895 76.1634 77.4254H31.3474Z" fill="#B0C3D5"/>
<path d="M71.6389 37.0123C71.5152 36.7654 71.2148 36.6656 70.9679 36.7893C70.721 36.913 70.6212 37.2134 70.7449 37.4603L71.1919 37.2363L71.6389 37.0123ZM86.1326 40.9255C85.7958 40.556 85.796 40.5558 85.7962 40.5556C85.7963 40.5555 85.7965 40.5554 85.7966 40.5553C85.7968 40.5551 85.797 40.5549 85.7971 40.5548C85.7974 40.5546 85.7975 40.5544 85.7975 40.5545C85.7974 40.5546 85.7967 40.5552 85.7953 40.5564C85.7926 40.5588 85.7874 40.5633 85.7796 40.5698C85.7642 40.5828 85.7386 40.6038 85.703 40.6312C85.6319 40.6861 85.5207 40.7668 85.3698 40.8619C85.068 41.0521 84.6076 41.2996 83.9902 41.5135C82.7599 41.9397 80.8889 42.2386 78.3787 41.6633L78.267 42.1507L78.1553 42.638C80.856 43.257 82.9178 42.9433 84.3176 42.4584C85.0152 42.2167 85.5442 41.934 85.903 41.7079C86.0824 41.5949 86.2193 41.4959 86.3137 41.4231C86.3609 41.3867 86.3975 41.3568 86.4234 41.335C86.4364 41.3241 86.4467 41.3152 86.4544 41.3085C86.4582 41.3051 86.4614 41.3023 86.4639 41.3001C86.4651 41.2989 86.4662 41.298 86.4671 41.2971C86.4676 41.2967 86.468 41.2963 86.4684 41.296C86.4686 41.2958 86.4688 41.2956 86.4689 41.2955C86.4692 41.2953 86.4694 41.2951 86.1326 40.9255ZM78.267 42.1507L78.3787 41.6633C75.8756 41.0896 74.1855 39.9125 73.1228 38.886C72.5905 38.3719 72.2152 37.8951 71.9748 37.5502C71.8546 37.3779 71.7684 37.2389 71.7133 37.1451C71.6857 37.0983 71.666 37.0628 71.6537 37.0401C71.6476 37.0288 71.6433 37.0207 71.6408 37.016C71.6396 37.0136 71.6388 37.0121 71.6385 37.0115C71.6384 37.0112 71.6383 37.0111 71.6384 37.0112C71.6384 37.0113 71.6385 37.0114 71.6386 37.0116C71.6386 37.0117 71.6387 37.0119 71.6387 37.0119C71.6388 37.0121 71.6389 37.0123 71.1919 37.2363C70.7449 37.4603 70.745 37.4605 70.7451 37.4608C70.7452 37.4609 70.7453 37.4611 70.7454 37.4613C70.7456 37.4617 70.7459 37.4622 70.7461 37.4627C70.7466 37.4638 70.7473 37.465 70.748 37.4665C70.7496 37.4695 70.7515 37.4733 70.754 37.478C70.7589 37.4875 70.7658 37.5004 70.7745 37.5166C70.7921 37.5491 70.8175 37.5946 70.8511 37.6518C70.9183 37.7662 71.0184 37.9271 71.1545 38.1222C71.4264 38.5122 71.8429 39.04 72.428 39.6053C73.6001 40.7374 75.4476 42.0175 78.1553 42.638L78.267 42.1507Z" fill="black"/>
<circle cx="71.957" cy="25.3977" r="1.61793" fill="black"/>
<circle cx="91.3721" cy="26.4763" r="1.61793" fill="black"/>
<line x1="113.448" y1="55.2491" x2="134.981" y2="72.5038" stroke="black"/>
<line x1="111.793" y1="97.7479" x2="121.572" y2="106.863" stroke="black"/>
<path d="M134.986 72.5078L111.597 98.4517" stroke="black"/>
<line y1="-0.5" x2="27.5933" y2="-0.5" transform="matrix(-0.780368 0.625321 0.625321 0.780368 24.5828 79.6393)" stroke="black"/>
<line y1="-0.5" x2="13.3686" y2="-0.5" transform="matrix(-0.731524 0.681815 0.681815 0.731524 26.2666 122.114)" stroke="black"/>
<path d="M2.73267 96.5078L26.1217 122.452" stroke="black"/>
</svg>
