<svg width="254" height="105" viewBox="0 0 254 105" fill="none" xmlns="http://www.w3.org/2000/svg">
<path d="M70.5 0.300049H68.7V104.3H70.5V0.300049ZM52.2 81.6001C52.3 81.5001 52.3 81.3 52.3 81.1001C52.3 80.4001 51.7 79.8 51 79.8H49.7C49.6 79.8 49.5 79.8 49.4 79.8C49.3333 79.7334 49.2667 79.6667 49.2 79.6001L48.6 78.6001C48.6 78.7001 48.7 78.7001 48.7 78.8C48.8 78.8 48.9 78.8 49 78.8H50.7C50.8 78.8 50.9 78.9001 51 78.9001C51.1 78.9001 51.1 79.0001 51.2 79.1001L50.4 77.9001C50.3333 77.8334 50.2667 77.7667 50.2 77.7C50.1 77.7 50 77.7 49.9 77.7H48.2C48.1 77.7 48 77.6001 48 77.6001C47.9 77.6001 47.8 77.5001 47.8 77.4001L47 76.3C47.1 76.4 47.1 76.5 47.2 76.5C47.3 76.5 47.4 76.6001 47.5 76.6001H49.2C49.3 76.6001 49.4 76.6001 49.4 76.6001C49.5 76.7001 49.6 76.7001 49.6 76.8L48.8 75.6001C48.8 75.5001 48.7 75.5001 48.6 75.4001C48.6 75.4001 48.5 75.4001 48.4 75.4001H47C46.9 75.4001 46.8 75.4 46.8 75.3C46.7 75.3 46.6 75.2 46.6 75.2L45.6 73.8C47.5 73.6001 49 72.6 49.3 71.2C49.7 69.3 47.9 67.6 45.3 67.2C44.9 67.1 44.5 66.8 44.5 66.3C44.5 65.9 44.8 65.6001 45.1 65.4001C44.8 65.3001 44.5 65.3 44.2 65.3C43 65.3 42.1 66.1001 42.1 67.1001C42.1 67.3 42.1 67.5001 42.2 67.6001C40.9 68.2001 39.7 69.2001 38.8 70.3C39.8 70 40.8 69.9001 41.8 69.9001C41.8 69.8334 41.8 69.7667 41.8 69.7C41.8 68.9 42.5 68.3 43.3 68.3C42.7 68.5 42.5 69.0001 42.5 69.4001C42.5 69.8001 42.8 70.1001 43.2 70.1001C43.4 70.1001 43.5 70.1 43.6 70C43.6 69.9 43.6 69.8 43.6 69.7C43.6 69.1 44 68.7 44.6 68.7C44.6667 68.7 44.7333 68.7 44.8 68.7C44.4 68.9 44.1 69.3 44.1 69.7C44.1 70.3 44.6 70.9001 45.2 70.9001C45.3 70.9001 45.4 70.9 45.4 70.8C45.4 70.8 45.4 70.7001 45.4 70.6001C45.4 70.2001 45.8 69.8 46.2 69.8C46.7 69.8 47 70.2001 47 70.6001C47 71.6001 45.9 71.7 45.2 71.5C42.9 70.8 40.8 70.5 38.7 70.8C36.1 71.2001 31.8 73 27.2 72.8C26.2 72.8 25.1 72.6001 24 72.3C24.1 72.5 24.2 72.6001 24.3 72.6001C24.7 73.3 24.9 74.1 24.5 75C24.5 74 23.7 73.1001 22.9 72.6001C22.7 72.4001 22.5 72.2001 22.6 71.9001L22.8 70.8C22.8 70.8667 22.8 70.9334 22.8 71C22.8 71.1 22.9 71.2 23 71.2L23.4 71.7C23.6 70.5 23.3 69.4 22.6 68.3C22.9 67.5 22.9 66.6001 22.7 65.8C22.6 66.4 22.3 66.7001 22 66.9001C21.5 67.2001 21.4 67.8 21.7 68.2C21.2 68 20.6 67.1001 20.9 66.6001C21.3 66.0001 22.4 66.3001 22.6 65.4001C21.9 65.1001 21.1 65.3001 20.9 65.4001C20.5 64.9001 19.9 64.6001 19.2 64.6001C18.7 64.1001 17.9 63.9001 17.1 64C16.2 63.9001 15.5 64.1001 14.9 64.6001C14.2 64.6001 13.7 64.9001 13.2 65.4001C13 65.3001 12.3 65.1001 11.6 65.4001C11.7 66.3001 12.8 66.0001 13.2 66.6001C13.6 67.1001 12.9 68 12.5 68.2C12.8 67.8 12.7 67.2001 12.1 66.9001C11.8 66.7001 11.5 66.4 11.4 65.8C11.2 66.6001 11.2 67.5 11.6 68.3C10.9 69.4 10.6 70.5 10.8 71.7L11.2 71.2C11.3 71.2 11.3 71.1 11.3 71C11.3667 70.9334 11.3667 70.8667 11.3 70.8L11.5 71.9001C11.6 72.2001 11.5 72.4001 11.2 72.6001C10.5 73.1001 9.69999 74 9.69999 75C9.29999 74.1 9.39999 73.3 9.89999 72.6001C8.49999 71.9001 7.49999 70.7 7.29999 70.5C6.89999 70.1 6.99999 69.5001 7.29999 68.9001C7.99999 67.9001 8.19999 66.8 7.29999 66.1001C7.29999 66.0334 7.29999 65.9667 7.29999 65.9001C7.29999 65.3001 6.89999 64.7001 6.19999 64.6001C6.29999 64.8 6.39999 65 6.39999 65.2C6.39999 65.5 6.29999 65.7001 6.19999 65.9001C6.29999 66.1001 6.39999 66.3 6.39999 66.5C6.39999 66.8 6.19999 67.1001 5.99999 67.3C5.99999 67.2001 6.09999 67.1001 6.09999 66.9001C6.09999 66.3001 5.59999 65.7 5.09999 65.5C4.99999 65 4.49999 64.6001 3.99999 64.6001C3.69999 64.6001 3.39999 64.8 3.19999 65C3.59999 65 3.99999 65.3 3.99999 65.7C3.79999 65.9 3.59999 66.1001 3.49999 66.3H3.59999C4.29999 66.3 4.79999 66.9001 4.79999 67.6001C4.79999 67.7001 4.79999 67.8 4.79999 67.8C4.79999 67.5 4.59999 67.3 4.39999 67.1001C3.99999 66.7001 3.49999 66.6001 2.89999 66.8C2.69999 66.5 2.39999 66.4001 2.09999 66.4001C1.69999 66.4001 1.39999 66.6001 1.19999 66.9001C1.59999 66.9001 1.89999 67.1001 2.09999 67.4001C1.59999 68.1001 1.49999 69.1 2.09999 69.7C2.49999 70 3.09999 70.1001 3.59999 69.9001H3.69999C3.89999 69.9001 3.99999 70.1001 3.99999 70.3C3.99999 70.5 3.89999 70.6001 3.69999 70.6001C3.59999 70.6001 3.49999 70.6 3.49999 70.5C3.29999 70.4 3.19999 70.4001 2.99999 70.4001C2.59999 70.4001 2.19999 70.7001 2.19999 71.1001V71.2C2.19999 71.2 2.09999 71.2 1.99999 71.2C1.79999 71.2 1.59999 71.2 1.49999 71C1.49999 71.1 1.49999 71.2001 1.49999 71.3C1.49999 71.8 1.89999 72.2001 2.39999 72.3C2.59999 72.9 3.19999 73.3 3.79999 73.3C4.19999 73.3 4.49999 73.2 4.79999 73C4.89999 72.9 4.99999 72.8 5.09999 72.8C5.49999 72.8 5.79999 73.2 5.79999 73.5C5.79999 73.9 5.59999 74.1 5.29999 74.2L4.79999 74.3C4.69999 74.3 4.59999 74.3 4.49999 74.3C4.43332 74.3 4.36665 74.2667 4.29999 74.2L5.49999 75.4001C5.59999 75.4001 5.69999 75.5 5.69999 75.5C5.79999 75.5 5.89999 75.5 5.99999 75.5L6.99999 75.3C7.09999 75.2001 7.19999 75.3 7.29999 75.3C7.29999 75.3 7.39999 75.3001 7.49999 75.4001L8.29999 76.2C8.29999 76.1 8.19999 76.1001 8.09999 76.1001C7.99999 76.1001 7.89999 76.0001 7.79999 76.1001L6.79999 76.3C6.73332 76.3 6.66666 76.3 6.59999 76.3C6.49999 76.3 6.39999 76.2 6.39999 76.2L7.49999 77.2C7.49999 77.3 7.59999 77.3 7.69999 77.3C7.79999 77.4 7.89999 77.4001 7.99999 77.4001L8.99999 77.1001C9.06666 77.1001 9.13332 77.1001 9.19999 77.1001C9.29999 77.2001 9.39999 77.2001 9.39999 77.3L10.3 78.1001C10.2 78.0001 10.1 78.0001 10.1 77.9001C9.99999 77.9001 9.89999 77.9001 9.79999 77.9001L8.79999 78.2C8.69999 78.2 8.59999 78.2001 8.49999 78.1001C8.49999 78.1001 8.39999 78.1 8.29999 78L9.39999 79.1001C9.49999 79.2001 9.59999 79.2 9.69999 79.2C9.76666 79.2 9.83332 79.2 9.89999 79.2L11.1 79C9.99999 79.6 8.69999 80.4 7.39999 81.2C6.59999 81.7 5.69999 81.8001 4.69999 81.4001C4.19999 81.2001 3.59999 81.2001 3.29999 81.3C2.79999 81.3 2.39999 81.6 2.19999 82C2.29999 81.9 2.49999 81.9001 2.79999 81.9001C3.19999 81.9001 3.59999 82.1001 3.89999 82.4001C3.39999 82.2001 2.89999 82.2001 2.29999 82.4001C1.29999 82.7001 0.699989 83.7 0.999989 84.5C0.599989 84.6 0.299988 85.0001 0.299988 85.4001C0.299988 85.7001 0.399989 85.9001 0.599989 86.1001C0.699989 85.7001 1.09999 85.4 1.59999 85.3C1.79999 85.5 1.99999 85.6001 2.19999 85.6001C2.29999 85.5001 2.39999 85.4 2.49999 85.3C2.49999 85.2001 2.49999 85.1 2.49999 85C2.49999 84.1 3.19999 83.4001 4.09999 83.4001C4.19999 83.4001 4.29999 83.4001 4.29999 83.4001C3.59999 83.6001 3.09999 84.2 3.09999 85C3.09999 85.1 3.09999 85.2001 3.09999 85.3C2.69999 85.4 2.49999 85.8 2.49999 86.2C2.49999 86.5 2.49999 86.7001 2.69999 86.9001C2.99999 86.4001 3.49999 86.0001 4.19999 85.9001C4.39999 86.0001 4.69999 86 4.89999 86C5.09999 86 5.19999 86 5.39999 86C5.29999 85.8 5.19999 85.5 5.19999 85.3C5.19999 84.6001 5.69999 84 6.39999 84C6.49999 84 6.59999 84 6.59999 84C5.99999 84.3 5.49999 84.9001 5.69999 85.4001C5.79999 85.8001 6.09999 86.0001 6.59999 86.1001C6.59999 86.4001 6.49999 86.7001 6.39999 86.9001C6.99999 86.9001 7.49999 86.5 7.69999 86C8.39999 85.7 8.89999 85.1001 8.69999 84.6001C8.69999 84.4001 8.49999 84.2001 8.39999 84.1001V84C8.39999 83.7 8.69999 83.4001 9.09999 83.4001C9.39999 83.4001 9.69999 83.7 9.69999 84C9.69999 84.2 9.69999 84.4 9.49999 84.5H11C11.0667 84.5 11.1333 84.4667 11.2 84.4001C11.3 84.4001 11.4 84.3 11.4 84.3L12.3 82.9001L12.4 82.8C12.5 82.8 12.6 82.8 12.6 82.8H13.7H13.6C13.5 82.8 13.5 82.9001 13.4 82.9001L12.5 84.3C12.5 84.3 12.4 84.4001 12.3 84.4001C12.2333 84.4667 12.1667 84.5 12.1 84.5H13.8C13.8667 84.5 13.9333 84.4667 14 84.4001C14.1 84.4001 14.2 84.3 14.2 84.3L15.2 82.8C14.5 82.4 14.2 81.7001 14.2 80.8C14.2 80.2001 14.6 79.6001 14.6 79.1001V79C14.6 78.9 14.6 78.8 14.6 78.7C14.6 78.6 14.5 78.6 14.5 78.5L15.3 79.4001C15.4 79.4001 15.5 79.5001 15.5 79.6001C15.5 79.7001 15.5 79.8 15.5 79.8V80C15.4 80.4 15 81.2001 15.8 81.9001C15.9 81.9001 16 82 16.1 82L16.7 82.4001V80.2H17.5V82.7C17.5 82.7 17.5 82.8001 17.6 82.9001C17.6 83.0001 17.7 83.0001 17.7 83.1001L18.5 83.6001C18.6 83.6001 18.7 83.7 18.8 83.7C18.8667 83.7 18.9333 83.6667 19 83.6001L20.5 83C20.4 83 20.3 83 20.3 83C20.2 83 20.1 83.0001 20 82.9001L18.3 81.9001C19.1 81.2001 18.7 80.4 18.7 80L18.6 79.8C18.6 79.8 18.6 79.7001 18.7 79.6001C18.7 79.5001 18.7 79.4001 18.8 79.4001L19.7 78.5C19.6333 78.5667 19.6 78.6334 19.6 78.7C19.5 78.8 19.5 78.9 19.5 79V79.1001C19.6 79.7001 20.2 80.8001 19.7 81.4001L21.3 82.4001C21.3 82.5001 21.4 82.5 21.5 82.5C21.6 82.5 21.7 82.5 21.8 82.5L23.3 81.8C23.2 81.8 23.1 81.8 23.1 81.8C23 81.8 22.9 81.8 22.8 81.7L21.1 80.7C21.5 79.9 21.2 78.7 20.8 78V77.9001C20.7 77.9001 20.7 77.8 20.7 77.7C20.7 77.6 20.8 77.5001 20.8 77.4001L21.4 76.4001C21.3 76.5001 21.3 76.6001 21.3 76.6001C21.3 76.7001 21.3 76.8001 21.4 76.9001L21.6 77.3C21.7 77.5 21.8 77.6001 21.8 77.9001C22.8 77.0001 23 76.2 22.4 75.5L22.2 75.3C22.2 75.2001 22.1 75.1001 22.1 75.1001C22.1 75.0001 22.1 74.9 22.1 74.8L22.4 73.6001C22.4 73.7001 22.4 73.8001 22.4 73.9001C22.4 74.0001 22.5 74.1001 22.5 74.1001L23.1 74.8C24.3 76.1001 23.6 77.8 22.2 79.1001C22.3 79.3 22.3 79.8 22.3 80L24.1 81.2C24.2 81.2 24.3 81.3 24.4 81.3C24.4 81.3 24.5 81.3 24.6 81.2L25.9 80.7C25.9 80.7 25.8 80.7 25.7 80.7C25.4 80.7 25.1 80.4001 25.1 80.1001C25.1 79.8 25.3 79.6 25.5 79.5C30.5 78 35.2 74 38.2 74C39.7 74 40.9 74.9 40.9 76C40.9 76.2 40.9 76.4001 40.8 76.6001C40.2 78.4001 41.1 80.1001 43.6 80.8C44 80.9 44.3 81.3 44.3 81.7C44.3 81.8 44.3 81.9001 44.3 81.9001C44.3 81.9001 44.4 81.9001 44.5 81.9001C45.1 81.9001 45.7 81.6001 46.1 81.1001C46.5 81.1001 47 81.1 47.5 81C47.5 81.1 47.6 81.3001 47.6 81.4001C47.7 81.9001 47.5 82.4 47.2 82.5C46.6 82.7 45.9 82.5 45.4 82.5C44.4 82.5 43.5 83.3 43.5 84.3C43.5 84.4 43.6 84.5001 43.6 84.6001C43.2 84.8 43 85.1 43 85.5C43 85.7 43.1 85.9001 43.2 86.1001C43.5 85.7001 43.9 85.5 44.4 85.3C44.4 84.4 45.2 83.7 46.1 83.7C46.2 83.7 46.3 83.7 46.5 83.7C45.5 83.8 44.8 84.6001 44.8 85.6001C44.8 85.6001 44.8 85.7001 44.8 85.8C44.7 85.9 44.7 86.1001 44.7 86.3C44.7 86.5 44.8 86.8001 44.9 86.9001C45.1 86.5001 45.5 86.2 46.1 86C46.4 85.9 46.8 85.8001 47.1 85.9001C47.1 85.7001 47 85.6001 47 85.4001C47 84.6001 47.7 84 48.5 84C48.6 84 48.7 84 48.7 84C48.2 84.1 47.7 84.5001 47.7 85.1001C47.7 85.5001 47.9 85.9001 48.2 86.1001C48.2 86.5001 48.4 86.7001 48.6 86.9001C48.7 86.4001 49.2 86 49.7 86C50.2 86 50.6 85.9 50.9 85.8C51.4 85.7001 51.8 85.2 51.8 84.7C51.8 84.3 51.6 83.9 51.3 83.7C51.5 83.1 51.4 82 51.2 81.2C51.2667 81.2 51.3333 81.2 51.4 81.2C51.7 81.2 52 81.4001 52.2 81.6001ZM12.6 77.3L12.8 76.9001C12.8 76.8001 12.8 76.7001 12.8 76.6001C12.8 76.6001 12.8 76.5001 12.8 76.4001L13.3 77.4001C13.4 77.5001 13.4 77.6 13.4 77.7C13.4 77.8 13.4 77.9001 13.4 77.9001L13.3 78C13 78.7 12.6 80 13 80.8C12.1 80.5 11.8 79.7001 11.9 79.1001C10.3 77.5001 9.89999 76 11.1 74.7L11.7 74C11.7 73.9 11.8 73.9 11.8 73.8C11.8 73.7001 11.8 73.6 11.8 73.5L12.1 74.7C12.1 74.7667 12.1 74.8334 12.1 74.9001C12.1 75.0001 12 75.1 12 75.2L11.8 75.4001C11.2 76.1001 11.3 77.0001 12.3 77.9001C12.4 77.6001 12.5 77.5 12.6 77.3ZM14.7 69H14.3C13.9 69 13.6 68.4001 13.6 67.9001C13.8 68.2001 14 68.3 14.4 68.3H16.1C16.3 68.3 16.4 68.4001 16.5 68.6001C16.5 68.8 16.5 69 16.5 69.2C16.4 69 16.3 69 16.1 69H15.7C15.8 69.1 15.9 69.3001 15.9 69.4001C15.9 69.8001 15.6 70.1001 15.2 70.1001C14.9 70.1001 14.6 69.8001 14.6 69.4001C14.6 69.3001 14.6 69.1 14.7 69ZM15.2 65.8L15.9 66.8C16 67 16.1 67.1001 16.3 67.1001H15.7C15.4 67.1001 15.2 67 15 66.8L14.3 65.9001C14.2 65.7001 14.1 65.6001 13.9 65.6001H14.6C14.8 65.6001 15 65.7001 15.2 65.8ZM17.2 65.6001L18.1 66.9001C18.2 67.1001 18.3 67.2001 18.5 67.3H17.7C17.4 67.3 17.2 67.1001 17.1 66.9001L16.4 65.8C16.1 65.4 16 65.3 15.7 65.2H16.5C16.7 65.2 17 65.4001 17.2 65.6001ZM20.4 67.1001H19.7C19.4 67.1001 19.2 67 19.1 66.8L18.4 65.9001C18.2 65.7001 18.2 65.6001 18 65.6001H18.7C18.9 65.6001 19.1 65.7001 19.2 65.8L19.9 66.8C20.1 67 20.2 67.1001 20.4 67.1001ZM20.6 67.9001C20.6 68.4001 20.2 69 19.8 69H19.4C19.5 69.1 19.6 69.3001 19.6 69.4001C19.6 69.8001 19.3 70.1001 18.9 70.1001C18.5 70.1001 18.2 69.8001 18.2 69.4001C18.2 69.3001 18.3 69.1 18.4 69H18C17.9 69 17.8 69 17.7 69.2C17.7 69 17.6 68.8 17.7 68.6001C17.7 68.4001 17.9 68.3 18.1 68.3H19.8C20.1 68.3 20.4 68.2001 20.6 67.9001ZM20 71.7C19.9333 71.7667 19.8667 71.8334 19.8 71.9001C19.8 72.6001 19.5 72.9001 19.1 73.1001C19.1 73.7001 19 74.3001 18.8 74.9001C19.3 76.0001 18.9 76.8001 18.5 76.9001C18.1 77.1001 17.5 76.9001 17.1 76.9001C16.6 76.9001 16.1 77.1001 15.7 76.9001C15.3 76.8001 14.9 76.0001 15.4 74.9001C15.2 74.3001 15.1 73.7001 15.1 73.1001C14.6 72.9001 14.4 72.6001 14.3 71.9001C14.3 71.8001 14.2 71.8 14.1 71.7C12.4 71.2 12.2 69.1 13.1 68.5C13 69.4 12.9 70.8 14.9 71C14.9 72.1 15.4 72.4001 15.9 72.4001C16.3 72.4001 16.5 72.3 16.6 72.2C17 72 16.7 71.7 16.6 71.7C16.4 71.4 16.3 71.1 16.3 70.7H17.7C17.7667 70.7 17.8 70.7 17.8 70.7C17.9 71.1 17.8 71.4 17.5 71.7C17.4 71.7 17.2 72 17.5 72.2C17.6 72.3 17.9 72.4001 18.3 72.4001C18.8 72.4001 19.3 72.1 19.3 71C21.2 70.8 21.2 69.4 21.1 68.5C22 69.1 21.8 71.2 20 71.7ZM18.3 75.9001C18.3 75.3001 17.7 75.1001 17.1 75.1001C16.5 75.1001 15.8 75.3001 15.9 75.9001C15.9 76.6001 16.6 76.3 17.1 76.3C17.6 76.3 18.2 76.6001 18.3 75.9001ZM18.1 74.5C18.2 74 18.2 73.5 18.2 73L17.7 73.6001C17.7 73.4001 17.6 73.2001 17.5 73.1001C17.5 73.0001 17.4 73 17.4 73H17.3C17.2 73 17.1 73 17.1 73C17 73 16.9 73 16.9 73C16.8333 73 16.8 73 16.8 73C16.7333 73 16.6667 73.0334 16.6 73.1001C16.5 73.2001 16.5 73.4001 16.4 73.6001L15.9 73C15.9 73.5 16 74 16.1 74.5C16.4 74.4 16.7 74.4001 17.1 74.4001C17.4 74.4001 17.8 74.4 18.1 74.5ZM26.4 60.3001C26.4667 60.3001 26.5333 60.3001 26.6 60.3001C25.9 60.5001 25.3 61 25.1 61.7C24.6 61.8 24.3 62.3001 24.3 62.8001C24.3 63.0001 24.4 63.2001 24.5 63.4001C24.9 63 25.4 62.6 26 62.5C26.1 61.6 26.8 61 27.7 60.9001C26.9 61.2001 26.4 62.0001 26.4 62.8001C26.4 63.1001 26.5 63.4 26.6 63.7C26.7 63.2 27.1 62.9001 27.7 62.9001C27.8 62.9001 27.9 62.9001 28 62.9001C28.2 63 28.4 63 28.5 63C29.4 63 30 62.3 30 61.5C30 61.3 30 61.2001 30 61C30.3 61.1 30.6 61.5 30.6 61.9001C30.6 62.1001 30.6 62.3 30.5 62.5C30.6 62.5 30.7 62.5 30.8 62.5C31.8 62.5 32.6 61.8001 32.7 60.8001C33.2 60.6001 33.6 60.2001 34 59.8001L34.2 61C34.3 61.1 34.3 61.2001 34.2 61.3001C34.2 61.3667 34.1667 61.4334 34.1 61.5L35.2 60.4001C35.2 60.3001 35.3 60.3 35.3 60.2C35.3 60.1 35.3 60 35.3 59.9001L35 58.4001C35 58.3001 35 58.2 35 58.1C35 58 35.1 58 35.1 57.9001L36 57C35.9 57.1 35.9 57.2001 35.9 57.3001C35.8 57.3001 35.8 57.4001 35.8 57.5L36.2 59.1C36.2 59.1 36.2 59.2001 36.2 59.3001C36.1 59.4001 36.1 59.5 36 59.5L37 58.5C37 58.5 37.1 58.4001 37.1 58.3001C37.1 58.2334 37.1 58.1667 37.1 58.1L36.8 56.5C36.8 56.4001 36.8 56.3001 36.8 56.3001C36.8 56.2001 36.9 56.1 36.9 56L37.8 55.2C37.7 55.2 37.7 55.3001 37.7 55.4001C37.6 55.5 37.6 55.6 37.7 55.7L38 57.2C38 57.3 38 57.4001 38 57.5C37.9 57.5 37.9 57.6 37.8 57.7L38.8 56.7C38.9 56.6 38.9 56.5 38.9 56.5C38.9 56.4001 38.9 56.3 38.9 56.2L38.8 55.5C38.6 54.6 39.5 53.6 40.2 53.5C40.3 53.4001 40.3 53.2001 40.3 53C40.3 52.1 39.3 51.4001 38 51.4001C37.4 51.4001 36.8 51.6001 36.4 51.9001C36.6 52.4001 36.6 52.9 35 53.1C33.7 53.3 32.6 53.5001 31.7 54.3001C30.3 55.4001 30.5 56.9001 29.7 57.5C30 57.6 30.5 57.6 30.9 57.5C31.2 57.4001 31.5 57.3 31.7 57.2C31.6 57.5 31.3 57.7001 30.8 57.9001C30.7 58.4001 30.2 59 29.6 59.2C29.2 59.3 28.8 59.4001 28.4 59.3001L26.9 58.8001C26.7 58.8001 26.5 58.7 26.3 58.7C25.1 58.7 24.2 59.6001 24 60.8001C23.5 60.8001 23.1 61.3001 23.1 61.9001C23.1 62.1001 23.1 62.3001 23.2 62.4001C23.6 62.1001 24.1 61.8 24.6 61.6C24.8 60.8 25.5 60.3001 26.4 60.3001ZM26.5 69.1001C26.5 68.9001 26.5 68.8 26.5 68.7C26.6 68.4 26.8 68.2 27.1 68.2C27.4 68.2 27.7 68.5 27.7 68.8C27.7 68.9 27.6 69.1 27.5 69.2C27.6 69.2 27.8 69.2 27.9 69.2C28.2 69.2 28.5 69.2001 28.7 69.1001C29.2 69.0001 29.5 68.6 29.5 68.2C29.5 67.6 29 67.2 28.5 67.2H28.4C28.5 67.1 28.7 67.1001 28.8 67.1001C29.5 67.1001 30 67.6 30 68.2C30 68.2667 30 68.3 30 68.3C31.7 68.3 33.6 66.7001 34 66.1001C33.5 66.3 32.9 66.3 32.3 66.3C31.6 66.3 31 66.2001 30.4 66.1001C29.5 65.9001 28.7 65.7 28.1 65.7C26 65.7 24.3 67.1001 24.3 68.8C24.3 70.2001 25.4 71.4 27 71.7C30.7 72.5 34.9 70.3 38.5 69.6001C39.4 68.7001 40.5 67.9001 41.6 67.4001C41.6 67.3001 41.5 67.1 41.5 67C36.8 67.8 32.5 70.2 28.6 70.2C27.5 70.2 26.7 69.8 26.5 69.1001ZM52.2 58.5C52.3 58.3 52.3 58.1 52.3 58C52.3 57.2001 51.7 56.6 51 56.6H49.7C49.6 56.6 49.5 56.6 49.4 56.6C49.3333 56.5334 49.2667 56.4667 49.2 56.4001L48.6 55.4001C48.6 55.5 48.7 55.6 48.7 55.6C48.8 55.6 48.9 55.7 49 55.7H50.7C50.8 55.7 50.9 55.7 51 55.7C51.0667 55.7667 51.1333 55.8334 51.2 55.9001L50.4 54.7C50.3 54.7 50.3 54.6 50.2 54.6C50.1 54.5 50 54.5 49.9 54.5H48.2C48.1 54.5 48 54.5 48 54.4001C47.9 54.4001 47.8 54.3001 47.8 54.3001L47 53.2C47.1 53.2 47.1 53.3001 47.2 53.3001C47.3 53.4001 47.4 53.4001 47.5 53.4001H49.2C49.3 53.4001 49.4 53.4001 49.4 53.5C49.5 53.5 49.6 53.5 49.6 53.6L48.8 52.4001C48.8 52.4001 48.7 52.3001 48.6 52.3001C48.6 52.2001 48.5 52.2 48.4 52.2H47C46.9 52.2 46.8 52.2 46.8 52.2C46.7 52.1 46.6 52.1 46.6 52L45.6 50.6C47.5 50.4 49 49.4001 49.3 48C49.7 46.2001 47.9 44.4001 45.3 44C44.9 44 44.5 43.6 44.5 43.1C44.5 42.7 44.8 42.4 45.1 42.3C44.8 42.2001 44.5 42.1 44.2 42.1C43 42.1 42.1 42.9001 42.1 43.9001C42.1 44.1001 42.1 44.3 42.2 44.5C40.9 45 39.7 46 38.8 47.1C39.8 46.8 40.8 46.7001 41.8 46.7001C41.8 46.6334 41.8 46.5667 41.8 46.5C41.8 45.8 42.5 45.1 43.3 45.1C42.7 45.4 42.5 45.9001 42.5 46.2001C42.5 46.6001 42.8 47 43.2 47C43.4 47 43.5 46.9 43.6 46.8C43.6 46.7001 43.6 46.6 43.6 46.5C43.6 46 44 45.5 44.6 45.5C44.6667 45.5 44.7333 45.5 44.8 45.5C44.4 45.7001 44.1 46.1 44.1 46.6C44.1 47.2 44.6 47.7 45.2 47.7C45.3 47.7 45.4 47.7 45.4 47.7C45.4 47.6 45.4 47.5 45.4 47.5C45.4 47 45.8 46.6 46.2 46.6C46.7 46.6 47 47 47 47.5C47 48.4001 45.9 48.5001 45.2 48.3001C42.9 47.7001 40.8 47.4 38.7 47.7C36.1 48 31.8 49.8 27.2 49.6C26.2 49.6 25.1 49.4 24 49.1C24.1 49.3 24.2 49.4001 24.3 49.5C24.7 50.2001 24.9 50.9001 24.5 51.8001C24.5 50.8001 23.7 50 22.9 49.4001C22.7 49.2001 22.5 49.0001 22.6 48.8001L22.8 47.6C22.8 47.7 22.8 47.8001 22.8 47.8001C22.8 47.9001 22.9 48 23 48.1L23.4 48.5C23.6 47.3 23.3 46.2001 22.6 45.2001C22.9 44.4001 22.9 43.5 22.7 42.6C22.6 43.2 22.3 43.5 22 43.7001C21.5 44.1001 21.4 44.6 21.7 45C21.2 44.8 20.6 43.9001 20.9 43.4001C21.3 42.9001 22.4 43.1001 22.6 42.2001C21.9 42 21.1 42.1001 20.9 42.2001C20.5 41.7001 19.9 41.5 19.2 41.5C18.7 41 17.9 40.7001 17.1 40.8C16.2 40.7001 15.5 41 14.9 41.5C14.2 41.5 13.7 41.7001 13.2 42.2001C13 42.1001 12.3 42 11.6 42.2001C11.7 43.1001 12.8 42.9001 13.2 43.4001C13.6 43.9001 12.9 44.8 12.5 45C12.8 44.6 12.7 44.1001 12.1 43.7001C11.8 43.5 11.5 43.2 11.4 42.6C11.2 43.5 11.2 44.4001 11.6 45.2001C10.9 46.2001 10.6 47.3 10.8 48.5L11.2 48.1C11.3 48 11.3 47.9001 11.3 47.8001C11.4 47.8001 11.4 47.7 11.3 47.6L11.5 48.8001C11.6 49.0001 11.5 49.2001 11.2 49.4001C10.5 50 9.69999 50.8001 9.69999 51.8001C9.29999 50.9001 9.39999 50.1 9.89999 49.5C8.49999 48.8 7.49999 47.6001 7.29999 47.4001C6.89999 46.9001 6.99999 46.3 7.29999 45.8C7.99999 44.7001 8.19999 43.7001 7.29999 42.9001V42.8C7.29999 42.1 6.89999 41.5 6.19999 41.4001C6.29999 41.6001 6.39999 41.8 6.39999 42C6.39999 42.3 6.29999 42.6 6.19999 42.8C6.29999 42.9 6.39999 43.1 6.39999 43.3C6.39999 43.6 6.19999 43.9 5.99999 44.1C5.99999 44 6.09999 43.9 6.09999 43.8C6.09999 43.1 5.59999 42.5 5.09999 42.3C4.99999 41.8 4.49999 41.5 3.99999 41.5C3.69999 41.5 3.39999 41.6 3.19999 41.8C3.59999 41.8 3.99999 42.2 3.99999 42.6C3.79999 42.7 3.59999 42.9 3.49999 43.1H3.59999C4.29999 43.1 4.79999 43.7001 4.79999 44.4001C4.79999 44.5 4.79999 44.6001 4.79999 44.7001C4.79999 44.4001 4.59999 44.1001 4.39999 43.9001C3.99999 43.5 3.49999 43.4 2.89999 43.6C2.69999 43.4 2.39999 43.2001 2.09999 43.2001C1.69999 43.2001 1.39999 43.4001 1.19999 43.7001C1.59999 43.7001 1.89999 43.9001 2.09999 44.2001C1.59999 45 1.49999 45.9001 2.09999 46.5C2.49999 46.9001 3.09999 47 3.59999 46.8H3.69999C3.89999 46.8 3.99999 46.9 3.99999 47.1C3.99999 47.3 3.89999 47.4001 3.69999 47.4001C3.59999 47.4001 3.49999 47.4001 3.49999 47.4001C3.29999 47.3001 3.19999 47.2 2.99999 47.2C2.59999 47.2 2.19999 47.5 2.19999 47.9001C2.19999 47.9667 2.19999 48 2.19999 48C2.19999 48.1 2.09999 48.1 1.99999 48.1C1.79999 48.1 1.59999 48 1.49999 47.9001C1.49999 47.9001 1.49999 48 1.49999 48.1C1.49999 48.6 1.89999 49.1 2.39999 49.1C2.59999 49.7 3.19999 50.1 3.79999 50.1C4.19999 50.1 4.49999 50.0001 4.79999 49.8001C4.89999 49.7001 4.99999 49.7 5.09999 49.7C5.49999 49.7 5.79999 50 5.79999 50.4001C5.79999 50.7001 5.59999 51 5.29999 51L4.79999 51.2C4.69999 51.2 4.59999 51.2 4.49999 51.1C4.43332 51.1 4.36665 51.0667 4.29999 51L5.49999 52.2C5.59999 52.2 5.69999 52.3001 5.69999 52.3001C5.79999 52.3001 5.89999 52.3001 5.99999 52.3001L6.99999 52.1C7.09999 52.1 7.19999 52.1 7.29999 52.1C7.29999 52.1 7.39999 52.2 7.49999 52.2L8.29999 53C8.29999 53 8.19999 52.9001 8.09999 52.9001C7.99999 52.9001 7.89999 52.9001 7.79999 52.9001L6.79999 53.1C6.73332 53.1 6.66666 53.1 6.59999 53.1C6.49999 53.1 6.39999 53 6.39999 53L7.49999 54.1C7.49999 54.1 7.59999 54.2 7.69999 54.2C7.79999 54.2 7.89999 54.2 7.99999 54.2L8.99999 54C9.09999 53.9001 9.09999 54 9.19999 54C9.29999 54 9.39999 54 9.39999 54.1L10.3 54.9001C10.2 54.8001 10.1 54.8001 10.1 54.8001C9.99999 54.8001 9.89999 54.7001 9.79999 54.8001L8.79999 55C8.69999 55 8.59999 55 8.49999 55C8.49999 55 8.39999 54.9001 8.29999 54.9001L9.39999 55.9001C9.49999 56 9.59999 56 9.69999 56C9.76666 56.0667 9.83332 56.1 9.89999 56.1L11.1 55.8001C9.99999 56.5001 8.69999 57.2 7.39999 58.1C6.59999 58.5 5.69999 58.6001 4.69999 58.3001C4.19999 58.1001 3.59999 58 3.29999 58.1C2.79999 58.2 2.39999 58.5 2.19999 58.9001C2.29999 58.8001 2.49999 58.7 2.79999 58.7C3.19999 58.7 3.59999 58.9 3.89999 59.2C3.39999 59 2.89999 59 2.29999 59.2C1.29999 59.6 0.699989 60.5001 0.999989 61.3001C0.599989 61.5001 0.299988 61.8001 0.299988 62.3001C0.299988 62.5001 0.399989 62.8 0.599989 63C0.699989 62.5 1.09999 62.2 1.59999 62.2C1.79999 62.3 1.99999 62.4001 2.19999 62.4001C2.29999 62.3001 2.39999 62.2 2.49999 62.1C2.49999 62 2.49999 61.9001 2.49999 61.9001C2.49999 61 3.19999 60.2 4.09999 60.2C4.19999 60.2 4.29999 60.2 4.29999 60.2C3.59999 60.4 3.09999 61.1001 3.09999 61.8001C3.09999 61.9001 3.09999 62 3.09999 62.1C2.69999 62.3 2.49999 62.6 2.49999 63.1C2.49999 63.3 2.49999 63.6 2.69999 63.7C2.99999 63.2 3.49999 62.8001 4.19999 62.8001C4.39999 62.8001 4.69999 62.9001 4.89999 62.9001C5.09999 62.9001 5.19999 62.8001 5.39999 62.8001C5.29999 62.6001 5.19999 62.4 5.19999 62.1C5.19999 61.4 5.69999 60.8001 6.39999 60.8001C6.49999 60.8001 6.59999 60.8001 6.59999 60.8001C5.99999 61.1001 5.49999 61.7 5.69999 62.2C5.79999 62.6 6.09999 62.9001 6.59999 63C6.59999 63.2001 6.49999 63.5 6.39999 63.7C6.99999 63.7 7.49999 63.3001 7.69999 62.8001C8.39999 62.6001 8.89999 62 8.69999 61.4001C8.69999 61.2001 8.49999 61.1001 8.39999 60.9001C8.39999 60.5 8.69999 60.2 9.09999 60.2C9.39999 60.2 9.69999 60.5 9.69999 60.9001C9.69999 61.1001 9.69999 61.2001 9.49999 61.3001H11C11.0667 61.3001 11.1333 61.3001 11.2 61.3001C11.3 61.2001 11.4 61.2 11.4 61.1L12.3 59.8001C12.3 59.7001 12.4 59.7 12.4 59.6C12.5 59.6 12.6 59.6 12.6 59.6H13.7H13.6C13.5333 59.6667 13.4667 59.7334 13.4 59.8001L12.5 61.1C12.5 61.2 12.4 61.2001 12.3 61.3001C12.2333 61.3001 12.1667 61.3001 12.1 61.3001H13.8C13.8667 61.3001 13.9333 61.3001 14 61.3001C14.1 61.2001 14.2 61.2 14.2 61.1L15.2 59.6C14.5 59.2 14.2 58.5 14.2 57.6C14.2 57 14.6 56.4001 14.6 56V55.8001C14.6 55.7001 14.6 55.6 14.6 55.5C14.6 55.5 14.5 55.4001 14.5 55.3001L15.3 56.2C15.4 56.3 15.5 56.3001 15.5 56.4001C15.5 56.5 15.5 56.6 15.5 56.7V56.9001C15.4 57.2001 15 58 15.8 58.7C15.9 58.7 16 58.8001 16.1 58.9001L16.7 59.2V57.1H17.5V59.5C17.5 59.6 17.5 59.7 17.6 59.7C17.6 59.8 17.7 59.9001 17.7 59.9001L18.5 60.4001C18.6 60.5 18.7 60.5 18.8 60.5C18.8667 60.5 18.9333 60.5 19 60.5L20.5 59.8001C20.4 59.9001 20.3 59.9001 20.3 59.9001C20.2 59.9001 20.1 59.8001 20 59.8001L18.3 58.7C19.1 58 18.7 57.2001 18.7 56.9001L18.6 56.7C18.6 56.6 18.6 56.5 18.7 56.4001C18.7 56.3334 18.7333 56.2667 18.8 56.2L19.7 55.3001C19.6 55.4001 19.6 55.5 19.6 55.5C19.5 55.6 19.5 55.7001 19.5 55.8001V56C19.6 56.6 20.2 57.7001 19.7 58.3001L21.3 59.3001C21.3 59.3001 21.4 59.3001 21.5 59.3001C21.6 59.3001 21.7 59.3001 21.8 59.3001L23.3 58.6C23.2 58.7 23.1 58.7 23.1 58.7C23 58.7 22.9 58.6 22.8 58.6L21.1 57.5C21.5 56.8 21.2 55.6001 20.8 54.9001V54.8001C20.7 54.7001 20.7 54.6 20.7 54.5C20.7 54.4001 20.8 54.4001 20.8 54.3001L21.4 53.2C21.3 53.3 21.3 53.4001 21.3 53.5C21.3 53.5667 21.3333 53.6334 21.4 53.7L21.6 54.1C21.7 54.3 21.8 54.5 21.8 54.7C22.8 53.9 23 53.0001 22.4 52.3001L22.2 52.1C22.2 52 22.1 52 22.1 51.9001C22.1 51.8001 22.1 51.7 22.1 51.6L22.4 50.5C22.4 50.6 22.4 50.7 22.4 50.7C22.4 50.8 22.5 50.9001 22.5 51L23.1 51.7C24.3 53 23.6 54.6001 22.2 55.9001C22.3 56.2001 22.3 56.6001 22.3 56.9001L24.1 58C24.2 58.1 24.3 58.1 24.4 58.1C24.4 58.1 24.5 58.1 24.6 58.1L25.9 57.5C25.9 57.5 25.8 57.5 25.7 57.5C25.4 57.5 25.1 57.3001 25.1 56.9001C25.1 56.7001 25.3 56.4001 25.5 56.3001C30.5 54.8001 35.2 50.8001 38.2 50.9001C39.7 50.9001 40.9 51.8001 40.9 52.9001C40.9 53 40.9 53.2001 40.8 53.4001C40.2 55.2001 41.1 57 43.6 57.6C44 57.7 44.3 58.1 44.3 58.5C44.3 58.6 44.3 58.7001 44.3 58.8001C44.3 58.8001 44.4 58.8001 44.5 58.8001C45.1 58.8001 45.7 58.4001 46.1 57.9001C46.5 57.9001 47 57.9001 47.5 57.8001C47.5 58.0001 47.6 58.1 47.6 58.2C47.7 58.8 47.5 59.2001 47.2 59.3001C46.6 59.5001 45.9 59.3001 45.4 59.3001C44.4 59.3001 43.5 60.1 43.5 61.2C43.5 61.3 43.6 61.3001 43.6 61.4001C43.2 61.6001 43 62 43 62.4001C43 62.6001 43.1 62.8001 43.2 62.9001C43.5 62.6001 43.9 62.3 44.4 62.1C44.4 61.2 45.2 60.5 46.1 60.5C46.2 60.5 46.3 60.5 46.5 60.5C45.5 60.7001 44.8 61.5 44.8 62.4001C44.8 62.4667 44.8 62.5334 44.8 62.6C44.7 62.7 44.7 62.9 44.7 63.1C44.7 63.4 44.8 63.6 44.9 63.7C45.1 63.4 45.5 63.0001 46.1 62.8001C46.4 62.7001 46.8 62.7 47.1 62.7C47.1 62.6 47 62.4001 47 62.3001C47 61.5001 47.7 60.8001 48.5 60.8001C48.6 60.8001 48.7 60.8001 48.7 60.8001C48.2 60.9001 47.7 61.4001 47.7 62C47.7 62.4001 47.9 62.7001 48.2 62.9001V63C48.2 63.3 48.4 63.6001 48.6 63.8001C48.7 63.2001 49.2 62.8001 49.7 62.8001C50.2 62.8001 50.6 62.8 50.9 62.7C51.4 62.5 51.8 62 51.8 61.5C51.8 61.1 51.6 60.8 51.3 60.5C51.5 59.9001 51.4 58.9001 51.2 58C51.2667 58 51.3333 58 51.4 58C51.7 58 52 58.2001 52.2 58.5ZM12.6 54.1L12.8 53.7C12.8 53.6334 12.8 53.5667 12.8 53.5C12.8 53.4001 12.8 53.3 12.8 53.2L13.3 54.3001C13.3667 54.3667 13.4 54.4334 13.4 54.5C13.4 54.6 13.4 54.7001 13.4 54.8001L13.3 54.9001C13 55.6001 12.6 56.9 13 57.6C12.1 57.3 11.8 56.5 11.9 55.9001C10.3 54.4001 9.89999 52.8 11.1 51.5L11.7 50.8001C11.7 50.8001 11.8 50.7 11.8 50.6C11.8 50.5 11.8 50.4001 11.8 50.4001L12.1 51.5C12.1 51.6 12.1 51.7001 12.1 51.8001C12.1 51.8001 12 51.9001 12 52L11.8 52.2C11.2 52.9 11.3 53.9 12.3 54.7C12.4 54.5 12.5 54.3 12.6 54.1ZM14.7 45.8H14.3C13.9 45.8 13.6 45.3 13.6 44.8C13.8 45 14 45.1 14.4 45.1H16.1C16.3 45.1 16.4 45.3 16.5 45.5C16.5 45.6 16.5 45.8 16.5 46C16.4 45.9001 16.3 45.8 16.1 45.8H15.7C15.8 45.9 15.9 46.1001 15.9 46.2001C15.9 46.6001 15.6 46.9001 15.2 46.9001C14.9 46.9001 14.6 46.6001 14.6 46.2001C14.6 46.1001 14.6 45.9 14.7 45.8ZM15.2 42.7001L15.9 43.6C16 43.8 16.1 43.9001 16.3 43.9001H15.7C15.4 43.9001 15.2 43.8 15 43.6L14.3 42.7001C14.2 42.6001 14.1 42.5 13.9 42.4001H14.6C14.8 42.4001 15 42.5 15.2 42.7001ZM17.2 42.5L18.1 43.7001C18.2 43.9001 18.3 44 18.5 44.1H17.7C17.4 44.1 17.2 44 17.1 43.7001L16.4 42.7001C16.1 42.3 16 42.2001 15.7 42H16.5C16.7 42 17 42.2001 17.2 42.5ZM20.4 43.9001H19.7C19.4 43.9001 19.2 43.8 19.1 43.6L18.4 42.7001C18.2 42.6001 18.2 42.5 18 42.4001H18.7C18.9 42.4001 19.1 42.5 19.2 42.7001L19.9 43.6C20.1 43.8 20.2 43.9001 20.4 43.9001ZM20.6 44.8C20.6 45.3 20.2 45.8 19.8 45.8H19.4C19.5 45.9 19.6 46.1001 19.6 46.2001C19.6 46.6001 19.3 46.9001 18.9 46.9001C18.5 46.9001 18.2 46.6001 18.2 46.2001C18.2 46.1001 18.3 45.9 18.4 45.8H18C17.9 45.8 17.8 45.9001 17.7 46C17.7 45.8 17.6 45.6 17.7 45.5C17.7 45.3 17.9 45.1 18.1 45.1H19.8C20.1 45.1 20.4 45 20.6 44.8ZM20 48.6C19.9 48.6 19.9 48.7001 19.8 48.8001C19.8 49.5001 19.5 49.7001 19.1 49.9001C19.1 50.6001 19 51.1 18.8 51.7C19.3 52.8 18.9 53.6001 18.5 53.8001C18.1 53.9001 17.5 53.7 17.1 53.7C16.6 53.7 16.1 53.9001 15.7 53.8001C15.3 53.6001 14.9 52.8 15.4 51.7C15.2 51.1 15.1 50.6001 15.1 49.9001C14.6 49.7001 14.4 49.5001 14.3 48.8001C14.3 48.7001 14.2 48.6 14.1 48.6C12.4 48.1 12.2 45.9 13.1 45.3C13 46.3 12.9 47.6001 14.9 47.8001C14.9 49.0001 15.4 49.3001 15.9 49.3001C16.3 49.3001 16.5 49.1 16.6 49.1C17 48.9 16.7 48.6 16.6 48.5C16.4 48.2001 16.3 47.9 16.3 47.6C16.3 47.5334 16.3333 47.5 16.4 47.5H17.7C17.7667 47.5 17.8 47.5334 17.8 47.6C17.9 47.9 17.8 48.2001 17.5 48.5C17.4 48.6 17.2 48.9 17.5 49.1C17.6 49.1 17.9 49.3001 18.3 49.3001C18.8 49.3001 19.3 49.0001 19.3 47.8001C21.2 47.6001 21.2 46.3 21.1 45.3C22 45.9 21.8 48.1 20 48.6ZM18.3 52.7C18.3 52.1 17.7 51.9001 17.1 51.9001C16.5 51.9001 15.8 52.1 15.9 52.7C15.9 53.4 16.6 53.1 17.1 53.1C17.6 53.1 18.2 53.4 18.3 52.7ZM18.1 51.3001C18.2 50.8001 18.2 50.3001 18.2 49.9001L17.7 50.4001C17.7 50.2001 17.6 50.1 17.5 50C17.5 49.9001 17.4 49.8001 17.4 49.8001H17.3C17.2 49.9001 17.1 49.9001 17.1 49.9001C17 49.9001 16.9 49.9001 16.9 49.8001C16.8333 49.8001 16.8 49.8001 16.8 49.8001C16.7 49.8001 16.7 49.9001 16.6 50C16.5 50.1 16.5 50.2001 16.4 50.4001L15.9 49.9001C15.9 50.3001 16 50.8001 16.1 51.3001C16.4 51.3001 16.7 51.2 17.1 51.2C17.4 51.2 17.8 51.3001 18.1 51.3001ZM26.4 37.1C26.4667 37.1 26.5333 37.1 26.6 37.1C25.9 37.3 25.3 37.8 25.1 38.5C24.6 38.7001 24.3 39.1 24.3 39.6C24.3 39.8 24.4 40 24.5 40.2001C24.9 39.8 25.4 39.5 26 39.3C26.1 38.5 26.8 37.8 27.7 37.7001C26.9 38.1001 26.4 38.8 26.4 39.7001C26.4 40 26.5 40.2001 26.6 40.5C26.7 40 27.1 39.7001 27.7 39.7001C27.8 39.7001 27.9 39.7001 28 39.7001C28.2 39.8 28.4 39.8 28.5 39.8C29.4 39.8 30 39.2001 30 38.3C30 38.2001 30 38 30 37.9001C30.3 38 30.6 38.3 30.6 38.8C30.6 39 30.6 39.2001 30.5 39.3C30.6 39.3 30.7 39.3 30.8 39.3C31.8 39.3 32.6 38.6001 32.7 37.7001C33.2 37.4001 33.6 37 34 36.6L34.2 37.9001C34.3 37.9001 34.3 38 34.2 38.1C34.2 38.2 34.2 38.3 34.1 38.3L35.2 37.2001C35.2 37.2001 35.3 37.1 35.3 37C35.3 36.9001 35.3 36.8 35.3 36.8L35 35.2001C35 35.1001 35 35 35 35C35 34.9001 35.1 34.8 35.1 34.7001L36 33.9001C35.9 33.9001 35.9 34 35.9 34.1C35.8 34.2 35.8 34.3 35.8 34.3L36.2 35.9001C36.2 36 36.2 36.1 36.2 36.1C36.1 36.2 36.1 36.3001 36 36.4001L37 35.4001C37 35.3001 37.1 35.2 37.1 35.1C37.1 35.1 37.1 35 37.1 34.9001L36.8 33.4001C36.8 33.3001 36.8 33.2 36.8 33.1C36.8 33 36.9 32.9001 36.9 32.9001L37.8 32C37.7 32.1 37.7 32.2001 37.7 32.2001C37.6 32.3 37.6 32.4001 37.7 32.5L38 34C38 34.1 38 34.2001 38 34.3C37.9333 34.3667 37.8667 34.4334 37.8 34.5L38.8 33.5C38.9 33.5 38.9 33.4 38.9 33.3C38.9 33.2001 38.9 33.1 38.9 33L38.8 32.3C38.6 31.4 39.5 30.4 40.2 30.3C40.3 30.2 40.3 30 40.3 29.8C40.3 29 39.3 28.3 38 28.3C37.4 28.3 36.8 28.4001 36.4 28.7001C36.6 29.2001 36.6 29.7001 35 29.9001C33.7 30.1001 32.6 30.4 31.7 31.1C30.3 32.2 30.5 33.7001 29.7 34.3C30 34.4 30.5 34.4 30.9 34.3C31.2 34.2001 31.5 34.1 31.7 34C31.6 34.3 31.3 34.6001 30.8 34.7001C30.7 35.3 30.2 35.8 29.6 36C29.2 36.2001 28.8 36.2 28.4 36.1L26.9 35.6C26.7 35.6 26.5 35.6 26.3 35.6C25.1 35.6 24.2 36.4 24 37.6C23.5 37.7 23.1 38.1001 23.1 38.7001C23.1 38.9001 23.1 39.1 23.2 39.3C23.6 38.9 24.1 38.6 24.6 38.5C24.8 37.7001 25.5 37.1 26.4 37.1ZM26.5 45.9001C26.5 45.8001 26.5 45.6 26.5 45.5C26.6 45.2001 26.8 45 27.1 45C27.4 45 27.7 45.3 27.7 45.6C27.7 45.8 27.6 45.9001 27.5 46C27.6 46 27.8 46 27.9 46C28.2 46 28.5 46 28.7 45.9001C29.2 45.8001 29.5 45.4001 29.5 45C29.5 44.4001 29 44 28.5 44H28.4C28.5 43.9001 28.7 43.9001 28.8 43.9001C29.5 43.9001 30 44.4 30 45.1V45.2001C31.7 45.1001 33.6 43.6 34 43C33.5 43.1 32.9 43.2001 32.3 43.2001C31.6 43.2001 31 43.1001 30.4 42.9001C29.5 42.7001 28.7 42.6 28.1 42.6C26 42.6 24.3 43.9 24.3 45.6C24.3 47 25.4 48.2001 27 48.5C30.7 49.3 34.9 47.1001 38.5 46.4001C39.4 45.5 40.5 44.8 41.6 44.2001C41.6 44.1001 41.5 44 41.5 43.8C36.8 44.6 32.5 47 28.6 47C27.5 47 26.7 46.6001 26.5 45.9001ZM52.2 35.3C52.3 35.1 52.3 35 52.3 34.8C52.3 34.1 51.7 33.5 51 33.5H49.7C49.6 33.5 49.5 33.5 49.4 33.4001C49.3 33.4001 49.3 33.3 49.2 33.2001L48.6 32.3L48.7 32.4001C48.8 32.5 48.9 32.5 49 32.5H50.7C50.8 32.5 50.9 32.5 51 32.6C51.1 32.6 51.1 32.7001 51.2 32.7001L50.4 31.6C50.3 31.5 50.3 31.4001 50.2 31.4001C50.1 31.4001 50 31.3 49.9 31.3H48.2C48.1 31.3 48 31.3 48 31.3C47.9 31.2 47.8 31.2 47.8 31.1L47 30C47.0667 30.0667 47.1333 30.1334 47.2 30.2001C47.3 30.2001 47.4 30.2001 47.5 30.2001H49.2C49.3 30.2001 49.4 30.2 49.4 30.3C49.5 30.3 49.6 30.4 49.6 30.5L48.8 29.3C48.8 29.2 48.7 29.1 48.6 29.1C48.6 29.1 48.5 29 48.4 29H47C46.9 29 46.8 29 46.8 29C46.7 28.9 46.6 28.9 46.6 28.8L45.6 27.5C47.5 27.2001 49 26.2 49.3 24.8C49.7 23 47.9 21.2001 45.3 20.9001C44.9 20.8001 44.5 20.4 44.5 20C44.5 19.6 44.8 19.2 45.1 19.1C44.8 19 44.5 18.9001 44.2 18.9001C43 18.9001 42.1 19.7 42.1 20.8C42.1 21 42.1 21.1 42.2 21.3C40.9 21.9 39.7 22.9001 38.8 23.9001C39.8 23.7001 40.8 23.5 41.8 23.5V23.4001C41.8 22.6001 42.5 22 43.3 22C42.7 22.2001 42.5 22.7001 42.5 23C42.5 23.5 42.8 23.8 43.2 23.8C43.4 23.8 43.5 23.7 43.6 23.6C43.6 23.6 43.6 23.5001 43.6 23.4001C43.6 22.8001 44 22.3 44.6 22.3C44.6667 22.3 44.7333 22.3334 44.8 22.4001C44.4 22.5001 44.1 22.9001 44.1 23.4001C44.1 24.0001 44.6 24.5 45.2 24.5C45.3 24.5 45.4 24.5 45.4 24.5C45.4 24.4334 45.4 24.3667 45.4 24.3C45.4 23.8 45.8 23.5 46.2 23.5C46.7 23.5 47 23.8 47 24.3C47 25.3 45.9 25.4 45.2 25.1C42.9 24.5 40.8 24.2001 38.7 24.5C36.1 24.9 31.8 26.6 27.2 26.5C26.2 26.4 25.1 26.3 24 26C24.1 26.1 24.2 26.2 24.3 26.3C24.7 27 24.9 27.7 24.5 28.6C24.5 27.6 23.7 26.8 22.9 26.3C22.7 26.1 22.5 25.9 22.6 25.6L22.8 24.4001C22.8 24.5001 22.8 24.6 22.8 24.7001C22.8 24.8001 22.9 24.8001 23 24.9001L23.4 25.3C23.6 24.1 23.3 23 22.6 22C22.9 21.2001 22.9 20.3001 22.7 19.4001C22.6 20.1001 22.3 20.4 22 20.5C21.5 20.9 21.4 21.5001 21.7 21.9001C21.2 21.6001 20.6 20.8 20.9 20.3C21.3 19.7 22.4 20 22.6 19C21.9 18.8 21.1 19 20.9 19C20.5 18.5 19.9 18.3 19.2 18.3C18.7 17.8 17.9 17.6 17.1 17.7001C16.2 17.6 15.5 17.8 14.9 18.3C14.2 18.3 13.7 18.5 13.2 19C13 19 12.3 18.8 11.6 19C11.7 20 12.8 19.7 13.2 20.3C13.6 20.8 12.9 21.6001 12.5 21.9001C12.8 21.5001 12.7 20.9 12.1 20.5C11.8 20.4 11.5 20.1001 11.4 19.4001C11.2 20.3001 11.2 21.2001 11.6 22C10.9 23 10.6 24.1 10.8 25.3L11.2 24.9001C11.2667 24.8334 11.3 24.7667 11.3 24.7001C11.4 24.6 11.4 24.5001 11.3 24.4001L11.5 25.6C11.6 25.9 11.5 26.1 11.2 26.3C10.5 26.8 9.69999 27.6 9.69999 28.6C9.29999 27.7 9.39999 27 9.89999 26.3C8.49999 25.6 7.49999 24.4001 7.29999 24.2001C6.89999 23.7001 6.99999 23.1 7.29999 22.6C7.99999 21.6 8.19999 20.5 7.29999 19.8C7.29999 19.7334 7.29999 19.6667 7.29999 19.6C7.29999 18.9 6.89999 18.4001 6.19999 18.2001C6.29999 18.4001 6.39999 18.6001 6.39999 18.9001C6.39999 19.1001 6.29999 19.4 6.19999 19.6C6.29999 19.8 6.39999 20 6.39999 20.2001C6.39999 20.5 6.19999 20.7001 5.99999 20.9001C5.99999 20.8001 6.09999 20.7 6.09999 20.6C6.09999 19.9 5.59999 19.3001 5.09999 19.2001C4.99999 18.7001 4.49999 18.3 3.99999 18.3C3.69999 18.3 3.39999 18.4 3.19999 18.6C3.59999 18.7 3.99999 19.0001 3.99999 19.4001C3.79999 19.5001 3.59999 19.7001 3.49999 20H3.59999C4.29999 20 4.79999 20.5 4.79999 21.3C4.79999 21.3 4.79999 21.4 4.79999 21.5C4.79999 21.2001 4.59999 20.9001 4.39999 20.7001C3.99999 20.3001 3.49999 20.3 2.89999 20.5C2.69999 20.2001 2.39999 20 2.09999 20C1.69999 20 1.39999 20.3 1.19999 20.6C1.59999 20.6 1.89999 20.8 2.09999 21.1C1.59999 21.8 1.49999 22.8 2.09999 23.3C2.49999 23.7 3.09999 23.8 3.59999 23.6H3.69999C3.89999 23.6 3.99999 23.7001 3.99999 23.9001C3.99999 24.1001 3.89999 24.3 3.69999 24.3C3.59999 24.3 3.49999 24.2001 3.49999 24.2001C3.29999 24.1 3.19999 24 2.99999 24C2.59999 24 2.19999 24.4 2.19999 24.8V24.9001C2.19999 24.9001 2.09999 24.9001 1.99999 24.9001C1.79999 24.9001 1.59999 24.8001 1.49999 24.7001C1.49999 24.7667 1.49999 24.8334 1.49999 24.9001C1.49999 25.5001 1.89999 25.9001 2.39999 25.9001C2.59999 26.5001 3.19999 26.9001 3.79999 26.9001C4.19999 26.9001 4.49999 26.8 4.79999 26.6C4.89999 26.6 4.99999 26.5 5.09999 26.5C5.49999 26.5 5.79999 26.8001 5.79999 27.2001C5.79999 27.5 5.59999 27.8001 5.29999 27.9001L4.79999 28C4.69999 28 4.59999 28 4.49999 28C4.39999 28 4.39999 27.9001 4.29999 27.9001L5.49999 29C5.59999 29.1 5.69999 29.1 5.69999 29.1C5.79999 29.2 5.89999 29.2001 5.99999 29.2001L6.99999 28.9001C7.09999 28.9001 7.19999 28.9001 7.29999 28.9001C7.29999 29.0001 7.39999 29 7.49999 29.1L8.29999 29.9001C8.29999 29.8001 8.19999 29.8001 8.09999 29.7001C7.99999 29.7001 7.89999 29.7001 7.79999 29.7001L6.79999 30C6.73332 30 6.66666 29.9667 6.59999 29.9001C6.49999 29.9001 6.39999 29.9 6.39999 29.8L7.49999 30.9001C7.49999 30.9001 7.59999 31 7.69999 31C7.79999 31 7.89999 31 7.99999 31L8.99999 30.8C9.06666 30.8 9.13332 30.8 9.19999 30.8C9.29999 30.8 9.39999 30.9001 9.39999 30.9001L10.3 31.7001C10.2 31.7001 10.1 31.6 10.1 31.6C9.99999 31.6 9.89999 31.6 9.79999 31.6L8.79999 31.8C8.69999 31.8 8.59999 31.8 8.49999 31.8C8.49999 31.8 8.39999 31.7001 8.29999 31.7001L9.39999 32.8C9.49999 32.8 9.59999 32.9001 9.69999 32.9001C9.76666 32.9001 9.83332 32.9001 9.89999 32.9001L11.1 32.6C9.99999 33.3 8.69999 34 7.39999 34.9001C6.59999 35.4001 5.69999 35.5 4.69999 35.1C4.19999 34.9 3.59999 34.9001 3.29999 34.9001C2.79999 35 2.39999 35.3 2.19999 35.7001C2.29999 35.6001 2.49999 35.6 2.79999 35.6C3.19999 35.6 3.59999 35.8 3.89999 36C3.39999 35.8 2.89999 35.8 2.29999 36C1.29999 36.4001 0.699989 37.3 0.999989 38.2001C0.599989 38.3 0.299988 38.7 0.299988 39.1C0.299988 39.4 0.399989 39.6 0.599989 39.8C0.699989 39.3 1.09999 39 1.59999 39C1.79999 39.1 1.99999 39.2001 2.19999 39.3C2.29999 39.1 2.39999 39 2.49999 38.9001C2.49999 38.9001 2.49999 38.8 2.49999 38.7001C2.49999 37.8 3.19999 37 4.09999 37C4.19999 37 4.29999 37.1 4.29999 37.1C3.59999 37.2 3.09999 37.9001 3.09999 38.7001C3.09999 38.8 3.09999 38.9001 3.09999 38.9001C2.69999 39.1001 2.49999 39.5 2.49999 39.9001C2.49999 40.2001 2.49999 40.4 2.69999 40.6C2.99999 40 3.49999 39.6 4.19999 39.6C4.39999 39.7 4.69999 39.7001 4.89999 39.7001C5.09999 39.7001 5.19999 39.7 5.39999 39.6C5.29999 39.4 5.19999 39.2001 5.19999 38.9001C5.19999 38.2001 5.69999 37.7001 6.39999 37.7001C6.49999 37.7001 6.59999 37.7001 6.59999 37.7001C5.99999 38 5.49999 38.5 5.69999 39.1C5.79999 39.4 6.09999 39.7001 6.59999 39.8C6.59999 40.1 6.49999 40.3 6.39999 40.6C6.99999 40.5 7.49999 40.2001 7.69999 39.7001C8.39999 39.4001 8.89999 38.8 8.69999 38.2001C8.69999 38.1001 8.49999 37.9 8.39999 37.8V37.7001C8.39999 37.3 8.69999 37 9.09999 37C9.39999 37 9.69999 37.3 9.69999 37.7001C9.69999 37.9001 9.69999 38 9.49999 38.2001H11C11.1 38.2001 11.1 38.1 11.2 38.1C11.3 38.1 11.4 38 11.4 37.9001L12.3 36.6C12.3 36.5 12.4 36.5 12.4 36.5C12.5 36.4001 12.6 36.4001 12.6 36.4001H13.7C13.7 36.4001 13.6 36.4001 13.6 36.5C13.5333 36.5 13.4667 36.5334 13.4 36.6L12.5 37.9001C12.5 38 12.4 38.1 12.3 38.1C12.2 38.1 12.2 38.2001 12.1 38.2001H13.8C13.9 38.2001 13.9 38.1 14 38.1C14.1 38.1 14.2 38 14.2 37.9001L15.2 36.4001C14.5 36 14.2 35.4001 14.2 34.4001C14.2 33.9001 14.6 33.2001 14.6 32.8V32.6C14.6 32.5 14.6 32.4001 14.6 32.4001C14.6 32.3001 14.5 32.2001 14.5 32.2001L15.3 33C15.4 33.1 15.5 33.2001 15.5 33.3C15.5 33.3 15.5 33.4001 15.5 33.5V33.7001C15.4 34.1001 15 34.8 15.8 35.5C15.9 35.6 16 35.6001 16.1 35.7001L16.7 36.1V33.9001H17.5V36.3C17.5 36.4 17.5 36.5 17.6 36.6L17.7 36.7001L18.5 37.3C18.6 37.3 18.7 37.3 18.8 37.3C18.8667 37.3 18.9333 37.3 19 37.3L20.5 36.7001C20.4 36.7001 20.3 36.7001 20.3 36.7001C20.2 36.7001 20.1 36.7 20 36.6L18.3 35.5C19.1 34.8 18.7 34.1001 18.7 33.7001L18.6 33.5C18.6 33.4001 18.6 33.3 18.7 33.3C18.7 33.2001 18.7 33.1 18.8 33L19.7 32.2001C19.6 32.2001 19.6 32.3001 19.6 32.4001C19.5 32.4001 19.5 32.5 19.5 32.6V32.8C19.6 33.4 20.2 34.5 19.7 35.1L21.3 36.1C21.3 36.1 21.4 36.2001 21.5 36.2001C21.6 36.2001 21.7 36.2 21.8 36.1L23.3 35.5C23.2 35.5 23.1 35.5 23.1 35.5C23 35.5 22.9 35.5 22.8 35.4001L21.1 34.3C21.5 33.6 21.2 32.4001 20.8 31.7001V31.6C20.7 31.5 20.7 31.4001 20.7 31.4001C20.7 31.3001 20.8 31.2 20.8 31.1L21.4 30.1C21.3 30.1 21.3 30.2 21.3 30.3C21.3 30.4 21.3 30.5 21.4 30.6L21.6 31C21.7 31.2001 21.8 31.3 21.8 31.5C22.8 30.7001 23 29.9001 22.4 29.2001L22.2 28.9001C22.2 28.9001 22.1 28.8001 22.1 28.7001C22.1 28.6 22.1 28.5 22.1 28.5L22.4 27.3C22.4 27.4 22.4 27.5 22.4 27.6C22.4 27.6 22.5 27.7 22.5 27.8L23.1 28.5C24.3 29.8 23.6 31.5 22.2 32.7001C22.3 33 22.3 33.4001 22.3 33.7001L24.1 34.9001C24.2 34.9001 24.3 34.9001 24.4 34.9001C24.4 34.9001 24.5 34.9001 24.6 34.9001L25.9 34.3C25.9 34.4 25.8 34.4001 25.7 34.4001C25.4 34.4001 25.1 34.1 25.1 33.8C25.1 33.5 25.3 33.2001 25.5 33.2001C30.5 31.6 35.2 27.7001 38.2 27.7001C39.7 27.7001 40.9 28.6 40.9 29.7001C40.9 29.9001 40.9 30.1 40.8 30.2001C40.2 32 41.1 33.8 43.6 34.5C44 34.6 44.3 34.9001 44.3 35.4001C44.3 35.4001 44.3 35.5 44.3 35.6C44.3 35.6 44.4 35.6 44.5 35.6C45.1 35.6 45.7 35.3 46.1 34.7001C46.5 34.7001 47 34.7001 47.5 34.7001C47.5 34.8 47.6 34.9 47.6 35.1C47.7 35.6 47.5 36.1001 47.2 36.2001C46.6 36.3 45.9 36.1 45.4 36.1C44.4 36.1 43.5 37 43.5 38C43.5 38.1 43.6 38.2001 43.6 38.2001C43.2 38.4001 43 38.8 43 39.2001C43 39.4001 43.1 39.6 43.2 39.8C43.5 39.4 43.9 39.1001 44.4 38.9001C44.4 38 45.2 37.3 46.1 37.3C46.2 37.3 46.3 37.3001 46.5 37.4001C45.5 37.5 44.8 38.3 44.8 39.2001C44.8 39.3 44.8 39.4001 44.8 39.4001C44.7 39.6001 44.7 39.8 44.7 40C44.7 40.2001 44.8 40.4 44.9 40.6C45.1 40.2 45.5 39.8 46.1 39.6C46.4 39.5 46.8 39.5 47.1 39.6C47.1 39.4 47 39.3 47 39.1C47 38.3 47.7 37.6 48.5 37.6C48.6 37.6 48.7 37.6 48.7 37.6C48.2 37.7 47.7 38.2001 47.7 38.8C47.7 39.2001 47.9 39.5 48.2 39.7001C48.2 39.7667 48.2 39.8 48.2 39.8C48.2 40.1 48.4 40.4 48.6 40.6C48.7 40.1 49.2 39.7001 49.7 39.7001C50.2 39.7001 50.6 39.6 50.9 39.5C51.4 39.3 51.8 38.9 51.8 38.3C51.8 37.9 51.6 37.6001 51.3 37.4001C51.5 36.7001 51.4 35.7001 51.2 34.8C51.2667 34.8 51.3333 34.8 51.4 34.8C51.7 34.8 52 35 52.2 35.3ZM12.6 31L12.8 30.6C12.8 30.5 12.8 30.4 12.8 30.3C12.8 30.2 12.8 30.1 12.8 30.1L13.3 31.1C13.4 31.2 13.4 31.3001 13.4 31.4001C13.4 31.4001 13.4 31.5 13.4 31.6L13.3 31.7001C13 32.4001 12.6 33.7001 13 34.4001C12.1 34.1001 11.8 33.4001 11.9 32.7001C10.3 31.2001 9.89999 29.7001 11.1 28.4001L11.7 27.7001C11.7 27.6 11.8 27.5001 11.8 27.4001C11.8 27.4001 11.8 27.3001 11.8 27.2001L12.1 28.3C12.1 28.4 12.1 28.5 12.1 28.6C12.1 28.7 12 28.8 12 28.8L11.8 29C11.2 29.7001 11.3 30.7001 12.3 31.5C12.4 31.3 12.5 31.2001 12.6 31ZM14.7 22.7001H14.3C13.9 22.7001 13.6 22.1 13.6 21.6C13.8 21.9 14 22 14.4 22H16.1C16.3 22 16.4 22.1 16.5 22.3C16.5 22.4 16.5 22.7001 16.5 22.9001C16.4 22.7001 16.3 22.7001 16.1 22.7001H15.7C15.8 22.8001 15.9 22.9 15.9 23.1C15.9 23.4 15.6 23.7001 15.2 23.7001C14.9 23.7001 14.6 23.4 14.6 23.1C14.6 22.9 14.6 22.8001 14.7 22.7001ZM15.2 19.5L15.9 20.4001C16 20.6001 16.1 20.8 16.3 20.8H15.7C15.4 20.8 15.2 20.7001 15 20.5L14.3 19.5C14.2 19.4 14.1 19.3001 13.9 19.2001H14.6C14.8 19.2001 15 19.3 15.2 19.5ZM17.2 19.3L18.1 20.5C18.2 20.7001 18.3 20.9001 18.5 20.9001H17.7C17.4 20.9001 17.2 20.8 17.1 20.6L16.4 19.5C16.1 19.1 16 19.0001 15.7 18.9001H16.5C16.7 18.9001 17 19.1 17.2 19.3ZM20.4 20.8H19.7C19.4 20.8 19.2 20.7001 19.1 20.5L18.4 19.5C18.2 19.4 18.2 19.3001 18 19.2001H18.7C18.9 19.2001 19.1 19.3 19.2 19.5L19.9 20.4001C20.1 20.6001 20.2 20.8 20.4 20.8ZM20.6 21.6C20.6 22.1 20.2 22.7001 19.8 22.7001H19.4C19.5 22.8001 19.6 22.9 19.6 23.1C19.6 23.4 19.3 23.7001 18.9 23.7001C18.5 23.7001 18.2 23.4 18.2 23.1C18.2 22.9 18.3 22.8001 18.4 22.7001H18C17.9 22.7001 17.8 22.7001 17.7 22.9001C17.7 22.7001 17.6 22.4 17.7 22.3C17.7 22.1 17.9 22 18.1 22H19.8C20.1 22 20.4 21.9 20.6 21.6ZM20 25.4001C19.9 25.4001 19.9 25.5 19.8 25.6C19.8 26.3 19.5 26.6 19.1 26.7001C19.1 27.4001 19 27.9 18.8 28.6C19.3 29.7 18.9 30.4 18.5 30.6C18.1 30.8 17.5 30.5 17.1 30.5C16.6 30.5 16.1 30.8 15.7 30.6C15.3 30.4 14.9 29.7 15.4 28.6C15.2 27.9 15.1 27.4001 15.1 26.7001C14.6 26.6 14.4 26.3 14.3 25.6C14.3 25.5 14.2 25.4001 14.1 25.4001C12.4 24.9001 12.2 22.7 13.1 22.1C13 23.1 12.9 24.5 14.9 24.6C14.9 25.8 15.4 26.1 15.9 26.1C16.3 26.1 16.5 26.0001 16.6 25.9001C17 25.7001 16.7 25.4 16.6 25.3C16.4 25.1 16.3 24.7001 16.3 24.4001C16.3 24.4001 16.3 24.3 16.4 24.3H17.7C17.8 24.3 17.8 24.4001 17.8 24.4001C17.9 24.7001 17.8 25.1 17.5 25.3C17.4 25.4 17.2 25.7001 17.5 25.9001C17.6 26.0001 17.9 26.1 18.3 26.1C18.8 26.1 19.3 25.8 19.3 24.6C21.2 24.5 21.2 23.1 21.1 22.1C22 22.7 21.8 24.9001 20 25.4001ZM18.3 29.6C18.3 29 17.7 28.8 17.1 28.8C16.5 28.8 15.8 29 15.9 29.6C15.9 30.3 16.6 29.9001 17.1 29.9001C17.6 29.9001 18.2 30.3 18.3 29.6ZM18.1 28.2001C18.2 27.7001 18.2 27.2001 18.2 26.7001L17.7 27.2001C17.7 27 17.6 26.9 17.5 26.8C17.5 26.7 17.4 26.6 17.4 26.6L17.3 26.7001C17.2 26.7001 17.1 26.7001 17.1 26.7001C17 26.7001 16.9 26.7001 16.9 26.7001C16.8 26.7001 16.8 26.6 16.8 26.6C16.7 26.6 16.7 26.7 16.6 26.8C16.5 26.9 16.5 27 16.4 27.2001L15.9 26.7001C15.9 27.2001 16 27.7001 16.1 28.2001C16.4 28.1 16.7 28.1 17.1 28.1C17.4 28.1 17.8 28.1 18.1 28.2001ZM38.5 23.2001C39.4 22.3001 40.5 21.6 41.6 21.1C41.6 20.9 41.5 20.8 41.5 20.6C36.8 21.4 32.5 23.9 28.6 23.8C27.5 23.8 26.7 23.4001 26.5 22.7001C26.5 22.6 26.5 22.5 26.5 22.3C26.6 22.1 26.8 21.9001 27.1 21.9001C27.4 21.9001 27.7 22.1001 27.7 22.4001C27.7 22.6001 27.6 22.7001 27.5 22.9001C27.6 22.9001 27.8 22.9001 27.9 22.9001C28.2 22.9001 28.5 22.8 28.7 22.8C29.2 22.7 29.5 22.3 29.5 21.8C29.5 21.3 29 20.8 28.5 20.8H28.4C28.5 20.8 28.7 20.7001 28.8 20.7001C29.5 20.7001 30 21.3001 30 21.9001V22C31.7 21.9 33.6 20.4 34 19.8C33.5 19.9 32.9 20 32.3 20C31.6 20 31 19.9001 30.4 19.7001C29.5 19.5 28.7 19.4001 28.1 19.4001C26 19.4001 24.3 20.8001 24.3 22.4001C24.3 23.8001 25.4 25.1001 27 25.4001C30.7 26.1001 34.9 24 38.5 23.2001ZM23.1 85C23.1 85.2 23.1 85.4001 23.2 85.6001C23.6 85.2001 24.1 84.9 24.6 84.8C24.8 84 25.5 83.4001 26.4 83.4001C26.4667 83.4001 26.5333 83.4001 26.6 83.4001C25.9 83.6001 25.3 84.2001 25.1 84.9001C24.6 85.0001 24.3 85.4001 24.3 85.9001C24.3 86.2001 24.4 86.4001 24.5 86.6001C24.9 86.1001 25.4 85.8 26 85.6001C26.1 84.8 26.8 84.2001 27.7 84.1001C26.9 84.4001 26.4 85.1 26.4 86C26.4 86.3 26.5 86.6001 26.6 86.8C26.7 86.4 27.1 86 27.7 86C27.8 86 27.9 86.0001 28 86.1001C28.2 86.1001 28.4 86.2 28.5 86.2C29.4 86.2 30 85.5 30 84.7C30 84.5 30 84.4 30 84.2C30.3 84.3 30.6 84.7001 30.6 85.1001C30.6 85.3 30.6 85.5001 30.5 85.6001C30.6 85.7001 30.7 85.7 30.8 85.7C31.8 85.7 32.6 84.9 32.7 84C33.2 83.7 33.6 83.4001 34 82.9001L34.2 84.2C34.3 84.3 34.3 84.4001 34.2 84.4001C34.2 84.5001 34.2 84.6 34.1 84.7L35.2 83.6001C35.2 83.5001 35.3 83.4 35.3 83.3C35.3 83.3 35.3 83.2001 35.3 83.1001L35 81.5C35 81.5 35 81.4 35 81.3C35 81.2001 35.1 81.1001 35.1 81.1001L36 80.2C35.9333 80.2667 35.9 80.3334 35.9 80.4001C35.8 80.5001 35.8 80.6 35.8 80.7L36.2 82.2C36.2 82.3 36.2 82.4 36.2 82.5C36.1333 82.5667 36.0667 82.6334 36 82.7L37 81.7C37 81.6 37.1 81.6 37.1 81.5C37.1 81.4 37.1 81.3 37.1 81.2L36.8 79.7C36.8 79.6 36.8 79.5001 36.8 79.4001C36.8 79.4001 36.9 79.3 36.9 79.2L37.8 78.4001C37.7 78.4001 37.7 78.5001 37.7 78.6001C37.6333 78.6667 37.6333 78.7334 37.7 78.8L38 80.4001C38 80.5001 38 80.6001 38 80.6001C37.9 80.7001 37.9 80.8 37.8 80.8L38.8 79.9001C38.9 79.8001 38.9 79.7001 38.9 79.6001C38.9 79.6001 38.9 79.5001 38.9 79.4001L38.8 78.6001C38.6 77.8 39.5 76.8 40.2 76.7C40.3 76.5 40.3 76.3 40.3 76.2C40.3 75.3 39.3 74.6001 38 74.6001C37.4 74.6001 36.8 74.8 36.4 75C36.6 75.5 36.6 76 35 76.3C33.7 76.4 32.6 76.7001 31.7 77.4001C30.3 78.6001 30.5 80.1 29.7 80.7C30 80.7 30.5 80.7001 30.9 80.6001C31.2 80.6001 31.5 80.5001 31.7 80.4001C31.6 80.6001 31.3 80.9001 30.8 81.1001C30.7 81.6001 30.2 82.1001 29.6 82.4001C29.2 82.5001 28.8 82.5001 28.4 82.4001L26.9 82C26.7 81.9 26.5 81.9001 26.3 81.9001C25.1 81.9001 24.2 82.8001 24 83.9001C23.5 84.0001 23.1 84.5 23.1 85Z" fill="#0078C1"/>
<path d="M254 69.6V58.5H251.5L249 67.2H248.9L246.4 58.5H243.9V69.6H245.9V62.3L248.3 69.6H249.6L252 62.3V69.6H254ZM240 68.7C240.8 68 241.2 67 241.2 65.8V58.5H239.3V65.8C239.3 66.6 239.1 67.2 238.7 67.6C238.3 68.1 237.8 68.3 237.1 68.3C236.4 68.3 235.9 68.1 235.5 67.6C235.1 67.2 234.9 66.6 234.9 65.8V58.5H233V65.8C233 67 233.4 68 234.1 68.7C234.9 69.4 235.9 69.7 237.1 69.7C238.3 69.7 239.3 69.4 240 68.7ZM228.3 69.6H230.3V58.5H228.3V69.6ZM223.4 69.6H225.4V69.4C225.3 69.3 225.3 69.1 225.2 68.8C225.2 68.5 225.2 68.2 225.2 68V66.9C225.2 66.3 225.1 65.7 224.8 65.3C224.5 64.8 224.1 64.5 223.5 64.3C224 64.1 224.4 63.7 224.7 63.3C225 62.9 225.1 62.4 225.1 61.8C225.1 60.7 224.8 59.9 224.2 59.4C223.6 58.8 222.7 58.5 221.5 58.5H217.8V69.6H219.8V65.1H221.7C222.2 65.1 222.6 65.3 222.9 65.6C223.1 65.9 223.3 66.4 223.3 66.9V67.9C223.3 68.3 223.3 68.6 223.3 68.9C223.3 69.2 223.4 69.5 223.4 69.6ZM223.2 61.8C223.2 62.4 223.1 62.9 222.8 63.2C222.5 63.5 222.1 63.6 221.5 63.6H219.8V60H221.5C222.1 60 222.5 60.2 222.8 60.5C223.1 60.8 223.2 61.3 223.2 61.8ZM208.5 69.6H215.2V68.1H210.5V64.6H214.5V63.1H210.5V60H215.2V58.5H208.5V69.6ZM199.2 69.6H205.9V68.1H201.2V64.6H205.2V63.1H201.2V60H205.9V58.5H199.2V69.6ZM194.5 60H197.4V58.5H189.8V60H192.6V69.6H194.5V60ZM183.8 62.5C183.5 62.2 183.4 61.9 183.4 61.4C183.4 61 183.5 60.6 183.8 60.3C184.1 60 184.5 59.8 185.1 59.8C185.7 59.8 186.1 60 186.4 60.4C186.7 60.7 186.8 61.2 186.8 61.8H188.7V61.7C188.7 60.7 188.4 59.8 187.8 59.3C187.1 58.7 186.2 58.4 185.1 58.4C184 58.4 183.1 58.7 182.4 59.2C181.8 59.8 181.4 60.5 181.4 61.4C181.4 62.4 181.7 63.1 182.3 63.6C182.8 64 183.7 64.4 184.9 64.8C185.7 65 186.2 65.3 186.5 65.6C186.8 65.9 186.9 66.2 186.9 66.7C186.9 67.2 186.8 67.5 186.5 67.8C186.1 68.1 185.7 68.3 185 68.3C184.4 68.3 184 68.1 183.6 67.8C183.2 67.5 183 67 183 66.3H181.2L181.1 66.4C181.1 67.5 181.5 68.4 182.2 68.9C182.9 69.5 183.9 69.7 185 69.7C186.2 69.7 187.1 69.5 187.8 68.9C188.5 68.4 188.9 67.6 188.9 66.7C188.9 65.7 188.6 65 188 64.5C187.5 64.1 186.6 63.6 185.5 63.3C184.6 63 184 62.8 183.8 62.5ZM180.5 48.8H182.5L178.8 37.7H176.8L173.1 48.8H175.1L175.9 46.3H179.7L180.5 48.8ZM179.2 44.8H176.4L177.7 40.4H177.8L179.2 44.8ZM171.6 58.5V66.2H171.5L167.3 58.5H165.4V69.6H167.3V61.9L171.6 69.6H173.5V58.5H171.6ZM170.3 48C170.9 47.4 171.2 46.5 171.2 45.4V37.7H169.3V45.4C169.3 46 169.1 46.5 168.9 46.9C168.6 47.3 168.2 47.5 167.8 47.5C167.3 47.5 166.9 47.3 166.7 47C166.4 46.7 166.2 46.2 166.2 45.6H164.3C164.3 46.7 164.6 47.5 165.2 48.1C165.9 48.7 166.7 49 167.8 49C168.8 49 169.6 48.6 170.3 48ZM160.6 69.6H162.5V58.5H160.6V69.6ZM153.9 43.7H158.1V42.2H153.9V43.7ZM155.3 58.5L152.7 67.2H152.6L150.1 58.5H147.6V69.6H149.6V62.3L152 69.6H153.3L155.7 62.3V69.6H157.7V58.5H155.3ZM146.9 41.7C146.6 41.5 146.5 41.1 146.5 40.6C146.5 40.2 146.6 39.8 146.9 39.5C147.2 39.2 147.6 39.1 148.2 39.1C148.8 39.1 149.2 39.2 149.5 39.6C149.8 39.9 149.9 40.4 149.9 41H151.8V40.9C151.8 39.9 151.5 39.1 150.9 38.5C150.2 37.9 149.3 37.6 148.2 37.6C147.1 37.6 146.2 37.9 145.5 38.4C144.9 39 144.6 39.7 144.6 40.7C144.6 41.6 144.8 42.3 145.4 42.8C145.9 43.3 146.8 43.7 148 44C148.8 44.3 149.3 44.5 149.6 44.8C149.9 45.1 150.1 45.5 150.1 45.9C150.1 46.4 149.9 46.8 149.6 47.1C149.3 47.4 148.8 47.5 148.1 47.5C147.6 47.5 147.1 47.4 146.7 47C146.3 46.7 146.1 46.2 146.1 45.5H144.3V45.6C144.2 46.7 144.6 47.6 145.3 48.1C146 48.7 147 49 148.1 49C149.3 49 150.3 48.7 150.9 48.1C151.6 47.6 152 46.9 152 45.9C152 45 151.7 44.3 151.2 43.8C150.6 43.3 149.8 42.9 148.6 42.5C147.7 42.3 147.2 42 146.9 41.7ZM145.1 61.7C145.1 60.7 144.8 59.8 144.1 59.3C143.5 58.7 142.6 58.4 141.5 58.4C140.3 58.4 139.5 58.7 138.8 59.2C138.2 59.8 137.8 60.5 137.8 61.4C137.8 62.4 138.1 63.1 138.6 63.6C139.2 64 140.1 64.4 141.3 64.8C142.1 65 142.6 65.3 142.9 65.6C143.2 65.9 143.3 66.2 143.3 66.7C143.3 67.2 143.2 67.5 142.9 67.8C142.5 68.1 142.1 68.3 141.4 68.3C140.8 68.3 140.3 68.1 140 67.8C139.6 67.5 139.4 67 139.4 66.3H137.6L137.5 66.4C137.5 67.5 137.8 68.4 138.6 68.9C139.3 69.5 140.2 69.7 141.4 69.7C142.6 69.7 143.5 69.5 144.2 68.9C144.9 68.4 145.3 67.6 145.3 66.7C145.3 65.7 145 65 144.4 64.5C143.9 64.1 143 63.6 141.9 63.3C141 63 140.4 62.8 140.2 62.5C139.9 62.2 139.7 61.9 139.7 61.4C139.7 61 139.9 60.6 140.2 60.3C140.4 60 140.9 59.8 141.5 59.8C142 59.8 142.5 60 142.8 60.4C143.1 60.7 143.2 61.2 143.2 61.8H145.1V61.7ZM140.8 47.9C141.6 47.2 142 46.2 142 45V37.7H140V45C140 45.8 139.9 46.4 139.5 46.8C139.1 47.3 138.5 47.5 137.9 47.5C137.2 47.5 136.7 47.3 136.3 46.8C135.9 46.4 135.7 45.8 135.7 45V37.7H133.8V45C133.8 46.2 134.2 47.2 134.9 47.9C135.7 48.6 136.7 49 137.9 49C139.1 49 140.1 48.6 140.8 47.9ZM133.3 58.5V65.8C133.3 66.6 133.1 67.2 132.7 67.6C132.3 68.1 131.8 68.3 131.1 68.3C130.5 68.3 129.9 68.1 129.6 67.6C129.2 67.2 129 66.6 129 65.8V58.5H127V65.8C127 67 127.4 68 128.2 68.7C128.9 69.4 129.9 69.7 131.1 69.7C132.4 69.7 133.4 69.4 134.1 68.7C134.9 68 135.2 67 135.2 65.8V58.5H133.3ZM130.2 47.5C131 46.7 131.4 45.6 131.4 44.3V42.3C131.4 41 131 39.9 130.2 39C129.4 38.2 128.4 37.7 127.3 37.7H123.8V48.8H127.3C128.4 48.8 129.4 48.4 130.2 47.5ZM129.4 44.3C129.4 45.2 129.2 45.9 128.8 46.5C128.4 47.1 127.9 47.3 127.3 47.3H125.7V39.2H127.3C127.9 39.2 128.4 39.5 128.8 40.1C129.2 40.7 129.4 41.4 129.4 42.3V44.3ZM124.6 63.1C124.6 61.7 124.2 60.6 123.4 59.8C122.7 58.9 121.7 58.5 120.5 58.5H117V69.6H120.5C121.7 69.6 122.7 69.2 123.4 68.3C124.2 67.5 124.6 66.4 124.6 65.1V63.1ZM122.7 65C122.7 65.9 122.5 66.7 122.1 67.3C121.7 67.8 121.2 68.1 120.5 68.1H118.9V60H120.5C121.2 60 121.7 60.3 122.1 60.9C122.5 61.4 122.7 62.2 122.7 63V65ZM119 48.8H120.9V37.7H119V48.8ZM114.4 48.8H116.4V48.6C116.3 48.5 116.3 48.3 116.3 48C116.2 47.7 116.2 47.5 116.2 47.2V46.2C116.2 45.5 116.1 44.9 115.8 44.5C115.6 44 115.1 43.7 114.5 43.5C115.1 43.3 115.5 42.9 115.7 42.5C116 42.1 116.2 41.6 116.2 41C116.2 40 115.8 39.2 115.2 38.6C114.6 38 113.7 37.7 112.6 37.7H108.9V48.8H110.8V44.3H112.7C113.2 44.3 113.6 44.5 113.9 44.8C114.2 45.1 114.3 45.6 114.3 46.2V47.2C114.3 47.5 114.3 47.8 114.3 48.1C114.3 48.5 114.4 48.7 114.4 48.8ZM114.2 41.1C114.2 41.6 114.1 42.1 113.8 42.4C113.6 42.7 113.1 42.9 112.6 42.9H110.8V39.2H112.6C113.1 39.2 113.5 39.4 113.8 39.7C114.1 40 114.2 40.5 114.2 41.1ZM105.1 48.8H107.1L103.4 37.7H101.4L97.7 48.8H99.7L100.5 46.3H104.3L105.1 48.8ZM103.8 44.8H101L102.4 40.4L103.8 44.8ZM94.2 48.8H96.1V35H94.2V41.2H88.9V35H86.9V48.8H88.9V42.7H94.2V48.8ZM95.9 55.8H86.9V57.2H90.5V69.6H92.4V57.2H95.9V55.8ZM104.6 58.5H97.9V69.6H104.6V68.1H99.8V64.6H103.9V63.1H99.8V60H104.6V58.5ZM109.6 58.5L105.9 69.6H107.9L108.7 67.1H112.4L113.2 69.6H115.2L111.6 58.5H109.6ZM109.1 65.6L110.5 61.2H110.6L112 65.6H109.1ZM178.7 58.5H176.8V69.6H178.7V58.5Z" fill="#231F20"/>
</svg>
