<svg width="230" height="68" viewBox="0 0 230 68" fill="none" xmlns="http://www.w3.org/2000/svg">
<path d="M225 30.876H223.426V38.0681H224.672V33.3209L224.71 33.315L226.259 38.0681H227.106L228.649 33.3456L228.686 33.3515V38.0681H229.938V30.876H228.371L226.697 36.531H226.661L224.999 30.876H225ZM220.388 30.876V35.5832C220.388 36.1004 220.262 36.5034 220.008 36.7911C219.755 37.0788 219.411 37.2227 218.975 37.2227C218.542 37.2227 218.198 37.0783 217.943 36.7911C217.687 36.5034 217.56 36.1004 217.56 35.5832V30.876H216.313V35.593C216.313 36.4039 216.558 37.036 217.048 37.4917C217.537 37.9459 218.179 38.173 218.974 38.173C219.768 38.173 220.41 37.9459 220.9 37.4917C221.389 37.0365 221.634 36.4044 221.634 35.593V30.876H220.388H220.388ZM214.53 30.876H213.284V38.0681H214.53V30.876ZM207.967 31.8263H209.122C209.484 31.8263 209.756 31.9361 209.936 32.1544C210.117 32.3716 210.208 32.6662 210.208 33.0367C210.208 33.4111 210.118 33.6993 209.94 33.9013C209.761 34.1028 209.489 34.2033 209.122 34.2033H207.967V31.8268L207.967 31.8263ZM209.226 35.1541C209.556 35.1541 209.809 35.259 209.986 35.4694C210.162 35.6787 210.251 35.9733 210.251 36.3527V37.0005C210.251 37.2138 210.256 37.4242 210.266 37.6296C210.277 37.836 210.303 37.9809 210.344 38.0681H211.634V37.9631C211.58 37.8764 211.544 37.7409 211.525 37.5552C211.508 37.3705 211.498 37.1867 211.498 37.0059V36.3448C211.498 35.9132 211.412 35.5497 211.239 35.2551C211.066 34.9605 210.785 34.754 210.399 34.6348C210.745 34.4737 211.008 34.2545 211.189 33.9742C211.37 33.6944 211.461 33.3628 211.461 32.9805C211.461 32.3174 211.254 31.8011 210.84 31.4307C210.427 31.0602 209.854 30.8755 209.121 30.8755H206.72V38.0676H207.966V35.1536H209.225L209.226 35.1541ZM204.819 33.851H202.17V31.8258H205.269V30.8755H200.923V38.0676H205.269V37.1168L202.17 37.1163V34.8018H204.819V33.8505V33.851ZM198.769 33.851H196.12V31.8258H199.219V30.8755H194.872V38.0676H199.219V37.1168L196.12 37.1163V34.8018H198.769V33.8505V33.851ZM193.675 30.876H188.748V31.8263H190.57V38.0681H191.818V31.8263H193.675V30.876ZM186.696 36.933C186.486 37.1256 186.175 37.2227 185.763 37.2227C185.381 37.2227 185.067 37.1217 184.823 36.9222C184.578 36.7217 184.455 36.395 184.455 35.9413H183.258L183.239 35.9778C183.218 36.7158 183.443 37.266 183.912 37.6281C184.381 37.9917 184.999 38.1725 185.764 38.1725C186.526 38.1725 187.131 37.9947 187.582 37.6404C188.033 37.2848 188.258 36.797 188.258 36.1773C188.258 35.5738 188.079 35.1127 187.721 34.7944C187.363 34.4767 186.807 34.2077 186.054 33.9885C185.494 33.817 185.125 33.6456 184.946 33.4727C184.767 33.2988 184.678 33.0598 184.678 32.7544C184.678 32.4573 184.769 32.2115 184.952 32.0179C185.136 31.8238 185.417 31.7272 185.795 31.7272C186.169 31.7272 186.453 31.843 186.645 32.0751C186.835 32.3066 186.932 32.6125 186.932 32.9938H188.13L188.142 32.9574C188.159 32.2736 187.958 31.7391 187.54 31.3543C187.123 30.9701 186.541 30.7774 185.796 30.7774C185.072 30.7774 184.497 30.9602 184.07 31.3252C183.644 31.6918 183.432 32.1731 183.432 32.7687C183.432 33.381 183.61 33.8422 183.965 34.1506C184.322 34.4585 184.891 34.721 185.672 34.9398C186.183 35.1078 186.533 35.2836 186.725 35.4649C186.917 35.6477 187.012 35.8866 187.012 36.1822C187.012 36.4906 186.907 36.7404 186.698 36.933H186.696ZM181.671 30.876H180.424V38.0681H181.671V30.876ZM178.522 30.876H177.27V35.8398L177.232 35.8521L174.473 30.8765H173.226V38.0686H174.472V33.0993L174.51 33.0864L177.27 38.069L178.522 38.0686V30.8765V30.876ZM171.362 30.876H170.115V38.0681H171.362V30.876ZM163.287 30.876H161.712V38.0681H162.96V33.3209L162.996 33.315L164.545 38.0681H165.391L166.935 33.3456L166.971 33.3515V38.0681H168.225V30.876H166.656L164.984 36.531H164.946L163.286 30.876H163.287ZM158.595 36.933C158.385 37.1256 158.074 37.2227 157.662 37.2227C157.28 37.2227 156.966 37.1217 156.721 36.9222C156.476 36.7217 156.353 36.395 156.353 35.9413H155.156L155.137 35.9778C155.117 36.7158 155.341 37.266 155.81 37.6281C156.28 37.9917 156.897 38.1725 157.662 38.1725C158.424 38.1725 159.03 37.9947 159.481 37.6404C159.931 37.2848 160.156 36.797 160.156 36.1773C160.156 35.5738 159.978 35.1127 159.62 34.7944C159.262 34.4767 158.707 34.2077 157.953 33.9885C157.393 33.817 157.023 33.6456 156.845 33.4727C156.665 33.2988 156.576 33.0598 156.576 32.7544C156.576 32.4573 156.668 32.2115 156.851 32.0179C157.034 31.8238 157.315 31.7272 157.694 31.7272C158.069 31.7272 158.351 31.843 158.542 32.0751C158.734 32.3066 158.83 32.6125 158.83 32.9938H160.027L160.04 32.9574C160.056 32.2736 159.855 31.7391 159.438 31.3543C159.02 30.9701 158.439 30.7774 157.694 30.7774C156.969 30.7774 156.394 30.9602 155.968 31.3252C155.542 31.6918 155.329 32.1731 155.329 32.7687C155.329 33.381 155.507 33.8422 155.863 34.1506C156.22 34.4585 156.789 34.721 157.571 34.9398C158.081 35.1078 158.432 35.2836 158.623 35.4649C158.815 35.6477 158.91 35.8866 158.91 36.1822C158.91 36.4906 158.806 36.7404 158.596 36.933H158.595ZM152.396 30.876V35.5832C152.396 36.1004 152.27 36.5034 152.017 36.7911C151.764 37.0788 151.419 37.2227 150.983 37.2227C150.551 37.2227 150.207 37.0783 149.951 36.7911C149.697 36.5034 149.569 36.1004 149.569 35.5832V30.876H148.322V35.593C148.322 36.4039 148.566 37.036 149.057 37.4917C149.546 37.9459 150.189 38.173 150.983 38.173C151.777 38.173 152.419 37.9459 152.909 37.4917C153.399 37.0365 153.644 36.4044 153.644 35.593V30.876H152.396ZM144.087 31.8263C144.49 31.8263 144.826 32.0169 145.093 32.3963C145.361 32.7771 145.494 33.2495 145.494 33.8161V35.1161C145.494 35.695 145.361 36.1729 145.093 36.5512C144.826 36.9286 144.49 37.1173 144.087 37.1173L143.05 37.1168V31.8263H144.087ZM144.087 38.0681C144.845 38.0681 145.476 37.7937 145.982 37.2444C146.488 36.6941 146.742 35.9876 146.742 35.1235V33.8264C146.742 32.9618 146.488 32.2549 145.982 31.7026C145.476 31.1513 144.845 30.8755 144.087 30.8755H141.803V38.0676H144.087V38.0681ZM137.58 32.6293H137.617L138.525 35.494H136.679L137.581 32.6293H137.58ZM139.34 38.0681H140.648L138.253 30.876H136.963L134.555 38.0681H135.871L136.382 36.4443H138.821L139.34 38.0681H139.34ZM133 33.851H130.351V31.8258H133.451V30.8755H129.104V38.0676H133.451V37.1168L130.351 37.1163V34.8018H133V33.8505V33.851ZM127.851 29.0788H121.992V30.0291H124.288V38.0676H125.542V30.0291H127.851V29.0788ZM115.251 32.6288H115.288L116.196 35.4935H114.349L115.251 32.6288ZM117.011 38.0676H118.32L115.924 30.8755H114.635L112.226 38.0676H113.541L114.053 36.4438H116.492L117.011 38.0676H117.011ZM109.751 35.8408C109.751 36.2606 109.661 36.5955 109.482 36.8453C109.303 37.0961 109.076 37.2217 108.801 37.2217C108.48 37.2217 108.225 37.1158 108.038 36.9064C107.85 36.696 107.756 36.3798 107.756 35.9556H106.553L106.54 35.993C106.52 36.7049 106.714 37.2463 107.124 37.6168C107.533 37.9878 108.092 38.172 108.8 38.172C109.442 38.172 109.969 37.9626 110.381 37.5429C110.792 37.1232 110.998 36.5591 110.998 35.8512V30.8755H109.751V35.8408H109.751ZM102.472 33.7648H99.7184V34.7151H102.472V33.7648ZM96.9409 36.9325C96.7315 37.1251 96.4206 37.2222 96.0083 37.2222C95.626 37.2222 95.3117 37.1212 95.0668 36.9217C94.822 36.7212 94.6993 36.3945 94.6993 35.9408H93.5022L93.4835 35.9773C93.4633 36.7153 93.6874 37.2655 94.1564 37.6276C94.6259 37.9912 95.2432 38.172 96.0083 38.172C96.7699 38.172 97.3763 37.9942 97.8271 37.6399C98.2774 37.2843 98.5025 36.7965 98.5025 36.1768C98.5025 35.5733 98.3237 35.1122 97.966 34.794C97.6079 34.4762 97.0527 34.2072 96.2989 33.988C95.7398 33.8165 95.3703 33.6451 95.191 33.4722C95.0117 33.2983 94.9225 33.0594 94.9225 32.7539C94.9225 32.4569 95.0141 32.211 95.1979 32.0174C95.3806 31.8233 95.6615 31.7268 96.0403 31.7268C96.4147 31.7268 96.697 31.8425 96.8886 32.0746C97.0803 32.3061 97.1763 32.612 97.1763 32.9933H98.3735L98.3863 32.9569C98.402 32.2731 98.2015 31.7386 97.7838 31.3538C97.366 30.9696 96.7852 30.7769 96.0403 30.7769C95.3156 30.7769 94.7402 30.9597 94.3146 31.3248C93.8889 31.6913 93.6756 32.1726 93.6756 32.7682C93.6756 33.3806 93.8535 33.8417 94.2101 34.1501C94.5658 34.458 95.1348 34.7205 95.9171 34.9393C96.427 35.1073 96.7783 35.2831 96.9694 35.4644C97.1611 35.6472 97.2566 35.8861 97.2566 36.1817C97.2566 36.4901 97.1517 36.7399 96.9418 36.9325H96.9409ZM90.7424 30.8755V35.5827C90.7424 36.0999 90.6158 36.5029 90.3631 36.7906C90.1104 37.0783 89.7655 37.2222 89.329 37.2222C88.8975 37.2222 88.5536 37.0778 88.2974 36.7906C88.0427 36.5029 87.9151 36.0999 87.9151 35.5827V30.8755H86.6678V35.5925C86.6678 36.4034 86.9131 37.0355 87.4028 37.4912C87.8925 37.9454 88.5349 38.1725 89.329 38.1725C90.1232 38.1725 90.7651 37.9454 91.2553 37.4912C91.7454 37.036 91.9903 36.4039 91.9903 35.5925V30.8755H90.7429H90.7424ZM82.433 31.8258C82.837 31.8258 83.172 32.0164 83.4395 32.3958C83.7075 32.7766 83.8405 33.249 83.8405 33.8156V35.1156C83.8405 35.6945 83.7075 36.1724 83.4395 36.5507C83.172 36.9281 82.837 37.1168 82.433 37.1168L81.396 37.1163V31.8258H82.433ZM82.433 38.0676C83.1907 38.0676 83.8218 37.7932 84.3282 37.2439C84.8341 36.6936 85.0879 35.9871 85.0879 35.123V33.8259C85.0879 32.9613 84.8341 32.2544 84.3282 31.7021C83.8218 31.1509 83.1907 30.875 82.433 30.875H80.1496V38.0671H82.433V38.0676ZM78.2844 30.8755H77.0381V38.0676H78.2844V30.8755ZM71.7229 31.8258H72.8777C73.2388 31.8258 73.5107 31.9356 73.6925 32.1539C73.8733 32.3711 73.9645 32.6657 73.9645 33.0362C73.9645 33.4106 73.8743 33.6988 73.696 33.9008C73.5171 34.1023 73.2442 34.2028 72.8782 34.2028H71.7234V31.8263L71.7229 31.8258ZM72.9821 35.1536C73.3107 35.1536 73.5649 35.2585 73.7418 35.4689C73.9181 35.6782 74.0063 35.9728 74.0063 36.3522V37C74.0063 37.2133 74.0122 37.4237 74.0221 37.6291C74.032 37.8355 74.0585 37.9804 74.0989 38.0676H75.3892V37.9626C75.336 37.8759 75.3005 37.7404 75.2813 37.5547C75.2626 37.37 75.2537 37.1862 75.2537 37.0054V36.3443C75.2537 35.9127 75.167 35.5492 74.9941 35.2546C74.8212 34.96 74.5418 34.7536 74.1541 34.6343C74.5 34.4732 74.7635 34.254 74.9443 33.9737C75.1261 33.6939 75.2163 33.3623 75.2163 32.98C75.2163 32.3169 75.0098 31.8006 74.596 31.4302C74.1827 31.0597 73.6093 30.875 72.8772 30.875H70.4751V38.0671H71.7224V35.1531H72.9816L72.9821 35.1536ZM66.2536 32.6288H66.2901L67.1975 35.4935H65.3516L66.2536 32.6288ZM68.0128 38.0676H69.3218L66.9266 30.8755H65.6368L63.2288 38.0676H64.5431L65.0555 36.4438H67.4946L68.0133 38.0676H68.0128ZM61.9075 29.0788H60.6601V33.1475H57.2156V29.0788H55.9623V38.0676H57.2156V34.0974H60.6601V38.0676H61.9075V29.0788Z" fill="#003087"/>
<path d="M14.6995 54.7691C14.6995 54.9026 14.7359 55.0283 14.7995 55.1357C15.0419 54.8898 15.3488 54.7071 15.6927 54.614C15.8365 54.1041 16.305 53.7316 16.8602 53.7316C16.9075 53.7316 16.9538 53.7336 16.9996 53.7395C16.5371 53.873 16.1636 54.2174 15.9907 54.6622C15.7035 54.7573 15.4961 55.0288 15.4961 55.348C15.4961 55.4973 15.5414 55.6357 15.6188 55.75C15.8685 55.4702 16.1966 55.2633 16.5691 55.1623C16.6755 54.6268 17.1213 54.2139 17.6726 54.1558C17.1913 54.3573 16.8533 54.8337 16.8533 55.3874C16.8533 55.583 16.8962 55.7697 16.9721 55.9372C17.0573 55.6318 17.3366 55.4076 17.6682 55.4076C17.7519 55.4076 17.8322 55.4214 17.9051 55.448C18.0091 55.4859 18.1204 55.5056 18.2352 55.5056C18.7697 55.5056 19.2032 55.0721 19.2032 54.5366C19.2032 54.4302 19.1865 54.3272 19.155 54.2307C19.4092 54.3046 19.5944 54.5401 19.5944 54.8189C19.5944 54.9465 19.556 55.0637 19.4895 55.1618C19.5609 55.1741 19.6338 55.1815 19.7092 55.1815C20.3383 55.1815 20.8575 54.7081 20.93 54.0977C21.2457 53.9267 21.5236 53.6957 21.7625 53.4075L21.9305 54.2262C21.9428 54.2824 21.9384 54.34 21.9236 54.3913C21.9088 54.4435 21.8808 54.4928 21.8404 54.5346L22.535 53.8213C22.5754 53.7799 22.603 53.7302 22.6168 53.6779C22.632 53.6252 22.6355 53.5691 22.6237 53.5119L22.4192 52.5128C22.4074 52.4567 22.4103 52.3995 22.4261 52.3483C22.4414 52.2956 22.469 52.2468 22.5094 52.2049L23.0557 51.6478C23.0153 51.6891 22.9877 51.7384 22.9729 51.7911C22.9582 51.8438 22.9552 51.9 22.967 51.9561L23.1715 52.9567C23.1838 53.0143 23.1803 53.07 23.1656 53.1227C23.1503 53.174 23.1242 53.2227 23.0843 53.2641L23.7035 52.6202C23.7434 52.5788 23.771 52.5291 23.7853 52.4769C23.8011 52.4256 23.804 52.368 23.7912 52.3118L23.5873 51.3142C23.5754 51.2581 23.5784 51.2004 23.5947 51.1492C23.6094 51.097 23.637 51.0477 23.6774 51.0058L24.2238 50.4487C24.1834 50.49 24.1558 50.5398 24.141 50.592C24.1262 50.6432 24.1233 50.7009 24.1351 50.7571L24.3405 51.7576C24.3523 51.8138 24.3484 51.8714 24.3336 51.9226C24.3184 51.9739 24.2922 52.0227 24.2523 52.064L24.8716 51.4206C24.912 51.3793 24.9391 51.329 24.9534 51.2773C24.9691 51.2251 24.9721 51.1689 24.9603 51.1113L24.8608 50.6235C24.7558 50.0713 25.3258 49.4363 25.7785 49.3722C25.8327 49.2673 25.8623 49.154 25.8623 49.0367C25.8623 48.4761 25.1958 48.0224 24.3716 48.0224C23.9696 48.0224 23.604 48.1308 23.335 48.3076C23.4429 48.6269 23.4656 48.9505 22.4099 49.1008C21.5719 49.219 20.8354 49.3821 20.2752 49.857C19.4121 50.5891 19.4821 51.5679 18.9909 51.9384C19.2091 51.9916 19.487 51.9916 19.7841 51.9276C19.9718 51.8872 20.1452 51.8246 20.2989 51.7483C20.2072 51.9251 19.9964 52.0921 19.72 52.2104C19.6294 52.5562 19.322 52.8863 18.9076 53.04C18.6456 53.1365 18.3859 53.1469 18.1707 53.0848L17.1602 52.7922C17.0361 52.7567 16.906 52.738 16.7711 52.738C16.0262 52.738 15.4119 53.3119 15.3207 54.0538C14.969 54.1026 14.699 54.4051 14.699 54.7691H14.6995ZM24.6903 14.8059C25.2721 14.2369 25.9446 13.7615 26.6845 13.4034C26.6628 13.3167 26.651 13.227 26.651 13.1378V13.1319C23.5631 13.6388 20.7846 15.2242 18.2751 15.2104C17.5716 15.2074 17.0208 14.9384 16.9317 14.4931C16.9139 14.4054 16.9159 14.3143 16.9346 14.2236C16.9721 14.0507 17.1263 13.9192 17.312 13.9192C17.5253 13.9192 17.6977 14.0911 17.6977 14.3044C17.6977 14.4074 17.6578 14.5 17.5938 14.5694C17.6662 14.5763 17.7401 14.5798 17.8169 14.5798C18.0155 14.5798 18.2042 14.5552 18.3702 14.5098C18.6416 14.4374 18.8411 14.1896 18.8411 13.8945C18.8411 13.5438 18.5559 13.259 18.2042 13.259C18.1854 13.259 18.1657 13.26 18.1465 13.261C18.2347 13.2235 18.3332 13.2028 18.4362 13.2028C18.8441 13.2028 19.1756 13.5334 19.1756 13.9428C19.1756 13.9645 19.1747 13.9852 19.1732 14.0059C20.2752 13.9807 21.5182 12.9757 21.7896 12.5925C21.4438 12.6713 21.0694 12.7151 20.6782 12.7151C20.2348 12.7151 19.8107 12.66 19.4279 12.559C18.8855 12.4156 18.3519 12.3358 17.9421 12.3358C16.5888 12.3358 15.4931 13.2176 15.4931 14.3054C15.4931 15.204 16.236 15.9897 17.2652 16.2001C19.6072 16.6799 22.3621 15.2872 24.6893 14.8064L24.6903 14.8059ZM11.4855 18.0096C11.5481 17.6795 11.5737 17.3608 11.5614 17.0524L11.2663 17.3982C11.2081 17.2612 11.1697 17.176 11.1298 17.1075C11.0973 17.0514 11.0697 17.013 11.0313 17.0061C11.0116 17.0159 10.9815 17.0327 10.9495 17.0396C10.9121 17.0484 10.8603 17.0455 10.8278 17.0455C10.7983 17.0455 10.747 17.0479 10.7086 17.0396C10.6771 17.0327 10.6475 17.0159 10.6278 17.0061C10.5879 17.0134 10.5618 17.0514 10.5288 17.1075C10.4894 17.176 10.4509 17.2608 10.3928 17.3982L10.0962 17.0524C10.0859 17.3608 10.11 17.68 10.1726 18.0096C10.3908 17.9618 10.616 17.9455 10.8283 17.9455C11.0431 17.9455 11.2677 17.9623 11.4865 18.0096H11.4855ZM11.618 18.8983C11.651 18.5239 11.2259 18.3904 10.8278 18.3904C10.4317 18.3904 10.0071 18.5239 10.0396 18.8983C10.08 19.3545 10.5066 19.1372 10.8278 19.1392C11.151 19.1367 11.5776 19.3545 11.618 18.8983ZM12.7521 16.2026C12.6737 16.2232 12.6314 16.2691 12.6225 16.3513C12.5762 16.7918 12.3974 16.9696 12.1121 17.0696C12.1082 17.513 12.0466 17.8495 11.9264 18.2667C12.2653 18.9752 12.0052 19.4698 11.7308 19.5767C11.4687 19.6772 11.1313 19.5412 10.8322 19.5412C10.5327 19.5412 10.1903 19.6772 9.92824 19.5767C9.65285 19.4703 9.39422 18.9752 9.73168 18.2667C9.61246 17.85 9.54989 17.513 9.54743 17.0696C9.26169 16.9696 9.08237 16.7918 9.03557 16.3513C9.0267 16.2696 8.98434 16.2237 8.90699 16.2026C7.7813 15.8937 7.6744 14.4951 8.24439 14.098C8.19315 14.7251 8.13945 15.6094 9.41983 15.7272C9.39914 16.4617 9.71591 16.6583 10.044 16.6583C10.3115 16.6592 10.4652 16.573 10.5317 16.5376C10.7697 16.4114 10.6056 16.2178 10.5445 16.1602C10.3805 16.007 10.2977 15.7907 10.3371 15.5725C10.344 15.534 10.3588 15.5143 10.3953 15.5143H10.8278H11.2623C11.2988 15.5143 11.315 15.534 11.3209 15.5725C11.3604 15.7907 11.2771 16.007 11.114 16.1602C11.0529 16.2178 10.8894 16.4109 11.1268 16.5376C11.1929 16.5735 11.3471 16.6592 11.6146 16.6583C11.9417 16.6583 12.2599 16.4617 12.2387 15.7272C13.5186 15.6094 13.4644 14.7251 13.4142 14.098C13.9842 14.4951 13.8763 15.8942 12.7516 16.2026H12.7521ZM13.0989 13.7615C13.0989 14.0827 12.8639 14.4404 12.5964 14.4404H12.3506C12.4126 14.5143 12.4506 14.6098 12.4506 14.7128C12.4506 14.9507 12.258 15.1439 12.021 15.1439C11.783 15.1439 11.5899 14.9512 11.5899 14.7128C11.5899 14.6098 11.6274 14.5143 11.6889 14.4404H11.4318C11.3436 14.4404 11.2756 14.4768 11.2214 14.5793C11.2037 14.4404 11.186 14.297 11.2175 14.2034C11.2608 14.0729 11.3618 13.996 11.4623 13.996H12.5905C12.7989 13.996 12.9541 13.9251 13.0994 13.7615H13.0989ZM12.9496 13.2265H12.5555C12.3599 13.2265 12.2249 13.1462 12.1102 13.0152L11.6609 12.4284C11.587 12.3358 11.5274 12.2703 11.4318 12.2279H11.8757C12.0092 12.2279 12.1279 12.2841 12.2205 12.4038L12.689 12.9994C12.7939 13.1255 12.8265 13.2107 12.9496 13.2265ZM10.8938 12.2585L11.4687 13.0654C11.5599 13.1989 11.6456 13.2718 11.7692 13.3231H11.2426C11.0401 13.3231 10.9189 13.2295 10.8293 13.0836L10.377 12.3905C10.2041 12.1304 10.1361 12.0668 9.9376 11.9944H10.4263C10.6189 11.9944 10.7987 12.12 10.8933 12.258L10.8938 12.2585ZM9.59078 12.4038L10.0593 12.9994C10.1642 13.1255 10.1962 13.2107 10.3199 13.2265H9.92676C9.7302 13.2265 9.59472 13.1462 9.48043 13.0152L9.03065 12.4284C8.95675 12.3358 8.89812 12.2703 8.80157 12.2279H9.24593C9.37944 12.2279 9.49816 12.2841 9.59078 12.4038ZM9.30751 14.4404H9.06168C8.79516 14.4404 8.55919 14.0827 8.55919 13.7615C8.7055 13.9246 8.8597 13.996 9.06907 13.996H10.1967C10.2977 13.996 10.3982 14.0733 10.4421 14.2034C10.4736 14.297 10.4559 14.4404 10.4381 14.5793C10.3839 14.4763 10.3155 14.4404 10.2278 14.4404H9.9711C10.0322 14.5143 10.0691 14.6098 10.0691 14.7128C10.0691 14.9507 9.87651 15.1439 9.63955 15.1439C9.40259 15.1439 9.20997 14.9512 9.20997 14.7128C9.20997 14.6098 9.24642 14.5143 9.3085 14.4404H9.30751ZM7.91678 19.8146L8.05324 19.5476C8.07984 19.4964 8.09068 19.4412 8.0897 19.3865C8.08871 19.3333 8.07492 19.2771 8.04684 19.2284L8.42125 19.9013C8.44883 19.9526 8.46263 20.0077 8.46361 20.06C8.46608 20.1156 8.45376 20.1718 8.42716 20.223L8.39366 20.289C8.16359 20.7359 7.94929 21.5724 8.18724 22.0576C7.63203 21.8507 7.44926 21.365 7.50838 20.961C6.46348 19.9713 6.2009 18.9668 6.94627 18.1244L7.32856 17.677C7.36847 17.6332 7.39261 17.5829 7.40394 17.5307C7.41625 17.478 7.41625 17.4218 7.40197 17.3667L7.60149 18.1106C7.61528 18.1657 7.61627 18.2234 7.60395 18.2766C7.59213 18.3288 7.56749 18.3795 7.53005 18.4234L7.41379 18.5599C7.02312 19.0141 7.12806 19.6299 7.73893 20.1816C7.80298 20.026 7.84485 19.9471 7.91678 19.8146ZM33.5362 22.6079C33.5766 22.5079 33.5993 22.3985 33.5993 22.2828C33.5993 21.8167 33.2209 21.4364 32.7539 21.4364H31.8982C31.84 21.4374 31.7853 21.4211 31.7371 21.3965C31.6898 21.3719 31.6464 21.3339 31.6134 21.2871L31.1848 20.6536C31.2178 20.7019 31.2602 20.7388 31.3085 20.7625C31.3558 20.7891 31.4114 20.8029 31.4696 20.8024L32.5967 20.8034C32.6549 20.8034 32.71 20.8186 32.7578 20.8433C32.8051 20.8689 32.849 20.9063 32.8815 20.9536L32.3637 20.1964C32.3312 20.1467 32.2878 20.1112 32.2396 20.087C32.1923 20.0604 32.1366 20.0467 32.0795 20.0467L30.9612 20.0476C30.904 20.0476 30.8483 20.0338 30.801 20.0082C30.7528 19.9816 30.7094 19.9447 30.6769 19.8974L30.1907 19.1821C30.2232 19.2303 30.2665 19.2673 30.3143 19.2914C30.3626 19.317 30.4173 19.3318 30.4754 19.3318L31.5977 19.3308C31.6558 19.3308 31.711 19.3446 31.7587 19.3703C31.807 19.3954 31.8494 19.4328 31.8824 19.4796L31.3646 18.7209C31.3321 18.6737 31.2888 18.6372 31.2405 18.6116C31.1932 18.586 31.1375 18.5717 31.0804 18.5717H30.1882C30.1301 18.5717 30.0754 18.5569 30.0271 18.5323C29.9793 18.5062 29.936 18.4697 29.9035 18.4204L29.3034 17.5425C30.5153 17.3972 31.4937 16.7405 31.6883 15.8355C31.94 14.6621 30.7735 13.5221 29.0842 13.2743C28.7999 13.2329 28.5827 12.989 28.5827 12.6935C28.5827 12.4437 28.7408 12.2284 28.963 12.1456C28.7832 12.0673 28.5817 12.024 28.3679 12.024C27.6201 12.024 27.0146 12.5595 27.0146 13.2201C27.0146 13.3388 27.0353 13.4546 27.0722 13.562C26.2347 13.9246 25.4721 14.566 24.8878 15.2582C25.512 15.0921 26.1677 15.0025 26.8451 15.0025C26.8422 14.9719 26.8397 14.9399 26.8397 14.9074C26.8397 14.4015 27.2486 13.9911 27.7565 13.9911H27.7693C27.4235 14.1428 27.2555 14.4749 27.2555 14.6946C27.2555 14.9552 27.4678 15.168 27.7284 15.168C27.8304 15.168 27.9255 15.1365 28.0023 15.0813C27.9841 15.0232 27.9743 14.9586 27.9743 14.8936C27.9743 14.531 28.2679 14.2379 28.631 14.2379C28.6625 14.2379 28.695 14.2399 28.726 14.2448C28.4763 14.3615 28.3024 14.6162 28.3024 14.9108C28.3024 15.3168 28.631 15.6454 29.0369 15.6454C29.0807 15.6454 29.1221 15.6424 29.1635 15.6355C29.1512 15.5922 29.1458 15.5473 29.1458 15.5C29.1458 15.2084 29.3817 14.9749 29.6724 14.9749C29.964 14.9749 30.2 15.2089 30.2 15.5C30.2 16.1341 29.4965 16.1912 28.9837 16.0454C27.5235 15.6237 26.1564 15.436 24.8342 15.6207C23.137 15.8597 20.3575 17.0065 17.4071 16.9105C16.7469 16.8898 16.0272 16.7799 15.3025 16.5819C15.3912 16.6794 15.4483 16.7464 15.4862 16.8036C15.7735 17.2509 15.872 17.7194 15.6188 18.3071C15.6257 17.649 15.0823 17.108 14.6271 16.7755C14.4433 16.643 14.3694 16.5154 14.4 16.3444L14.534 15.5858C14.5241 15.6419 14.529 15.6971 14.5463 15.7498C14.563 15.8011 14.5916 15.8493 14.633 15.8902L14.9163 16.1676C15.0241 15.4 14.8502 14.6837 14.3926 14.0211C14.5946 13.4915 14.6226 12.9068 14.4877 12.3594C14.434 12.7743 14.2305 12.9521 14.0374 13.0713C13.6787 13.2979 13.6191 13.6763 13.8053 13.929C13.5019 13.7758 13.0841 13.2137 13.326 12.8846C13.5866 12.5289 14.3009 12.6959 14.3886 12.0885C13.9255 11.9412 13.4482 12.0446 13.3033 12.0831C13.0289 11.7688 12.6644 11.6131 12.2112 11.616C11.8525 11.2909 11.3919 11.1559 10.8283 11.2111C10.2672 11.1554 9.80656 11.2909 9.44791 11.616C8.99468 11.6131 8.63013 11.7693 8.35572 12.0831C8.20941 12.0446 7.73302 11.9412 7.26895 12.0885C7.35714 12.6959 8.06999 12.5289 8.33158 12.8846C8.57397 13.2132 8.15571 13.7758 7.85274 13.929C8.03945 13.6758 7.97885 13.2979 7.61971 13.0713C7.42808 12.9521 7.22363 12.7738 7.17042 12.3594C7.03495 12.9068 7.06401 13.4915 7.2655 14.0211C6.80833 14.6837 6.63443 15.4 6.74182 16.1676L7.02608 15.8902C7.06746 15.8498 7.09653 15.8011 7.11278 15.7498C7.13003 15.6971 7.13348 15.6419 7.12264 15.5858L7.25811 16.3444C7.28817 16.5154 7.21575 16.6425 7.03199 16.7755C6.57531 17.108 6.03242 17.6499 6.03931 18.3071C5.78659 17.7194 5.88807 17.2317 6.17282 16.8036C5.30774 16.3366 4.64858 15.569 4.52739 15.4286C4.26531 15.1237 4.30028 14.7364 4.53725 14.3965C4.99442 13.7428 5.1028 13.0452 4.52936 12.5683C4.5333 12.5329 4.53527 12.4979 4.53527 12.4624C4.53527 12.0289 4.22737 11.6663 3.817 11.585C3.89336 11.7037 3.9377 11.8451 3.9377 11.9949C3.9377 12.1688 3.88006 12.3269 3.78252 12.4565C3.86331 12.5619 3.91159 12.6944 3.91159 12.8398C3.91159 13.0334 3.82488 13.2058 3.68744 13.3216C3.70123 13.2556 3.70714 13.1861 3.70714 13.1152C3.70714 12.6683 3.43175 12.2954 3.05685 12.1924C2.99675 11.8683 2.712 11.6215 2.3706 11.6215C2.17206 11.6215 1.99422 11.7047 1.86663 11.8358C2.13118 11.8574 2.34449 12.0653 2.37356 12.3269C2.24695 12.423 2.14546 12.554 2.07895 12.7073H2.0962C2.55337 12.7073 2.92384 13.0777 2.92384 13.5354C2.92384 13.5866 2.91891 13.6379 2.91004 13.6866C2.87507 13.4994 2.79033 13.3255 2.65288 13.1915C2.39622 12.9408 2.02279 12.8895 1.6809 13.0196C1.55281 12.858 1.35526 12.755 1.13407 12.755C0.88331 12.755 0.664083 12.8861 0.54043 13.0836C0.793156 13.0945 1.01534 13.2221 1.15377 13.4147C0.795126 13.8748 0.791185 14.5098 1.1587 14.87C1.40797 15.1128 1.76416 15.168 2.09718 15.0542C2.11886 15.0463 2.14152 15.0424 2.16714 15.0424C2.28981 15.0424 2.38883 15.1424 2.38883 15.2636C2.38883 15.3853 2.28981 15.4838 2.16714 15.4838C2.11393 15.4838 2.06418 15.4651 2.02673 15.4335C1.94299 15.3631 1.83411 15.3217 1.71686 15.3217C1.44985 15.3217 1.23259 15.537 1.23259 15.806C1.23259 15.8257 1.23358 15.8464 1.23653 15.8651C1.19072 15.8799 1.14244 15.8878 1.09219 15.8878C0.96164 15.8878 0.842913 15.8341 0.756208 15.7493C0.742413 15.8015 0.735516 15.8572 0.735516 15.9139C0.735516 16.2548 0.998588 16.5346 1.33359 16.5602C1.48384 16.9327 1.84988 17.1962 2.277 17.1962C2.49622 17.1962 2.69821 17.1272 2.86472 17.0105C2.93763 16.9602 3.02483 16.9297 3.11942 16.9297C3.36525 16.9297 3.56526 17.1292 3.56526 17.3755C3.56526 17.5874 3.41648 17.7637 3.21844 17.81L2.87162 17.8854C2.81546 17.8992 2.75782 17.8963 2.7056 17.8805C2.65288 17.8677 2.60411 17.8401 2.56224 17.8002L3.35539 18.5539C3.39776 18.5938 3.44703 18.62 3.49925 18.6347C3.55196 18.65 3.60812 18.653 3.66428 18.6402L4.31457 18.4958C4.37073 18.483 4.42788 18.486 4.47911 18.4998C4.53035 18.515 4.58208 18.5411 4.62346 18.581L5.16783 19.0998C5.12497 19.0599 5.0762 19.0318 5.0225 19.0185C4.97126 19.0037 4.91461 19.0008 4.85746 19.0136L4.20964 19.1555C4.15348 19.1693 4.09584 19.1663 4.0446 19.1515C3.99238 19.1377 3.94164 19.1111 3.90075 19.0712L4.6274 19.7604C4.66878 19.8003 4.71903 19.8264 4.77076 19.8417C4.82347 19.8555 4.88013 19.857 4.93678 19.8457L5.58707 19.7038C5.64471 19.691 5.70038 19.6929 5.75309 19.7087C5.80531 19.7225 5.85457 19.7501 5.89694 19.79L6.44131 20.3063C6.39894 20.2669 6.34968 20.2412 6.29746 20.2255C6.24475 20.2117 6.18859 20.2097 6.13144 20.2215L5.48361 20.3649C5.42597 20.3772 5.36981 20.3748 5.31759 20.3595C5.26488 20.3457 5.21561 20.3191 5.17325 20.2787L5.90039 20.9674C5.94276 21.0078 5.99202 21.0354 6.04424 21.0482C6.09695 21.064 6.15312 21.0669 6.21026 21.0531L6.99554 20.8822C6.23292 21.3132 5.42105 21.801 4.56089 22.3453C4.05199 22.666 3.4958 22.7266 2.85684 22.4813C2.51347 22.3503 2.14103 22.3276 1.90604 22.368C1.60011 22.4212 1.33999 22.6074 1.18875 22.8641C1.30748 22.8178 1.43655 22.7912 1.57301 22.7912C1.85825 22.7912 2.1159 22.9055 2.30409 23.0922C2.00654 22.968 1.63755 22.9552 1.27792 23.0863C0.636988 23.3183 0.262579 23.9247 0.408401 24.4666C0.168484 24.5593 0 24.7913 0 25.0618C0 25.2406 0.0734039 25.4027 0.191638 25.5184C0.255189 25.2337 0.503974 25.0194 0.804979 25.0076C0.930603 25.0908 1.07692 25.1499 1.23358 25.1815C1.28137 25.0997 1.34147 25.0263 1.41044 24.9622C1.40256 24.912 1.3996 24.8593 1.3996 24.8061C1.3996 24.2193 1.87402 23.7449 2.45977 23.7449C2.50805 23.7449 2.55534 23.7479 2.60263 23.7553C2.13758 23.8666 1.79076 24.2854 1.79076 24.7864C1.79076 24.8499 1.79667 24.912 1.808 24.9721C1.55725 25.0687 1.38039 25.3105 1.38039 25.5953C1.38039 25.7584 1.43852 25.9062 1.53655 26.0239C1.71637 25.6721 2.06664 25.4234 2.47898 25.3835C2.63416 25.4288 2.79821 25.4524 2.9667 25.4524C3.07311 25.4524 3.17706 25.4436 3.27805 25.4258C3.18691 25.2923 3.1337 25.1322 3.1337 24.9583C3.1337 24.5041 3.5022 24.1346 3.95839 24.1346C3.99829 24.1346 4.03573 24.1366 4.07515 24.1425C3.63916 24.3282 3.37313 24.7066 3.46476 25.0509C3.52979 25.2938 3.75985 25.4643 4.05741 25.5204C4.05347 25.7022 4.00322 25.8751 3.91701 26.0244C4.2993 25.9968 4.62592 25.7667 4.78899 25.4396C5.23926 25.2588 5.51711 24.8726 5.4245 24.5218C5.391 24.3962 5.31267 24.2903 5.20724 24.211C5.20625 24.1987 5.20527 24.1858 5.20527 24.1745C5.20527 23.9321 5.40183 23.737 5.64175 23.737C5.88462 23.737 6.0802 23.9326 6.0802 24.1745C6.0802 24.2888 6.03685 24.3928 5.96443 24.4696H6.87976C6.9374 24.4696 6.99258 24.4558 7.03987 24.4292C7.08815 24.4056 7.13101 24.3681 7.16353 24.3198L7.75125 23.4488C7.77293 23.4158 7.80249 23.3912 7.83549 23.3735C7.86801 23.3557 7.90446 23.3459 7.94486 23.3459H8.66363C8.62372 23.3459 8.58628 23.3557 8.55426 23.3735C8.52174 23.3912 8.49169 23.4158 8.47051 23.4484L7.88032 24.3193C7.84781 24.3676 7.80544 24.4056 7.75716 24.4292C7.70938 24.4558 7.65519 24.4696 7.59705 24.4696H8.69171C8.74984 24.4696 8.80452 24.4558 8.85083 24.4292C8.90059 24.4056 8.94345 24.3681 8.97448 24.3198L9.63463 23.3469C9.17992 23.0976 8.9937 22.6611 8.9937 22.0635C8.9937 21.6911 9.20307 21.2664 9.2346 20.993L9.24741 20.8832C9.25431 20.827 9.24642 20.7703 9.22672 20.7191C9.21145 20.6777 9.17942 20.6196 9.14494 20.5787L9.70803 21.1561C9.75237 21.1935 9.7839 21.2408 9.80311 21.2916C9.8238 21.3408 9.83168 21.398 9.82479 21.4551L9.80804 21.5867C9.78143 21.8167 9.49275 22.3108 10.0282 22.7631C10.0549 22.7848 10.1209 22.833 10.1844 22.8725L10.5647 23.1104V21.7069H11.0968V23.2695C11.0978 23.3277 11.115 23.3823 11.1416 23.4296C11.1682 23.475 11.2057 23.5173 11.2549 23.5489L11.7747 23.8794C11.8254 23.9109 11.8796 23.9277 11.9328 23.9307C11.987 23.9346 12.0437 23.9277 12.0959 23.905L13.055 23.4883C13.0018 23.5119 12.9457 23.5188 12.892 23.5149C12.8378 23.5109 12.7831 23.4942 12.7348 23.4636L11.6338 22.7621C12.1688 22.3099 11.8796 21.8157 11.853 21.5862L11.8372 21.4546C11.8303 21.397 11.8382 21.3403 11.8569 21.2906C11.8776 21.2403 11.9097 21.1925 11.953 21.1551L12.5161 20.5782C12.4811 20.6186 12.4506 20.6767 12.4343 20.7186C12.4156 20.7699 12.4077 20.8265 12.4141 20.8827L12.4264 20.992C12.4718 21.3812 12.8674 22.0896 12.5378 22.4838L13.5442 23.1227C13.594 23.1523 13.6482 23.171 13.7014 23.1749C13.7556 23.1789 13.8122 23.171 13.8654 23.1464L14.868 22.7119C14.8143 22.7335 14.7591 22.7419 14.7059 22.738C14.6517 22.734 14.597 22.7178 14.5478 22.6867L13.459 21.9931C13.696 21.5083 13.4965 20.7368 13.2664 20.29L13.2314 20.224C13.2058 20.1728 13.194 20.1166 13.1959 20.0609C13.1959 20.0087 13.2097 19.953 13.2388 19.9023L13.6122 19.2294C13.5846 19.2776 13.5708 19.3343 13.5708 19.3875C13.5689 19.4417 13.5807 19.4969 13.6063 19.5486L13.7433 19.8156C13.8157 19.9481 13.8561 20.0269 13.9196 20.1831C14.532 19.6309 14.6685 19.0988 14.2778 18.6451L14.1615 18.5081C14.1241 18.4633 14.099 18.413 14.0876 18.3608C14.0748 18.3076 14.0748 18.2505 14.0906 18.1948L14.2901 17.4509C14.2748 17.5066 14.2748 17.5627 14.2862 17.615C14.299 17.6677 14.3236 17.7179 14.362 17.7623L14.7453 18.2086C15.4902 19.051 15.0399 20.1358 14.1507 20.963C14.2 21.1216 14.2423 21.4182 14.2068 21.5802L15.3872 22.3281C15.437 22.3611 15.4907 22.3778 15.5454 22.3818C15.5986 22.3867 15.6547 22.3778 15.7084 22.3552L16.5617 21.9837C16.5134 22.0039 16.4587 22.0167 16.4035 22.0167C16.1833 22.0167 16.0055 21.8379 16.0055 21.6197C16.0055 21.4418 16.1213 21.2891 16.2828 21.2408C19.5417 20.2496 22.5414 17.6908 24.5115 17.6977C25.4687 17.7007 26.2446 18.2795 26.2446 18.9968C26.2446 19.1131 26.2239 19.2259 26.1865 19.3338C25.7667 20.5132 26.3781 21.6394 27.9925 22.0739C28.2501 22.1428 28.4398 22.3783 28.4398 22.6557C28.4398 22.7114 28.4319 22.7646 28.4191 22.8138C28.4556 22.8178 28.493 22.8188 28.5319 22.8188C28.9763 22.8188 29.3694 22.5985 29.6074 22.2596C29.8842 22.2571 30.1872 22.2409 30.4976 22.2069C30.535 22.2828 30.5651 22.368 30.5828 22.4616C30.6488 22.8015 30.5316 23.107 30.3227 23.1749C29.9522 23.2956 29.498 23.1503 29.1472 23.1542C28.4837 23.1616 27.9472 23.7006 27.9472 24.3661C27.9472 24.4174 27.9501 24.4681 27.957 24.5203C27.7486 24.6494 27.6102 24.88 27.6102 25.1435C27.6102 25.2751 27.6452 25.3982 27.7043 25.5047C27.9087 25.2667 28.1753 25.082 28.4787 24.9755C28.5043 24.3918 28.9847 23.9282 29.5729 23.9282C29.663 23.9282 29.7517 23.9385 29.835 23.9597C29.2384 24.0351 28.7758 24.5445 28.7758 25.1618C28.7758 25.2051 28.7787 25.25 28.7837 25.2943C28.7098 25.3849 28.6649 25.4987 28.6649 25.6244C28.6649 25.7825 28.7364 25.9254 28.8477 26.0214C28.9605 25.7746 29.232 25.5426 29.5837 25.4239C29.8197 25.345 30.0522 25.3288 30.2453 25.3687C30.2138 25.2756 30.199 25.177 30.199 25.0756C30.199 24.5479 30.6247 24.1213 31.1523 24.1213C31.2006 24.1213 31.2489 24.1252 31.2957 24.1321C30.9282 24.1804 30.6454 24.4967 30.6454 24.8765C30.6454 25.1288 30.77 25.3529 30.9607 25.4899C30.9607 25.5022 30.9597 25.5165 30.9597 25.5303C30.9597 25.7377 31.0548 25.9214 31.2026 26.0431C31.27 25.6973 31.572 25.4367 31.9386 25.4367C32.2509 25.4367 32.5085 25.3968 32.7012 25.3332C33.0273 25.2273 33.2652 24.9248 33.2652 24.5657C33.2652 24.3159 33.1519 24.0922 32.9721 23.9454C33.0608 23.5405 33.045 22.8754 32.9081 22.3227C32.9357 22.3187 32.9642 22.3168 32.9938 22.3168C33.2214 22.3158 33.4219 22.4335 33.5387 22.6104L33.5362 22.6079ZM16.9326 29.4719C16.9149 29.3842 16.9169 29.2931 16.9356 29.2024C16.973 29.0295 17.1272 28.898 17.313 28.898C17.5263 28.898 17.6982 29.0709 17.6982 29.2832C17.6982 29.3862 17.6588 29.4788 17.5948 29.5478C17.6672 29.5552 17.7411 29.5586 17.8179 29.5586C18.0165 29.5586 18.2051 29.533 18.3707 29.4887C18.6426 29.4162 18.8421 29.1684 18.8421 28.8729C18.8421 28.5221 18.5569 28.2378 18.2051 28.2378C18.1864 28.2378 18.1667 28.2388 18.1475 28.2398C18.2352 28.2024 18.3342 28.1817 18.4372 28.1817C18.8451 28.1817 19.1766 28.5122 19.1766 28.9211C19.1766 28.9418 19.1756 28.964 19.1737 28.9847C20.2762 28.9596 21.5187 27.9546 21.7901 27.5713C21.4448 27.6501 21.0704 27.694 20.6787 27.694C20.2348 27.694 19.8112 27.6388 19.4279 27.5378C18.8855 27.3934 18.3524 27.3146 17.9426 27.3146C16.5893 27.3146 15.4936 28.1969 15.4936 29.2847C15.4936 30.1833 16.2365 30.969 17.2657 31.1789C19.6077 31.6587 22.3626 30.266 24.6903 29.7852C25.2721 29.2162 25.9446 28.7408 26.6845 28.3817C26.6628 28.296 26.651 28.2078 26.651 28.1166V28.1107C23.5631 28.6182 20.7846 30.2025 18.2751 30.1892C17.5716 30.1862 17.0208 29.9173 16.9317 29.4719H16.9326ZM16.8602 23.7715C16.9075 23.7715 16.9538 23.7755 16.9996 23.7804C16.5371 23.9139 16.1636 24.2578 15.9907 24.7031C15.7035 24.7972 15.4961 25.0696 15.4961 25.3889C15.4961 25.5377 15.5414 25.6766 15.6188 25.7909C15.8685 25.5125 16.1966 25.3041 16.5691 25.2031C16.6755 24.6676 17.1213 24.2548 17.6726 24.1967C17.1913 24.3982 16.8533 24.8746 16.8533 25.4283C16.8533 25.6239 16.8962 25.8106 16.9721 25.9781C17.0573 25.6731 17.3366 25.449 17.6682 25.449C17.7519 25.449 17.8322 25.4628 17.9051 25.4894C18.0091 25.5268 18.1204 25.5475 18.2352 25.5475C18.7697 25.5475 19.2032 25.113 19.2032 24.5775C19.2032 24.4696 19.1865 24.3681 19.155 24.2725C19.4092 24.3445 19.5944 24.5804 19.5944 24.8593C19.5944 24.9869 19.556 25.1041 19.4895 25.2031C19.5609 25.216 19.6338 25.2219 19.7092 25.2219C20.3383 25.2219 20.8575 24.7489 20.93 24.1376C21.2457 23.9676 21.5236 23.7365 21.7625 23.4484L21.9305 24.2661C21.9428 24.3243 21.9384 24.3804 21.9236 24.4331C21.9088 24.4844 21.8808 24.5336 21.8404 24.576L22.535 23.8622C22.5754 23.8208 22.603 23.7705 22.6168 23.7188C22.632 23.6666 22.6355 23.6104 22.6237 23.5543L22.4192 22.5547C22.4074 22.4971 22.4103 22.4409 22.4261 22.3897C22.4414 22.337 22.469 22.2867 22.5094 22.2453L23.0557 21.6891C23.0153 21.7315 22.9877 21.7808 22.9729 21.831C22.9582 21.8842 22.9552 21.9404 22.967 21.997L23.1715 22.9986C23.1838 23.0547 23.1803 23.1099 23.1656 23.1636C23.1503 23.2148 23.1242 23.2631 23.0843 23.3045L23.7035 22.6596C23.7434 22.6182 23.771 22.5695 23.7853 22.5177C23.8011 22.4665 23.804 22.4079 23.7912 22.3527L23.5873 21.3551C23.5754 21.2975 23.5784 21.2413 23.5947 21.1901C23.6094 21.1369 23.637 21.0886 23.6774 21.0467L24.2238 20.4895C24.1834 20.5309 24.1558 20.5807 24.141 20.6329C24.1262 20.6841 24.1233 20.7418 24.1351 20.7979L24.3405 21.7985C24.3523 21.8547 24.3484 21.9113 24.3336 21.9635C24.3184 22.0148 24.2922 22.063 24.2523 22.1044L24.8716 21.4605C24.912 21.4192 24.9391 21.3704 24.9534 21.3182C24.9691 21.2659 24.9721 21.2098 24.9603 21.1521L24.8608 20.6644C24.7558 20.1122 25.3258 19.4772 25.7785 19.4131C25.8327 19.3082 25.8623 19.1949 25.8623 19.0761C25.8623 18.517 25.1958 18.0623 24.3716 18.0623C23.9696 18.0623 23.604 18.1702 23.335 18.348C23.4429 18.6658 23.4656 18.9899 22.4099 19.1412C21.5719 19.2609 20.8354 19.423 20.2752 19.8969C19.4121 20.6299 19.4821 21.6088 18.9909 21.9788C19.2091 22.032 19.487 22.032 19.7841 21.968C19.9718 21.9276 20.1452 21.865 20.2989 21.7886C20.2072 21.965 19.9964 22.132 19.72 22.2498C19.6294 22.5966 19.322 22.9262 18.9076 23.0803C18.6456 23.1769 18.3859 23.1868 18.1707 23.1252L17.1602 22.8326C17.0361 22.7971 16.906 22.7774 16.7711 22.7774C16.0262 22.7774 15.4119 23.3513 15.3207 24.0932C14.9695 24.143 14.6995 24.446 14.6995 24.8105C14.6995 24.9445 14.7359 25.0701 14.7995 25.1765C15.0419 24.9307 15.3488 24.7479 15.6927 24.6548C15.8365 24.1459 16.3045 23.7715 16.8597 23.7715H16.8602ZM11.486 32.9884C11.5485 32.6583 11.5742 32.3391 11.5618 32.0312L11.2668 32.377C11.2086 32.2396 11.1702 32.1548 11.1303 32.0854C11.0978 32.0297 11.0702 31.9913 11.0318 31.9844C11.0121 31.9942 10.982 32.011 10.95 32.0179C10.9125 32.0268 10.8608 32.0238 10.8283 32.0238C10.7987 32.0238 10.7475 32.0268 10.7091 32.0179C10.6776 32.0105 10.648 31.9942 10.6283 31.9844C10.5884 31.9913 10.5623 32.0297 10.5293 32.0854C10.4899 32.1543 10.4514 32.2391 10.3933 32.377L10.0967 32.0312C10.0864 32.3391 10.1105 32.6583 10.1731 32.9884C10.3913 32.9406 10.6165 32.9244 10.8288 32.9244C11.0436 32.9244 11.2682 32.9411 11.487 32.9884H11.486ZM11.6185 33.8771C11.6515 33.5027 11.2264 33.3692 10.8283 33.3692C10.4322 33.3692 10.0076 33.5027 10.0401 33.8771C10.0805 34.3333 10.5071 34.1161 10.8283 34.118C11.1515 34.1161 11.5781 34.3333 11.6185 33.8771ZM12.7526 31.1814C12.6742 31.2016 12.6319 31.2474 12.623 31.3297C12.5767 31.7701 12.3979 31.9479 12.1126 32.0479C12.1087 32.4913 12.0471 32.8278 11.9269 33.2451C12.2658 33.9535 12.0057 34.4481 11.7313 34.554C11.4692 34.6555 11.1318 34.5195 10.8327 34.5195C10.5332 34.5195 10.1908 34.6555 9.92873 34.554C9.65335 34.4481 9.39471 33.9535 9.73217 33.2451C9.61295 32.8283 9.55038 32.4913 9.54792 32.0479C9.26219 31.9479 9.08286 31.7701 9.03606 31.3297C9.0272 31.2479 8.98483 31.2021 8.90749 31.1814C7.7818 30.872 7.67489 29.4734 8.24488 29.0763C8.19364 29.7039 8.13995 30.5877 9.42033 30.7055C9.39964 31.44 9.7164 31.6366 10.0445 31.6366C10.312 31.6376 10.4657 31.5514 10.5322 31.5164C10.7702 31.3898 10.6061 31.1962 10.545 31.1375C10.381 30.9858 10.2982 30.7671 10.3376 30.5523C10.3445 30.5119 10.3593 30.4932 10.3958 30.4932H10.8283H11.2628C11.2993 30.4932 11.3155 30.5119 11.3214 30.5523C11.3608 30.7676 11.2776 30.9858 11.1145 31.1375C11.0534 31.1962 10.8899 31.3898 11.1273 31.5164C11.1933 31.5518 11.3475 31.6376 11.6151 31.6366C11.9422 31.6366 12.2604 31.44 12.2392 30.7055C13.5191 30.5877 13.4649 29.7039 13.4147 29.0763C13.9847 29.4734 13.8768 30.872 12.7521 31.1814H12.7526ZM13.0994 28.7403C13.0994 29.0615 12.8644 29.4192 12.5969 29.4192H12.3511C12.4131 29.4921 12.4511 29.5882 12.4511 29.6916C12.4511 29.9296 12.2584 30.1227 12.0215 30.1227C11.7835 30.1227 11.5904 29.9301 11.5904 29.6916C11.5904 29.5882 11.6279 29.4921 11.6894 29.4192H11.4323C11.3441 29.4192 11.2761 29.4556 11.2219 29.5581C11.2042 29.4192 11.1865 29.2763 11.218 29.1808C11.2613 29.0512 11.3623 28.9734 11.4628 28.9734H12.591C12.7994 28.9734 12.9545 28.9034 13.0999 28.7403H13.0994ZM12.9501 28.2063H12.556C12.3604 28.2063 12.2254 28.125 12.1107 27.994L11.6614 27.4072C11.5875 27.3146 11.5279 27.2491 11.4323 27.2067H11.8762C12.0097 27.2067 12.1284 27.2629 12.221 27.3826L12.6895 27.9782C12.7944 28.1043 12.827 28.1896 12.9501 28.2063ZM10.8943 27.2373L11.4692 28.0442C11.5604 28.1777 11.6461 28.2506 11.7697 28.3019H11.2431C11.0406 28.3019 10.9194 28.2083 10.8298 28.0629L10.3775 27.3693C10.2046 27.1092 10.1366 27.0456 9.9381 26.9732H10.4268C10.6194 26.9732 10.7992 27.0988 10.8938 27.2368L10.8943 27.2373ZM9.59127 27.3826L10.0598 27.9782C10.1647 28.1043 10.1967 28.1896 10.3204 28.2063H9.92726C9.73069 28.2063 9.59521 28.125 9.48092 27.994L9.03114 27.4072C8.95724 27.3146 8.89862 27.2491 8.80206 27.2067H9.24642C9.37993 27.2067 9.49866 27.2629 9.59127 27.3826ZM9.308 29.4192H9.06217C8.79566 29.4192 8.55968 29.0615 8.55968 28.7403C8.70599 28.9034 8.86019 28.9734 9.06956 28.9734H10.1972C10.2982 28.9734 10.3987 29.0517 10.4426 29.1808C10.4741 29.2768 10.4564 29.4187 10.4386 29.5581C10.3844 29.4552 10.316 29.4187 10.2283 29.4187H9.97159C10.0327 29.4916 10.0696 29.5877 10.0696 29.6911C10.0696 29.9291 9.87701 30.1222 9.64005 30.1222C9.40308 30.1222 9.21046 29.9296 9.21046 29.6911C9.21046 29.5877 9.24692 29.4916 9.30899 29.4187L9.308 29.4192ZM7.91727 34.7949L8.05373 34.5269C8.08034 34.4757 8.09117 34.4205 8.09019 34.3658C8.0892 34.3126 8.07541 34.2574 8.04733 34.2077L8.42174 34.8811C8.44933 34.9319 8.46312 34.9861 8.46411 35.0403C8.46657 35.0944 8.45425 35.1511 8.42765 35.2023L8.39415 35.2683C8.16409 35.7147 7.94979 36.5517 8.18773 37.0364C7.63252 36.83 7.44975 36.3443 7.50887 35.9413C6.46397 34.9501 6.2014 33.9456 6.94676 33.1042L7.32906 32.6554C7.36896 32.612 7.3931 32.5618 7.40443 32.5091C7.41675 32.4568 7.41675 32.4007 7.40246 32.345L7.60198 33.0889C7.61577 33.1451 7.61676 33.2017 7.60444 33.2549C7.59262 33.3076 7.56799 33.3579 7.53055 33.4012L7.41428 33.5387C7.02362 33.9929 7.12855 34.6082 7.73943 35.1605C7.80347 35.0053 7.84535 34.9255 7.91727 34.7944V34.7949ZM33.5367 37.5872C33.5771 37.4872 33.5998 37.3778 33.5998 37.2636C33.5998 36.7965 33.2214 36.4157 32.7544 36.4157H31.8987C31.8405 36.4167 31.7858 36.4019 31.7376 36.3763C31.6903 36.3512 31.6469 36.3137 31.6139 36.2669L31.1853 35.6334C31.2183 35.6807 31.2607 35.7186 31.309 35.7428C31.3563 35.7684 31.4119 35.7832 31.4701 35.7827L32.5972 35.7836C32.6554 35.7836 32.7105 35.7974 32.7583 35.8231C32.8056 35.8482 32.8495 35.8856 32.882 35.9329L32.3642 35.1752C32.3317 35.127 32.2883 35.09 32.2401 35.0659C32.1928 35.0403 32.1371 35.0255 32.0799 35.0255L30.9616 35.0265C30.9045 35.0265 30.8488 35.0127 30.8015 34.987C30.7533 34.9619 30.7099 34.9245 30.6774 34.8777L30.1912 34.1614C30.2237 34.2097 30.267 34.2466 30.3148 34.2707C30.3631 34.2964 30.4178 34.3111 30.4759 34.3111L31.5981 34.3102C31.6563 34.3102 31.7115 34.3239 31.7592 34.3501C31.8075 34.3747 31.8499 34.4111 31.8829 34.4594L31.3651 33.7022C31.3326 33.654 31.2893 33.617 31.241 33.5914C31.1937 33.5648 31.138 33.5515 31.0809 33.5515H30.1887C30.1306 33.5515 30.0759 33.5367 30.0276 33.5121C29.9798 33.4855 29.9365 33.4495 29.9039 33.4002L29.3039 32.5214C30.5158 32.3775 31.4942 31.7203 31.6888 30.8158C31.9405 29.6424 30.774 28.5024 29.0847 28.2546C28.8004 28.2132 28.5832 27.9693 28.5832 27.6738C28.5832 27.424 28.7413 27.2087 28.9635 27.1259C28.7837 27.0476 28.5822 27.0043 28.3684 27.0043C27.6205 27.0043 27.0151 27.5398 27.0151 28.2004C27.0151 28.3191 27.0358 28.4349 27.0727 28.5423C26.2352 28.9054 25.4726 29.5463 24.8883 30.2385C25.5125 30.0724 26.1682 29.9828 26.8456 29.9828C26.8427 29.9522 26.8402 29.9202 26.8402 29.8877C26.8402 29.3808 27.2491 28.9714 27.757 28.9714H27.7698C27.424 29.1226 27.256 29.4552 27.256 29.6749C27.256 29.9365 27.4683 30.1478 27.7289 30.1478C27.8309 30.1478 27.926 30.1163 28.0028 30.0611C27.9846 30.003 27.9748 29.9384 27.9748 29.8734C27.9748 29.5108 28.2684 29.2177 28.6314 29.2177C28.663 29.2177 28.6955 29.2197 28.7265 29.2246C28.4768 29.3409 28.3029 29.5961 28.3029 29.8902C28.3029 30.2966 28.6314 30.6252 29.0374 30.6252C29.0812 30.6252 29.1226 30.6222 29.164 30.6153C29.1517 30.5715 29.1463 30.5271 29.1463 30.4799C29.1463 30.1882 29.3822 29.9532 29.6729 29.9532C29.9645 29.9532 30.2005 30.1882 30.2005 30.4799C30.2005 31.1139 29.497 31.172 28.9842 31.0247C27.524 30.603 26.1569 30.4153 24.8346 30.5991C23.1375 30.839 20.358 31.9859 17.4076 31.8903C16.7474 31.8696 16.0277 31.7597 15.303 31.5612C15.3917 31.6592 15.4488 31.7262 15.4867 31.7834C15.7739 32.2307 15.8725 32.6992 15.6193 33.2869C15.6262 32.6288 15.0828 32.0869 14.6276 31.7548C14.4438 31.6223 14.3699 31.4952 14.4005 31.3242L14.5345 30.5651C14.5246 30.6212 14.5295 30.6779 14.5468 30.7272C14.5635 30.7804 14.5921 30.8286 14.6335 30.869L14.9167 31.1469C15.0246 30.3784 14.8507 29.6631 14.3931 28.9995C14.5951 28.4709 14.6231 27.8861 14.4881 27.3393C14.4345 27.7541 14.231 27.9319 14.0379 28.0511C13.6792 28.2763 13.6196 28.6561 13.8058 28.9083C13.5024 28.7551 13.0846 28.1925 13.3265 27.8644C13.5871 27.5087 14.3014 27.6757 14.3891 27.0683C13.926 26.9215 13.4487 27.024 13.3038 27.0634C13.0294 26.7491 12.6649 26.5934 12.2116 26.5963C11.853 26.2712 11.3924 26.1362 10.8288 26.1914C10.2677 26.1362 9.80705 26.2717 9.44841 26.5963C8.99518 26.5934 8.63062 26.7496 8.35622 27.0634C8.2099 27.024 7.73352 26.9215 7.26945 27.0683C7.35763 27.6762 8.07048 27.5092 8.33208 27.8644C8.57446 28.1925 8.1562 28.7551 7.85323 28.9083C8.03994 28.6556 7.97934 28.2763 7.62021 28.0511C7.42857 27.9319 7.22412 27.7536 7.17092 27.3393C7.03544 27.8861 7.06451 28.4713 7.266 28.9995C6.80882 29.6631 6.63492 30.3784 6.74232 31.1469L7.02657 30.869C7.06795 30.8286 7.09702 30.7804 7.11328 30.7272C7.13052 30.6779 7.13397 30.6212 7.12313 30.5651L7.25861 31.3242C7.28866 31.4952 7.21624 31.6223 7.03248 31.7548C6.5758 32.0869 6.03291 32.6293 6.03981 33.2869C5.78708 32.6992 5.88857 32.21 6.17331 31.7834C5.30823 31.3164 4.64908 30.5488 4.52788 30.4084C4.2658 30.1035 4.30078 29.7163 4.53774 29.3763C4.99491 28.7226 5.10329 28.025 4.52986 27.5481C4.5338 27.5127 4.53577 27.4767 4.53577 27.4422C4.53577 27.0087 4.22787 26.6461 3.81749 26.5643C3.89385 26.6835 3.93819 26.8249 3.93819 26.9752C3.93819 27.1481 3.88055 27.3072 3.78301 27.4353C3.8638 27.5417 3.91208 27.6742 3.91208 27.8191C3.91208 28.0117 3.82538 28.1856 3.68793 28.3004C3.70172 28.2354 3.70763 28.1659 3.70763 28.094C3.70763 27.6481 3.43225 27.2747 3.05734 27.1722C2.99724 26.8486 2.71249 26.6023 2.37109 26.6023C2.17256 26.6023 1.99471 26.684 1.86712 26.8156C2.13167 26.8363 2.34498 27.0447 2.37405 27.3067C2.24744 27.4023 2.14595 27.5329 2.07945 27.6871H2.09669C2.55386 27.6871 2.92433 28.0575 2.92433 28.5147C2.92433 28.5659 2.9194 28.6177 2.91054 28.6659C2.87556 28.4792 2.79082 28.3053 2.65338 28.1713C2.39671 27.9206 2.02329 27.8688 1.68139 27.9994C1.5533 27.8383 1.35575 27.7348 1.13456 27.7348C0.883802 27.7348 0.664576 27.8659 0.540922 28.0634C0.793648 28.0743 1.01583 28.2019 1.15426 28.3945C0.795619 28.8546 0.791678 29.4896 1.15919 29.8493C1.40847 30.0921 1.76465 30.1478 2.09768 30.034C2.11935 30.0261 2.14201 30.0222 2.16763 30.0222C2.2903 30.0222 2.38932 30.1217 2.38932 30.2434C2.38932 30.3646 2.2903 30.4636 2.16763 30.4636C2.11443 30.4636 2.06467 30.4449 2.02723 30.4129C1.94348 30.3429 1.8346 30.3015 1.71735 30.3015C1.45034 30.3015 1.23309 30.5168 1.23309 30.7858C1.23309 30.8055 1.23407 30.8262 1.23703 30.8439C1.19121 30.8592 1.14293 30.8676 1.09268 30.8676C0.962132 30.8676 0.843405 30.8144 0.7567 30.7286C0.742906 30.7818 0.736009 30.837 0.736009 30.8932C0.736009 31.2351 0.999081 31.5144 1.33408 31.54C1.48433 31.9125 1.85037 32.1765 2.27749 32.1765C2.49672 32.1765 2.6987 32.1075 2.86521 31.9908C2.93812 31.9405 3.02532 31.91 3.11991 31.91C3.36574 31.91 3.56575 32.1095 3.56575 32.3553C3.56575 32.5677 3.41697 32.744 3.21893 32.7899L2.87211 32.8652C2.81595 32.879 2.75831 32.8756 2.70609 32.8598C2.65338 32.8475 2.60461 32.8194 2.56273 32.78L3.35589 33.5337C3.39825 33.5737 3.44752 33.5998 3.49974 33.6145C3.55245 33.6298 3.60861 33.6323 3.66477 33.6195L4.31506 33.4756C4.37122 33.4628 4.42837 33.4658 4.47961 33.4796C4.53084 33.4948 4.58257 33.5209 4.62395 33.5608L5.16832 34.0796C5.12546 34.0397 5.07669 34.0121 5.02299 33.9983C4.97176 33.9835 4.9151 33.9806 4.85796 33.9934L4.21013 34.1367C4.15397 34.1496 4.09633 34.1466 4.04509 34.1318C3.99287 34.118 3.94213 34.0914 3.90124 34.0515L4.62789 34.7402C4.66927 34.7806 4.71952 34.8077 4.77125 34.822C4.82396 34.8368 4.88062 34.8388 4.93727 34.826L5.58756 34.6841C5.6452 34.6713 5.70087 34.6742 5.75358 34.689C5.8058 34.7028 5.85507 34.7304 5.89743 34.7703L6.4418 35.2876C6.39944 35.2481 6.35017 35.2206 6.29795 35.2068C6.24524 35.192 6.18908 35.19 6.13193 35.2018L5.48361 35.3452C5.42597 35.358 5.36981 35.355 5.31759 35.3403C5.26488 35.3265 5.21561 35.2999 5.17325 35.26L5.90039 35.9487C5.94276 35.9891 5.99202 36.0162 6.04424 36.0295C6.09695 36.0448 6.15312 36.0472 6.21026 36.0344L6.99554 35.863C6.23292 36.2935 5.42105 36.7813 4.56089 37.3256C4.05199 37.6468 3.4958 37.7069 2.85684 37.4621C2.51347 37.3306 2.14103 37.3104 1.90604 37.3493C1.60011 37.4015 1.33999 37.5872 1.18875 37.8454C1.30748 37.7981 1.43655 37.7715 1.57301 37.7715C1.85825 37.7715 2.1159 37.8872 2.30409 38.0725C2.00654 37.9483 1.63755 37.9355 1.27792 38.0666C0.636988 38.2996 0.262579 38.905 0.408401 39.4474C0.168484 39.5391 0 39.7711 0 40.0421C0 40.2214 0.0734039 40.383 0.191638 40.4987C0.255189 40.214 0.503974 39.9997 0.804979 39.9889C0.930603 40.0721 1.07692 40.1302 1.23358 40.1618C1.28137 40.08 1.34147 40.0061 1.41044 39.9435C1.40256 39.8923 1.3996 39.8401 1.3996 39.7864C1.3996 39.2011 1.87402 38.7257 2.45977 38.7257C2.50805 38.7257 2.55534 38.7282 2.60263 38.7356C2.13758 38.8469 1.79076 39.2657 1.79076 39.7667C1.79076 39.8302 1.79667 39.8923 1.808 39.9524C1.55725 40.049 1.38039 40.2908 1.38039 40.5756C1.38039 40.7387 1.43852 40.8879 1.53655 41.0042C1.71637 40.6529 2.06664 40.4037 2.47898 40.3638C2.63416 40.4091 2.79821 40.4342 2.9667 40.4342C3.07311 40.4342 3.17706 40.4244 3.27805 40.4066C3.18691 40.2731 3.1337 40.113 3.1337 39.9401C3.1337 39.4849 3.5022 39.1164 3.95839 39.1164C3.99829 39.1164 4.03573 39.1188 4.07515 39.1243C3.63916 39.3085 3.37313 39.6869 3.46476 40.0317C3.52979 40.2761 3.75985 40.445 4.05741 40.5012C4.05347 40.684 4.00322 40.8559 3.91701 41.0052C4.2993 40.9776 4.62592 40.7475 4.78899 40.4204C5.23926 40.2396 5.51711 39.8534 5.4245 39.5026C5.391 39.377 5.31267 39.2711 5.20724 39.1918C5.20625 39.1794 5.20527 39.1666 5.20527 39.1553C5.20527 38.9144 5.40183 38.7178 5.64175 38.7178C5.88462 38.7178 6.0802 38.9144 6.0802 39.1553C6.0802 39.2696 6.03685 39.3735 5.96443 39.4514H6.88026C6.9379 39.4514 6.99307 39.4361 7.04037 39.411C7.08865 39.3859 7.13151 39.3484 7.16402 39.3001L7.75174 38.4291C7.77342 38.3966 7.80298 38.3715 7.83599 38.3538C7.8685 38.337 7.90495 38.3262 7.94535 38.3262H8.66412C8.62422 38.3262 8.58677 38.3365 8.55475 38.3538C8.52224 38.3715 8.49219 38.3961 8.471 38.4287L7.88082 39.3011C7.8483 39.3484 7.80593 39.3864 7.75765 39.4105C7.70987 39.4361 7.65568 39.4509 7.59755 39.4509L8.6922 39.4514C8.75033 39.4514 8.80501 39.4361 8.85132 39.411C8.90108 39.3859 8.94394 39.3484 8.97498 39.3001L9.63512 38.3272C9.18041 38.0779 8.99419 37.6424 8.99419 37.0438C8.99419 36.6714 9.20356 36.2467 9.23509 35.9733L9.2479 35.8644C9.2548 35.8063 9.24692 35.7511 9.22721 35.7009C9.21194 35.6595 9.17992 35.5999 9.14543 35.5595L9.70852 36.1364C9.75286 36.1738 9.78439 36.2216 9.8036 36.2719C9.82429 36.3221 9.83218 36.3783 9.82528 36.4369L9.80853 36.5679C9.78193 36.797 9.49324 37.2911 10.0287 37.7434C10.0553 37.766 10.1214 37.8138 10.1849 37.8528L10.5652 38.0922V36.6886H11.0973V38.2503C11.0983 38.3084 11.1155 38.3631 11.1421 38.4104C11.1687 38.4567 11.2062 38.4996 11.2554 38.5296L11.7752 38.8607C11.8259 38.8912 11.8801 38.909 11.9333 38.9129C11.9875 38.9169 12.0441 38.909 12.0964 38.8863L13.0555 38.4695C13.0023 38.4932 12.9462 38.5011 12.8925 38.4961C12.8383 38.4922 12.7836 38.4759 12.7353 38.4449L11.6343 37.7434C12.1693 37.2911 11.8801 36.797 11.8535 36.5679L11.8377 36.4369C11.8308 36.3783 11.8387 36.3221 11.8574 36.2719C11.8781 36.2216 11.9101 36.1738 11.9535 36.1364L12.5166 35.5595C12.4816 35.5999 12.4511 35.659 12.4348 35.7009C12.4161 35.7511 12.4082 35.8063 12.4146 35.8644L12.4269 35.9733C12.4723 36.3635 12.8678 37.0709 12.5383 37.466L13.5447 38.104C13.5945 38.1345 13.6487 38.1523 13.7019 38.1567C13.7561 38.1607 13.8127 38.1528 13.8659 38.1286L14.8685 37.6931C14.8148 37.7158 14.7596 37.7237 14.7064 37.7197C14.6522 37.7158 14.5975 37.699 14.5483 37.6675L13.4595 36.9754C13.6965 36.4901 13.4969 35.7181 13.2669 35.2713L13.2319 35.2053C13.2063 35.1541 13.1945 35.0974 13.1964 35.0432C13.1964 34.989 13.2102 34.9348 13.2393 34.8846L13.6127 34.2106C13.5851 34.2604 13.5713 34.3156 13.5713 34.3688C13.5694 34.423 13.5812 34.4781 13.6068 34.5299L13.7438 34.7974C13.8162 34.9284 13.8566 35.0087 13.9201 35.1634C14.5325 34.6112 14.6689 34.0791 14.2783 33.6254L14.162 33.4874C14.1246 33.4436 14.0995 33.3933 14.0881 33.3411C14.0753 33.2879 14.0753 33.2303 14.0911 33.1751L14.2906 32.4312C14.2753 32.4864 14.2753 32.5426 14.2867 32.5953C14.2995 32.6475 14.3241 32.6982 14.3625 32.7411L14.7458 33.1899C15.4907 34.0318 15.0404 35.1161 14.1512 35.9443C14.2004 36.1024 14.2428 36.3995 14.2073 36.5606L15.3877 37.3094C15.4375 37.3409 15.4912 37.3576 15.5459 37.3621C15.5991 37.367 15.6552 37.3581 15.7089 37.3355L16.5622 36.964C16.5139 36.9847 16.4592 36.997 16.404 36.997C16.1838 36.997 16.006 36.8192 16.006 36.6C16.006 36.4221 16.1218 36.2694 16.2833 36.2211C19.5422 35.2294 22.5419 32.6711 24.512 32.6765C25.4692 32.6805 26.2451 33.2593 26.2451 33.9776C26.2451 34.0934 26.2244 34.2057 26.1869 34.3136C25.7672 35.493 26.3786 36.6192 27.993 37.0537C28.2506 37.1227 28.4403 37.3581 28.4403 37.6365C28.4403 37.6907 28.4324 37.7444 28.4196 37.7931C28.4561 37.7971 28.4935 37.7986 28.5324 37.7986C28.9768 37.7986 29.3699 37.5769 29.6079 37.2394C29.8847 37.2374 30.1877 37.2207 30.4981 37.1882C30.5355 37.2636 30.5656 37.3498 30.5833 37.4424C30.6493 37.7823 30.5321 38.0882 30.3232 38.1557C29.9527 38.2764 29.4985 38.1321 29.1477 38.135C28.4841 38.1424 27.9477 38.6814 27.9477 39.346C27.9477 39.3987 27.9506 39.4499 27.9575 39.5011C27.7491 39.6302 27.6107 39.8618 27.6107 40.1243C27.6107 40.2554 27.6457 40.379 27.7048 40.4854C27.9092 40.2475 28.1757 40.0628 28.4792 39.9563C28.5048 39.3735 28.9852 38.909 29.5734 38.909C29.6635 38.909 29.7522 38.9198 29.8355 38.9405C29.2389 39.0154 28.7763 39.5253 28.7763 40.1426C28.7763 40.1869 28.7792 40.2312 28.7842 40.2761C28.7103 40.3647 28.6654 40.48 28.6654 40.6047C28.6654 40.7638 28.7369 40.9057 28.8482 41.0017C28.961 40.7549 29.2325 40.5229 29.5842 40.4042C29.8202 40.3253 30.0527 40.3091 30.2458 40.349C30.2143 40.2559 30.1995 40.1573 30.1995 40.0559C30.1995 39.5282 30.6252 39.1016 31.1528 39.1016C31.2011 39.1016 31.2494 39.1055 31.2962 39.1124C30.9286 39.1627 30.6459 39.477 30.6459 39.8568C30.6459 40.11 30.7705 40.3332 30.9612 40.4702C30.9612 40.483 30.9602 40.4968 30.9602 40.5106C30.9602 40.718 31.0553 40.9017 31.203 41.0234C31.2705 40.6776 31.5725 40.417 31.9391 40.417C32.2514 40.417 32.509 40.3771 32.7017 40.314C33.0278 40.2076 33.2657 39.9061 33.2657 39.5455C33.2657 39.2957 33.1524 39.072 32.9726 38.9252C33.0613 38.5203 33.0455 37.8552 32.9086 37.3025C32.9362 37.2985 32.9647 37.2966 32.9943 37.2966C33.2219 37.2961 33.4224 37.4128 33.5392 37.5907L33.5367 37.5872ZM16.9331 44.4512C16.9154 44.3625 16.9174 44.2724 16.9361 44.1817C16.9735 44.0078 17.1277 43.8773 17.3135 43.8773C17.5268 43.8773 17.6987 44.0502 17.6987 44.2635C17.6987 44.365 17.6593 44.4576 17.5952 44.5271C17.6677 44.5345 17.7416 44.5379 17.8184 44.5379C18.017 44.5379 18.2056 44.5133 18.3712 44.469C18.6431 44.396 18.8426 44.1482 18.8426 43.8536C18.8426 43.5019 18.5574 43.2176 18.2056 43.2176C18.1869 43.2176 18.1672 43.2176 18.148 43.2196C18.2357 43.1817 18.3347 43.1615 18.4377 43.1615C18.8456 43.1615 19.1771 43.492 19.1771 43.9009C19.1771 43.9216 19.1761 43.9438 19.1742 43.9635C20.2767 43.9399 21.5192 42.9339 21.7906 42.5506C21.4453 42.6294 21.0708 42.6733 20.6792 42.6733C20.2353 42.6733 19.8117 42.6191 19.4284 42.5171C18.886 42.3737 18.3529 42.2939 17.9431 42.2939C16.5898 42.2939 15.4941 43.1763 15.4941 44.2645C15.4941 45.1631 16.237 45.9489 17.2662 46.1592C19.6082 46.6371 22.3631 45.2463 24.6908 44.764C25.2726 44.195 25.9451 43.7201 26.685 43.3605C26.6633 43.2753 26.6515 43.1866 26.6515 43.0955V43.0896C23.5636 43.597 20.7851 45.1813 18.2756 45.1685C17.5721 45.166 17.0213 44.8951 16.9321 44.4502L16.9331 44.4512ZM16.8607 38.7518C16.908 38.7518 16.9543 38.7548 17.0001 38.7597C16.5375 38.8932 16.1641 39.2376 15.9912 39.6824C15.704 39.7775 15.4966 40.0485 15.4966 40.3682C15.4966 40.517 15.5419 40.6554 15.6193 40.7702C15.869 40.4918 16.1971 40.2835 16.5696 40.1825C16.676 39.647 17.1218 39.2341 17.6731 39.176C17.1918 39.3775 16.8538 39.8539 16.8538 40.4076C16.8538 40.6042 16.8967 40.7899 16.9725 40.9574C17.0578 40.6524 17.3371 40.4283 17.6687 40.4283C17.7524 40.4283 17.8327 40.4421 17.9056 40.4687C18.0096 40.5061 18.1209 40.5258 18.2357 40.5258C18.7702 40.5258 19.2037 40.0923 19.2037 39.5573C19.2037 39.4509 19.187 39.3479 19.1555 39.2514C19.4097 39.3253 19.5949 39.5603 19.5949 39.8391C19.5949 39.9667 19.5565 40.0839 19.49 40.1825C19.5614 40.1953 19.6343 40.2012 19.7097 40.2012C20.3388 40.2012 20.858 39.7282 20.9304 39.1188C21.2462 38.9469 21.5241 38.7154 21.763 38.4272L21.931 39.2464C21.9433 39.3036 21.9389 39.3597 21.9241 39.4125C21.9093 39.4637 21.8812 39.5139 21.8408 39.5543L22.5355 38.841C22.5759 38.7996 22.6035 38.7499 22.6173 38.6976C22.6325 38.6449 22.636 38.5888 22.6242 38.5326L22.4197 37.533C22.4079 37.4769 22.4108 37.4197 22.4266 37.3685C22.4419 37.3158 22.4695 37.267 22.5099 37.2251L23.0562 36.6679C23.0158 36.7093 22.9882 36.7586 22.9734 36.8113C22.9587 36.8635 22.9557 36.9197 22.9675 36.9773L23.172 37.9779C23.1843 38.034 23.1808 38.0907 23.1661 38.1429C23.1508 38.1942 23.1247 38.2429 23.0848 38.2843L23.704 37.6404C23.7439 37.599 23.7715 37.5493 23.7858 37.4985C23.8016 37.4458 23.8045 37.3887 23.7917 37.3325L23.5878 36.3349C23.5759 36.2788 23.5789 36.2216 23.5952 36.1699C23.6099 36.1177 23.6375 36.0684 23.6779 36.0265L24.2243 35.4698C24.1839 35.5112 24.1563 35.5605 24.1415 35.6132C24.1267 35.6654 24.1238 35.7216 24.1356 35.7777L24.341 36.7783C24.3528 36.835 24.3489 36.8921 24.3341 36.9433C24.3188 36.9946 24.2927 37.0433 24.2528 37.0847L24.8721 36.4413C24.9125 36.3999 24.9396 36.3507 24.9539 36.298C24.9696 36.2458 24.9726 36.1896 24.9608 36.1324L24.8612 35.6447C24.7563 35.0925 25.3263 34.457 25.779 34.3929C25.8332 34.288 25.8628 34.1747 25.8628 34.0574C25.8628 33.4973 25.1962 33.0431 24.3721 33.0431C23.9701 33.0431 23.6045 33.151 23.3355 33.3283C23.4434 33.6466 23.4661 33.9712 22.4103 34.1215C21.5724 34.2397 20.8359 34.4028 20.2757 34.8782C19.4126 35.6097 19.4826 36.5886 18.9914 36.9591C19.2096 37.0128 19.4875 37.0128 19.7846 36.9488C19.9723 36.9084 20.1457 36.8458 20.2994 36.7694C20.2077 36.9458 19.9969 37.1123 19.7205 37.231C19.6299 37.5769 19.3225 37.9069 18.9081 38.0606C18.6461 38.1572 18.3864 38.1671 18.1711 38.1055L17.1607 37.8128C17.0366 37.7774 16.9065 37.7587 16.7715 37.7587C16.0267 37.7587 15.4123 38.3326 15.3212 39.0745C14.97 39.1243 14.7 39.4258 14.7 39.7908C14.7 39.9248 14.7364 40.0499 14.8 40.1568C15.0424 39.911 15.3493 39.7282 15.6932 39.6351C15.837 39.1262 16.305 38.7528 16.8602 38.7528L16.8607 38.7518ZM11.4865 47.9687C11.549 47.6386 11.5747 47.3184 11.5623 47.0105L11.2672 47.3558C11.2091 47.2179 11.1707 47.1342 11.1308 47.0657C11.0983 47.0095 11.0707 46.9706 11.0323 46.9642C11.0125 46.974 10.9825 46.9898 10.9505 46.9977C10.913 47.0066 10.8613 47.0036 10.8288 47.0036C10.7992 47.0036 10.748 47.0066 10.7096 46.9977C10.678 46.9898 10.6485 46.974 10.6288 46.9642C10.5889 46.9711 10.5628 47.0095 10.5298 47.0657C10.4903 47.1337 10.4519 47.2174 10.3938 47.3558L10.0972 47.0105C10.0869 47.3184 10.111 47.6386 10.1736 47.9687C10.3918 47.9204 10.617 47.9037 10.8293 47.9037C11.0441 47.9037 11.2687 47.9204 11.4875 47.9687H11.4865ZM11.619 48.8569C11.652 48.4825 11.2268 48.349 10.8288 48.349C10.4327 48.349 10.008 48.4825 10.0406 48.8569C10.081 49.3131 10.5076 49.0959 10.8288 49.0978C11.152 49.0959 11.5786 49.3131 11.619 48.8569ZM12.7531 46.1602C12.6747 46.1819 12.6324 46.2272 12.6235 46.309C12.5772 46.7499 12.3984 46.9272 12.1131 47.0273C12.1092 47.4716 12.0476 47.8076 11.9274 48.2244C12.2663 48.9328 12.0062 49.4274 11.7318 49.5333C11.4697 49.6348 11.1323 49.4983 10.8332 49.4983C10.5337 49.4983 10.1913 49.6348 9.92923 49.5333C9.65384 49.4274 9.3952 48.9328 9.73266 48.2244C9.61344 47.8076 9.55088 47.4716 9.54841 47.0273C9.26268 46.9272 9.08336 46.7499 9.03656 46.309C9.02769 46.2272 8.98532 46.1814 8.90798 46.1602C7.78229 45.8518 7.67538 44.4532 8.24537 44.0571C8.19414 44.6833 8.14044 45.5676 9.42082 45.6848C9.40013 46.4198 9.7169 46.6164 10.045 46.6164C10.3125 46.6164 10.4662 46.5307 10.5327 46.4952C10.7707 46.3686 10.6066 46.176 10.5455 46.1188C10.3815 45.9656 10.2987 45.7483 10.3381 45.5321C10.345 45.4927 10.3598 45.473 10.3963 45.473H10.8288H11.2633C11.2998 45.473 11.316 45.4927 11.3219 45.5321C11.3613 45.7488 11.2781 45.9661 11.115 46.1188C11.0539 46.1765 10.8904 46.3686 11.1278 46.4952C11.1938 46.5307 11.348 46.6164 11.6155 46.6164C11.9427 46.6164 12.2609 46.4198 12.2397 45.6848C13.5196 45.5676 13.4654 44.6833 13.4152 44.0571C13.9852 44.4532 13.8773 45.8518 12.7526 46.1602H12.7531ZM13.0999 43.7192C13.0999 44.0413 12.8649 44.3985 12.5974 44.3985H12.3516C12.4136 44.4724 12.4516 44.5675 12.4516 44.6719C12.4516 44.9089 12.2589 45.1015 12.022 45.1015C11.784 45.1015 11.5909 44.9089 11.5909 44.6719C11.5909 44.567 11.6284 44.4724 11.6899 44.3985H11.4328C11.3446 44.3985 11.2766 44.434 11.2224 44.5369C11.2047 44.3985 11.1869 44.2561 11.2185 44.1606C11.2618 44.0315 11.3628 43.9532 11.4633 43.9532H12.5915C12.7999 43.9532 12.955 43.8832 13.1004 43.7192H13.0999ZM12.9506 43.1856H12.5565C12.3609 43.1856 12.2259 43.1058 12.1111 42.9733L11.6619 42.3866C11.588 42.2934 11.5283 42.2284 11.4328 42.1851H11.8766C12.0102 42.1851 12.1289 42.2432 12.2215 42.3619L12.69 42.957C12.7949 43.0836 12.8274 43.1679 12.9506 43.1851V43.1856ZM10.8948 42.2171L11.4697 43.025C11.5609 43.1575 11.6466 43.2314 11.7702 43.2817H11.2436C11.0411 43.2817 10.9199 43.1886 10.8303 43.0423L10.378 42.3491C10.2051 42.089 10.1371 42.024 9.93859 41.954H10.4273C10.6199 41.954 10.7997 42.0796 10.8943 42.2171H10.8948ZM9.59177 42.3624L10.0603 42.9575C10.1652 43.0841 10.1972 43.1679 10.3209 43.1856H9.92775C9.73118 43.1856 9.59571 43.1058 9.48141 42.9733L9.03163 42.3866C8.95773 42.2934 8.89911 42.2284 8.80255 42.1851H9.24692C9.38042 42.1851 9.49915 42.2432 9.59177 42.3619V42.3624ZM9.3085 44.399H9.06267C8.79615 44.399 8.56017 44.0413 8.56017 43.7196C8.70649 43.8837 8.86068 43.9536 9.07006 43.9536H10.1977C10.2987 43.9536 10.3992 44.032 10.4431 44.161C10.4746 44.2571 10.4568 44.399 10.4391 44.5374C10.3849 44.4345 10.3164 44.399 10.2288 44.399H9.97209C10.0332 44.4729 10.0701 44.568 10.0701 44.6724C10.0701 44.9094 9.8775 45.102 9.64054 45.102C9.40358 45.102 9.21095 44.9094 9.21095 44.6724C9.21095 44.5675 9.24741 44.4729 9.30948 44.399H9.3085ZM7.91776 49.7747L8.05423 49.5067C8.08083 49.4555 8.09167 49.4003 8.09068 49.3456C8.0897 49.2924 8.0759 49.2372 8.04782 49.187L8.42223 49.8604C8.44982 49.9117 8.46361 49.9664 8.4646 50.0205C8.46706 50.0747 8.45475 50.1299 8.42814 50.1821L8.39464 50.2481C8.16458 50.695 7.95028 51.5315 8.18823 52.0163C7.63302 51.8098 7.45025 51.3241 7.50936 50.9196C6.46447 49.9289 6.20189 48.9254 6.94726 48.084L7.32955 47.6367C7.36945 47.5933 7.39359 47.5416 7.40492 47.4893C7.41724 47.4371 7.41724 47.381 7.40295 47.3258L7.60247 48.0697C7.61627 48.1258 7.61725 48.1825 7.60494 48.2342C7.59311 48.2874 7.56848 48.3392 7.53104 48.3825L7.41478 48.519C7.02411 48.9732 7.12904 49.589 7.73992 50.1408C7.80396 49.9856 7.84584 49.9058 7.91776 49.7747ZM33.5372 52.567C33.5776 52.467 33.6002 52.3577 33.6002 52.2434C33.6002 51.7763 33.2219 51.396 32.7549 51.396H31.8991C31.841 51.396 31.7863 51.3822 31.7381 51.3561C31.6908 51.3315 31.6474 51.2935 31.6144 51.2467L31.1858 50.6132C31.2188 50.661 31.2612 50.6984 31.3095 50.7226C31.3567 50.7487 31.4124 50.7635 31.4705 50.7625L32.5977 50.7635C32.6558 50.7635 32.711 50.7773 32.7588 50.8034C32.8061 50.828 32.8499 50.8654 32.8825 50.9127L32.3647 50.1536C32.3322 50.1063 32.2888 50.0698 32.2406 50.0442C32.1933 50.0196 32.1376 50.0048 32.0804 50.0048L30.9621 50.0058C30.905 50.0058 30.8493 49.991 30.802 49.9664C30.7538 49.9407 30.7104 49.9038 30.6779 49.8555L30.1916 49.1402C30.2242 49.1885 30.2675 49.2254 30.3153 49.2496C30.3636 49.2752 30.4183 49.29 30.4764 49.2895L31.5981 49.289C31.6563 49.288 31.7115 49.3028 31.7592 49.3289C31.8075 49.3535 31.8504 49.39 31.8829 49.4382L31.3651 48.6796C31.3326 48.6323 31.2893 48.5943 31.241 48.5702C31.1937 48.5446 31.138 48.5303 31.0809 48.5303H30.1887C30.1306 48.5303 30.0759 48.5155 30.0276 48.4899C29.9798 48.4653 29.9365 48.4288 29.9039 48.3805L29.3039 47.5002C30.5158 47.3558 31.4942 46.6992 31.6888 45.7947C31.9405 44.6202 30.774 43.4822 29.0847 43.2344C28.8004 43.193 28.5832 42.9487 28.5832 42.6536C28.5832 42.4013 28.7413 42.187 28.9635 42.1033C28.7837 42.0259 28.5822 41.9826 28.3684 41.9826C27.6205 41.9826 27.0151 42.5181 27.0151 43.1787C27.0151 43.2974 27.0358 43.4132 27.0727 43.5216C26.2352 43.8832 25.4726 44.5241 24.8883 45.2168C25.5125 45.0508 26.1682 44.9621 26.8456 44.9621C26.8427 44.9306 26.8402 44.8985 26.8402 44.866C26.8402 44.3591 27.2491 43.9497 27.757 43.9497H27.7698C27.424 44.1014 27.256 44.4335 27.256 44.6532C27.256 44.9148 27.4683 45.1266 27.7289 45.1266C27.8309 45.1266 27.926 45.0951 28.0028 45.0404C27.9846 44.9803 27.9748 44.9178 27.9748 44.8517C27.9748 44.4892 28.2684 44.196 28.6314 44.196C28.663 44.196 28.6955 44.198 28.7265 44.2029C28.4768 44.3197 28.3029 44.5744 28.3029 44.8685C28.3029 45.2749 28.6314 45.6035 29.0374 45.6035C29.0812 45.6035 29.1226 45.6006 29.164 45.5927C29.1517 45.5503 29.1463 45.506 29.1463 45.4592C29.1463 45.1675 29.3822 44.9315 29.6729 44.9315C29.9645 44.9315 30.2005 45.1675 30.2005 45.4592C30.2005 46.0922 29.497 46.1508 28.9842 46.0035C27.524 45.5828 26.1569 45.3941 24.8346 45.5789C23.1375 45.8168 20.358 46.9647 17.4076 46.8686C16.7474 46.8484 16.0277 46.7381 15.303 46.54C15.3917 46.6366 15.4488 46.7051 15.4867 46.7622C15.7739 47.2095 15.8725 47.6785 15.6193 48.2658C15.6262 47.6076 15.0828 47.0667 14.6276 46.7346C14.4438 46.6011 14.3699 46.474 14.4005 46.3031L14.5345 45.5444C14.5246 45.6006 14.5295 45.6572 14.5468 45.7075C14.5635 45.7597 14.5921 45.808 14.6335 45.8488L14.9167 46.1262C15.0246 45.3577 14.8507 44.6424 14.3931 43.9798C14.5951 43.4502 14.6231 42.8664 14.4881 42.3181C14.4345 42.7329 14.231 42.9107 14.0379 43.0314C13.6792 43.2556 13.6196 43.6349 13.8058 43.8886C13.5024 43.7334 13.0846 43.1718 13.3265 42.8437C13.5871 42.489 14.3014 42.656 14.3891 42.0476C13.926 41.9008 13.4487 42.0043 13.3038 42.0437C13.0294 41.7284 12.6649 41.5722 12.2116 41.5752C11.853 41.2495 11.3924 41.115 10.8288 41.1712C10.2677 41.115 9.80705 41.2495 9.44841 41.5752C8.99518 41.5722 8.63062 41.7284 8.35622 42.0437C8.2099 42.0038 7.73352 41.9003 7.26945 42.0476C7.35763 42.6565 8.07048 42.4895 8.33208 42.8437C8.57446 43.1718 8.1562 43.7339 7.85323 43.8886C8.03994 43.6349 7.97934 43.2556 7.62021 43.0314C7.42857 42.9107 7.22412 42.7329 7.17092 42.3181C7.03544 42.8659 7.06451 43.4502 7.266 43.9798C6.80882 44.6424 6.63492 45.3572 6.74232 46.1262L7.02657 45.8488C7.06795 45.8084 7.09702 45.7597 7.11328 45.7075C7.13052 45.6567 7.13397 45.601 7.12313 45.5444L7.25861 46.3031C7.28866 46.474 7.21624 46.6011 7.03248 46.7346C6.5758 47.0667 6.03291 47.6076 6.03981 48.2658C5.78708 47.679 5.88857 47.1903 6.17331 46.7622C5.30823 46.2952 4.64908 45.5276 4.52788 45.3872C4.2658 45.0828 4.30078 44.6951 4.53774 44.3552C4.99491 43.6999 5.10329 43.0038 4.52986 42.5265C4.5338 42.492 4.53577 42.4565 4.53577 42.421C4.53577 41.987 4.22787 41.6259 3.81749 41.5436C3.89385 41.6619 3.93819 41.8033 3.93819 41.9545C3.93819 42.1274 3.88055 42.2865 3.78301 42.4136C3.8638 42.5201 3.91208 42.6536 3.91208 42.7979C3.91208 42.9915 3.82538 43.1639 3.68793 43.2797C3.70172 43.2137 3.70763 43.1437 3.70763 43.0733C3.70763 42.627 3.43225 42.2535 3.05734 42.1506C2.99724 41.8269 2.71249 41.5806 2.37109 41.5806C2.17256 41.5806 1.99471 41.6624 1.86712 41.7949C2.13167 41.8146 2.34498 42.023 2.37405 42.286C2.24744 42.3811 2.14595 42.5112 2.07945 42.6649L2.09669 42.6654C2.55386 42.6654 2.92433 43.0359 2.92433 43.493C2.92433 43.5443 2.9194 43.596 2.91054 43.6453C2.87556 43.4566 2.79082 43.2837 2.65338 43.1492C2.39671 42.8994 2.02329 42.8467 1.68139 42.9772C1.5533 42.8161 1.35575 42.7127 1.13456 42.7127C0.883802 42.7127 0.664576 42.8437 0.540922 43.0413C0.793648 43.0521 1.01583 43.1797 1.15426 43.3718C0.795619 43.832 0.791678 44.4685 1.15919 44.8271C1.40847 45.07 1.76465 45.1266 2.09768 45.0118C2.11935 45.004 2.14201 44.9995 2.16763 44.9995C2.2903 44.9995 2.38932 45.0986 2.38932 45.2212C2.38932 45.3424 2.2903 45.4414 2.16763 45.4414C2.11443 45.4414 2.06467 45.4227 2.02723 45.3907C1.94348 45.3207 1.8346 45.2794 1.71735 45.2794C1.45034 45.2794 1.23309 45.4956 1.23309 45.7631C1.23309 45.7833 1.23407 45.8035 1.23703 45.8222C1.19121 45.8375 1.14293 45.8449 1.09268 45.8449C0.962132 45.8449 0.843405 45.7917 0.7567 45.7065C0.742906 45.7592 0.736009 45.8144 0.736009 45.8715C0.736009 46.2124 0.999081 46.4917 1.33408 46.5174C1.48433 46.8908 1.85037 47.1534 2.27749 47.1534C2.49672 47.1534 2.6987 47.0844 2.86521 46.9676C2.93812 46.9164 3.02532 46.8868 3.11991 46.8868C3.36574 46.8868 3.56575 47.0864 3.56575 47.3322C3.56575 47.5445 3.41697 47.7214 3.21893 47.7662L2.87211 47.8436C2.81595 47.8559 2.75831 47.8534 2.70609 47.8381C2.65338 47.8243 2.60461 47.7977 2.56273 47.7573L3.35589 48.5111C3.39825 48.551 3.44752 48.5786 3.49974 48.5919C3.55245 48.6072 3.60861 48.6096 3.66477 48.5973L4.31506 48.453C4.37122 48.4402 4.42837 48.4431 4.47961 48.4579C4.53084 48.4717 4.58257 48.4983 4.62395 48.5387L5.16832 49.0564C5.12546 49.0161 5.07669 48.989 5.02299 48.9757C4.97176 48.9604 4.9151 48.9579 4.85796 48.9702L4.21013 49.1136C4.15397 49.1264 4.09633 49.1239 4.04509 49.1087C3.99287 49.0949 3.94213 49.0683 3.90124 49.0289L4.62789 49.7171C4.66927 49.7575 4.71952 49.7846 4.77125 49.7984C4.82396 49.8131 4.88062 49.8161 4.93727 49.8033L5.58756 49.6614C5.6452 49.6486 5.70087 49.6516 5.75358 49.6663C5.8058 49.6801 5.85507 49.7077 5.89743 49.7471L6.4418 50.2649C6.39944 50.225 6.35017 50.1974 6.29795 50.1836C6.24524 50.1688 6.18908 50.1659 6.13193 50.1787L5.48411 50.322C5.42647 50.3349 5.37031 50.3319 5.31808 50.3171C5.26537 50.3033 5.21611 50.2767 5.17374 50.2363L5.90088 50.9255C5.94325 50.9659 5.99251 50.9925 6.04473 51.0063C6.09745 51.0211 6.15361 51.0241 6.21075 51.0113L6.99603 50.8393C6.23342 51.2704 5.42154 51.7581 4.56138 52.3025C4.05248 52.6232 3.49629 52.6838 2.85733 52.4389C2.51396 52.3074 2.14152 52.2857 1.90653 52.3261C1.6006 52.3783 1.34048 52.5641 1.18924 52.8222C1.30797 52.7739 1.43704 52.7483 1.5735 52.7483C1.85874 52.7483 2.1164 52.8636 2.30459 53.0493C2.00703 52.9252 1.63804 52.9119 1.27841 53.0424C0.63748 53.2764 0.263072 53.8819 0.408894 54.4233C0.168977 54.5164 0.000492643 54.747 0.000492643 55.0189C0.000492643 55.1977 0.0738965 55.3588 0.192131 55.4751C0.255682 55.1908 0.504467 54.9765 0.805472 54.9657C0.931096 55.0485 1.07741 55.1071 1.23407 55.1386C1.28186 55.0568 1.34196 54.9825 1.41093 54.9204C1.40305 54.8691 1.40009 54.8169 1.40009 54.7637C1.40009 54.178 1.87451 53.7026 2.46026 53.7026C2.50854 53.7026 2.55583 53.7055 2.60313 53.7124C2.13807 53.8238 1.79125 54.243 1.79125 54.744C1.79125 54.8071 1.79716 54.8696 1.80849 54.9297C1.55774 55.0258 1.38088 55.2687 1.38088 55.5529C1.38088 55.716 1.43901 55.8653 1.53705 55.9815C1.71686 55.6303 2.06713 55.381 2.47947 55.3416C2.63466 55.3869 2.79871 55.4115 2.96719 55.4115C3.0736 55.4115 3.17755 55.4017 3.27854 55.384C3.1874 55.2505 3.1342 55.0908 3.1342 54.9179C3.1342 54.4627 3.50269 54.0927 3.95888 54.0927C3.99879 54.0927 4.03623 54.0957 4.07564 54.1016C3.63965 54.2859 3.37362 54.6642 3.46525 55.0081C3.53028 55.2529 3.76035 55.4219 4.0579 55.4771C4.05396 55.6608 4.00371 55.8328 3.9175 55.982C4.29979 55.9544 4.62641 55.7229 4.78948 55.3973C5.23975 55.2165 5.51761 54.8297 5.42499 54.4795C5.39149 54.3538 5.31316 54.2479 5.20773 54.1671C5.20675 54.1548 5.20576 54.1435 5.20576 54.1317C5.20576 53.8908 5.40233 53.6942 5.64224 53.6942C5.88512 53.6942 6.0807 53.8908 6.0807 54.1317C6.0807 54.246 6.03734 54.3499 5.96493 54.4277L6.88026 54.4282C6.9379 54.4282 6.99307 54.413 7.04037 54.3878C7.08865 54.3627 7.13151 54.3253 7.16402 54.277L7.75174 53.406C7.77342 53.3735 7.80298 53.3484 7.83599 53.3311C7.8685 53.3134 7.90495 53.303 7.94535 53.303H8.66412C8.62422 53.303 8.58677 53.3129 8.55475 53.3306C8.52224 53.3484 8.49219 53.373 8.471 53.4055L7.88082 54.2765C7.8483 54.3248 7.80593 54.3627 7.75765 54.3873C7.70987 54.413 7.65568 54.4277 7.59755 54.4277L8.6922 54.4282C8.75033 54.4282 8.80501 54.413 8.85132 54.3878C8.90108 54.3627 8.94394 54.3253 8.97498 54.277L9.63512 53.304C9.18041 53.0547 8.99419 52.6197 8.99419 52.0207C8.99419 51.6482 9.20356 51.2236 9.23509 50.9502L9.2479 50.8413C9.2548 50.7832 9.24692 50.727 9.22721 50.6768C9.21194 50.6364 9.17992 50.5767 9.14543 50.5363L9.70852 51.1132C9.75286 51.1507 9.78439 51.1985 9.8036 51.2487C9.82429 51.2995 9.83218 51.3551 9.82528 51.4128L9.80853 51.5453C9.78193 51.7744 9.49324 52.2685 10.0287 52.7207C10.0553 52.7434 10.1214 52.7897 10.1849 52.8301L10.5652 53.0695V51.666L11.0973 51.6655V53.2277C11.0983 53.2858 11.1155 53.3405 11.1421 53.3863C11.1687 53.4341 11.2062 53.4764 11.2554 53.507L11.7752 53.8376C11.8259 53.8681 11.8801 53.8858 11.9333 53.8903C11.9875 53.8942 12.0441 53.8863 12.0964 53.8627L13.0555 53.4464C13.0023 53.4691 12.9462 53.4779 12.8925 53.473C12.8383 53.4691 12.7836 53.4523 12.7353 53.4203L11.6343 52.7197C12.1693 52.2675 11.8801 51.7739 11.8535 51.5443L11.8377 51.4118C11.8308 51.3546 11.8387 51.2985 11.8574 51.2477C11.8781 51.1975 11.9101 51.1502 11.9535 51.1123L12.5166 50.5354C12.4816 50.5758 12.4511 50.6354 12.4348 50.6758C12.4161 50.7265 12.4082 50.7822 12.4146 50.8408L12.4269 50.9492C12.4723 51.3398 12.8678 52.0468 12.5383 52.4409L13.5447 53.0799C13.5945 53.1104 13.6487 53.1272 13.7019 53.1311C13.7561 53.136 13.8127 53.1281 13.8659 53.1045L14.8685 52.669C14.8148 52.6917 14.7596 52.6995 14.7064 52.6956C14.6522 52.6917 14.5975 52.6739 14.5483 52.6434L13.4595 51.9507C13.6965 51.465 13.4969 50.6935 13.2669 50.2472L13.2319 50.1812C13.2063 50.1284 13.1945 50.0733 13.1964 50.0191C13.1964 49.9649 13.2102 49.9107 13.2393 49.859L13.6127 49.185C13.5851 49.2358 13.5713 49.2909 13.5713 49.3442C13.5694 49.3983 13.5812 49.4535 13.6068 49.5052L13.7438 49.7728C13.8162 49.9043 13.8566 49.9841 13.9201 50.1393C14.5325 49.587 14.6689 49.0545 14.2783 48.6003L14.162 48.4638C14.1246 48.4204 14.0995 48.3687 14.0881 48.3155C14.0753 48.2633 14.0753 48.2071 14.0911 48.151L14.2906 47.4071C14.2753 47.4623 14.2753 47.5184 14.2867 47.5711C14.2995 47.6233 14.3241 47.6746 14.3625 47.7179L14.7458 48.1653C15.4907 49.0072 15.0404 50.0915 14.1512 50.9181C14.2004 51.0768 14.2428 51.3743 14.2073 51.5354L15.3877 52.2842C15.4375 52.3158 15.4912 52.3325 15.5459 52.337C15.5991 52.3419 15.6552 52.333 15.7089 52.3104L16.5622 51.9389C16.5139 51.9596 16.4592 51.9719 16.404 51.9719C16.1838 51.9719 16.006 51.7941 16.006 51.5748C16.006 51.397 16.1218 51.2443 16.2833 51.196C19.5422 50.2043 22.5419 47.646 24.512 47.6514C25.4692 47.6544 26.2451 48.2342 26.2451 48.9525C26.2451 49.0683 26.2244 49.1806 26.1869 49.2885C25.7672 50.4679 26.3786 51.5941 27.993 52.0276C28.2506 52.098 28.4403 52.333 28.4403 52.6114C28.4403 52.6656 28.4324 52.7188 28.4196 52.768C28.4561 52.772 28.4935 52.7729 28.5324 52.7729C28.9768 52.7729 29.3699 52.5518 29.6079 52.2138C29.8847 52.2118 30.1877 52.1951 30.4981 52.1626C30.5355 52.2379 30.5656 52.3237 30.5833 52.4168C30.6493 52.7552 30.5321 53.0626 30.3232 53.1301C29.9527 53.2508 29.4985 53.1065 29.1477 53.1094C28.4841 53.1163 27.9477 53.6558 27.9477 54.3203C27.9477 54.3731 27.9506 54.4238 27.9575 54.4745C27.7491 54.6051 27.6107 54.8357 27.6107 55.0987C27.6107 55.2298 27.6457 55.3534 27.7048 55.4598C27.9092 55.2204 28.1757 55.0371 28.4792 54.9302C28.5048 54.3474 28.9852 53.8834 29.5734 53.8834C29.6635 53.8834 29.7522 53.8942 29.8355 53.9149C29.2389 53.9898 28.7763 54.4997 28.7763 55.117C28.7763 55.1618 28.7792 55.2061 28.7842 55.2505C28.7103 55.3396 28.6654 55.4549 28.6654 55.5795C28.6654 55.7382 28.7369 55.8805 28.8482 55.9756C28.961 55.7298 29.2325 55.4978 29.5842 55.379C29.8202 55.3002 30.0527 55.284 30.2458 55.3239C30.2143 55.2307 30.1995 55.1322 30.1995 55.0293C30.1995 54.5026 30.6252 54.076 31.1528 54.076C31.2011 54.076 31.2494 54.0799 31.2962 54.0868C30.9286 54.1366 30.6459 54.4514 30.6459 54.8317C30.6459 55.0844 30.7705 55.3076 30.9612 55.4441C30.9612 55.4579 30.9602 55.4717 30.9602 55.4854C30.9602 55.6919 31.0553 55.8766 31.203 55.9978C31.2705 55.652 31.5725 55.3913 31.9391 55.3913C32.2514 55.3913 32.509 55.3514 32.7017 55.2884C33.0278 55.1815 33.2657 54.88 33.2657 54.5199C33.2657 54.2701 33.1524 54.0464 32.9726 53.8996C33.0613 53.4947 33.0455 52.8296 32.9086 52.2769C32.9362 52.2729 32.9647 52.2709 32.9943 52.2709C33.2219 52.2709 33.4224 52.3877 33.5392 52.5655L33.5372 52.567ZM45.3596 -0.000976562H44.2399V67.199H45.3596V-0.000976562Z" fill="#003087"/>
</svg>
