<svg width="36" height="36" viewBox="0 0 36 36" fill="none" xmlns="http://www.w3.org/2000/svg">
<circle cx="18" cy="18" r="18" fill="#221F20"/>
<path d="M7 12C12.0405 13.8645 17.081 15.7412 22.1215 17.6057C24.4509 18.4587 26.7671 19.324 29.1097 20.1527C29.7414 20.3842 30.0573 20.6889 29.9914 21.3591C29.9256 22.0172 29.9388 22.6874 29.9914 23.3455C30.0441 24.0401 29.7677 24.1132 29.1492 23.8817C25.9248 22.6752 22.7005 21.481 19.4762 20.2867C15.5017 18.8122 11.5272 17.3498 7.55274 15.8996C7.38165 15.8387 7.19741 15.8387 7.01316 15.8143C7 14.5348 7 13.2674 7 12Z" fill="white"/>
</svg>
