<svg width="36" height="36" viewBox="0 0 36 36" fill="none" xmlns="http://www.w3.org/2000/svg">
<circle cx="18" cy="18" r="18" fill="#3472AD"/>
<path d="M15.6666 8.66666H8.66665C7.38331 8.66666 6.34498 9.71666 6.34498 11L6.33331 25C6.33331 26.2833 7.38331 27.3333 8.66665 27.3333H27.3333C28.6166 27.3333 29.6666 26.2833 29.6666 25V13.3333C29.6666 12.05 28.6166 11 27.3333 11H18L15.6666 8.66666Z" fill="white"/>
<path d="M14.9986 12H9V19.0834H12.46C12.4188 20.425 12.1332 21.4092 11.6087 22.0103C11.0842 22.6114 10.1959 22.9721 9 23.0378V26C12.7071 25.8317 15 23.5684 15 18.7339L14.9986 12Z" fill="#3472AD"/>
</svg>
