<svg width="68" height="74" viewBox="0 0 68 74" fill="none" xmlns="http://www.w3.org/2000/svg">
<mask id="mask0_725_14" style="mask-type:luminance" maskUnits="userSpaceOnUse" x="0" y="0" width="68" height="74">
<path d="M0 0H68V74H0V0Z" fill="white"/>
</mask>
<g mask="url(#mask0_725_14)">
<mask id="mask1_725_14" style="mask-type:luminance" maskUnits="userSpaceOnUse" x="-18" y="-20" width="86" height="106">
<path d="M25.3794 -19.118C1.8436 -19.118 -17.2385 4.40339 -17.2385 33.422C-17.2385 62.4405 1.8436 85.962 25.3794 85.962C48.9178 85.962 68 62.4405 68 33.422C68 4.40339 48.9178 -19.118 25.3794 -19.118Z" fill="white"/>
</mask>
<g mask="url(#mask1_725_14)">
<path d="M-17.2385 -19.118H68V85.962H-17.2385V-19.118Z" fill="white"/>
</g>
</g>
<g clip-path="url(#clip0_725_14)">
<path d="M33.99 52.72C42.6498 52.72 49.67 45.6998 49.67 37.04C49.67 28.3802 42.6498 21.36 33.99 21.36C25.3302 21.36 18.31 28.3802 18.31 37.04C18.31 45.6998 25.3302 52.72 33.99 52.72Z" fill="#4125D0"/>
<path d="M38.76 27.46H29.23V37.13H34.73C34.7911 38.5663 34.3091 39.973 33.38 41.07C32.2077 42.0164 30.736 42.5129 29.23 42.47V46.47C35.11 46.24 38.76 43.16 38.76 36.58V27.46Z" fill="#F1F1F2"/>
</g>
<defs>
<clipPath id="clip0_725_14">
<rect width="32" height="32" fill="white" transform="translate(18 21)"/>
</clipPath>
</defs>
</svg>
