<svg width="60" height="60" viewBox="0 0 60 60" fill="none" xmlns="http://www.w3.org/2000/svg">
<g clip-path="url(#clip0_11560_426)">
<path d="M49.2757 51.1846C55.1891 51.1846 60 46.3737 60 40.4603C60 36.5047 57.8313 32.9037 54.4008 31.038C54.4853 30.5087 54.5279 29.9719 54.5279 29.4329C54.5279 23.8561 49.9909 19.3191 44.4141 19.3191C43.346 19.3191 42.3166 19.4868 41.3494 19.7951C41.3632 19.4779 41.3727 19.1604 41.3727 18.8434C41.3727 14.9892 40.3436 11.2063 38.3966 7.90359C36.5073 4.69875 33.8067 2.0202 30.5868 0.1575C30.2237 -0.0525 29.7762 -0.0525 29.4131 0.1575C26.193 2.0202 23.4926 4.69875 21.6033 7.90359C19.6563 11.2063 18.6272 14.9892 18.6272 18.8434C18.6272 19.0042 18.6316 19.1645 18.6352 19.3249C17.6377 19.1276 16.62 19.0264 15.5933 19.0264C12.3806 19.0264 9.2952 19.9958 6.67078 21.8299C4.10672 23.6218 2.15906 26.1059 1.0384 29.0136C0.805664 29.6175 1.1066 30.2958 1.71047 30.5285C1.8491 30.582 1.99148 30.6073 2.13164 30.6073C2.60215 30.6073 3.04605 30.3218 3.22535 29.8564C5.18168 24.7805 10.152 21.3701 15.5934 21.3701C16.6905 21.3701 17.7745 21.5058 18.8269 21.7697C19.2124 24.5946 20.1526 27.3223 21.6033 29.7831C23.3352 32.721 25.7503 35.2146 28.6211 37.045C27.5425 42.8829 22.656 47.2958 16.7653 47.8173V43.3443L22.1077 38.0019C22.5653 37.5443 22.5653 36.8023 22.1077 36.3445C21.65 35.8868 20.908 35.8869 20.4503 36.3445L16.7653 40.0295V31.308C16.7653 30.6608 16.2407 30.1362 15.5934 30.1362C14.9462 30.1362 14.4216 30.6608 14.4216 31.308V34.9754L12.135 32.6889C11.6774 32.2313 10.9354 32.2313 10.4776 32.6889C10.0199 33.1465 10.02 33.8885 10.4776 34.3463L14.4216 38.2902V47.8146C9.44941 47.3654 5.04035 44.0921 3.22547 39.3836C2.99262 38.7797 2.31445 38.479 1.71047 38.7116C1.1066 38.9443 0.805664 39.6226 1.03852 40.2266C2.1593 43.1343 4.10695 45.6183 6.6709 47.41C8.97457 49.0198 11.6333 49.9629 14.4214 50.1696V57.6562H1.17188C0.524648 57.6562 0 58.1809 0 58.8281C0 59.4754 0.524648 60 1.17188 60H58.8281C59.4754 60 60 59.4754 60 58.8281C60 58.1809 59.4754 57.6562 58.8281 57.6562H44.8348V50.2239C46.2183 50.8554 47.723 51.1846 49.2757 51.1846ZM52.1842 29.433C52.1842 30.098 52.1 30.7584 51.9341 31.3961C51.7887 31.9552 52.0724 32.5369 52.6025 32.7664C55.6725 34.0961 57.6562 37.1161 57.6562 40.4604C57.6562 45.0814 53.8968 48.8409 49.2757 48.8409C47.688 48.8409 46.1647 48.4015 44.8348 47.567V40.6927L49.4468 36.0806C49.9044 35.623 49.9044 34.881 49.4468 34.4232C48.9892 33.9656 48.2472 33.9656 47.7894 34.4232L44.8346 37.378V34.8432C44.8346 34.196 44.31 33.6714 43.6628 33.6714C43.0155 33.6714 42.4909 34.196 42.4909 34.8432V41.8542L39.8263 39.1896C39.3687 38.732 38.6266 38.732 38.1689 39.1896C37.7112 39.6472 37.7113 40.3893 38.1689 40.847L42.4908 45.1689V47.5963C41.2904 48.4117 39.8979 48.8408 38.4301 48.8408C34.4278 48.8408 31.1716 45.5846 31.1716 41.5823C31.1716 38.2372 33.4368 35.3402 36.6799 34.5375C37.0248 34.4521 37.3123 34.215 37.4617 33.8926C37.6111 33.5702 37.6061 33.1976 37.4483 32.8794C36.9144 31.8027 36.6437 30.6431 36.6437 29.4329C36.6437 25.1484 40.1295 21.6628 44.4138 21.6628C48.6982 21.6628 52.1842 25.1486 52.1842 29.433ZM20.9711 18.8434C20.9711 12.2285 24.4134 6.0443 30 2.5398C35.5866 6.04418 39.0289 12.2284 39.0289 18.8434C39.0289 19.5476 38.9889 20.2546 38.9129 20.9527C36.1393 22.7582 34.3002 25.8839 34.3002 29.4329C34.3002 30.0584 34.358 30.6731 34.4686 31.2755C33.4886 32.4316 32.3855 33.4603 31.1719 34.3507V20.7089L34.7734 17.1074C35.231 16.6498 35.231 15.9077 34.7734 15.45C34.3158 14.9924 33.5737 14.9924 33.116 15.45L31.1719 17.3944V12.4219C31.1719 11.7746 30.6472 11.25 30 11.25C29.3528 11.25 28.8281 11.7746 28.8281 12.4219V22.8834L25.9239 19.9792C25.4662 19.5216 24.7242 19.5216 24.2666 19.9792C23.809 20.4368 23.809 21.1788 24.2666 21.6364L28.8281 26.198V34.3474C23.9368 30.7479 20.9711 24.9818 20.9711 18.8434ZM16.7653 50.1689C21.8099 49.79 26.2505 46.9868 28.8281 42.8661V57.6562H16.7653V50.1689ZM31.1719 57.6562V47.858C32.9339 49.8933 35.5334 51.1847 38.4304 51.1847C39.8579 51.1847 41.2322 50.8782 42.491 50.2875V57.6562H31.1719Z" fill="#173148"/>
<path d="M53.0078 13.9843C56.8633 13.9843 60 10.8476 60 6.99211C60 3.13664 56.8634 0 53.0078 0C49.1522 0 46.0156 3.13664 46.0156 6.99223C46.0156 10.8478 49.1523 13.9843 53.0078 13.9843ZM53.0078 2.34375C55.571 2.34375 57.6563 4.42898 57.6563 6.99223C57.6563 9.55547 55.571 11.6407 53.0078 11.6407C50.4446 11.6407 48.3593 9.55547 48.3593 6.99223C48.3594 4.42898 50.4447 2.34375 53.0078 2.34375Z" fill="#173148"/>
<path d="M1.17188 35.7914C1.48008 35.7914 1.78242 35.6672 2.00039 35.4492C2.21836 35.2301 2.34375 34.9289 2.34375 34.6207C2.34375 34.3113 2.21836 34.0102 2.00039 33.791C1.78242 33.5731 1.48008 33.4477 1.17188 33.4477C0.863672 33.4477 0.561328 33.5731 0.343359 33.791C0.125391 34.009 0 34.3113 0 34.6207C0 34.9289 0.125391 35.2313 0.343359 35.4492C0.561328 35.6672 0.863672 35.7914 1.17188 35.7914Z" fill="#173148"/>
</g>
<defs>
<clipPath id="clip0_11560_426">
<rect width="60" height="60" fill="white"/>
</clipPath>
</defs>
</svg>
