<svg width="188" height="45" viewBox="0 0 188 45" fill="none" xmlns="http://www.w3.org/2000/svg">
<path d="M26.0568 12V3.27273H31.3239V4.21023H27.1136V7.15909H31.0511V8.09659H27.1136V11.0625H31.392V12H26.0568ZM33.1087 12V3.27273H38.3757V4.21023H34.1655V7.15909H38.103V8.09659H34.1655V11.0625H38.4439V12H33.1087ZM44.9333 5.45455C44.8822 5.02273 44.6748 4.6875 44.3111 4.44886C43.9475 4.21023 43.5015 4.09091 42.9731 4.09091C42.5867 4.09091 42.2486 4.15341 41.9589 4.27841C41.6719 4.40341 41.4475 4.57528 41.2856 4.79403C41.1265 5.01278 41.0469 5.26136 41.0469 5.53977C41.0469 5.77273 41.1023 5.97301 41.2131 6.14062C41.3268 6.3054 41.4716 6.44318 41.6478 6.55398C41.8239 6.66193 42.0086 6.75142 42.2018 6.82244C42.3949 6.89062 42.5725 6.94602 42.7344 6.98864L43.6208 7.22727C43.8481 7.28693 44.1009 7.36932 44.3793 7.47443C44.6606 7.57955 44.929 7.72301 45.1847 7.90483C45.4432 8.08381 45.6563 8.31392 45.8239 8.59517C45.9915 8.87642 46.0753 9.22159 46.0753 9.63068C46.0753 10.1023 45.9518 10.5284 45.7046 10.9091C45.4603 11.2898 45.1023 11.5923 44.6307 11.8168C44.162 12.0412 43.5924 12.1534 42.9219 12.1534C42.2969 12.1534 41.7557 12.0526 41.2984 11.8509C40.8438 11.6491 40.4859 11.3679 40.2245 11.0071C39.966 10.6463 39.8197 10.2273 39.7856 9.75H40.8765C40.9049 10.0795 41.0157 10.3523 41.2089 10.5682C41.4049 10.7812 41.652 10.9403 41.9503 11.0455C42.2515 11.1477 42.5753 11.1989 42.9219 11.1989C43.3253 11.1989 43.6876 11.1335 44.0086 11.0028C44.3296 10.8693 44.5839 10.6847 44.7714 10.4489C44.9589 10.2102 45.0526 9.93182 45.0526 9.61364C45.0526 9.32386 44.9716 9.08807 44.8097 8.90625C44.6478 8.72443 44.4347 8.5767 44.1705 8.46307C43.9063 8.34943 43.6208 8.25 43.314 8.16477L42.2401 7.85795C41.5583 7.66193 41.0185 7.3821 40.6208 7.01847C40.2231 6.65483 40.0242 6.17898 40.0242 5.59091C40.0242 5.10227 40.1563 4.67614 40.4205 4.3125C40.6876 3.94602 41.0455 3.66193 41.4944 3.46023C41.9461 3.25568 42.4503 3.15341 43.0072 3.15341C43.5697 3.15341 44.0697 3.25426 44.5072 3.45597C44.9447 3.65483 45.2913 3.92756 45.5469 4.27415C45.8055 4.62074 45.9418 5.0142 45.956 5.45455H44.9333ZM47.2156 4.21023V3.27273H53.7611V4.21023H51.0168V12H49.96V4.21023H47.2156ZM56.3289 3.27273V12H55.2721V3.27273H56.3289ZM33.4205 22.6364C33.4205 23.5568 33.2543 24.3523 32.9219 25.0227C32.5895 25.6932 32.1335 26.2102 31.554 26.5739C30.9744 26.9375 30.3125 27.1193 29.5682 27.1193C28.8239 27.1193 28.1619 26.9375 27.5824 26.5739C27.0028 26.2102 26.5469 25.6932 26.2145 25.0227C25.8821 24.3523 25.7159 23.5568 25.7159 22.6364C25.7159 21.7159 25.8821 20.9205 26.2145 20.25C26.5469 19.5795 27.0028 19.0625 27.5824 18.6989C28.1619 18.3352 28.8239 18.1534 29.5682 18.1534C30.3125 18.1534 30.9744 18.3352 31.554 18.6989C32.1335 19.0625 32.5895 19.5795 32.9219 20.25C33.2543 20.9205 33.4205 21.7159 33.4205 22.6364ZM32.3977 22.6364C32.3977 21.8807 32.2713 21.2429 32.0185 20.723C31.7685 20.2031 31.429 19.8097 31 19.5426C30.5739 19.2756 30.0966 19.142 29.5682 19.142C29.0398 19.142 28.5611 19.2756 28.1321 19.5426C27.706 19.8097 27.3665 20.2031 27.1136 20.723C26.8636 21.2429 26.7386 21.8807 26.7386 22.6364C26.7386 23.392 26.8636 24.0298 27.1136 24.5497C27.3665 25.0696 27.706 25.4631 28.1321 25.7301C28.5611 25.9972 29.0398 26.1307 29.5682 26.1307C30.0966 26.1307 30.5739 25.9972 31 25.7301C31.429 25.4631 31.7685 25.0696 32.0185 24.5497C32.2713 24.0298 32.3977 23.392 32.3977 22.6364ZM28.2557 17.4034L27.4716 17.3693C27.4716 16.9347 27.5952 16.5795 27.8423 16.304C28.0923 16.0256 28.4006 15.8864 28.767 15.8864C28.929 15.8864 29.0724 15.9148 29.1974 15.9716C29.3224 16.0256 29.4418 16.0881 29.5554 16.1591C29.669 16.2301 29.7855 16.294 29.9048 16.3509C30.027 16.4048 30.1648 16.4318 30.3182 16.4318C30.4801 16.4318 30.6165 16.3693 30.7273 16.2443C30.8409 16.1165 30.8977 15.9631 30.8977 15.7841L31.6648 15.8523C31.6648 16.2955 31.5398 16.6477 31.2898 16.9091C31.0426 17.1705 30.7358 17.3011 30.3693 17.3011C30.1733 17.3011 30.0114 17.2741 29.8835 17.2202C29.7557 17.1634 29.642 17.0994 29.5426 17.0284C29.4432 16.9574 29.3381 16.8949 29.2273 16.8409C29.1165 16.7841 28.9801 16.7557 28.8182 16.7557C28.6562 16.7557 28.5213 16.8196 28.4134 16.9474C28.3082 17.0724 28.2557 17.2244 28.2557 17.4034ZM36.1343 18.2727V27H35.0774V18.2727H36.1343ZM44.0991 21C44.0054 20.7131 43.8818 20.456 43.7284 20.2287C43.5778 19.9986 43.3974 19.8026 43.1872 19.6406C42.9798 19.4787 42.744 19.3551 42.4798 19.2699C42.2156 19.1847 41.9258 19.142 41.6105 19.142C41.0935 19.142 40.6233 19.2756 40.2 19.5426C39.7767 19.8097 39.44 20.2031 39.19 20.723C38.94 21.2429 38.815 21.8807 38.815 22.6364C38.815 23.392 38.9415 24.0298 39.1943 24.5497C39.4471 25.0696 39.7895 25.4631 40.2213 25.7301C40.6531 25.9972 41.1389 26.1307 41.6787 26.1307C42.1787 26.1307 42.619 26.0241 42.9997 25.8111C43.3832 25.5952 43.6815 25.2912 43.8946 24.8991C44.1105 24.5043 44.2185 24.0398 44.2185 23.5057L44.5423 23.5739H41.9173V22.6364H45.2412V23.5739C45.2412 24.2926 45.0878 24.9176 44.781 25.4489C44.477 25.9801 44.0565 26.392 43.5196 26.6847C42.9855 26.9744 42.3719 27.1193 41.6787 27.1193C40.906 27.1193 40.227 26.9375 39.6417 26.5739C39.0594 26.2102 38.6048 25.6932 38.2781 25.0227C37.9542 24.3523 37.7923 23.5568 37.7923 22.6364C37.7923 21.946 37.8846 21.3253 38.0693 20.7741C38.2568 20.2202 38.521 19.7486 38.8619 19.3594C39.2028 18.9702 39.6062 18.6719 40.0721 18.4645C40.5381 18.2571 41.0508 18.1534 41.6105 18.1534C42.0707 18.1534 42.4997 18.223 42.8974 18.3622C43.298 18.4986 43.6545 18.6932 43.967 18.946C44.2824 19.196 44.5452 19.4957 44.7554 19.8452C44.9656 20.1918 45.1105 20.5767 45.19 21H44.0991ZM46.9312 27V18.2727H52.1982V19.2102H47.988V22.1591H51.9255V23.0966H47.988V26.0625H52.2664V27H46.9312ZM53.9831 27V18.2727H55.0399V22.6023H55.1422L59.0626 18.2727H60.4433L56.7785 22.2102L60.4433 27H59.1649L56.1308 22.9432L55.0399 24.1705V27H53.9831ZM61.6912 27V18.2727H66.9582V19.2102H62.748V22.1591H66.6855V23.0966H62.748V26.0625H67.0264V27H61.6912ZM68.7431 27V18.2727H74.0101V19.2102H69.7999V22.1591H73.7374V23.0966H69.7999V26.0625H74.0783V27H68.7431ZM75.7949 27V18.2727H76.8518V26.0625H80.9086V27H75.7949ZM87.1977 20.4545C87.1465 20.0227 86.9391 19.6875 86.5755 19.4489C86.2119 19.2102 85.7659 19.0909 85.2374 19.0909C84.8511 19.0909 84.513 19.1534 84.2232 19.2784C83.9363 19.4034 83.7119 19.5753 83.5499 19.794C83.3909 20.0128 83.3113 20.2614 83.3113 20.5398C83.3113 20.7727 83.3667 20.973 83.4775 21.1406C83.5911 21.3054 83.736 21.4432 83.9122 21.554C84.0883 21.6619 84.273 21.7514 84.4661 21.8224C84.6593 21.8906 84.8369 21.946 84.9988 21.9886L85.8852 22.2273C86.1124 22.2869 86.3653 22.3693 86.6437 22.4744C86.9249 22.5795 87.1934 22.723 87.4491 22.9048C87.7076 23.0838 87.9207 23.3139 88.0883 23.5952C88.2559 23.8764 88.3397 24.2216 88.3397 24.6307C88.3397 25.1023 88.2161 25.5284 87.969 25.9091C87.7247 26.2898 87.3667 26.5923 86.8951 26.8168C86.4264 27.0412 85.8568 27.1534 85.1863 27.1534C84.5613 27.1534 84.0201 27.0526 83.5627 26.8509C83.1082 26.6491 82.7502 26.3679 82.4889 26.0071C82.2303 25.6463 82.084 25.2273 82.0499 24.75H83.1409C83.1693 25.0795 83.2801 25.3523 83.4732 25.5682C83.6693 25.7812 83.9164 25.9403 84.2147 26.0455C84.5159 26.1477 84.8397 26.1989 85.1863 26.1989C85.5897 26.1989 85.9519 26.1335 86.273 26.0028C86.594 25.8693 86.8482 25.6847 87.0357 25.4489C87.2232 25.2102 87.317 24.9318 87.317 24.6136C87.317 24.3239 87.236 24.0881 87.0741 23.9062C86.9122 23.7244 86.6991 23.5767 86.4349 23.4631C86.1707 23.3494 85.8852 23.25 85.5784 23.1648L84.5045 22.858C83.8227 22.6619 83.2829 22.3821 82.8852 22.0185C82.4874 21.6548 82.2886 21.179 82.2886 20.5909C82.2886 20.1023 82.4207 19.6761 82.6849 19.3125C82.9519 18.946 83.3099 18.6619 83.7588 18.4602C84.2105 18.2557 84.7147 18.1534 85.2715 18.1534C85.834 18.1534 86.334 18.2543 86.7715 18.456C87.209 18.6548 87.5556 18.9276 87.8113 19.2741C88.0698 19.6207 88.2062 20.0142 88.2204 20.4545H87.1977ZM95.6846 18.2727H96.7414V24.0511C96.7414 24.6477 96.6008 25.1804 96.3195 25.6491C96.0411 26.1151 95.6476 26.483 95.1391 26.7528C94.6306 27.0199 94.034 27.1534 93.3493 27.1534C92.6647 27.1534 92.0681 27.0199 91.5596 26.7528C91.051 26.483 90.6561 26.1151 90.3749 25.6491C90.0965 25.1804 89.9573 24.6477 89.9573 24.0511V18.2727H91.0141V23.9659C91.0141 24.392 91.1079 24.7713 91.2954 25.1037C91.4829 25.4332 91.7499 25.6932 92.0965 25.8835C92.4459 26.071 92.8635 26.1648 93.3493 26.1648C93.8351 26.1648 94.2527 26.071 94.6022 25.8835C94.9516 25.6932 95.2186 25.4332 95.4033 25.1037C95.5908 24.7713 95.6846 24.392 95.6846 23.9659V18.2727ZM103.505 20.4545C103.453 20.0227 103.246 19.6875 102.882 19.4489C102.519 19.2102 102.073 19.0909 101.544 19.0909C101.158 19.0909 100.82 19.1534 100.53 19.2784C100.243 19.4034 100.019 19.5753 99.8568 19.794C99.6977 20.0128 99.6182 20.2614 99.6182 20.5398C99.6182 20.7727 99.6736 20.973 99.7844 21.1406C99.898 21.3054 100.043 21.4432 100.219 21.554C100.395 21.6619 100.58 21.7514 100.773 21.8224C100.966 21.8906 101.144 21.946 101.306 21.9886L102.192 22.2273C102.419 22.2869 102.672 22.3693 102.951 22.4744C103.232 22.5795 103.5 22.723 103.756 22.9048C104.014 23.0838 104.228 23.3139 104.395 23.5952C104.563 23.8764 104.647 24.2216 104.647 24.6307C104.647 25.1023 104.523 25.5284 104.276 25.9091C104.032 26.2898 103.674 26.5923 103.202 26.8168C102.733 27.0412 102.164 27.1534 101.493 27.1534C100.868 27.1534 100.327 27.0526 99.8696 26.8509C99.4151 26.6491 99.0571 26.3679 98.7957 26.0071C98.5372 25.6463 98.3909 25.2273 98.3568 24.75H99.4477C99.4761 25.0795 99.5869 25.3523 99.7801 25.5682C99.9761 25.7812 100.223 25.9403 100.522 26.0455C100.823 26.1477 101.147 26.1989 101.493 26.1989C101.897 26.1989 102.259 26.1335 102.58 26.0028C102.901 25.8693 103.155 25.6847 103.343 25.4489C103.53 25.2102 103.624 24.9318 103.624 24.6136C103.624 24.3239 103.543 24.0881 103.381 23.9062C103.219 23.7244 103.006 23.5767 102.742 23.4631C102.478 23.3494 102.192 23.25 101.885 23.1648L100.811 22.858C100.13 22.6619 99.5898 22.3821 99.192 22.0185C98.7943 21.6548 98.5955 21.179 98.5955 20.5909C98.5955 20.1023 98.7276 19.6761 98.9918 19.3125C99.2588 18.946 99.6168 18.6619 100.066 18.4602C100.517 18.2557 101.022 18.1534 101.578 18.1534C102.141 18.1534 102.641 18.2543 103.078 18.456C103.516 18.6548 103.863 18.9276 104.118 19.2741C104.377 19.6207 104.513 20.0142 104.527 20.4545H103.505ZM111.037 20.4545C110.986 20.0227 110.778 19.6875 110.415 19.4489C110.051 19.2102 109.605 19.0909 109.077 19.0909C108.69 19.0909 108.352 19.1534 108.062 19.2784C107.776 19.4034 107.551 19.5753 107.389 19.794C107.23 20.0128 107.151 20.2614 107.151 20.5398C107.151 20.7727 107.206 20.973 107.317 21.1406C107.43 21.3054 107.575 21.4432 107.751 21.554C107.928 21.6619 108.112 21.7514 108.305 21.8224C108.499 21.8906 108.676 21.946 108.838 21.9886L109.724 22.2273C109.952 22.2869 110.205 22.3693 110.483 22.4744C110.764 22.5795 111.033 22.723 111.288 22.9048C111.547 23.0838 111.76 23.3139 111.928 23.5952C112.095 23.8764 112.179 24.2216 112.179 24.6307C112.179 25.1023 112.055 25.5284 111.808 25.9091C111.564 26.2898 111.206 26.5923 110.734 26.8168C110.266 27.0412 109.696 27.1534 109.026 27.1534C108.401 27.1534 107.859 27.0526 107.402 26.8509C106.947 26.6491 106.589 26.3679 106.328 26.0071C106.07 25.6463 105.923 25.2273 105.889 24.75H106.98C107.008 25.0795 107.119 25.3523 107.312 25.5682C107.508 25.7812 107.756 25.9403 108.054 26.0455C108.355 26.1477 108.679 26.1989 109.026 26.1989C109.429 26.1989 109.791 26.1335 110.112 26.0028C110.433 25.8693 110.687 25.6847 110.875 25.4489C111.062 25.2102 111.156 24.9318 111.156 24.6136C111.156 24.3239 111.075 24.0881 110.913 23.9062C110.751 23.7244 110.538 23.5767 110.274 23.4631C110.01 23.3494 109.724 23.25 109.418 23.1648L108.344 22.858C107.662 22.6619 107.122 22.3821 106.724 22.0185C106.327 21.6548 106.128 21.179 106.128 20.5909C106.128 20.1023 106.26 19.6761 106.524 19.3125C106.791 18.946 107.149 18.6619 107.598 18.4602C108.05 18.2557 108.554 18.1534 109.111 18.1534C109.673 18.1534 110.173 18.2543 110.611 18.456C111.048 18.6548 111.395 18.9276 111.651 19.2741C111.909 19.6207 112.045 20.0142 112.06 20.4545H111.037ZM121.16 22.6364C121.16 23.5568 120.994 24.3523 120.662 25.0227C120.329 25.6932 119.873 26.2102 119.294 26.5739C118.714 26.9375 118.052 27.1193 117.308 27.1193C116.564 27.1193 115.902 26.9375 115.322 26.5739C114.743 26.2102 114.287 25.6932 113.954 25.0227C113.622 24.3523 113.456 23.5568 113.456 22.6364C113.456 21.7159 113.622 20.9205 113.954 20.25C114.287 19.5795 114.743 19.0625 115.322 18.6989C115.902 18.3352 116.564 18.1534 117.308 18.1534C118.052 18.1534 118.714 18.3352 119.294 18.6989C119.873 19.0625 120.329 19.5795 120.662 20.25C120.994 20.9205 121.16 21.7159 121.16 22.6364ZM120.137 22.6364C120.137 21.8807 120.011 21.2429 119.758 20.723C119.508 20.2031 119.169 19.8097 118.74 19.5426C118.314 19.2756 117.836 19.142 117.308 19.142C116.779 19.142 116.301 19.2756 115.872 19.5426C115.446 19.8097 115.106 20.2031 114.853 20.723C114.603 21.2429 114.478 21.8807 114.478 22.6364C114.478 23.392 114.603 24.0298 114.853 24.5497C115.106 25.0696 115.446 25.4631 115.872 25.7301C116.301 25.9972 116.779 26.1307 117.308 26.1307C117.836 26.1307 118.314 25.9972 118.74 25.7301C119.169 25.4631 119.508 25.0696 119.758 24.5497C120.011 24.0298 120.137 23.392 120.137 22.6364ZM115.995 17.4034L115.211 17.3693C115.211 16.9347 115.335 16.5795 115.582 16.304C115.832 16.0256 116.14 15.8864 116.507 15.8864C116.669 15.8864 116.812 15.9148 116.937 15.9716C117.062 16.0256 117.181 16.0881 117.295 16.1591C117.409 16.2301 117.525 16.294 117.645 16.3509C117.767 16.4048 117.904 16.4318 118.058 16.4318C118.22 16.4318 118.356 16.3693 118.467 16.2443C118.581 16.1165 118.637 15.9631 118.637 15.7841L119.404 15.8523C119.404 16.2955 119.279 16.6477 119.029 16.9091C118.782 17.1705 118.475 17.3011 118.109 17.3011C117.913 17.3011 117.751 17.2741 117.623 17.2202C117.495 17.1634 117.382 17.0994 117.282 17.0284C117.183 16.9574 117.078 16.8949 116.967 16.8409C116.856 16.7841 116.72 16.7557 116.558 16.7557C116.396 16.7557 116.261 16.8196 116.153 16.9474C116.048 17.0724 115.995 17.2244 115.995 17.4034ZM129.738 18.2727V27H128.715L123.959 20.1477H123.874V27H122.817V18.2727H123.84L128.613 25.142H128.698V18.2727H129.738ZM132.09 27H130.982L134.187 18.2727H135.278L138.482 27H137.374L134.766 19.6534H134.698L132.09 27ZM132.499 23.5909H136.965V24.5284H132.499V23.5909ZM139.722 27V18.2727H142.671C143.352 18.2727 143.912 18.3892 144.349 18.6222C144.787 18.8523 145.111 19.169 145.321 19.5724C145.531 19.9759 145.636 20.4347 145.636 20.9489C145.636 21.4631 145.531 21.919 145.321 22.3168C145.111 22.7145 144.788 23.027 144.354 23.2543C143.919 23.4787 143.364 23.5909 142.688 23.5909H140.301V22.6364H142.653C143.119 22.6364 143.494 22.5682 143.778 22.4318C144.065 22.2955 144.273 22.1023 144.401 21.8523C144.531 21.5994 144.597 21.2983 144.597 20.9489C144.597 20.5994 144.531 20.294 144.401 20.0327C144.27 19.7713 144.061 19.5696 143.774 19.4276C143.487 19.2827 143.108 19.2102 142.636 19.2102H140.778V27H139.722ZM143.83 23.0795L145.977 27H144.75L142.636 23.0795H143.83ZM147.635 27H146.527L149.732 18.2727H150.823L154.027 27H152.919L150.312 19.6534H150.243L147.635 27ZM148.044 23.5909H152.51V24.5284H148.044V23.5909ZM155.625 27H154.517L157.721 18.2727H158.812L162.017 27H160.909L158.301 19.6534H158.233L155.625 27ZM156.034 23.5909H160.5V24.5284H156.034V23.5909ZM163.256 18.2727H164.518L167.483 25.517H167.586L170.552 18.2727H171.813V27H170.824V20.3693H170.739L168.012 27H167.057L164.33 20.3693H164.245V27H163.256V18.2727ZM174.17 27H173.062L176.267 18.2727H177.357L180.562 27H179.454L176.846 19.6534H176.778L174.17 27ZM174.579 23.5909H179.045V24.5284H174.579V23.5909ZM180.305 19.2102V18.2727H186.85V19.2102H184.106V27H183.049V19.2102H180.305ZM33.4205 37.6364C33.4205 38.5568 33.2543 39.3523 32.9219 40.0227C32.5895 40.6932 32.1335 41.2102 31.554 41.5739C30.9744 41.9375 30.3125 42.1193 29.5682 42.1193C28.8239 42.1193 28.1619 41.9375 27.5824 41.5739C27.0028 41.2102 26.5469 40.6932 26.2145 40.0227C25.8821 39.3523 25.7159 38.5568 25.7159 37.6364C25.7159 36.7159 25.8821 35.9205 26.2145 35.25C26.5469 34.5795 27.0028 34.0625 27.5824 33.6989C28.1619 33.3352 28.8239 33.1534 29.5682 33.1534C30.3125 33.1534 30.9744 33.3352 31.554 33.6989C32.1335 34.0625 32.5895 34.5795 32.9219 35.25C33.2543 35.9205 33.4205 36.7159 33.4205 37.6364ZM32.3977 37.6364C32.3977 36.8807 32.2713 36.2429 32.0185 35.723C31.7685 35.2031 31.429 34.8097 31 34.5426C30.5739 34.2756 30.0966 34.142 29.5682 34.142C29.0398 34.142 28.5611 34.2756 28.1321 34.5426C27.706 34.8097 27.3665 35.2031 27.1136 35.723C26.8636 36.2429 26.7386 36.8807 26.7386 37.6364C26.7386 38.392 26.8636 39.0298 27.1136 39.5497C27.3665 40.0696 27.706 40.4631 28.1321 40.7301C28.5611 40.9972 29.0398 41.1307 29.5682 41.1307C30.0966 41.1307 30.5739 40.9972 31 40.7301C31.429 40.4631 31.7685 40.0696 32.0185 39.5497C32.2713 39.0298 32.3977 38.392 32.3977 37.6364ZM28.2557 32.4034L27.4716 32.3693C27.4716 31.9347 27.5952 31.5795 27.8423 31.304C28.0923 31.0256 28.4006 30.8864 28.767 30.8864C28.929 30.8864 29.0724 30.9148 29.1974 30.9716C29.3224 31.0256 29.4418 31.0881 29.5554 31.1591C29.669 31.2301 29.7855 31.294 29.9048 31.3509C30.027 31.4048 30.1648 31.4318 30.3182 31.4318C30.4801 31.4318 30.6165 31.3693 30.7273 31.2443C30.8409 31.1165 30.8977 30.9631 30.8977 30.7841L31.6648 30.8523C31.6648 31.2955 31.5398 31.6477 31.2898 31.9091C31.0426 32.1705 30.7358 32.3011 30.3693 32.3011C30.1733 32.3011 30.0114 32.2741 29.8835 32.2202C29.7557 32.1634 29.642 32.0994 29.5426 32.0284C29.4432 31.9574 29.3381 31.8949 29.2273 31.8409C29.1165 31.7841 28.9801 31.7557 28.8182 31.7557C28.6562 31.7557 28.5213 31.8196 28.4134 31.9474C28.3082 32.0724 28.2557 32.2244 28.2557 32.4034ZM39.8502 35.4545C39.799 35.0227 39.5916 34.6875 39.228 34.4489C38.8644 34.2102 38.4184 34.0909 37.8899 34.0909C37.5036 34.0909 37.1655 34.1534 36.8757 34.2784C36.5888 34.4034 36.3644 34.5753 36.2024 34.794C36.0434 35.0128 35.9638 35.2614 35.9638 35.5398C35.9638 35.7727 36.0192 35.973 36.13 36.1406C36.2436 36.3054 36.3885 36.4432 36.5647 36.554C36.7408 36.6619 36.9255 36.7514 37.1186 36.8224C37.3118 36.8906 37.4894 36.946 37.6513 36.9886L38.5377 37.2273C38.7649 37.2869 39.0178 37.3693 39.2962 37.4744C39.5774 37.5795 39.8459 37.723 40.1016 37.9048C40.3601 38.0838 40.5732 38.3139 40.7408 38.5952C40.9084 38.8764 40.9922 39.2216 40.9922 39.6307C40.9922 40.1023 40.8686 40.5284 40.6215 40.9091C40.3772 41.2898 40.0192 41.5923 39.5476 41.8168C39.0789 42.0412 38.5093 42.1534 37.8388 42.1534C37.2138 42.1534 36.6726 42.0526 36.2152 41.8509C35.7607 41.6491 35.4027 41.3679 35.1414 41.0071C34.8828 40.6463 34.7365 40.2273 34.7024 39.75H35.7934C35.8218 40.0795 35.9326 40.3523 36.1257 40.5682C36.3218 40.7812 36.5689 40.9403 36.8672 41.0455C37.1684 41.1477 37.4922 41.1989 37.8388 41.1989C38.2422 41.1989 38.6044 41.1335 38.9255 41.0028C39.2465 40.8693 39.5007 40.6847 39.6882 40.4489C39.8757 40.2102 39.9695 39.9318 39.9695 39.6136C39.9695 39.3239 39.8885 39.0881 39.7266 38.9062C39.5647 38.7244 39.3516 38.5767 39.0874 38.4631C38.8232 38.3494 38.5377 38.25 38.2309 38.1648L37.157 37.858C36.4752 37.6619 35.9354 37.3821 35.5377 37.0185C35.1399 36.6548 34.9411 36.179 34.9411 35.5909C34.9411 35.1023 35.0732 34.6761 35.3374 34.3125C35.6044 33.946 35.9624 33.6619 36.4113 33.4602C36.863 33.2557 37.3672 33.1534 37.924 33.1534C38.4865 33.1534 38.9865 33.2543 39.424 33.456C39.8615 33.6548 40.2081 33.9276 40.4638 34.2741C40.7223 34.6207 40.8587 35.0142 40.8729 35.4545H39.8502ZM45.7114 42V41.233L48.5921 38.0795C48.9301 37.7102 49.2085 37.3892 49.4273 37.1165C49.646 36.8409 49.808 36.5824 49.9131 36.3409C50.021 36.0966 50.075 35.8409 50.075 35.5739C50.075 35.267 50.0012 35.0014 49.8534 34.777C49.7085 34.5526 49.5097 34.3793 49.2568 34.2571C49.004 34.1349 48.7199 34.0739 48.4046 34.0739C48.0693 34.0739 47.7767 34.1435 47.5267 34.2827C47.2796 34.419 47.0878 34.6108 46.9514 34.858C46.8179 35.1051 46.7512 35.3949 46.7512 35.7273H45.7455C45.7455 35.2159 45.8634 34.767 46.0992 34.3807C46.335 33.9943 46.656 33.6932 47.0622 33.4773C47.4713 33.2614 47.9301 33.1534 48.4386 33.1534C48.95 33.1534 49.4031 33.2614 49.798 33.4773C50.1929 33.6932 50.5026 33.9844 50.727 34.3509C50.9514 34.7173 51.0636 35.125 51.0636 35.5739C51.0636 35.8949 51.0054 36.2088 50.8889 36.5156C50.7753 36.8196 50.5764 37.1591 50.2923 37.5341C50.0111 37.9062 49.6205 38.3608 49.1205 38.8977L47.1602 40.9943V41.0625H51.2171V42H45.7114ZM55.7036 42.1193C55.0615 42.1193 54.5147 41.9446 54.063 41.5952C53.6113 41.2429 53.2661 40.733 53.0275 40.0653C52.7888 39.3949 52.6695 38.5852 52.6695 37.6364C52.6695 36.6932 52.7888 35.8878 53.0275 35.2202C53.2689 34.5497 53.6155 34.0384 54.0672 33.6861C54.5218 33.331 55.0672 33.1534 55.7036 33.1534C56.34 33.1534 56.884 33.331 57.3357 33.6861C57.7902 34.0384 58.1368 34.5497 58.3755 35.2202C58.6169 35.8878 58.7377 36.6932 58.7377 37.6364C58.7377 38.5852 58.6184 39.3949 58.3797 40.0653C58.1411 40.733 57.7959 41.2429 57.3442 41.5952C56.8925 41.9446 56.3456 42.1193 55.7036 42.1193ZM55.7036 41.1818C56.34 41.1818 56.8343 40.875 57.1865 40.2614C57.5388 39.6477 57.715 38.7727 57.715 37.6364C57.715 36.8807 57.634 36.2372 57.4721 35.706C57.313 35.1747 57.0829 34.7699 56.7817 34.4915C56.4834 34.2131 56.124 34.0739 55.7036 34.0739C55.0729 34.0739 54.58 34.3849 54.2249 35.0071C53.8698 35.6264 53.6922 36.5028 53.6922 37.6364C53.6922 38.392 53.7718 39.0341 53.9309 39.5625C54.09 40.0909 54.3187 40.4929 54.6169 40.7685C54.9181 41.044 55.2803 41.1818 55.7036 41.1818ZM60.237 42V41.233L63.1177 38.0795C63.4558 37.7102 63.7342 37.3892 63.9529 37.1165C64.1717 36.8409 64.3336 36.5824 64.4387 36.3409C64.5467 36.0966 64.6006 35.8409 64.6006 35.5739C64.6006 35.267 64.5268 35.0014 64.3791 34.777C64.2342 34.5526 64.0353 34.3793 63.7825 34.2571C63.5296 34.1349 63.2455 34.0739 62.9302 34.0739C62.595 34.0739 62.3023 34.1435 62.0523 34.2827C61.8052 34.419 61.6134 34.6108 61.4771 34.858C61.3435 35.1051 61.2768 35.3949 61.2768 35.7273H60.2711C60.2711 35.2159 60.389 34.767 60.6248 34.3807C60.8606 33.9943 61.1816 33.6932 61.5879 33.4773C61.9969 33.2614 62.4558 33.1534 62.9643 33.1534C63.4756 33.1534 63.9288 33.2614 64.3237 33.4773C64.7185 33.6932 65.0282 33.9844 65.2526 34.3509C65.4771 34.7173 65.5893 35.125 65.5893 35.5739C65.5893 35.8949 65.531 36.2088 65.4146 36.5156C65.3009 36.8196 65.1021 37.1591 64.818 37.5341C64.5367 37.9062 64.1461 38.3608 63.6461 38.8977L61.6859 40.9943V41.0625H65.7427V42H60.237ZM70.1099 42.1193C69.6099 42.1193 69.1596 42.0199 68.759 41.821C68.3585 41.6222 68.0375 41.3494 67.796 41.0028C67.5545 40.6562 67.4224 40.2614 67.3997 39.8182H68.4224C68.4622 40.2131 68.6411 40.5398 68.9593 40.7983C69.2804 41.054 69.6639 41.1818 70.1099 41.1818C70.4679 41.1818 70.786 41.098 71.0644 40.9304C71.3457 40.7628 71.5659 40.5327 71.725 40.2401C71.8869 39.9446 71.9679 39.6108 71.9679 39.2386C71.9679 38.858 71.884 38.5185 71.7164 38.2202C71.5517 37.919 71.3244 37.6818 71.0346 37.5085C70.7448 37.3352 70.4139 37.2472 70.0417 37.2443C69.7747 37.2415 69.5005 37.2827 69.2193 37.3679C68.938 37.4503 68.7065 37.5568 68.5247 37.6875L67.536 37.5682L68.0644 33.2727H72.5985V34.2102H68.9508L68.644 36.7841H68.6951C68.8741 36.642 69.0985 36.5241 69.3684 36.4304C69.6383 36.3366 69.9196 36.2898 70.2122 36.2898C70.7463 36.2898 71.2221 36.4176 71.6397 36.6733C72.0602 36.9261 72.3897 37.2727 72.6284 37.7131C72.8698 38.1534 72.9906 38.6562 72.9906 39.2216C72.9906 39.7784 72.8656 40.2756 72.6156 40.7131C72.3684 41.1477 72.0275 41.4915 71.5929 41.7443C71.1582 41.9943 70.6639 42.1193 70.1099 42.1193Z" fill="#173148"/>
<path d="M17.9959 4H0V22.7203H10.3799C10.2563 26.2661 9.39954 28.8672 7.82609 30.4558C6.25263 32.0444 3.58764 32.9976 0 33.1713V41C11.1213 40.5552 18 34.5735 18 21.7968L17.9959 4Z" fill="#173148"/>
</svg>
