<svg width="10" height="10" viewBox="0 0 10 10" fill="none" xmlns="http://www.w3.org/2000/svg">
<circle cx="5" cy="5" r="5" fill="#173348"/>
<path d="M6.05022 3.26331C6.24175 4.05171 5.95091 4.75966 5.59977 5.45795C5.47209 5.71539 5.36923 5.97926 5.35149 6.26244C5.33021 6.60354 5.48273 6.78697 5.84805 6.87385C6.00056 6.90925 6.06795 6.97039 6.05731 7.12485C6.04313 7.42734 6.05377 7.73305 6.05377 8.03875C6.05377 8.1192 6.05377 8.20608 5.92963 8.19321C5.37987 8.12563 4.83366 8.04197 4.40449 7.68155C3.91857 7.27609 3.84054 6.758 3.91148 6.19808C3.98951 5.58023 4.30163 5.02353 4.5038 4.44108C4.53572 4.34776 4.57119 4.25444 4.59602 4.1579C4.71306 3.72026 4.54991 3.47891 4.06754 3.41455C3.94695 3.39846 3.93631 3.3695 3.93986 3.28262C3.9434 2.94152 3.94695 2.59719 3.93986 2.25609C3.93631 2.09198 4.00724 2.06623 4.16685 2.09198C4.81592 2.19173 5.41179 2.38481 5.8516 2.86107C6.00056 2.96082 6.0183 3.11529 6.05022 3.26331Z" fill="white"/>
</svg>
