<svg width="479" height="289" viewBox="0 0 479 289" fill="none" xmlns="http://www.w3.org/2000/svg">
<path d="M-219.792 7.91525C-108.069 -16.9931 -7.74606 20.831 91.2087 66.4963C127.69 83.1018 165.083 96.479 205.212 98.7854C253.549 101.553 279.542 81.7184 291.854 34.2082C296.87 14.3738 305.535 5.60958 327.424 6.99338C370.289 8.83842 413.61 7.45431 456.931 7.45432C468.332 7.45432 480.643 7.45474 478.819 23.5988C469.243 95.0949 457.386 166.13 406.313 221.943C348.856 285.136 275.438 295.284 196.092 286.059C108.537 275.911 29.6464 235.32 -52.8919 209.028C-66.1161 204.876 -79.3405 200.263 -93.0208 197.034C-155.038 181.813 -189.239 203.031 -198.36 265.763C-200.64 281.446 -204.744 282.83 -217.056 282.368C-265.393 281.907 -314.187 281.446 -362.525 282.368C-385.781 282.83 -389.429 273.605 -385.781 252.848C-371.644 168.436 -344.283 90.9432 -276.793 33.7463C-262.657 14.3735 -240.769 12.0666 -219.792 7.91525Z" fill="#E0E9EF"/>
</svg>
