<svg width="750" height="250" viewBox="0 0 750 250" fill="none" xmlns="http://www.w3.org/2000/svg">
<path d="M144.811 6.84714C241.568 -14.6999 328.453 18.0197 414.153 57.5226C445.747 71.8872 478.131 83.4588 512.885 85.4539C554.748 87.848 577.259 70.6902 587.922 29.5913C592.266 12.4335 599.77 4.85214 618.727 6.0492C655.85 7.64527 693.369 6.44812 730.887 6.44812C740.76 6.44813 751.423 6.44812 749.843 20.4138C741.55 82.2617 731.282 143.711 687.049 191.992C637.288 246.657 573.705 255.436 504.987 247.455C429.16 238.677 360.837 203.563 289.355 180.819C277.902 177.228 266.449 173.238 254.601 170.445C200.89 157.277 171.271 175.632 163.372 229.899C161.397 243.465 157.843 244.662 147.18 244.263C105.317 243.864 63.0598 243.465 21.1972 244.263C1.05573 244.662 -2.10361 236.682 1.05583 218.726C13.2987 145.706 36.9946 78.6705 95.4443 29.1922C107.687 12.4334 126.644 10.4383 144.811 6.84714Z" fill="#E0E9EF"/>
</svg>
