<svg width="16" height="16" viewBox="0 0 16 16" fill="none" xmlns="http://www.w3.org/2000/svg">
<g clip-path="url(#clip0_4051_494)">
<path d="M15 8C14.4478 8 14 8.44719 14 9C14 10.6544 12.6544 12 11 12H6V10.75C6 10.4541 5.82569 10.1856 5.55531 10.0644C5.28438 9.94687 4.96875 9.99375 4.74687 10.1938L2.24688 12.4438C2.09031 12.5844 2 12.7875 2 13C2 13.2125 2.09034 13.415 2.24806 13.5575L4.74806 15.8075C4.8875 15.9344 5.06875 16 5.25 16C5.3535 16 5.45672 15.9785 5.55487 15.9356C5.825 15.8156 6 15.5469 6 15.25V14H11C13.7569 14 16 11.7569 16 9C16 8.44687 15.5531 8 15 8ZM5 4H9.97188L10 5.25C10 5.5459 10.1743 5.81437 10.4447 5.93562C10.5438 5.97812 10.6469 6 10.7219 6C10.9035 6 11.0834 5.93359 11.2241 5.80762L13.7241 3.55762C13.9094 3.41562 14 3.2125 14 2.97187C14 2.73125 13.9097 2.55687 13.7519 2.41437L11.2519 0.16437C11.0317 -0.0328802 10.7148 -0.081724 10.4447 0.0364323C10.175 0.185557 9.97188 0.454057 9.97188 0.749995L10 2H5C2.24312 2 0 4.24375 0 7C0 7.55281 0.447812 8 1 8C1.55219 8 2 7.55281 2 7C2 5.34687 3.34687 4 5 4Z" fill="#2c6fb6"/>
</g>
<defs>
<clipPath id="clip0_4051_494">
<rect width="16" height="16" fill="white"/>
</clipPath>
</defs>
</svg>
