<svg width="34" height="33" viewBox="0 0 34 33" fill="none" xmlns="http://www.w3.org/2000/svg">
<mask id="mask0_6038_89607" style="mask-type:luminance" maskUnits="userSpaceOnUse" x="-1" y="0" width="35" height="33">
<path d="M-0.000610352 0.69603H33.7591V32.304H-0.000610352V0.69603Z" fill="white"/>
</mask>
<g mask="url(#mask0_6038_89607)">
<path d="M16.8756 32.304C7.56686 32.304 -0.000610352 25.2188 -0.000610352 16.5034C-0.000610352 7.78116 7.5742 0.69603 16.8756 0.69603C21.3867 0.69603 25.6259 2.34006 28.8145 5.32544C32.0032 8.31083 33.7591 12.2799 33.7591 16.5034C33.7591 25.2188 26.1843 32.304 16.8756 32.304ZM16.8756 1.72784C8.17666 1.72784 1.0941 8.3521 1.0941 16.5034C1.0941 24.6479 8.17666 31.2722 16.8756 31.2722C25.5818 31.2722 32.6571 24.6479 32.6571 16.5034C32.6571 12.555 31.0113 8.84737 28.0358 6.05459C25.0602 3.25493 21.0928 1.72784 16.8756 1.72784Z" fill="white"/>
</g>
<mask id="mask1_6038_89607" style="mask-type:luminance" maskUnits="userSpaceOnUse" x="6" y="6" width="23" height="22">
<path d="M6.20032 6.50853H28.7043V27.5782H6.20032V6.50853Z" fill="white"/>
</mask>
<g mask="url(#mask1_6038_89607)">
<path d="M27.7272 11.0898H23.6937C24.7957 10.2506 25.2806 9.25316 25.2806 8.4621C25.2806 7.48532 24.5092 6.50853 22.8341 6.50853C20.4242 6.50853 18.4919 8.65471 17.456 10.168C16.3907 8.64783 14.4658 6.50853 12.0706 6.50853C10.3955 6.50853 9.62405 7.48532 9.62405 8.4621C9.62405 9.25316 10.1163 10.2506 11.211 11.0898H7.17748C6.90564 11.0898 6.67788 11.1792 6.48685 11.3581C6.29583 11.5369 6.20032 11.7502 6.20032 12.0047V15.6642C6.20032 15.9187 6.29583 16.1388 6.48685 16.3177C6.67788 16.4965 6.90564 16.5859 7.17748 16.5859H8.15463V26.6633C8.15463 26.911 8.25015 27.1311 8.44117 27.3099C8.63219 27.4888 8.8673 27.5782 9.13914 27.5782H25.7729C26.0374 27.5782 26.2725 27.4888 26.4635 27.3099C26.6545 27.1311 26.75 26.911 26.75 26.6633V16.5859H27.7272C27.999 16.5859 28.2268 16.4965 28.4178 16.3177C28.6088 16.1388 28.7043 15.9187 28.7043 15.6642V12.0047C28.7043 11.7502 28.6088 11.5369 28.4178 11.3581C28.2268 11.1792 27.999 11.0898 27.7272 11.0898ZM22.8341 8.33828C22.9443 8.33828 23.3263 8.33828 23.3263 8.48961C23.3263 9.06055 22.1287 10.4019 19.3001 10.8972C20.2111 9.71404 21.541 8.33828 22.8341 8.33828ZM12.0706 8.33828C13.3784 8.33828 14.7156 9.71404 15.6266 10.8972C12.7833 10.4019 11.5784 9.06055 11.5784 8.48961C11.5784 8.33828 11.9457 8.33828 12.0706 8.33828ZM8.15463 12.9195H16.4715V14.7493H8.15463V12.9195ZM10.1163 16.5859H16.4715V25.7484H10.1163V16.5859ZM24.7957 25.7484H18.4332V16.5859H24.7957V25.7484ZM26.75 14.7493H18.4332V12.9195H26.75V14.7493Z" fill="white"/>
</g>
</svg>
