<svg width="176" height="40" viewBox="0 0 176 40" fill="none" xmlns="http://www.w3.org/2000/svg">
<path d="M52.3906 18H55.7734V13.4531L57.4375 11.4219L61.8203 18H65.8672L59.8594 9.16406L65.7969 2H61.7422L55.9844 9.05469H55.7734V2H52.3906V18Z" fill="#0E1013"/>
<path d="M72.084 18.2344C75.0527 18.2344 77.0527 16.7891 77.5215 14.5625L74.4434 14.3594C74.1074 15.2734 73.248 15.75 72.1387 15.75C70.4746 15.75 69.4199 14.6484 69.4199 12.8594V12.8516H77.5918V11.9375C77.5918 7.85938 75.123 5.84375 71.9512 5.84375C68.4199 5.84375 66.1309 8.35156 66.1309 12.0547C66.1309 15.8594 68.3887 18.2344 72.084 18.2344ZM69.4199 10.7891C69.4902 9.42188 70.5293 8.32813 72.0059 8.32813C73.4512 8.32813 74.4512 9.35938 74.459 10.7891H69.4199Z" fill="#0E1013"/>
<path d="M85.2324 18.2344C88.2012 18.2344 90.2012 16.7891 90.6699 14.5625L87.5918 14.3594C87.2559 15.2734 86.3965 15.75 85.2871 15.75C83.623 15.75 82.5684 14.6484 82.5684 12.8594V12.8516H90.7402V11.9375C90.7402 7.85938 88.2715 5.84375 85.0996 5.84375C81.5684 5.84375 79.2793 8.35156 79.2793 12.0547C79.2793 15.8594 81.5371 18.2344 85.2324 18.2344ZM82.5684 10.7891C82.6387 9.42188 83.6777 8.32813 85.1543 8.32813C86.5996 8.32813 87.5996 9.35938 87.6074 10.7891H82.5684Z" fill="#0E1013"/>
<path d="M96.2402 2H92.9121V18H96.2402V2Z" fill="#0E1013"/>
<path d="M104.375 18.2344C107.344 18.2344 109.344 16.7891 109.812 14.5625L106.734 14.3594C106.398 15.2734 105.539 15.75 104.43 15.75C102.766 15.75 101.711 14.6484 101.711 12.8594V12.8516H109.883V11.9375C109.883 7.85938 107.414 5.84375 104.242 5.84375C100.711 5.84375 98.4219 8.35156 98.4219 12.0547C98.4219 15.8594 100.68 18.2344 104.375 18.2344ZM101.711 10.7891C101.781 9.42188 102.82 8.32813 104.297 8.32813C105.742 8.32813 106.742 9.35938 106.75 10.7891H101.711Z" fill="#0E1013"/>
<path d="M117.516 18.2344C121.156 18.2344 123.422 15.7422 123.422 12.0469C123.422 8.32813 121.156 5.84375 117.516 5.84375C113.875 5.84375 111.609 8.32813 111.609 12.0469C111.609 15.7422 113.875 18.2344 117.516 18.2344ZM117.531 15.6563C115.852 15.6563 114.992 14.1172 114.992 12.0234C114.992 9.92969 115.852 8.38281 117.531 8.38281C119.18 8.38281 120.039 9.92969 120.039 12.0234C120.039 14.1172 119.18 15.6563 117.531 15.6563ZM115.43 4.52344C115.43 3.79688 115.789 3.33594 116.328 3.33594C116.742 3.33594 117.055 3.5625 117.398 3.82031C117.836 4.14063 118.336 4.51563 119.211 4.50781C120.625 4.5 121.734 3.39844 121.75 1.42188L119.93 1.36719C119.922 2.08594 119.602 2.57031 119 2.57813C118.609 2.57813 118.281 2.35156 117.922 2.09375C117.453 1.77344 116.93 1.39844 116.117 1.40625C114.695 1.41406 113.578 2.51563 113.578 4.5L115.43 4.52344Z" fill="#0E1013"/>
<path d="M125.01 22.5H128.338V16.0781H128.439C128.9 17.0781 129.908 18.1953 131.846 18.1953C134.58 18.1953 136.713 16.0313 136.713 12.0156C136.713 7.89063 134.486 5.84375 131.854 5.84375C129.846 5.84375 128.885 7.03906 128.439 8.01563H128.291V6H125.01V22.5ZM128.268 12C128.268 9.85938 129.174 8.49219 130.791 8.49219C132.439 8.49219 133.314 9.92188 133.314 12C133.314 14.0938 132.424 15.5469 130.791 15.5469C129.189 15.5469 128.268 14.1406 128.268 12Z" fill="#0E1013"/>
<path d="M138.932 22.5H142.26V16.0781H142.361C142.822 17.0781 143.83 18.1953 145.768 18.1953C148.502 18.1953 150.635 16.0313 150.635 12.0156C150.635 7.89063 148.408 5.84375 145.775 5.84375C143.768 5.84375 142.807 7.03906 142.361 8.01563H142.213V6H138.932V22.5ZM142.189 12C142.189 9.85938 143.096 8.49219 144.713 8.49219C146.361 8.49219 147.236 9.92188 147.236 12C147.236 14.0938 146.346 15.5469 144.713 15.5469C143.111 15.5469 142.189 14.1406 142.189 12Z" fill="#0E1013"/>
<path d="M152.854 18H156.182V6H152.854V18ZM154.525 4.45313C155.518 4.45313 156.33 3.69531 156.33 2.76563C156.33 1.84375 155.518 1.08594 154.525 1.08594C153.541 1.08594 152.729 1.84375 152.729 2.76563C152.729 3.69531 153.541 4.45313 154.525 4.45313Z" fill="#0E1013"/>
<path d="M158.848 6V18.5C158.848 19.4062 158.465 19.8594 157.395 19.8594C157.254 19.8594 157.129 19.8594 156.957 19.8438V22.4453C157.215 22.4609 157.395 22.4609 157.574 22.4609C160.457 22.5391 162.176 21.3359 162.176 18.5547V6H158.848ZM160.504 4.45313C161.496 4.45313 162.309 3.69531 162.309 2.76563C162.309 1.84375 161.496 1.08594 160.504 1.08594C159.52 1.08594 158.707 1.84375 158.707 2.76563C158.707 3.69531 159.52 4.45313 160.504 4.45313Z" fill="#0E1013"/>
<path d="M168.264 18.2266C170.037 18.2266 171.186 17.4531 171.771 16.3359H171.865V18H175.021V9.90625C175.021 7.04688 172.6 5.84375 169.928 5.84375C167.053 5.84375 165.162 7.21875 164.701 9.40625L167.779 9.65625C168.006 8.85938 168.717 8.27344 169.912 8.27344C171.045 8.27344 171.693 8.84375 171.693 9.82813V9.875C171.693 10.6484 170.873 10.75 168.787 10.9531C166.412 11.1719 164.279 11.9688 164.279 14.6484C164.279 17.0234 165.975 18.2266 168.264 18.2266ZM169.217 15.9297C168.193 15.9297 167.459 15.4531 167.459 14.5391C167.459 13.6016 168.232 13.1406 169.404 12.9766C170.131 12.875 171.318 12.7031 171.717 12.4375V13.7109C171.717 14.9688 170.678 15.9297 169.217 15.9297Z" fill="#0E1013"/>
<path d="M61.0703 27.6016H64.3125C64.2656 24.75 61.9219 22.7812 58.3594 22.7812C54.8516 22.7812 52.2813 24.7188 52.2969 27.625C52.2891 29.9844 53.9531 31.3359 56.6562 31.9844L58.3984 32.4219C60.1406 32.8437 61.1094 33.3437 61.1172 34.4219C61.1094 35.5938 60 36.3906 58.2812 36.3906C56.5234 36.3906 55.2578 35.5781 55.1484 33.9766H51.875C51.9609 37.4375 54.4375 39.2266 58.3203 39.2266C62.2266 39.2266 64.5234 37.3594 64.5312 34.4297C64.5234 31.7656 62.5156 30.3516 59.7344 29.7266L58.2969 29.3828C56.9062 29.0625 55.7422 28.5469 55.7656 27.3984C55.7656 26.3672 56.6797 25.6094 58.3359 25.6094C59.9531 25.6094 60.9453 26.3437 61.0703 27.6016Z" fill="#0E1013"/>
<path d="M72.2051 39.2344C75.8457 39.2344 78.1113 36.7422 78.1113 33.0469C78.1113 29.3281 75.8457 26.8438 72.2051 26.8438C68.5645 26.8438 66.2988 29.3281 66.2988 33.0469C66.2988 36.7422 68.5645 39.2344 72.2051 39.2344ZM72.2207 36.6562C70.541 36.6562 69.6816 35.1172 69.6816 33.0234C69.6816 30.9297 70.541 29.3828 72.2207 29.3828C73.8691 29.3828 74.7285 30.9297 74.7285 33.0234C74.7285 35.1172 73.8691 36.6562 72.2207 36.6562ZM70.1191 25.5234C70.1191 24.7969 70.4785 24.3359 71.0176 24.3359C71.4316 24.3359 71.7441 24.5625 72.0879 24.8203C72.5254 25.1406 73.0254 25.5156 73.9004 25.5078C75.3145 25.5 76.4238 24.3984 76.4395 22.4219L74.6191 22.3672C74.6113 23.0859 74.291 23.5703 73.6895 23.5781C73.2988 23.5781 72.9707 23.3516 72.6113 23.0938C72.1426 22.7734 71.6191 22.3984 70.8066 22.4062C69.3848 22.4141 68.2676 23.5156 68.2676 25.5L70.1191 25.5234Z" fill="#0E1013"/>
<path d="M83.0273 32.0625C83.0352 30.5156 83.957 29.6094 85.3008 29.6094C86.6367 29.6094 87.4414 30.4844 87.4336 31.9531V39H90.7617V31.3594C90.7617 28.5625 89.1211 26.8438 86.6211 26.8438C84.8398 26.8438 83.5508 27.7187 83.0117 29.1172H82.8711V27H79.6992V39H83.0273V32.0625Z" fill="#0E1013"/>
<path d="M96.8066 39.2266C98.5801 39.2266 99.7285 38.4531 100.314 37.3359H100.408V39H103.564V30.9062C103.564 28.0469 101.143 26.8438 98.4707 26.8438C95.5957 26.8438 93.7051 28.2187 93.2441 30.4062L96.3223 30.6562C96.5488 29.8594 97.2598 29.2734 98.4551 29.2734C99.5879 29.2734 100.236 29.8438 100.236 30.8281V30.875C100.236 31.6484 99.416 31.75 97.3301 31.9531C94.9551 32.1719 92.8223 32.9687 92.8223 35.6484C92.8223 38.0234 94.5176 39.2266 96.8066 39.2266ZM97.7598 36.9297C96.7363 36.9297 96.002 36.4531 96.002 35.5391C96.002 34.6016 96.7754 34.1406 97.9473 33.9766C98.6738 33.875 99.8613 33.7031 100.26 33.4375V34.7109C100.26 35.9688 99.2207 36.9297 97.7598 36.9297Z" fill="#0E1013"/>
<path d="M116.904 27H113.381L110.896 35.5859H110.771L108.279 27H104.764L108.959 39H112.709L116.904 27Z" fill="#0E1013"/>
<path d="M123.668 39.2344C126.637 39.2344 128.637 37.7891 129.105 35.5625L126.027 35.3594C125.691 36.2734 124.832 36.75 123.723 36.75C122.059 36.75 121.004 35.6484 121.004 33.8594V33.8516H129.176V32.9375C129.176 28.8594 126.707 26.8438 123.535 26.8438C120.004 26.8438 117.715 29.3516 117.715 33.0547C117.715 36.8594 119.973 39.2344 123.668 39.2344ZM121.004 31.7891C121.074 30.4219 122.113 29.3281 123.59 29.3281C125.035 29.3281 126.035 30.3594 126.043 31.7891H121.004Z" fill="#0E1013"/>
<path d="M136.816 39.2344C139.785 39.2344 141.785 37.7891 142.254 35.5625L139.176 35.3594C138.84 36.2734 137.98 36.75 136.871 36.75C135.207 36.75 134.152 35.6484 134.152 33.8594V33.8516H142.324V32.9375C142.324 28.8594 139.855 26.8438 136.684 26.8438C133.152 26.8438 130.863 29.3516 130.863 33.0547C130.863 36.8594 133.121 39.2344 136.816 39.2344ZM134.152 31.7891C134.223 30.4219 135.262 29.3281 136.738 29.3281C138.184 29.3281 139.184 30.3594 139.191 31.7891H134.152Z" fill="#0E1013"/>
<path d="M144.559 39H147.84V37.0781H147.988C148.449 38.0781 149.457 39.1953 151.395 39.1953C154.129 39.1953 156.262 37.0313 156.262 33.0156C156.262 28.8906 154.035 26.8438 151.402 26.8438C149.395 26.8438 148.434 28.0391 147.988 29.0156H147.887V23H144.559V39ZM147.816 33C147.816 30.8594 148.723 29.4922 150.34 29.4922C151.988 29.4922 152.863 30.9219 152.863 33C152.863 35.0938 151.973 36.5469 150.34 36.5469C148.738 36.5469 147.816 35.1406 147.816 33Z" fill="#0E1013"/>
<path d="M38.169 13.0213C38.0935 12.2747 37.7916 11.528 37.1122 10.856C36.5084 10.1093 35.5271 9.43733 34.2438 8.76533C32.9606 8.09333 31.2245 7.42133 28.96 6.74933C26.7709 6.152 24.6574 5.928 22.7703 6.00267C21.9399 6.07733 21.1096 6.152 20.2793 6.30133C19.449 6.45067 18.6941 6.74933 17.9393 7.12267C17.1844 7.496 16.5051 8.01867 15.9767 8.69067C15.3728 9.36267 14.9199 10.184 14.618 11.1547C14.3915 12.1253 14.3915 13.096 14.7689 14.0667C15.0709 14.888 15.5993 15.8587 16.5051 16.9787C17.4109 18.0987 18.8451 19.144 20.8831 20.264C19.147 19.816 17.5618 19.6667 16.1276 19.7413C15.5238 19.7413 14.8444 19.8907 14.2405 20.04C13.6367 20.1893 13.0328 20.4133 12.5044 20.7867C11.976 21.0853 11.4476 21.5333 11.0702 22.056C10.6928 22.5787 10.3909 23.2507 10.1644 24.072C9.86247 25.2667 10.0134 26.3867 10.6928 27.5067C10.9947 27.9547 11.3721 28.4773 11.976 29C12.5044 29.5227 13.2593 30.0453 14.1651 30.568C15.0709 31.0907 16.1276 31.5387 17.4109 32.0613C18.6941 32.5093 20.2038 32.9573 22.0154 33.4053C23.978 33.7787 25.8651 33.8533 27.5258 33.6293C28.2051 33.5547 28.96 33.3307 29.7148 33.1067C30.4696 32.8827 31.149 32.5093 31.8283 32.0613C32.5077 31.6133 33.0361 31.016 33.5645 30.344C34.0929 29.5973 34.4703 28.776 34.7722 27.7307C35.1497 26.4613 35.0742 25.2667 34.6967 23.9973C34.5458 23.4747 34.2438 22.952 33.8664 22.3547C33.489 21.7573 33.0361 21.16 32.3567 20.5627C31.7529 19.9653 30.9225 19.368 29.9412 18.7707C28.96 18.1733 27.8277 17.576 26.5445 17.0533C28.3561 17.7253 30.0167 18.1733 31.5264 18.3227C32.2058 18.3973 32.8096 18.3973 33.489 18.3973C34.1684 18.3227 34.7722 18.248 35.3006 18.024C35.9045 17.8 36.3574 17.5013 36.8103 17.128C37.2632 16.68 37.6406 16.1573 37.8671 15.4107C38.169 14.5147 38.2445 13.768 38.169 13.0213ZM24.129 1C34.5458 1 43 9.36267 43 19.6667C43 29.9707 34.5458 38.3333 24.129 38.3333C19.5999 38.3333 15.4483 36.7653 12.2025 34.152C10.8438 36.0933 8.80569 38.0347 6.23923 37.96C4.57857 37.8853 3.06889 37.288 2.01211 35.944C1.03082 34.6 0.728884 32.808 1.25727 31.24C1.55921 30.344 2.23857 29.5227 3.06889 28.8507C4.12567 27.9547 5.4089 27.2827 6.69213 26.8347C5.78632 24.5947 5.25793 22.2053 5.25793 19.592C5.25793 9.36267 13.7122 1 24.129 1Z" stroke="#0E1013"/>
</svg>
