<svg id="Layer_1" data-name="Layer 1" xmlns="http://www.w3.org/2000/svg" viewBox="0 0 32 32"><defs><style>.cls-1{fill:#fff;}.cls-2{fill:#2c6fb6;}</style></defs><path class="cls-1" d="M16,31.07A15,15,0,1,1,31,16,15.05,15.05,0,0,1,16,31.07Z"/><path class="cls-2" d="M16,1.66A14.38,14.38,0,1,1,1.61,16,14.4,14.4,0,0,1,16,1.66m0-1.3A15.68,15.68,0,1,0,31.68,16,15.68,15.68,0,0,0,16,.36Z"/><path class="cls-2" d="M20.76,6.46H11.23v9.67h5.5a5.72,5.72,0,0,1-1.35,3.94,6.32,6.32,0,0,1-4.15,1.4v4c5.88-.23,9.53-3.31,9.53-9.89V6.46"/></svg>