<svg width="372" height="93" viewBox="0 0 372 93" fill="none" xmlns="http://www.w3.org/2000/svg">
<path d="M39.569 0C57.4502 0 71.9438 14.277 71.9438 31.8909C71.9438 49.5048 57.4502 63.7818 39.569 63.7818C31.8154 63.7818 24.7012 61.0928 19.1245 56.6159C16.736 59.9144 13.2929 63.2837 8.91666 63.1459C6.06974 63.0549 3.46948 61.9736 1.72842 59.6754C0.00176561 57.3976 -0.464842 54.3401 0.480708 51.6592C1.02748 50.1121 2.13954 48.7697 3.52908 47.6298C5.32974 46.1537 7.5929 45.0158 9.69778 44.2038C8.08622 40.4153 7.19412 36.2563 7.19412 31.8909C7.19412 14.277 21.6878 0 39.569 0ZM63.7032 20.5499C63.586 19.2803 63.0002 18.029 61.9394 16.7918C60.8788 15.5567 59.2364 14.3661 57.0124 13.218C54.7882 12.0699 51.785 10.932 48.007 9.7981C44.198 8.77151 40.6646 8.33821 37.4044 8.49613C35.98 8.57309 34.5698 8.75532 33.1742 9.04081C31.7784 9.32834 30.4464 9.80417 29.1822 10.4703C27.914 11.1385 26.7774 12.0254 25.766 13.135C24.7546 14.2446 23.9858 15.6498 23.4556 17.3486C23.0094 18.9563 23.0752 20.6167 23.6508 22.3276C24.1236 23.7794 25.1266 25.4338 26.6602 27.2844C28.1916 29.1371 30.687 30.992 34.1484 32.8446C31.1268 32.146 28.3704 31.8626 25.877 31.9981C24.8102 32.0549 23.7412 32.2148 22.6744 32.4741C21.6076 32.7352 20.6044 33.1402 19.661 33.6929C18.7175 34.2458 17.9015 34.9767 17.2108 35.8838C16.5201 36.7909 16.0145 37.9228 15.6979 39.2774C15.147 41.2596 15.4512 43.2157 16.6147 45.1394C17.0895 45.9593 17.8007 46.8138 18.7525 47.7028C19.7042 48.5915 20.9354 49.4703 22.4484 50.341C23.9612 51.2076 25.8174 52.0541 28.0148 52.8781C30.2122 53.7023 32.8494 54.4696 35.9266 55.1844C39.3202 55.81 42.4714 55.9396 45.38 55.5733C46.601 55.3829 47.8404 55.0851 49.0944 54.6721C50.3482 54.2631 51.5322 53.6759 52.6526 52.9106C53.7708 52.1472 54.778 51.151 55.6742 49.924C56.5704 48.6968 57.263 47.1985 57.7564 45.4308C58.3504 43.2887 58.295 41.1685 57.59 39.0789C57.3084 38.1961 56.854 37.2545 56.2272 36.2484C55.5982 35.244 54.743 34.2215 53.6576 33.1807C52.5724 32.14 51.2074 31.1094 49.561 30.0908C47.9144 29.0723 45.9658 28.0843 43.717 27.1326C46.7818 28.305 49.6452 29.048 52.3072 29.3619C53.4398 29.4935 54.5704 29.528 55.7008 29.457C56.8294 29.3882 57.8818 29.1818 58.854 28.8375C59.8264 28.4953 60.702 27.9689 61.4852 27.2581C62.2684 26.5474 62.8562 25.5837 63.253 24.3646C63.664 23.093 63.812 21.8235 63.697 20.5539L63.7032 20.5499ZM358.81 45.3012C357.084 47.1034 354.882 48.0043 352.194 48.0043C349.508 48.0043 347.302 47.1034 345.58 45.3012C343.856 43.4992 342.994 41.0856 342.994 38.0584C342.994 35.0313 343.856 32.6178 345.58 30.8138C347.302 29.0115 349.508 28.1106 352.194 28.1106C354.882 28.1106 357.084 29.0115 358.81 30.8138C360.532 32.6158 361.394 35.0313 361.394 38.0584C361.394 41.0856 360.53 43.4992 358.81 45.3012ZM305.394 34.9199C305.752 32.6056 306.736 30.7793 308.348 29.4449C309.96 28.1106 311.952 27.4423 314.324 27.4423C316.65 27.4423 318.622 28.1206 320.234 29.4793C321.844 30.8379 322.828 32.6503 323.186 34.9199H305.392H305.394ZM270.408 34.9199C270.766 32.6056 271.752 30.7793 273.362 29.4449C274.974 28.1106 276.966 27.4423 279.338 27.4423C281.664 27.4423 283.636 28.1206 285.248 29.4793C286.86 30.8379 287.844 32.6503 288.202 34.9199H270.406H270.408ZM219.78 44.6676C219.198 46.2691 218.214 47.4819 216.826 48.3061C215.438 49.1301 213.848 49.5413 212.06 49.5413C210.222 49.5413 208.78 49.1524 207.73 48.3729C206.678 47.5934 206.152 46.5364 206.152 45.2021C206.152 42.3977 208.3 40.9965 212.598 40.9965H219.782V44.6676H219.78ZM146.488 45.3012C144.764 47.1034 142.56 48.0043 139.873 48.0043C137.187 48.0043 134.971 47.1034 133.226 45.3012C131.481 43.4992 130.607 41.0856 130.607 38.0584C130.607 35.0313 131.481 32.6178 133.226 30.8138C134.971 29.0095 137.187 28.1106 139.873 28.1106C142.56 28.1106 144.764 29.0115 146.488 30.8138C148.213 32.6158 149.072 35.0313 149.072 38.0584C149.072 41.0856 148.209 43.4992 146.488 45.3012ZM369.652 28.3434C368.086 25.5633 365.926 23.4029 363.174 21.868C360.422 20.3332 357.364 19.5658 354.008 19.5658C349.396 19.5658 345.77 21.0115 343.13 23.905V6.48144H332.654V33.9076C332.262 31.8929 331.584 30.0362 330.608 28.3474C328.974 25.5209 326.724 23.3523 323.86 21.8377C320.994 20.3231 317.794 19.5678 314.258 19.5678C310.632 19.5678 307.352 20.3575 304.42 21.9369C301.488 23.5161 299.182 25.7192 297.502 28.5459C297.162 29.121 296.864 29.7141 296.592 30.3177C296.308 29.6392 295.99 28.9792 295.624 28.3454C293.988 25.5187 291.74 23.3501 288.876 21.8377C286.012 20.3251 282.81 19.5678 279.274 19.5678C275.648 19.5678 272.37 20.3575 269.436 21.9369C267.384 23.0446 265.644 24.4639 264.204 26.183L266.784 20.1004H256.712L246.372 44.5338L236.366 20.1004H225.556L228.71 27.5597C227.98 25.9905 227.008 24.6401 225.758 23.5385C222.76 20.8921 218.462 19.5658 212.866 19.5658C209.956 19.5658 207.124 19.9444 204.372 20.6998C201.62 21.455 199.258 22.5241 197.289 23.903L201.048 31.1801C202.346 30.1556 203.924 29.3436 205.782 28.7423C207.64 28.1409 209.532 27.8413 211.456 27.8413C214.23 27.8413 216.31 28.4548 217.7 29.6779C219.09 30.9007 219.78 32.6481 219.78 34.9179H211.456C206.174 34.9179 202.268 35.8737 199.737 37.7891C197.875 39.1985 196.703 40.9985 196.212 43.1793V35.4505C196.212 30.2001 194.835 26.2376 192.082 23.569C189.33 20.9001 185.714 19.5638 181.239 19.5638C178.777 19.5638 176.516 19.9749 174.458 20.7988C172.4 21.623 170.676 22.7914 169.288 24.3038V20.0962H159.284V34.017C158.877 32.0428 158.164 30.2043 157.136 28.5075C155.434 25.7031 153.084 23.5122 150.085 21.9328C147.874 20.7685 145.444 20.0356 142.794 19.7298C147.278 19.0434 150.562 16.8384 150.562 14.2183C150.562 11.0474 145.765 8.47995 139.845 8.47995C133.925 8.47995 129.127 11.0474 129.127 14.2183C129.127 16.8445 132.428 19.0535 136.926 19.7339C134.286 20.0416 131.855 20.7725 129.637 21.9308C126.615 23.5102 124.253 25.7031 122.551 28.5055C121.468 30.2892 120.734 32.2291 120.342 34.3186C118.827 32.798 117.059 31.6601 115.032 30.9088C112.748 30.0625 109.817 29.218 106.236 28.3717C102.787 27.6145 100.226 26.8471 98.5488 26.0674C96.8714 25.2879 96.0306 24.0973 96.0306 22.4956C96.0306 20.8921 96.7584 19.6023 98.2136 18.6243C99.669 17.6463 101.918 17.1563 104.962 17.1563C109.303 17.1563 113.645 18.3793 117.988 20.8273L121.345 12.6167C119.197 11.2823 116.689 10.2577 113.823 9.54702C110.958 8.83631 108.027 8.47791 105.028 8.47791C100.73 8.47791 97.0934 9.12382 94.117 10.4136C91.1406 11.7035 88.9124 13.4509 87.4364 15.6539C85.9606 17.8569 85.2206 20.3171 85.2206 23.0302C85.2206 26.1465 86.0366 28.639 87.6728 30.508C89.309 32.3768 91.266 33.7356 93.5476 34.5799C95.8312 35.4262 98.7626 36.2705 102.343 37.117C104.67 37.6494 106.516 38.1415 107.883 38.585C109.248 39.0305 110.368 39.6196 111.24 40.3547C112.111 41.0896 112.549 42.0131 112.549 43.1246C112.549 44.6371 111.811 45.8519 110.333 46.7632C108.855 47.6743 106.574 48.1319 103.484 48.1319C100.707 48.1319 97.932 47.6884 95.157 46.7977C92.382 45.9067 89.9874 44.7282 87.973 43.2602L84.2792 51.4041C86.382 53.0076 89.1692 54.3076 92.639 55.31C96.1088 56.3121 99.6998 56.8124 103.416 56.8124C107.714 56.8124 111.361 56.1664 114.362 54.8766C117.363 53.5869 119.61 51.8394 121.11 49.6364C121.622 48.8831 122.042 48.0996 122.379 47.2896C122.438 47.3909 122.49 47.4983 122.551 47.5993C124.251 50.4037 126.615 52.5946 129.637 54.174C132.658 55.7534 136.071 56.5431 139.878 56.5431C143.682 56.5431 147.084 55.7534 150.083 54.174C153.082 52.5946 155.432 50.4017 157.134 47.5993C158.164 45.9025 158.877 44.064 159.282 42.09V56.0106H169.757V38.2529C169.757 35.0475 170.54 32.6339 172.106 31.0101C173.673 29.3863 175.778 28.5722 178.419 28.5722C180.791 28.5722 182.604 29.2728 183.858 30.676C185.112 32.0792 185.739 34.2032 185.739 37.0522V56.0106H196.214V48.0934C196.473 49.2314 196.917 50.2903 197.556 51.2724C198.631 52.9185 200.186 54.2085 202.222 55.1439C204.26 56.0793 206.664 56.5451 209.442 56.5451C214.812 56.5451 218.482 54.8766 220.452 51.5397V56.0126H230.256V35.5173C230.256 32.9174 229.894 30.6416 229.182 28.6815L240.73 56.0126H251.54L260.134 35.7704C260.05 36.5157 260.002 37.2749 260.002 38.0564C260.002 41.616 260.852 44.7991 262.552 47.6035C264.252 50.4079 266.67 52.5986 269.804 54.178C272.938 55.7574 276.54 56.5471 280.614 56.5471C287.15 56.5471 292.12 54.6113 295.522 50.74L289.948 44.7323C288.694 45.933 287.34 46.8138 285.888 47.3685C284.434 47.9234 282.764 48.2029 280.884 48.2029C278.152 48.2029 275.87 47.5589 274.034 46.2671C272.2 44.9773 271.036 43.2197 270.542 40.9945H295.196C295.542 43.3897 296.316 45.5948 297.536 47.6035C299.236 50.4079 301.654 52.5986 304.788 54.178C307.922 55.7574 311.524 56.5471 315.598 56.5471C322.132 56.5471 327.102 54.6113 330.504 50.74L324.932 44.7323C323.678 45.933 322.324 46.8138 320.87 47.3685C319.418 47.9234 317.748 48.2029 315.868 48.2029C313.136 48.2029 310.854 47.5589 309.018 46.2671C307.182 44.9773 306.016 43.2197 305.526 40.9945H332.652V56.0145H342.658V51.8759C345.254 54.992 349.036 56.5491 354.006 56.5491C357.362 56.5491 360.418 55.7817 363.172 54.247C365.926 52.712 368.084 50.5536 369.65 47.7715C371.216 44.9895 372 41.7537 372 38.0584C372 34.3632 371.216 31.1255 369.65 28.3454L369.652 28.3434Z" fill="#FFFFFF"/>
<path d="M84 92.6828H96.4489V90.5027H86.4659V83.6059H95.6534V81.4258H86.4659V74.5686H96.2898V72.3886H84V92.6828ZM106.82 92.9999C109.922 92.9999 112.189 91.454 112.905 89.1551L110.638 88.5209C110.041 90.1064 108.659 90.8991 106.82 90.8991C104.065 90.8991 102.166 89.1254 102.057 85.8652H113.143V84.8743C113.143 79.2062 109.763 77.2639 106.581 77.2639C102.445 77.2639 99.7003 80.5142 99.7003 85.1914C99.7003 89.8686 102.405 92.9999 106.82 92.9999ZM102.057 83.8437C102.216 81.4754 103.896 79.3647 106.581 79.3647C109.126 79.3647 110.757 81.2673 110.757 83.8437H102.057ZM127.531 80.8709C126.795 78.7107 125.145 77.2639 122.122 77.2639C118.9 77.2639 116.514 79.0873 116.514 81.6637C116.514 83.7644 117.767 85.1715 120.571 85.8256L123.116 86.4201C124.658 86.7769 125.383 87.5101 125.383 88.5605C125.383 89.8686 123.991 90.9388 121.804 90.9388C119.885 90.9388 118.682 90.1163 118.264 88.4813L116.037 89.0362C116.584 91.6224 118.721 92.9999 121.844 92.9999C125.393 92.9999 127.81 91.0675 127.81 88.4416C127.81 86.321 126.477 84.9833 123.753 84.3194L121.486 83.7644C119.676 83.3185 118.861 82.7141 118.861 81.5448C118.861 80.2367 120.253 79.2854 122.122 79.2854C124.17 79.2854 125.016 80.4151 125.423 81.4655L127.531 80.8709ZM137.984 77.4621H134.723V73.8155H132.376V77.4621H130.069V79.444H132.376V88.9569C132.376 91.6126 134.524 92.8809 136.512 92.8809C137.387 92.8809 137.944 92.7225 138.262 92.6035L137.785 90.5027C137.586 90.5424 137.268 90.6217 136.751 90.6217C135.717 90.6217 134.723 90.3046 134.723 88.3227V79.444H137.984V77.4621ZM141.514 92.6828H143.86V77.4621H141.514V92.6828ZM142.707 74.9254C143.622 74.9254 144.377 74.2119 144.377 73.3399C144.377 72.4679 143.622 71.7544 142.707 71.7544C141.792 71.7544 141.036 72.4679 141.036 73.3399C141.036 74.2119 141.792 74.9254 142.707 74.9254ZM156.351 92.6828H158.817V86.103L161.363 83.2492L168.442 92.6828H171.425L162.874 81.5448L171.425 72.3886H168.204L159.056 82.4564H158.817V72.3886H156.351V92.6828ZM179.581 92.9999C182.684 92.9999 184.951 91.454 185.666 89.1551L183.399 88.5209C182.803 90.1064 181.421 90.8991 179.581 90.8991C176.827 90.8991 174.928 89.1254 174.818 85.8652H185.905V84.8743C185.905 79.2062 182.524 77.2639 179.343 77.2639C175.206 77.2639 172.462 80.5142 172.462 85.1914C172.462 89.8686 175.166 92.9999 179.581 92.9999ZM174.818 83.8437C174.978 81.4754 176.658 79.3647 179.343 79.3647C181.888 79.3647 183.519 81.2673 183.519 83.8437H174.818ZM195.878 92.9999C198.98 92.9999 201.247 91.454 201.963 89.1551L199.696 88.5209C199.1 90.1064 197.718 90.8991 195.878 90.8991C193.124 90.8991 191.225 89.1254 191.115 85.8652H202.202V84.8743C202.202 79.2062 198.821 77.2639 195.639 77.2639C191.503 77.2639 188.759 80.5142 188.759 85.1914C188.759 89.8686 191.463 92.9999 195.878 92.9999ZM191.115 83.8437C191.274 81.4754 192.955 79.3647 195.639 79.3647C198.185 79.3647 199.816 81.2673 199.816 83.8437H191.115ZM208.118 72.3886H205.772V92.6828H208.118V72.3886ZM218.82 92.9999C221.922 92.9999 224.189 91.454 224.905 89.1551L222.638 88.5209C222.041 90.1064 220.659 90.8991 218.82 90.8991C216.065 90.8991 214.166 89.1254 214.057 85.8652H225.143V84.8743C225.143 79.2062 221.763 77.2639 218.581 77.2639C214.445 77.2639 211.7 80.5142 211.7 85.1914C211.7 89.8686 214.405 92.9999 218.82 92.9999ZM214.057 83.8437C214.216 81.4754 215.896 79.3647 218.581 79.3647C221.126 79.3647 222.757 81.2673 222.757 83.8437H214.057ZM239.372 72.3886H236.906V92.6828H239.372V72.3886ZM246.345 83.5266C246.345 80.8709 247.995 79.3647 250.242 79.3647C252.42 79.3647 253.742 80.7817 253.742 83.1699V92.6828H256.089V83.0113C256.089 79.1269 254.011 77.2639 250.919 77.2639C248.612 77.2639 247.18 78.2945 246.464 79.8404H246.265V77.4621H243.998V92.6828H246.345V83.5266ZM271.195 80.8709C270.459 78.7107 268.809 77.2639 265.786 77.2639C262.565 77.2639 260.178 79.0873 260.178 81.6637C260.178 83.7644 261.431 85.1715 264.235 85.8256L266.78 86.4201C268.322 86.7769 269.047 87.5101 269.047 88.5605C269.047 89.8686 267.655 90.9388 265.468 90.9388C263.549 90.9388 262.346 90.1163 261.928 88.4813L259.701 89.0362C260.248 91.6224 262.386 92.9999 265.508 92.9999C269.057 92.9999 271.474 91.0675 271.474 88.4416C271.474 86.321 270.141 84.9833 267.417 84.3194L265.15 83.7644C263.34 83.3185 262.525 82.7141 262.525 81.5448C262.525 80.2367 263.917 79.2854 265.786 79.2854C267.834 79.2854 268.68 80.4151 269.087 81.4655L271.195 80.8709ZM281.648 77.4621H278.387V73.8155H276.04V77.4621H273.733V79.444H276.04V88.9569C276.04 91.6126 278.188 92.8809 280.176 92.8809C281.051 92.8809 281.608 92.7225 281.926 92.6035L281.449 90.5027C281.25 90.5424 280.932 90.6217 280.415 90.6217C279.381 90.6217 278.387 90.3046 278.387 88.3227V79.444H281.648V77.4621ZM285.177 92.6828H287.525V77.4621H285.177V92.6828ZM286.371 74.9254C287.285 74.9254 288.041 74.2119 288.041 73.3399C288.041 72.4679 287.285 71.7544 286.371 71.7544C285.457 71.7544 284.701 72.4679 284.701 73.3399C284.701 74.2119 285.457 74.9254 286.371 74.9254ZM298.465 77.4621H295.203V73.8155H292.857V77.4621H290.549V79.444H292.857V88.9569C292.857 91.6126 295.005 92.8809 296.993 92.8809C297.867 92.8809 298.425 92.7225 298.743 92.6035L298.265 90.5027C298.067 90.5424 297.749 90.6217 297.231 90.6217C296.197 90.6217 295.203 90.3046 295.203 88.3227V79.444H298.465V77.4621ZM311.619 86.4598C311.619 89.3136 309.431 90.6217 307.681 90.6217C305.733 90.6217 304.341 89.1947 304.341 86.975V77.4621H301.995V87.1336C301.995 91.0181 304.063 92.8809 306.927 92.8809C309.233 92.8809 310.745 91.6523 311.461 90.1064H311.619V92.6828H313.965V77.4621H311.619V86.4598ZM327.889 86.4598C327.889 89.3136 325.701 90.6217 323.951 90.6217C322.003 90.6217 320.611 89.1947 320.611 86.975V77.4621H318.263V87.1336C318.263 91.0181 320.331 92.8809 323.195 92.8809C325.503 92.8809 327.013 91.6523 327.729 90.1064H327.889V92.6828H330.235V77.4621H327.889V86.4598ZM341.175 77.4621H337.913V73.8155H335.567V77.4621H333.261V79.444H335.567V88.9569C335.567 91.6126 337.715 92.8809 339.703 92.8809C340.579 92.8809 341.135 92.7225 341.453 92.6035L340.977 90.5027C340.777 90.5424 340.459 90.6217 339.943 90.6217C338.909 90.6217 337.913 90.3046 337.913 88.3227V79.444H341.175V77.4621Z" fill="#FFFFFF"/>
</svg>
