<svg width="36" height="32" viewBox="0 0 36 32" fill="none" xmlns="http://www.w3.org/2000/svg">
<path d="M24.1079 4.44866L24.108 4.44854L24.0973 4.44564C22.1736 3.92072 20.311 3.72229 18.6404 3.78839L18.6279 3.78889L18.6154 3.79001L18.6053 3.79092C17.9002 3.85432 17.1701 3.91998 16.4366 4.0519C15.6616 4.19127 14.9678 4.46839 14.2977 4.79982C13.5965 5.14662 12.9569 5.63524 12.4543 6.27C11.8884 6.90355 11.4708 7.66905 11.1951 8.55549L11.1897 8.57277L11.1856 8.5904C10.9743 9.4963 10.9683 10.4327 11.3342 11.3768C11.6148 12.1385 12.0972 13.0162 12.9013 14.0104C13.3451 14.5591 13.9177 15.0791 14.6206 15.591C14.0431 15.5443 13.4873 15.5368 12.9532 15.564C12.3715 15.5662 11.7412 15.708 11.229 15.8346C10.6838 15.9694 10.1094 16.1775 9.59307 16.5371C9.09143 16.8247 8.59099 17.2502 8.22625 17.7553C7.85868 18.2643 7.57832 18.8991 7.37319 19.6431L7.37308 19.6431L7.37044 19.6535C7.07897 20.8067 7.22857 21.9044 7.8806 22.9793L7.8868 22.9895L7.89348 22.9994C8.15953 23.3942 8.50876 23.8802 9.06829 24.3672C9.56486 24.8551 10.2497 25.3243 11.0344 25.7771C11.8445 26.2445 12.7806 26.6401 13.8779 27.0871L13.8896 27.0919L13.9017 27.0961C15.0187 27.486 16.328 27.8743 17.8932 28.2614L17.9064 28.2646L17.9198 28.2672C19.6432 28.595 21.3133 28.6637 22.7972 28.4643C23.4226 28.3947 24.103 28.1928 24.729 28.007L24.7549 27.9993C25.4686 27.7875 26.0977 27.4383 26.6996 27.0414C27.3515 26.6115 27.8449 26.0468 28.3055 25.4611L28.3133 25.4511L28.3206 25.4408C28.8114 24.7472 29.1564 23.9905 29.4274 23.0526C29.7836 21.8535 29.7069 20.7295 29.3627 19.5711C29.2112 19.0482 28.9163 18.5472 28.5939 18.0369C28.2541 17.4992 27.8393 16.9503 27.2183 16.4022C26.8442 16.0338 26.3846 15.6725 25.865 15.3178C25.9483 15.328 26.0311 15.3371 26.1136 15.3453C26.7221 15.412 27.2622 15.412 27.8366 15.412H27.8477H27.8751L27.9023 15.409C28.4693 15.3467 29.0564 15.2785 29.5849 15.0569C30.164 14.8405 30.5975 14.552 31.0126 14.2098L31.0301 14.1954L31.0462 14.1795C31.4782 13.7521 31.853 13.2369 32.0766 12.5045C32.3545 11.6771 32.4288 10.9676 32.3566 10.2537C32.2816 9.51207 31.9804 8.76948 31.3246 8.11205C30.7401 7.39958 29.8314 6.79155 28.7267 6.21306C27.5876 5.61654 26.066 5.02972 24.1079 4.44866ZM9.91569 28.0265L9.49913 27.6912L9.19248 28.1293C8.04704 29.7659 6.43764 31.2344 4.50918 31.1803C3.19948 31.1206 2.06061 30.6559 1.2661 29.65C0.521161 28.6248 0.296233 27.2611 0.69434 26.0797C0.912337 25.4328 1.41928 24.8018 2.08789 24.2607L2.08797 24.2608L2.09669 24.2534C2.94663 23.5327 3.98948 22.9841 5.04377 22.6161L5.53924 22.4431L5.3425 21.9566C4.58787 20.0904 4.14966 18.1059 4.14966 15.936C4.14966 7.45056 11.1658 0.5 19.8248 0.5C28.4825 0.5 35.5 7.44926 35.5 16C35.5 24.5507 28.4825 31.5 19.8248 31.5C16.06 31.5 12.6115 30.197 9.91569 28.0265Z" fill="#F0F0F0" stroke="#0E1013"/>
</svg>
