<svg width="48" height="42" viewBox="0 0 48 42" fill="none" xmlns="http://www.w3.org/2000/svg">
<path d="M12.9162 36.9065L12.4997 36.5712L12.193 37.0093C10.6836 39.1659 8.52838 41.1544 5.91251 41.0803C4.1579 41.0006 2.6147 40.3758 1.53713 39.0099C0.529354 37.6247 0.223566 35.781 0.763199 34.1797C1.06207 33.2928 1.75099 32.4418 2.64201 31.7207L2.64209 31.7208L2.6508 31.7134C3.78381 30.7527 5.17039 30.0241 6.5684 29.5361L7.06387 29.3631L6.86713 28.8766C5.86987 26.4104 5.29012 23.7859 5.29012 20.916C5.29012 9.69056 14.5708 0.5 26.02 0.5C37.4679 0.5 46.7499 9.68926 46.7499 21C46.7499 32.3107 37.4679 41.5 26.02 41.5C21.042 41.5 16.4814 39.777 12.9162 36.9065Z" fill="#0E1013" stroke="#0E1013"/>
<path d="M35.9674 12.0569C35.8843 11.5533 35.7182 10.9657 35.2198 10.4622C34.8045 9.95857 34.0569 9.45499 33.1431 8.9514C32.2294 8.44781 30.9834 7.94423 29.4052 7.52457C27.8269 7.10491 26.3317 6.93705 25.0026 7.02098C24.4212 7.10491 23.8397 7.10491 23.2582 7.27278C22.6768 7.35671 22.0953 7.6085 21.5969 7.86029C21.0154 8.11209 20.6001 8.44781 20.1848 8.9514C19.7694 9.45499 19.4372 10.0425 19.188 10.714C19.1049 11.4693 19.1049 12.1408 19.3541 12.8122C19.6033 13.3998 19.9356 14.0712 20.6001 14.9105C21.2646 15.7498 22.2614 16.5052 23.7566 17.2606C22.5106 16.9249 21.4308 16.8409 20.3509 16.9249C19.9356 16.9249 19.4372 17.0088 19.0218 17.1767C18.6065 17.3445 18.1912 17.4284 17.7758 17.6802C17.3605 17.932 17.0282 18.1838 16.779 18.6035C16.5298 19.0231 16.2806 19.4428 16.1145 20.0303C15.8653 20.8696 16.0314 21.7089 16.5298 22.4643C16.779 22.8 17.0282 23.1358 17.4436 23.5554C17.8589 23.8911 18.3573 24.3108 19.0218 24.6465C19.6864 24.9823 20.434 25.318 21.3477 25.7376C22.2614 26.0734 23.3413 26.4091 24.5873 26.7448C25.9994 26.9966 27.3285 27.0805 28.4914 26.9127C28.9898 26.8287 29.4882 26.6609 30.0697 26.5769C30.5681 26.4091 31.0665 26.1573 31.5649 25.8216C32.0633 25.4858 32.3955 25.0662 32.8109 24.5626C33.2262 24.059 33.4754 23.4715 33.6415 22.7161C33.8907 21.7929 33.8907 20.9536 33.5585 20.0303C33.3923 19.6107 33.2262 19.191 32.8939 18.7713C32.6447 18.3517 32.3125 17.932 31.8141 17.5124C31.3987 17.0927 30.8173 16.6731 30.0697 16.2534C29.4051 15.8338 28.5745 15.4141 27.6608 14.9944C28.9898 15.498 30.1527 15.8338 31.2326 15.9177C31.731 16.0016 32.1463 16.0016 32.6447 16.0016C33.1431 15.9177 33.5585 15.9177 33.9738 15.7498C34.3891 15.582 34.7214 15.4141 35.0537 15.0784C35.3859 14.7426 35.6351 14.4069 35.8013 13.8194C35.9674 13.148 36.0505 12.6444 35.9674 12.0569Z" fill="white"/>
<path d="M24.1059 37.0001V35.9361H21.9539V34.7761H23.9379V33.7121H21.9539V32.7361H24.1059V31.6721H20.7539V37.0001H24.1059ZM25.0273 37.0001H26.2273V31.6721H25.0273V37.0001ZM27.9313 37.0001H29.2833L27.6753 34.2801L29.1713 31.6721H27.8193L26.3793 34.2801L27.9313 37.0001ZM31.2048 37.0001V31.6721H30.0048V37.0001H31.2048Z" fill="white"/>
</svg>
