<svg width="48" height="42" viewBox="0 0 48 42" fill="none" xmlns="http://www.w3.org/2000/svg">
<path d="M12.9163 36.9065L12.4998 36.5712L12.1931 37.0093C10.6837 39.1659 8.52843 41.1544 5.91256 41.0803C4.15795 41.0006 2.61475 40.3758 1.53718 39.0099C0.529407 37.6247 0.223619 35.781 0.763252 34.1797C1.06212 33.2928 1.75104 32.4418 2.64206 31.7207L2.64214 31.7208L2.65085 31.7134C3.78386 30.7527 5.17044 30.0241 6.56845 29.5361L7.06392 29.3631L6.86718 28.8766C5.86992 26.4104 5.29017 23.7859 5.29017 20.916C5.29017 9.69056 14.5709 0.5 26.0201 0.5C37.468 0.5 46.75 9.68926 46.75 21C46.75 32.3107 37.468 41.5 26.0201 41.5C21.0421 41.5 16.4815 39.777 12.9163 36.9065Z" stroke="#0E1013"/>
<path d="M36.4625 11.9869L36.4626 11.9868L36.4607 11.9755C36.3712 11.4326 36.1825 10.7331 35.591 10.1266C35.1082 9.5501 34.2928 9.01409 33.3845 8.5135C32.4283 7.9865 31.1429 7.46925 29.5336 7.04136C27.9134 6.61056 26.3636 6.43404 24.9711 6.52198L24.9511 6.52324L24.9312 6.52611C24.7485 6.55249 24.5752 6.56912 24.3892 6.58696C24.2898 6.5965 24.1867 6.60639 24.0766 6.61831C23.7859 6.64978 23.4731 6.6935 23.1526 6.78301C22.5059 6.88266 21.8835 7.156 21.3844 7.40747C20.7266 7.69483 20.2534 8.08237 19.799 8.63327C19.3449 9.18392 18.9859 9.82125 18.7192 10.54L18.6977 10.5979L18.691 10.6593C18.6047 11.4435 18.596 12.2067 18.8853 12.9862L18.8893 12.9969L18.8938 13.0075C19.1556 13.6247 19.5089 14.3378 20.2081 15.2209C20.5362 15.6353 20.9337 16.0249 21.4124 16.399C21.0484 16.3881 20.6897 16.3977 20.331 16.4249C19.8628 16.4275 19.3089 16.5213 18.8345 16.7131C18.7089 16.7638 18.5943 16.8024 18.4656 16.8456C18.3936 16.8698 18.3173 16.8955 18.2321 16.9256C18.0109 17.0038 17.7667 17.1011 17.5166 17.2527C17.075 17.5204 16.6603 17.8241 16.3491 18.3482L16.3419 18.3603C16.095 18.7761 15.8182 19.2422 15.6342 19.8912C15.3386 20.8904 15.5453 21.88 16.1125 22.7397L16.1201 22.7512L16.1283 22.7623L16.1309 22.7658C16.3814 23.1033 16.6479 23.4623 17.0882 23.9071L17.1077 23.9268L17.1292 23.9443C17.1591 23.9684 17.1897 23.9933 17.2211 24.0187C17.6162 24.3395 18.1288 24.7555 18.7964 25.0928C19.3563 25.3757 19.9745 25.6587 20.6864 25.9846C20.8332 26.0518 20.9839 26.1208 21.139 26.192L21.1568 26.2002L21.1752 26.207C22.1065 26.5491 23.2012 26.8892 24.4572 27.2276L24.4782 27.2332L24.4995 27.237C25.9412 27.4941 27.328 27.5858 28.5628 27.4075L28.5629 27.4077L28.5744 27.4057C28.8159 27.3651 29.0566 27.3064 29.284 27.251C29.312 27.2442 29.3397 27.2374 29.3672 27.2307C29.6254 27.1681 29.8756 27.1101 30.1411 27.0718L30.1862 27.0653L30.2293 27.0508C30.7756 26.8668 31.3139 26.5935 31.8442 26.2363C32.3773 25.8772 32.7432 25.4321 33.1176 24.9768C33.1438 24.9448 33.1702 24.9128 33.1966 24.8807C33.6744 24.3014 33.9497 23.6371 34.1273 22.835C34.3969 21.8293 34.3984 20.8877 34.0289 19.861L34.0263 19.8536L34.0234 19.8463L34.0165 19.8289C33.8563 19.424 33.6712 18.9564 33.3069 18.4876C33.0354 18.0367 32.6762 17.5879 32.1533 17.1445C31.9121 16.903 31.6262 16.6663 31.2981 16.4338C31.7736 16.5016 32.186 16.5016 32.6303 16.5016H32.6447H32.6866L32.7278 16.4947C32.8751 16.4699 32.9947 16.4553 33.121 16.4399C33.2106 16.429 33.3035 16.4177 33.4119 16.4021C33.6464 16.3682 33.8994 16.3192 34.1612 16.2134C34.6033 16.0347 35.0076 15.8358 35.4091 15.4301C35.785 15.0502 36.0879 14.6435 36.2824 13.9555L36.2847 13.9475L36.2866 13.9395C36.4572 13.2502 36.5592 12.6711 36.4625 11.9869Z" stroke="#0E1013"/>
<path d="M24.1059 37.0001V35.9361H21.9539V34.7761H23.9379V33.7121H21.9539V32.7361H24.1059V31.6721H20.7539V37.0001H24.1059Z" fill="#0E1013"/>
<path d="M25.0273 37.0001H26.2273V31.6721H25.0273V37.0001ZM27.9313 37.0001H29.2833L27.6753 34.2801L29.1713 31.6721H27.8193L26.3793 34.2801L27.9313 37.0001Z" fill="#0E1013"/>
<path d="M31.2048 37.0001V31.6721H30.0048V37.0001H31.2048Z" fill="#0E1013"/>
</svg>
