<svg id="Layer_1" data-name="Layer 1" xmlns="http://www.w3.org/2000/svg" viewBox="0 0 601.73 87.97"><defs><style>.cls-1{fill:#231f20;}.cls-2{fill:#fff;}.cls-3{fill:#4125d0;}</style></defs><path class="cls-1" d="M103.8,8.6h8.72V21.37L124.65,8.6H135L121.5,22.75l14.29,21.1H125.64L115.48,28.61l-3,3.11V43.85H103.8Z"/><path class="cls-1" d="M134.68,31.18c0-7.55,5.28-13.31,13-13.31A12.42,12.42,0,0,1,156.28,21c3,2.76,4.48,7.15,4.43,12.28H142.57c.5,3.4,2.37,5.52,5.67,5.52a4.19,4.19,0,0,0,4.19-2.52h7.84a10.26,10.26,0,0,1-4.24,6,13.33,13.33,0,0,1-7.89,2.32C139.81,44.59,134.68,38.82,134.68,31.18Zm17.9-2.67c-.3-3-2.17-4.93-4.78-4.93-3.06,0-4.64,1.93-5.18,4.93Z"/><path class="cls-1" d="M162.33,31.18c0-7.55,5.28-13.31,13-13.31A12.38,12.38,0,0,1,183.92,21c3,2.76,4.49,7.15,4.44,12.28H170.22c.49,3.4,2.37,5.52,5.67,5.52a4.19,4.19,0,0,0,4.19-2.52h7.84a10.26,10.26,0,0,1-4.24,6,13.33,13.33,0,0,1-7.89,2.32C167.46,44.59,162.33,38.82,162.33,31.18Zm17.9-2.67c-.3-3-2.17-4.93-4.78-4.93-3.06,0-4.64,1.93-5.18,4.93Z"/><path class="cls-1" d="M191.24,8.6h8.14V43.85h-8.14Z"/><path class="cls-1" d="M202.25,31.18c0-7.55,5.28-13.31,13-13.31A12.38,12.38,0,0,1,223.84,21c3,2.76,4.49,7.15,4.44,12.28H210.14c.49,3.4,2.37,5.52,5.67,5.52A4.19,4.19,0,0,0,220,36.3h7.84a10.26,10.26,0,0,1-4.24,6,13.36,13.36,0,0,1-7.89,2.32C207.38,44.59,202.25,38.82,202.25,31.18Zm17.9-2.67c-.3-3-2.17-4.93-4.78-4.93-3.06,0-4.64,1.93-5.18,4.93Z"/><path class="cls-1" d="M229.9,31.28c0-7.6,5.42-13.37,13.51-13.37s13.45,5.77,13.45,13.37-5.32,13.35-13.45,13.35S229.9,38.87,229.9,31.28ZM240.3,9a6.81,6.81,0,0,1,3.25.94,5.69,5.69,0,0,0,2.42.89c1,0,1.33-.69,1.48-1.73h4.14c0,3.85-1.73,6.51-4.93,6.51a8.14,8.14,0,0,1-3.25-.79,6.66,6.66,0,0,0-2.57-.94c-.79,0-1.33.64-1.48,1.78h-4.14C235.22,11.26,237.49,9,240.3,9Zm8.43,22.24c0-4.59-1.87-7.7-5.37-7.7S238,26.69,238,31.28s1.83,7.64,5.33,7.64S248.73,35.86,248.73,31.28Z"/><path class="cls-1" d="M259.72,18.61h7.69v3.05h.15a9.16,9.16,0,0,1,7.64-3.79c6.71,0,10.8,5.76,10.8,13.36,0,8.18-4.39,13.4-11,13.4a8.38,8.38,0,0,1-7.14-3.4h-.1v11h-8Zm18.14,12.91c0-4.34-1.62-7.2-5.08-7.2s-5.27,3.11-5.27,7.2,2,6.9,5.42,6.9C276,38.42,277.86,35.81,277.86,31.52Z"/><path class="cls-1" d="M289,18.61h7.69v3.05h.15a9.17,9.17,0,0,1,7.64-3.79c6.71,0,10.8,5.76,10.8,13.36,0,8.18-4.39,13.4-11,13.4a8.38,8.38,0,0,1-7.15-3.4H297v11h-8Zm18.14,12.91c0-4.34-1.62-7.2-5.07-7.2s-5.28,3.11-5.28,7.2,2,6.9,5.42,6.9C305.22,38.42,307.09,35.81,307.09,31.52Z"/><path class="cls-1" d="M318.23,8.6h8v6.51h-8Zm0,10h8V43.85h-8Z"/><path class="cls-1" d="M326.07,51.93V46.36c2.81,0,4.24,0,4.24-2.71v-25h8V44c0,3.36-.74,5.08-1.93,6.31a7.81,7.81,0,0,1-5.81,2A26.35,26.35,0,0,1,326.07,51.93ZM330.31,8.6h8v6.51h-8Z"/><path class="cls-1" d="M341.12,36.8c0-5.57,4.44-7.25,9.66-7.94,4.74-.59,6.41-1.08,6.41-2.81s-1-2.71-3.45-2.71-3.84,1.13-4.09,3.25h-7.39c.19-4.68,3.79-8.68,11.43-8.68,3.8,0,6.36.7,8.19,2.08,2.16,1.57,3.2,4,3.2,7.19V39.9c0,2,.2,3.16.89,3.6v.35h-7.79a7,7,0,0,1-.84-2.81h-.1c-1.48,2.12-3.7,3.45-7.49,3.45C344.72,44.49,341.12,41.78,341.12,36.8Zm16.27-2v-3a19.22,19.22,0,0,1-4.14,1.33c-3.11.69-4.39,1.48-4.39,3.4s1.48,2.81,3.45,2.81C355.32,39.36,357.39,37.54,357.39,34.82Z"/><path class="cls-1" d="M375.45,32.76h8.77c.4,3.54,2.71,5,6.9,5,2.86,0,5.67-1,5.67-3.69,0-2.81-2.86-3.41-7.69-4.59-6.11-1.43-12.57-3.3-12.57-10.7S382.64,8,390.53,8c7.64,0,13.56,3.45,13.9,10.84h-8.52c-.35-2.71-2.42-4.24-5.67-4.24-3.06,0-5.08,1.33-5.08,3.31,0,2.46,2.71,3.05,8,4.24,6.56,1.52,12.48,3.55,12.48,11.09,0,7.39-6.31,11.48-14.45,11.48C381.81,44.68,375.64,40.54,375.45,32.76Z"/><path class="cls-1" d="M407.52,31.28c0-7.6,5.42-13.37,13.51-13.37s13.45,5.77,13.45,13.37S429.16,44.63,421,44.63,407.52,38.87,407.52,31.28ZM417.92,9a6.85,6.85,0,0,1,3.25.94,5.69,5.69,0,0,0,2.42.89c1,0,1.33-.69,1.48-1.73h4.14c0,3.85-1.73,6.51-4.93,6.51a8.14,8.14,0,0,1-3.25-.79,6.66,6.66,0,0,0-2.57-.94c-.79,0-1.33.64-1.48,1.78h-4.14C412.84,11.26,415.11,9,417.92,9Zm8.43,22.24c0-4.59-1.87-7.7-5.37-7.7s-5.33,3.11-5.33,7.7,1.83,7.64,5.33,7.64S426.35,35.86,426.35,31.28Z"/><path class="cls-1" d="M437.34,18.61h7.74v3.45h.15A8.85,8.85,0,0,1,453,17.87c5.52,0,8.77,3.94,8.77,9.56V43.85h-8V29.06c0-2.67-1.33-4.49-3.95-4.49s-4.44,2.22-4.44,5.32v14h-8Z"/><path class="cls-1" d="M464.45,36.8c0-5.57,4.43-7.25,9.66-7.94,4.73-.59,6.41-1.08,6.41-2.81s-1-2.71-3.45-2.71c-2.57,0-3.85,1.13-4.1,3.25h-7.39c.2-4.68,3.8-8.68,11.44-8.68,3.79,0,6.36.7,8.18,2.08,2.17,1.57,3.2,4,3.2,7.19V39.9c0,2,.2,3.16.89,3.6v.35H481.5a7.21,7.21,0,0,1-.84-2.81h-.09c-1.48,2.12-3.7,3.45-7.5,3.45C468,44.49,464.45,41.78,464.45,36.8Zm16.26-2v-3a19.22,19.22,0,0,1-4.14,1.33c-3.1.69-4.38,1.48-4.38,3.4s1.47,2.81,3.45,2.81C478.64,39.36,480.71,37.54,480.71,34.82Z"/><path class="cls-1" d="M489.23,18.61h8.28L501,30c.73,2.52,1.37,5.08,1.37,5.08h.1s.65-2.56,1.38-5.08l3.5-11.38h8l-8.73,25.24H498Z"/><path class="cls-1" d="M515,31.18c0-7.55,5.27-13.31,13-13.31A12.42,12.42,0,0,1,536.56,21c3,2.76,4.48,7.15,4.44,12.28H522.85c.5,3.4,2.37,5.52,5.67,5.52a4.19,4.19,0,0,0,4.19-2.52h7.84a10.26,10.26,0,0,1-4.24,6,13.33,13.33,0,0,1-7.89,2.32C520.09,44.59,515,38.82,515,31.18Zm17.89-2.67c-.3-3-2.17-4.93-4.78-4.93-3.06,0-4.64,1.93-5.18,4.93Z"/><path class="cls-1" d="M542.61,31.18c0-7.55,5.28-13.31,13-13.31A12.42,12.42,0,0,1,564.21,21c3,2.76,4.48,7.15,4.43,12.28H550.5c.49,3.4,2.37,5.52,5.67,5.52a4.19,4.19,0,0,0,4.19-2.52h7.84a10.26,10.26,0,0,1-4.24,6,13.33,13.33,0,0,1-7.89,2.32C547.74,44.59,542.61,38.82,542.61,31.18Zm17.9-2.67c-.3-3-2.17-4.93-4.78-4.93-3.06,0-4.64,1.93-5.18,4.93Z"/><path class="cls-1" d="M579.23,40.64h-.09v3.21h-7.7V8.6h8V21.47h.15a8.24,8.24,0,0,1,7.2-3.6c6.55,0,10.79,5.76,10.79,13.36,0,8.38-4.24,13.4-10.75,13.4A8.46,8.46,0,0,1,579.23,40.64Zm10.26-9.46c0-4.34-1.73-7.2-5-7.2-3.55,0-5.28,3.11-5.28,7.25s2.07,7.05,5.38,7.05C587.76,38.28,589.49,35.56,589.49,31.18Z"/><path class="cls-1" d="M102.36,58.29h13.2v2.07H104.71v5.91h9.86v2h-9.86v6.56h11.17V77H102.36Z"/><path class="cls-1" d="M116.8,70.24c0-3.92,2.57-7.11,6.41-7.11,4.05,0,6.22,3.14,6.22,7.61H119c.16,2.75,1.65,4.84,4.37,4.84a3.5,3.5,0,0,0,3.74-2.77h2.07a5.5,5.5,0,0,1-5.81,4.54C119.21,77.35,116.8,74.16,116.8,70.24Zm2.23-1.1h8.13c-.13-2.69-1.52-4.34-4-4.34S119.34,66.69,119,69.14Z"/><path class="cls-1" d="M130.42,72.6h2.16c.29,2.35,1.86,3,3.87,3,2.23,0,3.14-1,3.14-2.22,0-1.52-1-1.91-3.53-2.43-2.67-.55-5-1.1-5-4,0-2.25,1.72-3.72,4.86-3.72,3.35,0,5,1.6,5.31,4.24H139c-.21-1.78-1.18-2.56-3.19-2.56s-2.72.86-2.72,1.93c0,1.47,1.31,1.75,3.63,2.22,2.72.55,5,1.15,5,4.27,0,2.72-2.23,4.1-5.34,4.1C132.69,77.38,130.62,75.63,130.42,72.6Z"/><path class="cls-1" d="M142.43,63.47h2V59.21h2.12v4.26h2.61V65.2h-2.61V74c0,.94.49,1.26,1.36,1.26a3.86,3.86,0,0,0,1.12-.19h.08v1.84a8.61,8.61,0,0,1-1.7.18c-1.72,0-3-.71-3-2.62V65.2h-2Z"/><path class="cls-1" d="M151.1,58.29h2.12v2.62H151.1Zm0,5.18h2.12V77H151.1Z"/><path class="cls-1" d="M160.14,58.29h2.35v9.29l9.21-9.29h3l-7.55,7.48L175.28,77h-2.74l-7-9.62-3,3V77h-2.35Z"/><path class="cls-1" d="M174.64,70.24c0-3.92,2.56-7.11,6.41-7.11,4,0,6.22,3.14,6.22,7.61H176.81c.16,2.75,1.65,4.84,4.37,4.84a3.49,3.49,0,0,0,3.73-2.77H187a5.5,5.5,0,0,1-5.8,4.54C177,77.35,174.64,74.16,174.64,70.24Zm2.22-1.1H185c-.13-2.69-1.51-4.34-3.94-4.34S177.17,66.69,176.86,69.14Z"/><path class="cls-1" d="M188.35,70.24c0-3.92,2.56-7.11,6.41-7.11,4.05,0,6.22,3.14,6.22,7.61H190.52c.16,2.75,1.65,4.84,4.37,4.84a3.5,3.5,0,0,0,3.74-2.77h2.06a5.48,5.48,0,0,1-5.8,4.54C190.76,77.35,188.35,74.16,188.35,70.24Zm2.22-1.1h8.14c-.13-2.69-1.52-4.34-4-4.34S190.89,66.69,190.57,69.14Z"/><path class="cls-1" d="M202.9,58.29H205V77H202.9Z"/><path class="cls-1" d="M207,70.24c0-3.92,2.57-7.11,6.41-7.11,4.05,0,6.22,3.14,6.22,7.61H209.17c.16,2.75,1.65,4.84,4.37,4.84a3.5,3.5,0,0,0,3.74-2.77h2.06a5.48,5.48,0,0,1-5.8,4.54C209.41,77.35,207,74.16,207,70.24Zm2.23-1.1h8.13c-.13-2.69-1.52-4.34-4-4.34S209.54,66.69,209.23,69.14Z"/><path class="cls-1" d="M225.79,58.29h2.35V77h-2.35Z"/><path class="cls-1" d="M233.28,65.25h.06a5,5,0,0,1,4.28-2.09c2.83,0,4.55,1.54,4.55,4.34V77h-2.11V67.68c0-1.75-1.15-2.75-3.06-2.75a3.58,3.58,0,0,0-3.72,3.75V77h-2.12V63.47h2.12Z"/><path class="cls-1" d="M243.89,72.6h2.17c.28,2.35,1.85,3,3.87,3,2.22,0,3.13-1,3.13-2.22,0-1.52-1-1.91-3.53-2.43-2.66-.55-5-1.1-5-4,0-2.25,1.72-3.72,4.86-3.72,3.35,0,5,1.6,5.31,4.24h-2.17c-.21-1.78-1.18-2.56-3.19-2.56s-2.72.86-2.72,1.93c0,1.47,1.31,1.75,3.63,2.22,2.72.55,5,1.15,5,4.27,0,2.72-2.22,4.1-5.34,4.1C246.16,77.38,244.1,75.63,243.89,72.6Z"/><path class="cls-1" d="M255.9,63.47h2V59.21H260v4.26h2.62V65.2H260V74c0,.94.5,1.26,1.36,1.26a4,4,0,0,0,1.13-.19h.07v1.84a8.53,8.53,0,0,1-1.7.18c-1.72,0-3-.71-3-2.62V65.2h-2Z"/><path class="cls-1" d="M264.58,58.29h2.11v2.62h-2.11Zm0,5.18h2.11V77h-2.11Z"/><path class="cls-1" d="M268.49,63.47h2V59.21h2.12v4.26h2.62V65.2h-2.62V74c0,.94.5,1.26,1.36,1.26a4,4,0,0,0,1.13-.19h.08v1.84a8.69,8.69,0,0,1-1.7.18c-1.73,0-3-.71-3-2.62V65.2h-2Z"/><path class="cls-1" d="M285.77,77V75.13h0a4.69,4.69,0,0,1-4.08,2.17,4.18,4.18,0,0,1-4.55-4.47V63.47h2.12v9.31c0,1.75,1.12,2.77,3,2.77a3.5,3.5,0,0,0,3.53-3.76V63.47h2.12V77Z"/><path class="cls-1" d="M299.14,77V75.13h-.05A4.69,4.69,0,0,1,295,77.3a4.18,4.18,0,0,1-4.55-4.47V63.47h2.12v9.31c0,1.75,1.12,2.77,3,2.77a3.49,3.49,0,0,0,3.53-3.76V63.47h2.12V77Z"/><path class="cls-1" d="M303.05,63.47h2V59.21h2.12v4.26h2.62V65.2h-2.62V74c0,.94.5,1.26,1.36,1.26a3.86,3.86,0,0,0,1.12-.19h.08v1.84a8.53,8.53,0,0,1-1.7.18c-1.72,0-3-.71-3-2.62V65.2h-2Z"/><circle class="cls-2" cx="44.82" cy="43.35" r="39.64" transform="translate(-1.61 84.98) rotate(-85.93)"/><path class="cls-3" d="M44.82,5.47A37.88,37.88,0,1,1,6.94,43.35,37.92,37.92,0,0,1,44.82,5.47m0-3.51A41.4,41.4,0,1,0,86.21,43.35,41.39,41.39,0,0,0,44.82,2Z"/><path class="cls-3" d="M57.69,20H32.31V45.76H47c-.19,4.81-1.4,8.34-3.6,10.5s-6,3.47-11.05,3.73V70.73C48,70.12,57.69,61.92,57.69,44.4V20"/></svg>