<svg width="24" height="18" viewBox="0 0 24 18" fill="none" xmlns="http://www.w3.org/2000/svg">
<path shape-rendering="crispEdges" d="M15.4725 6.39841C15.087 6.10542 14.5196 6.157 14.2069 6.51802C13.8917 6.87802 13.9479 7.40923 14.3334 7.70419C14.7563 8.02966 15 8.50076 15 8.96834C15 9.4665 14.7563 9.9383 14.3321 10.2631C13.9466 10.5583 13.8904 11.0893 14.2056 11.4493C14.3825 11.6534 14.6413 11.7588 14.9016 11.7588C15.102 11.7588 15.3047 11.6962 15.4712 11.5689C16.3163 10.9511 16.8 10.0054 16.8 8.96834C16.8 7.93123 16.3163 7.04529 15.4725 6.39841ZM17.7413 3.80388C17.358 3.51089 16.791 3.56138 16.4745 3.92131C16.1593 4.28131 16.2155 4.81252 16.5999 5.10748C17.8725 6.05037 18.6 7.49881 18.6 8.96834C18.6 10.4379 17.871 11.8547 16.6009 12.8601C16.2165 13.1553 16.1603 13.6863 16.4755 14.0463C16.6536 14.2493 16.9112 14.3547 17.1715 14.3547C17.373 14.3547 17.5746 14.2921 17.7422 14.1637C19.4325 12.8988 20.4 11.0039 20.4 8.96834C20.4 6.93279 19.4325 5.09763 17.7413 3.80388ZM20.04 1.1742C19.6568 0.881206 19.0898 0.932781 18.7733 1.29162C18.458 1.65162 18.5143 2.18283 18.8987 2.47779C20.9963 4.08865 22.2 6.46521 22.2 8.96834C22.2 11.4715 20.9966 13.8797 18.8978 15.4898C18.5134 15.785 18.4571 16.316 18.7724 16.676C18.9488 16.9101 19.2075 17.0156 19.47 17.0156C19.6716 17.0156 19.8731 16.9531 20.0408 16.8247C22.5563 14.8922 24 12.041 24 8.96834C24 5.89568 22.5563 3.10568 20.04 1.1742ZM11.295 1.22975C10.8638 1.0476 10.3571 1.1216 10.0039 1.41572L4.9425 5.62849H1.8C0.805875 5.62849 0 6.38365 0 7.31459V10.6868C0 11.6177 0.805875 12.3729 1.8 12.3729H4.944L10.0028 16.5846C10.2263 16.7695 10.5113 16.8679 10.8 16.8679C10.9664 16.8679 11.136 16.8352 11.2935 16.7683C11.7263 16.5867 12 16.1859 12 15.7465V2.2542C12 1.81228 11.7263 1.4108 11.295 1.22975Z" fill="#3F3F3F"/>
</svg>
