<svg width="213" height="186" viewBox="0 0 213 186" fill="none" xmlns="http://www.w3.org/2000/svg">
<line x1="80.4704" y1="146.169" x2="71.4704" y2="171.169" stroke="black"/>
<path d="M72 171L60 165" stroke="black"/>
<line x1="123.467" y1="134.821" x2="136.467" y2="168.821" stroke="black"/>
<path d="M135 169L147 163" stroke="black"/>
<line x1="147.319" y1="69.5192" x2="170.233" y2="81.5573" stroke="black"/>
<line x1="182.158" y1="53.5258" x2="194.158" y2="57.5258" stroke="black"/>
<path d="M169.446 82.4117L183 53.0001" stroke="black"/>
<line x1="66.808" y1="70.4028" x2="44.2354" y2="82.4412" stroke="black"/>
<line x1="31.202" y1="53.4575" x2="19.861" y2="58.4575" stroke="black"/>
<path d="M44.2131 82.4116L30.6592 53" stroke="black"/>
<path d="M70 72.895V1H143V75.2652C143 128.989 94.3333 143.473 70 144V113.188C106.183 113.188 113.112 86.326 112.054 72.895H70Z" fill="#D7E5F2"/>
<line x1="93.5318" y1="24.4902" x2="66.095" y2="29.7881" stroke="black"/>
<circle cx="83.5" cy="39.4993" r="1.5" fill="black"/>
<circle cx="93.5" cy="59.4993" r="1.5" fill="black"/>
<circle cx="109.5" cy="36.4993" r="1.5" fill="black"/>
<line x1="133.271" y1="27.471" x2="104.834" y2="17.471" stroke="black"/>
</svg>
