<svg width="16" height="12" viewBox="0 0 16 12" fill="none" xmlns="http://www.w3.org/2000/svg">
<path d="M15.5463 2.20488C15.4566 1.87097 15.2808 1.56645 15.0365 1.32182C14.7922 1.07719 14.4879 0.901017 14.1541 0.810938C12.9254 0.480469 8 0.480469 8 0.480469C8 0.480469 3.07461 0.480469 1.8459 0.80918C1.51195 0.898967 1.2075 1.07504 0.963135 1.31972C0.718766 1.5644 0.543077 1.86906 0.453711 2.20312C0.125 3.43359 0.125 6 0.125 6C0.125 6 0.125 8.56641 0.453711 9.79512C0.634766 10.4736 1.16914 11.008 1.8459 11.1891C3.07461 11.5195 8 11.5195 8 11.5195C8 11.5195 12.9254 11.5195 14.1541 11.1891C14.8326 11.008 15.3652 10.4736 15.5463 9.79512C15.875 8.56641 15.875 6 15.875 6C15.875 6 15.875 3.43359 15.5463 2.20488ZM6.43555 8.35547V3.64453L10.5137 5.98242L6.43555 8.35547Z" fill="#173148"/>
</svg>
