<svg width="24" height="24" viewBox="0 0 24 24" fill="none" xmlns="http://www.w3.org/2000/svg">
<g id="Aastaajad" clip-path="url(#clip0_4378_81403)">
<path id="Vector" d="M23.6063 7.80469L21.855 6.75844L22.3193 2.58563C22.3487 2.32341 22.2523 2.08359 22.0838 1.91578C21.9141 1.74891 21.675 1.65234 21.4125 1.68188L17.2397 2.14603L16.1939 0.394781C16.0382 0.136219 15.7722 0.00403123 15.5048 0.000374981C15.2374 -0.00329065 14.9686 0.121594 14.8069 0.377203L10.5938 6.99844L11.3766 3.95016C11.5058 3.35672 10.9712 2.8336 10.3833 2.98031L9.17344 3.63281L7.04062 1.21734C6.71752 0.811782 6.09469 0.811782 5.77125 1.21734L3.63562 3.63281L2.43094 2.98031C1.84313 2.83345 1.30266 3.35639 1.43766 3.95016L2.98922 11.4783L1.24359 12.2297C0.585469 12.5117 0.585469 13.4405 1.24359 13.7283L6.36234 16.0477L0.329531 22.0805C0.109875 22.2984 0 22.5891 0 22.8328C0 23.1207 0.109875 23.4084 0.329578 23.6283C0.549375 23.8922 0.83625 23.9578 1.125 23.9578C1.41375 23.9578 1.70063 23.8479 1.92047 23.6282L7.95328 17.5954L10.2722 22.7142C10.5601 23.3723 11.4886 23.3723 11.7708 22.7142L12.5231 20.9686L20.0513 22.5201C20.6447 22.6553 21.1678 22.1147 21.0211 21.5268L20.3686 20.3222L22.7841 18.1889C23.1895 17.8655 23.1895 17.2425 22.7841 16.9195L20.3686 14.7862L21.0211 13.5754C21.168 12.9876 20.6449 12.4528 20.0513 12.5821L17.0011 13.3636L23.6245 9.14996C23.8801 8.98829 24.005 8.71936 24.0014 8.45199C23.9953 8.22657 23.8641 7.95938 23.6063 7.80469ZM14.7797 10.2797L10.2797 14.7797C10.1344 14.925 9.94219 14.9578 9.75 14.9578C9.55781 14.9578 9.36562 14.925 9.22031 14.7797C8.92734 14.4867 8.92734 14.0124 9.22031 13.7194L13.7203 9.21938C14.0133 8.92641 14.4881 8.92641 14.7806 9.21938C15.075 9.51094 15.075 9.98907 14.7797 10.2797Z" fill="#2C6FB6"/>
</g>
<defs>
<clipPath id="clip0_4378_81403">
<rect width="24" height="24" fill="white"/>
</clipPath>
</defs>
</svg>
