<svg width="30" height="24" viewBox="0 0 30 24" fill="none" xmlns="http://www.w3.org/2000/svg">
<g id="Elutuba">
<path id="Vector" d="M7.5 10.5V13.5H22.5V10.5C22.5 8.84531 23.8453 7.5 25.5 7.5H27C27 5.01562 24.9844 3 22.5 3H7.5C5.01562 3 3 5.01562 3 7.5H4.5C6.15469 7.5 7.5 8.84531 7.5 10.5ZM27 9H25.5C24.6703 9 24 9.67031 24 10.5V15H6V10.5C6 9.67031 5.32969 9 4.5 9H3C1.34531 9 0 10.3453 0 12C0 13.1063 0.609375 14.0625 1.5 14.5828V20.25C1.5 20.6625 1.8375 21 2.25 21H5.25C5.6625 21 6 20.6625 6 20.25V19.5H24V20.25C24 20.6625 24.3375 21 24.75 21H27.75C28.1625 21 28.5 20.6625 28.5 20.25V14.5828C29.3906 14.0625 30 13.1063 30 12C30 10.3453 28.6547 9 27 9Z" fill="#2C6FB6"/>
</g>
</svg>
