<svg width="576" height="512" viewBox="0 0 576 512" fill="none" xmlns="http://www.w3.org/2000/svg">
<g clip-path="url(#clip0_2_15)">
<path d="M320 32C320 22.1 315.5 12.8 307.7 6.8C299.9 0.799997 289.8 -1.4 280.2 0.999997L100.3 46C79 51.3 64 70.5 64 92.5V448H32C14.3 448 0 462.3 0 480C0 497.7 14.3 512 32 512H96H288H320V480V32ZM256 256C256 273.7 245.3 288 232 288C218.7 288 208 273.7 208 256C208 238.3 218.7 224 232 224C245.3 224 256 238.3 256 256ZM352 128H448V480V512H480H544C561.7 512 576 497.7 576 480C576 462.3 561.7 448 544 448H512V128C512 92.7 483.3 64 448 64H352V128Z" fill="#2C6FB6"/>
</g>
<defs>
<clipPath id="clip0_2_15">
<rect width="576" height="512" fill="white"/>
</clipPath>
</defs>
</svg>
