<svg width="24" height="24" viewBox="0 0 24 24" fill="none" xmlns="http://www.w3.org/2000/svg">
<g id="Hobid">
<path id="Vector" d="M3.46922 9.75H3.00047C2.58445 9.75 2.25047 10.084 2.25047 10.5V11.25C2.25047 11.666 2.58431 12 2.95828 12H3.70828C3.69656 14.0217 3.45047 16.0373 2.95828 18H8.95828C8.46609 16.0369 8.22 14.0212 8.20828 12H8.91609C9.33211 12 9.66609 11.666 9.66609 11.25L9.75 10.5C9.75 10.084 9.41616 9.75 9.04219 9.75H8.57344L10.1616 5.51344C10.1531 5.42813 10.1672 5.30156 10.1672 5.25469C10.1672 4.83281 9.82031 4.5 9.41719 4.5H6.75V3H7.5C7.91456 3 8.25 2.66456 8.25 2.25C8.25 1.83544 7.91719 1.5 7.5 1.5H6.75L6.75015 0.75C6.75015 0.335438 6.41453 0 6.00015 0C5.58578 0 5.25015 0.335438 5.25015 0.75V1.5H4.50047C4.08591 1.5 3.75047 1.83544 3.75047 2.25C3.75047 2.66456 4.08563 3 4.50047 3H5.25047V4.5H2.58422C2.18578 4.5 1.83141 4.81875 1.83141 5.24531C1.83141 5.33578 1.84789 5.42648 1.88114 5.51302L3.46922 9.75ZM15.9328 14.1469L15.7781 18H21.7219L21.5695 14.1445L22.718 13.1719C23.0578 12.8859 23.25 12.4688 23.25 12.0234V9.28125C23.25 9.12187 23.1281 9 22.9266 9H21.6905C21.5323 9 21.4092 9.12305 21.4092 9.28125V10.5H20.2491V9.28125C20.2922 9.12187 20.1703 9 20.0109 9H17.4914C17.3332 9 17.2102 9.12305 17.2102 9.28125V10.5H16.05V9.28125C16.05 9.12187 15.9281 9 15.7687 9H14.5322C14.3719 9 14.25 9.12187 14.25 9.28125V12.0291C14.25 12.4685 14.4434 12.8845 14.7834 13.1719L15.9328 14.1469ZM18 14.25C18 13.8328 18.3328 13.5 18.75 13.5C19.1672 13.5 19.5 13.8328 19.5 14.25V15.75H18V14.25ZM11.5828 21.5438L10.5 21V20.25C10.5 19.8328 10.1672 19.5 9.75 19.5H2.25C1.83422 19.5 1.5 19.8328 1.5 20.25V21L0.41625 21.5447C0.158203 21.6703 0 21.9328 0 22.2141V23.25C0 23.6672 0.333984 24 0.75 24H11.25C11.666 24 12 23.666 12 23.25V22.2131C12 21.9328 11.8406 21.6703 11.5828 21.5438ZM23.5828 21.5438L22.5 21V20.25C22.5 19.834 22.166 19.5 21.75 19.5H15.75C15.334 19.5 15 19.834 15 20.25V21L13.9163 21.5447C13.6594 21.6703 13.5 21.9328 13.5 22.2141V23.25C13.5 23.666 13.834 24 14.25 24H23.25C23.666 24 24 23.666 24 23.25V22.2131C24 21.9328 23.8406 21.6703 23.5828 21.5438Z" fill="#2C6FB6"/>
</g>
</svg>
