<svg width="27" height="24" viewBox="0 0 27 24" fill="none" xmlns="http://www.w3.org/2000/svg">
<g id="Ilm" clip-path="url(#clip0_4378_81673)">
<path id="Vector" d="M5.81719 12.1828C4.06406 10.4297 4.06406 7.575 5.81719 5.81719C7.43906 4.19531 9.99375 4.09219 11.7563 5.47031C12.6938 4.86562 13.8 4.5 15 4.5C15.0328 4.5 15.0609 4.50937 15.0938 4.50937L15.5109 3.25781C15.6703 2.77969 15.2156 2.32969 14.7375 2.48906L11.2078 3.66562L9.54375 0.3375C9.31875 -0.1125 8.67656 -0.1125 8.45156 0.3375L6.7875 3.66562L3.25781 2.48906C2.77969 2.32969 2.32969 2.78437 2.48906 3.2625L3.66562 6.79219L0.3375 8.45625C-0.1125 8.68125 -0.1125 9.32344 0.3375 9.54844L3.66562 11.2125L2.48906 14.7422C2.32969 15.2203 2.78437 15.6703 3.2625 15.5156L6.0375 14.5922C6.02813 14.4797 6.00469 14.3719 6.00469 14.2547C6.00469 13.6688 6.1125 13.1063 6.29531 12.5719C6.12656 12.4453 5.9625 12.3281 5.81719 12.1828V12.1828ZM9.08906 9.46406C9.29062 8.31562 9.82969 7.28906 10.5844 6.46406C10.125 6.17344 9.58125 6 9 6C7.34531 6 6 7.34531 6 9C6 9.87656 6.38438 10.6594 6.98906 11.2078C7.51875 10.4625 8.23594 9.85312 9.08906 9.46406ZM20.4375 15.75H17.7328L18.5438 12.7078C18.6375 12.3516 18.3703 12 18 12H14.8125C14.5312 12 14.2922 12.2109 14.2547 12.4875L13.5047 18.1125C13.4578 18.45 13.7203 18.75 14.0625 18.75H16.8422L15.7641 23.3063C15.6797 23.6625 15.9516 24 16.3125 24C16.5094 24 16.6969 23.8969 16.8 23.7188L20.925 16.5938C21.1406 16.2188 20.8687 15.75 20.4375 15.75ZM23.9297 10.5703C23.6062 8.82656 22.0875 7.5 20.25 7.5C19.6734 7.5 19.1297 7.64062 18.6422 7.875C17.8266 6.74531 16.5047 6 15 6C12.5156 6 10.5 8.01562 10.5 10.5C10.5 10.5234 10.5094 10.5516 10.5094 10.575C8.79375 10.9219 7.5 12.4313 7.5 14.25C7.5 16.3219 9.17812 18 11.25 18H12.0141C12.0187 17.9719 12.0141 17.9438 12.0141 17.9156L12.7641 12.2906C12.9047 11.2688 13.7812 10.5 14.8125 10.5H18C18.6469 10.5 19.2422 10.7953 19.6359 11.3062C20.0297 11.8172 20.1609 12.4687 19.9922 13.0922L19.6828 14.25H20.4328C21.1687 14.25 21.8531 14.6437 22.2188 15.2812C22.5844 15.9188 22.5844 16.7109 22.2188 17.3438L21.8391 18H23.2453C25.3172 18 26.9953 16.3219 26.9953 14.25C27 12.4125 25.6781 10.8891 23.9297 10.5703Z" fill="#2C6FB6"/>
</g>
<defs>
<clipPath id="clip0_4378_81673">
<rect width="27" height="24" fill="white"/>
</clipPath>
</defs>
</svg>
