<svg width="24" height="24" viewBox="0 0 24 24" fill="none" xmlns="http://www.w3.org/2000/svg">
<g id="Kaass&#195;&#181;nad">
<path id="Vector" d="M3.375 2.25C3.99609 2.25 4.5 2.75391 4.5 3.375V5.625C4.5 6.24844 3.99609 6.75 3.375 6.75V10.875H6C6 10.2516 6.50156 9.75 7.125 9.75H9.375C9.99844 9.75 10.5 10.2516 10.5 10.875V13.125C10.5 13.7484 9.99844 14.25 9.375 14.25H7.125C6.50156 14.25 6 13.7484 6 13.125H3.375V18C3.375 18.2063 3.54281 18.375 3.75 18.375H6C6 17.7516 6.50156 17.25 7.125 17.25H9.375C9.99844 17.25 10.5 17.7516 10.5 18.375V20.625C10.5 21.2484 9.99844 21.75 9.375 21.75H7.125C6.50156 21.75 6 21.2484 6 20.625H3.75C2.30016 20.625 1.125 19.4484 1.125 18V6.75C0.503906 6.75 0 6.24844 0 5.625V3.375C0 2.75391 0.503906 2.25 1.125 2.25H3.375ZM7.5 4.5C7.5 3.67172 8.17031 3 9 3H22.5C23.3297 3 24 3.67172 24 4.5C24 5.32969 23.3297 6 22.5 6H9C8.17031 6 7.5 5.32969 7.5 4.5ZM13.5 12C13.5 11.1703 14.1703 10.5 15 10.5H22.5C23.3297 10.5 24 11.1703 24 12C24 12.8297 23.3297 13.5 22.5 13.5H15C14.1703 13.5 13.5 12.8297 13.5 12ZM13.5 19.5C13.5 18.6703 14.1703 18 15 18H22.5C23.3297 18 24 18.6703 24 19.5C24 20.3297 23.3297 21 22.5 21H15C14.1703 21 13.5 20.3297 13.5 19.5Z" fill="#2C6FB6"/>
</g>
</svg>
