<svg width="576" height="512" viewBox="0 0 576 512" fill="none" xmlns="http://www.w3.org/2000/svg">
<g clip-path="url(#clip0_4613_82142)">
<path d="M180.499 141.5C219.699 108.5 272.599 80 335.999 80C399.399 80 452.299 108.5 491.499 141.5C530.499 174.5 558.299 213.1 572.399 241.3C577.199 250.5 577.199 261.5 572.399 270.7C558.299 298 530.499 337.5 491.499 370.5C452.299 403.5 399.399 432 335.999 432C272.599 432 219.699 403.5 180.499 370.5C164.299 356.7 149.999 341.9 137.799 327.3L48.1191 379.6C35.6091 386.9 19.7591 384.9 9.47308 374.7C-0.814223 364.5 -2.97092 348.7 4.21508 336.1L49.9991 256L4.21508 175.9C-2.97092 163.3 -0.814223 147.5 9.47308 137.3C19.7591 127.1 35.6091 125.1 48.1191 132.4L137.799 184.7C149.999 170.1 164.299 155.3 180.499 141.5ZM415.999 224C398.299 224 383.999 238.3 383.999 256C383.999 273.7 398.299 288 415.999 288C433.699 288 447.999 273.7 447.999 256C447.999 238.3 433.699 224 415.999 224Z" fill="#2C6FB6"/>
</g>
<defs>
<clipPath id="clip0_4613_82142">
<rect width="576" height="512" fill="white"/>
</clipPath>
</defs>
</svg>
