<svg width="30" height="24" viewBox="0 0 30 24" fill="none" xmlns="http://www.w3.org/2000/svg">
<g id="Klassiruum" clip-path="url(#clip0_4378_81679)">
<path id="Vector" d="M9.75003 16.5C9.63799 16.5 9.52596 16.5164 9.41909 16.5511C8.81159 16.7484 8.17268 16.875 7.50002 16.875C6.82737 16.875 6.18846 16.7484 5.58049 16.5511C5.47361 16.5164 5.36205 16.5 5.25002 16.5C2.34095 16.5 -0.0154541 18.8662 1.46905e-05 21.7791C0.0065772 23.01 1.01861 24 2.25002 24H12.75C13.9814 24 14.9935 23.01 15 21.7791C15.0155 18.8662 12.6591 16.5 9.75003 16.5ZM7.50002 15C9.98534 15 12 12.9853 12 10.5C12 8.01469 9.98534 6 7.50002 6C5.01471 6 3.00002 8.01469 3.00002 10.5C3.00002 12.9853 5.01471 15 7.50002 15ZM27.75 0H9.75003C8.50924 0 7.50002 1.04297 7.50002 2.32453V4.5C8.59784 4.5 9.61409 4.81781 10.5 5.33438V3H27V16.5H24V13.5H18V16.5H14.4263C15.3216 17.2823 15.9788 18.3155 16.2868 19.5H27.75C28.9908 19.5 30 18.457 30 17.1755V2.32453C30 1.04297 28.9908 0 27.75 0Z" fill="#2C6FB6"/>
</g>
<defs>
<clipPath id="clip0_4378_81679">
<rect width="30" height="24" fill="white"/>
</clipPath>
</defs>
</svg>
