<svg width="27" height="24" viewBox="0 0 27 24" fill="none" xmlns="http://www.w3.org/2000/svg">
<g id="Kodumasinad">
<path id="Vector" d="M0 4.5C0 2.84297 1.34297 1.5 3 1.5H24C25.6547 1.5 27 2.84297 27 4.5V18C27 19.6547 25.6547 21 24 21C24 21.8297 23.3297 22.5 22.5 22.5C21.6703 22.5 21 21.8297 21 21H6C6 21.8297 5.32969 22.5 4.5 22.5C3.67172 22.5 3 21.8297 3 21C1.34297 21 0 19.6547 0 18V4.5ZM4.5 15.375C4.5 15.9984 5.00156 16.5 5.625 16.5H18.375C18.9984 16.5 19.5 15.9984 19.5 15.375V7.125C19.5 6.50156 18.9984 6 18.375 6H5.625C5.00156 6 4.5 6.50156 4.5 7.125V15.375ZM23.25 5.25C22.8375 5.25 22.5 5.5875 22.5 6V16.5C22.5 16.9125 22.8375 17.25 23.25 17.25C23.6625 17.25 24 16.9125 24 16.5V6C24 5.5875 23.6625 5.25 23.25 5.25Z" fill="#2C6FB6"/>
</g>
</svg>
