<svg width="24" height="24" viewBox="0 0 24 24" fill="none" xmlns="http://www.w3.org/2000/svg">
<g id="K&#195;&#182;&#195;&#182;giviljad">
<path id="Vector" d="M13.9781 7.34063C11.5078 6.13594 8.61094 6.84844 6.9375 8.87812L9.525 11.4656C9.82032 11.7609 9.82032 12.2344 9.525 12.525C9.37969 12.6703 9.1875 12.7453 8.99532 12.7453C8.80313 12.7453 8.61094 12.6703 8.46563 12.525L6.1125 10.1719L0.107817 22.4859C-0.0281201 22.7672 -0.0374951 23.1094 0.107817 23.4094C0.360942 23.9297 0.993755 24.1453 1.51407 23.8922L7.77657 20.8359L5.47032 18.5297C5.175 18.2391 5.175 17.7609 5.47032 17.4703C5.76563 17.1797 6.23907 17.1797 6.52969 17.4703L9.20157 20.1422L13.9828 17.8078C15.1078 17.2594 16.0688 16.3406 16.6594 15.1312C18.0703 12.2391 16.8703 8.75156 13.9781 7.34063V7.34063ZM18.2953 5.70469C19.2094 3.79687 18.7359 1.54219 16.875 0C14.5172 1.95469 14.4141 5.03906 16.5047 7.12031L16.8797 7.49531C18.9609 9.58594 22.05 9.48281 24 7.125C22.4578 5.26406 20.2031 4.79062 18.2953 5.70469V5.70469Z" fill="#2C6FB6"/>
</g>
</svg>
