<svg width="18" height="24" viewBox="0 0 18 24" fill="none" xmlns="http://www.w3.org/2000/svg">
<g id="K&#195;&#182;&#195;&#182;k">
<path id="Vector" d="M0 7.5V2.25C0 1.65326 0.237053 1.08097 0.65901 0.65901C1.08097 0.237053 1.65326 0 2.25 0L15.75 0C16.3467 0 16.919 0.237053 17.341 0.65901C17.7629 1.08097 18 1.65326 18 2.25V7.5H15V3.375C15 3.27554 14.9605 3.18016 14.8902 3.10984C14.8198 3.03951 14.7245 3 14.625 3H13.875C13.7755 3 13.6802 3.03951 13.6098 3.10984C13.5395 3.18016 13.5 3.27554 13.5 3.375V7.5H0ZM15 9V17.625C15 17.7245 14.9605 17.8198 14.8902 17.8902C14.8198 17.9605 14.7245 18 14.625 18H13.875C13.7755 18 13.6802 17.9605 13.6098 17.8902C13.5395 17.8198 13.5 17.7245 13.5 17.625V9H0V21.75C0 22.3467 0.237053 22.919 0.65901 23.341C1.08097 23.7629 1.65326 24 2.25 24H15.75C16.3467 24 16.919 23.7629 17.341 23.341C17.7629 22.919 18 22.3467 18 21.75V9H15Z" fill="#2C6FB6"/>
</g>
</svg>
