<svg width="512" height="512" viewBox="0 0 512 512" fill="none" xmlns="http://www.w3.org/2000/svg">
<g clip-path="url(#clip0_4613_82146)">
<path d="M492.7 42.7498C517.7 67.7398 517.7 108.3 492.7 133.3L436.3 189.7L322.3 75.7198L378.7 19.3198C403.7 -5.67821 444.3 -5.67821 469.3 19.3198L492.7 42.7498ZM44.8897 353.2L299.7 98.3398L413.7 212.3L158.8 467.1C152.1 473.8 143.8 478.7 134.6 481.4L30.5897 511.1C22.2097 513.5 13.1897 511.1 7.02972 504.1C0.866618 498.8 -1.47028 489.8 0.923917 481.4L30.6497 377.4C33.2597 368.2 38.1597 359.9 44.8897 353.2ZM249.4 103.4L103.4 249.4L15.9997 161.9C-2.74528 143.2 -2.74528 112.8 15.9997 94.0598L94.0597 15.9998C112.8 -2.74521 143.2 -2.74521 161.9 15.9998L181.7 35.7598C181.4 36.0498 181 36.3598 180.7 36.6898L116.7 100.7C110.4 106.9 110.4 117.1 116.7 123.3C122.9 129.6 133.1 129.6 139.3 123.3L203.3 59.3098C203.6 58.9898 203.1 58.6498 204.2 58.2998L249.4 103.4ZM453.7 307.8C453.4 308 453 308.4 452.7 308.7L388.7 372.7C382.4 378.9 382.4 389.1 388.7 395.3C394.9 401.6 405.1 401.6 411.3 395.3L475.3 331.3C475.6 330.1 475.1 330.6 476.2 330.3L496 350.1C514.7 368.8 514.7 399.2 496 417.9L417.9 496C399.2 514.7 368.8 514.7 350.1 496L262.6 408.6L408.6 262.6L453.7 307.8Z" fill="#2C6FB6"/>
</g>
<defs>
<clipPath id="clip0_4613_82146">
<rect width="512" height="512" fill="white"/>
</clipPath>
</defs>
</svg>
