<svg width="24" height="24" viewBox="0 0 24 24" fill="none" xmlns="http://www.w3.org/2000/svg">
<g id="Kujundid" clip-path="url(#clip0_4378_81687)">
<path id="Vector" d="M6 12C4.81332 12 3.65328 12.3519 2.66658 13.0112C1.67989 13.6704 0.910851 14.6075 0.456726 15.7039C0.00259969 16.8002 -0.11622 18.0066 0.115291 19.1705C0.346802 20.3344 0.918247 21.4035 1.75736 22.2426C2.59648 23.0817 3.66558 23.6532 4.82946 23.8847C5.99335 24.1162 7.19975 23.9974 8.2961 23.5432C9.39246 23.0891 10.3295 22.3201 10.9888 21.3334C11.6481 20.3467 12 19.1867 12 18C12 16.4087 11.3679 14.8825 10.2426 13.7573C9.11743 12.6321 7.5913 12 6 12V12ZM23.7656 9.42841L18.7533 0.857329C18.5988 0.596134 18.3789 0.379699 18.1153 0.229354C17.8517 0.0790077 17.5535 -6.10352e-05 17.25 -6.10352e-05C16.9465 -6.10352e-05 16.6483 0.0790077 16.3847 0.229354C16.1211 0.379699 15.9012 0.596134 15.7467 0.857329L10.7344 9.42841C10.0669 10.5712 10.9022 12 12.2386 12H22.2614C23.5978 12 24.4331 10.5712 23.7656 9.42841ZM22.5 13.5H15C14.6022 13.5 14.2206 13.658 13.9393 13.9393C13.658 14.2206 13.5 14.6021 13.5 15V22.5C13.5 22.8978 13.658 23.2793 13.9393 23.5606C14.2206 23.8419 14.6022 24 15 24H22.5C22.8978 24 23.2794 23.8419 23.5607 23.5606C23.842 23.2793 24 22.8978 24 22.5V15C24 14.6021 23.842 14.2206 23.5607 13.9393C23.2794 13.658 22.8978 13.5 22.5 13.5Z" fill="#2C6FB6"/>
</g>
<defs>
<clipPath id="clip0_4378_81687">
<rect width="24" height="24" fill="white"/>
</clipPath>
</defs>
</svg>
