<svg width="576" height="512" viewBox="0 0 576 512" fill="none" xmlns="http://www.w3.org/2000/svg">
<g clip-path="url(#clip0_2_19)">
<path d="M154.7 103.7C138.7 93.9 128 76.2 128 56C128 25.1 153.1 0 184 0C208.2 0 228.7 15.3 236.6 36.7C252.5 33.5 269.8 32 288 32C306.2 32 323.5 33.5 339.4 36.7C347.3 15.3 367.8 0 392 0C422.9 0 448 25.1 448 56C448 76.2 437.3 93.9 421.3 103.7C423.1 111.1 424 119.2 424 128C424 198.7 363.1 256 288 256C212.9 256 152 198.7 152 128C152 119.2 152.9 111.2 154.7 103.7ZM240 128C248.8 128 256 120.8 256 112C256 103.2 248.8 96 240 96C231.2 96 224 103.2 224 112C224 120.8 231.2 128 240 128ZM352 112C352 103.2 344.8 96 336 96C327.2 96 320 103.2 320 112C320 120.8 327.2 128 336 128C344.8 128 352 120.8 352 112ZM352 176C352 149.5 323.3 128 288 128C252.7 128 224 149.5 224 176C224 202.5 252.7 224 288 224C323.3 224 352 202.5 352 176ZM320 168C320 181.3 305.7 192 288 192C270.3 192 256 181.3 256 168C256 154.7 270.3 144 288 144C305.7 144 320 154.7 320 168ZM50.3 178.3C71.1 161.9 101.3 165.5 117.7 186.3L143.5 219C217.2 312.5 358.9 312.5 432.6 219L458.4 186.3C474.8 165.5 505 161.9 525.8 178.3C546.6 194.7 550.2 224.9 533.8 245.7L508 278.4C490.3 300.8 470.1 319.7 448.1 335.1V400H464.7C468.6 372.9 491.9 352 520.1 352C551 352 576.1 377.1 576.1 408C576.1 410.7 575.9 413.4 575.5 416L562.5 469.3C556.7 493.1 536.2 510.2 512.1 511.9V512H508.1H480H96H68H64V511.9C39.9 510.2 19.4 493.1 13.6 469.3L0.6 416C0.2 413.4 0 410.7 0 408C0 377.1 25.1 352 56 352C84.2 352 107.6 372.9 111.4 400H128V335.1C106 319.7 85.7 300.8 68.1 278.4L42.3 245.7C25.9 224.9 29.5 194.7 50.3 178.3V178.3ZM256 352C220.7 352 192 380.7 192 416H384C384 380.7 355.3 352 320 352H256Z" fill="#2C6FB6"/>
</g>
<defs>
<clipPath id="clip0_2_19">
<rect width="576" height="512" fill="white"/>
</clipPath>
</defs>
</svg>
