<svg width="18" height="24" viewBox="0 0 18 24" fill="none" xmlns="http://www.w3.org/2000/svg">
<g id="Liiklus">
<path id="Vector" d="M9 15.75C8.17313 15.75 7.5 16.4231 7.5 17.25C7.5 18.0769 8.17313 18.75 9 18.75C9.82687 18.75 10.5 18.0769 10.5 17.25C10.5 16.4231 9.82687 15.75 9 15.75ZM9 9.75C8.17313 9.75 7.5 10.4231 7.5 11.25C7.5 12.0769 8.17313 12.75 9 12.75C9.82687 12.75 10.5 12.0769 10.5 11.25C10.5 10.4231 9.82687 9.75 9 9.75ZM18 9H15V7.22437C16.7438 6.60469 18 4.95656 18 3H15V1.5C15 0.671719 14.3283 0 13.5 0H4.5C3.67172 0 3 0.671719 3 1.5V3H0C0 4.95656 1.25625 6.60469 3 7.22437V9H0C0 10.9566 1.25625 12.6047 3 13.2244V15H0C0 17.0081 1.32422 18.6886 3.14016 19.268C3.72281 21.9712 6.12187 24 9 24C11.8781 24 14.2772 21.9712 14.8598 19.268C16.6758 18.6886 18 17.0081 18 15H15V13.2244C16.7438 12.6047 18 10.9566 18 9ZM9 19.5C7.75734 19.5 6.75 18.4927 6.75 17.25C6.75 16.0073 7.75734 15 9 15C10.2427 15 11.25 16.0073 11.25 17.25C11.25 18.4927 10.2427 19.5 9 19.5ZM9 13.5C7.75734 13.5 6.75 12.4927 6.75 11.25C6.75 10.0073 7.75734 9 9 9C10.2427 9 11.25 10.0073 11.25 11.25C11.25 12.4927 10.2427 13.5 9 13.5ZM9 7.5C7.75734 7.5 6.75 6.49266 6.75 5.25C6.75 4.00734 7.75734 3 9 3C10.2427 3 11.25 4.00734 11.25 5.25C11.25 6.49266 10.2427 7.5 9 7.5Z" fill="#2C6FB6"/>
</g>
</svg>
