<svg width="30" height="24" viewBox="0 0 30 24" fill="none" xmlns="http://www.w3.org/2000/svg">
<g id="Linnud" clip-path="url(#clip0_4305_80269)">
<path id="Vector" d="M25.5 1.5H24.7331C24.0487 0.594375 22.973 0 21.75 0C19.6791 0 18 1.67906 18 3.75V4.73344L0.566719 18.4486C0.390797 18.5805 0.248 18.7515 0.149635 18.9482C0.0512708 19.1448 4.00224e-05 19.3617 0 19.5816C0 20.6344 1.10812 21.3192 2.04984 20.8486L7.74703 18H12.27L14.3517 23.6297C14.4581 23.9217 14.7806 24.0722 15.0727 23.9658L16.1297 23.5809C16.4217 23.4745 16.5722 23.152 16.4658 22.86L14.6691 18H16.5C16.5895 18 16.6763 17.9892 16.7653 17.9864L18.8517 23.6292C18.9581 23.9212 19.2806 24.0717 19.5727 23.9653L20.6297 23.5805C20.9217 23.4741 21.0722 23.1516 20.9658 22.8595L19.0327 17.6316C22.7691 16.5375 25.5 13.0903 25.5 9V5.25L30 4.5C30 2.84297 27.9853 1.5 25.5 1.5ZM21.75 4.875C21.1289 4.875 20.625 4.37109 20.625 3.75C20.625 3.12844 21.1289 2.625 21.75 2.625C22.3711 2.625 22.875 3.12844 22.875 3.75C22.875 4.37109 22.3711 4.875 21.75 4.875Z" fill="#2C6FB6"/>
</g>
<defs>
<clipPath id="clip0_4305_80269">
<rect width="30" height="24" fill="white"/>
</clipPath>
</defs>
</svg>
