<svg width="30" height="24" viewBox="0 0 30 24" fill="none" xmlns="http://www.w3.org/2000/svg">
<g id="Linn">
<path id="Vector" d="M28.875 9H22.5V1.125C22.5 0.503437 21.9966 0 21.375 0H14.625C14.0034 0 13.5 0.503437 13.5 1.125V4.5H10.5V0.75C10.5 0.335625 10.1644 0 9.75 0H9C8.58562 0 8.25 0.335625 8.25 0.75V4.5H5.25V0.75C5.25 0.335625 4.91438 0 4.5 0H3.75C3.33562 0 3 0.335625 3 0.75V4.5H1.125C0.503437 4.5 0 5.00344 0 5.625V22.5C0 23.3283 0.671719 24 1.5 24H28.5C29.3283 24 30 23.3283 30 22.5V10.125C30 9.50344 29.4961 9 28.875 9ZM6 18.9375C6 19.2483 5.74828 19.5 5.4375 19.5H3.5625C3.25172 19.5 3 19.2483 3 18.9375V17.0625C3 16.7517 3.25172 16.5 3.5625 16.5H5.4375C5.74828 16.5 6 16.7517 6 17.0625V18.9375ZM6 14.4375C6 14.7483 5.74828 15 5.4375 15H3.5625C3.25172 15 3 14.7483 3 14.4375V12.5625C3 12.2517 3.25172 12 3.5625 12H5.4375C5.74828 12 6 12.2517 6 12.5625V14.4375ZM6 9.9375C6 10.2483 5.74828 10.5 5.4375 10.5H3.5625C3.25172 10.5 3 10.2483 3 9.9375V8.0625C3 7.75172 3.25172 7.5 3.5625 7.5H5.4375C5.74828 7.5 6 7.75172 6 8.0625V9.9375ZM12 18.9375C12 19.2483 11.7483 19.5 11.4375 19.5H9.5625C9.25172 19.5 9 19.2483 9 18.9375V17.0625C9 16.7517 9.25172 16.5 9.5625 16.5H11.4375C11.7483 16.5 12 16.7517 12 17.0625V18.9375ZM12 14.4375C12 14.7483 11.7483 15 11.4375 15H9.5625C9.25172 15 9 14.7483 9 14.4375V12.5625C9 12.2517 9.25172 12 9.5625 12H11.4375C11.7483 12 12 12.2517 12 12.5625V14.4375ZM12 9.9375C12 10.2483 11.7483 10.5 11.4375 10.5H9.5625C9.25172 10.5 9 10.2483 9 9.9375V8.0625C9 7.75172 9.25172 7.5 9.5625 7.5H11.4375C11.7483 7.5 12 7.75172 12 8.0625V9.9375ZM19.5 14.4375C19.5 14.7483 19.2483 15 18.9375 15H17.0625C16.7517 15 16.5 14.7483 16.5 14.4375V12.5625C16.5 12.2517 16.7517 12 17.0625 12H18.9375C19.2483 12 19.5 12.2517 19.5 12.5625V14.4375ZM19.5 9.9375C19.5 10.2483 19.2483 10.5 18.9375 10.5H17.0625C16.7517 10.5 16.5 10.2483 16.5 9.9375V8.0625C16.5 7.75172 16.7517 7.5 17.0625 7.5H18.9375C19.2483 7.5 19.5 7.75172 19.5 8.0625V9.9375ZM19.5 5.4375C19.5 5.74828 19.2483 6 18.9375 6H17.0625C16.7517 6 16.5 5.74828 16.5 5.4375V3.5625C16.5 3.25172 16.7517 3 17.0625 3H18.9375C19.2483 3 19.5 3.25172 19.5 3.5625V5.4375ZM27 18.9375C27 19.2483 26.7483 19.5 26.4375 19.5H24.5625C24.2517 19.5 24 19.2483 24 18.9375V17.0625C24 16.7517 24.2517 16.5 24.5625 16.5H26.4375C26.7483 16.5 27 16.7517 27 17.0625V18.9375ZM27 14.4375C27 14.7483 26.7483 15 26.4375 15H24.5625C24.2517 15 24 14.7483 24 14.4375V12.5625C24 12.2517 24.2517 12 24.5625 12H26.4375C26.7483 12 27 12.2517 27 12.5625V14.4375Z" fill="#2C6FB6"/>
</g>
</svg>
