<svg width="30" height="24" viewBox="0 0 30 24" fill="none" xmlns="http://www.w3.org/2000/svg">
<g id="Loodus">
<path id="Vector" d="M22.5 3.75C22.5 1.67906 24.1781 0 26.25 0C28.3219 0 30 1.67906 30 3.75C30 5.82188 28.3219 7.5 26.25 7.5C24.1781 7.5 22.5 5.82188 22.5 3.75ZM0 21.3797C0 20.8875 0.138937 20.4047 0.400828 19.9875L10.5609 3.79734C10.8703 3.30094 11.4141 3 12 3C12.5859 3 13.1297 3.30094 13.4437 3.79734L19.3453 13.2047L21.6047 9.50156C21.7547 9.19219 22.1344 9 22.5 9C22.8656 9 23.2031 9.19219 23.3953 9.50156L29.5828 19.6453C29.8547 20.0906 30 20.6109 30 21.1359C30 22.7156 28.7156 24 27.1359 24H2.62078C1.17328 24 2.8125e-05 22.7859 2.8125e-05 21.3797H0Z" fill="#2C6FB6"/>
</g>
</svg>
