<svg width="24" height="24" viewBox="0 0 24 24" fill="none" xmlns="http://www.w3.org/2000/svg">
<g id="Magamistuba" clip-path="url(#clip0_4305_80275)">
<path id="Vector" d="M3.75 7.5C3.75 7.10218 3.90804 6.72064 4.18934 6.43934C4.47064 6.15804 4.85218 6 5.25 6H9.75C10.1478 6 10.5294 6.15804 10.8107 6.43934C11.092 6.72064 11.25 7.10218 11.25 7.5V9H12.75V7.5C12.75 7.10218 12.908 6.72064 13.1893 6.43934C13.4706 6.15804 13.8522 6 14.25 6H18.75C19.1478 6 19.5294 6.15804 19.8107 6.43934C20.092 6.72064 20.25 7.10218 20.25 7.5V9H22.5V3C22.5 2.60218 22.342 2.22064 22.0607 1.93934C21.7794 1.65804 21.3978 1.5 21 1.5H3C2.60218 1.5 2.22064 1.65804 1.93934 1.93934C1.65804 2.22064 1.5 2.60218 1.5 3V9H3.75V7.5ZM21 10.5H3C2.20435 10.5 1.44129 10.8161 0.87868 11.3787C0.316071 11.9413 0 12.7044 0 13.5L0 21.75C0 21.9489 0.0790176 22.1397 0.21967 22.2803C0.360322 22.421 0.551088 22.5 0.75 22.5H2.25C2.44891 22.5 2.63968 22.421 2.78033 22.2803C2.92098 22.1397 3 21.9489 3 21.75V19.5H21V21.75C21 21.9489 21.079 22.1397 21.2197 22.2803C21.3603 22.421 21.5511 22.5 21.75 22.5H23.25C23.4489 22.5 23.6397 22.421 23.7803 22.2803C23.921 22.1397 24 21.9489 24 21.75V13.5C24 12.7044 23.6839 11.9413 23.1213 11.3787C22.5587 10.8161 21.7956 10.5 21 10.5Z" fill="#2C6FB6"/>
</g>
<defs>
<clipPath id="clip0_4305_80275">
<rect width="24" height="24" fill="white"/>
</clipPath>
</defs>
</svg>
