<svg width="512" height="512" viewBox="0 0 512 512" fill="none" xmlns="http://www.w3.org/2000/svg">
<g clip-path="url(#clip0_2_11)">
<path d="M256 0C220.7 0 192 28.7 192 64V128H64C28.7 128 0 156.7 0 192V448C0 483.3 28.7 512 64 512H256H448C483.3 512 512 483.3 512 448V192V64C512 28.7 483.3 0 448 0H256ZM64 304C64 295.2 71.2 288 80 288H112C120.8 288 128 295.2 128 304V336C128 344.8 120.8 352 112 352H80C71.2 352 64 344.8 64 336V304ZM272 320C263.2 320 256 312.8 256 304V272C256 263.2 263.2 256 272 256H304C312.8 256 320 263.2 320 272V304C320 312.8 312.8 320 304 320H272ZM384 304V272C384 263.2 391.2 256 400 256H432C440.8 256 448 263.2 448 272V304C448 312.8 440.8 320 432 320H400C391.2 320 384 312.8 384 304ZM80 192H112C120.8 192 128 199.2 128 208V240C128 248.8 120.8 256 112 256H80C71.2 256 64 248.8 64 240V208C64 199.2 71.2 192 80 192ZM256 80C256 71.2 263.2 64 272 64H304C312.8 64 320 71.2 320 80V112C320 120.8 312.8 128 304 128H272C263.2 128 256 120.8 256 112V80ZM400 64H432C440.8 64 448 71.2 448 80V112C448 120.8 440.8 128 432 128H400C391.2 128 384 120.8 384 112V80C384 71.2 391.2 64 400 64ZM256 208V176C256 167.2 263.2 160 272 160H304C312.8 160 320 167.2 320 176V208C320 216.8 312.8 224 304 224H272C263.2 224 256 216.8 256 208ZM400 224C391.2 224 384 216.8 384 208V176C384 167.2 391.2 160 400 160H432C440.8 160 448 167.2 448 176V208C448 216.8 440.8 224 432 224H400Z" fill="#2C6FB6"/>
</g>
<defs>
<clipPath id="clip0_2_11">
<rect width="512" height="512" fill="white"/>
</clipPath>
</defs>
</svg>
