<svg width="21" height="24" viewBox="0 0 21 24" fill="none" xmlns="http://www.w3.org/2000/svg">
<g id="M&#195;&#164;nguv&#195;&#164;ljak">
<path id="Vector" d="M4.5 7.5H2.25V7.125C2.25 3.18984 5.44219 0 9.375 0H11.625C15.5578 0 18.75 3.18984 18.75 7.125V7.5H16.5V7.125C16.5 4.4325 14.3156 2.25 11.625 2.25H9.375C6.68437 2.25 4.5 4.4325 4.5 7.125V7.5ZM1.40625e-05 10.5C1.40625e-05 9.67031 0.671719 9 1.5 9H19.5C20.3297 9 21 9.67031 21 10.5C21 11.3297 20.3297 12 19.5 12H19.2609L18.2109 21.9844C18.0516 23.1328 17.1281 24 15.975 24H5.025C3.87422 24 2.90859 23.1328 2.78812 21.9844L1.73672 12H1.5C0.671719 12 0 11.3297 0 10.5H1.40625e-05Z" fill="#2C6FB6"/>
</g>
</svg>
