<svg width="24" height="24" viewBox="0 0 24 24" fill="none" xmlns="http://www.w3.org/2000/svg">
<path d="M6.40313 6.50623C5.44828 6.77571 4.68656 7.50232 4.37016 8.44544L0 21.5625L0.691406 22.2539L7.68047 15.2179C7.58203 14.925 7.45786 14.5968 7.45786 14.2514C7.45786 13.0092 8.46567 12.0018 9.70739 12.0018C10.9491 12.0018 11.9569 13.0097 11.9569 14.2514C11.9569 15.4931 10.9491 16.5009 9.70739 16.5009C9.36174 16.5009 9.0338 16.4189 8.74083 16.2783L1.70489 23.2674L2.43703 24L15.5527 19.6293C16.4958 19.313 17.2223 18.5934 17.4919 17.5964L19.4958 10.4995L13.538 4.5417L6.40313 6.50623ZM23.3391 3.47763L20.5205 0.659042C19.6416 -0.219864 18.2123 -0.219395 17.3339 0.659346L14.6859 3.31294L20.6438 9.27075L23.2973 6.62278C24.2203 5.78435 24.2203 4.35654 23.3391 3.47763Z" fill="#2C6FB6"/>
</svg>
