<svg width="21" height="24" viewBox="0 0 21 24" fill="none" xmlns="http://www.w3.org/2000/svg">
<g id="M&#195;&#182;&#195;&#182;bel" clip-path="url(#clip0_4378_81407)">
<path id="Vector" d="M20.8641 15.8719L20.1717 14.3719C19.9266 13.8422 19.3922 13.5 18.8063 13.5H2.19189C1.60689 13.5 1.07533 13.8422 0.829701 14.3719L0.137358 15.8719C-0.076533 16.3362 -0.0391737 16.8783 0.236217 17.3091C0.511607 17.7398 0.988607 18 1.45783 18L1.45787 23.25C1.45787 23.6642 1.79368 24 2.20787 24H3.70787C4.12215 24 4.45787 23.6642 4.45787 23.25V18H16.4579V23.25C16.4579 23.6642 16.7937 24 17.2079 24H18.6657C19.08 24 19.4157 23.6642 19.4157 23.25L19.5 18C20.0114 18 20.4881 17.7393 20.7633 17.3086C21.0384 16.8779 21.075 16.3359 20.8641 15.8719ZM5.20782 6C5.20782 4.61813 5.9672 3.46406 7.08282 2.77172V12H9.33282L9.33325 2.25H11.5833L11.5828 12H13.8328L13.8333 2.77031C14.9906 3.42187 15.7078 4.61813 15.7078 6L15.7074 12H17.9588L17.9582 6C17.9582 2.68641 15.2718 0 11.9582 0H8.95782C5.68595 0 2.99907 2.68641 2.99907 6L2.99982 12H5.24841L5.20782 6Z" fill="#2C6FB6"/>
</g>
<defs>
<clipPath id="clip0_4378_81407">
<rect width="21" height="24" fill="white"/>
</clipPath>
</defs>
</svg>
