<svg width="20" height="24" viewBox="0 0 20 24" fill="none" xmlns="http://www.w3.org/2000/svg">
<g id="N&#195;&#181;ud" clip-path="url(#clip0_4305_80279)">
<path id="Vector" d="M9.74531 0.712445C9.78281 0.932758 10.5 5.14213 10.5 6.74995C10.5 9.20151 9.19688 10.9499 7.27031 11.6531L7.875 22.814C7.90781 23.4562 7.39687 23.9999 6.75 23.9999H3.75C3.10781 23.9999 2.59219 23.4609 2.625 22.814L3.22969 11.6531C1.29844 10.9499 0 9.19682 0 6.74995C0 5.13745 0.717188 0.932758 0.754688 0.712445C0.904688 -0.239118 2.87812 -0.25318 3 0.764008V7.38276C3.06094 7.54213 3.70781 7.53276 3.75 7.38276C3.81562 6.19682 4.12031 0.857758 4.125 0.735883C4.27969 -0.239118 6.22031 -0.239118 6.37031 0.735883C6.37969 0.862445 6.67969 6.19682 6.74531 7.38276C6.7875 7.53276 7.43906 7.54213 7.49531 7.38276V0.764008C7.61719 -0.248493 9.59531 -0.239118 9.74531 0.712445ZM15.3328 14.1046L14.6297 22.7812C14.5734 23.4374 15.0938 23.9999 15.75 23.9999H18.375C18.9984 23.9999 19.5 23.4984 19.5 22.8749V1.12495C19.5 0.506195 18.9984 -5.5074e-05 18.375 -5.5074e-05C14.5078 -5.5074e-05 7.99688 8.36713 15.3328 14.1046Z" fill="#2C6FB6"/>
</g>
<defs>
<clipPath id="clip0_4305_80279">
<rect width="19.5" height="24" fill="white"/>
</clipPath>
</defs>
</svg>
