<svg width="640" height="512" viewBox="0 0 640 512" fill="none" xmlns="http://www.w3.org/2000/svg">
<g clip-path="url(#clip0_2_7)">
<path d="M299.2 38.9L321.8 89.6C318.2 100.4 315.3 111.8 313 121.1C311.8 125.7 310.8 129.9 309.9 133.2C305.7 148 301.2 157.8 293.6 165.4C286 173 276.2 177.5 261.4 181.7C258 182.7 253.9 183.7 249.3 184.8C236.8 187.9 220.8 191.9 207.3 197.5C186 206.3 166.1 219.4 148.9 236.6C114.3 271.1 96 315.4 96 364V432C96 459.8 106.2 485.3 123 504.9L119.8 506.3C86.7 521 48 506.1 33.2 473.1L10.5 422.2C3.79999 407.2 0.399993 391.5 -6.56769e-06 376C-0.400007 360.5 2.19999 344.7 7.99999 329.4C14 314 22.7 300.5 33.4 289.3C39.2 283.2 45.7 277.6 52.9 272.7C69.6 260.9 85.4 246.9 92.7 227.8C100 208.7 97.7 187.7 93.1 167.8C91 159.4 89.9 150.8 89.7 142.4C89.3 127 91.8 111.3 97.6 96L97.8 95.5C103.7 80.2 112.3 66.8 123 55.6C133.7 44.4 146.6 35 161.7 28.3L212.6 5.7C245.7 -9 284.4 5.8 299.2 38.9V38.9ZM492 0H560C604.2 0 640 35.8 640 80V148C640 188.6 623.6 225.4 597.1 252.2L596.2 253.1C582.1 267.1 565.9 277.7 548.6 284.8C539.1 288.8 529 291.7 518.6 293.6C494.1 298.4 469.5 306.2 451.9 323.9C434.3 341.6 426.5 366.1 421.6 390.6C419.7 401 416.7 411.1 412.8 420.6C405.7 437.7 395.3 453.8 381.5 467.8C380.9 468.4 380.4 468.9 379.8 469.5C353.1 495.8 316.5 512 276 512H208C163.8 512 128 476.2 128 432V364C128 343.9 132 324.8 139.2 307.3C146.4 289.8 157.1 273.5 171.3 259.3C185.5 245.1 201.9 234.4 219.4 227.2C228.9 223.2 239 220.3 249.4 218.4C273.9 213.6 298.5 205.8 316.1 188.1C333.7 170.4 341.5 145.9 346.4 121.4C348.3 111 351.3 100.9 355.2 91.4C362.4 74 373 57.8 387.1 43.6L387.5 43.2C401.7 29.1 418 18.4 435.3 11.2C452.8 4 471.9 0 492 0ZM544 147.2C554.6 147.2 563.2 138.6 563.2 128C563.2 117.4 554.6 108.8 544 108.8C533.4 108.8 524.8 117.4 524.8 128C524.8 138.6 533.4 147.2 544 147.2ZM544 211.2C554.6 211.2 563.2 202.6 563.2 192C563.2 181.4 554.6 172.8 544 172.8C533.4 172.8 524.8 181.4 524.8 192C524.8 202.6 533.4 211.2 544 211.2ZM480 211.2C490.6 211.2 499.2 202.6 499.2 192C499.2 181.4 490.6 172.8 480 172.8C469.4 172.8 460.8 181.4 460.8 192C460.8 202.6 469.4 211.2 480 211.2ZM256 435.2C266.6 435.2 275.2 426.6 275.2 416C275.2 405.4 266.6 396.8 256 396.8C245.4 396.8 236.8 405.4 236.8 416C236.8 426.6 245.4 435.2 256 435.2ZM339.2 416C339.2 405.4 330.6 396.8 320 396.8C309.4 396.8 300.8 405.4 300.8 416C300.8 426.6 309.4 435.2 320 435.2C330.6 435.2 339.2 426.6 339.2 416ZM339.2 352C339.2 341.4 330.6 332.8 320 332.8C309.4 332.8 300.8 341.4 300.8 352C300.8 362.6 309.4 371.2 320 371.2C330.6 371.2 339.2 362.6 339.2 352Z" fill="#2C6FB6"/>
</g>
<defs>
<clipPath id="clip0_2_7">
<rect width="640" height="512" fill="white"/>
</clipPath>
</defs>
</svg>
