<svg width="24" height="24" viewBox="0 0 24 24" fill="none" xmlns="http://www.w3.org/2000/svg">
<g id="Pillid">
<path id="Vector" d="M20.2191 5.72109L23.6658 3.49828C23.7478 3.44366 23.8182 3.37342 23.873 3.29158C23.9278 3.20974 23.966 3.1179 23.9853 3.02131C24.0046 2.92472 24.0047 2.82527 23.9856 2.72864C23.9665 2.63201 23.9285 2.54008 23.8739 2.45812L23.4581 1.83422C23.4035 1.75225 23.3333 1.68184 23.2514 1.62701C23.1696 1.57219 23.0777 1.53403 22.9812 1.5147C22.8846 1.49537 22.7851 1.49526 22.6885 1.51438C22.5919 1.53349 22.4999 1.57145 22.418 1.62609L17.2589 4.95422C14.9264 4.54265 12.7134 4.5 12 4.5C10.2914 4.5 0 4.71328 0 9.75703V17.2678C0 18.6867 1.28906 19.9716 3.375 20.9175V16.1409C3.375 15.8426 3.49353 15.5564 3.7045 15.3454C3.91548 15.1345 4.20163 15.0159 4.5 15.0159C4.79837 15.0159 5.08452 15.1345 5.2955 15.3454C5.50647 15.5564 5.625 15.8426 5.625 16.1409V21.7158C7.17422 22.1428 8.95641 22.4217 10.875 22.5V17.6433C10.875 17.3449 10.9935 17.0588 11.2045 16.8478C11.4155 16.6368 11.7016 16.5183 12 16.5183C12.2984 16.5183 12.5845 16.6368 12.7955 16.8478C13.0065 17.0588 13.125 17.3449 13.125 17.6433V22.5C15.0436 22.4217 16.8258 22.1428 18.375 21.7158V16.1409C18.375 15.8426 18.4935 15.5564 18.7045 15.3454C18.9155 15.1345 19.2016 15.0159 19.5 15.0159C19.7984 15.0159 20.0845 15.1345 20.2955 15.3454C20.5065 15.5564 20.625 15.8426 20.625 16.1409V20.9175C22.7109 19.9716 24 18.6867 24 17.2678V9.75703C24 7.7264 22.3237 6.48703 20.2191 5.72109ZM12 12.7612C6.615 12.7612 2.25 11.4164 2.25 9.75703C2.25 8.09765 6.615 6.75328 12 6.75328C12.8039 6.75328 13.5811 6.78656 14.3287 6.84281L10.9158 9.04594C10.8338 9.1006 10.7635 9.17086 10.7087 9.25272C10.6539 9.33457 10.6158 9.42642 10.5965 9.523C10.5772 9.61959 10.5772 9.71903 10.5963 9.81565C10.6155 9.91226 10.6535 10.0042 10.7081 10.0861L11.1239 10.71C11.1785 10.792 11.2488 10.8624 11.3306 10.9172C11.4124 10.972 11.5043 11.0102 11.6009 11.0295C11.6975 11.0488 11.7969 11.049 11.8935 11.0298C11.9902 11.0107 12.0821 10.9728 12.1641 10.9181L17.7253 7.33125C20.1605 7.875 21.75 8.75812 21.75 9.75703C21.75 11.4164 17.3845 12.7612 12 12.7612Z" fill="#2C6FB6"/>
</g>
</svg>
