<svg width="24" height="24" viewBox="0 0 24 24" fill="none" xmlns="http://www.w3.org/2000/svg">
<g id="Putukad" clip-path="url(#clip0_4305_80285)">
<path id="Vector" d="M23.9994 13.5422C23.977 14.3592 23.2861 15 22.4688 15H19.8749V15.75C19.8749 16.7749 19.6461 17.7461 19.2374 18.6162L22.0606 21.4394C22.6464 22.0252 22.6464 22.9749 22.0606 23.5607C21.4748 24.1465 20.525 24.1464 19.9393 23.5607L17.3735 20.9949C16.2134 21.9359 14.7352 22.5 13.125 22.5V11.0625C13.125 10.7519 12.8731 10.5 12.5625 10.5H11.4375C11.1268 10.5 10.875 10.7519 10.875 11.0625V22.5C9.26475 22.5 7.78655 21.9359 6.6264 20.9949L4.06065 23.5607C3.47481 24.1465 2.52508 24.1464 1.93928 23.5607C1.35353 22.9749 1.35353 22.0252 1.93928 21.4394L4.76246 18.6162C4.35381 17.7461 4.12497 16.7749 4.12497 15.75V15H1.53119C0.713877 15 0.0229873 14.3592 0.00058106 13.5422C-0.0227158 12.6945 0.657533 12 1.49997 12H4.12497V9.24633L1.93928 7.06064C1.35353 6.47484 1.35353 5.52511 1.93928 4.93931C2.52512 4.35352 3.47481 4.35352 4.06065 4.93931L6.62129 7.5H17.3786L19.9392 4.93936C20.525 4.35356 21.4747 4.35356 22.0606 4.93936C22.6463 5.52516 22.6463 6.47489 22.0606 7.06069L19.8749 9.24633V12H22.4999C23.3424 12 24.0226 12.6945 23.9994 13.5422ZM12.0468 0C9.14733 0 6.79684 2.3505 6.79684 5.25H17.2968C17.2968 2.3505 14.9463 0 12.0468 0Z" fill="#2C6FB6"/>
</g>
<defs>
<clipPath id="clip0_4305_80285">
<rect width="24" height="24" fill="white"/>
</clipPath>
</defs>
</svg>
