<svg width="640" height="512" viewBox="0 0 640 512" fill="none" xmlns="http://www.w3.org/2000/svg">
<g clip-path="url(#clip0_4613_82154)">
<path d="M298.401 288H329.001C338.001 288 346.001 283 349.881 275C353.631 266.875 352.381 257.62 346.506 250.88L268.401 160H297.281C306.408 160 314.661 154.625 318.161 146.38C321.786 138.255 320.036 128.76 313.911 122.26L203.601 4.87486C197.601 -1.62514 186.351 -1.62514 180.351 4.87486L69.9709 122.3C63.9709 128.8 62.2209 138.3 65.8459 146.42C69.3409 154.6 77.5909 160 86.7209 160H115.601L37.4609 250.9C31.5859 257.775 30.3359 266.9 34.0859 275.02C37.9609 283 45.8409 288 54.9609 288H85.5909L5.71092 378.5C-0.289075 385.25 -1.66608 394.62 2.08592 402.75C5.83492 410.8 14.0809 416 23.0909 416H160.001V480C160.001 497.7 174.301 512 192.001 512C209.701 512 224.001 497.7 224.001 480V416H360.901C369.901 416 378.151 410.75 381.901 402.75C385.651 394.625 384.401 385.25 378.401 378.5L298.401 288ZM634.301 378.5L554.401 288H585.031C594.031 288 602.031 283 605.911 275C609.661 266.875 608.411 257.62 602.536 250.88L524.401 160H553.281C562.406 160 570.661 154.625 574.161 146.38C577.786 138.255 576.036 128.76 569.911 122.26L459.611 4.85986C453.611 -1.64014 442.361 -1.64014 436.361 4.85986L341.221 106.16C352.351 121.54 355.221 141.41 347.598 159.04C343.598 168.415 337.218 176.16 329.348 181.79L370.848 230.04C384.848 246.29 387.978 269.29 378.85 288.66C374.6 297.535 368.35 304.78 360.72 310.16L402.35 357.29C410.975 367.165 415.72 371.49 415.97 383.99L416.001 480C416.001 497.7 430.301 512 448.001 512C465.701 512 480.001 497.7 480.001 480V416H616.901C625.903 416 634.151 410.75 637.901 402.75C641.701 394.6 640.301 385.3 634.301 378.5Z" fill="#2C6FB6"/>
</g>
<defs>
<clipPath id="clip0_4613_82154">
<rect width="640" height="512" fill="white"/>
</clipPath>
</defs>
</svg>
