<svg width="21" height="24" viewBox="0 0 21 24" fill="none" xmlns="http://www.w3.org/2000/svg">
<g id="Puuviljad ja marjad" clip-path="url(#clip0_4305_80289)">
<path id="Vector" d="M16.4461 6.04688C17.6634 6.26578 18.6619 6.92203 19.4423 8.01562C20.1291 8.98453 20.5973 10.2033 20.8467 11.6719C21.0656 13.0158 21.0492 14.3592 20.7998 15.7031C20.4253 17.9217 19.6762 19.7812 18.5527 21.2812C17.2102 23.0939 15.525 24 13.4962 24C12.9966 24 12.4509 23.8439 11.8575 23.5312C11.4516 23.2814 10.9992 23.1562 10.4995 23.1562C9.99984 23.1562 9.54796 23.2814 9.14155 23.5312C8.54812 23.8439 8.00249 24 7.5028 24C5.47405 24 3.78889 23.0939 2.44639 21.2812C1.3228 19.7812 0.573735 17.9217 0.199204 15.7031C-0.0501713 14.3592 -0.0665776 13.0158 0.152329 11.6719C0.401704 10.2033 0.869986 8.98453 1.5567 8.01562C2.33717 6.92203 3.33561 6.26578 4.55296 6.04688C5.30202 5.92172 6.33186 6.03141 7.64296 6.375C8.76655 6.68766 9.71859 7.06266 10.4991 7.5C11.2795 7.06266 12.2316 6.68766 13.3552 6.375C14.6667 6.03141 15.697 5.92172 16.4461 6.04688ZM13.8708 4.125C13.4339 4.53141 12.8559 4.82812 12.1383 5.01562C11.6386 5.17172 11.093 5.25 10.4995 5.25L9.79734 5.20312C9.73499 4.76578 9.73499 4.26562 9.79734 3.70312C9.92249 2.57812 10.2811 1.71891 10.8741 1.125C11.3109 0.718594 11.8889 0.421875 12.6066 0.234375C13.1062 0.0782813 13.6519 0 14.2453 0L14.9475 0.046875L14.9944 0.75C14.9944 1.34391 14.9161 1.89047 14.7605 2.39062C14.5734 3.10922 14.2772 3.68766 13.8708 4.125Z" fill="#2C6FB6"/>
</g>
<defs>
<clipPath id="clip0_4305_80289">
<rect width="21" height="24" fill="white"/>
</clipPath>
</defs>
</svg>
