<svg width="640" height="512" viewBox="0 0 640 512" fill="none" xmlns="http://www.w3.org/2000/svg">
<path d="M607.2 377L370.7 219.3L378.825 213.644C412.1 190.6 432 152.5 432 112C432 50.25 381.8 0 320 0C266.9 0 220.8 37.69 210.2 89.66C206.7 106.97 217.888 123.85 235.23 127.38C252.5 130.8 269.4 119.7 272.1 102.3C277.5 80.13 297.3 64 320 64C346.47 64 368 85.53 368 112C368 131.59 358.406 149.97 342.31 161.13L31.61 377.33C11.81 391.1 0 413.7 0 438.3C0 478.9 33.06 512 73.69 512H566.29C606.9 512 640 478.9 640 438.3C640 413.6 627.7 390.7 607.2 377ZM566.3 448H73.69C68.34 448 64 443.7 64 437.8C64 434.644 65.562 431.644 68.156 429.862L314.256 258.662L571.756 430.262C574.4 432.1 576 435.1 576 438.3C576 443.7 571.7 448 566.3 448Z" fill="#2C6FB6"/>
</svg>
