<svg width="512" height="512" viewBox="0 0 512 512" fill="none" xmlns="http://www.w3.org/2000/svg">
<path d="M320 352H192L169.94 440.24C164.9 460.4 180.2 480 200.1 480H310.1C330.92 480 346.19 460.44 341.14 440.24L320 352ZM490.5 242L484.2 214.1C460.4 107.7 365.6 32 256 32C146.4 32 51.5502 107.7 27.7802 214.1L21.5302 242C12.6002 282 43.0202 320 83.1002 320H427.1C468.1 320 499.4 282 490.5 242ZM128 256C110.3 256 96.0002 241.7 96.0002 224C96.0002 206.33 110.33 192 128 192C145.67 192 160 206.33 160 224C160 241.7 145.7 256 128 256ZM224 176C186.64 176 155.52 150.28 146.72 115.65C177.5 93.3 215.2 80 256 80C272.29 80 287.87 82.674 302.98 86.562C303.4 89.67 304 92.75 304 96C304 140.2 268.2 176 224 176ZM400 256C373.5 256 352 234.5 352 208C352 181.5 373.5 160 400 160C403.178 160 406.27 160.344 409.275 160.934C422.075 179.794 431.865 201.034 437.115 224.504L439.506 235.204C430.8 247.8 416.4 256 400 256Z" fill="#2C6FB6"/>
</svg>
