<svg width="30" height="24" viewBox="0 0 30 24" fill="none" xmlns="http://www.w3.org/2000/svg">
<g id="S&#195;&#181;idukid">
<path id="Vector" d="M28.3397 14.7919L28.125 14.2594L27.2873 11.9587C26.9407 11.0837 26.3385 10.3334 25.5592 9.80567C24.78 9.2779 23.8598 8.99714 22.9186 9H17.5814C16.64 8.99686 15.7195 9.27748 14.9399 9.80527C14.1604 10.3331 13.558 11.0835 13.2113 11.9587L12.375 14.2594L12.1617 14.7919C11.6704 14.9955 11.2504 15.3402 10.9549 15.7823C10.6594 16.2245 10.5016 16.7444 10.5014 17.2762V18.6211C10.5025 19.0219 10.5937 19.4173 10.7683 19.7781C10.9429 20.1388 11.1965 20.4557 11.5102 20.7052V22.5C11.5102 22.8978 11.6682 23.2794 11.9495 23.5607C12.2308 23.842 12.6123 24 13.0102 24H14.0447C14.4425 24 14.824 23.842 15.1053 23.5607C15.3867 23.2794 15.5447 22.8978 15.5447 22.5V21H24.9567V22.5C24.9567 22.8978 25.1148 23.2794 25.3961 23.5607C25.6774 23.842 26.0589 24 26.4567 24H27.4912C27.8891 24 28.2706 23.842 28.5519 23.5607C28.8332 23.2794 28.9912 22.8978 28.9912 22.5V20.7047C29.3049 20.4552 29.5585 20.1384 29.7331 19.7776C29.9077 19.4168 29.9989 19.0214 30 18.6206V17.2758C29.9997 16.744 29.8419 16.2242 29.5464 15.7821C29.2509 15.34 28.8309 14.9954 28.3397 14.7919ZM15.7083 13.3125C16.0144 12.5194 16.7564 12 17.5833 12H22.9186C23.7436 12 24.4852 12.5203 24.7936 13.3125L25.3594 15H15.1406L15.7083 13.3125ZM14.0625 19.118C13.3875 19.118 12.9375 18.6694 12.9375 17.9967C12.9375 17.3241 13.3875 16.875 14.0625 16.875C14.7375 16.875 15.75 17.8842 15.75 18.5573C15.75 19.2305 14.7375 19.118 14.0625 19.118ZM26.4375 19.118C25.7625 19.118 24.75 19.23 24.75 18.5555C24.75 17.8809 25.7625 16.875 26.4375 16.875C27.1125 16.875 27.5625 17.3236 27.5625 17.9967C27.5625 18.6698 27.1125 19.118 26.4375 19.118ZM11.8181 11.4014C11.9446 11.0893 12.0958 10.7879 12.2705 10.5H9V3.75H12.8123C12.9947 3.75 13.1696 3.82245 13.2986 3.95141C13.4276 4.08037 13.5 4.25528 13.5 4.43766V9.03469C14.3496 8.29096 15.3875 7.79537 16.5 7.60219V2.94656C16.5 1.29656 12.8466 0 8.25 0C3.65344 0 0 1.29656 0 2.94656V15.1252C0 15.4898 0.144849 15.8395 0.402682 16.0973C0.660516 16.3552 1.01021 16.5 1.37484 16.5H1.875V18C1.875 18.3978 2.03304 18.7794 2.31434 19.0607C2.59564 19.342 2.97718 19.5 3.375 19.5H4.46109C4.85892 19.5 5.24045 19.342 5.52175 19.0607C5.80306 18.7794 5.96109 18.3978 5.96109 18V16.5H9.10172C9.31875 15.352 9.97969 14.34 10.9767 13.7208L11.8181 11.4014ZM3.75 14.625C3.5275 14.625 3.30999 14.559 3.12498 14.4354C2.93998 14.3118 2.79578 14.1361 2.71064 13.9305C2.62549 13.725 2.60321 13.4988 2.64662 13.2805C2.69003 13.0623 2.79717 12.8618 2.9545 12.7045C3.11184 12.5472 3.31229 12.44 3.53052 12.3966C3.74875 12.3532 3.97495 12.3755 4.18052 12.4606C4.38609 12.5458 4.56179 12.69 4.6854 12.875C4.80902 13.06 4.875 13.2775 4.875 13.5C4.875 13.7984 4.75647 14.0845 4.5455 14.2955C4.33452 14.5065 4.04837 14.625 3.75 14.625ZM7.5 10.5H3.68766C3.50528 10.5 3.33037 10.4276 3.20141 10.2986C3.07245 10.1696 3 9.99472 3 9.81234V4.43766C3 4.25528 3.07245 4.08037 3.20141 3.95141C3.33037 3.82245 3.50528 3.75 3.68766 3.75H7.5V10.5Z" fill="#2C6FB6"/>
</g>
</svg>
