<svg width="24" height="24" viewBox="0 0 24 24" fill="none" xmlns="http://www.w3.org/2000/svg">
<g id="Sport">
<path id="Vector" d="M23.625 12C23.625 18.4203 18.4203 23.625 12 23.625C5.57967 23.625 0.375 18.4203 0.375 12C0.375 5.57967 5.57967 0.375 12 0.375C18.4203 0.375 23.625 5.57967 23.625 12ZM21.375 12L21.3749 11.9868L20.1531 13.0528L17.215 10.3106L17.9863 6.35644L19.5943 6.50044C18.4276 4.89656 16.7816 3.68377 14.8735 3.07195L15.5134 4.56909L12 6.51562L8.48658 4.56914L9.12647 3.072C7.22189 3.68269 5.57428 4.89403 4.40573 6.50048L6.02597 6.35644L6.78497 10.3106L3.84694 13.0528L2.62519 11.9868L2.62505 12C2.62505 14.0163 3.25772 15.9352 4.42842 17.5308L4.78955 15.9419L8.78039 16.4316L10.482 20.0797L9.08034 20.9134C10.9648 21.5285 13.0314 21.5297 14.9197 20.9134L13.518 20.0797L15.2196 16.4316L19.2105 15.9419L19.5716 17.5308C20.7423 15.9352 21.375 14.0163 21.375 12ZM9.74522 15.2611L8.34394 10.9809L12 8.33119L15.6561 10.9809L14.2675 15.2611H9.74522Z" fill="#2C6FB6"/>
</g>
</svg>
