<svg width="21" height="24" viewBox="0 0 21 24" fill="none" xmlns="http://www.w3.org/2000/svg">
<g id="T&#195;&#164;hestik" clip-path="url(#clip0_4305_80297)">
<path id="Vector" d="M20.25 19.5H19.1527L13.0256 2.51672C12.9247 2.22016 12.7335 1.96264 12.4787 1.7803C12.224 1.59795 11.9186 1.49994 11.6053 1.5H9.39469C9.08142 1.49994 8.776 1.59795 8.52128 1.7803C8.26655 1.96264 8.0753 2.22016 7.97437 2.51672L1.84734 19.5H0.75C0.551088 19.5 0.360322 19.579 0.21967 19.7197C0.0790176 19.8603 0 20.0511 0 20.25L0 21.75C0 21.9489 0.0790176 22.1397 0.21967 22.2803C0.360322 22.421 0.551088 22.5 0.75 22.5H6.75C6.94891 22.5 7.13968 22.421 7.28033 22.2803C7.42098 22.1397 7.5 21.9489 7.5 21.75V20.25C7.5 20.0511 7.42098 19.8603 7.28033 19.7197C7.13968 19.579 6.94891 19.5 6.75 19.5H5.83219L6.92438 16.5H14.0756L15.1678 19.5H14.25C14.0511 19.5 13.8603 19.579 13.7197 19.7197C13.579 19.8603 13.5 20.0511 13.5 20.25V21.75C13.5 21.9489 13.579 22.1397 13.7197 22.2803C13.8603 22.421 14.0511 22.5 14.25 22.5H20.25C20.4489 22.5 20.6397 22.421 20.7803 22.2803C20.921 22.1397 21 21.9489 21 21.75V20.25C21 20.0511 20.921 19.8603 20.7803 19.7197C20.6397 19.579 20.4489 19.5 20.25 19.5ZM8.28984 12.75L10.5 6.68016L12.7102 12.75H8.28984Z" fill="#2C6FB6"/>
</g>
<defs>
<clipPath id="clip0_4305_80297">
<rect width="21" height="24" fill="white"/>
</clipPath>
</defs>
</svg>
