<svg width="24" height="24" viewBox="0 0 24 24" fill="none" xmlns="http://www.w3.org/2000/svg">
<g id="T&#195;&#164;htkujud" clip-path="url(#clip0_4378_81417)">
<path id="Vector" d="M6.82969 13.4484L8.95078 11.3325L4.71094 7.09219C6.00938 6.37969 7.47656 6 8.95781 6C10.4156 6 11.9053 6.36323 13.1944 7.05469L15.3802 4.86937C13.4761 3.65672 11.2664 3.00047 8.95828 3.00047C6.62625 3.00047 4.39922 3.66844 2.48484 4.90453L2.3032 4.72298C2.19516 4.57641 2.00156 4.50281 1.80797 4.50281C1.61541 4.50281 1.42317 4.57584 1.27687 4.72195L0.220312 5.77711C0.0743437 5.925 0.00107813 6.11719 0.00107813 6.30938C0.00107813 6.50217 0.0744375 6.69497 0.221016 6.84141L6.82969 13.4484ZM19.1297 8.55L16.9439 10.7353C17.6353 12.0239 17.9986 13.4653 17.9986 14.9709C17.9986 16.4939 17.6177 17.9587 16.9088 19.2591L12.6666 15.0117L10.5455 17.1323L17.1923 23.7792C17.3388 23.9257 17.5308 23.9989 17.7225 23.9989C17.9142 23.9989 18.1063 23.9257 18.2527 23.7792L19.313 22.7189C19.4595 22.5725 19.5327 22.3791 19.5327 22.1859C19.5327 21.9926 19.4595 21.7993 19.313 21.653L19.0962 21.4421C20.3323 19.5263 21.0007 17.3003 21.0007 14.9687C20.9578 12.6141 20.3016 10.4109 19.1297 8.55ZM24 0.733125C24 0.328406 23.6675 0 23.2631 0C23.2161 0 23.1687 0.0042 23.12 0.0135937L17.0919 1.22063C16.7223 1.29605 16.5008 1.61658 16.5008 1.94578C16.5008 2.12812 16.5687 2.31286 16.717 2.46094L18.3342 4.07812L6.58594 15.825L4.25391 15.0422C4.15528 15.0104 4.05005 14.995 3.94936 14.995C3.69717 14.995 3.45389 15.0923 3.26967 15.2766L0.281391 18.2681C0.0891094 18.4594 0 18.7031 0 18.9422C0 19.3349 0.239063 19.7203 0.660938 19.8619L3.26813 20.7291L4.13531 23.3391C4.2772 23.761 4.66219 24.0009 5.05641 24.0009C5.29706 24.0009 5.54156 23.9108 5.73469 23.7198L8.71688 20.732C8.90109 20.5478 8.99864 20.3012 8.99864 20.049C8.99864 19.9484 8.98305 19.8464 8.9513 19.7478L8.175 17.4094L19.9219 5.66719L21.5391 7.28297C21.6873 7.43114 21.8723 7.50042 22.0552 7.50042C22.385 7.50042 22.7058 7.27753 22.7812 6.90792L23.9869 0.879797C23.9953 0.832031 24 0.780469 24 0.733125Z" fill="#2C6FB6"/>
</g>
<defs>
<clipPath id="clip0_4378_81417">
<rect width="24" height="24" fill="white"/>
</clipPath>
</defs>
</svg>
