<svg width="27" height="24" viewBox="0 0 27 24" fill="none" xmlns="http://www.w3.org/2000/svg">
<g id="Toiduvalmistamine">
<path id="Vector" d="M3.75 6.75C3.75 5.09531 5.09531 3.75 6.75 3.75C8.40469 3.75 9.75 5.09531 9.75 6.75C9.75 8.40469 8.40469 9.75 6.75 9.75C5.09531 9.75 3.75 8.40469 3.75 6.75ZM13.3312 8.25C12.6516 11.2547 9.96094 13.5 6.75 13.5C3.02203 13.5 0 10.4766 0 6.75C0 3.02203 3.02203 0 6.75 0C9.96094 0 12.6516 2.24391 13.3312 5.25H16.6969C17.1094 4.79062 17.7094 4.5 18.375 4.5H23.25C24.4922 4.5 25.5 5.50781 25.5 6.75C25.5 7.99219 24.4922 9 23.25 9H18.375C17.7094 9 17.1094 8.70938 16.6969 8.25H13.3312ZM6.75 2.25C4.26469 2.25 2.25 4.26469 2.25 6.75C2.25 9.23438 4.26469 11.25 6.75 11.25C9.23438 11.25 11.25 9.23438 11.25 6.75C11.25 4.26469 9.23438 2.25 6.75 2.25ZM19.875 12.375V12.75H24.375C24.9984 12.75 25.5 13.2516 25.5 13.875C25.5 14.4984 24.9984 15 24.375 15H13.125C12.5016 15 12 14.4984 12 13.875C12 13.2516 12.5016 12.75 13.125 12.75H17.625V12.375C17.625 11.7516 18.1266 11.25 18.75 11.25C19.3734 11.25 19.875 11.7516 19.875 12.375ZM13.5 21.75V16.5H24V21.75C24 22.9922 22.9922 24 21.75 24H15.75C14.5078 24 13.5 22.9922 13.5 21.75ZM8.25 15C9.49219 15 10.5 16.0078 10.5 17.25C10.5 18.4922 9.49219 19.5 8.25 19.5H7.5C7.5 20.3297 6.82969 21 6 21H3C2.17172 21 1.5 20.3297 1.5 19.5V15.75C1.5 15.3375 1.83562 15 2.25 15H8.25ZM9 17.25C9 16.8375 8.6625 16.5 8.25 16.5H7.5V18H8.25C8.6625 18 9 17.6625 9 17.25ZM9.375 21.75C9.99844 21.75 10.5 22.2516 10.5 22.875C10.5 23.4984 9.99844 24 9.375 24H1.125C0.503906 24 0 23.4984 0 22.875C0 22.2516 0.503906 21.75 1.125 21.75H9.375Z" fill="#2C6FB6"/>
</g>
</svg>
