<svg width="30" height="24" viewBox="0 0 30 24" fill="none" xmlns="http://www.w3.org/2000/svg">
<g id="Toit" clip-path="url(#clip0_4305_80301)">
<path id="Vector" d="M16.5 8.25V6.75C16.5 6.55109 16.421 6.36032 16.2803 6.21967C16.1397 6.07902 15.9489 6 15.75 6H9.69094L10.6284 2.25H12.75C12.9489 2.25 13.1397 2.17098 13.2803 2.03033C13.421 1.88968 13.5 1.69891 13.5 1.5V0.75C13.5 0.551088 13.421 0.360322 13.2803 0.21967C13.1397 0.0790176 12.9489 9.11981e-09 12.75 9.11981e-09L10.3359 9.11981e-09C9.91774 -4.12222e-05 9.51153 0.139726 9.1819 0.397079C8.85227 0.654432 8.61813 1.0146 8.51672 1.42031L7.37156 6H0.75C0.551088 6 0.360322 6.07902 0.21967 6.21967C0.0790176 6.36032 0 6.55109 0 6.75L0 8.25C0 8.44891 0.0790176 8.63968 0.21967 8.78033C0.360322 8.92098 0.551088 9 0.75 9H15.75C15.9489 9 16.1397 8.92098 16.2803 8.78033C16.421 8.63968 16.5 8.44891 16.5 8.25ZM12.3539 14.9166C12.0949 14.4281 11.9743 13.8781 12.0052 13.326C12.0361 12.774 12.2173 12.2409 12.5292 11.7844C12.8442 11.3217 13.2356 10.9003 13.6584 10.5H1.79391L3.00234 22.6073C3.0282 22.9864 3.19743 23.3413 3.47563 23.6C3.75383 23.8587 4.12011 24.0017 4.5 24H12C12.2224 23.9962 12.4411 23.9424 12.6398 23.8425C12.2221 23.2247 11.9992 22.4958 12 21.75C12 21.4232 12.0713 21.1004 12.209 20.804C12.3466 20.5076 12.5472 20.2448 12.7969 20.0339C12.5259 19.741 12.3162 19.3968 12.1801 19.0217C12.044 18.6466 11.9841 18.2481 12.0041 17.8496C12.0241 17.4511 12.1236 17.0605 12.2966 16.701C12.4696 16.3414 12.7126 16.02 13.0116 15.7556C12.744 15.5174 12.5213 15.2333 12.3539 14.9166ZM29.25 21H14.25C14.0511 21 13.8603 21.079 13.7197 21.2197C13.579 21.3603 13.5 21.5511 13.5 21.75C13.5 22.3467 13.7371 22.919 14.159 23.341C14.581 23.7629 15.1533 24 15.75 24H27.75C28.3467 24 28.919 23.7629 29.341 23.341C29.7629 22.919 30 22.3467 30 21.75C30 21.5511 29.921 21.3603 29.7803 21.2197C29.6397 21.079 29.4489 21 29.25 21ZM28.5 16.5H15C14.6022 16.5 14.2206 16.658 13.9393 16.9393C13.658 17.2206 13.5 17.6022 13.5 18C13.5 18.3978 13.658 18.7794 13.9393 19.0607C14.2206 19.342 14.6022 19.5 15 19.5H28.5C28.8978 19.5 29.2794 19.342 29.5607 19.0607C29.842 18.7794 30 18.3978 30 18C30 17.6022 29.842 17.2206 29.5607 16.9393C29.2794 16.658 28.8978 16.5 28.5 16.5ZM13.7691 12.6286C13.088 13.628 13.778 15 14.9662 15H28.5342C29.7225 15 30.4092 13.628 29.7309 12.6286C28.35 10.5998 25.3097 9.00328 21.75 9C18.1903 8.99672 15.1505 10.5998 13.7691 12.6286ZM25.5 11.25C25.6483 11.25 25.7933 11.294 25.9167 11.3764C26.04 11.4588 26.1361 11.5759 26.1929 11.713C26.2497 11.85 26.2645 12.0008 26.2356 12.1463C26.2066 12.2918 26.1352 12.4254 26.0303 12.5303C25.9254 12.6352 25.7918 12.7066 25.6463 12.7356C25.5008 12.7645 25.35 12.7497 25.213 12.6929C25.0759 12.6361 24.9588 12.54 24.8764 12.4167C24.794 12.2933 24.75 12.1483 24.75 12C24.75 11.8011 24.829 11.6103 24.9697 11.4697C25.1103 11.329 25.3011 11.25 25.5 11.25ZM21.75 10.5C21.8983 10.5 22.0433 10.544 22.1667 10.6264C22.29 10.7088 22.3861 10.8259 22.4429 10.963C22.4997 11.1 22.5145 11.2508 22.4856 11.3963C22.4566 11.5418 22.3852 11.6754 22.2803 11.7803C22.1754 11.8852 22.0418 11.9566 21.8963 11.9856C21.7508 12.0145 21.6 11.9997 21.463 11.9429C21.3259 11.8861 21.2088 11.79 21.1264 11.6667C21.044 11.5433 21 11.3983 21 11.25C21 11.0511 21.079 10.8603 21.2197 10.7197C21.3603 10.579 21.5511 10.5 21.75 10.5ZM18 11.25C18.1483 11.25 18.2933 11.294 18.4167 11.3764C18.54 11.4588 18.6361 11.5759 18.6929 11.713C18.7497 11.85 18.7645 12.0008 18.7356 12.1463C18.7066 12.2918 18.6352 12.4254 18.5303 12.5303C18.4254 12.6352 18.2918 12.7066 18.1463 12.7356C18.0008 12.7645 17.85 12.7497 17.713 12.6929C17.5759 12.6361 17.4588 12.54 17.3764 12.4167C17.294 12.2933 17.25 12.1483 17.25 12C17.25 11.8011 17.329 11.6103 17.4697 11.4697C17.6103 11.329 17.8011 11.25 18 11.25Z" fill="#2C6FB6"/>
</g>
<defs>
<clipPath id="clip0_4305_80301">
<rect width="30" height="24" fill="white"/>
</clipPath>
</defs>
</svg>
