<svg width="24" height="24" viewBox="0 0 24 24" fill="none" xmlns="http://www.w3.org/2000/svg">
<g id="T&#195;&#182;&#195;&#182;riistad" clip-path="url(#clip0_4305_80303)">
<path id="Vector" d="M23.489 18.5484L18 13.0594C16.9172 11.9766 15.3 11.7656 13.9969 12.4078L8.99999 7.41094V4.5L2.99999 0L-6.14021e-06 3L4.49999 9H7.41093L12.4078 13.9969C11.7703 15.3 11.9766 16.9172 13.0594 18L18.5484 23.4891C19.2328 24.1734 20.339 24.1734 21.0187 23.4891L23.489 21.0187C24.1687 20.3344 24.1687 19.2281 23.489 18.5484ZM15.5484 10.5469C16.875 10.5469 18.1219 11.0625 19.0594 12L19.9687 12.9094C20.7094 12.5859 21.4125 12.1359 22.0219 11.5266C23.7609 9.7875 24.3515 7.34062 23.7984 5.11875C23.6953 4.69687 23.1656 4.55156 22.8562 4.86094L19.3687 8.34844L16.1859 7.81875L15.6562 4.63594L19.1437 1.14844C19.4531 0.839063 19.3031 0.309375 18.8765 0.201563C16.6547 -0.346875 14.2078 0.24375 12.4734 1.97813C11.1375 3.31406 10.5094 5.07656 10.5422 6.83438L14.3906 10.6828C14.7703 10.5938 15.1641 10.5469 15.5484 10.5469ZM10.6781 14.3906L8.0203 11.7328L0.876556 18.8812C-0.295318 20.0531 -0.295318 21.9516 0.876556 23.1234C2.04843 24.2953 3.94687 24.2953 5.11874 23.1234L10.9125 17.3297C10.5562 16.3969 10.4484 15.3797 10.6781 14.3906ZM2.99999 22.125C2.38124 22.125 1.87499 21.6187 1.87499 21C1.87499 20.3766 2.37656 19.875 2.99999 19.875C3.62343 19.875 4.12499 20.3766 4.12499 21C4.12499 21.6187 3.62343 22.125 2.99999 22.125Z" fill="#2C6FB6"/>
</g>
<defs>
<clipPath id="clip0_4305_80303">
<rect width="24" height="24" fill="white"/>
</clipPath>
</defs>
</svg>
