<svg width="24" height="24" viewBox="0 0 24 24" fill="none" xmlns="http://www.w3.org/2000/svg">
<g id="Vannituba" clip-path="url(#clip0_4305_80305)">
<path id="Vector" d="M1.5 18C1.50129 18.6298 1.63558 19.2522 1.89407 19.8264C2.15256 20.4007 2.52943 20.9138 3 21.3324V23.25C3 23.4489 3.07902 23.6397 3.21967 23.7803C3.36032 23.921 3.55109 24 3.75 24H5.25C5.44891 24 5.63968 23.921 5.78033 23.7803C5.92098 23.6397 6 23.4489 6 23.25V22.5H18V23.25C18 23.4489 18.079 23.6397 18.2197 23.7803C18.3603 23.921 18.5511 24 18.75 24H20.25C20.4489 24 20.6397 23.921 20.7803 23.7803C20.921 23.6397 21 23.4489 21 23.25V21.3324C21.4706 20.9138 21.8474 20.4007 22.1059 19.8264C22.3644 19.2522 22.4987 18.6298 22.5 18V15.75H1.5V18ZM23.25 12H3.75V3.24612C3.75043 3.04927 3.80914 2.85697 3.91873 2.69345C4.02832 2.52994 4.18388 2.40254 4.36579 2.32733C4.5477 2.25212 4.74781 2.23246 4.94087 2.27085C5.13394 2.30923 5.31131 2.40392 5.45062 2.54299L6.35391 3.44581C5.73844 4.84643 5.99719 6.21659 6.75797 7.18315L6.75 7.19112C6.60988 7.3317 6.53121 7.52209 6.53121 7.72057C6.53121 7.91905 6.60988 8.10944 6.75 8.25002L7.28016 8.78018C7.3498 8.84984 7.43249 8.9051 7.52349 8.9428C7.6145 8.9805 7.71204 8.99991 7.81055 8.99991C7.90905 8.99991 8.00659 8.9805 8.0976 8.9428C8.1886 8.9051 8.27129 8.84984 8.34094 8.78018L13.2802 3.84096C13.3498 3.77132 13.4051 3.68863 13.4428 3.59762C13.4805 3.50662 13.4999 3.40908 13.4999 3.31057C13.4999 3.21207 13.4805 3.11452 13.4428 3.02352C13.4051 2.93251 13.3498 2.84983 13.2802 2.78018L12.75 2.25002C12.6094 2.10948 12.4187 2.03053 12.2198 2.03053C12.021 2.03053 11.8303 2.10948 11.6897 2.25002L11.6817 2.25799C10.7152 1.49721 9.34594 1.23846 7.94438 1.85393L7.04156 0.95065C6.58759 0.496622 6.00916 0.187418 5.37945 0.0621447C4.74973 -0.0631286 4.09701 0.00115528 3.50383 0.246866C2.91065 0.492578 2.40366 0.908679 2.04698 1.44255C1.6903 1.97641 1.49995 2.60406 1.5 3.24612V12H0.75C0.551088 12 0.360322 12.079 0.21967 12.2197C0.0790176 12.3603 0 12.5511 0 12.75L0 13.5C0 13.6989 0.0790176 13.8897 0.21967 14.0304C0.360322 14.171 0.551088 14.25 0.75 14.25H23.25C23.4489 14.25 23.6397 14.171 23.7803 14.0304C23.921 13.8897 24 13.6989 24 13.5V12.75C24 12.5511 23.921 12.3603 23.7803 12.2197C23.6397 12.079 23.4489 12 23.25 12Z" fill="#2C6FB6"/>
</g>
<defs>
<clipPath id="clip0_4305_80305">
<rect width="24" height="24" fill="white"/>
</clipPath>
</defs>
</svg>
