<svg width="24" height="24" viewBox="0 0 24 24" fill="none" xmlns="http://www.w3.org/2000/svg">
<g id="V&#195;&#164;rvid" clip-path="url(#clip0_4305_80307)">
<path id="Vector" d="M9.57657 0.234431C4.9172 1.14381 1.16251 4.88912 0.243758 9.53443C-1.49062 18.3 6.4172 24.8344 12.375 23.911C14.3063 23.611 15.2531 21.3516 14.3672 19.6125C13.2844 17.4844 14.8313 15 17.2219 15H20.9578C22.6359 15 23.9953 13.6125 24 11.9391C23.9766 4.55162 17.2547 -1.26088 9.57657 0.234431ZM4.50001 15C3.67032 15 3.00001 14.3297 3.00001 13.5C3.00001 12.6704 3.67032 12 4.50001 12C5.3297 12 6.00001 12.6704 6.00001 13.5C6.00001 14.3297 5.3297 15 4.50001 15ZM6.00001 9.00005C5.17032 9.00005 4.50001 8.32974 4.50001 7.50005C4.50001 6.67037 5.17032 6.00005 6.00001 6.00005C6.8297 6.00005 7.50001 6.67037 7.50001 7.50005C7.50001 8.32974 6.8297 9.00005 6.00001 9.00005ZM12 6.00005C11.1703 6.00005 10.5 5.32974 10.5 4.50005C10.5 3.67037 11.1703 3.00005 12 3.00005C12.8297 3.00005 13.5 3.67037 13.5 4.50005C13.5 5.32974 12.8297 6.00005 12 6.00005ZM18 9.00005C17.1703 9.00005 16.5 8.32974 16.5 7.50005C16.5 6.67037 17.1703 6.00005 18 6.00005C18.8297 6.00005 19.5 6.67037 19.5 7.50005C19.5 8.32974 18.8297 9.00005 18 9.00005Z" fill="#2C6FB6"/>
</g>
<defs>
<clipPath id="clip0_4305_80307">
<rect width="24" height="24" fill="white"/>
</clipPath>
</defs>
</svg>
