<svg width="81" height="33" viewBox="0 0 81 33" fill="none" xmlns="http://www.w3.org/2000/svg">
<path d="M25.0733 0.142273H30.8215V1.04043H26.0987V3.61142H30.3874V4.47964H26.0987V7.33505H30.9638V8.28186H25.0733V0.142273Z" fill="#173148"/>
<path d="M32.0567 0.142273H37.8049V1.04043H33.0821V3.61142H37.3745V4.47964H33.0821V7.33505H37.9471V8.28186H32.0567V0.142273Z" fill="#173148"/>
<path d="M38.5236 5.52744H39.5228C39.6613 6.90462 40.5033 7.61941 42.0414 7.61941C43.1641 7.61941 43.9762 7.10671 43.9762 6.09627C43.9762 4.97357 42.9957 4.71535 41.5399 4.39725C40.0841 4.07915 38.8754 3.67124 38.8754 2.15185C38.8754 0.808346 39.9981 0 41.6409 0C43.6805 0 44.5226 1.03663 44.7284 2.53731H43.7591C43.6132 1.37718 42.861 0.797121 41.6671 0.797121C40.5444 0.797121 39.8334 1.26491 39.8334 2.10694C39.8334 3.02756 40.7428 3.30074 41.9628 3.54025C43.5421 3.85835 44.9903 4.24756 44.9903 6.07756C44.9903 7.60444 43.7479 8.45769 41.9965 8.45769C39.7062 8.43898 38.6134 7.16658 38.5236 5.52744Z" fill="#173148"/>
<path d="M45.4543 0.142273H51.8986V1.04043H49.1892V8.28186H48.1675V1.04043H45.4543V0.142273Z" fill="#173148"/>
<path d="M52.9201 0.142273H53.9455V8.28186H52.9201V0.142273Z" fill="#173148"/>
<path d="M25.0733 12.3988H26.0987V16.4405L30.103 12.3988H31.3904L28.1009 15.6546L31.6636 20.5384H30.4698L27.4048 16.347L26.0987 17.6568V20.5384H25.0733V12.3988Z" fill="#173148"/>
<path d="M32.536 12.3988H38.288V13.297H33.5614V15.8717H37.8539V16.7362H33.5614V19.5841H38.4264V20.5309H32.536V12.3988Z" fill="#173148"/>
<path d="M39.5224 12.3988H45.2706V13.297H40.544V15.8717H44.8365V16.7362H40.544V19.5841H45.4091V20.5309H39.5224V12.3988Z" fill="#173148"/>
<path d="M46.5058 12.3988H47.5274V19.5841H51.7974V20.5309H46.5058V12.3988Z" fill="#173148"/>
<path d="M52.8002 12.3988H58.5485V13.297H53.8256V15.8717H58.1181V16.7362H53.8256V19.5841H58.6907V20.5309H52.8002V12.3988Z" fill="#173148"/>
<path d="M25.0958 24.6987H26.1212V32.8383H25.0958V24.6987Z" fill="#173148"/>
<path d="M27.7905 24.6987H28.8721L32.5845 30.3571C32.8576 30.7763 33.1757 31.405 33.1757 31.405H33.1982V24.6987H34.1562V32.8383H33.1084L29.366 27.1687C29.1041 26.7682 28.7635 26.1545 28.7635 26.1545H28.7411V32.8383H27.783L27.7905 24.6987Z" fill="#173148"/>
<path d="M35.3276 30.0841H36.3306C36.469 31.4612 37.311 32.176 38.8454 32.176C39.9681 32.176 40.7839 31.6671 40.7839 30.6529C40.7839 29.5302 39.8034 29.2757 38.3477 28.9576C36.8919 28.6395 35.6831 28.2091 35.6831 26.6898C35.6831 25.3462 36.8058 24.5379 38.4487 24.5379C40.4883 24.5379 41.3303 25.5745 41.5324 27.0752H40.5669C40.4172 25.9151 39.6687 25.335 38.4712 25.335C37.3672 25.335 36.6374 25.8028 36.6374 26.6448C36.6374 27.5655 37.5506 27.8386 38.7668 28.0782C40.3498 28.3963 41.7981 28.7855 41.7981 30.6192C41.7981 32.1423 40.5557 32.9993 38.8042 32.9993C36.5027 32.9993 35.4212 31.7232 35.3276 30.0841Z" fill="#173148"/>
<path d="M42.2623 24.6987H48.7066V25.5969H45.9971V32.8383H44.9717V25.5969H42.2623V24.6987Z" fill="#173148"/>
<path d="M49.7241 24.6987H50.7495V32.8383H49.7241V24.6987Z" fill="#173148"/>
<path d="M51.7527 24.6987H58.2083V25.5969H55.4988V32.8383H54.4659V25.5969H51.7565L51.7527 24.6987Z" fill="#173148"/>
<path d="M59.1396 30.2075V24.6987H60.165V30.1064C60.165 31.4948 60.9509 32.0861 62.2944 32.0861C63.578 32.0861 64.3527 31.4948 64.3527 30.1064V24.6987H65.3781V30.2075C65.3781 32.1759 64.0009 32.9618 62.2607 32.9618C60.5205 32.9618 59.1396 32.1759 59.1396 30.2075Z" fill="#173148"/>
<path d="M66.8944 30.2075V24.6987H67.9386V30.1064C67.9386 31.4948 68.7244 32.0861 70.0679 32.0861C71.4114 32.0861 72.1262 31.4948 72.1262 30.1064V24.6987H73.1516V30.2075C73.1516 32.1759 71.7745 32.9618 70.0343 32.9618C68.2941 32.9618 66.8944 32.1759 66.8944 30.2075Z" fill="#173148"/>
<path d="M74.0757 24.6987H80.52V25.5969H77.8105V32.8383H76.7851V25.5969H74.0757V24.6987Z" fill="#173148"/>
<path d="M16.8703 0.123718H0.519989V16.6611H9.95069C9.83842 19.7935 9.06001 22.0913 7.63044 23.4946C6.20086 24.898 3.77957 25.74 0.519989 25.8935V32.8093C10.6243 32.4164 16.874 27.1322 16.874 15.8453L16.8703 0.123718Z" fill="#173148"/>
</svg>
