<svg id="Layer_1" data-name="Layer 1" xmlns="http://www.w3.org/2000/svg" viewBox="0 0 144.31 47"><defs><style>.eki-svg-1{fill:#231f20;}</style></defs><path class="eki-svg-1" d="M34,6.21h6.18v1H35.05V10h4.62v.93H35.05V14h5.23v1H34Zm7.51,0h6.18v1H42.56V10h4.62v.93H42.56V14h5.23v1H41.46ZM48.41,12h1.08c.15,1.48,1,2.26,2.71,2.26,1.21,0,2.08-.55,2.08-1.64s-1.05-1.49-2.62-1.83S48.79,10,48.79,8.35c0-1.44,1.2-2.31,3-2.31,2.19,0,3.1,1.11,3.32,2.73h-1A2,2,0,0,0,51.79,6.9c-1.18,0-2,.5-2,1.41s1,1.28,2.29,1.54c1.7.34,3.26.76,3.26,2.73,0,1.64-1.33,2.56-3.22,2.56-2.46,0-3.64-1.37-3.74-3.14m7.46-5.79H62.8v1H59.89V15h-1.1V7.18H55.87Zm8,0H65V15H63.9ZM34,19.39h1.1v4.35l4.31-4.35h1.38L37.2,22.9,41,28.15H39.75l-3.29-4.51-1.41,1.41v3.1H34Zm8,0h6.18v1H43.08v2.77h4.61v.93H43.08v3.07h5.23v1H42Zm7.51,0h6.18v1H50.59v2.77h4.62v.93H50.59v3.07h5.23v1H49.49Zm7.51,0h1.1v7.74h4.59v1H57Zm6.77,0H70v1H64.87v2.77h4.62v.93H64.87v3.07H70.1v1H63.77ZM34,32.63h1.1v8.75H34Zm2.9,0H38l4,6.08c.29.45.63,1.13.63,1.13h0V32.63h1v8.75H42.59l-4-6.1c-.28-.43-.65-1.09-.65-1.09h0v7.19h-1ZM45,38.42h1.08c.14,1.48,1,2.25,2.7,2.25,1.21,0,2.08-.55,2.08-1.64s-1.05-1.48-2.62-1.82-2.86-.79-2.86-2.44c0-1.45,1.2-2.32,3-2.32,2.2,0,3.1,1.12,3.32,2.73h-1a2,2,0,0,0-2.25-1.87c-1.19,0-2,.5-2,1.41s1,1.29,2.29,1.54c1.7.35,3.25.76,3.25,2.73,0,1.64-1.33,2.56-3.22,2.56-2.46,0-3.63-1.37-3.73-3.13m7.46-5.79h6.93v1H56.45v7.79h-1.1V33.59H52.44Zm8,0h1.1v8.75h-1.1Zm2.18,0h6.93v1H66.66v7.79h-1.1V33.59H62.64Zm8,5.92V32.63h1.1v5.81c0,1.5.85,2.13,2.29,2.13s2.22-.63,2.22-2.13V32.63h1.1v5.92c0,2.12-1.48,3-3.35,3s-3.36-.85-3.36-3m8.34,0V32.63H80v5.81c0,1.5.85,2.13,2.29,2.13s2.22-.63,2.22-2.13V32.63h1.1v5.92c0,2.12-1.48,3-3.35,3s-3.36-.85-3.36-3m7.73-5.92h6.93v1H90.67v7.79h-1.1V33.59H86.66ZM25.12,6.21H7.54V24.06H17.68c-.13,3.33-1,5.78-2.49,7.27S11,33.75,7.53,33.92v7.44c10.86-.42,17.59-6.1,17.59-18.25V6.21"/></svg>
