<?xml version="1.0" encoding="UTF-8" standalone="no"?>
<!-- Created with Inkscape (http://www.inkscape.org/) -->

<svg
   xmlns:dc="http://purl.org/dc/elements/1.1/"
   xmlns:cc="http://creativecommons.org/ns#"
   xmlns:rdf="http://www.w3.org/1999/02/22-rdf-syntax-ns#"
   xmlns:svg="http://www.w3.org/2000/svg"
   xmlns="http://www.w3.org/2000/svg"
   xmlns:sodipodi="http://sodipodi.sourceforge.net/DTD/sodipodi-0.dtd"
   xmlns:inkscape="http://www.inkscape.org/namespaces/inkscape"
   version="1.1"
   id="svg10"
   xml:space="preserve"
   width="207.87399"
   height="120.94493"
   viewBox="0 0 207.87399 120.94493"
   sodipodi:docname="erf.svg"
   inkscape:version="0.92.4 (5da689c313, 2019-01-14)"><metadata
     id="metadata16"><rdf:RDF><cc:Work
         rdf:about=""><dc:format>image/svg+xml</dc:format><dc:type
           rdf:resource="http://purl.org/dc/dcmitype/StillImage" /><dc:title></dc:title></cc:Work></rdf:RDF></metadata><defs
     id="defs14" /><sodipodi:namedview
     pagecolor="#ffffff"
     bordercolor="#666666"
     borderopacity="1"
     objecttolerance="10"
     gridtolerance="10"
     guidetolerance="10"
     inkscape:pageopacity="0"
     inkscape:pageshadow="2"
     inkscape:window-width="1920"
     inkscape:window-height="1137"
     id="namedview12"
     showgrid="false"
     inkscape:zoom="8.020179"
     inkscape:cx="103.937"
     inkscape:cy="60.472466"
     inkscape:window-x="1912"
     inkscape:window-y="-8"
     inkscape:window-maximized="1"
     inkscape:current-layer="g18" /><g
     id="g18"
     inkscape:groupmode="layer"
     inkscape:label="el_regionaalarengu_fond_horisontaalne"
     transform="matrix(1.3333333,0,0,-1.3333333,0,120.94493)"><path
       d="M 0,90.4972 H 155.9055 V 0.2112 H 0 Z"
       style="fill:#ffffff;fill-opacity:1;fill-rule:evenodd;stroke:none"
       id="path20"
       inkscape:connector-curvature="0" /><text
       transform="matrix(1,0,0,-1,23.6784,22.1638)"
       style="font-variant:normal;font-weight:normal;font-size:7.90700006px;font-family:Arial;-inkscape-font-specification:ArialMT;writing-mode:lr-tb;fill:#231f20;fill-opacity:1;fill-rule:nonzero;stroke:none"
       id="text28"><tspan
         x="0 5.2739692 9.6702614 12.303292 16.699583 21.095877 25.492168 29.88846 32.086605 36.482899 38.238251 39.993607"
         y="0"
         sodipodi:role="line"
         id="tspan22">Euroopa Liit</tspan><tspan
         x="6.152 11.425969 15.822261 18.455292 22.851583 27.247875 31.644169"
         y="8.0702"
         sodipodi:role="line"
         id="tspan24">Euroopa</tspan><tspan
         x="-19.125999 -13.417146 -9.020854 -4.6245618 -2.8692081 1.527084 5.9233761 10.319668 14.71596 16.471313 20.867605 23.500637 27.896929 32.293221 36.689514 41.085804 43.283951 48.115128 52.511421 56.907711"
         y="16.140699"
         sodipodi:role="line"
         id="tspan26">Regionaalarengu Fond</tspan></text>
<path
       d="M 5.6619,84.9756 H 83.5917 V 32.845 H 5.6619 Z"
       style="fill:#254aa5;fill-opacity:1;fill-rule:evenodd;stroke:none"
       id="path30"
       inkscape:connector-curvature="0" /><path
       d="m 45.1998,77.3838 h 2.2451 l -1.8102,-1.3595 0.7007,-2.1526 -1.8025,1.3215 -1.8023,-1.3215 0.7098,2.1526 -1.8258,1.3595 h 2.2433 l 0.675,2.0988 z"
       style="fill:#fff200;fill-opacity:1;fill-rule:evenodd;stroke:none"
       id="path32"
       inkscape:connector-curvature="0" /><path
       d="m 45.2957,42.6464 h 2.2464 l -1.8057,-1.3564 0.6974,-2.156 -1.7992,1.3283 -1.8057,-1.3283 0.7138,2.156 -1.8278,1.3564 h 2.2385 l 0.6812,2.0985 z"
       style="fill:#fff200;fill-opacity:1;fill-rule:evenodd;stroke:none"
       id="path34"
       inkscape:connector-curvature="0" /><path
       d="m 53.8948,44.9487 h 2.2479 l -1.8116,-1.3564 0.7033,-2.1495 -1.8017,1.3246 -1.8091,-1.3246 0.7132,2.1495 -1.8261,1.3564 h 2.2433 l 0.6787,2.1047 z"
       style="fill:#fff200;fill-opacity:1;fill-rule:evenodd;stroke:none"
       id="path36"
       inkscape:connector-curvature="0" /><path
       d="m 53.8948,75.0946 h 2.2479 l -1.8116,-1.3598 0.7033,-2.1461 -1.8017,1.3215 -1.8091,-1.3215 0.7132,2.1461 -1.8261,1.3598 h 2.2433 l 0.6787,2.0985 z"
       style="fill:#fff200;fill-opacity:1;fill-rule:evenodd;stroke:none"
       id="path38"
       inkscape:connector-curvature="0" /><path
       d="m 60.2793,68.7163 h 2.2416 l -1.8053,-1.3563 0.7035,-2.1592 -1.802,1.3278 -1.8056,-1.3278 0.7086,2.1592 -1.8266,1.3563 h 2.2419 l 0.6817,2.0954 z"
       style="fill:#fff200;fill-opacity:1;fill-rule:evenodd;stroke:none"
       id="path40"
       inkscape:connector-curvature="0" /><path
       d="m 60.2793,51.2476 h 2.2416 l -1.8053,-1.3564 0.7035,-2.1532 -1.802,1.3218 -1.8056,-1.3218 0.7086,2.1532 -1.8266,1.3564 h 2.2419 l 0.6817,2.0982 z"
       style="fill:#fff200;fill-opacity:1;fill-rule:evenodd;stroke:none"
       id="path42"
       inkscape:connector-curvature="0" /><path
       d="m 62.6706,60.1123 h 2.2465 l -1.8085,-1.3563 0.699,-2.1558 -1.7992,1.3244 -1.8039,-1.3244 0.7118,2.1558 -1.8233,1.3563 h 2.2354 l 0.68,2.1019 z"
       style="fill:#fff200;fill-opacity:1;fill-rule:evenodd;stroke:none"
       id="path44"
       inkscape:connector-curvature="0" /><path
       d="m 36.4286,75.0722 h 2.2479 l -1.8116,-1.3595 0.7038,-2.1495 -1.8023,1.3277 -1.8037,-1.3277 0.7113,2.1495 -1.8227,1.3595 h 2.2371 l 0.678,2.1016 z"
       style="fill:#fff200;fill-opacity:1;fill-rule:evenodd;stroke:none"
       id="path46"
       inkscape:connector-curvature="0" /><path
       d="m 30.2224,68.6908 h 2.2485 l -1.8122,-1.3563 0.7038,-2.1527 -1.8022,1.3244 -1.8026,-1.3244 0.7104,2.1527 -1.8264,1.3563 h 2.2399 l 0.6787,2.0954 z"
       style="fill:#fff200;fill-opacity:1;fill-rule:evenodd;stroke:none"
       id="path48"
       inkscape:connector-curvature="0" /><path
       d="m 27.9204,60.0902 h 2.2416 l -1.8039,-1.3569 0.7007,-2.1521 -1.8011,1.3244 -1.8017,-1.3244 0.7064,2.1521 -1.8244,1.3569 h 2.2385 l 0.6812,2.0982 z"
       style="fill:#fff200;fill-opacity:1;fill-rule:evenodd;stroke:none"
       id="path50"
       inkscape:connector-curvature="0" /><path
       d="m 30.2224,51.2249 h 2.2485 l -1.8122,-1.3564 0.7038,-2.1529 -1.8022,1.3252 -1.8026,-1.3252 0.7104,2.1529 -1.8264,1.3564 h 2.2399 l 0.6787,2.0985 z"
       style="fill:#fff200;fill-opacity:1;fill-rule:evenodd;stroke:none"
       id="path52"
       inkscape:connector-curvature="0" /><path
       d="m 36.5179,44.9294 h 2.2464 l -1.8102,-1.3598 0.7008,-2.1492 -1.7992,1.3249 -1.8057,-1.3249 0.7132,2.1492 -1.826,1.3598 h 2.2399 l 0.6786,2.1019 z"
       style="fill:#fff200;fill-opacity:1;fill-rule:evenodd;stroke:none"
       id="path54"
       inkscape:connector-curvature="0" /><path
       d="m 126.9961,74.5886 c 6.0803,-0.5635 11.6855,-2.5526 16.5294,-5.5987 0.006,-0.0062 0.1338,-0.0947 0.3345,-0.2225 -6.1229,8.7361 -15.9957,14.8532 -27.5684,15.9253 -10.1287,0.9323 -19.6721,-2.166 -27.0079,-7.9506 5.5686,-1.1055 10.4641,-3.9019 14.1894,-7.7891 6.766,4.2679 14.942,6.4276 23.523,5.6356"
       style="fill:#287ac8;fill-opacity:1;fill-rule:evenodd;stroke:none"
       id="path56"
       inkscape:connector-curvature="0" /><path
       d="m 150.4006,50.639 c -0.003,0 -0.003,0.0031 -0.003,0.0031 0,-0.0182 0.003,-0.0338 0.003,-0.0519 0,0.0181 0,0.0337 0,0.0488"
       style="fill:#ffffff;fill-opacity:1;fill-rule:evenodd;stroke:none"
       id="path58"
       inkscape:connector-curvature="0" /><path
       d="m 150.4344,50.2123 c -0.009,0.1191 -0.0519,0.6398 -0.061,0.7464 -0.57,6.5251 -2.8788,12.6298 -6.5134,17.8087 -0.2007,0.1278 -0.3289,0.2163 -0.3345,0.2225 -4.8439,3.0461 -10.4491,5.0352 -16.5294,5.5987 -8.581,0.792 -16.757,-1.3677 -23.523,-5.6356 4.1859,-4.3684 6.9001,-10.1075 7.4301,-16.3947 0.1307,-1.5661 0.1338,-3.1683 -0.0155,-4.7948 -0.2373,-2.5438 -0.8161,-4.9748 -1.6969,-7.2408 -1.5899,-4.1369 -4.1672,-7.7499 -7.4111,-10.5922 l 0.0575,0.0521 c 12.4747,7.2255 27.9402,10.3357 43.1838,8.0235 -1.3833,-1.3071 -3.4608,-2.4188 -5.1514,-3.2961 2.0594,0.5363 9.3002,3.4273 9.4037,3.6467 0,0 0.006,0.0031 0.006,0.0057 h -0.006 c 0,0 1.6906,5.4711 1.1611,11.8499"
       style="fill:#231f20;fill-opacity:1;fill-rule:evenodd;stroke:none"
       id="path60"
       inkscape:connector-curvature="0" /><path
       d="m 149.7671,51.0712 c -4.8251,3.2661 -8.8039,5.2402 -17.2052,6.02 -6.3881,0.5907 -12.5535,-0.4541 -18.0706,-2.7845 0.1401,-1.5415 0.1525,-3.1195 0.003,-4.7185 -0.7189,-7.7531 -4.8433,-14.3601 -10.7592,-18.5029 15.2983,8.7976 29.2073,9.9731 40.9873,8.176 0.7826,-0.1216 3.2045,-0.5395 4.3225,-0.838 1.3706,6.897 0.8923,11.4602 0.722,12.6479"
       style="fill:#ffffff;fill-opacity:1;fill-rule:evenodd;stroke:none"
       id="path62"
       inkscape:connector-curvature="0" /><text
       transform="matrix(1,0,0,-1,118.2271,22.1406)"
       style="font-variant:normal;font-weight:normal;font-size:7.90700006px;font-family:Arial;-inkscape-font-specification:ArialMT;writing-mode:lr-tb;fill:#231f20;fill-opacity:1;fill-rule:nonzero;stroke:none"
       id="text68"><tspan
         x="0 5.2739692 9.6702614 13.623761 15.821907"
         y="0"
         sodipodi:role="line"
         id="tspan64">Eesti</tspan><tspan
         x="-16.2638 -14.065654 -9.6693621 -7.9140081 -3.5177159 0.43578401 2.191138 6.1446381 10.54093 12.739076 17.135368 21.53166 25.927952 29.881453"
         y="8.0375996"
         sodipodi:role="line"
         id="tspan66">tuleviku heaks</tspan></text>
</g></svg>