<svg width="16" height="16" viewBox="0 0 16 16" fill="none" xmlns="http://www.w3.org/2000/svg">
<path d="M14.4688 0.96875H1.53125C1.22012 0.96875 0.96875 1.22012 0.96875 1.53125V14.4688C0.96875 14.7799 1.22012 15.0312 1.53125 15.0312H14.4688C14.7799 15.0312 15.0312 14.7799 15.0312 14.4688V1.53125C15.0312 1.22012 14.7799 0.96875 14.4688 0.96875ZM12.8445 5.07324H11.7213C10.8406 5.07324 10.6701 5.4916 10.6701 6.10684V7.46211H12.7725L12.4982 9.58379H10.6701V15.0312H8.47813V9.58555H6.64473V7.46211H8.47813V5.89766C8.47813 4.08184 9.58731 3.09219 11.208 3.09219C11.985 3.09219 12.6512 3.1502 12.8463 3.17656V5.07324H12.8445Z" fill="#173148"/>
</svg>
