<svg width="215" height="123" viewBox="0 0 215 123" fill="none" xmlns="http://www.w3.org/2000/svg">
<rect width="215" height="120" transform="translate(0 2.5)" fill="white"/>
<path fill-rule="evenodd" clip-rule="evenodd" d="M164.209 32.7849C170.852 33.3993 176.976 35.5748 182.268 38.9034C182.273 38.9118 182.416 39.0086 182.634 39.1474C175.946 29.5994 165.16 22.9128 152.515 21.743C141.447 20.7246 131.023 24.1121 123.01 30.4326C129.093 31.6403 134.443 34.6953 138.511 38.9455C145.902 34.2829 154.837 31.9222 164.209 32.7849Z" fill="#0072CE"/>
<path fill-rule="evenodd" clip-rule="evenodd" d="M189.815 59.4218C189.807 59.2914 189.76 58.7233 189.748 58.6055C189.125 51.4728 186.601 44.8031 182.63 39.1432C182.411 39.0044 182.273 38.9076 182.264 38.8992C176.972 35.5706 170.847 33.395 164.205 32.7807C154.829 31.9138 145.898 34.2745 138.507 38.9413C143.08 43.7174 146.045 49.9874 146.626 56.8591C146.769 58.5718 146.773 60.3223 146.609 62.0981C146.348 64.8797 145.717 67.5349 144.754 70.0135C143.016 74.5329 140.202 78.4843 136.656 81.5898L136.719 81.5309C150.349 73.6324 167.247 70.2365 183.9 72.7613C182.39 74.1878 180.119 75.404 178.272 76.3634C180.523 75.7785 188.431 72.6182 188.545 72.3784C188.545 72.3784 188.553 72.3784 188.553 72.3742H188.545C188.545 72.3742 190.391 66.3946 189.815 59.4218Z" fill="black"/>
<path fill-rule="evenodd" clip-rule="evenodd" d="M189.087 58.4834C183.816 54.915 179.467 52.7562 170.288 51.9062C163.309 51.2624 156.574 52.4028 150.546 54.9486C150.698 56.6318 150.715 58.3571 150.546 60.1035C149.76 68.5785 145.254 75.7995 138.793 80.3274C155.506 70.712 170.704 69.4285 183.572 71.3937C184.426 71.5283 187.072 71.9828 188.296 72.311C189.794 64.7744 189.272 59.7879 189.087 58.4876V58.4834Z" fill="white"/>
<path d="M155.312 90.1027V83.9169H159.784V84.6491H156.128V86.5427H159.553V87.2665H156.128V89.3747H159.927V90.1027H155.312Z" fill="black"/>
<path d="M164.024 88.6593L164.811 88.7561C164.689 89.2147 164.458 89.5724 164.125 89.8249C163.789 90.0774 163.364 90.2036 162.842 90.2036C162.186 90.2036 161.669 90.0016 161.286 89.5977C160.903 89.1937 160.709 88.6298 160.709 87.8976C160.709 87.1654 160.903 86.5595 161.29 86.1429C161.677 85.7263 162.182 85.5159 162.8 85.5159C163.419 85.5159 163.89 85.7221 164.268 86.126C164.647 86.5342 164.84 87.1065 164.84 87.8471C164.84 87.8934 164.84 87.9607 164.836 88.0491H161.496C161.521 88.5415 161.664 88.9202 161.913 89.1811C162.165 89.442 162.472 89.5724 162.846 89.5724C163.124 89.5724 163.364 89.5009 163.557 89.3536C163.755 89.2063 163.911 88.9749 164.024 88.6551V88.6593ZM161.534 87.4305H164.037C164.003 87.056 163.906 86.7699 163.751 86.5847C163.507 86.2901 163.196 86.1471 162.809 86.1471C162.459 86.1471 162.165 86.2649 161.929 86.4963C161.694 86.7278 161.559 87.0434 161.534 87.4305Z" fill="black"/>
<path d="M165.463 88.7645L166.212 88.6467C166.254 88.9497 166.371 89.1769 166.565 89.341C166.758 89.5009 167.028 89.5809 167.373 89.5809C167.718 89.5809 167.978 89.5094 168.147 89.3663C168.315 89.2232 168.399 89.0549 168.399 88.8655C168.399 88.693 168.323 88.5583 168.176 88.4574C168.071 88.39 167.814 88.3059 167.402 88.2007C166.847 88.0618 166.46 87.9398 166.245 87.8346C166.031 87.7336 165.867 87.5905 165.757 87.4095C165.648 87.2286 165.589 87.0266 165.589 86.8078C165.589 86.6058 165.635 86.4249 165.728 86.2523C165.82 86.0798 165.942 85.9409 166.102 85.8273C166.22 85.739 166.38 85.6674 166.586 85.6043C166.792 85.5454 167.011 85.5117 167.242 85.5117C167.591 85.5117 167.903 85.5622 168.168 85.6632C168.433 85.7642 168.63 85.8989 168.757 86.0756C168.883 86.2481 168.971 86.4796 169.017 86.7699L168.277 86.8709C168.243 86.6395 168.142 86.4585 167.983 86.3323C167.823 86.2018 167.591 86.1387 167.297 86.1387C166.948 86.1387 166.7 86.1976 166.552 86.3112C166.401 86.4249 166.329 86.5637 166.329 86.7152C166.329 86.8162 166.363 86.9046 166.422 86.9803C166.485 87.0645 166.582 87.1276 166.712 87.1823C166.788 87.2076 167.011 87.2749 167.381 87.3759C167.919 87.519 168.294 87.6368 168.504 87.7294C168.719 87.8219 168.883 87.9524 169.005 88.1291C169.127 88.3016 169.186 88.5205 169.186 88.7772C169.186 89.0339 169.11 89.2695 168.963 89.4925C168.816 89.7156 168.601 89.8881 168.323 90.0101C168.046 90.1321 167.73 90.1911 167.377 90.1911C166.792 90.1911 166.35 90.069 166.043 89.8292C165.736 89.5893 165.543 89.2274 165.459 88.7519L165.463 88.7645Z" fill="black"/>
<path d="M171.743 89.4253L171.853 90.0943C171.638 90.1406 171.449 90.1617 171.281 90.1617C171.003 90.1617 170.793 90.1196 170.637 90.0312C170.486 89.9428 170.38 89.8292 170.317 89.6862C170.254 89.5473 170.225 89.2443 170.225 88.7898V86.2103H169.669V85.6212H170.225V84.5103L170.982 84.0558V85.6212H171.743V86.2103H170.982V88.8319C170.982 89.0507 170.995 89.1896 171.02 89.2485C171.045 89.3116 171.091 89.3579 171.15 89.3958C171.209 89.4337 171.297 89.4505 171.411 89.4505C171.495 89.4505 171.609 89.4421 171.743 89.421V89.4253Z" fill="black"/>
<path d="M172.488 84.7921V83.9169H173.249V84.7921H172.488ZM172.488 90.1027V85.6211H173.249V90.1027H172.488Z" fill="black"/>
<path d="M139.087 98.2074L139.197 98.8764C138.982 98.9227 138.793 98.9438 138.625 98.9438C138.347 98.9438 138.137 98.9017 137.981 98.8133C137.83 98.725 137.724 98.6113 137.661 98.4683C137.598 98.3252 137.569 98.0264 137.569 97.5719V94.9924H137.014V94.4033H137.569V93.2924L138.326 92.8379V94.4033H139.087V94.9924H138.326V97.614C138.326 97.8328 138.339 97.9717 138.364 98.0306C138.389 98.0937 138.435 98.14 138.494 98.1779C138.553 98.2158 138.642 98.2326 138.755 98.2326C138.839 98.2326 138.953 98.2242 139.087 98.2031V98.2074Z" fill="black"/>
<path d="M142.764 98.8891V98.2326C142.415 98.7418 141.939 98.9901 141.342 98.9901C141.077 98.9901 140.833 98.9396 140.602 98.8386C140.375 98.7376 140.202 98.6114 140.093 98.4557C139.979 98.3 139.903 98.1148 139.857 97.8918C139.828 97.7403 139.811 97.5047 139.811 97.1806V94.4033H140.568V96.8861C140.568 97.2816 140.585 97.5509 140.614 97.6898C140.665 97.8918 140.766 98.0475 140.917 98.1611C141.073 98.2747 141.266 98.3294 141.494 98.3294C141.721 98.3294 141.935 98.2705 142.133 98.1569C142.335 98.0391 142.474 97.8792 142.558 97.6814C142.642 97.4794 142.684 97.189 142.684 96.8061V94.4033H143.441V98.8849H142.764V98.8891Z" fill="black"/>
<path d="M145.372 92.7032H144.615V98.8891H145.372V92.7032Z" fill="black"/>
<path d="M149.617 97.4458L150.403 97.5426C150.281 98.0012 150.05 98.3589 149.718 98.6114C149.381 98.8639 148.956 98.9901 148.435 98.9901C147.778 98.9901 147.261 98.7881 146.878 98.3842C146.495 97.9802 146.302 97.4163 146.302 96.6841C146.302 95.9519 146.495 95.346 146.882 94.9294C147.269 94.5128 147.774 94.3024 148.392 94.3024C149.011 94.3024 149.482 94.5086 149.861 94.9125C150.239 95.3207 150.433 95.893 150.433 96.6336C150.433 96.6799 150.433 96.7472 150.428 96.8356H147.088C147.114 97.3279 147.257 97.7067 147.505 97.9676C147.757 98.2285 148.064 98.3589 148.439 98.3589C148.716 98.3589 148.956 98.2874 149.15 98.1401C149.347 97.9928 149.503 97.7614 149.617 97.4416V97.4458ZM147.126 96.217H149.629C149.596 95.8425 149.499 95.5564 149.343 95.3712C149.099 95.0766 148.788 94.9336 148.401 94.9336C148.052 94.9336 147.757 95.0514 147.522 95.2828C147.286 95.5143 147.151 95.8299 147.126 96.217Z" fill="black"/>
<path d="M152.603 98.889L150.9 94.4075H151.703L152.666 97.0922C152.771 97.3826 152.864 97.6813 152.952 97.9969C153.02 97.7613 153.112 97.4751 153.234 97.1427L154.231 94.4075H155.014L153.318 98.889H152.612H152.603Z" fill="black"/>
<path d="M155.678 93.5744V92.6991H156.44V93.5744H155.678ZM155.678 98.8891V94.4076H156.44V98.8891H155.678Z" fill="black"/>
<path d="M157.601 98.8891V92.7032H158.358V96.2296L160.154 94.4075H161.138L159.426 96.0697L161.311 98.8891H160.377L158.896 96.5957L158.358 97.1133V98.8891H157.601Z" fill="black"/>
<path d="M164.853 98.8891V98.2326C164.504 98.7418 164.028 98.9901 163.431 98.9901C163.166 98.9901 162.922 98.9396 162.691 98.8386C162.464 98.7376 162.291 98.6114 162.182 98.4557C162.068 98.3 161.992 98.1148 161.946 97.8918C161.917 97.7403 161.9 97.5047 161.9 97.1806V94.4033H162.657V96.8861C162.657 97.2816 162.674 97.5509 162.703 97.6898C162.754 97.8918 162.855 98.0475 163.006 98.1611C163.162 98.2747 163.355 98.3294 163.583 98.3294C163.81 98.3294 164.024 98.2705 164.222 98.1569C164.424 98.0391 164.563 97.8792 164.647 97.6814C164.731 97.4794 164.773 97.189 164.773 96.8061V94.4033H165.53V98.8849H164.853V98.8891Z" fill="black"/>
<path d="M169.118 98.8891V92.7032H169.876V94.9209C170.229 94.5085 170.679 94.3023 171.218 94.3023C171.55 94.3023 171.836 94.3696 172.08 94.5001C172.324 94.6305 172.501 94.8115 172.606 95.0429C172.711 95.2744 172.766 95.611 172.766 96.0486V98.8891H172.004V96.0486C172.004 95.6699 171.92 95.3922 171.756 95.2197C171.592 95.0471 171.361 94.9588 171.058 94.9588C170.835 94.9588 170.62 95.0177 170.423 95.1355C170.225 95.2533 170.082 95.409 169.998 95.611C169.914 95.8088 169.871 96.0865 169.871 96.44V98.8933H169.114L169.118 98.8891Z" fill="black"/>
<path d="M176.989 97.4458L177.776 97.5426C177.654 98.0012 177.422 98.3589 177.09 98.6114C176.753 98.8639 176.329 98.9901 175.807 98.9901C175.151 98.9901 174.633 98.7881 174.251 98.3842C173.868 97.9802 173.674 97.4163 173.674 96.6841C173.674 95.9519 173.868 95.346 174.255 94.9294C174.642 94.5128 175.147 94.3024 175.765 94.3024C176.383 94.3024 176.854 94.5086 177.233 94.9125C177.612 95.3207 177.805 95.893 177.805 96.6336C177.805 96.6799 177.805 96.7472 177.801 96.8356H174.461C174.486 97.3279 174.629 97.7067 174.877 97.9676C175.13 98.2285 175.437 98.3589 175.815 98.3589C176.093 98.3589 176.333 98.2874 176.526 98.1401C176.724 97.9928 176.88 97.7614 176.993 97.4416L176.989 97.4458ZM174.499 96.217H177.002C176.968 95.8425 176.871 95.5564 176.716 95.3712C176.472 95.0766 176.16 94.9336 175.773 94.9336C175.424 94.9336 175.13 95.0514 174.894 95.2828C174.659 95.5143 174.524 95.8299 174.499 96.217Z" fill="black"/>
<path d="M181.654 98.3337C181.372 98.5735 181.103 98.7419 180.842 98.8386C180.581 98.9354 180.304 98.9859 180.005 98.9859C179.513 98.9859 179.134 98.8681 178.869 98.624C178.604 98.3842 178.474 98.077 178.474 97.7025C178.474 97.4836 178.524 97.2817 178.625 97.1007C178.726 96.9198 178.857 96.7725 179.017 96.6631C179.181 96.5537 179.361 96.4695 179.563 96.4148C179.711 96.3769 179.938 96.3391 180.236 96.3012C180.851 96.2297 181.301 96.1413 181.591 96.0403C181.591 95.9351 181.595 95.872 181.595 95.8425C181.595 95.5311 181.524 95.3123 181.381 95.1903C181.187 95.0177 180.897 94.9336 180.518 94.9336C180.161 94.9336 179.9 94.9967 179.727 95.1187C179.559 95.245 179.433 95.468 179.349 95.7836L178.608 95.6826C178.676 95.367 178.785 95.1061 178.941 94.9125C179.096 94.7148 179.319 94.5633 179.61 94.4623C179.904 94.3571 180.241 94.3024 180.628 94.3024C181.015 94.3024 181.322 94.3487 181.557 94.437C181.797 94.5296 181.974 94.639 182.087 94.7779C182.201 94.9125 182.277 95.0851 182.323 95.2955C182.348 95.4259 182.361 95.6574 182.361 95.994V97.0081C182.361 97.7151 182.378 98.1611 182.411 98.3463C182.445 98.5357 182.508 98.7124 182.605 98.8849H181.81C181.734 98.7292 181.679 98.5441 181.658 98.3337H181.654ZM181.587 96.6378C181.309 96.7514 180.897 96.8482 180.346 96.924C180.035 96.9703 179.812 97.0208 179.685 97.0755C179.555 97.1302 179.454 97.2143 179.387 97.3237C179.315 97.4332 179.282 97.551 179.282 97.6856C179.282 97.8876 179.357 98.0559 179.513 98.1906C179.664 98.3253 179.892 98.3926 180.186 98.3926C180.48 98.3926 180.737 98.3295 180.968 98.199C181.196 98.0728 181.364 97.896 181.469 97.673C181.553 97.5005 181.591 97.248 181.591 96.9156V96.6378H181.587Z" fill="black"/>
<path d="M183.539 98.8891V92.7032H184.296V96.2296L186.092 94.4075H187.076L185.364 96.0697L187.249 98.8891H186.315L184.834 96.5957L184.296 97.1133V98.8891H183.539Z" fill="black"/>
<path d="M187.548 97.5509L188.296 97.4331C188.338 97.7319 188.456 97.9633 188.65 98.1274C188.843 98.2873 189.112 98.3673 189.457 98.3673C189.802 98.3673 190.063 98.2957 190.231 98.1527C190.4 98.0096 190.484 97.8413 190.484 97.6519C190.484 97.4794 190.408 97.3447 190.261 97.2437C190.156 97.1764 189.899 97.0922 189.487 96.987C188.932 96.844 188.545 96.7261 188.33 96.6209C188.115 96.5199 187.951 96.3769 187.842 96.1959C187.733 96.015 187.674 95.813 187.674 95.5942C187.674 95.3922 187.72 95.2112 187.813 95.0387C187.905 94.8662 188.027 94.7273 188.187 94.6137C188.305 94.5253 188.465 94.4538 188.671 94.3907C188.877 94.3318 189.096 94.2981 189.327 94.2981C189.676 94.2981 189.987 94.3486 190.252 94.4496C190.517 94.5506 190.715 94.6852 190.841 94.862C190.968 95.0345 191.056 95.2659 191.102 95.5563L190.362 95.6573C190.328 95.4259 190.227 95.2449 190.067 95.1187C189.907 94.9882 189.676 94.9251 189.382 94.9251C189.032 94.9251 188.784 94.984 188.637 95.0976C188.486 95.2112 188.414 95.3501 188.414 95.5016C188.414 95.6026 188.448 95.691 188.507 95.7667C188.57 95.8509 188.667 95.914 188.797 95.9687C188.873 95.9939 189.096 96.0613 189.466 96.1623C190.004 96.3053 190.379 96.4232 190.589 96.5157C190.803 96.6083 190.968 96.7388 191.09 96.9155C191.212 97.088 191.27 97.3069 191.27 97.5635C191.27 97.8202 191.195 98.0559 191.047 98.2789C190.9 98.5019 190.686 98.6745 190.408 98.7965C190.13 98.9185 189.815 98.9774 189.462 98.9774C188.877 98.9774 188.435 98.8554 188.128 98.6156C187.821 98.3715 187.627 98.0138 187.543 97.5383L187.548 97.5509Z" fill="black"/>
<path d="M99.701 23.7797H22.6569V76.132H99.701V23.7797Z" fill="white"/>
<path d="M98.2202 25.2188H24.1376V74.6255H98.2202V25.2188Z" fill="#003399"/>
<path d="M59.5993 35.983L61.1642 34.8384L62.7248 35.983L62.1317 34.1356L63.7176 32.9953H61.7615L61.1642 31.1269L60.5626 32.9953H58.6066L60.1967 34.1356L59.5993 35.983Z" fill="#FFCC00"/>
<path d="M51.5101 38.1543L53.075 37.0139L54.6356 38.1543L54.0425 36.3112L55.6284 35.1666H53.6723L53.075 33.2982L52.4734 35.1708L50.5173 35.1666L52.1032 36.3112L51.5101 38.1543Z" fill="#FFCC00"/>
<path d="M47.1563 39.2316L46.5547 41.1041H44.5986L46.1845 42.2445L45.5914 44.0919L47.1563 42.9473L48.7169 44.0919L48.1238 42.2445L49.7097 41.1041H47.7536L47.1563 39.2316Z" fill="#FFCC00"/>
<path d="M44.9814 51.0309L46.5463 52.1713L45.9531 50.3282L47.539 49.1836H45.5829L44.9814 47.3152L44.3841 49.1878L42.428 49.1836L44.0139 50.3282L43.4207 52.1713L44.9814 51.0309Z" fill="#FFCC00"/>
<path d="M47.7536 57.2925L47.1563 55.4199L46.5547 57.2925H44.5986L46.1845 58.4329L45.5914 60.2802L47.1563 59.1356L48.7169 60.2802L48.1238 58.4329L49.7097 57.2925H47.7536Z" fill="#FFCC00"/>
<path d="M53.6849 63.2259L53.0833 61.3575L52.486 63.2259H50.5299L52.1158 64.3662L51.5227 66.2094L53.0875 65.069L54.6482 66.2094L54.055 64.3662L55.6409 63.2259H53.6849Z" fill="#FFCC00"/>
<path d="M61.7616 65.372L61.1643 63.5036L60.5669 65.3762L58.6108 65.372L60.1967 66.5166L59.6036 68.3597L61.1643 67.2193L62.7291 68.3597L62.1318 66.5166L63.7219 65.372H61.7616Z" fill="#FFCC00"/>
<path d="M69.8425 63.2259L69.2452 61.3575L68.6436 63.2259H66.6918L68.2735 64.3662L67.6803 66.2094L69.2452 65.069L70.8101 66.2094L70.2127 64.3662L71.7986 63.2259H69.8425Z" fill="#FFCC00"/>
<path d="M75.7739 57.2925L75.1765 55.4199L74.575 57.2925H72.6189L74.209 58.4329L73.6117 60.2802L75.1765 59.1356L76.7372 60.2802L76.144 58.4329L77.7299 57.2925H75.7739Z" fill="#FFCC00"/>
<path d="M79.8795 49.1626H77.9234L77.3218 47.2942L76.7245 49.1668L74.7684 49.1626L76.3543 50.3029L75.7612 52.1503L77.3218 51.0057L78.8867 52.1503L78.2936 50.3029L79.8795 49.1626Z" fill="#FFCC00"/>
<path d="M73.6117 44.0667L75.1765 42.9221L76.7372 44.0667L76.144 42.2193L77.7299 41.0789H75.7739L75.1765 39.2106L74.575 41.0832L72.6189 41.0789L74.209 42.2193L73.6117 44.0667Z" fill="#FFCC00"/>
<path d="M69.2662 33.3024L68.6688 35.1708L66.7128 35.1666L68.2987 36.3112L67.7055 38.1585L69.2704 37.0139L70.831 38.1585L70.2379 36.3112L71.8238 35.1666H69.8635L69.2662 33.3024Z" fill="#FFCC00"/>
<path d="M27.423 88.7267V82.402H28.7018V85.2087L31.2804 82.402H32.9967L30.6158 84.8637L33.1271 88.7267H31.4739L29.7366 85.76L28.7018 86.8162V88.7267H27.423Z" fill="#003399"/>
<path d="M34.6794 85.5454L33.5815 85.3476C33.7035 84.9057 33.918 84.5775 34.2209 84.3629C34.5237 84.1483 34.9696 84.0431 35.567 84.0431C36.1096 84.0431 36.5093 84.1062 36.7743 84.2367C37.0393 84.3629 37.2244 84.527 37.3338 84.7248C37.4431 84.9226 37.4936 85.2845 37.4936 85.8105L37.481 87.2244C37.481 87.6283 37.502 87.9229 37.5399 88.1165C37.5777 88.3058 37.6493 88.512 37.7586 88.7309H36.5597C36.5261 88.6509 36.4882 88.5331 36.442 88.3732C36.4209 88.3016 36.4083 88.2553 36.3999 88.2301C36.1938 88.4321 35.9708 88.5836 35.7352 88.6846C35.4997 88.7856 35.2473 88.8361 34.9823 88.8361C34.5111 88.8361 34.1409 88.7098 33.8675 88.4531C33.5941 88.1964 33.4595 87.8724 33.4595 87.4811C33.4595 87.2202 33.5226 86.9929 33.6446 86.7867C33.7666 86.5848 33.9432 86.4291 34.1662 86.3196C34.3891 86.2102 34.7088 86.1177 35.1295 86.0377C35.6974 85.9325 36.0886 85.8315 36.3073 85.7389V85.6169C36.3073 85.3855 36.2485 85.2171 36.1349 85.1203C36.0213 85.0194 35.8026 84.9731 35.4829 84.9731C35.2683 84.9731 35.1001 85.0151 34.9781 85.0993C34.8561 85.1835 34.7593 85.335 34.6836 85.5454H34.6794ZM36.3031 86.5258C36.1475 86.5763 35.9035 86.6395 35.567 86.711C35.2305 86.7825 35.0117 86.8541 34.9065 86.9214C34.7467 87.035 34.671 87.1739 34.671 87.3464C34.671 87.5189 34.7341 87.662 34.8603 87.7882C34.9865 87.9145 35.1463 87.9734 35.344 87.9734C35.5628 87.9734 35.7689 87.9019 35.9708 87.7588C36.1181 87.6494 36.2148 87.5147 36.2611 87.359C36.2947 87.2538 36.3073 87.0603 36.3073 86.7657V86.5258H36.3031Z" fill="#003399"/>
<path d="M39.5927 85.5454L38.4905 85.3476C38.6125 84.9057 38.8271 84.5775 39.1299 84.3629C39.4328 84.1483 39.8787 84.0431 40.476 84.0431C41.0187 84.0431 41.4183 84.1062 41.6833 84.2367C41.9484 84.3629 42.1334 84.527 42.2428 84.7248C42.3522 84.9226 42.4027 85.2845 42.4027 85.8105L42.3901 87.2244C42.3901 87.6283 42.4111 87.9229 42.4489 88.1165C42.4868 88.3058 42.5583 88.512 42.6677 88.7309H41.4688C41.4352 88.6509 41.3973 88.5331 41.351 88.3732C41.33 88.3016 41.3174 88.2553 41.309 88.2301C41.1028 88.4321 40.8799 88.5836 40.6443 88.6846C40.4087 88.7856 40.1563 88.8361 39.8913 88.8361C39.4202 88.8361 39.05 88.7098 38.7766 88.4531C38.5031 88.1964 38.3685 87.8724 38.3685 87.4811C38.3685 87.2202 38.4316 86.9929 38.5536 86.7867C38.6756 86.5848 38.8523 86.4291 39.0752 86.3196C39.2982 86.2102 39.6179 86.1177 40.0386 86.0377C40.6064 85.9325 40.9977 85.8315 41.2164 85.7389V85.6169C41.2164 85.3855 41.1575 85.2171 41.0439 85.1203C40.9304 85.0194 40.7116 84.9731 40.3919 84.9731C40.1774 84.9731 40.0091 85.0151 39.8871 85.0993C39.7651 85.1835 39.6684 85.335 39.5927 85.5454ZM41.2164 86.5258C41.0608 86.5763 40.8168 86.6395 40.4803 86.711C40.1437 86.7825 39.925 86.8541 39.8198 86.9214C39.66 87.035 39.5842 87.1739 39.5842 87.3464C39.5842 87.5189 39.6473 87.662 39.7735 87.7882C39.8997 87.9145 40.0596 87.9734 40.2573 87.9734C40.476 87.9734 40.6864 87.9019 40.8841 87.7588C41.0313 87.6494 41.1281 87.5147 41.1743 87.359C41.208 87.2538 41.2206 87.0603 41.2206 86.7657V86.5258H41.2164Z" fill="#003399"/>
<path d="M43.1768 87.4222L44.3925 87.237C44.4429 87.4727 44.5481 87.6536 44.708 87.7756C44.8678 87.8977 45.0866 87.9608 45.3726 87.9608C45.6881 87.9608 45.9237 87.9019 46.0793 87.7883C46.1845 87.7083 46.2392 87.5989 46.2392 87.4642C46.2392 87.3717 46.2097 87.2959 46.1508 87.237C46.0919 87.1781 45.9573 87.1276 45.747 87.0771C44.7711 86.8625 44.1485 86.6647 43.8877 86.488C43.5259 86.2397 43.345 85.8946 43.345 85.457C43.345 85.0614 43.5007 84.7248 43.8162 84.4555C44.1317 84.1862 44.6154 84.0515 45.2759 84.0515C45.9363 84.0515 46.3696 84.1525 46.6725 84.3587C46.9753 84.5649 47.1857 84.8637 47.3034 85.2634L46.1592 85.4738C46.1088 85.2971 46.0162 85.1582 45.8816 85.0656C45.7428 84.9731 45.5493 84.9226 45.2969 84.9226C44.9772 84.9226 44.75 84.9689 44.6112 85.0572C44.5187 85.1204 44.4724 85.2003 44.4724 85.3013C44.4724 85.3897 44.5145 85.4612 44.5944 85.5201C44.7038 85.6001 45.0824 85.7137 45.726 85.861C46.3696 86.0082 46.8239 86.1892 47.0763 86.3996C47.3287 86.6142 47.4549 86.9172 47.4549 87.3001C47.4549 87.7209 47.2782 88.0828 46.9291 88.3816C46.5799 88.6846 46.0583 88.8361 45.3726 88.8361C44.75 88.8361 44.2536 88.7098 43.8919 88.4573C43.5259 88.2049 43.2903 87.8598 43.1768 87.4264V87.4222Z" fill="#003399"/>
<path d="M49.676 88.7267H48.4645V84.1441H49.5918V84.7964C49.7854 84.4892 49.9578 84.2872 50.1135 84.1862C50.2691 84.0894 50.4416 84.0389 50.6393 84.0389C50.9169 84.0389 51.1819 84.1147 51.4386 84.2662L51.0642 85.3224C50.858 85.1919 50.6687 85.1246 50.4963 85.1246C50.3238 85.1246 50.1808 85.1709 50.063 85.2635C49.9452 85.3561 49.8527 85.5244 49.7854 85.7727C49.718 86.0167 49.6844 86.5301 49.6844 87.3086V88.7225L49.676 88.7267Z" fill="#003399"/>
<path d="M52.8561 85.5454L51.7582 85.3476C51.8802 84.9057 52.0948 84.5775 52.3976 84.3629C52.7005 84.1483 53.1464 84.0431 53.7437 84.0431C54.2864 84.0431 54.686 84.1062 54.951 84.2367C55.2161 84.3629 55.4012 84.527 55.5105 84.7248C55.6199 84.9226 55.6704 85.2845 55.6704 85.8105L55.6578 87.2244C55.6578 87.6283 55.6788 87.9229 55.7166 88.1165C55.7545 88.3058 55.826 88.512 55.9354 88.7309H54.7365C54.7028 88.6509 54.665 88.5331 54.6187 88.3732C54.5977 88.3016 54.5851 88.2553 54.5767 88.2301C54.3705 88.4321 54.1476 88.5836 53.912 88.6846C53.6764 88.7856 53.424 88.8361 53.159 88.8361C52.6879 88.8361 52.3177 88.7098 52.0443 88.4531C51.7708 88.1964 51.6362 87.8724 51.6362 87.4811C51.6362 87.2202 51.6993 86.9929 51.8213 86.7867C51.9433 86.5848 52.12 86.4291 52.3429 86.3196C52.5659 86.2102 52.8856 86.1177 53.3063 86.0377C53.8741 85.9325 54.2654 85.8315 54.4841 85.7389V85.6169C54.4841 85.3855 54.4252 85.2171 54.3116 85.1203C54.1981 85.0194 53.9793 84.9731 53.6596 84.9731C53.4451 84.9731 53.2768 85.0151 53.1548 85.0993C53.0328 85.1835 52.9361 85.335 52.8604 85.5454H52.8561ZM54.4799 86.5258C54.3243 86.5763 54.0803 86.6395 53.7437 86.711C53.4072 86.7825 53.1885 86.8541 53.0833 86.9214C52.9235 87.035 52.8477 87.1739 52.8477 87.3464C52.8477 87.5189 52.9108 87.662 53.037 87.7882C53.1632 87.9145 53.3231 87.9734 53.5208 87.9734C53.7395 87.9734 53.9457 87.9019 54.1476 87.7588C54.2948 87.6494 54.3916 87.5147 54.4378 87.359C54.4715 87.2538 54.4841 87.0603 54.4841 86.7657V86.5258H54.4799Z" fill="#003399"/>
<path d="M58.0724 82.402V84.729C58.4636 84.2703 58.9306 84.0431 59.4732 84.0431C59.7508 84.0431 60.0032 84.0936 60.2262 84.1988C60.4491 84.304 60.6174 84.4345 60.731 84.5944C60.8446 84.7543 60.9245 84.9352 60.9623 85.1288C61.0044 85.3224 61.0254 85.6295 61.0254 86.0377V88.7267H59.8139V86.307C59.8139 85.8273 59.7929 85.5201 59.7466 85.3939C59.7004 85.2634 59.6204 85.1625 59.5026 85.0867C59.3849 85.011 59.2418 84.9731 59.0652 84.9731C58.8632 84.9731 58.6824 85.0236 58.5267 85.1204C58.3711 85.2172 58.2533 85.3644 58.1776 85.5622C58.1061 85.76 58.0682 86.0504 58.0682 86.4375V88.7351H56.8567V82.4104H58.0682L58.0724 82.402Z" fill="#003399"/>
<path d="M63.1666 85.5454L62.0687 85.3476C62.1906 84.9057 62.4052 84.5775 62.7081 84.3629C63.0109 84.1483 63.4568 84.0431 64.0542 84.0431C64.5968 84.0431 64.9965 84.1062 65.2615 84.2367C65.5265 84.3629 65.7116 84.527 65.8209 84.7248C65.9303 84.9226 65.9808 85.2845 65.9808 85.8105L65.9682 87.2244C65.9682 87.6283 65.9892 87.9229 66.0271 88.1165C66.0649 88.3058 66.1364 88.512 66.2458 88.7309H65.0469C65.0133 88.6509 64.9754 88.5331 64.9291 88.3732C64.9081 88.3016 64.8955 88.2553 64.8871 88.2301C64.681 88.4321 64.458 88.5836 64.2224 88.6846C63.9869 88.7856 63.7345 88.8361 63.4695 88.8361C62.9983 88.8361 62.6281 88.7098 62.3547 88.4531C62.0813 88.1964 61.9467 87.8724 61.9467 87.4811C61.9467 87.2202 62.0098 86.9929 62.1317 86.7867C62.2537 86.5848 62.4304 86.4291 62.6534 86.3196C62.8763 86.2102 63.196 86.1177 63.6167 86.0377C64.1846 85.9325 64.5758 85.8315 64.7945 85.7389V85.6169C64.7945 85.3855 64.7356 85.2171 64.6221 85.1203C64.5085 85.0194 64.2897 84.9731 63.97 84.9731C63.7555 84.9731 63.5872 85.0151 63.4652 85.0993C63.3433 85.1835 63.2465 85.335 63.1708 85.5454H63.1666ZM64.7903 86.5258C64.6347 86.5763 64.3907 86.6395 64.0542 86.711C63.7176 86.7825 63.4989 86.8541 63.3937 86.9214C63.2339 87.035 63.1582 87.1739 63.1582 87.3464C63.1582 87.5189 63.2213 87.662 63.3475 87.7882C63.4737 87.9145 63.6335 87.9734 63.8312 87.9734C64.05 87.9734 64.2561 87.9019 64.458 87.7588C64.6052 87.6494 64.702 87.5147 64.7483 87.359C64.7819 87.2538 64.7945 87.0603 64.7945 86.7657V86.5258H64.7903Z" fill="#003399"/>
<path d="M66.7463 87.4222L67.962 87.237C68.0125 87.4727 68.1177 87.6536 68.2775 87.7756C68.4374 87.8977 68.6561 87.9608 68.9422 87.9608C69.2577 87.9608 69.4933 87.9019 69.6489 87.7883C69.7541 87.7083 69.8088 87.5989 69.8088 87.4642C69.8088 87.3717 69.7793 87.2959 69.7204 87.237C69.6615 87.1781 69.5269 87.1276 69.3166 87.0771C68.3406 86.8625 67.7181 86.6647 67.4573 86.488C67.0955 86.2397 66.9146 85.8946 66.9146 85.457C66.9146 85.0614 67.0702 84.7248 67.3857 84.4555C67.7012 84.1862 68.185 84.0515 68.8454 84.0515C69.5059 84.0515 69.9392 84.1525 70.242 84.3587C70.5449 84.5649 70.7552 84.8637 70.873 85.2634L69.7288 85.4738C69.6783 85.2971 69.5858 85.1582 69.4512 85.0656C69.3166 84.9731 69.1189 84.9226 68.8665 84.9226C68.5468 84.9226 68.3196 84.9689 68.1808 85.0572C68.0882 85.1204 68.042 85.2003 68.042 85.3013C68.042 85.3897 68.084 85.4612 68.164 85.5201C68.2733 85.6001 68.6519 85.7137 69.2955 85.861C69.9434 86.0082 70.3935 86.1892 70.6459 86.3996C70.8983 86.6142 71.0245 86.9172 71.0245 87.3001C71.0245 87.7209 70.8478 88.0828 70.4986 88.3816C70.1495 88.6846 69.6279 88.8361 68.9422 88.8361C68.3196 88.8361 67.8232 88.7098 67.4615 88.4573C67.0955 88.2049 66.8599 87.8598 66.7463 87.4264V87.4222Z" fill="#003399"/>
<path d="M74.1879 84.1441V85.112H73.3592V86.9593C73.3592 87.3338 73.3677 87.5527 73.3845 87.6116C73.4013 87.6747 73.435 87.7252 73.4939 87.7631C73.5485 87.8051 73.6201 87.822 73.7 87.822C73.8136 87.822 73.9734 87.7841 74.1879 87.7042L74.2931 88.6468C74.0113 88.7688 73.6916 88.8277 73.334 88.8277C73.1153 88.8277 72.9175 88.7898 72.7409 88.7183C72.5642 88.6468 72.438 88.55 72.3539 88.4321C72.2739 88.3143 72.215 88.1586 72.1814 87.9608C72.1562 87.822 72.1435 87.5358 72.1435 87.1066V85.1078H71.5883V84.1399H72.1435V83.231L73.3592 82.524V84.1399H74.1879V84.1441Z" fill="#003399"/>
<path d="M75.9337 85.5454L74.8357 85.3476C74.9577 84.9057 75.1723 84.5775 75.4751 84.3629C75.778 84.1483 76.2239 84.0431 76.8213 84.0431C77.3639 84.0431 77.7635 84.1062 78.0286 84.2367C78.2936 84.3629 78.4787 84.527 78.588 84.7248C78.6974 84.9226 78.7479 85.2845 78.7479 85.8105L78.7353 87.2244C78.7353 87.6283 78.7563 87.9229 78.7942 88.1165C78.832 88.3058 78.9035 88.512 79.0129 88.7309H77.814C77.7804 88.6509 77.7425 88.5331 77.6962 88.3732C77.6752 88.3016 77.6626 88.2553 77.6542 88.2301C77.448 88.4321 77.2251 88.5836 76.9895 88.6846C76.754 88.7856 76.5016 88.8361 76.2365 88.8361C75.7654 88.8361 75.3952 88.7098 75.1218 88.4531C74.8484 88.1964 74.7137 87.8724 74.7137 87.4811C74.7137 87.2202 74.7768 86.9929 74.8988 86.7867C75.0208 86.5848 75.1975 86.4291 75.4205 86.3196C75.6434 86.2102 75.9631 86.1177 76.3838 86.0377C76.9517 85.9325 77.3429 85.8315 77.5616 85.7389V85.6169C77.5616 85.3855 77.5027 85.2171 77.3892 85.1203C77.2756 85.0194 77.0568 84.9731 76.7371 84.9731C76.5226 84.9731 76.3543 85.0151 76.2323 85.0993C76.1103 85.1835 76.0136 85.335 75.9379 85.5454H75.9337ZM77.5574 86.5258C77.4018 86.5763 77.1578 86.6395 76.8213 86.711C76.4847 86.7825 76.266 86.8541 76.1608 86.9214C76.001 87.035 75.9253 87.1739 75.9253 87.3464C75.9253 87.5189 75.9883 87.662 76.1145 87.7882C76.2407 87.9145 76.4006 87.9734 76.5983 87.9734C76.8171 87.9734 77.0232 87.9019 77.2251 87.7588C77.3723 87.6494 77.4691 87.5147 77.5154 87.359C77.549 87.2538 77.5616 87.0603 77.5616 86.7657V86.5258H77.5574Z" fill="#003399"/>
<path d="M84.107 88.7266H82.8955V86.387C82.8955 85.8904 82.8703 85.5706 82.8198 85.4275C82.7693 85.2802 82.6852 85.1708 82.5674 85.0867C82.4496 85.0067 82.3108 84.9646 82.1468 84.9646C81.9364 84.9646 81.7471 85.0236 81.5831 85.1372C81.4148 85.2508 81.3012 85.4065 81.2381 85.5959C81.175 85.7852 81.1456 86.1387 81.1456 86.6479V88.7224H79.9341V84.1399H81.0615V84.8132C81.4611 84.2956 81.9659 84.0347 82.5716 84.0347C82.8408 84.0347 83.0848 84.081 83.3036 84.1777C83.5265 84.2745 83.6906 84.3966 83.8042 84.5481C83.9177 84.6995 83.9977 84.8679 84.0397 85.0572C84.086 85.2466 84.107 85.5201 84.107 85.8736V88.7224V88.7266Z" fill="#003399"/>
<path d="M88.3516 88.7267V88.0408C88.1833 88.2849 87.9646 88.4785 87.6953 88.6215C87.4219 88.7604 87.1358 88.8319 86.833 88.8319C86.5301 88.8319 86.2483 88.7646 86.0043 88.6299C85.7603 88.4953 85.5836 88.3059 85.4742 88.0619C85.3649 87.8178 85.3102 87.4811 85.3102 87.0477V84.1484H86.5217V86.2524C86.5217 86.8962 86.5427 87.2918 86.589 87.4349C86.6353 87.5821 86.7152 87.6958 86.833 87.7799C86.9508 87.8641 87.1022 87.9062 87.2831 87.9062C87.4892 87.9062 87.6743 87.8515 87.8384 87.7336C88.0024 87.62 88.116 87.4811 88.1749 87.3128C88.2338 87.1445 88.2674 86.7321 88.2674 86.0757V84.1442H89.4789V88.7267H88.3516Z" fill="#003399"/>
<path d="M94.9349 88.7266H93.8075V88.0533C93.6224 88.3142 93.3995 88.5078 93.1471 88.6382C92.8947 88.7645 92.6381 88.8318 92.3773 88.8318C91.8514 88.8318 91.4013 88.6214 91.0269 88.1964C90.6526 87.7714 90.4633 87.178 90.4633 86.4206C90.4633 85.6632 90.6441 85.053 91.0101 84.649C91.3761 84.245 91.8346 84.0431 92.3941 84.0431C92.9073 84.0431 93.349 84.2577 93.7234 84.6827V82.4061H94.9349V88.7308V88.7266ZM91.7 86.3364C91.7 86.8246 91.7673 87.1781 91.9019 87.3969C92.0954 87.7125 92.3689 87.8724 92.7222 87.8724C92.9998 87.8724 93.2396 87.7546 93.4331 87.5147C93.6266 87.279 93.7276 86.9214 93.7276 86.4501C93.7276 85.9241 93.635 85.5453 93.4415 85.3139C93.2522 85.0824 93.0083 84.9646 92.7138 84.9646C92.4193 84.9646 92.1838 85.0782 91.9903 85.3097C91.7967 85.5369 91.7 85.882 91.7 86.3364Z" fill="#003399"/>
<path d="M37.2371 99.3309V93.0062H41.9274V94.0751H38.5159V95.4763H41.6919V96.541H38.5159V98.2621H42.0494V99.3267H37.2413L37.2371 99.3309Z" fill="#003399"/>
<path d="M46.134 99.331V98.6451C45.9658 98.8891 45.747 99.0827 45.4778 99.2258C45.2044 99.3646 44.9183 99.4362 44.6154 99.4362C44.3126 99.4362 44.0307 99.3688 43.7867 99.2342C43.5428 99.0995 43.3661 98.9102 43.2567 98.6661C43.1473 98.422 43.0927 98.0854 43.0927 97.652V94.7526H44.3042V96.8566C44.3042 97.5005 44.3252 97.896 44.3715 98.0391C44.4177 98.1864 44.4977 98.3 44.6154 98.3842C44.7332 98.4683 44.8847 98.5104 45.0656 98.5104C45.2717 98.5104 45.4568 98.4557 45.6208 98.3379C45.7849 98.2243 45.8985 98.0854 45.9574 97.9171C46.0162 97.7487 46.0499 97.3364 46.0499 96.6799V94.7484H47.2614V99.331H46.134Z" fill="#003399"/>
<path d="M49.676 99.331H48.4645V94.7484H49.5918V95.4006C49.7854 95.0935 49.9578 94.8915 50.1135 94.7905C50.2691 94.6937 50.4416 94.6432 50.6393 94.6432C50.9169 94.6432 51.1819 94.7189 51.4386 94.8704L51.0642 95.9266C50.858 95.7962 50.6687 95.7289 50.4963 95.7289C50.3238 95.7289 50.1808 95.7752 50.063 95.8677C49.9452 95.9603 49.8527 96.1286 49.7854 96.3769C49.718 96.621 49.6844 97.1343 49.6844 97.9128V99.3267L49.676 99.331Z" fill="#003399"/>
<path d="M51.6699 96.9786C51.6699 96.5746 51.7709 96.1875 51.9686 95.8088C52.1663 95.43 52.4481 95.1439 52.8099 94.9461C53.1759 94.7483 53.5797 94.6473 54.0298 94.6473C54.7239 94.6473 55.2918 94.8746 55.7335 95.3206C56.1752 95.7709 56.3982 96.339 56.3982 97.0291C56.3982 97.7192 56.1752 98.2957 55.7293 98.7544C55.2834 99.2089 54.7197 99.4361 54.0425 99.4361C53.6218 99.4361 53.2222 99.3393 52.8394 99.1499C52.4566 98.9606 52.1705 98.6829 51.9686 98.3168C51.7709 97.9507 51.6699 97.5046 51.6699 96.9786ZM52.9151 97.0417C52.9151 97.4962 53.0244 97.8455 53.239 98.0853C53.4535 98.3252 53.7228 98.4472 54.0382 98.4472C54.3537 98.4472 54.6188 98.3252 54.8333 98.0853C55.0478 97.8455 55.153 97.492 55.153 97.0333C55.153 96.5746 55.0478 96.238 54.8333 95.9981C54.6188 95.7583 54.3537 95.6362 54.0382 95.6362C53.7228 95.6362 53.4577 95.7583 53.239 95.9981C53.0244 96.238 52.9151 96.5872 52.9151 97.0417Z" fill="#003399"/>
<path d="M57.067 96.9786C57.067 96.5746 57.168 96.1875 57.3657 95.8088C57.5634 95.43 57.8452 95.1439 58.207 94.9461C58.573 94.7483 58.9768 94.6473 59.4269 94.6473C60.121 94.6473 60.6889 94.8746 61.1306 95.3206C61.5723 95.7709 61.7952 96.339 61.7952 97.0291C61.7952 97.7192 61.5723 98.2957 61.1264 98.7544C60.6805 99.2089 60.1168 99.4361 59.4395 99.4361C59.0189 99.4361 58.6193 99.3393 58.2365 99.1499C57.8537 98.9606 57.5676 98.6829 57.3657 98.3168C57.168 97.9507 57.067 97.5046 57.067 96.9786ZM58.3122 97.0417C58.3122 97.4962 58.4215 97.8455 58.6361 98.0853C58.8506 98.3252 59.1198 98.4472 59.4353 98.4472C59.7508 98.4472 60.0158 98.3252 60.2304 98.0853C60.4449 97.8455 60.5501 97.492 60.5501 97.0333C60.5501 96.5746 60.4449 96.238 60.2304 95.9981C60.0158 95.7583 59.7508 95.6362 59.4353 95.6362C59.1198 95.6362 58.8548 95.7583 58.6361 95.9981C58.4215 96.238 58.3122 96.5872 58.3122 97.0417Z" fill="#003399"/>
<path d="M62.7123 94.7526H63.8439V95.4259C63.9911 95.1945 64.1888 95.0093 64.4412 94.8662C64.6894 94.7232 64.967 94.6516 65.2741 94.6516C65.8041 94.6516 66.2585 94.862 66.6286 95.2786C66.9988 95.6952 67.1839 96.2759 67.1839 97.0207C67.1839 97.7656 66.9946 98.3799 66.6244 98.805C66.25 99.23 65.7999 99.4404 65.2657 99.4404C65.0133 99.4404 64.7819 99.3899 64.5758 99.2889C64.3697 99.1879 64.1551 99.0154 63.928 98.7713V101.082H62.7165V94.7568L62.7123 94.7526ZM63.9112 96.966C63.9112 97.4794 64.0121 97.8624 64.2182 98.1064C64.4244 98.3505 64.6726 98.4767 64.9628 98.4767C65.2531 98.4767 65.4802 98.3631 65.6653 98.1401C65.8504 97.9129 65.9472 97.5425 65.9472 97.0292C65.9472 96.5494 65.8504 96.1918 65.6569 95.9603C65.4634 95.7289 65.2236 95.6111 64.9418 95.6111C64.6599 95.6111 64.3991 95.7247 64.2056 95.9561C64.0121 96.1833 63.9112 96.5242 63.9112 96.9745V96.966Z" fill="#003399"/>
<path d="M69.0474 96.1496L67.9495 95.9518C68.0715 95.51 68.286 95.1818 68.5889 94.9671C68.8918 94.7525 69.3377 94.6473 69.935 94.6473C70.4777 94.6473 70.8773 94.7105 71.1423 94.8409C71.4073 94.9672 71.5924 95.1313 71.7018 95.329C71.8112 95.5268 71.8617 95.8887 71.8617 96.4147L71.849 97.8286C71.849 98.2326 71.8701 98.5272 71.9079 98.7207C71.9458 98.9101 72.0173 99.1163 72.1267 99.3351H70.9278C70.8941 99.2551 70.8563 99.1373 70.81 98.9774C70.789 98.9059 70.7763 98.8596 70.7679 98.8343C70.5618 99.0363 70.3389 99.1878 70.1033 99.2888C69.8677 99.3898 69.6153 99.4403 69.3503 99.4403C68.8792 99.4403 68.509 99.3141 68.2356 99.0574C67.9621 98.8007 67.8275 98.4767 67.8275 98.0853C67.8275 97.8244 67.8906 97.5972 68.0126 97.391C68.1346 97.189 68.3113 97.0333 68.5342 96.9239C68.7572 96.8145 69.0769 96.7219 69.4975 96.642C70.0654 96.5368 70.4566 96.4358 70.6754 96.3432V96.2212C70.6754 95.9897 70.6165 95.8214 70.5029 95.7246C70.3893 95.6236 70.1706 95.5773 69.8509 95.5773C69.6364 95.5773 69.4681 95.6194 69.3461 95.7036C69.2241 95.7877 69.1274 95.9392 69.0516 96.1496H69.0474ZM70.667 97.1343C70.5113 97.1848 70.2674 97.2479 69.9308 97.3195C69.5943 97.391 69.3755 97.4625 69.2704 97.5299C69.1105 97.6435 69.0348 97.7823 69.0348 97.9549C69.0348 98.1274 69.0979 98.2705 69.2241 98.3967C69.3503 98.523 69.5102 98.5819 69.7079 98.5819C69.9266 98.5819 70.1327 98.5103 70.3347 98.3672C70.4819 98.2578 70.5786 98.1232 70.6249 97.9675C70.6586 97.8623 70.6712 97.6687 70.6712 97.3742V97.1343H70.667Z" fill="#003399"/>
<path d="M75.5508 99.331V93.0568H76.8296V98.2663H80.0056V99.331H75.555H75.5508Z" fill="#003399"/>
<path d="M80.9059 94.1298V93.0062H82.1174V94.1298H80.9059ZM80.9059 99.3309V94.7484H82.1174V99.3309H80.9059Z" fill="#003399"/>
<path d="M83.3583 94.1298V93.0062H84.5698V94.1298H83.3583ZM83.3583 99.3309V94.7484H84.5698V99.3309H83.3583Z" fill="#003399"/>
<path d="M87.914 94.7525V95.7204H87.0853V97.5677C87.0853 97.9422 87.0937 98.1611 87.1106 98.22C87.1274 98.2831 87.161 98.3336 87.2199 98.3715C87.2746 98.4135 87.3461 98.4304 87.4261 98.4304C87.5396 98.4304 87.6995 98.3925 87.914 98.3126L88.0192 99.2551C87.7373 99.3772 87.4176 99.4361 87.0601 99.4361C86.8413 99.4361 86.6436 99.3982 86.4669 99.3267C86.2903 99.2551 86.1641 99.1584 86.0799 99.0405C86 98.9227 85.9411 98.767 85.9075 98.5692C85.8822 98.4304 85.8696 98.1442 85.8696 97.715V95.7162H85.3143V94.7483H85.8696V93.8394L87.0853 93.1324V94.7483H87.914V94.7525Z" fill="#003399"/>
</svg>
