<svg width="36" height="36" viewBox="0 0 36 36" fill="none" xmlns="http://www.w3.org/2000/svg">
<circle cx="18" cy="18" r="18" fill="#D4E7D0"/>
<path d="M21.988 14.9359C21.988 12.5274 21.9765 10.1081 21.9994 7.6996C22.0109 7.17274 21.8502 7.0007 21.2649 7.0007C19.0959 7.03296 16.9269 7.02221 14.7578 7.0007C14.2185 6.98995 13.9889 7.09748 14.0004 7.66734C14.0348 9.92531 14.0234 12.194 14.0004 14.452C14.0004 14.9036 14.1381 14.9574 14.5857 14.9466C16.9957 14.9144 19.4058 14.9359 21.8158 14.9466C21.8502 15.0004 21.8961 15.0111 21.9306 14.9896C21.965 14.9789 21.988 14.9574 21.988 14.9359Z" fill="#1D494A"/>
<path d="M14.0121 26.0484C14.0121 27.1742 14.0236 28.3 14.0006 29.4257C13.9891 29.8587 14.15 30.0103 14.6097 29.9995C16.8624 29.9886 19.1151 29.9778 21.3679 29.9995C21.8851 29.9995 22 29.8046 22 29.3608C21.977 27.1093 21.977 24.8577 22 22.6062C22 22.1191 21.8161 22 21.3334 22C19.1381 22.0216 16.9314 22.0216 14.7362 22C14.15 22 13.9891 22.2273 14.0006 22.7361C14.0236 23.851 14.0121 24.9443 14.0121 26.0484Z" fill="#1D494A"/>
</svg>
