<svg width="36" height="36" viewBox="0 0 36 36" fill="none" xmlns="http://www.w3.org/2000/svg">
<circle cx="18" cy="18" r="18" fill="#D598BE"/>
<path d="M10.8176 23.82C11.8263 22.4373 12.8199 21.0546 13.8286 19.6719C13.9791 19.4512 14.0544 19.2453 13.8135 19.0393C11.2241 18.2009 8.63461 17.3625 6 16.524C6.6022 15.5385 6.94846 14.5529 7.32483 13.5821C7.5356 13.0525 7.71626 12.7584 8.469 13.0378C10.6068 13.788 12.7898 14.3911 14.9426 15.0678C15.5599 15.259 15.7556 15.156 15.7405 14.5088C15.7104 12.1847 15.7556 9.86056 15.7104 7.52173C15.6954 6.77155 15.876 6.44793 16.704 6.50677C17.7278 6.58032 18.7666 6.5509 19.7903 6.50677C20.3624 6.49206 20.4377 6.65387 20.4226 7.21283C20.3624 9.6105 20.4226 12.0082 20.3774 14.4058C20.3624 15.1413 20.5581 15.2884 21.2807 15.053C23.4035 14.3617 25.5563 13.7586 27.664 13.0673C28.3565 12.8319 28.6125 13.0525 28.8383 13.6409C29.1394 14.4205 29.3953 15.2296 29.8319 15.9356C30.1631 16.4946 29.9825 16.5976 29.4857 16.7594C27.2274 17.4801 24.9842 18.2303 22.726 18.9511C22.0485 19.1717 21.8829 19.4512 22.5303 19.9072C22.7712 20.0396 22.9217 20.2455 22.9518 20.525C24.1412 22.2019 25.3155 23.8935 26.55 25.541C26.9414 26.0705 27.0016 26.3794 26.3392 26.7472C25.5413 27.1885 24.7735 27.7033 24.0358 28.2476C23.5089 28.6447 23.2379 28.5712 22.8766 28.0416C21.5066 26.0558 20.0613 24.1289 18.6913 22.1431C18.2396 21.4811 17.9837 21.2752 17.4267 22.0989C16.0868 24.0995 14.6265 26.0264 13.2565 27.9975C12.8801 28.5418 12.5941 28.6447 12.022 28.2181C11.0735 27.5121 10.0498 26.8796 9.0712 26.2176C9.44757 25.5557 10.0799 25.0262 10.381 24.2613C10.4563 24.0112 10.6219 23.9082 10.8176 23.82Z" fill="white"/>
</svg>
