<svg width="36" height="36" viewBox="0 0 36 36" fill="none" xmlns="http://www.w3.org/2000/svg">
<circle cx="18" cy="18" r="18" fill="white"/>
<path d="M21.7809 11.7478C22.4704 14.586 21.4234 17.1346 20.1593 19.6485C19.6996 20.5752 19.3293 21.5252 19.2655 22.5446C19.1889 23.7726 19.7379 24.4329 21.0531 24.7457C21.6021 24.8731 21.8447 25.0933 21.8064 25.6493C21.7554 26.7383 21.7937 27.8388 21.7937 28.9394C21.7937 29.229 21.7937 29.5417 21.3468 29.4954C19.3676 29.2521 17.4013 28.9509 15.8563 27.6534C14.107 26.1938 13.8261 24.3287 14.0814 22.3129C14.3623 20.0887 15.486 18.0846 16.2138 15.9877C16.3287 15.6518 16.4564 15.3158 16.5458 14.9683C16.9671 13.3928 16.3798 12.5239 14.6432 12.2922C14.2091 12.2343 14.1708 12.1301 14.1836 11.8173C14.1963 10.5893 14.2091 9.34975 14.1836 8.12178C14.1708 7.53097 14.4262 7.43829 15.0008 7.53097C17.3374 7.89009 19.4825 8.58517 21.0658 10.2997C21.6021 10.6588 21.666 11.2149 21.7809 11.7478Z" fill="#547687"/>
</svg>
