<svg width="24" height="24" viewBox="0 0 24 24" fill="none" xmlns="http://www.w3.org/2000/svg">
<circle cx="12" cy="12" r="12" fill="#173348"/>
<path d="M16.5015 14.8539C14.6094 15.3136 12.9103 14.6156 11.2344 13.7729C10.6165 13.4664 9.98325 13.2195 9.30362 13.177C8.48497 13.1259 8.04476 13.4919 7.83623 14.3687C7.75128 14.7348 7.60454 14.8965 7.23383 14.8709C6.50786 14.8369 5.77416 14.8624 5.04047 14.8624C4.84739 14.8624 4.63888 14.8624 4.66977 14.5645C4.83195 13.2451 5.03276 11.9342 5.89774 10.9042C6.87085 9.73798 8.11426 9.5507 9.45808 9.72095C10.9409 9.90822 12.277 10.6573 13.6749 11.1425C13.8988 11.2191 14.1228 11.3043 14.3545 11.3638C15.4049 11.6448 15.9841 11.2532 16.1385 10.0955C16.1772 9.80608 16.2467 9.78054 16.4552 9.78905C17.2738 9.79756 18.1002 9.80608 18.9189 9.78905C19.3127 9.78054 19.3745 9.95079 19.3127 10.3338C19.0733 11.8916 18.6099 13.3217 17.4669 14.3772C17.2275 14.7348 16.8568 14.7773 16.5015 14.8539Z" fill="white"/>
</svg>
