<svg width="10" height="10" viewBox="0 0 10 10" fill="none" xmlns="http://www.w3.org/2000/svg">
<circle cx="5" cy="5" r="4.5" fill="white" stroke="#A3BFD9"/>
<path d="M6.05022 3.26328C6.24175 4.05168 5.95091 4.75963 5.59977 5.45792C5.47209 5.71536 5.36923 5.97923 5.35149 6.26241C5.33021 6.60351 5.48273 6.78693 5.84805 6.87382C6.00056 6.90922 6.06795 6.97036 6.05731 7.12482C6.04313 7.42731 6.05377 7.73301 6.05377 8.03872C6.05377 8.11917 6.05377 8.20605 5.92963 8.19318C5.37987 8.1256 4.83366 8.04193 4.40449 7.68152C3.91857 7.27606 3.84054 6.75797 3.91148 6.19805C3.98951 5.5802 4.30163 5.0235 4.5038 4.44105C4.53572 4.34773 4.57119 4.25441 4.59602 4.15787C4.71306 3.72023 4.54991 3.47888 4.06754 3.41452C3.94695 3.39843 3.93631 3.36947 3.93986 3.28259C3.9434 2.94149 3.94695 2.59716 3.93986 2.25606C3.93631 2.09195 4.00724 2.0662 4.16685 2.09195C4.81592 2.1917 5.41179 2.38478 5.8516 2.86104C6.00056 2.96079 6.0183 3.11526 6.05022 3.26328Z" fill="#173348"/>
</svg>
