<?xml version="1.0" encoding="UTF-8" standalone="no"?>
<svg
   width="340"
   height="311"
   viewBox="0 0 340 320"
   fill="none"
   version="1.1"
   id="nägusvg"
   sodipodi:docname="nagu-uk-B.svg"
   inkscape:version="1.2.1 (9c6d41e4, 2022-07-14)"
   xmlns:inkscape="http://www.inkscape.org/namespaces/inkscape"
   xmlns:sodipodi="http://sodipodi.sourceforge.net/DTD/sodipodi-0.dtd"
   xmlns="http://www.w3.org/2000/svg"
   xmlns:svg="http://www.w3.org/2000/svg">
  <defs
     id="defs139" />
  <sodipodi:namedview
     id="namedview137"
     pagecolor="#505050"
     bordercolor="#eeeeee"
     borderopacity="1"
     inkscape:pageshadow="0"
     inkscape:pageopacity="0"
     inkscape:pagecheckerboard="0"
     showgrid="false"
     inkscape:zoom="2.44375"
     inkscape:cx="82.455243"
     inkscape:cy="86.956522"
     inkscape:window-width="2560"
     inkscape:window-height="1387"
     inkscape:window-x="1440"
     inkscape:window-y="25"
     inkscape:window-maximized="0"
     inkscape:current-layer="Nägu-DATA LABELS"
     inkscape:showpageshadow="2"
     inkscape:deskcolor="#505050" />
  <g
     id="Pea_A1-A2">
    <g
       id="Pea">
      <g
         id="Nägu-DATA LABELS">
        <g
           id="data-label=язик">
          <path
             d="M 59,235.5 C 59,228.596 64.5964,223 71.5,223 h 18 c 6.9036,0 12.5,5.596 12.5,12.5 v 0 c 0,6.904 -5.5964,12.5 -12.5,12.5 h -18 C 64.5964,248 59,242.404 59,235.5 Z"
             fill="#ecf0f2"
             id="path3" />
          <g
             aria-label="язик"
             id="text1907"
             fill="#000000">
            <path
               id="path3064"
               d="m 89.876532,239.99802 v -7.85733 h 1.207245 v 3.41712 h 0.79801 l 2.823727,-3.41712 h 1.555096 l -3.171577,3.78543 3.212501,4.0719 h -1.555096 l -2.578186,-3.31481 h -1.084475 v 3.31481 z m -7.386694,-1.78018 3.785431,-6.07715 h 1.391402 v 7.85733 h -1.207245 v -6.07716 l -3.76497,6.07716 h -1.411863 v -7.85733 h 1.207245 z m -8.819029,-0.22508 h 1.289093 q 0.04092,0.53201 0.480852,0.80824 0.445044,0.27624 1.156091,0.27624 0.726393,0 1.243054,-0.2967 0.51666,-0.30181 0.51666,-0.97194 0,-0.39388 -0.194387,-0.68547 -0.194387,-0.29669 -0.547353,-0.46039 -0.352966,-0.16369 -0.833818,-0.16369 h -1.350478 v -1.08447 h 1.350478 q 0.721278,0 1.064013,-0.32739 0.347851,-0.32739 0.347851,-0.81847 0,-0.5269 -0.373428,-0.84405 -0.373428,-0.32228 -1.058898,-0.32228 -0.690585,0 -1.150975,0.31205 -0.460391,0.30692 -0.485968,0.79289 h -1.268631 q 0.02046,-0.63432 0.388774,-1.12028 0.368312,-0.49109 1.002628,-0.76732 0.634315,-0.28135 1.452787,-0.28135 0.828702,0 1.437441,0.29158 0.613853,0.28647 0.946357,0.78266 0.33762,0.49109 0.33762,1.11517 0,0.66501 -0.373428,1.07425 -0.373427,0.40923 -0.936127,0.58316 v 0.0818 q 0.445044,0.0307 0.772433,0.28647 0.332504,0.25066 0.51666,0.65989 0.184156,0.40412 0.184156,0.8952 0,0.71617 -0.383658,1.24817 -0.383659,0.5269 -1.053783,0.81848 -0.670123,0.28646 -1.529518,0.28646 -0.833818,0 -1.493711,-0.27112 -0.659893,-0.27623 -1.048667,-0.7622 -0.383658,-0.49108 -0.40412,-1.13563 z m -2.864643,2.00526 v -6.75239 h -2.087103 q -0.705931,0 -1.110052,0.32738 -0.40412,0.32739 -0.40412,0.90032 0,0.5627 0.363197,0.88498 0.368312,0.32227 1.007743,0.32227 h 2.537262 v 1.1254 h -2.537262 q -0.79801,0 -1.376055,-0.28135 -0.578046,-0.28135 -0.890088,-0.80313 -0.312043,-0.52689 -0.312043,-1.24817 0,-0.72639 0.327389,-1.24817 0.327389,-0.52177 0.936127,-0.80312 0.613854,-0.28135 1.457902,-0.28135 h 3.232963 v 7.85733 z m -5.238218,0 2.230335,-3.90821 h 1.309554 l -2.230335,3.90821 z" />
          </g>
        </g>
        <g
           id="data-label=зуб">
          <path
             d="m 43.291645,263.58478 c 0,-6.904 5.596396,-12.5 12.499993,-12.5 h 15.000003 c 6.903602,0 12.500002,5.596 12.500002,12.5 v 0 c 0,6.904 -5.5964,12.5 -12.500002,12.5 H 55.791638 c -6.903597,0 -12.499993,-5.596 -12.499993,-12.5 z"
             fill="#ecf0f2"
             id="path2178" />
          <g
             aria-label="зуб"
             id="text1923"
             fill="#000000">
            <path
               id="path3071"
               d="m 72.737141,256.98344 0.613854,0.73662 q -0.358082,0.34785 -0.828703,0.48597 -0.470621,0.13812 -1.064013,0.16881 -0.593392,0.0307 -1.319785,0.0614 -0.818472,0.0307 -1.355594,0.39901 -0.537122,0.36831 -0.828702,1.06401 -0.291581,0.6957 -0.373428,1.70856 h 0.102309 q 0.399005,-0.73662 1.104937,-1.08447 0.705931,-0.34785 1.514172,-0.34785 0.920781,0 1.657405,0.42969 0.736624,0.4297 1.166322,1.27375 0.429698,0.84405 0.429698,2.08199 0,1.23282 -0.439929,2.12802 -0.434813,0.89521 -1.222592,1.38117 -0.782663,0.48086 -1.836445,0.48086 -1.053783,0 -1.846677,-0.4962 -0.792894,-0.50132 -1.232823,-1.48348 -0.439928,-0.98728 -0.439928,-2.44007 v -0.83893 q 0,-2.62423 0.890088,-3.97982 0.895203,-1.3556 2.690725,-1.40163 0.634315,-0.0205 1.130514,-0.0102 0.496198,0.0102 0.86451,-0.046 0.368313,-0.0563 0.624085,-0.27112 z m -2.680494,9.88304 q 0.711047,0 1.222591,-0.35808 0.516661,-0.35808 0.792895,-1.00774 0.276234,-0.65478 0.276234,-1.53975 0,-0.8594 -0.28135,-1.46302 -0.276234,-0.60362 -0.792894,-0.92078 -0.51666,-0.31716 -1.237938,-0.31716 -0.526891,0 -0.946358,0.17904 -0.419467,0.17904 -0.716163,0.52689 -0.296696,0.34785 -0.46039,0.84917 -0.158579,0.50131 -0.16881,1.14586 0,1.31978 0.618969,2.11268 0.61897,0.79289 1.693214,0.79289 z m -10.394587,3.86728 q -0.306927,0 -0.547353,-0.0512 -0.240426,-0.046 -0.332504,-0.0921 l 0.306926,-1.06402 q 0.439929,0.11254 0.777548,0.0819 0.33762,-0.0307 0.598508,-0.30181 0.266003,-0.266 0.485967,-0.86451 l 0.22508,-0.61385 -2.905574,-7.89826 h 1.309554 l 2.16895,6.26131 h 0.08185 l 2.16895,-6.26131 h 1.309554 l -3.335271,9.00319 q -0.22508,0.60874 -0.557584,1.00775 -0.332504,0.40412 -0.772433,0.5985 -0.434813,0.19439 -0.982165,0.19439 z m -8.389332,-4.95175 h 1.289093 q 0.04092,0.532 0.480852,0.80824 0.445044,0.27623 1.156091,0.27623 0.726394,0 1.243054,-0.29669 0.51666,-0.30182 0.51666,-0.97194 0,-0.39389 -0.194387,-0.68547 -0.194387,-0.2967 -0.547353,-0.46039 -0.352966,-0.16369 -0.833818,-0.16369 h -1.350478 v -1.08448 h 1.350478 q 0.721278,0 1.064013,-0.32739 0.347851,-0.32739 0.347851,-0.81847 0,-0.52689 -0.373428,-0.84405 -0.373428,-0.32227 -1.058898,-0.32227 -0.690585,0 -1.150975,0.31204 -0.460391,0.30693 -0.485968,0.7929 h -1.268631 q 0.02046,-0.63432 0.388774,-1.12029 0.368313,-0.49108 1.002628,-0.76731 0.634315,-0.28135 1.452787,-0.28135 0.828703,0 1.437441,0.29158 0.613853,0.28646 0.946358,0.78266 0.337619,0.49108 0.337619,1.11517 0,0.66501 -0.373428,1.07424 -0.373427,0.40924 -0.936126,0.58316 v 0.0818 q 0.445043,0.0307 0.772432,0.28646 0.332504,0.25066 0.51666,0.6599 0.184156,0.40412 0.184156,0.8952 0,0.71616 -0.383658,1.24817 -0.383659,0.52689 -1.053782,0.81847 -0.670124,0.28647 -1.529519,0.28647 -0.833818,0 -1.493711,-0.27112 -0.659892,-0.27624 -1.048666,-0.7622 -0.383659,-0.49109 -0.404121,-1.13563 z" />
          </g>
        </g>
        <g
           id="data-label=губа">
          <path
             d="M 11,235.5 C 11,228.596 16.5964,223 23.5,223 h 19 c 6.9036,0 12.5,5.596 12.5,12.5 v 0 c 0,6.904 -5.5964,12.5 -12.5,12.5 h -19 C 16.5964,248 11,242.404 11,235.5 Z"
             fill="#ecf0f2"
             id="path11" />
          <g
             aria-label="губа"
             id="text1919"
             fill="#000000">
            <path
               id="path3080"
               d="m 44.355937,240.60322 q -0.746855,0 -1.355594,-0.28135 -0.608738,-0.28646 -0.966819,-0.82358 -0.358082,-0.54224 -0.358082,-1.30956 0,-0.67524 0.266004,-1.0947 0.266003,-0.42459 0.711047,-0.66501 0.445044,-0.24043 0.982166,-0.35808 0.542237,-0.12277 1.08959,-0.19439 0.716163,-0.0921 1.161207,-0.13812 0.450159,-0.0512 0.654777,-0.16881 0.209733,-0.11765 0.209733,-0.40923 v -0.0409 q 0,-0.75708 -0.414351,-1.17655 -0.409236,-0.41947 -1.243054,-0.41947 -0.86451,0 -1.355593,0.37855 -0.491083,0.37854 -0.690586,0.80824 l -1.14586,-0.40924 q 0.306927,-0.71616 0.818472,-1.11517 0.51666,-0.40412 1.125398,-0.56269 0.613854,-0.1637 1.207246,-0.1637 0.378543,0 0.869626,0.0921 0.496198,0.087 0.956588,0.3632 0.465506,0.27623 0.772433,0.83381 0.306927,0.55759 0.306927,1.49371 v 5.17684 h -1.207246 v -1.06402 h -0.06139 q -0.122771,0.25578 -0.409236,0.54736 -0.286465,0.29158 -0.762202,0.4962 -0.475736,0.20461 -1.161206,0.20461 z m 0.184156,-1.08447 q 0.716163,0 1.207246,-0.28135 0.496198,-0.28135 0.746855,-0.72639 0.255772,-0.44505 0.255772,-0.93613 v -1.10494 q -0.07673,0.0921 -0.337619,0.16881 -0.255773,0.0716 -0.593392,0.12789 -0.332504,0.0512 -0.649662,0.0921 -0.312042,0.0358 -0.506429,0.0614 -0.470621,0.0614 -0.879857,0.1995 -0.404121,0.13301 -0.654778,0.40412 -0.245541,0.26601 -0.245541,0.7264 0,0.6292 0.465506,0.95147 0.470621,0.31716 1.191899,0.31716 z m -5.156349,-9.90351 0.613853,0.73663 q -0.358081,0.34785 -0.828702,0.48596 -0.470621,0.13812 -1.064013,0.16881 -0.593392,0.0307 -1.319786,0.0614 -0.818471,0.0307 -1.355593,0.399 -0.537122,0.36832 -0.828703,1.06402 -0.29158,0.6957 -0.373427,1.70856 h 0.102309 q 0.399004,-0.73663 1.104936,-1.08448 0.705932,-0.34785 1.514173,-0.34785 0.92078,0 1.657405,0.4297 0.736624,0.4297 1.166322,1.27375 0.429697,0.84404 0.429697,2.08198 0,1.23283 -0.439928,2.12803 -0.434813,0.8952 -1.222592,1.38117 -0.782664,0.48085 -1.836446,0.48085 -1.053782,0 -1.846676,-0.4962 -0.792895,-0.50131 -1.232823,-1.48348 -0.439929,-0.98728 -0.439929,-2.44006 v -0.83894 q 0,-2.62422 0.890088,-3.97982 0.895204,-1.35559 2.690726,-1.40163 0.634315,-0.0205 1.130513,-0.0102 0.496199,0.0102 0.864511,-0.046 0.368312,-0.0563 0.624085,-0.27112 z m -2.680495,9.88305 q 0.711047,0 1.222592,-0.35808 0.51666,-0.35809 0.792894,-1.00775 0.276235,-0.65477 0.276235,-1.53975 0,-0.85939 -0.28135,-1.46302 -0.276234,-0.60362 -0.792894,-0.92078 -0.516661,-0.31715 -1.237939,-0.31715 -0.526891,0 -0.946357,0.17904 -0.419467,0.17904 -0.716163,0.52689 -0.296696,0.34785 -0.46039,0.84916 -0.158579,0.50132 -0.16881,1.14586 0,1.31979 0.618969,2.11268 0.618969,0.7929 1.693213,0.7929 z m -10.394586,3.86728 q -0.306927,0 -0.547353,-0.0512 -0.240426,-0.046 -0.332504,-0.0921 l 0.306927,-1.06401 q 0.439928,0.11254 0.777548,0.0819 0.33762,-0.0307 0.598507,-0.30181 0.266004,-0.26601 0.485968,-0.86452 l 0.22508,-0.61385 -2.905575,-7.89825 h 1.309555 l 2.16895,6.26131 h 0.08185 l 2.168949,-6.26131 h 1.309555 l -3.335272,9.00319 q -0.225079,0.60874 -0.557583,1.00774 -0.332505,0.40412 -0.772433,0.59851 -0.434813,0.19439 -0.982166,0.19439 z m -2.537237,-10.80383 v 1.1254 h -3.642199 v 6.73193 h -1.207245 v -7.85733 z" />
          </g>
        </g>
        <g
           id="data-label=підборіддя">
          <path
             d="m 61.47867,291.9976 c 0,-7.1038 5.757945,-12.86174 12.86174,-12.86174 h 69.96782 c 7.1038,0 12.86175,5.75794 12.86175,12.86174 v 0 c 0,7.10379 -5.75795,12.86174 -12.86175,12.86174 H 74.34041 c -7.103795,0 -12.86174,-5.75795 -12.86174,-12.86174 z"
             fill="#ecf0f2"
             id="path153"
             style="display:inline;stroke-width:1.02894" />
          <g
             aria-label="підборіддя"
             id="text1915"
             fill="#000000">
            <path
               id="path3101"
               d="m 144.31514,296.41861 v -6.75239 h -2.0871 q -0.70594,0 -1.11006,0.32739 -0.40412,0.32739 -0.40412,0.90032 0,0.5627 0.3632,0.88497 0.36831,0.32227 1.00774,0.32227 h 2.53727 v 1.1254 h -2.53727 q -0.79801,0 -1.37605,-0.28135 -0.57805,-0.28135 -0.89009,-0.80312 -0.31204,-0.5269 -0.31204,-1.24817 0,-0.7264 0.32739,-1.24817 0.32738,-0.52178 0.93612,-0.80313 0.61386,-0.28135 1.45791,-0.28135 h 3.23296 v 7.85733 z m -5.23822,0 2.23034,-3.9082 h 1.30955 l -2.23034,3.9082 z m -9.31011,2.2508 v -3.3762 h 0.65478 q 0.24042,-0.25066 0.41435,-0.54224 0.17392,-0.29158 0.30181,-0.69058 0.133,-0.40412 0.22508,-0.98217 0.0921,-0.58316 0.16369,-1.40675 l 0.26601,-3.11019 h 4.99267 v 6.73193 h 1.20725 v 3.3762 h -1.20725 v -2.2508 h -5.81115 v 2.2508 z m 2.02572,-3.3762 h 3.78543 v -5.60653 h -2.66004 l -0.20461,1.98479 q -0.12789,1.23283 -0.31716,2.15361 -0.18927,0.92078 -0.60362,1.46813 z m -11.00844,3.3762 v -3.3762 h 0.65478 q 0.24043,-0.25066 0.41435,-0.54224 0.17393,-0.29158 0.30181,-0.69058 0.133,-0.40412 0.22508,-0.98217 0.0921,-0.58316 0.1637,-1.40675 l 0.266,-3.11019 h 4.99268 v 6.73193 h 1.20724 v 3.3762 h -1.20724 v -2.2508 h -5.81115 v 2.2508 z m 2.02572,-3.3762 h 3.78543 v -5.60653 h -2.66003 l -0.20462,1.98479 q -0.12789,1.23283 -0.31716,2.15361 -0.18927,0.92078 -0.60362,1.46813 z m -4.60389,1.1254 v -7.85733 h 1.20724 v 7.85733 z m 0.61385,-9.16688 q -0.35296,0 -0.60874,-0.24043 -0.25065,-0.24042 -0.25065,-0.57804 0,-0.33762 0.25065,-0.57805 0.25578,-0.24043 0.60874,-0.24043 0.35297,0 0.60363,0.24043 0.25577,0.24043 0.25577,0.57805 0,0.33762 -0.25577,0.57804 -0.25066,0.24043 -0.60363,0.24043 z m -9.39193,12.11338 v -10.80383 h 1.16632 v 1.24817 h 0.14323 q 0.13301,-0.20462 0.36832,-0.52177 0.24042,-0.32228 0.68547,-0.57293 0.45016,-0.25578 1.21747,-0.25578 0.9924,0 1.74949,0.4962 0.75708,0.4962 1.18166,1.40675 0.42459,0.91055 0.42459,2.14849 0,1.24817 -0.42459,2.16383 -0.42458,0.91055 -1.17655,1.41187 -0.75197,0.49619 -1.73414,0.49619 -0.75708,0 -1.21236,-0.25065 -0.45527,-0.25578 -0.70081,-0.57805 -0.24554,-0.32739 -0.37855,-0.54224 h -0.10231 v 4.15375 z m 1.18678,-6.87516 q 0,0.89008 0.26089,1.57044 0.26089,0.67524 0.7622,1.0589 0.50132,0.37854 1.22771,0.37854 0.75709,0 1.26352,-0.39901 0.51154,-0.40412 0.76731,-1.08447 0.26089,-0.68547 0.26089,-1.5244 0,-0.82871 -0.25577,-1.49371 -0.25066,-0.67013 -0.7622,-1.0589 -0.50643,-0.39389 -1.27375,-0.39389 -0.73662,0 -1.23794,0.37343 -0.50131,0.36831 -0.75708,1.03332 -0.25578,0.65989 -0.25578,1.53975 z m -6.58868,4.09235 q -1.06402,0 -1.86714,-0.50643 -0.79801,-0.50642 -1.24817,-1.41697 -0.44504,-0.91055 -0.44504,-2.12803 0,-1.22771 0.44504,-2.14337 0.45016,-0.91567 1.24817,-1.4221 0.80312,-0.50643 1.86714,-0.50643 1.06401,0 1.86202,0.50643 0.80313,0.50643 1.24817,1.4221 0.45016,0.91566 0.45016,2.14337 0,1.21748 -0.45016,2.12803 -0.44504,0.91055 -1.24817,1.41697 -0.79801,0.50643 -1.86202,0.50643 z m 0,-1.08447 q 0.80824,0 1.33001,-0.41435 0.52178,-0.41435 0.77244,-1.08959 0.25065,-0.67524 0.25065,-1.46302 0,-0.78778 -0.25065,-1.46813 -0.25066,-0.68036 -0.77244,-1.09982 -0.52177,-0.41947 -1.33001,-0.41947 -0.80824,0 -1.33002,0.41947 -0.52177,0.41946 -0.77243,1.09982 -0.25066,0.68035 -0.25066,1.46813 0,0.78778 0.25066,1.46302 0.25066,0.67524 0.77243,1.08959 0.52178,0.41435 1.33002,0.41435 z m -5.85205,-9.88305 0.613853,0.73663 q -0.358081,0.34785 -0.828702,0.48597 -0.470621,0.13811 -1.064013,0.16881 -0.593392,0.0307 -1.319786,0.0614 -0.818471,0.0307 -1.355593,0.39901 -0.537122,0.36831 -0.828703,1.06401 -0.29158,0.6957 -0.373427,1.70856 h 0.102308 q 0.399005,-0.73663 1.104937,-1.08448 0.705932,-0.34785 1.514173,-0.34785 0.92078,0 1.657404,0.4297 0.736625,0.4297 1.166323,1.27375 0.429697,0.84405 0.429697,2.08198 0,1.23283 -0.439928,2.12803 -0.434813,0.8952 -1.222592,1.38117 -0.782664,0.48085 -1.836446,0.48085 -1.053782,0 -1.846676,-0.49619 -0.792895,-0.50132 -1.232823,-1.48348 -0.439929,-0.98729 -0.439929,-2.44007 v -0.83894 q 0,-2.62422 0.890088,-3.97981 0.895203,-1.3556 2.690725,-1.40164 0.634316,-0.0205 1.130514,-0.0102 0.496199,0.0102 0.864511,-0.046 0.368312,-0.0563 0.624085,-0.27112 z m -2.680495,9.88305 q 0.711047,0 1.222592,-0.35808 0.51666,-0.35808 0.792894,-1.00775 0.276235,-0.65477 0.276235,-1.53975 0,-0.85939 -0.28135,-1.46301 -0.276234,-0.60363 -0.792894,-0.92078 -0.516661,-0.31716 -1.237939,-0.31716 -0.526891,0 -0.946357,0.17904 -0.419467,0.17904 -0.716163,0.52689 -0.296696,0.34785 -0.46039,0.84916 -0.158579,0.50132 -0.16881,1.14586 0,1.31979 0.618969,2.11268 0.618969,0.7929 1.693213,0.7929 z m -12.972767,3.17158 v -3.3762 h 0.654777 q 0.240426,-0.25066 0.414351,-0.54224 0.173925,-0.29158 0.301812,-0.69058 0.133001,-0.40412 0.225079,-0.98217 0.09208,-0.58316 0.163695,-1.40675 l 0.266003,-3.11019 h 4.992676 v 6.73193 h 1.207246 v 3.3762 h -1.207246 v -2.2508 h -5.811148 v 2.2508 z m 2.025717,-3.3762 h 3.785431 v -5.60653 h -2.660033 l -0.204618,1.98479 q -0.127886,1.23283 -0.317157,2.15361 -0.189272,0.92078 -0.603623,1.46813 z m -4.603891,1.1254 v -7.85733 H 81.1497 v 7.85733 z m 0.613854,-9.16688 q -0.352966,0 -0.608738,-0.24043 -0.250657,-0.24042 -0.250657,-0.57804 0,-0.33762 0.250657,-0.57805 0.255772,-0.24043 0.608738,-0.24043 0.352966,0 0.603623,0.24043 0.255772,0.24043 0.255772,0.57805 0,0.33762 -0.255772,0.57804 -0.250657,0.24043 -0.603623,0.24043 z m -9.003183,9.16688 v -7.85733 h 6.179461 v 7.85733 H 76.52534 v -6.73193 h -3.764969 v 6.73193 z" />
          </g>
        </g>
        <g
           id="data-label=вії">
          <path
             d="m 47.081087,111.70167 c 0,-6.904 5.596397,-12.499998 12.499994,-12.499998 h 15.000002 c 6.903602,0 12.500002,5.595998 12.500002,12.499998 v 0 c 0,6.904 -5.5964,12.5 -12.500002,12.5 H 59.581081 c -6.903597,0 -12.499994,-5.596 -12.499994,-12.5 z"
             fill="#ecf0f2"
             id="path2176" />
          <g
             aria-label="вії"
             id="text1927"
             fill="#000000">
            <path
               id="path3108"
               d="m 71.415117,116.63062 v -7.85732 h 1.207246 v 7.85732 z m -0.859395,-9.16688 q -0.322273,0 -0.567815,-0.24554 -0.250656,-0.25066 -0.250656,-0.57293 0,-0.35297 0.250656,-0.58316 0.245542,-0.23531 0.567815,-0.23531 0.352966,0 0.583161,0.23531 0.235311,0.23019 0.235311,0.58316 0,0.32227 -0.235311,0.57293 -0.230195,0.24554 -0.583161,0.24554 z m 2.946498,0 q -0.322273,0 -0.57293,-0.24554 -0.245542,-0.25066 -0.245542,-0.57293 0,-0.35297 0.245542,-0.58316 0.250657,-0.23531 0.57293,-0.23531 0.352966,0 0.583161,0.23531 0.23531,0.23019 0.23531,0.58316 0,0.32227 -0.23531,0.57293 -0.230195,0.24554 -0.583161,0.24554 z m -6.077129,9.16688 v -7.85732 h 1.207245 v 7.85732 z m 0.613854,-9.16688 q -0.352966,0 -0.608739,-0.24042 -0.250657,-0.24043 -0.250657,-0.57805 0,-0.33762 0.250657,-0.57805 0.255773,-0.24042 0.608739,-0.24042 0.352965,0 0.603622,0.24042 0.255773,0.24043 0.255773,0.57805 0,0.33762 -0.255773,0.57805 -0.250657,0.24042 -0.603622,0.24042 z m -8.696254,9.16688 v -7.85732 h 3.212501 q 1.268631,0 2.015487,0.57293 0.746855,0.57293 0.746855,1.51417 0,0.71616 -0.424582,1.11005 -0.424582,0.38877 -1.08959,0.52689 0.434813,0.0614 0.844048,0.30693 0.414352,0.24554 0.68547,0.67524 0.271119,0.42458 0.271119,1.04355 0,0.60362 -0.306927,1.07936 -0.306927,0.47573 -0.879857,0.75197 -0.57293,0.27623 -1.37094,0.27623 z m 1.145861,-1.10493 h 2.557723 q 0.624085,0 0.977051,-0.2967 0.352966,-0.2967 0.352966,-0.80824 0,-0.60874 -0.352966,-0.95659 -0.352966,-0.35296 -0.977051,-0.35296 h -2.557723 z m 0,-3.45805 h 2.06664 q 0.485968,0 0.833818,-0.133 0.347851,-0.13811 0.532007,-0.38877 0.189271,-0.25577 0.189271,-0.60362 0,-0.4962 -0.414351,-0.77755 -0.414351,-0.28647 -1.140745,-0.28647 h -2.06664 z" />
          </g>
        </g>
        <g
           id="data-label=брова">
          <path
             d="m 24.865663,82.315114 c 0,-7.103794 5.757942,-12.861736 12.861732,-12.861736 h 28.81029 c 7.1038,0 12.86174,5.757942 12.86174,12.861736 v 0 c 0,7.103794 -5.75794,12.861739 -12.86174,12.861739 h -28.81029 c -7.10379,0 -12.861732,-5.757945 -12.861732,-12.861739 z"
             fill="#ecf0f2"
             id="path1060"
             style="display:inline;stroke-width:1.02894" />
          <g
             aria-label="брова"
             id="text1931"
             fill="#000000">
            <path
               id="path3119"
               d="m 67.811673,87.341337 q -0.746855,0 -1.355594,-0.28135 -0.608738,-0.286465 -0.966819,-0.823587 -0.358081,-0.542237 -0.358081,-1.309554 0,-0.675239 0.266003,-1.094706 0.266003,-0.424582 0.711047,-0.665008 0.445044,-0.240426 0.982166,-0.358082 0.542237,-0.12277 1.08959,-0.194387 0.716163,-0.09208 1.161207,-0.138117 0.450159,-0.05115 0.654777,-0.168809 0.209733,-0.117656 0.209733,-0.409236 v -0.04092 q 0,-0.757086 -0.414351,-1.176553 -0.409236,-0.419466 -1.243054,-0.419466 -0.86451,0 -1.355593,0.378543 -0.491083,0.378543 -0.690586,0.80824 l -1.14586,-0.409235 q 0.306927,-0.716163 0.818472,-1.115168 0.51666,-0.40412 1.125398,-0.562699 0.613854,-0.163694 1.207246,-0.163694 0.378543,0 0.869626,0.09208 0.496198,0.08696 0.956589,0.363196 0.465505,0.276235 0.772432,0.833818 0.306927,0.557584 0.306927,1.493711 v 5.176833 h -1.207246 v -1.064013 h -0.06139 q -0.122771,0.255772 -0.409236,0.547353 -0.286465,0.29158 -0.762201,0.496198 -0.475737,0.204618 -1.161207,0.204618 z m 0.184156,-1.084475 q 0.716163,0 1.207246,-0.28135 0.496198,-0.281349 0.746855,-0.726393 0.255772,-0.445044 0.255772,-0.936127 v -1.104937 q -0.07673,0.09208 -0.337619,0.16881 -0.255773,0.07162 -0.593392,0.127886 -0.332504,0.05115 -0.649662,0.09208 -0.312042,0.03581 -0.506429,0.06139 -0.470621,0.06139 -0.879857,0.199502 -0.40412,0.133002 -0.654777,0.404121 -0.245542,0.266003 -0.245542,0.726393 0,0.6292 0.465506,0.951473 0.470621,0.317158 1.191899,0.317158 z m -10.578736,0.900319 v -7.857327 h 3.212501 q 1.268631,0 2.015487,0.57293 0.746855,0.57293 0.746855,1.514172 0,0.716163 -0.424582,1.110052 -0.424582,0.388774 -1.089591,0.526891 0.434813,0.06139 0.844049,0.306927 0.414352,0.245542 0.68547,0.675239 0.271119,0.424582 0.271119,1.043551 0,0.603623 -0.306927,1.07936 -0.306927,0.475736 -0.879857,0.751971 -0.57293,0.276234 -1.37094,0.276234 z m 1.145861,-1.104937 h 2.557723 q 0.624085,0 0.977051,-0.296696 0.352966,-0.296696 0.352966,-0.80824 0,-0.608739 -0.352966,-0.956589 -0.352966,-0.352966 -0.977051,-0.352966 h -2.557723 z m 0,-3.458042 h 2.06664 q 0.485968,0 0.833818,-0.133002 0.347851,-0.138117 0.532007,-0.388774 0.189271,-0.255772 0.189271,-0.603623 0,-0.496198 -0.414351,-0.777548 -0.414351,-0.286465 -1.140745,-0.286465 h -2.06664 z m -6.547762,4.726673 q -1.064013,0 -1.867139,-0.506429 -0.798009,-0.506429 -1.248169,-1.416979 -0.445044,-0.91055 -0.445044,-2.128026 0,-1.227708 0.445044,-2.143373 0.45016,-0.915665 1.248169,-1.422094 0.803126,-0.506429 1.867139,-0.506429 1.064013,0 1.862023,0.506429 0.803125,0.506429 1.248169,1.422094 0.450159,0.915665 0.450159,2.143373 0,1.217476 -0.450159,2.128026 -0.445044,0.91055 -1.248169,1.416979 -0.79801,0.506429 -1.862023,0.506429 z m 0,-1.084475 q 0.80824,0 1.330016,-0.414351 0.521776,-0.414351 0.772433,-1.08959 0.250657,-0.675239 0.250657,-1.463018 0,-0.787779 -0.250657,-1.468134 -0.250657,-0.680354 -0.772433,-1.099821 -0.521776,-0.419467 -1.330016,-0.419467 -0.808241,0 -1.330017,0.419467 -0.521775,0.419467 -0.772432,1.099821 -0.250657,0.680355 -0.250657,1.468134 0,0.787779 0.250657,1.463018 0.250657,0.675239 0.772432,1.08959 0.521776,0.414351 1.330017,0.414351 z M 40.045074,90.103678 V 79.299854 h 1.166322 v 1.248169 h 0.143232 q 0.133002,-0.204618 0.368312,-0.521776 0.240426,-0.322273 0.68547,-0.57293 0.45016,-0.255772 1.217477,-0.255772 0.992397,0 1.749483,0.496198 0.757086,0.496198 1.181668,1.406748 0.424582,0.91055 0.424582,2.148488 0,1.248169 -0.424582,2.163834 -0.424582,0.91055 -1.176553,1.411864 -0.751971,0.496198 -1.734136,0.496198 -0.757087,0 -1.212362,-0.250657 -0.455274,-0.255772 -0.700816,-0.578045 -0.245541,-0.327389 -0.378543,-0.542238 h -0.102309 v 4.153743 z m 1.186783,-6.875161 q 0,0.890088 0.260888,1.570443 0.260888,0.675239 0.762202,1.058897 0.501314,0.378543 1.227707,0.378543 0.757086,0 1.263516,-0.399005 0.511544,-0.40412 0.767317,-1.084474 0.260888,-0.68547 0.260888,-1.524404 0,-0.828702 -0.255773,-1.49371 -0.250657,-0.670124 -0.762201,-1.058898 -0.50643,-0.39389 -1.273747,-0.39389 -0.736624,0 -1.237938,0.373428 -0.501314,0.368312 -0.757086,1.033321 -0.255773,0.659892 -0.255773,1.539749 z m -3.846793,-6.875161 0.613853,0.736624 q -0.358081,0.347851 -0.828702,0.485968 -0.470621,0.138117 -1.064013,0.16881 -0.593392,0.03069 -1.319786,0.06139 -0.818471,0.03069 -1.355593,0.399005 -0.537122,0.368312 -0.828703,1.064013 -0.29158,0.695701 -0.373427,1.708559 h 0.102308 q 0.399005,-0.736624 1.104937,-1.084475 0.705932,-0.34785 1.514173,-0.34785 0.92078,0 1.657405,0.429698 0.736624,0.429697 1.166322,1.273746 0.429697,0.844049 0.429697,2.081987 0,1.232823 -0.439928,2.128026 -0.434813,0.895204 -1.222592,1.381171 -0.782664,0.480852 -1.836446,0.480852 -1.053782,0 -1.846676,-0.496198 -0.792895,-0.501314 -1.232823,-1.48348 -0.439929,-0.987281 -0.439929,-2.440068 V 82.0622 q 0,-2.624224 0.890088,-3.979818 0.895203,-1.355593 2.690725,-1.401632 0.634316,-0.02046 1.130514,-0.01023 0.496199,0.01023 0.864511,-0.04604 0.368312,-0.05627 0.624085,-0.271119 z M 34.704569,86.2364 q 0.711047,0 1.222592,-0.358081 0.51666,-0.358081 0.792894,-1.007743 0.276235,-0.654777 0.276235,-1.53975 0,-0.859395 -0.28135,-1.463018 -0.276234,-0.603623 -0.792894,-0.92078 -0.516661,-0.317158 -1.237939,-0.317158 -0.526891,0 -0.946357,0.179041 -0.419467,0.17904 -0.716163,0.526891 -0.296696,0.34785 -0.46039,0.849164 -0.158579,0.501314 -0.16881,1.14586 0,1.319786 0.618969,2.11268 0.618969,0.792894 1.693213,0.792894 z" />
          </g>
        </g>
        <g
           id="data-label=щока">
          <path
             d="m 233,269.5 c 0,-6.904 5.596,-12.5 12.5,-12.5 h 23 c 6.904,0 12.5,5.596 12.5,12.5 v 0 c 0,6.904 -5.596,12.5 -12.5,12.5 h -23 c -6.904,0 -12.5,-5.596 -12.5,-12.5 z"
             fill="#ecf0f2"
             id="path27" />
          <g
             aria-label="щока"
             id="text1887"
             fill="#000000">
            <path
               id="path3128"
               d="m 271.43431,273.8661 q -0.74686,0 -1.3556,-0.28135 -0.60873,-0.28646 -0.96682,-0.82358 -0.35808,-0.54224 -0.35808,-1.30956 0,-0.67524 0.26601,-1.09471 0.266,-0.42458 0.71104,-0.665 0.44505,-0.24043 0.98217,-0.35808 0.54224,-0.12278 1.08959,-0.19439 0.71616,-0.0921 1.16121,-0.13812 0.45016,-0.0512 0.65477,-0.16881 0.20974,-0.11765 0.20974,-0.40923 v -0.0409 q 0,-0.75708 -0.41435,-1.17655 -0.40924,-0.41947 -1.24306,-0.41947 -0.86451,0 -1.35559,0.37855 -0.49108,0.37854 -0.69059,0.80824 l -1.14586,-0.40924 q 0.30693,-0.71616 0.81847,-1.11517 0.51666,-0.40412 1.1254,-0.5627 0.61386,-0.16369 1.20725,-0.16369 0.37854,0 0.86962,0.0921 0.4962,0.087 0.95659,0.36319 0.46551,0.27624 0.77244,0.83382 0.30692,0.55759 0.30692,1.49371 v 5.17684 h -1.20724 v -1.06402 h -0.0614 q -0.12277,0.25578 -0.40923,0.54736 -0.28647,0.29158 -0.76221,0.49619 -0.47573,0.20462 -1.1612,0.20462 z m 0.18415,-1.08447 q 0.71617,0 1.20725,-0.28135 0.4962,-0.28135 0.74685,-0.7264 0.25578,-0.44504 0.25578,-0.93612 v -1.10494 q -0.0767,0.0921 -0.33762,0.16881 -0.25577,0.0716 -0.59339,0.12789 -0.33251,0.0512 -0.64967,0.0921 -0.31204,0.0358 -0.50643,0.0614 -0.47062,0.0614 -0.87985,0.1995 -0.40412,0.133 -0.65478,0.40412 -0.24554,0.26601 -0.24554,0.7264 0,0.6292 0.4655,0.95147 0.47063,0.31716 1.1919,0.31716 z m -10.23087,0.90032 v -7.85733 h 1.20725 v 3.41712 h 0.79801 l 2.82373,-3.41712 h 1.55509 l -3.17157,3.78543 3.2125,4.0719 h -1.5551 l -2.57819,-3.31481 h -1.08447 v 3.31481 z m -5.4019,0.16369 q -1.06401,0 -1.86713,-0.50643 -0.79801,-0.50643 -1.24817,-1.41698 -0.44505,-0.91055 -0.44505,-2.12802 0,-1.22771 0.44505,-2.14338 0.45016,-0.91566 1.24817,-1.42209 0.80312,-0.50643 1.86713,-0.50643 1.06402,0 1.86203,0.50643 0.80312,0.50643 1.24817,1.42209 0.45016,0.91567 0.45016,2.14338 0,1.21747 -0.45016,2.12802 -0.44505,0.91055 -1.24817,1.41698 -0.79801,0.50643 -1.86203,0.50643 z m 0,-1.08447 q 0.80825,0 1.33002,-0.41436 0.52178,-0.41435 0.77243,-1.08959 0.25066,-0.67524 0.25066,-1.46301 0,-0.78778 -0.25066,-1.46814 -0.25065,-0.68035 -0.77243,-1.09982 -0.52177,-0.41947 -1.33002,-0.41947 -0.80824,0 -1.33001,0.41947 -0.52178,0.41947 -0.77243,1.09982 -0.25066,0.68036 -0.25066,1.46814 0,0.78777 0.25066,1.46301 0.25065,0.67524 0.77243,1.08959 0.52177,0.41436 1.33001,0.41436 z m -4.86988,-0.20462 -0.14323,3.37619 h -1.24817 v -2.25079 h -1.02309 v -1.1254 z m -10.72198,-6.73193 h 1.20725 v 6.73193 h 2.96696 v -6.73193 h 1.20724 v 6.73193 h 2.96696 v -6.73193 h 1.20725 v 7.85733 h -9.55566 z" />
          </g>
        </g>
        <g
           id="data-label=волосся">
          <path
             d="M 262,39.5 C 262,32.5964 267.596,27 274.5,27 h 43 c 6.904,0 12.5,5.5964 12.5,12.5 v 0 c 0,6.9036 -5.596,12.5 -12.5,12.5 h -43 C 267.596,52 262,46.4036 262,39.5 Z"
             fill="#ecf0f2"
             id="path31" />
          <g
             aria-label="волосся"
             id="text1891"
             fill="#000000">
            <path
               id="path3143"
               d="m 322.75458,44.210163 v -6.75239 h -2.0871 q -0.70593,0 -1.11005,0.327388 -0.40412,0.327389 -0.40412,0.900319 0,0.562699 0.3632,0.884972 0.36831,0.322274 1.00774,0.322274 h 2.53726 v 1.125398 h -2.53726 q -0.79801,0 -1.37606,-0.28135 -0.57804,-0.281349 -0.89008,-0.803125 -0.31205,-0.526891 -0.31205,-1.248169 0,-0.726394 0.32739,-1.248169 0.32739,-0.521776 0.93613,-0.803125 0.61385,-0.28135 1.4579,-0.28135 h 3.23296 v 7.857327 z m -5.23821,0 2.23033,-3.908202 h 1.30956 l -2.23034,3.908202 z m -4.33788,0.163694 q -1.10494,0 -1.90295,-0.521775 -0.798,-0.521776 -1.2277,-1.437441 -0.4297,-0.915665 -0.4297,-2.092218 0,-1.197015 0.43993,-2.11268 0.44504,-0.92078 1.23794,-1.43744 0.79801,-0.521776 1.86202,-0.521776 0.8287,0 1.49371,0.306927 0.66501,0.306927 1.08959,0.859395 0.42458,0.552468 0.52689,1.289093 h -1.20724 q -0.13812,-0.537122 -0.61386,-0.951473 -0.47062,-0.419467 -1.26863,-0.419467 -0.70593,0 -1.23794,0.368312 -0.52689,0.363197 -0.82358,1.028205 -0.29158,0.659893 -0.29158,1.549981 0,0.910549 0.28646,1.585788 0.29158,0.675239 0.81847,1.048667 0.53201,0.373428 1.24817,0.373428 0.47062,0 0.85428,-0.163695 0.38366,-0.163694 0.64966,-0.470621 0.26601,-0.306927 0.37855,-0.736624 h 1.20724 q -0.10231,0.695701 -0.50643,1.253284 -0.399,0.552469 -1.0589,0.879857 -0.65477,0.322273 -1.5244,0.322273 z m -8.04146,0 q -1.10494,0 -1.90295,-0.521775 -0.79801,-0.521776 -1.2277,-1.437441 -0.4297,-0.915665 -0.4297,-2.092218 0,-1.197015 0.43993,-2.11268 0.44504,-0.92078 1.23793,-1.43744 0.79801,-0.521776 1.86203,-0.521776 0.8287,0 1.49371,0.306927 0.66501,0.306927 1.08959,0.859395 0.42458,0.552468 0.52689,1.289093 h -1.20725 q -0.13811,-0.537122 -0.61385,-0.951473 -0.47062,-0.419467 -1.26863,-0.419467 -0.70593,0 -1.23794,0.368312 -0.52689,0.363197 -0.82359,1.028205 -0.29158,0.659893 -0.29158,1.549981 0,0.910549 0.28647,1.585788 0.29158,0.675239 0.81847,1.048667 0.53201,0.373428 1.24817,0.373428 0.47062,0 0.85428,-0.163695 0.38366,-0.163694 0.64966,-0.470621 0.266,-0.306927 0.37854,-0.736624 h 1.20725 q -0.10231,0.695701 -0.50643,1.253284 -0.399,0.552469 -1.0589,0.879857 -0.65477,0.322273 -1.5244,0.322273 z m -8.59394,0 q -1.06401,0 -1.86714,-0.506429 -0.79801,-0.506429 -1.24817,-1.416979 -0.44504,-0.910549 -0.44504,-2.128026 0,-1.227707 0.44504,-2.143372 0.45016,-0.915665 1.24817,-1.422095 0.80313,-0.506429 1.86714,-0.506429 1.06401,0 1.86202,0.506429 0.80313,0.50643 1.24817,1.422095 0.45016,0.915665 0.45016,2.143372 0,1.217477 -0.45016,2.128026 -0.44504,0.91055 -1.24817,1.416979 -0.79801,0.506429 -1.86202,0.506429 z m 0,-1.084474 q 0.80824,0 1.33001,-0.414352 0.52178,-0.414351 0.77244,-1.08959 0.25065,-0.675239 0.25065,-1.463018 0,-0.787779 -0.25065,-1.468133 -0.25066,-0.680355 -0.77244,-1.099821 -0.52177,-0.419467 -1.33001,-0.419467 -0.80824,0 -1.33002,0.419467 -0.52177,0.419466 -0.77243,1.099821 -0.25066,0.680354 -0.25066,1.468133 0,0.787779 0.25066,1.463018 0.25066,0.675239 0.77243,1.08959 0.52178,0.414352 1.33002,0.414352 z m -12.37936,0.92078 v -1.125398 h 0.28646 q 0.35297,0 0.58828,-0.138117 0.23531,-0.143233 0.37854,-0.496199 0.14835,-0.358081 0.22508,-0.992397 0.0819,-0.639431 0.11766,-1.626712 l 0.14323,-3.478504 h 5.23822 v 7.857327 h -1.20725 v -6.731929 h -2.88511 l -0.12277,2.803266 q -0.0409,0.966819 -0.17392,1.703443 -0.12789,0.731509 -0.39389,1.227708 -0.26089,0.496198 -0.6957,0.746855 -0.43482,0.250657 -1.08959,0.250657 z m -4.7062,0.163694 q -1.06401,0 -1.86714,-0.506429 -0.79801,-0.506429 -1.24817,-1.416979 -0.44504,-0.910549 -0.44504,-2.128026 0,-1.227707 0.44504,-2.143372 0.45016,-0.915665 1.24817,-1.422095 0.80313,-0.506429 1.86714,-0.506429 1.06401,0 1.86202,0.506429 0.80313,0.50643 1.24817,1.422095 0.45016,0.915665 0.45016,2.143372 0,1.217477 -0.45016,2.128026 -0.44504,0.91055 -1.24817,1.416979 -0.79801,0.506429 -1.86202,0.506429 z m 0,-1.084474 q 0.80824,0 1.33002,-0.414352 0.52177,-0.414351 0.77243,-1.08959 0.25066,-0.675239 0.25066,-1.463018 0,-0.787779 -0.25066,-1.468133 -0.25066,-0.680355 -0.77243,-1.099821 -0.52178,-0.419467 -1.33002,-0.419467 -0.80824,0 -1.33002,0.419467 -0.52177,0.419466 -0.77243,1.099821 -0.25066,0.680354 -0.25066,1.468133 0,0.787779 0.25066,1.463018 0.25066,0.675239 0.77243,1.08959 0.52178,0.414352 1.33002,0.414352 z m -11.27444,0.92078 v -7.857327 h 3.2125 q 1.26863,0 2.01549,0.57293 0.74685,0.57293 0.74685,1.514172 0,0.716163 -0.42458,1.110053 -0.42458,0.388774 -1.08959,0.526891 0.43482,0.06139 0.84405,0.306926 0.41435,0.245542 0.68547,0.67524 0.27112,0.424582 0.27112,1.043551 0,0.603623 -0.30693,1.079359 -0.30692,0.475737 -0.87985,0.751971 -0.57293,0.276234 -1.37094,0.276234 z m 1.14586,-1.104937 h 2.55773 q 0.62408,0 0.97705,-0.296695 0.35296,-0.296696 0.35296,-0.808241 0,-0.608738 -0.35296,-0.956589 -0.35297,-0.352966 -0.97705,-0.352966 h -2.55773 z m 0,-3.458042 h 2.06664 q 0.48597,0 0.83382,-0.133002 0.34785,-0.138117 0.53201,-0.388774 0.18927,-0.255772 0.18927,-0.603622 0,-0.496199 -0.41435,-0.777548 -0.41435,-0.286465 -1.14075,-0.286465 h -2.06664 z" />
          </g>
        </g>
        <g
           id="data-label=око">
          <path
             d="m 55.081021,140.50785 c 0,-6.90407 5.596397,-12.50006 12.499994,-12.50006 h 15.000002 c 6.903602,0 12.500002,5.59599 12.500002,12.50006 v 0 c 0,6.90401 -5.5964,12.50007 -12.500002,12.50007 H 67.581015 c -6.903597,0 -12.499994,-5.59606 -12.499994,-12.50007 z"
             fill="#ecf0f2"
             id="path2167"
             style="stroke-width:1" />
          <g
             aria-label="око"
             id="text1895"
             fill="#000000">
            <path
               id="path3150"
               d="m 83.167337,144.58356 q -1.064013,0 -1.867138,-0.50643 -0.79801,-0.50643 -1.248169,-1.41698 -0.445044,-0.91055 -0.445044,-2.12803 0,-1.22771 0.445044,-2.14337 0.450159,-0.91567 1.248169,-1.4221 0.803125,-0.50643 1.867138,-0.50643 1.064013,0 1.862023,0.50643 0.803125,0.50643 1.248169,1.4221 0.45016,0.91566 0.45016,2.14337 0,1.21748 -0.45016,2.12803 -0.445044,0.91055 -1.248169,1.41698 -0.79801,0.50643 -1.862023,0.50643 z m 0,-1.08448 q 0.808241,0 1.330016,-0.41435 0.521776,-0.41435 0.772433,-1.08959 0.250657,-0.67524 0.250657,-1.46302 0,-0.78778 -0.250657,-1.46813 -0.250657,-0.68036 -0.772433,-1.09982 -0.521775,-0.41947 -1.330016,-0.41947 -0.808241,0 -1.330016,0.41947 -0.521776,0.41946 -0.772433,1.09982 -0.250657,0.68035 -0.250657,1.46813 0,0.78778 0.250657,1.46302 0.250657,0.67524 0.772433,1.08959 0.521775,0.41435 1.330016,0.41435 z m -10.599172,0.92078 v -7.85733 h 1.207245 v 3.41712 h 0.79801 l 2.823727,-3.41712 h 1.555096 l -3.171577,3.78543 3.212501,4.0719 h -1.555096 l -2.578186,-3.31481 H 73.77541 v 3.31481 z m -5.4019,0.1637 q -1.064013,0 -1.867138,-0.50643 -0.79801,-0.50643 -1.248169,-1.41698 -0.445044,-0.91055 -0.445044,-2.12803 0,-1.22771 0.445044,-2.14337 0.450159,-0.91567 1.248169,-1.4221 0.803125,-0.50643 1.867138,-0.50643 1.064013,0 1.862023,0.50643 0.803125,0.50643 1.248169,1.4221 0.45016,0.91566 0.45016,2.14337 0,1.21748 -0.45016,2.12803 -0.445044,0.91055 -1.248169,1.41698 -0.79801,0.50643 -1.862023,0.50643 z m 0,-1.08448 q 0.808241,0 1.330017,-0.41435 0.521775,-0.41435 0.772432,-1.08959 0.250657,-0.67524 0.250657,-1.46302 0,-0.78778 -0.250657,-1.46813 -0.250657,-0.68036 -0.772432,-1.09982 -0.521776,-0.41947 -1.330017,-0.41947 -0.80824,0 -1.330016,0.41947 -0.521776,0.41946 -0.772433,1.09982 -0.250657,0.68035 -0.250657,1.46813 0,0.78778 0.250657,1.46302 0.250657,0.67524 0.772433,1.08959 0.521776,0.41435 1.330016,0.41435 z" />
          </g>
        </g>
        <g
           id="data-label=вухо">
          <path
             d="m 223,198.5 c 0,-6.904 5.596,-12.5 12.5,-12.5 h 20 c 6.904,0 12.5,5.596 12.5,12.5 v 0 c 0,6.904 -5.596,12.5 -12.5,12.5 h -20 c -6.904,0 -12.5,-5.596 -12.5,-12.5 z"
             fill="#ecf0f2"
             id="path39" />
          <g
             aria-label="вухо"
             id="text1899"
             fill="#000000">
            <path
               id="path3159"
               d="m 257.87428,203.53044 q -1.06401,0 -1.86713,-0.50643 -0.79801,-0.50643 -1.24817,-1.41698 -0.44505,-0.91055 -0.44505,-2.12803 0,-1.2277 0.44505,-2.14337 0.45016,-0.91566 1.24817,-1.42209 0.80312,-0.50643 1.86713,-0.50643 1.06402,0 1.86203,0.50643 0.80312,0.50643 1.24817,1.42209 0.45016,0.91567 0.45016,2.14337 0,1.21748 -0.45016,2.12803 -0.44505,0.91055 -1.24817,1.41698 -0.79801,0.50643 -1.86203,0.50643 z m 0,-1.08448 q 0.80825,0 1.33002,-0.41435 0.52178,-0.41435 0.77243,-1.08959 0.25066,-0.67524 0.25066,-1.46302 0,-0.78777 -0.25066,-1.46813 -0.25065,-0.68035 -0.77243,-1.09982 -0.52177,-0.41947 -1.33002,-0.41947 -0.80824,0 -1.33001,0.41947 -0.52178,0.41947 -0.77243,1.09982 -0.25066,0.68036 -0.25066,1.46813 0,0.78778 0.25066,1.46302 0.25065,0.67524 0.77243,1.08959 0.52177,0.41435 1.33001,0.41435 z m -9.73979,-6.93654 1.88249,3.2125 1.88248,-3.2125 h 1.3914 l -2.53726,3.92866 2.53726,3.92866 h -1.3914 l -1.88248,-3.0488 -1.88249,3.0488 h -1.3914 l 2.49634,-3.92866 -2.49634,-3.92866 z m -8.14379,10.80382 q -0.30692,0 -0.54735,-0.0512 -0.24043,-0.046 -0.33251,-0.0921 l 0.30693,-1.06401 q 0.43993,0.11254 0.77755,0.0818 0.33762,-0.0307 0.59851,-0.30181 0.266,-0.266 0.48596,-0.86451 l 0.22508,-0.61385 -2.90557,-7.89825 h 1.30955 l 2.16895,6.26131 h 0.0819 l 2.16895,-6.26131 h 1.30956 l -3.33528,9.00319 q -0.22508,0.60873 -0.55758,1.00774 -0.3325,0.40412 -0.77243,0.59851 -0.43482,0.19438 -0.98217,0.19438 z m -8.85995,-2.9465 v -7.85732 h 3.21251 q 1.26863,0 2.01548,0.57293 0.74686,0.57293 0.74686,1.51417 0,0.71616 -0.42459,1.11005 -0.42458,0.38878 -1.08959,0.52689 0.43482,0.0614 0.84405,0.30693 0.41435,0.24554 0.68547,0.67524 0.27112,0.42458 0.27112,1.04355 0,0.60362 -0.30692,1.07936 -0.30693,0.47574 -0.87986,0.75197 -0.57293,0.27623 -1.37094,0.27623 z m 1.14586,-1.10493 h 2.55773 q 0.62408,0 0.97705,-0.2967 0.35296,-0.29669 0.35296,-0.80824 0,-0.60874 -0.35296,-0.95659 -0.35297,-0.35296 -0.97705,-0.35296 h -2.55773 z m 0,-3.45804 h 2.06665 q 0.48596,0 0.83381,-0.13301 0.34785,-0.13811 0.53201,-0.38877 0.18927,-0.25577 0.18927,-0.60362 0,-0.4962 -0.41435,-0.77755 -0.41435,-0.28647 -1.14074,-0.28647 h -2.06665 z" />
          </g>
        </g>
        <g
           id="data-label=ніс">
          <path
             d="m 43.235734,171.76751 c 0,-6.90407 5.596397,-12.50006 12.499994,-12.50006 H 70.73573 c 6.903602,0 12.500002,5.59599 12.500002,12.50006 v 0 c 0,6.90401 -5.5964,12.50007 -12.500002,12.50007 H 55.735728 c -6.903597,0 -12.499994,-5.59606 -12.499994,-12.50007 z"
             fill="#ecf0f2"
             id="path2662"
             style="stroke-width:1" />
          <g
             aria-label="ніс"
             id="text1903"
             fill="#000000">
            <path
               id="path3166"
               d="m 68.867522,176.5833 q -1.104937,0 -1.902946,-0.52178 -0.79801,-0.52178 -1.227708,-1.43744 -0.429697,-0.91567 -0.429697,-2.09222 0,-1.19701 0.439928,-2.11268 0.445044,-0.92078 1.237938,-1.43744 0.79801,-0.52177 1.862023,-0.52177 0.828703,0 1.493711,0.30692 0.665008,0.30693 1.08959,0.8594 0.424582,0.55247 0.526891,1.28909 h -1.207245 q -0.138117,-0.53712 -0.613854,-0.95147 -0.470621,-0.41947 -1.268631,-0.41947 -0.705932,0 -1.237938,0.36831 -0.526891,0.3632 -0.823587,1.02821 -0.291581,0.65989 -0.291581,1.54998 0,0.91055 0.286465,1.58579 0.291581,0.67524 0.818472,1.04866 0.532006,0.37343 1.248169,0.37343 0.470621,0 0.85428,-0.16369 0.383658,-0.1637 0.649661,-0.47062 0.266004,-0.30693 0.378544,-0.73663 h 1.207245 q -0.102309,0.6957 -0.506429,1.25329 -0.399005,0.55246 -1.058898,0.87985 -0.654777,0.32228 -1.524403,0.32228 z m -6.609146,-0.1637 v -7.85733 h 1.207246 v 7.85733 z m 0.613854,-9.16688 q -0.352966,0 -0.608738,-0.24043 -0.250657,-0.24042 -0.250657,-0.57804 0,-0.33762 0.250657,-0.57805 0.255772,-0.24042 0.608738,-0.24042 0.352966,0 0.603623,0.24042 0.255772,0.24043 0.255772,0.57805 0,0.33762 -0.255772,0.57804 -0.250657,0.24043 -0.603623,0.24043 z m -3.744503,4.68575 v 1.1254 h -4.337899 v -1.1254 z m -4.051434,-3.3762 v 7.85733 h -1.207246 v -7.85733 z m 4.972215,0 v 7.85733 h -1.207246 v -7.85733 z" />
          </g>
        </g>
        <g
           id="data-label=шия">
          <path
             d="m 245.06262,232.31503 c 0,-6.904 5.5964,-12.5 12.5,-12.5 h 15.00003 c 6.90359,0 12.49998,5.596 12.49998,12.5 v 0 c 0,6.904 -5.59639,12.5 -12.49998,12.5 h -15.00003 c -6.9036,0 -12.5,-5.596 -12.5,-12.5 z"
             fill="#ecf0f2"
             id="path2659" />
          <g
             aria-label="шия"
             id="text2655"
             fill="#000000">
            <path
               id="path3173"
               d="m 277.26935,236.62964 v -6.75239 h -2.0871 q -0.70593,0 -1.11005,0.32739 -0.40412,0.32739 -0.40412,0.90032 0,0.56269 0.36319,0.88497 0.36831,0.32227 1.00775,0.32227 h 2.53726 v 1.1254 h -2.53726 q -0.79801,0 -1.37606,-0.28135 -0.57805,-0.28135 -0.89009,-0.80313 -0.31204,-0.52689 -0.31204,-1.24816 0,-0.7264 0.32739,-1.24817 0.32739,-0.52178 0.93613,-0.80313 0.61385,-0.28135 1.4579,-0.28135 h 3.23296 v 7.85733 z m -5.23822,0 2.23034,-3.9082 h 1.30955 l -2.23033,3.9082 z m -6.87515,-1.78018 3.78543,-6.07715 h 1.39141 v 7.85733 h -1.20725 v -6.07715 l -3.76497,6.07715 h -1.41186 v -7.85733 h 1.20724 z m -12.97277,-6.07715 h 1.20725 v 6.73193 h 2.96696 v -6.73193 h 1.20724 v 6.73193 h 2.96696 v -6.73193 h 1.20725 v 7.85733 h -9.55566 z" />
          </g>
        </g>
        <g
           id="data-label=рот">
          <path
             d="M 52,204.5 C 52,197.596 57.5964,192 64.5,192 h 15 c 6.9036,0 12.5,5.596 12.5,12.5 v 0 c 0,6.904 -5.5964,12.5 -12.5,12.5 h -15 C 57.5964,217 52,211.404 52,204.5 Z"
             fill="#ecf0f2"
             id="path51" />
          <g
             aria-label="рот"
             id="text1911"
             fill="#000000">
            <path
               id="path3180"
               d="m 77.375816,202.5295 v -1.1254 h 6.384078 v 1.1254 h -2.578185 v 6.73193 h -1.207246 v -6.73193 z m -4.378794,6.89562 q -1.064013,0 -1.867138,-0.50643 -0.79801,-0.50643 -1.248169,-1.41698 -0.445044,-0.91054 -0.445044,-2.12802 0,-1.22771 0.445044,-2.14337 0.450159,-0.91567 1.248169,-1.4221 0.803125,-0.50643 1.867138,-0.50643 1.064013,0 1.862023,0.50643 0.803125,0.50643 1.248169,1.4221 0.45016,0.91566 0.45016,2.14337 0,1.21748 -0.45016,2.12802 -0.445044,0.91055 -1.248169,1.41698 -0.79801,0.50643 -1.862023,0.50643 z m 0,-1.08447 q 0.808241,0 1.330017,-0.41435 0.521775,-0.41435 0.772432,-1.08959 0.250657,-0.67524 0.250657,-1.46302 0,-0.78778 -0.250657,-1.46813 -0.250657,-0.68036 -0.772432,-1.09983 -0.521776,-0.41946 -1.330017,-0.41946 -0.80824,0 -1.330016,0.41946 -0.521776,0.41947 -0.772433,1.09983 -0.250656,0.68035 -0.250656,1.46813 0,0.78778 0.250656,1.46302 0.250657,0.67524 0.772433,1.08959 0.521776,0.41435 1.330016,0.41435 z m -11.970119,3.86728 V 201.4041 h 1.166322 v 1.24817 h 0.143233 q 0.133001,-0.20462 0.368312,-0.52177 0.240426,-0.32228 0.68547,-0.57293 0.450159,-0.25578 1.217476,-0.25578 0.992397,0 1.749483,0.4962 0.757087,0.4962 1.181669,1.40675 0.424582,0.91055 0.424582,2.14849 0,1.24817 -0.424582,2.16383 -0.424582,0.91055 -1.176553,1.41186 -0.751971,0.4962 -1.734137,0.4962 -0.757086,0 -1.212361,-0.25065 -0.455275,-0.25578 -0.700816,-0.57805 -0.245542,-0.32739 -0.378543,-0.54224 h -0.102309 v 4.15375 z m 1.186784,-6.87516 q 0,0.89008 0.260888,1.57044 0.260888,0.67524 0.762201,1.0589 0.501314,0.37854 1.227708,0.37854 0.757086,0 1.263515,-0.39901 0.511545,-0.40412 0.767317,-1.08447 0.260888,-0.68547 0.260888,-1.5244 0,-0.82871 -0.255772,-1.49372 -0.250657,-0.67012 -0.762202,-1.05889 -0.506429,-0.39389 -1.273746,-0.39389 -0.736625,0 -1.237938,0.37343 -0.501314,0.36831 -0.757087,1.03332 -0.255772,0.65989 -0.255772,1.53975 z" />
          </g>
        </g>
        <g
           id="data-label=лоб">
          <path
             d="m 82.028168,64.428521 c 0,-6.904 5.596397,-12.5 12.499994,-12.5 h 14.999998 c 6.90361,0 12.50001,5.596 12.50001,12.5 v 0 c 0,6.904 -5.5964,12.5 -12.50001,12.5 H 94.528162 c -6.903597,0 -12.499994,-5.596 -12.499994,-12.5 z"
             fill="#ecf0f2"
             id="path2174" />
          <g
             aria-label="лоб"
             id="text1227"
             fill="#000000">
            <path
               id="path3187"
               d="m 113.41751,58.248238 0.61385,0.736625 q -0.35808,0.34785 -0.8287,0.485967 -0.47062,0.138117 -1.06401,0.16881 -0.5934,0.03069 -1.31979,0.06139 -0.81847,0.03069 -1.35559,0.399005 -0.53713,0.368312 -0.82871,1.064013 -0.29158,0.695701 -0.37342,1.70856 h 0.10231 q 0.399,-0.736625 1.10493,-1.084475 0.70593,-0.347851 1.51417,-0.347851 0.92079,0 1.65741,0.429698 0.73662,0.429697 1.16632,1.273746 0.4297,0.844049 0.4297,2.081987 0,1.232823 -0.43993,2.128026 -0.43481,0.895204 -1.22259,1.381171 -0.78266,0.480852 -1.83645,0.480852 -1.05378,0 -1.84667,-0.496198 -0.7929,-0.501314 -1.23283,-1.48348 -0.43992,-0.987281 -0.43992,-2.440068 v -0.838934 q 0,-2.624224 0.89008,-3.979818 0.89521,-1.355593 2.69073,-1.401632 0.63431,-0.02046 1.13051,-0.01023 0.4962,0.01023 0.86451,-0.04604 0.36832,-0.05627 0.62409,-0.271119 z m -2.6805,9.883044 q 0.71105,0 1.2226,-0.358081 0.51666,-0.358081 0.79289,-1.007743 0.27623,-0.654777 0.27623,-1.53975 0,-0.859395 -0.28135,-1.463018 -0.27623,-0.603622 -0.79289,-0.92078 -0.51666,-0.317158 -1.23794,-0.317158 -0.52689,0 -0.94636,0.179041 -0.41946,0.17904 -0.71616,0.526891 -0.2967,0.34785 -0.46039,0.849164 -0.15858,0.501314 -0.16881,1.14586 0,1.319786 0.61897,2.11268 0.61897,0.792894 1.69321,0.792894 z m -8.55301,1.084475 q -1.06402,0 -1.86714,-0.506429 -0.798011,-0.506429 -1.248171,-1.416979 -0.445044,-0.91055 -0.445044,-2.128026 0,-1.227707 0.445044,-2.143372 0.45016,-0.915666 1.248171,-1.422095 0.80312,-0.506429 1.86714,-0.506429 1.06401,0 1.86202,0.506429 0.80312,0.506429 1.24817,1.422095 0.45016,0.915665 0.45016,2.143372 0,1.217476 -0.45016,2.128026 -0.44505,0.91055 -1.24817,1.416979 -0.79801,0.506429 -1.86202,0.506429 z m 0,-1.084475 q 0.80824,0 1.33001,-0.414351 0.52178,-0.414351 0.77244,-1.08959 0.25065,-0.675239 0.25065,-1.463018 0,-0.787779 -0.25065,-1.468133 -0.25066,-0.680355 -0.77244,-1.099822 -0.52177,-0.419466 -1.33001,-0.419466 -0.80824,0 -1.33002,0.419466 -0.52178,0.419467 -0.77243,1.099822 -0.250659,0.680354 -0.250659,1.468133 0,0.787779 0.250659,1.463018 0.25065,0.675239 0.77243,1.08959 0.52178,0.414351 1.33002,0.414351 z m -12.379363,0.920781 v -1.125398 h 0.286465 q 0.352966,0 0.588276,-0.138118 0.235311,-0.143232 0.378543,-0.496198 0.148348,-0.358081 0.22508,-0.992397 0.08185,-0.639431 0.117655,-1.626712 l 0.143233,-3.478504 h 5.238218 v 7.857327 h -1.207246 v -6.731929 h -2.885112 l -0.122771,2.803265 q -0.04092,0.96682 -0.173925,1.703444 -0.127886,0.731509 -0.393889,1.227708 -0.260888,0.496198 -0.695701,0.746855 -0.434813,0.250657 -1.08959,0.250657 z" />
          </g>
        </g>
      </g>
      <g
         id="L6ug_k6rv_juuksed">
        <g
           id="Group">
          <path
             id="Vector"
             d="m 154.643,218.04 c 17.011,23.19 17.011,42.113 7.582,55.239 -1.324,1.842 -5.152,14.959 -3.09,16.001 3.867,1.953 19.176,4.798 22.634,3.301 45.933,-34.14 58.684,-41.07 55.731,-45.879 -28.97,-47.175 -26.394,-59.712 -26.394,-71.01"
             fill="#f6e4cd" />
          <path
             id="Vector_2"
             d="m 154.643,218.04 c 17.011,23.19 17.011,42.113 7.582,55.239 -1.324,1.842 -5.152,14.959 -3.09,16.001 3.867,1.953 19.176,4.798 22.634,3.301 45.933,-34.14 58.684,-41.07 55.731,-45.879 -28.97,-47.175 -26.394,-59.712 -26.394,-71.01"
             stroke="#000000"
             stroke-width="1.5"
             stroke-linecap="round"
             stroke-linejoin="round" />
        </g>
        <path
           id="Vector_3"
           d="m 107.976,216.854 c 1.167,4.29 -1.459,9.976 1.382,13.846 7.342,10.001 27.119,5.366 36.862,1.455 5.538,-2.224 11.861,-5.89 17.151,-8.56 8.639,-4.361 16.456,-7.369 25.111,-11.812 5.866,-3.012 8.939,-6.188 7.513,-12.985 -0.091,-0.434 -0.048,-2.396 -0.352,-2.686 -0.099,-0.095 -9.322,1.771 -12.209,2.126 -16.888,2.078 -34.117,2.857 -50.832,6.045 -4.039,0.77 -21.249,2.933 -23.479,5.485 -2.267,2.594 -0.487,7.989 -0.487,11.091"
           fill="#f6e4cd" />
        <path
           id="Vector_4"
           d="m 191.92,212.915 c 1.608,-2.619 22.342,-7.219 22.041,-8.041 -4.68,-12.818 -1.513,-24.938 -3.038,-29.367 -1.3,-3.776 -3.406,-7.453 -4.237,-11.369 -1.98,-9.337 -0.023,-13.674 -5.93,-24.328 -3.049,-5.498 -7.622,-11.328 -13.799,-13.325 -3.404,-1.1 -8.525,-0.297 -11.257,-3.056 -3.722,-3.759 -3.636,-9.907 -7.504,-13.814 -6.751,-6.818 -24.307,-12.9084 -33.528,-15.6478 -3.011,-0.8945 -16.057,-5.5194 -19.16,-3.4302 -3.075,2.07 -4.711,8.6687 -7.04,11.544 -9.5347,11.77 -7.405,25.579 -6.602,40.174 0.197,3.588 0.967,7.123 0.726,10.758 -0.313,4.743 -0.685,11.307 -3.3886,15.404 -1.1297,1.711 -5.5667,4.316 -5.8098,5.134 -2.1334,7.181 9.1734,10.894 9.8044,12.592 1.032,2.781 -3.099,3.765 -3.7526,5.745 -0.713,2.161 1.2526,4.975 2.1786,6.846 0.688,1.389 2.829,0.847 3.873,0.245 0.741,-0.428 1.873,-1.456 2.663,-1.589 3.982,-0.671 11.657,3.167 12.952,7.09 2.103,6.375 -11.063,4.488 -13.678,6.601 -1.265,1.023 0.758,7.07 0.968,8.558"
           fill="#f6e4cd" />
        <path
           id="Vector_5"
           d="m 123.021,204.874 c -4.299,0.399 -7.707,-3.118 -11.113,-4.913 -2.755,-1.452 -4.22,0.011 -6.754,0.742 -1.561,0.451 -4.191,-1.395 -4.273,-1.299 -0.546,0.643 2.552,4.306 2.986,5.058 0.533,0.922 0.866,2.442 1.838,2.97 1.362,0.741 15.613,0.384 16.266,-2.691"
           fill="#99343d" />
        <path
           id="Vector_6"
           d="m 123.021,85.7695 c -14.008,14.2107 -20.568,20.9715 -21.418,37.4515 -0.598,11.611 3.003,18.415 0.85,32.119 -0.689,4.391 -0.456,6.653 -5.4751,13.869 -1.2397,1.782 -2.2485,2.351 -2.8937,4.632 -1.29,4.559 1.2379,6.334 3.6958,8.571 0.4146,0.378 6.459,2.627 6.459,2.007 0,-0.275 -0.548,-0.049 -0.807,-0.136 -0.912,-0.307 -1.8,-0.678 -2.689,-1.087 -3.5686,-1.638 -5.7765,-4.019 -6.1852,-8.148 -0.2287,-2.31 7.2642,-8.508 8.2022,-13.716 0.776,-4.312 1.114,-17.267 0.672,-21.729 -0.683,-6.901 -1.948,-14.132 -0.807,-21.05 2.239,-13.565 9.668,-19.9937 20.396,-32.872"
           fill="#000000" />
        <path
           id="Vector_7"
           d="m 100.743,181.024 c -2.2826,-2.378 1.139,-2.6 3.092,-2.717 1.517,-0.089 3.201,-0.603 4.707,-0.135 1.273,0.395 6.026,2.271 5.513,4.345 -0.44,1.776 -6.051,0.854 -6.051,0.815 0,-0.403 3.488,-1.773 2.689,-2.58 -1.498,-1.513 -8.44,-2.316 -10.219,0.679"
           fill="#000000" />
        <path
           id="Vector_8"
           d="m 116.072,173.554 c 0.744,1.829 1.173,3.713 0.941,5.704 -0.312,2.679 -2.174,3.929 -4.034,5.432 -0.372,0.301 -1.191,0.484 -1.076,0.951 0.767,3.097 11.681,-8.429 5.244,-11.679"
           fill="#000000" />
        <path
           id="Vector_9"
           d="m 101.995,184.828 c 0.266,1.299 0.181,2.705 -0.466,3.882 -3.3472,6.086 -6.293,1.876 -1.6305,11.294 1.1085,2.238 1.9255,4.216 4.4255,5.058 0.304,0.102 0.789,0.525 0.932,0.236 0.075,-0.151 -6.105,-7.087 -5.7072,-10.706 0.4197,-3.813 6.2252,-4.6 3.6112,-9.881"
           fill="#000000" />
        <path
           id="Vector_10"
           d="m 107.534,215.675 c 1.127,3.787 -0.856,9.089 0.565,12.693 2.741,6.951 9.831,7.822 16.551,8.342 13.5,1.044 43.303,-14.201 55.838,-19.676 3.589,-1.567 14.556,-6.636 15.853,-10.248 0.29,-0.808 1.392,-4.522 1.295,-4.477 -0.676,0.314 -1.176,2.49 -1.603,3.124 -1.399,2.077 -3.31,4.17 -5.609,5.503 -7.579,4.396 -14.069,7.482 -23.721,11.332 -11.144,4.445 -40.521,19.742 -53.028,11.349 -7.727,-5.185 -5.216,-9.191 -5.216,-17.942"
           fill="#000000" />
        <path
           id="Vector_11"
           d="m 106.005,200.303 c -0.097,3.226 1.195,3.309 3.208,3.417 1.745,0.095 0,-3.031 0.186,-3.889 0.069,-0.321 0.666,3.539 1.145,3.701 0.25,0.084 2.121,0.239 2.161,-0.057 0.018,-0.127 -0.215,-2.385 -0.182,-2.373 0.302,0.11 0.145,1.899 0.375,2.283 0.369,0.614 2.173,0.579 2.173,-0.236 0,-4.214 -8.509,-4.06 -8.759,-3.551 -0.132,0.27 -0.364,0.769 -0.307,1.07"
           fill="#ffffff" />
        <path
           id="Vector_12"
           d="m 123.929,205.67 c -6.455,-1.056 -4.065,-2.045 -6.82,-2.079 -1.621,-0.019 -16.139,3.714 -10.438,4.587 2.216,0.339 6.558,1.066 10.65,-0.866 3.468,-1.638 4.192,-0.949 6.658,-1.626"
           fill="#ff7c9e" />
        <path
           id="Vector_13"
           d="m 113.675,206.033 c 0.501,0.218 0.919,-0.016 1.396,-0.113 z"
           fill="#ff7c9e" />
        <path
           id="Vector_14"
           d="m 100.746,142.622 c -2.4792,-2.399 -0.573,1.436 1.707,1.724 z"
           fill="#000000" />
        <g
           id="Group_2">
          <path
             id="Vector_15"
             d="m 231.008,174.026 c 1.422,0.243 2.877,0.156 4.316,0.156 z"
             fill="#50240b" />
          <path
             id="Vector_16"
             d="m 231.008,174.026 c 1.422,0.243 2.877,0.156 4.316,0.156"
             stroke="#000000"
             stroke-linecap="round"
             stroke-linejoin="round" />
        </g>
        <g
           id="Group_3">
          <path
             id="Vector_17"
             d="m 222.933,76.2582 c -4.274,-1.1644 -6.848,-6.4125 -10.83,-7.8253 -4.594,-1.6302 -8.942,-3.7005 -13.535,-5.3303 -2.565,-0.9104 -5.4,-0.8586 -8.038,-1.1536 -4.506,-0.5043 -8.988,-1.1781 -13.5,-1.628 -14.561,-1.452 -28.423,6.0193 -40.817,13.9672 -5.256,3.3706 -28.711,23.3036 -20.027,20.3114 3.966,-1.3662 17.807,3.0896 21.494,5.0674 2.309,1.238 10.312,10.033 12.456,11.679 17.964,13.784 10.981,11.741 20.585,26.026 0.927,1.378 -2.461,12.293 -1.123,12.647 1.641,0.433 1.286,-1.223 2.953,-1.501 2.132,-0.357 4.268,-0.941 6.409,-1.298 3.36,-0.562 6.985,0.83 10.276,0.073 2.03,-0.467 5.847,-1.314 7.859,-0.784 2.382,0.629 1.978,5.578 1.997,7.561 0.072,7.738 -0.573,20.372 0.576,27.498 0.287,1.777 1.838,4.074 2.939,5.26 1.648,1.775 5.493,1.003 7.554,0.982 3.037,-0.03 6.111,-1.408 8.969,-2.381 4.585,-1.562 9.203,-4.484 13.094,-7.536 3.565,-2.796 7.337,-5.186 10.192,-8.917 7.61,-9.945 8.752,-23.926 7.69,-36.396 -0.593,-6.95 -3.148,-13.67 -5.005,-20.225 -1.6,-5.649 -4.183,-13.5995 -7.395,-18.4377 -2.539,-3.8227 -4.7,-7.8553 -7.81,-11.2052 -0.453,-0.488 -4.787,-4.3373 -4.698,-4.5372 0.33,-0.7431 4.515,1.1918 5.15,1.3591 6.181,1.6309 12.902,4.4276 17.743,8.9904 4.738,4.4654 8.086,10.6047 11.389,16.2826 0.87,1.495 2.173,2.722 3.089,4.2 4.819,7.772 8.845,16.383 11.634,25.272 2.75,8.764 1.301,23.579 0.625,32.786 -1.014,13.807 2.294,20.357 8.324,32.004 1.411,2.725 2.324,5.658 3.93,8.247 2.207,3.56 4.479,8.822 7.651,11.383 1.263,1.021 1.842,2.508 2.924,3.673 0.108,0.117 0.326,0.516 0.324,0.35 -0.018,-1.921 -1.963,-6.831 -2.175,-9.499 -0.124,-1.564 -0.03,-3.189 -0.044,-4.76 -0.127,-13.723 13.592,8.808 16.48,11.296 0.636,0.547 6.01,4.281 6.295,3.639 0.109,-0.245 -1.596,-1.495 -1.782,-1.745 -1.608,-2.164 -3.388,-5.109 -2.644,-8.084 0.595,-2.377 2.116,-4.792 2.985,-7.082 2.584,-6.81 4.253,-25.745 4.826,-33.546 1.678,-22.853 -7.759,-53.314 -20.09,-71.555 -2.843,-4.2051 -6.495,-7.669 -9.421,-11.7179 -1.552,-2.1492 -2.755,-4.7131 -4.557,-6.6543 -9.483,-10.2151 -35.191,-29.7083 -48.903,-27.8957 -4.261,0.5632 -12.858,3.8779 -14.042,9.3081 -0.483,2.221 -1.038,4.1429 -0.581,6.5291 0.269,1.401 2.631,5.8671 1.833,7.2099 -0.717,1.2078 -2.846,-0.2728 -3.379,-0.8474"
             fill="#50240b" />
          <path
             id="Vector_18"
             d="m 222.933,76.2582 c -4.274,-1.1644 -6.848,-6.4125 -10.83,-7.8253 -4.594,-1.6302 -8.942,-3.7005 -13.535,-5.3303 -2.565,-0.9104 -5.4,-0.8586 -8.038,-1.1536 -4.506,-0.5043 -8.988,-1.1781 -13.5,-1.628 -14.561,-1.452 -28.423,6.0193 -40.817,13.9672 -5.256,3.3706 -28.711,23.3036 -20.027,20.3114 3.966,-1.3662 17.807,3.0896 21.494,5.0674 2.309,1.238 10.312,10.033 12.456,11.679 17.964,13.784 10.981,11.741 20.585,26.026 0.927,1.378 -2.461,12.293 -1.123,12.647 1.641,0.433 1.286,-1.223 2.953,-1.501 2.132,-0.357 4.268,-0.941 6.409,-1.298 3.36,-0.562 6.985,0.83 10.276,0.073 2.03,-0.467 5.847,-1.314 7.859,-0.784 2.382,0.629 1.978,5.578 1.997,7.561 0.072,7.738 -0.573,20.372 0.576,27.498 0.287,1.777 1.838,4.074 2.939,5.26 1.648,1.775 5.493,1.003 7.554,0.982 3.037,-0.03 6.111,-1.408 8.969,-2.381 4.585,-1.562 9.203,-4.484 13.094,-7.536 3.565,-2.796 7.337,-5.186 10.192,-8.917 7.61,-9.945 8.752,-23.926 7.69,-36.396 -0.593,-6.95 -3.148,-13.67 -5.005,-20.225 -1.6,-5.649 -4.183,-13.5995 -7.395,-18.4377 -2.539,-3.8227 -4.7,-7.8553 -7.81,-11.2052 -0.453,-0.488 -4.787,-4.3373 -4.698,-4.5372 0.33,-0.7431 4.515,1.1918 5.15,1.3591 6.181,1.6309 12.902,4.4276 17.743,8.9904 4.738,4.4654 8.086,10.6047 11.389,16.2826 0.87,1.495 2.173,2.722 3.089,4.2 4.819,7.772 8.845,16.383 11.634,25.272 2.75,8.764 1.301,23.579 0.625,32.786 -1.014,13.807 2.294,20.357 8.324,32.004 1.411,2.725 2.324,5.658 3.93,8.247 2.207,3.56 4.479,8.822 7.651,11.383 1.263,1.021 1.842,2.508 2.924,3.673 0.108,0.117 0.326,0.516 0.324,0.35 -0.018,-1.921 -1.963,-6.831 -2.175,-9.499 -0.124,-1.564 -0.03,-3.189 -0.044,-4.76 -0.127,-13.723 13.592,8.808 16.48,11.296 0.636,0.547 6.01,4.281 6.295,3.639 0.109,-0.245 -1.596,-1.495 -1.782,-1.745 -1.608,-2.164 -3.388,-5.109 -2.644,-8.084 0.595,-2.377 2.116,-4.792 2.985,-7.082 2.584,-6.81 4.253,-25.745 4.826,-33.546 1.678,-22.853 -7.759,-53.314 -20.09,-71.555 -2.843,-4.2051 -6.495,-7.669 -9.421,-11.7179 -1.552,-2.1492 -2.755,-4.7131 -4.557,-6.6543 -9.483,-10.2151 -35.191,-29.7083 -48.903,-27.8957 -4.261,0.5632 -12.858,3.8779 -14.042,9.3081 -0.483,2.221 -1.038,4.1429 -0.581,6.5291 0.269,1.401 2.631,5.8671 1.833,7.2099 -0.717,1.2078 -2.846,-0.2728 -3.379,-0.8474"
             stroke="#000000"
             stroke-linecap="round"
             stroke-linejoin="round" />
        </g>
        <g
           id="Group_4">
          <path
             id="Vector_19"
             d="m 117.049,94.5996 c 5.12,-6.7864 12.53,-15.4899 16.547,-18.4914 18.954,-14.1625 43.846,-21.9353 65.987,-14.421 6.804,2.3092 14.805,6.0041 20.49,10.9023 1.233,1.0619 2.285,2.6113 2.272,2.622 -1.428,1.1992 -7.097,-1.5542 -8.367,-2.0322 -13.3,-5.0041 -21.233,-10.0459 -35.553,-9.3869 -16.497,0.7593 -44.441,17.2333 -58.002,28.0849 -4.051,7.9038 12.137,-5.1592 17.078,-7.7076 13.954,-7.1966 30.473,-12.0152 45.975,-10.8615 0.5,0.037 7.234,0.9833 7.24,1.6905 0.019,1.9951 -15.08,3.6793 -16.66,3.8689 -56.963,20.4881 -47.492,15.2874 -46.74,14.9242 5.556,-2.6824 11.258,-4.5421 17.121,-6.1655 2.85,-0.789 6.744,-2.1034 6.408,-1.4743 -20.535,13.878 -18.805,11.6487 -16.762,10.217 4.287,-3.0048 8.674,-5.9597 13.246,-8.4188 17.892,-9.6228 40.022,-16.6654 60.077,-13.6472 2.955,0.4446 13.452,1.9822 15.298,4.9596 1.059,1.7079 -4.273,1.4532 -4.642,1.4569 -6.81,0.0682 -13.572,-0.4646 -20.389,0.0278 -15.815,1.1418 -39.079,8.204 -53.474,15.8731 -1.09,0.5809 -5.251,2.823 -3.711,4.3466 2.594,2.567 3.405,3.814 5.042,3.005 16.557,-8.1758 33.573,-18.5694 51.683,-20.9281 4.524,-0.5895 17.116,-2.3222 21.203,1.1984 2.648,2.2814 -16.292,4.8819 -16.491,4.9249 -16.018,3.4861 -32.166,8.5698 -46.558,17.2148 -1.151,0.691 -4.85,2.928 -3.386,4.95 2.184,3.017 3.036,3.827 5.256,2.655 20.237,-10.685 42.13,-28.5451 64.35,-34.0079 0.481,-0.1181 1.602,0.1455 1.441,-0.367 -0.311,-0.9937 -13.252,8.4418 -13.884,8.9542 -13.18,10.692 -26.685,20.8847 -39.842,31.6037 -0.74,0.603 -4.332,5.825 -3.225,5.279 4.087,-2.015 4.663,-2.315 5.972,-3.367 12.768,-10.261 24.768,-21.938 37.916,-31.5846 0.644,-0.4731 10.761,-7.1551 11.506,-5.7568 0.679,1.2759 -2.338,4.5543 -2.842,5.1411 -12.622,14.6743 -28.904,25.1003 -44.136,36.0543 -5.568,4.005 -1.378,-1.268 -6.588,3.297 -0.006,0.006 -0.556,1.16 0.614,1.697 4.674,2.143 0.485,6.082 3.78,3.52 13.979,-10.868 24.758,-22.68 37.101,-35.6608 4.255,-4.4754 8.243,-9.0011 12.883,-12.9989 2.076,-1.7886 2.321,-2.0345 4.303,-3.3929 0.508,-0.3476 1.591,-1.5546 1.597,-0.8974 0.017,1.8278 -8.728,11.8079 -9.99,13.3225 -11.184,13.4175 -22.53,25.9165 -35.13,37.7275 -4.375,4.101 -1.02,1.608 -5.144,6.005 -0.064,0.067 -6.577,8.674 -5.926,9.023 1.984,1.064 7.315,-4.978 8.582,-5.968 14.902,-11.637 23.341,-22.105 34.65,-37.943 3.137,-4.3946 5.866,-8.9222 8.542,-13.6601 1.888,-3.3414 1.358,-2.1474 2.683,-4.9634 0.253,-0.5376 1.174,-2.0263 0.788,-1.5946 -3.694,4.1355 -6.974,14.0915 -9.614,19.3131 -4.299,8.506 -9.65,16.415 -15.027,24.128 -3.299,4.732 -6.711,9.213 -10.633,13.329 -0.368,0.386 -7.803,6.255 -7.16,6.947 0.859,0.925 7.302,-7.43 8.11,-8.367 9.459,-10.969 18.42,-22.53 26.003,-35.168 2.319,-3.8659 4.491,-7.8289 6.794,-11.7045 3.927,-6.609 -1.153,1.605 2.058,-3.194 0.272,-0.4072 0.877,-1.7386 0.791,-1.2421 -0.361,2.0944 -1.785,4.2836 -2.511,6.1959 -5.186,13.6657 -10.32,26.5747 -18.103,38.7917 -2.552,4.007 -5.035,8.115 -7.432,12.239 -0.011,0.021 -2.642,4.703 -1.566,4.247 2.313,-0.979 4.535,-6.142 5.865,-8.168 5.966,-9.096 11.282,-18.729 15.625,-28.894 2.316,-5.421 4.392,-10.786 5.625,-16.6293 0.41,-1.9408 0.832,-3.856 1.07,-5.8286 0.079,-0.6512 -0.124,-2.4028 0.303,-1.9422 1.471,1.5846 -0.005,8.4894 -0.226,10.2277 -2.382,18.7394 -9.84,35.6624 -19.27,51.3204 -2.657,4.412 -4.981,8.912 -7.905,13.126 -1.183,1.703 1.006,5.712 1.024,5.712 0.719,-0.008 1.864,-10.567 2.294,-11.387 2.204,-4.199 4.861,-8.079 7.111,-12.236 6.78,-12.527 11.927,-25.753 16.33,-39.479 1.734,-5.407 2.39,-10.3337 1.778,-16.0616 -0.002,-0.0078 -0.542,-4.9308 -0.849,-4.9279 -0.963,0.0097 0.02,2.1156 0.029,3.1733 0.028,3.0086 -0.198,5.9867 -0.237,8.9938 -0.088,6.7454 -0.397,13.3994 -1.098,20.1094 -2.024,19.386 -8.836,38.662 -18.433,55.015 -0.584,0.995 -6.27,11.223 -7.453,9.948 -1.269,-1.367 9.232,-15.279 10.28,-16.676 8.765,-11.676 17.063,-24.61 19.86,-39.69 1.912,-10.308 2.114,-19.806 -1.559,-29.6039 -0.968,-2.582 -1.886,-5.1966 -2.962,-7.7279 -0.925,-2.1773 -1.96,-3.6079 -1.957,-3.3303 0.007,0.7605 1.269,2.6143 1.476,3.3351 1.447,5.0382 2.073,10.6087 2.555,15.842 1.797,19.498 -1.621,38.43 -8.628,56.327 -3.13,7.995 -7.445,15.631 -12.476,22.339 -1.372,1.83 -2.719,3.71 -4.122,5.507 -0.996,1.273 -1.112,-2.932 -0.158,-3.204 2.272,-0.648 6.659,-6.466 8.074,-8.688 11.058,-17.359 21.496,-35.523 22.746,-57.349 0.553,-9.647 -1.417,-18.6599 -6.029,-26.9146 -1.298,-2.324 -2.614,-4.6317 -4.077,-6.8353 -0.059,-0.0889 -3.003,-3.8631 -3.083,-3.4954 -0.17,0.7827 10.406,13.8908 11.386,15.9301 4.499,9.3602 6.712,19.8922 6.223,30.4382 -0.739,15.908 -11.731,36.706 -20.414,49.217 -0.714,1.029 -8.983,12.95 -8.868,13.135 0.618,0.997 1.764,-1.498 2.385,-2.492 3.095,-4.96 5.706,-10.342 8.364,-15.599 8.945,-17.696 16.94,-38.323 15.827,-59.043 -0.48,-8.931 -3.352,-18.3334 -7.147,-26.1983 -0.345,-0.7153 -6.399,-9.1925 -5.869,-9.6379 0.651,-0.5469 6.505,7.2699 7.301,8.2133 7.203,8.5328 11.458,20.4679 14.1,31.5939 4.886,20.576 4.553,37.723 -8.648,54.212 -3.563,4.451 -7.527,8.788 -12.252,11.758 -5.26,3.307 -11.13,3.075 -16.815,4.576 -5.901,1.558 -6.482,3.333 0.026,2.821 4.73,-0.373 9.645,-2.697 14.088,-4.373 13.282,-5.011 25.548,-17.003 30.046,-31.859 5.499,-18.161 -2.239,-38.731 -7.74,-55.6341 -1.353,-4.1559 -2.462,-8.521 -4.61,-12.2955 -3.399,-5.9749 -9.663,-7.6505 -15.496,-9.0126 -1.194,-0.2792 -3.615,-1.4232 -2.599,-3.324 3.803,-7.1207 16.554,16.2618 6.147,5.0515"
             fill="#8e502d" />
          <path
             id="Vector_20"
             d="m 117.049,94.5996 c 5.12,-6.7864 12.53,-15.4899 16.547,-18.4914 18.954,-14.1625 43.846,-21.9353 65.987,-14.421 6.804,2.3092 14.805,6.0041 20.49,10.9023 1.233,1.0619 2.285,2.6113 2.272,2.622 -1.428,1.1992 -7.097,-1.5542 -8.367,-2.0322 -13.3,-5.0041 -21.233,-10.0459 -35.553,-9.3869 -16.497,0.7593 -44.441,17.2333 -58.002,28.0849 -4.051,7.9038 12.137,-5.1592 17.078,-7.7076 13.954,-7.1966 30.473,-12.0152 45.975,-10.8615 0.5,0.037 7.234,0.9833 7.24,1.6905 0.019,1.9951 -15.08,3.6793 -16.66,3.8689 -56.963,20.4881 -47.492,15.2874 -46.74,14.9242 5.556,-2.6824 11.258,-4.5421 17.121,-6.1655 2.85,-0.789 6.744,-2.1034 6.408,-1.4743 -20.535,13.878 -18.805,11.6487 -16.762,10.217 4.287,-3.0048 8.674,-5.9597 13.246,-8.4188 17.892,-9.6228 40.022,-16.6654 60.077,-13.6472 2.955,0.4446 13.452,1.9822 15.298,4.9596 1.059,1.7079 -4.273,1.4532 -4.642,1.4569 -6.81,0.0682 -13.572,-0.4646 -20.389,0.0278 -15.815,1.1418 -39.079,8.204 -53.474,15.8731 -1.09,0.5809 -5.251,2.823 -3.711,4.3466 2.594,2.567 3.405,3.814 5.042,3.005 16.557,-8.1758 33.573,-18.5694 51.683,-20.9281 4.524,-0.5895 17.116,-2.3222 21.203,1.1984 2.648,2.2814 -16.292,4.8819 -16.491,4.9249 -16.018,3.4861 -32.166,8.5698 -46.558,17.2148 -1.151,0.691 -4.85,2.928 -3.386,4.95 2.184,3.017 3.036,3.827 5.256,2.655 20.237,-10.685 42.13,-28.5451 64.35,-34.0079 0.481,-0.1181 1.602,0.1455 1.441,-0.367 -0.311,-0.9937 -13.252,8.4418 -13.884,8.9542 -13.18,10.692 -26.685,20.8847 -39.842,31.6037 -0.74,0.603 -4.332,5.825 -3.225,5.279 4.087,-2.015 4.663,-2.315 5.972,-3.367 12.768,-10.261 24.768,-21.938 37.916,-31.5846 0.644,-0.4731 10.761,-7.1551 11.506,-5.7568 0.679,1.2759 -2.338,4.5543 -2.842,5.1411 -12.622,14.6743 -28.904,25.1003 -44.136,36.0543 -5.568,4.005 -1.378,-1.268 -6.588,3.297 -0.006,0.006 -0.556,1.16 0.614,1.697 4.674,2.143 0.485,6.082 3.78,3.52 13.979,-10.868 24.758,-22.68 37.101,-35.6608 4.255,-4.4754 8.243,-9.0011 12.883,-12.9989 2.076,-1.7886 2.321,-2.0345 4.303,-3.3929 0.508,-0.3476 1.591,-1.5546 1.597,-0.8974 0.017,1.8278 -8.728,11.8079 -9.99,13.3225 -11.184,13.4175 -22.53,25.9165 -35.13,37.7275 -4.375,4.101 -1.02,1.608 -5.144,6.005 -0.064,0.067 -6.577,8.674 -5.926,9.023 1.984,1.064 7.315,-4.978 8.582,-5.968 14.902,-11.637 23.341,-22.105 34.65,-37.943 3.137,-4.3946 5.866,-8.9222 8.542,-13.6601 1.888,-3.3414 1.358,-2.1474 2.683,-4.9634 0.253,-0.5376 1.174,-2.0263 0.788,-1.5946 -3.694,4.1355 -6.974,14.0915 -9.614,19.3131 -4.299,8.506 -9.65,16.415 -15.027,24.128 -3.299,4.732 -6.711,9.213 -10.633,13.329 -0.368,0.386 -7.803,6.255 -7.16,6.947 0.859,0.925 7.302,-7.43 8.11,-8.367 9.459,-10.969 18.42,-22.53 26.003,-35.168 2.319,-3.8659 4.491,-7.8289 6.794,-11.7045 3.927,-6.609 -1.153,1.605 2.058,-3.194 0.272,-0.4072 0.877,-1.7386 0.791,-1.2421 -0.361,2.0944 -1.785,4.2836 -2.511,6.1959 -5.186,13.6657 -10.32,26.5747 -18.103,38.7917 -2.552,4.007 -5.035,8.115 -7.432,12.239 -0.011,0.021 -2.642,4.703 -1.566,4.247 2.313,-0.979 4.535,-6.142 5.865,-8.168 5.966,-9.096 11.282,-18.729 15.625,-28.894 2.316,-5.421 4.392,-10.786 5.625,-16.6293 0.41,-1.9408 0.832,-3.856 1.07,-5.8286 0.079,-0.6512 -0.124,-2.4028 0.303,-1.9422 1.471,1.5846 -0.005,8.4894 -0.226,10.2277 -2.382,18.7394 -9.84,35.6624 -19.27,51.3204 -2.657,4.412 -4.981,8.912 -7.905,13.126 -1.183,1.703 1.006,5.712 1.024,5.712 0.719,-0.008 1.864,-10.567 2.294,-11.387 2.204,-4.199 4.861,-8.079 7.111,-12.236 6.78,-12.527 11.927,-25.753 16.33,-39.479 1.734,-5.407 2.39,-10.3337 1.778,-16.0616 -0.002,-0.0078 -0.542,-4.9308 -0.849,-4.9279 -0.963,0.0097 0.02,2.1156 0.029,3.1733 0.028,3.0086 -0.198,5.9867 -0.237,8.9938 -0.088,6.7454 -0.397,13.3994 -1.098,20.1094 -2.024,19.386 -8.836,38.662 -18.433,55.015 -0.584,0.995 -6.27,11.223 -7.453,9.948 -1.269,-1.367 9.232,-15.279 10.28,-16.676 8.765,-11.676 17.063,-24.61 19.86,-39.69 1.912,-10.308 2.114,-19.806 -1.559,-29.6039 -0.968,-2.582 -1.886,-5.1966 -2.962,-7.7279 -0.925,-2.1773 -1.96,-3.6079 -1.957,-3.3303 0.007,0.7605 1.269,2.6143 1.476,3.3351 1.447,5.0382 2.073,10.6087 2.555,15.842 1.797,19.498 -1.621,38.43 -8.628,56.327 -3.13,7.995 -7.445,15.631 -12.476,22.339 -1.372,1.83 -2.719,3.71 -4.122,5.507 -0.996,1.273 -1.112,-2.932 -0.158,-3.204 2.272,-0.648 6.659,-6.466 8.074,-8.688 11.058,-17.359 21.496,-35.523 22.746,-57.349 0.553,-9.647 -1.417,-18.6599 -6.029,-26.9146 -1.298,-2.324 -2.614,-4.6317 -4.077,-6.8353 -0.059,-0.0889 -3.003,-3.8631 -3.083,-3.4954 -0.17,0.7827 10.406,13.8908 11.386,15.9301 4.499,9.3602 6.712,19.8922 6.223,30.4382 -0.739,15.908 -11.731,36.706 -20.414,49.217 -0.714,1.029 -8.983,12.95 -8.868,13.135 0.618,0.997 1.764,-1.498 2.385,-2.492 3.095,-4.96 5.706,-10.342 8.364,-15.599 8.945,-17.696 16.94,-38.323 15.827,-59.043 -0.48,-8.931 -3.352,-18.3334 -7.147,-26.1983 -0.345,-0.7153 -6.399,-9.1925 -5.869,-9.6379 0.651,-0.5469 6.505,7.2699 7.301,8.2133 7.203,8.5328 11.458,20.4679 14.1,31.5939 4.886,20.576 4.553,37.723 -8.648,54.212 -3.563,4.451 -7.527,8.788 -12.252,11.758 -5.26,3.307 -11.13,3.075 -16.815,4.576 -5.901,1.558 -6.482,3.333 0.026,2.821 4.73,-0.373 9.645,-2.697 14.088,-4.373 13.282,-5.011 25.548,-17.003 30.046,-31.859 5.499,-18.161 -2.239,-38.731 -7.74,-55.6341 -1.353,-4.1559 -2.462,-8.521 -4.61,-12.2955 -3.399,-5.9749 -9.663,-7.6505 -15.496,-9.0126 -1.194,-0.2792 -3.615,-1.4232 -2.599,-3.324 3.803,-7.1207 16.554,16.2618 6.147,5.0515"
             stroke="#000000"
             stroke-width="0.5"
             stroke-linecap="round"
             stroke-linejoin="round" />
        </g>
        <g
           id="Group_5">
          <path
             id="Vector_21"
             d="m 230.623,72.7805 c -1.117,-1.7471 -5.351,-2.1818 -5.858,-4.578 -1.103,-5.224 5.048,-8.4128 8.87,-9.8608 16.032,-6.0722 32.533,-0.345 45.689,10.0367 5.26,4.1503 9.892,9.4251 14.393,14.4388 21.342,23.7758 38.811,53.7538 35.981,87.6898 -0.992,11.899 -3.197,23.822 -7.196,35.04 -0.781,2.192 -2.8,7.572 -2.845,7.572 -0.529,0 0.326,-1.06 0.502,-1.584 0.198,-0.591 1.091,-3.945 1.172,-4.227 0.888,-3.115 1.548,-6.108 2.008,-9.332 1.514,-10.621 2.176,-33.44 -11.715,-36.097 -4.33,-0.829 3.511,9.054 4.016,10.037 4.821,9.363 4.708,19.297 1.674,29.229 -0.103,0.339 -2.233,6.692 -2.343,6.692 -1.004,0 0.042,-2.114 0,-3.17 -0.074,-1.88 -0.19,-3.759 -0.335,-5.635 -0.634,-8.222 -1.282,-16.425 -1.841,-24.651 -0.081,-1.194 0.098,-3.974 -1.338,-4.578 -0.902,-0.38 -1.705,1.81 -1.841,2.289 -1.994,6.993 0.358,14.309 2.342,20.954 0.416,1.39 4.747,15.608 4.017,16.376 -0.465,0.489 -3.326,-7.159 -3.347,-7.22 -0.819,-2.402 -5.72,-21.554 -8.2,-20.25 -1.629,0.857 -1.622,4.159 -1.674,5.635 -0.47,13.356 6.036,21.577 15.062,29.934 0.915,0.848 12.259,10.949 10.376,11.798 -1.007,0.454 -3.047,-0.131 -4.016,-0.352 -10.862,-2.485 -18.366,-10.935 -24.602,-20.074 -2.09,-3.062 -4.959,-5.875 -6.192,-9.508 -0.35,-1.033 -1.879,-3.17 -0.837,-3.17 0.214,0 8.289,18.679 8.703,19.897 0.112,0.331 2.5,8.58 2.175,8.629 -1.74,0.261 -9.796,-11.141 -11.213,-12.854 -6.139,-7.429 -15.508,-19.501 -16.903,-29.406 -0.935,-6.64 0.021,-13.666 0.837,-20.25 1.537,-12.401 1.14,-27.779 -4.518,-39.09 -8.548,-17.088 -13.902,-20.261 -25.941,-32.9284 -4.535,-4.7715 -9.378,-9.1629 -13.891,-13.9104 -0.495,-0.5213 -3.714,-1.903 -2.51,-3.1696 0.278,-0.2921 1.647,-0.8945 2.008,-0.7042 0.54,0.2836 0.994,1.0489 1.506,1.4087 4.543,3.1863 9.37,5.5399 13.724,9.1563 22.426,18.6286 34.206,47.6416 35.48,77.1246 0.473,10.964 2.531,22.128 5.69,32.576 0.027,0.091 4.344,13.925 5.188,12.149 0.226,-0.476 -3.669,-17.433 -3.849,-19.897 -0.732,-10.001 -0.77,-20.462 -2.846,-30.287 -4.942,-23.402 -12.823,-42.581 -28.283,-60.3964 -5.619,-6.4746 -11.804,-11.9411 -18.409,-17.2559 -0.483,-0.3887 -5.928,-4.3924 -5.858,-4.5783 0.799,-2.1 9.913,3.257 10.879,3.8738 11.172,7.1366 20.286,16.565 27.614,27.9968 12.732,19.865 17.417,42.818 20.752,66.208 0.814,5.707 1.405,11.363 2.008,17.08 0.031,0.298 -0.087,0.747 0.167,0.88 0.044,0.023 0.499,-3.845 0.503,-3.873 0.653,-5.499 1.552,-11.035 2.008,-16.552 1.529,-18.508 -0.79,-40.525 -12.719,-55.291 -9.875,-12.223 -22.969,-21.6576 -36.15,-29.5817 -4.571,-2.7486 -9.372,-5.0711 -13.89,-7.9238 -0.308,-0.1943 -3.873,-2.415 -2.678,-3.1692 2.581,-1.629 14.176,5.047 16.401,6.3388 6.705,3.8923 12.872,8.9386 18.744,14.0867 15.625,13.7002 26.719,29.2832 31.463,50.3602 1.941,8.621 2.548,17.249 3.013,26.06 0.028,0.53 0.627,8.031 1.506,5.811 1.733,-4.377 1.452,-10.652 1.673,-15.319 1.331,-27.999 -3.503,-61.6652 -29.956,-67.9685 -15.801,-3.7653 -21.854,-11.0322 -33.806,-15.3192 -5.675,-2.0355 -11.797,-4.368 -10.042,-5.1066 7.952,-3.3466 20.361,6.2991 26.442,10.565 16.847,11.8164 35.956,25.5163 44.685,45.6053 4.015,9.242 5.122,19.005 5.355,29.054 0.071,3.029 -0.04,11.641 1.339,8.98 2.644,-5.1 3.829,-12.324 4.686,-17.96 C 318.44,115.647 300.183,97.4826 275.14,84.0497 264.415,78.2974 253.427,72.652 241.836,69.083 237.07,67.6154 227.582,65.2473 230.79,63.8005 c 3.21,-1.4477 14.506,3.1147 17.74,4.2258 26.061,8.9534 50.203,31.4355 60.081,58.4597 4.403,12.043 5.471,24.651 8.703,36.978 0.421,1.605 2.017,8.285 5.021,5.986 5.614,-4.296 4.538,-23.775 3.514,-29.758 C 322.113,117.853 298.937,92.233 282.838,78.4151 266.815,64.6624 248.66,47.322 228.447,63.2721"
             fill="#8e502d" />
          <path
             id="Vector_22"
             d="m 230.623,72.7805 c -1.117,-1.7471 -5.351,-2.1818 -5.858,-4.578 -1.103,-5.224 5.048,-8.4128 8.87,-9.8608 16.032,-6.0722 32.533,-0.345 45.689,10.0367 5.26,4.1503 9.892,9.4251 14.393,14.4388 21.342,23.7758 38.811,53.7538 35.981,87.6898 -0.992,11.899 -3.197,23.822 -7.196,35.04 -0.781,2.192 -2.8,7.572 -2.845,7.572 -0.529,0 0.326,-1.06 0.502,-1.584 0.198,-0.591 1.091,-3.945 1.172,-4.227 0.888,-3.115 1.548,-6.108 2.008,-9.332 1.514,-10.621 2.176,-33.44 -11.715,-36.097 -4.33,-0.829 3.511,9.054 4.016,10.037 4.821,9.363 4.708,19.297 1.674,29.229 -0.103,0.339 -2.233,6.692 -2.343,6.692 -1.004,0 0.042,-2.114 0,-3.17 -0.074,-1.88 -0.19,-3.759 -0.335,-5.635 -0.634,-8.222 -1.282,-16.425 -1.841,-24.651 -0.081,-1.194 0.098,-3.974 -1.338,-4.578 -0.902,-0.38 -1.705,1.81 -1.841,2.289 -1.994,6.993 0.358,14.309 2.342,20.954 0.416,1.39 4.747,15.608 4.017,16.376 -0.465,0.489 -3.326,-7.159 -3.347,-7.22 -0.819,-2.402 -5.72,-21.554 -8.2,-20.25 -1.629,0.857 -1.622,4.159 -1.674,5.635 -0.47,13.356 6.036,21.577 15.062,29.934 0.915,0.848 12.259,10.949 10.376,11.798 -1.007,0.454 -3.047,-0.131 -4.016,-0.352 -10.862,-2.485 -18.366,-10.935 -24.602,-20.074 -2.09,-3.062 -4.959,-5.875 -6.192,-9.508 -0.35,-1.033 -1.879,-3.17 -0.837,-3.17 0.214,0 8.289,18.679 8.703,19.897 0.112,0.331 2.5,8.58 2.175,8.629 -1.74,0.261 -9.796,-11.141 -11.213,-12.854 -6.139,-7.429 -15.508,-19.501 -16.903,-29.406 -0.935,-6.64 0.021,-13.666 0.837,-20.25 1.537,-12.401 1.14,-27.779 -4.518,-39.09 -8.548,-17.088 -13.902,-20.261 -25.941,-32.9284 -4.535,-4.7715 -9.378,-9.1629 -13.891,-13.9104 -0.495,-0.5213 -3.714,-1.903 -2.51,-3.1696 0.278,-0.2921 1.647,-0.8945 2.008,-0.7042 0.54,0.2836 0.994,1.0489 1.506,1.4087 4.543,3.1863 9.37,5.5399 13.724,9.1563 22.426,18.6286 34.206,47.6416 35.48,77.1246 0.473,10.964 2.531,22.128 5.69,32.576 0.027,0.091 4.344,13.925 5.188,12.149 0.226,-0.476 -3.669,-17.433 -3.849,-19.897 -0.732,-10.001 -0.77,-20.462 -2.846,-30.287 -4.942,-23.402 -12.823,-42.581 -28.283,-60.3964 -5.619,-6.4746 -11.804,-11.9411 -18.409,-17.2559 -0.483,-0.3887 -5.928,-4.3924 -5.858,-4.5783 0.799,-2.1 9.913,3.257 10.879,3.8738 11.172,7.1366 20.286,16.565 27.614,27.9968 12.732,19.865 17.417,42.818 20.752,66.208 0.814,5.707 1.405,11.363 2.008,17.08 0.031,0.298 -0.087,0.747 0.167,0.88 0.044,0.023 0.499,-3.845 0.503,-3.873 0.653,-5.499 1.552,-11.035 2.008,-16.552 1.529,-18.508 -0.79,-40.525 -12.719,-55.291 -9.875,-12.223 -22.969,-21.6576 -36.15,-29.5817 -4.571,-2.7486 -9.372,-5.0711 -13.89,-7.9238 -0.308,-0.1943 -3.873,-2.415 -2.678,-3.1692 2.581,-1.629 14.176,5.047 16.401,6.3388 6.705,3.8923 12.872,8.9386 18.744,14.0867 15.625,13.7002 26.719,29.2832 31.463,50.3602 1.941,8.621 2.548,17.249 3.013,26.06 0.028,0.53 0.627,8.031 1.506,5.811 1.733,-4.377 1.452,-10.652 1.673,-15.319 1.331,-27.999 -3.503,-61.6652 -29.956,-67.9685 -15.801,-3.7653 -21.854,-11.0322 -33.806,-15.3192 -5.675,-2.0355 -11.797,-4.368 -10.042,-5.1066 7.952,-3.3466 20.361,6.2991 26.442,10.565 16.847,11.8164 35.956,25.5163 44.685,45.6053 4.015,9.242 5.122,19.005 5.355,29.054 0.071,3.029 -0.04,11.641 1.339,8.98 2.644,-5.1 3.829,-12.324 4.686,-17.96 C 318.44,115.647 300.183,97.4826 275.14,84.0497 264.415,78.2974 253.427,72.652 241.836,69.083 237.07,67.6154 227.582,65.2473 230.79,63.8005 c 3.21,-1.4477 14.506,3.1147 17.74,4.2258 26.061,8.9534 50.203,31.4355 60.081,58.4597 4.403,12.043 5.471,24.651 8.703,36.978 0.421,1.605 2.017,8.285 5.021,5.986 5.614,-4.296 4.538,-23.775 3.514,-29.758 C 322.113,117.853 298.937,92.233 282.838,78.4151 266.815,64.6624 248.66,47.322 228.447,63.2721"
             stroke="#000000"
             stroke-width="0.5"
             stroke-linecap="round"
             stroke-linejoin="round" />
        </g>
        <path
           id="Vector_23"
           d="m 186.159,141.836 c 1.323,-16.19 16.293,-13.232 20.57,-8.378 3.114,3.536 -0.554,14.88 -1.482,18.639 -1.955,7.914 -3.006,18.094 -10.394,22.571 -14.23,8.622 -15.751,-16.51 -10.136,-25.194"
           fill="#f6e4cd" />
        <path
           id="Vector_24"
           d="m 189.52,132.054 c 2.312,-4.511 16,-5.082 18.478,4.42 2.08,7.97 -5.207,35.988 -12.414,39.033 -3.451,1.458 -5.726,1.541 -9.844,-1.666 -1.198,-0.933 -1.603,-4.694 -2.188,-6.463 -0.532,-1.611 2.52,5.597 3.93,6.463 1.162,0.714 2.447,0.989 3.662,0.998 6.42,0.046 9.655,-6.298 11.517,-12.152 1.633,-5.134 1.636,-6.78 2.586,-10.59 1.148,-4.611 2.935,-10.802 1.33,-15.891 -0.4,-1.266 -0.317,-3.152 -1.535,-3.606 -4.026,-1.505 -10.037,-5.784 -15.635,0.844 -0.252,0.299 -4.301,14.115 -4.737,14.43 -1.995,1.443 3.435,-15.188 4.64,-15.82"
           fill="#000000" />
        <path
           id="Vector_25"
           d="m 187.119,151.5 c 4.851,-0.35 4.152,6.518 1.457,8.5 -0.627,0.461 -2.65,-0.433 -2.375,0.369 0.538,1.571 1.646,5.293 3.035,6.453 3.605,3.011 9.698,-7.075 10.076,-9.959 0.216,-1.643 -0.508,-3.364 -0.739,-5.022 -0.232,-1.658 -0.056,-4.286 -1.908,-5.288 -0.742,-0.401 -2.475,0.861 -2.731,0.623 -1.101,-1.023 1.833,-3.334 3.353,-0.747 3.183,5.413 5.187,14.696 -0.516,18.261 -2.44,1.525 -5.161,2.758 -8.284,2.256 -1.946,-0.313 -4.609,-5.839 -3.593,-6.973 1.315,-1.468 4.889,-1.423 4.401,-4.341 -0.261,-1.565 -1.896,-2.222 -3.08,-2.981"
           fill="#000000" />
        <path
           id="Vector_26"
           d="m 196.691,159.931 c -0.151,-2.607 -1.386,-5.242 -2.882,-7.482 -1.714,-2.568 -3.574,-2.84 -3.525,-2.341 0.021,0.215 0.422,-0.012 0.635,0.005 1.249,0.099 1.501,0.118 2.754,0.92 2.969,1.904 5.524,7.901 3.573,10.703"
           fill="#000000" />
        <path
           id="Vector_27"
           d="m 187.482,142.874 c 1.603,-2.786 10.245,-8.771 14.904,-6.757 3.364,1.453 1.401,8.16 0.693,9.84 -0.25,0.592 -0.36,2.398 -0.715,1.795 -0.026,-0.046 0.524,-9.5 0.233,-10.773 -1.091,-4.784 -13.958,5.928 -14.905,6.792"
           fill="#000000" />
        <path
           id="Vector_28"
           d="m 139.56,148.644 c -2.013,-1.34 -4.513,-1.878 -6.814,-2.575 -2.686,-0.814 -13.104,-1.373 -15.175,0.718 -0.701,0.708 -0.128,3.203 -0.083,4.053 0.059,1.134 -0.126,3.335 0.752,4.222 0.77,0.778 3.081,-0.303 3.888,-0.507 3.231,-0.816 15.42,-2.757 17.223,-5.488"
           fill="#ffffff" />
        <path
           id="Vector_29"
           d="m 117.362,147.07 c -0.308,1.074 0,2.174 0,3.251 0,1.113 -0.129,3.746 0.878,4.56 0.916,0.74 7.796,-0.687 7.882,-1.377 0.549,-4.441 -2.665,-12.181 -8.551,-6.717"
           fill="#77b9c1" />
        <path
           id="Vector_30"
           d="m 120.284,151.431 c -3.733,6.015 -4.543,-5.099 -1.763,-4.842 3.141,0.291 2.733,2.846 2.036,4.674"
           fill="#000000" />
        <path
           id="Vector_31"
           d="m 138.882,148.423 c -2.159,-1.273 -4.529,-2.018 -6.827,-2.967 -3.822,-1.579 -9.011,-1.521 -13.019,-0.641 -0.467,0.102 -1.426,-0.008 -3.331,1.549 -0.325,0.265 -1.346,1.21 -0.956,1.097 4.923,-1.421 9.692,-1.684 14.766,-1.363 0.792,0.05 9.899,1.813 9.129,3.367 -0.115,0.234 -3.3,1.004 -3.657,1.076 -2.389,0.483 -11.839,3.947 -16.747,4.34 -2.194,0.175 1.684,0.925 4.765,0.277 5.721,-1.204 11.011,-2.808 16.036,-5.853"
           fill="#000000" />
        <path
           id="Vector_32"
           d="m 121.311,146.677 c -0.486,-0.403 -1.091,-0.066 -1.578,0.35 -2.448,2.092 2.521,4.746 2.521,0.972 0,-0.771 -0.315,-1.082 -1.001,-1.322"
           fill="#ffffff" />
        <path
           id="Vector_33"
           d="m 119.412,145.712 c -0.784,-0.085 -0.882,-0.698 -1.6,-1.078 -1.851,-0.982 -3.362,-7.71 -2.629,-5.543 0.206,0.609 1.404,4.574 5.156,6.006"
           fill="#000000" />
        <path
           id="Vector_34"
           d="m 121.361,144.554 c -1.282,-1.296 0.093,-8.478 0,-7.593 -0.075,0.718 -0.085,3.855 -0.075,4.108 0.077,1.896 0,2.184 1.741,3.837"
           fill="#000000" />
        <path
           id="Vector_35"
           d="m 124.954,144.686 c -0.323,-0.951 -0.082,-1.288 -0.387,-2.211 -0.11,-0.334 0.327,-5.641 0.327,-4.594 0,1.156 -0.167,2.551 -0.15,2.806 0.12,1.821 0.38,4.56 2.984,4.305"
           fill="#000000" />
        <path
           id="Vector_36"
           d="m 129.111,144.946 c -0.002,-1.424 -0.039,-2.449 0.059,-3.29 0.135,-1.148 1.968,-4.209 1.414,-2.972 -0.074,0.167 -2.342,3.071 -0.271,6.654"
           fill="#000000" />
        <path
           id="Vector_37"
           d="m 133.479,145.991 c -0.122,-0.672 -0.013,-1.678 0.064,-2.376 0.036,-0.331 0.218,-1.038 0.965,-3.025 0.37,-0.987 -1.321,4.473 -0.208,5.906"
           fill="#000000" />
        <path
           id="Vector_38"
           d="m 120.63,155.407 c -0.716,2.009 0.571,4.668 0.504,4.109 -0.087,-0.723 -1.135,-2.106 0.316,-4.428"
           fill="#000000" />
        <path
           id="Vector_39"
           d="m 124.809,154.263 c -0.159,1.321 0.423,2.761 2.596,4.305 0.098,0.07 -1.987,-1.528 -2.034,-4.096"
           fill="#000000" />
        <path
           id="Vector_40"
           d="m 129.758,153.219 c 0.477,1.706 2.389,3.455 2.375,3.432 -0.895,-1.464 -2.048,-1.957 -1.629,-3.501"
           fill="#000000" />
        <path
           id="Vector_41"
           d="m 133.574,151.873 c 1.65,7.045 0.268,0.83 0.757,-0.232 z"
           fill="#000000" />
        <path
           id="Vector_42"
           d="m 135.579,147.087 c 0.477,-1.707 2.389,-3.455 2.375,-3.432 -0.895,1.464 -2.048,1.957 -1.63,3.5"
           fill="#000000" />
        <path
           id="Vector_43"
           d="m 114.288,136.866 c -0.832,0.186 -1.44,0.246 -1.859,-0.67 -0.337,-0.737 -0.945,-3.437 -0.133,-4.023 2.062,-1.488 19.73,-0.913 22.707,-0.537 3.499,0.442 6.384,1.793 9.56,3.218 2.199,0.988 4.838,1.342 3.851,1.342 -6.937,0 -14.008,-0.939 -20.98,-0.939 -4.392,0 -8.779,0.804 -13.146,0.804"
           fill="#000000" />
        <g
           id="Group_6">
          <path
             id="Vector_44"
             d="m 124.65,205.234 c -4.686,-2.494 -13.669,-12.825 -19.155,-12.033 -1.546,0.223 -2.66,1.613 -3.96,2.269 -0.344,0.174 -0.214,-0.944 -0.321,-1.188 -0.173,-0.393 -1.6558,-3.138 -2.4611,-2.054 -1.764,2.375 0.9047,7.69 3.4241,8.538 1.976,0.666 3.572,-0.848 5.351,-1.297 2.858,-0.721 6.161,1.596 8.454,2.919 1.507,0.87 4.154,2.348 5.79,3.009 1.085,0.438 2.37,0.555 2.223,0.523 -1.997,-0.435 -10.19,2.678 -12.103,2.432 -2.273,-0.292 -5.491,0.246 -7.36,-1.533 -0.247,-0.235 -0.983,-0.855 -1.392,-0.648 -1.805,0.911 -2.136,6.956 -0.642,8.214 1.126,0.947 2.941,0.963 4.281,1.188 7.737,1.303 15.913,-8.044 17.739,-9.45"
             fill="#ffb5b9" />
          <path
             id="Vector_45"
             d="m 97.8072,194.859 c 0.3761,-2.883 1.1041,-3.475 2.6048,-2.885 0.555,0.218 0.686,2.949 1.515,2.471 1.347,-0.778 1.838,-2 3.61,-2 3.037,0 20.101,10.669 19.452,13.293 -0.245,0.99 -8.497,-2.349 -9.085,-2.706 -2.037,-1.234 -5.292,-3.364 -7.804,-2.941 -2.2,0.371 -3.303,1.453 -5.647,0.782 -1.28,-0.367 -1.697,-1.506 -2.8727,-2.227 -0.5601,-0.343 -1.1459,-4.366 -1.7192,-3.787 -0.6232,0.629 2.5499,4.927 2.9559,5.338 3.277,3.31 3.767,-3.746 10.894,-1.047 1.352,0.512 11.186,7.637 11.88,6.235 0.37,-0.747 -7.908,-5.748 -8.969,-6.235 -2.569,-1.179 -6.087,-6.263 -9.318,-5.176 -0.959,0.323 -2.806,2.959 -3.61,2.823 -1.281,-0.215 -2.0323,-6.399 -3.5107,-1.938"
             fill="#000000" />
          <path
             id="Vector_46"
             d="m 123.259,205.895 c -0.828,-0.183 -2.978,-0.054 -3.832,-0.015 -1.193,0.055 -2.132,1.569 -3.262,1.664 -1.873,0.157 -3.802,0.49 -5.677,0.608 -1.009,0.063 -3.783,-0.346 -4.783,-0.779 -1.383,-0.599 -0.772,-2.985 -2.381,-1.493 -2.611,2.423 -4.4582,7.337 -1.419,9.639 1.576,1.194 3.732,1.335 5.629,1.335 6.366,0 9.276,-3.289 13.459,-7.514 0.347,-0.35 3.584,-2.467 3.524,-2.768 -0.449,-2.27 -6.193,4.44 -6.509,4.696 -3.175,2.565 -10.017,5.73 -14.145,3.806 -2.41,-1.123 -2.423,-6.244 -0.245,-7.711 1.502,-1.011 1.978,2.162 4.209,1.631 3.031,-0.72 3.967,0.064 6.265,-0.346 2.867,-0.511 7.489,-3.034 10.426,-2.786"
             fill="#000000" />
        </g>
        <g
           id="Group_7">
          <path
             id="Vector_47"
             d="m 103.702,142.874 c 0.23,10.632 -0.108,18.296 -5.7519,26.439 -1.1884,1.715 -3.8977,3.071 -4.6067,5.04 -1.3164,3.656 5.9411,9.431 9.0596,10.004 1.771,0.325 3.524,-0.374 5.375,0 1.258,0.254 2.537,0.73 3.839,0.542 2.789,-0.402 6.345,-4.466 6.526,-7.211 0.192,-2.907 -2.561,-3.436 -3.225,-5.894 -0.584,-2.164 -0.091,-4.662 -0.461,-6.901 -1.357,-8.227 -3.07,-15.887 -6.602,-23.419 -1.47,-3.133 -3.002,-4.923 -4.761,-7.144"
             fill="#f6e4cd" />
          <path
             id="Vector_48"
             d="m 102.453,139.923 c 0.948,22.574 -2.7617,25.762 -5.475,29.285 -1.3241,1.72 -4.0609,2.201 -4.7061,4.482 -1.29,4.559 2.2379,7.733 5.782,9.778 0.4842,0.28 6.1851,1.571 6.1851,0.95 0,-0.275 -0.548,-0.048 -0.807,-0.135 -0.912,-0.307 -1.8,-0.678 -2.689,-1.087 -3.5686,-1.638 -5.7764,-4.019 -6.1852,-8.148 -0.2287,-2.31 7.2642,-8.508 8.2022,-13.716 0.776,-4.312 1.114,-17.267 0.672,-21.729"
             fill="#000000" />
          <path
             id="Vector_49"
             d="m 100.743,181.024 c -2.2826,-2.378 1.139,-2.6 3.092,-2.717 1.517,-0.089 3.201,-0.603 4.707,-0.135 1.273,0.395 6.026,2.271 5.513,4.345 -0.44,1.776 -6.051,0.854 -6.051,0.815 0,-0.403 3.488,-1.773 2.689,-2.58 -1.498,-1.513 -8.44,-2.316 -10.219,0.679"
             fill="#000000" />
          <path
             id="Vector_50"
             d="m 116.072,173.554 c 0.744,1.829 1.173,3.713 0.941,5.704 -0.312,2.679 -2.174,3.929 -4.034,5.432 -0.372,0.301 -1.191,0.484 -1.076,0.951 0.767,3.097 11.681,-8.429 5.244,-11.679"
             fill="#000000" />
        </g>
      </g>
      <g
         id="Nägu-Highlightsid">
        <circle
           id="data-circle-лоб"
           opacity="0.2"
           cx="111"
           cy="103"
           r="20"
           fill="#687887" />
        <circle
           id="data-circle-брова"
           opacity="0.2"
           cx="123.5"
           cy="130.5"
           r="12.5"
           fill="#687887" />
        <circle
           id="data-circle-вії"
           opacity="0.6"
           cx="135"
           cy="147"
           r="9"
           fill="#687887" />
        <circle
           id="data-circle-око"
           opacity="0.2"
           cx="125"
           cy="148"
           r="12"
           fill="#687887" />
        <circle
           id="data-circle-ніс"
           opacity="0.2"
           cx="106.5"
           cy="173.5"
           r="17.5"
           fill="#687887" />
        <circle
           id="data-circle-щока"
           opacity="0.2"
           cx="143.5"
           cy="178.5"
           r="17.5"
           fill="#687887" />
        <circle
           id="data-circle-рот"
           opacity="0.2"
           cx="109.5"
           cy="204.5"
           r="17.5"
           fill="#687887" />
        <circle
           id="data-circle-підборіддя"
           opacity="0.2"
           cx="121.5"
           cy="228.5"
           r="17.5"
           fill="#687887" />
        <circle
           id="data-circle-вухо"
           opacity="0.2"
           cx="192.5"
           cy="153.5"
           r="30.5"
           fill="#687887" />
        <circle
           id="data-circle-волосся"
           opacity="0.2"
           cx="256.5"
           cy="114.5"
           r="69.5"
           fill="#687887" />
        <circle
           id="data-circle-шия"
           opacity="0.2"
           cx="198.5"
           cy="236.5"
           r="39.5"
           fill="#687887" />
        <circle
           id="data-circle-губа"
           opacity="0.6"
           cx="106.5"
           cy="212.5"
           r="8.5"
           fill="#687887" />
        <circle
           id="data-circle-зуб"
           opacity="0.6"
           cx="109.5"
           cy="201.5"
           r="4.5"
           fill="#687887" />
        <circle
           id="data-circle-язик"
           opacity="0.6"
           cx="115.5"
           cy="205.5"
           r="4.5"
           fill="#687887" />
      </g>
    </g>
  </g>
</svg>
