<?xml version="1.0" encoding="UTF-8" standalone="no"?>
<svg
   width="536"
   height="597"
   viewBox="0 0 536 597"
   fill="none"
   version="1.1"
   id="vanavanemsvg"
   data-bigger=""
   sodipodi:docname="vanavanem_U.svg"
   inkscape:version="1.1.2 (b8e25be833, 2022-02-05)"
   xmlns:inkscape="http://www.inkscape.org/namespaces/inkscape"
   xmlns:sodipodi="http://sodipodi.sourceforge.net/DTD/sodipodi-0.dtd"
   xmlns="http://www.w3.org/2000/svg"
   xmlns:svg="http://www.w3.org/2000/svg">
  <defs
     id="defs201" />
  <sodipodi:namedview
     id="namedview199"
     pagecolor="#505050"
     bordercolor="#eeeeee"
     borderopacity="1"
     inkscape:pageshadow="0"
     inkscape:pageopacity="0"
     inkscape:pagecheckerboard="0"
     showgrid="false"
     inkscape:zoom="1.3098827"
     inkscape:cx="221.01216"
     inkscape:cy="298.50001"
     inkscape:window-width="1920"
     inkscape:window-height="986"
     inkscape:window-x="-11"
     inkscape:window-y="-11"
     inkscape:window-maximized="1"
     inkscape:current-layer="vanavanem" />
  <g
     id="vanavanem_svg_trükitähed"
     style="display:inline">
    <rect
       id="Rectangle 335"
       x="232.5"
       y="55.5"
       width="87"
       height="154"
       rx="2.5"
       fill="#ecf0f2"
       stroke="#00377a" />
    <g
       id="pereliikmed_vanavanem_svg">
      <g
         id="vanavanem">
        <g
           id="jooned">
          <path
             id="Vector"
             d="m 275,201 v 67"
             stroke="#ed1c24"
             stroke-width="3"
             stroke-miterlimit="10" />
          <path
             id="Vector_2"
             d="m 92,461 v -19 h 181 v 19"
             stroke="#ec0138"
             stroke-width="3"
             stroke-miterlimit="10" />
          <path
             id="Vector_3"
             d="M 75.5859,396 V 360 H 181.586 v 36"
             stroke="#ec0138"
             stroke-width="3"
             stroke-miterlimit="10" />
          <path
             id="Vector_4"
             d="m 351,396 v -36 h 106 v 36"
             stroke="#ec0138"
             stroke-width="3"
             stroke-miterlimit="10" />
          <path
             id="Vector_5"
             d="m 184,199 v -31 h 106 v 31"
             stroke="#ec0138"
             stroke-width="3"
             stroke-miterlimit="10" />
          <path
             id="Vector_6"
             d="m 181,362 v 99"
             stroke="#ec0138"
             stroke-width="3"
             stroke-miterlimit="10" />
          <path
             id="Vector 2"
             d="M 78,264 V 27 h 199"
             stroke="#007025"
             stroke-width="3" />
          <path
             id="Vector 3"
             d="M 464,272 V 27 H 277"
             stroke="#007025"
             stroke-width="3" />
          <rect
             id="Rectangle 323"
             x="274"
             y="27"
             width="3"
             height="40"
             fill="#007025" />
          <path
             id="Vector_7"
             d="m 183,272 v -25 h 188 v 25"
             stroke="#ed1c24"
             stroke-width="3"
             stroke-miterlimit="10" />
        </g>
        <g
           id="pereliikmed_vanavanem">
          <g
             id="lapselapsed">
            <g
               id="Group 796">
              <path
                 id="Vector_8"
                 d="m 82.5177,497.103 -1.2923,-7.211 c -0.2486,-1.364 -1.0271,-2.574 -2.1651,-3.366 -1.1381,-0.792 -2.5434,-1.101 -3.9087,-0.86 v 0 c -0.6789,0.115 -1.328,0.365 -1.9092,0.734 -0.5812,0.369 -1.0828,0.851 -1.4752,1.417 -0.3925,0.566 -0.6679,1.204 -0.8102,1.878 -0.1423,0.674 -0.1485,1.369 -0.0183,2.045 v 0 l 0.3101,1.706 c 0.1819,1.066 0.0315,2.163 -0.4308,3.141 -0.4624,0.977 -1.2143,1.789 -2.1538,2.326 -1.7167,1.002 -3.1767,2.391 -4.2645,4.055 -1.0878,1.664 -1.7736,3.559 -2.0032,5.533 -0.3235,3.477 0.7473,6.941 2.9769,9.628 2.2296,2.688 5.4354,4.38 8.9123,4.704 3.4629,0.424 6.9524,-0.544 9.7024,-2.691 2.75,-2.146 4.5358,-5.297 4.9653,-8.759 0.2167,-2.091 -0.085,-4.204 -0.8783,-6.151 -0.7934,-1.948 -2.054,-3.67 -3.6706,-5.014 -0.9696,-0.789 -1.6362,-1.89 -1.8868,-3.115 z"
                 fill="#c49a6c" />
              <path
                 id="Vector_9"
                 d="m 102.51,497.103 1.292,-7.211 c 0.257,-1.362 1.043,-2.567 2.186,-3.351 1.143,-0.785 2.55,-1.085 3.914,-0.836 v 0 c 0.678,0.115 1.328,0.365 1.909,0.734 0.581,0.369 1.082,0.851 1.475,1.417 0.392,0.566 0.668,1.204 0.81,1.878 0.142,0.674 0.149,1.369 0.018,2.045 v 0 l -0.336,1.68 c -0.181,1.066 -0.031,2.163 0.431,3.141 0.463,0.978 1.215,1.79 2.154,2.326 1.727,0.995 3.196,2.38 4.291,4.046 1.096,1.665 1.786,3.563 2.016,5.543 0.382,3.519 -0.65,7.047 -2.869,9.806 -2.219,2.76 -5.443,4.524 -8.963,4.906 -3.52,0.383 -7.047,-0.649 -9.806,-2.868 -2.7595,-2.219 -4.5243,-5.443 -4.9065,-8.963 -0.2228,-2.09 0.0748,-4.204 0.8661,-6.152 0.7914,-1.948 2.0521,-3.67 3.6704,-5.013 0.974,-0.785 1.63,-1.896 1.848,-3.128 z"
                 fill="#c49a6c" />
              <path
                 id="Vector_10"
                 d="m 107.95,518.426 h -4.666 c -1.731,0 -4.4582,-1.408 -4.4582,-3.153 v -6.306 c 0,-0.156 0.0608,-0.305 0.1695,-0.416 0.1087,-0.111 0.2566,-0.176 0.4121,-0.179 7.2366,-0.336 11.7346,-6.319 11.7346,-13.66 v -5.401 c 0.258,0.107 0.534,0.164 0.814,0.168 1.77,0 3.192,-2.262 3.192,-5.041 0,-2.39 -1.06,-4.393 -2.482,-4.962 h -1.292 l -0.258,0.091 v -0.104 c -1.51,-0.013 -3.017,-0.129 -4.51,-0.349 -2.792,-1.628 -5.351,-10.842 -6.8885,-17.95 -0.1938,5.647 -1.4215,14.681 -7.0301,17.963 -8.4,4.963 -20.5607,0.53 -20.5607,0.53 -0.3107,-0.167 -0.6556,-0.259 -1.008,-0.271 -1.7704,0 -3.192,2.261 -3.192,5.052 0,2.792 1.4216,5.041 3.192,5.041 0.3522,-0.002 0.6985,-0.091 1.008,-0.259 v 5.531 c 0,7.328 4.4843,13.311 11.7213,13.66 0.1554,0.003 0.3033,0.067 0.412,0.178 0.1087,0.112 0.1695,0.261 0.1695,0.416 v 6.824 c 0,1.46 -2.4812,2.584 -3.8769,2.584 h -5.1692 c -1.8668,0 -3.7153,0.368 -5.44,1.082 -1.7247,0.715 -3.2918,1.762 -4.6118,3.082 -1.3201,1.32 -2.3672,2.887 -3.0815,4.612 -0.7144,1.724 -1.0821,3.573 -1.0821,5.44 v 31.131 c -2e-4,3.75 1.4816,7.349 4.1224,10.011 2.6408,2.663 6.2267,4.174 9.9766,4.205 h 32.683 c 3.77,0 7.385,-1.498 10.051,-4.164 2.666,-2.666 4.164,-6.281 4.164,-10.052 v -31.157 c 0,-3.77 -1.498,-7.386 -4.164,-10.052 -2.666,-2.666 -6.281,-4.164 -10.051,-4.164 z"
                 fill="#f7b7b7" />
              <path
                 id="Vector_11"
                 d="m 92.7395,479.127 c 5.6086,-3.282 6.8363,-12.315 7.0301,-17.963 1.5374,7.108 4.0964,16.322 6.9014,17.963 1.493,0.22 3,0.336 4.51,0.349 v -2.998 C 111.181,464.615 104.125,455 92.2613,455 H 90.969 c -11.4369,0 -18.3895,8.956 -18.8547,20.238 v 4.419 c 0,0 12.2252,4.381 20.6252,-0.53 z"
                 fill="#c49a6c" />
              <path
                 id="Vector_12"
                 d="m 122.987,532.396 c 0,-1.848 -0.365,-3.678 -1.073,-5.384 -0.708,-1.707 -1.746,-3.257 -3.055,-4.562 -1.309,-1.305 -2.862,-2.339 -4.57,-3.043 -1.709,-0.704 -3.54,-1.063 -5.388,-1.058 h -0.362 l -8.426,-0.543 -2.9592,1.37 c -1.8642,0.876 -3.9029,1.317 -5.9624,1.29 -2.0595,-0.027 -4.086,-0.521 -5.9268,-1.445 l -2.2098,-1.15 -8.6068,0.452 h -0.4394 c -3.7166,0.01 -7.2777,1.493 -9.9034,4.124 -2.6256,2.63 -4.1018,6.194 -4.1052,9.911 v 15.184 h 14.3963 v 30.46 h 34.1817 v -30.46 h 14.396 z"
                 fill="#a9ebb4" />
              <path
                 id="Vector_13"
                 d="m 86.8857,500.05 2.8173,0.866 c 1.6529,0.491 3.4129,0.491 5.0658,0 l 3.3342,-0.931 -2.1711,1.965 c -0.9431,0.921 -2.213,1.43 -3.5311,1.415 -1.3181,-0.014 -2.5766,-0.551 -3.4991,-1.493 v 0 z"
                 fill="#e09090" />
              <path
                 id="Vector_14"
                 d="m 88.682,488.096 c 0,0 -3.528,2.042 -4.6911,2.042 -1.1631,0 -4.6911,-2.042 -4.6911,-2.042 0,0 3.528,-2.016 4.6911,-2.016 1.1631,0 4.6911,2.016 4.6911,2.016 z"
                 fill="#ffffff" />
              <path
                 id="Vector_15"
                 d="m 84.0293,490.319 c 1.1634,0 2.1065,-0.943 2.1065,-2.107 0,-1.163 -0.9431,-2.106 -2.1065,-2.106 -1.1634,0 -2.1064,0.943 -2.1064,2.106 0,1.164 0.943,2.107 2.1064,2.107 z"
                 fill="#2e3192" />
              <path
                 id="Vector_16"
                 d="m 105.663,488.096 c 0,0 -3.528,2.042 -4.691,2.042 -1.1628,0 -4.6908,-2.042 -4.6908,-2.042 0,0 3.541,-2.016 4.6908,-2.016 1.15,0 4.691,2.016 4.691,2.016 z"
                 fill="#ffffff" />
              <path
                 id="Vector_17"
                 d="m 101.011,490.319 c 1.163,0 2.106,-0.943 2.106,-2.107 0,-1.163 -0.943,-2.106 -2.106,-2.106 -1.1636,0 -2.1067,0.943 -2.1067,2.106 0,1.164 0.9431,2.107 2.1067,2.107 z"
                 fill="#2e3192" />
              <path
                 id="Vector_18"
                 d="m 94.1484,494.57 c -0.09,0.448 -0.3323,0.851 -0.6856,1.14 -0.3534,0.29 -0.7961,0.448 -1.2529,0.448 -0.4567,0 -0.8994,-0.158 -1.2528,-0.448 -0.3533,-0.289 -0.5956,-0.692 -0.6856,-1.14 0.2073,-1.247 0.5318,-2.471 0.9692,-3.657 0.0861,-0.258 0.2684,-0.474 0.5091,-0.601 0.2406,-0.128 0.5211,-0.158 0.7832,-0.084 0.1614,0.05 0.3083,0.138 0.4277,0.257 0.1194,0.12 0.2077,0.267 0.2572,0.428 0.4243,1.187 0.7358,2.412 0.9305,3.657 z"
                 fill="#e09090" />
            </g>
            <g
               id="Group 795">
              <path
                 id="Vector_19"
                 d="m 200.941,518.452 h -9.614 c -0.075,0.004 -0.15,-0.008 -0.22,-0.033 -0.07,-0.025 -0.135,-0.064 -0.19,-0.115 -0.055,-0.05 -0.1,-0.111 -0.132,-0.179 -0.031,-0.068 -0.049,-0.141 -0.053,-0.216 v -8.413 c 0,-0.15 0.06,-0.295 0.167,-0.402 0.106,-0.106 0.251,-0.166 0.402,-0.166 3.406,-0.069 6.652,-1.453 9.061,-3.862 2.409,-2.409 3.793,-5.656 3.862,-9.061 v -2.12 c 0.255,0.103 0.527,0.155 0.801,0.156 1.745,0 3.153,-2.133 3.153,-4.769 0,-2.636 -1.408,-4.782 -3.153,-4.782 -0.275,0.004 -0.547,0.061 -0.801,0.168 v -5.944 c 0,-11.243 -9.511,-20.354 -21.233,-20.354 h -1.163 c -11.734,0 -21.232,9.111 -21.232,20.354 v 6.022 c -0.308,-0.158 -0.649,-0.242 -0.995,-0.246 -1.745,0 -3.154,2.146 -3.154,4.782 0,2.636 1.409,4.769 3.154,4.769 0.347,0.002 0.689,-0.082 0.995,-0.246 v 2.249 c 0.068,3.388 1.437,6.62 3.824,9.026 2.387,2.406 5.608,3.801 8.995,3.897 0.152,0 0.298,0.059 0.407,0.165 0.109,0.107 0.171,0.251 0.175,0.403 v 8.387 c -0.004,0.152 -0.066,0.297 -0.175,0.403 -0.109,0.107 -0.255,0.166 -0.407,0.166 h -9.679 c -3.63,-0.069 -7.141,1.301 -9.763,3.813 -2.623,2.511 -4.145,5.958 -4.233,9.588 v 0 33.174 c 0,7.443 6.203,12.768 14.009,12.768 h 37.167 c 7.753,0 14.008,-5.35 14.008,-12.768 v -33.174 c -0.074,-3.635 -1.589,-7.093 -4.211,-9.613 -2.621,-2.52 -6.136,-3.896 -9.772,-3.827 z"
                 fill="#f7b7b7" />
              <path
                 id="Vector_20"
                 d="m 178.365,503.914 2.675,0.814 c 1.569,0.465 3.239,0.465 4.808,0 l 3.14,-0.879 -2.094,1.796 c -0.899,0.867 -2.106,1.343 -3.355,1.324 -1.249,-0.019 -2.44,-0.532 -3.313,-1.427 z"
                 fill="#e09090" />
              <path
                 id="Vector_21"
                 d="m 197.452,463.361 c -0.281,-0.004 -0.562,0.018 -0.84,0.065 v -0.065 c 0,-4.549 -7.004,-8.245 -15.637,-8.245 -8.632,0 -15.65,3.722 -15.65,8.245 0.007,0.4 0.072,0.796 0.194,1.176 -0.598,-0.579 -1.354,-0.968 -2.172,-1.12 -0.819,-0.152 -1.664,-0.06 -2.43,0.266 -0.767,0.325 -1.42,0.869 -1.879,1.563 -0.46,0.694 -0.704,1.509 -0.704,2.341 -0.004,0.572 0.108,1.138 0.33,1.665 0.223,0.526 0.55,1.002 0.962,1.398 -0.249,0.233 -0.449,0.514 -0.589,0.825 -0.14,0.311 -0.218,0.647 -0.227,0.988 -0.01,0.342 0.048,0.681 0.171,1 0.122,0.319 0.306,0.61 0.542,0.857 0.409,0.403 0.94,0.659 1.51,0.727 0.571,0.068 1.147,-0.056 1.639,-0.353 0.492,-0.296 0.871,-0.748 1.078,-1.284 0.207,-0.535 0.229,-1.125 0.063,-1.675 0.074,-0.012 0.144,-0.038 0.207,-0.077 v 0.491 c 0.004,1.559 0.624,3.054 1.725,4.158 1.102,1.104 2.596,1.728 4.155,1.735 1.193,0 2.356,-0.365 3.334,-1.047 0.456,1.566 1.46,2.916 2.829,3.803 1.368,0.887 3.01,1.253 4.625,1.031 1.616,-0.223 3.098,-1.019 4.175,-2.243 1.078,-1.224 1.679,-2.795 1.695,-4.426 v -0.323 c 0.621,0.205 1.291,0.21 1.914,0.012 0.623,-0.198 1.168,-0.588 1.557,-1.114 0.388,-0.526 0.6,-1.161 0.606,-1.815 0.006,-0.654 -0.196,-1.293 -0.575,-1.826 l 0.621,-0.233 v 0.336 c 0,1.345 0.398,2.659 1.145,3.777 0.747,1.118 1.809,1.989 3.051,2.504 1.242,0.514 2.609,0.649 3.927,0.386 1.319,-0.262 2.53,-0.909 3.481,-1.86 0.95,-0.951 1.598,-2.162 1.86,-3.48 0.262,-1.319 0.128,-2.686 -0.387,-3.928 -0.514,-1.242 -1.386,-2.304 -2.503,-3.05 -1.118,-0.747 -2.432,-1.146 -3.777,-1.146 v 0 z m -30.524,3.606 -0.155,0.103 v -0.323 z"
                 fill="#c49a6c" />
              <path
                 id="Vector_22"
                 d="m 214.895,531.634 c -0.045,-1.812 -0.448,-3.598 -1.183,-5.254 -0.736,-1.657 -1.792,-3.152 -3.106,-4.4 -1.314,-1.248 -2.862,-2.225 -4.554,-2.875 -1.692,-0.65 -3.496,-0.959 -5.308,-0.911 h -0.31 l -9.744,-0.504 -2.985,1.292 c -1.891,0.837 -3.939,1.258 -6.006,1.233 -2.067,-0.024 -4.104,-0.493 -5.974,-1.375 l -2.326,-1.098 -9.925,0.426 h -0.336 c -3.657,-0.09 -7.199,1.275 -9.85,3.795 -2.651,2.52 -4.193,5.989 -4.288,9.645 v 14.487 h 14.487 v 31.752 h 36.947 v -31.726 h 14.5 z"
                 fill="#a9ebb4" />
              <path
                 id="Vector_23"
                 d="m 179.632,488.29 c 0,0 -3.515,2.016 -4.691,2.016 -1.176,0 -4.691,-2.016 -4.691,-2.016 0,0 3.541,-2.016 4.691,-2.016 1.15,0 4.691,2.016 4.691,2.016 z"
                 fill="#ffffff" />
              <path
                 id="Vector_24"
                 d="m 174.98,490.513 c 1.163,0 2.106,-0.943 2.106,-2.107 0,-1.163 -0.943,-2.106 -2.106,-2.106 -1.164,0 -2.107,0.943 -2.107,2.106 0,1.164 0.943,2.107 2.107,2.107 z"
                 fill="#3c2415" />
              <path
                 id="Vector_25"
                 d="m 196.626,488.29 c 0,0 -3.528,2.016 -4.691,2.016 -1.163,0 -4.717,-2.016 -4.717,-2.016 0,0 3.528,-2.016 4.678,-2.016 1.15,0 4.73,2.016 4.73,2.016 z"
                 fill="#ffffff" />
              <path
                 id="Vector_26"
                 d="m 191.974,490.513 c 1.163,0 2.106,-0.943 2.106,-2.107 0,-1.163 -0.943,-2.106 -2.106,-2.106 -1.164,0 -2.107,0.943 -2.107,2.106 0,1.164 0.943,2.107 2.107,2.107 z"
                 fill="#3c2415" />
              <path
                 id="Vector_27"
                 d="m 185.641,498.409 c 0.022,0.272 -0.012,0.546 -0.101,0.804 -0.089,0.258 -0.231,0.495 -0.416,0.696 -0.185,0.201 -0.41,0.361 -0.66,0.47 -0.25,0.11 -0.52,0.167 -0.793,0.167 -0.274,0 -0.544,-0.057 -0.794,-0.167 -0.25,-0.109 -0.475,-0.269 -0.66,-0.47 -0.185,-0.201 -0.327,-0.438 -0.416,-0.696 -0.089,-0.258 -0.123,-0.532 -0.101,-0.804 0.207,-1.243 0.532,-2.463 0.969,-3.645 0.04,-0.13 0.105,-0.25 0.191,-0.355 0.087,-0.105 0.193,-0.191 0.313,-0.255 0.12,-0.064 0.252,-0.103 0.387,-0.116 0.135,-0.013 0.272,10e-4 0.401,0.041 0.161,0.052 0.307,0.141 0.426,0.26 0.119,0.119 0.208,0.265 0.259,0.425 0.446,1.181 0.78,2.401 0.995,3.645 z"
                 fill="#e09090" />
            </g>
            <g
               id="Group 789">
              <g
                 id="Group 779">
                <path
                   id="Vector_28"
                   d="m 287.95,518.426 h -4.666 c -1.731,0 -4.458,-1.408 -4.458,-3.153 v -6.306 c 0,-0.156 0.061,-0.305 0.169,-0.416 0.109,-0.111 0.257,-0.176 0.412,-0.179 7.237,-0.336 11.735,-6.319 11.735,-13.66 v -5.401 c 0.258,0.107 0.534,0.164 0.814,0.168 1.77,0 3.192,-2.262 3.192,-5.041 0,-2.39 -1.06,-4.393 -2.482,-4.962 h -1.292 l -0.258,0.091 v -0.104 c -1.51,-0.013 -3.017,-0.129 -4.51,-0.349 -2.792,-1.628 -5.351,-10.842 -6.888,-17.95 -0.194,5.647 -1.422,14.681 -7.031,17.963 -8.4,4.963 -20.56,0.53 -20.56,0.53 -0.311,-0.167 -0.656,-0.259 -1.008,-0.271 -1.771,0 -3.192,2.261 -3.192,5.052 0,2.792 1.421,5.041 3.192,5.041 0.352,-0.002 0.698,-0.091 1.008,-0.259 v 5.531 c 0,7.328 4.484,13.311 11.721,13.66 0.155,0.003 0.303,0.067 0.412,0.178 0.109,0.112 0.17,0.261 0.17,0.416 v 6.824 c 0,1.46 -2.482,2.584 -3.877,2.584 h -5.17 c -1.866,0 -3.715,0.368 -5.44,1.082 -1.724,0.715 -3.291,1.762 -4.611,3.082 -1.32,1.32 -2.368,2.887 -3.082,4.612 -0.714,1.724 -1.082,3.573 -1.082,5.44 v 31.131 c 0,3.75 1.482,7.349 4.122,10.011 2.641,2.663 6.227,4.174 9.977,4.205 h 32.683 c 3.77,0 7.385,-1.498 10.051,-4.164 2.666,-2.666 4.164,-6.281 4.164,-10.052 v -31.157 c 0,-3.77 -1.498,-7.386 -4.164,-10.052 -2.666,-2.666 -6.281,-4.164 -10.051,-4.164 z"
                   fill="#f7b7b7" />
                <path
                   id="Vector_29"
                   d="m 272.739,479.127 c 5.609,-3.282 6.837,-12.315 7.031,-17.963 1.537,7.108 4.096,16.322 6.901,17.963 1.493,0.22 3,0.336 4.51,0.349 v -2.998 c 0,-11.863 -7.056,-21.478 -18.92,-21.478 h -1.292 c -11.437,0 -18.39,8.956 -18.855,20.238 v 4.419 c 0,0 12.225,4.381 20.625,-0.53 z"
                   fill="#c49a6c" />
                <path
                   id="Vector_30"
                   d="m 303.987,532.396 c 0,-1.848 -0.365,-3.678 -1.073,-5.384 -0.708,-1.707 -1.746,-3.257 -3.055,-4.562 -1.309,-1.305 -2.862,-2.339 -4.57,-3.043 -1.709,-0.704 -3.54,-1.063 -5.388,-1.058 h -0.362 l -8.426,-0.543 -2.959,1.37 c -1.864,0.876 -3.903,1.317 -5.963,1.29 -2.059,-0.027 -4.086,-0.521 -5.926,-1.445 l -2.21,-1.15 -8.607,0.452 h -0.439 c -3.717,0.01 -7.278,1.493 -9.904,4.124 -2.625,2.63 -4.102,6.194 -4.105,9.911 v 15.184 h 14.396 v 30.46 h 34.182 v -30.46 h 14.396 z"
                   fill="#a9ebb4" />
                <path
                   id="Vector_31"
                   d="m 266.886,500.05 2.817,0.866 c 1.653,0.491 3.413,0.491 5.066,0 l 3.334,-0.931 -2.171,1.965 c -0.943,0.921 -2.213,1.43 -3.531,1.415 -1.318,-0.014 -2.577,-0.551 -3.499,-1.493 v 0 z"
                   fill="#e09090" />
                <path
                   id="Vector_32"
                   d="m 268.682,488.096 c 0,0 -3.528,2.042 -4.691,2.042 -1.163,0 -4.691,-2.042 -4.691,-2.042 0,0 3.528,-2.016 4.691,-2.016 1.163,0 4.691,2.016 4.691,2.016 z"
                   fill="#ffffff" />
                <path
                   id="Vector_33"
                   d="m 264.029,490.319 c 1.164,0 2.107,-0.943 2.107,-2.107 0,-1.163 -0.943,-2.106 -2.107,-2.106 -1.163,0 -2.106,0.943 -2.106,2.106 0,1.164 0.943,2.107 2.106,2.107 z"
                   fill="#2e3192" />
                <path
                   id="Vector_34"
                   d="m 285.663,488.096 c 0,0 -3.528,2.042 -4.691,2.042 -1.163,0 -4.691,-2.042 -4.691,-2.042 0,0 3.541,-2.016 4.691,-2.016 1.15,0 4.691,2.016 4.691,2.016 z"
                   fill="#ffffff" />
                <path
                   id="Vector_35"
                   d="m 281.011,490.319 c 1.163,0 2.106,-0.943 2.106,-2.107 0,-1.163 -0.943,-2.106 -2.106,-2.106 -1.164,0 -2.107,0.943 -2.107,2.106 0,1.164 0.943,2.107 2.107,2.107 z"
                   fill="#2e3192" />
                <path
                   id="Vector_36"
                   d="m 274.148,494.57 c -0.09,0.448 -0.332,0.851 -0.685,1.14 -0.354,0.29 -0.796,0.448 -1.253,0.448 -0.457,0 -0.899,-0.158 -1.253,-0.448 -0.353,-0.289 -0.596,-0.692 -0.686,-1.14 0.208,-1.247 0.532,-2.471 0.97,-3.657 0.086,-0.258 0.268,-0.474 0.509,-0.601 0.24,-0.128 0.521,-0.158 0.783,-0.084 0.161,0.05 0.308,0.138 0.428,0.257 0.119,0.12 0.207,0.267 0.257,0.428 0.424,1.187 0.736,2.412 0.93,3.657 z"
                   fill="#e09090" />
                <circle
                   id="Ellipse 4"
                   cx="263.5"
                   cy="488.5"
                   r="6"
                   stroke="#000000" />
                <circle
                   id="Ellipse 5"
                   cx="281.5"
                   cy="488.5"
                   r="6"
                   stroke="#000000" />
                <rect
                   id="Rectangle 319"
                   x="269"
                   y="488"
                   width="7"
                   height="1"
                   fill="#000000" />
              </g>
            </g>
          </g>
          <g
             id="mina">
            <path
               id="Vector_37"
               d="m 268.104,140.136 c 2.301,1.395 4.962,2.081 7.651,1.973 2.689,-0.108 5.287,-1.005 7.469,-2.581 l 0.543,-0.374 c 0.721,-2.039 1.782,-3.939 3.14,-5.622 h -1.176 c -0.852,-0.073 -1.641,-0.476 -2.199,-1.123 -0.558,-0.647 -0.84,-1.487 -0.786,-2.34 v -6.979 c -0.008,-0.159 0.045,-0.316 0.148,-0.438 0.103,-0.123 0.249,-0.201 0.407,-0.221 6.888,-0.388 12.381,-6.991 12.381,-15.068 v -3.153 c 0.247,0.115 0.515,0.181 0.788,0.193 1.667,0 3.024,-2.494 3.024,-5.5694 0,-3.0756 -1.292,-5.5698 -3.024,-5.5698 -0.275,-3e-4 -0.545,0.0663 -0.788,0.1938 v -6.2418 c 0,-13.104 -9.15,-23.7138 -20.445,-23.7138 h -1.111 c -11.295,0 -20.444,10.6098 -20.444,23.7138 v 6.3452 c -0.281,-0.194 -0.615,-0.2976 -0.957,-0.2972 -1.68,0 -3.037,2.4942 -3.037,5.5698 0,3.0754 1.357,5.5694 3.037,5.5694 0.339,-0.009 0.668,-0.107 0.957,-0.284 v 3.244 c 0,8.077 5.492,14.68 12.38,15.055 0.08,0.007 0.158,0.029 0.229,0.066 0.071,0.036 0.134,0.087 0.186,0.148 0.052,0.061 0.091,0.132 0.115,0.209 0.024,0.076 0.033,0.157 0.026,0.236 v 7.483 c 0.053,0.719 -0.181,1.431 -0.651,1.978 -0.469,0.547 -1.137,0.886 -1.856,0.942 h -2.081 c 1.148,1.377 2.064,2.931 2.714,4.601 z"
               fill="#f7b7b7" />
            <path
               id="Vector_38"
               d="m 268.104,140.136 -3.36,-2.016 0.44,1.033 c 3.204,7.896 7.521,25.73 6.616,64.37 h 5.35 c -0.904,-38.64 3.399,-56.474 6.617,-64.37 l -0.543,0.375 c -2.182,1.576 -4.779,2.473 -7.468,2.581 -2.689,0.108 -5.351,-0.578 -7.652,-1.973 z"
               fill="#2e3192" />
            <path
               id="Vector_39"
               d="m 264.744,138.12 3.36,2.016 z"
               fill="#2e3192" />
            <path
               id="Vector_40"
               d="m 257.882,134.01 -0.478,-0.297 z"
               fill="#1c75bc" />
            <path
               id="Vector_41"
               d="m 263.451,137.409 -1.215,-0.723 z"
               fill="#1c75bc" />
            <path
               id="Vector_42"
               d="m 263.465,137.409 1.292,0.763 z"
               fill="#1c75bc" />
            <path
               id="Vector_43"
               d="m 260.983,135.871 -3.101,-1.861 z"
               fill="#1c75bc" />
            <path
               id="Vector_44"
               d="M 262.211,136.608 261.1,135.936 Z"
               fill="#1c75bc" />
            <path
               id="Vector_45"
               d="m 257.094,133.532 0.323,0.194 z"
               fill="#1c75bc" />
            <path
               id="Vector_46"
               d="m 270.637,100.746 c -1.248,0.773 -2.596,1.368 -4.006,1.771 -1.418,-0.401 -2.774,-0.992 -4.032,-1.758 1.258,-0.7623 2.614,-1.3493 4.032,-1.7444 1.409,0.3891 2.757,0.9719 4.006,1.7314 z"
               fill="#ffffff" />
            <path
               id="Vector_47"
               d="m 266.631,102.659 c 1.006,0 1.822,-0.816 1.822,-1.822 0,-1.0065 -0.816,-1.8224 -1.822,-1.8224 -1.007,0 -1.822,0.8159 -1.822,1.8224 0,1.006 0.815,1.822 1.822,1.822 z"
               fill="#231f20" />
            <path
               id="Vector_48"
               d="m 287.903,100.747 c -1.255,0.775 -2.612,1.371 -4.032,1.77 -1.415,-0.402 -2.768,-0.998 -4.019,-1.77 1.253,-0.7729 2.611,-1.3605 4.032,-1.745 1.414,0.3903 2.767,0.9776 4.019,1.745 z"
               fill="#ffffff" />
            <path
               id="Vector_49"
               d="m 283.896,102.659 c 1.007,0 1.823,-0.816 1.823,-1.822 0,-1.0065 -0.816,-1.8224 -1.823,-1.8224 -1.006,0 -1.822,0.8159 -1.822,1.8224 0,1.006 0.816,1.822 1.822,1.822 z"
               fill="#231f20" />
            <path
               id="Vector_50"
               d="m 281.945,116.254 -3.257,0.724 c -1.925,0.413 -3.916,0.413 -5.841,0 l -3.877,-0.776 2.584,1.59 c 1.215,0.782 2.633,1.191 4.078,1.175 1.445,-0.016 2.854,-0.456 4.051,-1.266 z"
               fill="#be1e2d" />
            <path
               id="Vector_51"
               d="m 278.558,110.464 c 0,0.806 -0.32,1.578 -0.889,2.148 -0.57,0.569 -1.342,0.889 -2.148,0.889 -0.805,0 -1.578,-0.32 -2.147,-0.889 -0.57,-0.57 -0.89,-1.342 -0.89,-2.148 0,-1.68 3.037,-10.157 3.037,-10.157 0,0 3.037,8.477 3.037,10.157 z"
               fill="#e09090" />
            <path
               id="Vector_52"
               d="m 297.219,105.386 c 0.571,0 1.034,-0.533 1.034,-1.189 0,-0.657 -0.463,-1.189 -1.034,-1.189 -0.571,0 -1.033,0.532 -1.033,1.189 0,0.656 0.462,1.189 1.033,1.189 z"
               fill="#2e3192" />
            <path
               id="Vector_53"
               d="m 252.532,105.166 c 0.571,0 1.034,-0.532 1.034,-1.189 0,-0.657 -0.463,-1.189 -1.034,-1.189 -0.571,0 -1.034,0.532 -1.034,1.189 0,0.657 0.463,1.189 1.034,1.189 z"
               fill="#2e3192" />
            <path
               id="Vector_54"
               d="m 279.18,95.8094 1.874,2.1711 c 0,0 1.938,-1.4215 8.723,-1.8609 -3.361,-1.466 -7.157,-1.5771 -10.597,-0.3102 z"
               fill="#a7a9ac" />
            <path
               id="Vector_55"
               d="m 271.063,95.8096 -1.848,2.1711 c 0,0 -1.938,-1.4215 -8.723,-1.8609 3.353,-1.4591 7.139,-1.5701 10.571,-0.3102 z"
               fill="#a7a9ac" />
            <path
               id="Vector_56"
               d="m 298.266,72.7936 c -2.675,-5.376 -6.978,-8.4775 -10.338,-7.7538 -1.863,0.4279 -3.813,0.2699 -5.583,-0.4523 -0.267,-0.1122 -0.522,-0.2507 -0.762,-0.4136 -2.549,-1.7249 -5.488,-2.7857 -8.55,-3.0858 -3.063,-0.3002 -6.152,0.1697 -8.987,1.367 -14.719,6.0093 -11.23,29.7231 -11.23,29.7231 5.985,0.8351 12.083,0.0911 17.692,-2.1581 6.177,-2.3649 12.458,-4.8333 14.435,-10.3385 0.232,0.5815 0.478,1.1631 0.762,1.7317 3.115,6.2677 10.429,11.3206 10.429,11.3206 0,0 5.247,-13.6338 2.132,-19.9403 z"
               fill="#a7a9ac" />
            <path
               id="Vector_57"
               d="m 265.183,139.154 -0.439,-1.034 c -0.647,-1.668 -1.564,-3.218 -2.714,-4.588 h -5.285 c -7.444,0 -13.492,7.005 -13.492,15.65 v 38.627 c 0,8.646 6.048,15.715 13.492,15.715 h 17.64 c 0.904,-38.214 -5.997,-56.474 -9.202,-64.37 z"
               fill="#1c75bc" />
            <path
               id="Vector_58"
               d="m 303.694,140.239 c -0.168,-0.271 -0.336,-0.53 -0.517,-0.788 l -0.155,-0.246 c -1.149,-1.713 -2.695,-3.124 -4.506,-4.112 -1.811,-0.987 -3.834,-1.523 -5.897,-1.561 h -5.712 c -1.369,1.681 -2.444,3.582 -3.179,5.622 -3.218,7.896 -11.398,26.156 -10.494,64.37 h 19.385 c 7.444,0 13.492,-7.069 13.492,-15.715 v -38.64 c 0.017,-3.14 -0.818,-6.227 -2.417,-8.93 z"
               fill="#1c75bc" />
          </g>
          <g
             id="abikaasa">
            <path
               id="Vector_59"
               d="m 192.298,128.104 c -0.002,0.352 0.055,0.701 0.168,1.034 v -5.04 c 0.003,-0.169 0.07,-0.331 0.187,-0.454 0.118,-0.122 0.277,-0.195 0.446,-0.205 3.827,-0.17 7.442,-1.81 10.09,-4.578 2.648,-2.769 4.126,-6.452 4.126,-10.283 v -5.945 c 0.288,0.116 0.594,0.182 0.904,0.194 1.913,0 3.463,-2.468 3.463,-5.5054 0,-3.0369 -1.55,-5.531 -3.463,-5.531 -0.312,-8e-4 -0.62,0.0653 -0.904,0.1938 v -3.3471 c 0,-3.0762 -0.607,-6.1222 -1.784,-8.9641 -1.178,-2.8419 -2.904,-5.4239 -5.08,-7.5985 -2.175,-2.1746 -4.758,-3.8992 -7.601,-5.0752 -2.842,-1.1761 -5.889,-1.7805 -8.965,-1.7788 h -1.292 c -6.211,0 -12.167,2.4671 -16.558,6.8586 -4.392,4.3914 -6.859,10.3476 -6.859,16.558 v 0 3.4763 c -0.345,-0.2027 -0.737,-0.3139 -1.137,-0.323 -1.913,0 -3.477,2.4553 -3.477,5.4923 0,3.0371 1.564,5.5051 3.477,5.5051 0.384,-0.004 0.761,-0.101 1.098,-0.284 v 6.087 c -0.003,3.832 1.473,7.517 4.122,10.286 2.649,2.769 6.265,4.408 10.094,4.575 0.169,0.01 0.328,0.083 0.446,0.205 0.117,0.123 0.184,0.285 0.187,0.454 v 1.538 h 18.286 z"
               fill="#f7b7b7" />
            <path
               id="Vector_60"
               d="m 192.467,129.139 c -0.114,-0.333 -0.17,-0.683 -0.168,-1.034 v -2.456 h -18.468 v 3.024 c 0.002,0.545 -0.144,1.08 -0.422,1.548 -0.277,0.469 -0.676,0.854 -1.154,1.115 0.258,0.478 0.53,1.033 0.84,1.68 0,0.129 0.116,0.271 0.181,0.4 2.856,6.19 7.663,19.113 9.847,39.364 2.223,-20.677 7.211,-33.729 10.041,-39.764 0.336,-0.698 0.634,-1.293 0.905,-1.823 -0.782,-0.449 -1.357,-1.186 -1.602,-2.054 z"
               fill="#b3b3b3" />
            <path
               id="Vector_61"
               d="m 172.255,131.336 v -0.143 c -0.5,0.301 -1.071,0.461 -1.654,0.466 h 0.439 c 0.424,-0.016 0.839,-0.126 1.215,-0.323 z"
               fill="#fbb040" />
            <path
               id="Vector_62"
               d="m 177.333,111.692 3.218,0.879 c 1.888,0.519 3.878,0.541 5.776,0.065 l 3.774,-0.944 -2.507,1.926 c -1.138,0.928 -2.568,1.424 -4.036,1.4 -1.469,-0.023 -2.881,-0.565 -3.989,-1.529 z"
               fill="#e09090" />
            <path
               id="Vector_63"
               d="m 186.47,106.859 c 0,0.796 -0.316,1.558 -0.878,2.12 -0.562,0.563 -1.325,0.879 -2.12,0.879 -0.795,0 -1.558,-0.316 -2.12,-0.879 -0.562,-0.562 -0.878,-1.324 -0.878,-2.12 v 0 c 0,-1.654 2.998,-10.0279 2.998,-10.0279 0,0 2.998,8.3739 2.998,10.0279 z"
               fill="#e09090" />
            <path
               id="Vector_64"
               d="m 178.716,95.5645 c -1.243,0.7621 -2.588,1.345 -3.993,1.7317 -1.401,-0.3916 -2.74,-0.9743 -3.981,-1.7317 1.242,-0.7532 2.581,-1.3316 3.981,-1.7188 1.403,0.3862 2.747,0.9646 3.993,1.7188 z"
               fill="#ffffff" />
            <path
               id="Vector_65"
               d="m 174.8,97.451 c 0.992,0 1.797,-0.8042 1.797,-1.7963 0,-0.9921 -0.805,-1.7963 -1.797,-1.7963 -0.992,0 -1.796,0.8042 -1.796,1.7963 0,0.9921 0.804,1.7963 1.796,1.7963 z"
               fill="#231f20" />
            <path
               id="Vector_66"
               d="m 195.812,95.5645 c -1.242,0.7551 -2.581,1.3376 -3.98,1.7317 -1.406,-0.3867 -2.75,-0.9696 -3.993,-1.7317 1.243,-0.7587 2.588,-1.3374 3.993,-1.7188 1.399,0.3895 2.738,0.9678 3.98,1.7188 z"
               fill="#ffffff" />
            <path
               id="Vector_67"
               d="m 191.859,97.451 c 0.992,0 1.796,-0.8042 1.796,-1.7963 0,-0.9921 -0.804,-1.7963 -1.796,-1.7963 -0.992,0 -1.797,0.8042 -1.797,1.7963 0,0.9921 0.805,1.7963 1.797,1.7963 z"
               fill="#231f20" />
            <path
               id="Vector_68"
               d="m 177.708,89.8779 c 0.535,0.1771 1.012,0.493 1.385,0.9153 0.372,0.4223 0.626,0.936 0.734,1.4884 l 0.181,0.8013 c -0.825,-0.8243 -1.821,-1.4583 -2.917,-1.8579 -1.096,-0.3995 -2.266,-0.555 -3.428,-0.4554 -1.493,0.298 -2.92,0.8627 -4.213,1.6671 0,0 1.512,-2.856 4.097,-3.1274 1.411,-0.0818 2.824,0.1113 4.161,0.5686 z"
               fill="#939598" />
            <path
               id="Vector_69"
               d="m 188.77,89.8782 c -0.534,0.1771 -1.012,0.493 -1.385,0.9153 -0.372,0.4223 -0.626,0.936 -0.734,1.4884 l -0.181,0.8012 c 0.825,-0.8249 1.82,-1.4595 2.916,-1.8591 1.096,-0.3996 2.267,-0.5546 3.429,-0.4541 1.498,0.2943 2.93,0.8592 4.226,1.6671 0,0 -1.512,-2.7914 -4.084,-3.0628 -1.415,-0.106 -2.837,0.0652 -4.187,0.504 z"
               fill="#939598" />
            <path
               id="Vector_70"
               d="m 160.455,87.384 c 0,-10.08 5.867,-18.2862 13.027,-18.2862 2.298,0.0403 4.517,0.8451 6.306,2.2874 0.917,0.734 2.057,1.134 3.231,1.134 1.175,0 2.314,-0.4 3.231,-1.134 1.789,-1.4423 4.008,-2.2471 6.306,-2.2874 7.198,0 13.027,8.1803 13.027,18.2862 v 0.8916 l 1.563,1.4087 V 85.691 c 0,-6.2104 -2.467,-12.1666 -6.858,-16.558 -4.392,-4.3915 -10.348,-6.8586 -16.558,-6.8586 h -1.37 c -6.21,0 -12.167,2.4671 -16.558,6.8586 -4.392,4.3914 -6.859,10.3476 -6.859,16.558 v 3.9933 l 1.487,-1.4087 c 0.051,-0.2972 0.025,-0.6332 0.025,-0.8916 z"
               fill="#bcbec0" />
            <path
               id="Vector_71"
               d="m 219.062,147.709 c 0.069,-4.184 -1.526,-8.224 -4.433,-11.234 -2.908,-3.009 -6.891,-4.742 -11.075,-4.816 h -7.883 c -0.583,-0.003 -1.155,-0.164 -1.654,-0.466 -0.272,0.517 -0.569,1.125 -0.905,1.823 -3.683,7.857 -11.049,27.629 -11.178,60.596 v 9.912 h 21.865 c 4.113,0 8.058,-1.634 10.966,-4.542 2.908,-2.909 4.542,-6.853 4.542,-10.966 v -38.175 c -0.029,-0.715 -0.111,-1.428 -0.245,-2.132 z"
               fill="#4c2911" />
            <path
               id="Vector_72"
               d="m 183.122,172.78 c -2.184,-20.251 -6.991,-33.174 -9.86,-39.364 0,-0.129 -0.129,-0.271 -0.181,-0.401 -0.31,-0.646 -0.581,-1.201 -0.84,-1.68 -0.399,0.21 -0.842,0.321 -1.292,0.324 h -8.439 c -2.072,0.033 -4.116,0.475 -6.017,1.299 -1.901,0.825 -3.621,2.016 -5.061,3.505 -1.44,1.489 -2.573,3.248 -3.333,5.176 -0.76,1.927 -1.133,3.985 -1.097,6.057 v 40.32 c 0,4.113 1.634,8.057 4.542,10.966 2.909,2.908 6.853,4.542 10.966,4.542 h 21.75 v -9.912 c -0.023,-6.959 -0.403,-13.912 -1.138,-20.832 z"
               fill="#4c2911" />
          </g>
          <g
             id="poeg">
            <path
               id="Vector_73"
               d="m 387.517,334.053 h -10.196 c -0.167,0 -0.327,-0.064 -0.448,-0.18 -0.12,-0.115 -0.191,-0.273 -0.198,-0.44 v -9.318 c -0.002,-0.082 0.013,-0.164 0.043,-0.241 0.031,-0.077 0.076,-0.147 0.134,-0.206 0.058,-0.059 0.127,-0.105 0.203,-0.137 0.076,-0.032 0.158,-0.049 0.24,-0.049 3.675,-0.189 7.136,-1.781 9.671,-4.448 2.534,-2.666 3.948,-6.204 3.95,-9.884 v -2.364 c 0.273,0.122 0.567,0.188 0.866,0.193 1.848,0 3.347,-2.377 3.347,-5.311 0,-2.934 -1.499,-5.298 -3.347,-5.298 -0.298,10e-4 -0.592,0.062 -0.866,0.18 v -6.603 c -0.002,-2.967 -0.587,-5.904 -1.724,-8.644 -1.137,-2.74 -2.802,-5.229 -4.901,-7.326 -2.099,-2.096 -4.59,-3.759 -7.332,-4.892 -2.741,-1.134 -5.679,-1.717 -8.645,-1.715 h -1.293 c -5.97,0.024 -11.688,2.414 -15.901,6.645 -4.212,4.232 -6.575,9.961 -6.572,15.932 v 6.642 c -0.324,-0.18 -0.689,-0.273 -1.06,-0.271 -1.848,0 -3.347,2.378 -3.347,5.298 0,2.921 1.499,5.312 3.347,5.312 0.372,-0.003 0.737,-0.101 1.06,-0.285 v 2.456 c -0.01,3.699 1.409,7.26 3.962,9.938 2.552,2.677 6.041,4.266 9.737,4.432 0.082,0 0.164,0.017 0.24,0.049 0.076,0.032 0.145,0.078 0.203,0.137 0.058,0.059 0.103,0.129 0.133,0.206 0.031,0.077 0.046,0.159 0.044,0.241 v 9.305 c 0,0.168 -0.067,0.329 -0.186,0.448 -0.118,0.119 -0.279,0.185 -0.447,0.185 h -10.339 c -3.942,0.021 -7.715,1.601 -10.495,4.396 -2.78,2.794 -4.34,6.576 -4.34,10.518 v 36.791 c 0,3.943 1.562,7.726 4.345,10.518 2.784,2.793 6.56,4.369 10.503,4.383 h 39.622 c 3.953,0 7.745,-1.57 10.541,-4.364 2.796,-2.794 4.369,-6.584 4.373,-10.537 v -36.791 c -0.002,-1.959 -0.39,-3.898 -1.141,-5.707 -0.751,-1.808 -1.851,-3.451 -3.237,-4.835 -1.386,-1.384 -3.031,-2.481 -4.841,-3.229 -1.81,-0.747 -3.749,-1.132 -5.708,-1.13 z"
               fill="#f7b7b7" />
            <path
               id="Vector_74"
               d="m 361.943,315.017 3.218,0.879 c 1.894,0.491 3.883,0.491 5.777,0 l 3.773,-0.943 -2.507,1.925 c -1.138,0.928 -2.567,1.424 -4.036,1.4 -1.468,-0.023 -2.881,-0.565 -3.989,-1.529 z"
               fill="#e09090" />
            <path
               id="Vector_75"
               d="m 371.028,310.184 c 10e-4,0.393 -0.075,0.783 -0.224,1.146 -0.149,0.364 -0.369,0.695 -0.646,0.973 -0.278,0.279 -0.607,0.5 -0.97,0.651 -0.363,0.151 -0.753,0.228 -1.146,0.228 -0.796,0 -1.56,-0.315 -2.124,-0.877 -0.565,-0.562 -0.883,-1.325 -0.887,-2.121 0,-1.654 2.998,-10.028 2.998,-10.028 0,0 2.999,8.374 2.999,10.028 z"
               fill="#e09090" />
            <path
               id="Vector_76"
               d="m 363.416,298.889 c -1.245,0.758 -2.589,1.34 -3.993,1.732 -1.397,-0.4 -2.736,-0.982 -3.981,-1.732 1.241,-0.754 2.581,-1.332 3.981,-1.719 1.407,0.376 2.752,0.955 3.993,1.719 z"
               fill="#ffffff" />
            <path
               id="Vector_77"
               d="m 359.41,300.776 c 0.992,0 1.796,-0.804 1.796,-1.796 0,-0.992 -0.804,-1.796 -1.796,-1.796 -0.992,0 -1.797,0.804 -1.797,1.796 0,0.992 0.805,1.796 1.797,1.796 z"
               fill="#231f20" />
            <path
               id="Vector_78"
               d="m 380.423,298.889 c -1.244,0.752 -2.583,1.335 -3.981,1.732 -1.402,-0.396 -2.745,-0.979 -3.993,-1.732 1.243,-0.759 2.588,-1.338 3.993,-1.719 1.402,0.382 2.742,0.961 3.981,1.719 z"
               fill="#ffffff" />
            <path
               id="Vector_79"
               d="m 376.468,300.776 c 0.992,0 1.796,-0.804 1.796,-1.796 0,-0.992 -0.804,-1.796 -1.796,-1.796 -0.992,0 -1.796,0.804 -1.796,1.796 0,0.992 0.804,1.796 1.796,1.796 z"
               fill="#231f20" />
            <path
               id="Vector_80"
               d="m 345.737,290.373 c 0,-9.783 5.699,-17.756 12.639,-17.756 2.232,0.04 4.387,0.822 6.126,2.222 0.888,0.715 1.994,1.104 3.133,1.104 1.14,0 2.246,-0.389 3.134,-1.104 1.74,-1.398 3.894,-2.18 6.126,-2.222 6.991,0 12.639,7.947 12.639,17.756 v 0.866 l 1.576,1.357 v -3.877 c -0.003,-6.027 -2.4,-11.805 -6.662,-16.066 -4.263,-4.26 -10.043,-6.653 -16.07,-6.653 h -1.292 c -6.026,0 -11.806,2.393 -16.069,6.653 -4.263,4.261 -6.659,10.039 -6.663,16.066 v 3.877 l 1.448,-1.357 c -0.039,-0.336 -0.065,-0.621 -0.065,-0.866 z"
               fill="#a97c50" />
            <path
               id="Vector_81"
               d="m 388.099,332.257 h -0.388 l -10.558,-0.621 -3.231,1.525 c -2.042,0.96 -4.276,1.443 -6.532,1.414 -2.257,-0.029 -4.477,-0.57 -6.494,-1.582 l -2.507,-1.292 -10.843,0.478 h -0.361 c -4.043,0.044 -7.905,1.681 -10.748,4.556 -2.843,2.874 -4.437,6.754 -4.437,10.797 v 16.528 h 15.714 v 36.883 h 39.997 V 364.06 h 15.767 v -16.528 c -0.007,-2.013 -0.41,-4.005 -1.187,-5.862 -0.776,-1.857 -1.911,-3.543 -3.339,-4.961 -1.428,-1.418 -3.122,-2.542 -4.984,-3.306 -1.862,-0.764 -3.856,-1.153 -5.869,-1.146 z"
               fill="#a3c1e5" />
            <path
               id="Vector_82"
               d="m 372.088,292.906 1.874,2.171 c 0,0 1.938,-1.421 8.723,-1.861 -3.36,-1.466 -7.157,-1.577 -10.597,-0.31 z"
               fill="#a97c50" />
            <path
               id="Vector_83"
               d="m 363.971,292.906 -1.848,2.171 c 0,0 -1.938,-1.422 -8.723,-1.861 3.353,-1.459 7.139,-1.57 10.571,-0.31 z"
               fill="#a97c50" />
          </g>
          <g
             id="minia">
            <g
               id="Group 774">
              <path
                 id="Vector_84"
                 d="m 479.207,274.348 c -4.678,-5.066 -13.401,14.383 -16.8,27.565 -3.425,-13.182 -12.161,-32.631 -16.8,-27.565 -8.568,9.291 -12.277,35.719 -12.277,45.541 0,9.821 6.668,10.79 15.366,10.933 4.59,0.17 9.186,-0.059 13.737,-0.685 4.555,0.626 9.155,0.855 13.75,0.685 8.697,-0.143 15.366,-1.112 15.366,-10.933 0,-9.822 -3.787,-36.25 -12.342,-45.541 z"
                 fill="#ec0138" />
              <path
                 id="Vector_85"
                 d="m 481.649,337.555 h -7.289 c -0.432,-0.001 -0.859,-0.091 -1.255,-0.264 -0.396,-0.174 -0.752,-0.427 -1.045,-0.744 h -0.582 c -0.486,-0.621 -0.725,-1.398 -0.672,-2.184 v -7.031 c -0.007,-0.159 0.046,-0.316 0.149,-0.438 0.103,-0.123 0.248,-0.201 0.407,-0.221 6.888,-0.387 12.38,-6.991 12.38,-15.068 v -3.153 c 0.246,0.122 0.515,0.188 0.789,0.194 1.667,0 3.024,-2.494 3.024,-5.57 0,-3.076 -1.293,-5.57 -3.024,-5.57 -0.273,0.012 -0.541,0.078 -0.789,0.194 v -6.242 c 0,-13.104 -9.149,-23.714 -20.444,-23.714 h -1.111 c -11.295,0 -20.445,10.61 -20.445,23.714 v 6.345 c -0.281,-0.194 -0.615,-0.297 -0.956,-0.297 -1.68,0 -3.037,2.494 -3.037,5.57 0,3.076 1.357,5.57 3.037,5.57 0.339,-0.001 0.671,-0.1 0.956,-0.285 v 3.244 c 0,8.077 5.493,14.681 12.381,15.055 0.16,0.017 0.307,0.095 0.411,0.218 0.103,0.123 0.155,0.281 0.144,0.442 v 7.534 c 0.05,0.578 -0.095,1.156 -0.413,1.641 h -0.763 c -0.244,0.297 -0.552,0.537 -0.901,0.7 -0.349,0.163 -0.73,0.246 -1.115,0.243 h -7.754 c -3.777,0 -7.401,1.495 -10.079,4.159 -2.678,2.664 -4.193,6.279 -4.214,10.057 v 35.267 c 0.024,3.776 1.54,7.39 4.218,10.053 2.677,2.662 6.299,4.159 10.075,4.162 h 37.917 c 1.866,0 3.715,-0.368 5.44,-1.082 1.724,-0.714 3.291,-1.761 4.611,-3.081 1.321,-1.32 2.368,-2.888 3.082,-4.612 0.714,-1.725 1.082,-3.573 1.082,-5.44 v -35.035 c 0.015,-1.876 -0.341,-3.737 -1.048,-5.475 -0.708,-1.739 -1.753,-3.319 -3.074,-4.652 -1.322,-1.332 -2.894,-2.39 -4.626,-3.111 -1.733,-0.722 -3.591,-1.093 -5.467,-1.093 z"
                 fill="#f7b7b7" />
              <path
                 id="Vector_86"
                 d="m 481.855,336.754 h -7.379 c -0.742,-0.006 -1.459,-0.265 -2.033,-0.735 -0.574,-0.471 -0.969,-1.124 -1.12,-1.85 0.013,-0.068 0.013,-0.139 0,-0.207 l -2.042,0.969 c -2.005,0.938 -4.196,1.41 -6.409,1.38 -2.214,-0.029 -4.392,-0.558 -6.372,-1.548 l -2.494,-1.176 v 0.517 c -0.003,0.712 -0.288,1.394 -0.791,1.897 -0.503,0.504 -1.185,0.788 -1.897,0.791 h -7.844 c -3.833,-0.003 -7.511,1.515 -10.225,4.222 -2.714,2.707 -4.242,6.38 -4.249,10.213 v 14.216 h 14.474 v 35.693 h 38.381 c 0.328,0 0.651,0 0.97,0 V 365.43 h 13.478 v -14.216 c 0,-3.833 -1.521,-7.509 -4.231,-10.22 -2.709,-2.712 -6.384,-4.237 -10.217,-4.24 z"
                 fill="#007025" />
              <path
                 id="Vector_87"
                 d="m 458.775,306.991 c -1.259,0.776 -2.621,1.372 -4.045,1.771 -1.417,-0.4 -2.774,-0.992 -4.032,-1.758 1.253,-0.772 2.611,-1.36 4.032,-1.744 1.422,0.388 2.783,0.971 4.045,1.731 z"
                 fill="#ffffff" />
              <path
                 id="Vector_88"
                 d="m 454.769,308.904 c 1.007,0 1.823,-0.816 1.823,-1.822 0,-1.006 -0.816,-1.822 -1.823,-1.822 -1.006,0 -1.822,0.816 -1.822,1.822 0,1.006 0.816,1.822 1.822,1.822 z"
                 fill="#231f20" />
              <path
                 id="Vector_89"
                 d="m 476.04,306.992 c -1.255,0.775 -2.612,1.371 -4.032,1.77 -1.416,-0.399 -2.768,-0.995 -4.019,-1.77 1.253,-0.773 2.611,-1.36 4.032,-1.745 1.414,0.393 2.767,0.98 4.019,1.745 z"
                 fill="#ffffff" />
              <path
                 id="Vector_90"
                 d="m 472.034,308.904 c 1.006,0 1.822,-0.816 1.822,-1.822 0,-1.006 -0.816,-1.822 -1.822,-1.822 -1.006,0 -1.822,0.816 -1.822,1.822 0,1.006 0.816,1.822 1.822,1.822 z"
                 fill="#231f20" />
              <path
                 id="Vector_91"
                 d="m 470.082,322.499 -3.256,0.724 c -1.926,0.414 -3.917,0.414 -5.842,0 l -3.877,-0.775 2.585,1.589 c 1.216,0.78 2.634,1.186 4.078,1.17 1.444,-0.016 2.852,-0.454 4.051,-1.26 z"
                 fill="#ce5967" />
              <path
                 id="Vector_92"
                 d="m 466.697,316.71 c 0,0.805 -0.32,1.578 -0.89,2.147 -0.569,0.57 -1.342,0.89 -2.147,0.89 -0.805,0 -1.578,-0.32 -2.147,-0.89 -0.57,-0.569 -0.89,-1.342 -0.89,-2.147 0,-1.68 3.037,-10.158 3.037,-10.158 0,0 3.037,8.478 3.037,10.158 z"
                 fill="#e09090" />
              <path
                 id="Vector_93"
                 d="m 458.426,300.491 c 0.535,0.176 1.013,0.491 1.386,0.914 0.372,0.423 0.625,0.937 0.733,1.49 l 0.142,0.736 c -0.825,-0.824 -1.821,-1.458 -2.917,-1.857 -1.096,-0.4 -2.266,-0.555 -3.428,-0.456 -1.495,0.292 -2.923,0.857 -4.213,1.667 0,0 1.499,-2.791 4.071,-3.063 1.432,-0.103 2.871,0.091 4.226,0.569 z"
                 fill="#ec0138" />
              <path
                 id="Vector_94"
                 d="m 469.475,300.491 c -0.534,0.177 -1.012,0.493 -1.384,0.915 -0.373,0.423 -0.626,0.936 -0.735,1.489 l -0.142,0.736 c 0.825,-0.825 1.82,-1.459 2.916,-1.859 1.096,-0.399 2.267,-0.554 3.429,-0.454 1.498,0.294 2.93,0.859 4.226,1.667 0,0 -1.512,-2.791 -4.084,-3.063 -1.432,-0.103 -2.871,0.091 -4.226,0.569 z"
                 fill="#ec0138" />
              <path
                 id="Vector_95"
                 d="m 476.958,271.104 c -1.496,-1.699 -3.35,-3.045 -5.428,-3.941 -3.538,-1.029 -7.239,-1.38 -10.907,-1.034 -3.877,0.517 -12.018,1.706 -16.71,10.946 -4.691,9.24 -2.171,20.535 -2.171,20.535 0,0 2.275,-1.176 15.818,-3.296 9.667,-1.499 12.794,-11.217 13.841,-17.821 0,1.137 0.077,2.43 0.129,3.877 0.31,8.801 12.212,17.304 12.212,17.304 1.241,-12.988 -2.92,-22.706 -6.784,-26.57 z"
                 fill="#ec0138" />
            </g>
          </g>
          <g
             id="väimees">
            <path
               id="Vector_96"
               d="M 97.544,332.258 H 87.3864 c -0.0836,0.003 -0.167,-0.01 -0.2453,-0.04 -0.0783,-0.03 -0.1498,-0.075 -0.2101,-0.133 -0.0604,-0.058 -0.1084,-0.127 -0.1412,-0.204 -0.0328,-0.077 -0.0496,-0.16 -0.0495,-0.244 v -9.317 c -0.0018,-0.083 0.013,-0.165 0.0434,-0.242 0.0304,-0.076 0.0758,-0.146 0.1336,-0.205 0.0578,-0.059 0.1268,-0.106 0.2029,-0.138 0.0761,-0.032 0.1578,-0.049 0.2404,-0.048 3.6732,-0.192 7.133,-1.785 9.6669,-4.452 2.5339,-2.666 3.9495,-6.202 3.9535,-9.88 v -2.365 c 0.273,0.123 0.567,0.189 0.866,0.194 1.848,0 3.347,-2.378 3.347,-5.312 0,-2.933 -1.499,-5.298 -3.347,-5.298 -0.298,0 -0.592,0.061 -0.866,0.181 v -6.604 c 0,-2.971 -0.586,-5.912 -1.724,-8.656 -1.1384,-2.745 -2.807,-5.237 -4.9101,-7.335 -2.1031,-2.099 -4.5995,-3.762 -7.3461,-4.894 -2.7467,-1.132 -5.6897,-1.711 -8.6605,-1.704 h -1.2924 c -5.9708,0.024 -11.6887,2.413 -15.901,6.645 -4.2123,4.232 -6.5756,9.96 -6.5722,15.931 v 6.643 c -0.3251,-0.178 -0.6894,-0.271 -1.0597,-0.272 -1.848,0 -3.3471,2.378 -3.3471,5.299 0,2.92 1.4991,5.311 3.3471,5.311 0.3715,-0.004 0.736,-0.102 1.0597,-0.284 v 2.455 c -0.0145,3.691 1.3944,7.246 3.9337,9.925 2.5393,2.679 6.0136,4.276 9.7002,4.459 0.1657,0.003 0.3234,0.071 0.4394,0.19 0.116,0.118 0.1809,0.277 0.1809,0.443 v 9.304 c 0,0.168 -0.0667,0.329 -0.1855,0.448 -0.1187,0.119 -0.2798,0.186 -0.4478,0.186 H 57.8572 c -3.9418,0.02 -7.7152,1.6 -10.4952,4.395 -2.78,2.795 -4.3406,6.576 -4.3405,10.518 v 36.792 c 0,1.957 0.3854,3.894 1.1342,5.702 0.7488,1.808 1.8464,3.45 3.23,4.834 1.3836,1.384 3.0262,2.481 4.834,3.23 1.8078,0.749 3.7454,1.134 5.7021,1.134 H 97.544 c 3.952,-0.003 7.741,-1.574 10.537,-4.367 2.796,-2.793 4.369,-6.581 4.376,-10.533 v -36.792 c -0.007,-3.952 -1.58,-7.74 -4.376,-10.533 -2.796,-2.793 -6.585,-4.364 -10.537,-4.367 z"
               fill="#f7b7b7" />
            <path
               id="Vector_97"
               d="m 80.9243,308.557 c 0,0.768 -0.305,1.504 -0.8479,2.047 -0.5428,0.543 -1.2791,0.848 -2.0469,0.848 -0.7677,0 -1.504,-0.305 -2.0469,-0.848 -0.5428,-0.543 -0.8478,-1.279 -0.8478,-2.047 0,-1.603 2.8947,-9.68 2.8947,-9.68 0,0 2.8948,8.077 2.8948,9.68 z"
               fill="#e09090" />
            <path
               id="Vector_98"
               d="m 72.1877,301.19 c 0,0 -2.0677,1.706 -2.9981,1.706 -0.9305,0 -2.9982,-1.706 -2.9982,-1.706 0,0 2.0548,-1.744 2.9982,-1.744 0.9433,0 2.9981,1.744 2.9981,1.744 z"
               fill="#ffffff" />
            <path
               id="Vector_99"
               d="m 89.4143,301.19 c 0,0 -2.0677,1.706 -2.9982,1.706 -0.9304,0 -2.9981,-1.706 -2.9981,-1.706 0,0 2.0547,-1.744 2.9981,-1.744 0.9434,0 2.9982,1.744 2.9982,1.744 z"
               fill="#ffffff" />
            <path
               id="Vector_100"
               d="m 98.112,330.461 h -0.3877 l -10.5711,-0.62 -3.2307,1.525 c -2.0426,0.959 -4.2762,1.442 -6.5326,1.413 -2.2564,-0.029 -4.4768,-0.57 -6.4939,-1.581 l -2.5071,-1.293 -10.8295,0.479 h -0.3619 c -4.0437,0.044 -7.9071,1.68 -10.7521,4.554 -2.845,2.874 -4.4422,6.754 -4.4454,10.798 v 16.529 h 15.7274 v 36.882 h 39.9969 v -36.882 h 15.7277 v -16.529 c -0.017,-4.057 -1.641,-7.942 -4.516,-10.805 -2.875,-2.863 -6.767,-4.47 -10.824,-4.47 z"
               fill="#c06c29" />
            <path
               id="Vector_101"
               d="m 69.1906,302.754 c 0.8637,0 1.5637,-0.7 1.5637,-1.563 0,-0.864 -0.7,-1.564 -1.5637,-1.564 -0.8636,0 -1.5636,0.7 -1.5636,1.564 0,0.863 0.7,1.563 1.5636,1.563 z"
               fill="#2b3990" />
            <path
               id="Vector_102"
               d="m 86.4172,302.754 c 0.8636,0 1.5637,-0.7 1.5637,-1.563 0,-0.864 -0.7001,-1.564 -1.5637,-1.564 -0.8636,0 -1.5637,0.7 -1.5637,1.564 0,0.863 0.7001,1.563 1.5637,1.563 z"
               fill="#2b3990" />
            <path
               id="Vector_103"
               d="m 71.5811,314.165 3.1015,0.84 c 1.8258,0.478 3.744,0.478 5.5698,0 l 3.6444,-0.904 -2.4296,1.848 c -1.0958,0.904 -2.4777,1.389 -3.8983,1.368 -1.4206,-0.022 -2.7874,-0.548 -3.8555,-1.485 z"
               fill="#e09090" />
            <path
               id="Vector_104"
               d="m 74.9673,295.569 -7.4437,-1.059 c -0.3232,-0.058 -0.6551,-0.044 -0.9723,0.04 -0.3171,0.085 -0.6117,0.239 -0.8628,0.451 l -1.499,0.853 1.7963,-2.12 c 0.3169,-0.409 0.7673,-0.694 1.2727,-0.805 0.5054,-0.111 1.0337,-0.041 1.4928,0.198 z"
               fill="#a87e4c" />
            <path
               id="Vector_105"
               d="m 80.9893,295.569 7.4436,-1.06 c 0.3232,-0.056 0.6548,-0.041 0.9716,0.044 0.3169,0.085 0.6116,0.237 0.8635,0.448 l 1.4991,0.852 -1.7963,-2.145 c -0.3185,-0.407 -0.7688,-0.69 -1.2736,-0.801 -0.5047,-0.111 -1.0322,-0.042 -1.4919,0.194 z"
               fill="#a87e4c" />
            <path
               id="Vector_106"
               d="m 93.8475,270.886 c -0.3012,-0.02 -0.6034,-0.02 -0.9046,0 v 0 c 0,-4.833 -7.4437,-8.762 -16.632,-8.762 -9.1883,0 -16.645,3.877 -16.645,8.762 10e-5,0.438 0.0654,0.873 0.1939,1.292 -0.7729,-0.913 -1.877,-1.482 -3.0694,-1.582 -1.1923,-0.099 -2.3754,0.279 -3.2888,1.052 -0.9134,0.773 -1.4823,1.877 -1.5817,3.07 -0.0994,1.192 0.279,2.375 1.0519,3.289 0.197,0.233 0.4179,0.445 0.6591,0.633 -0.4114,0.513 -0.6254,1.157 -0.6031,1.814 0.0224,0.658 0.2794,1.286 0.7247,1.77 0.4452,0.484 1.0493,0.793 1.7026,0.871 0.6533,0.077 1.3127,-0.082 1.8588,-0.449 0.2799,-0.259 0.5035,-0.573 0.6569,-0.922 0.1534,-0.349 0.2334,-0.726 0.2348,-1.107 -0.0011,-0.34 -0.0624,-0.677 -0.1809,-0.995 l 0.2068,-0.078 v 0.517 c 8e-4,1.137 0.3112,2.251 0.8978,3.225 0.5866,0.973 1.4273,1.768 2.4318,2.299 1.0044,0.532 2.1347,0.78 3.2694,0.717 1.1347,-0.062 2.2309,-0.433 3.1708,-1.072 0.4618,1.683 1.5162,3.143 2.9689,4.11 1.4527,0.967 3.2058,1.376 4.9366,1.153 1.7307,-0.224 3.3224,-1.065 4.4819,-2.369 1.1595,-1.304 1.8087,-2.984 1.828,-4.729 v -0.349 c 0.5421,0.184 1.1227,0.224 1.6847,0.115 0.562,-0.109 1.0859,-0.362 1.5202,-0.735 0.6257,-0.545 1.0254,-1.304 1.121,-2.129 0.0956,-0.825 -0.1198,-1.655 -0.604,-2.329 l 0.659,-0.259 c -0.0129,0.121 -0.0129,0.242 0,0.362 0,1.431 0.4245,2.831 1.2197,4.021 0.7952,1.19 1.9254,2.117 3.2478,2.665 1.3224,0.548 2.7775,0.691 4.1813,0.412 1.4038,-0.279 2.6933,-0.969 3.7054,-1.981 1.0121,-1.012 1.7012,-2.301 1.9802,-3.705 0.28,-1.404 0.136,-2.859 -0.411,-4.181 -0.5481,-1.323 -1.4757,-2.453 -2.6658,-3.248 -1.1901,-0.795 -2.5893,-1.22 -4.0207,-1.22 v 0 z m -32.4886,3.877 -0.1551,0.103 v -0.336 z"
               fill="#fbb040" />
          </g>
          <g
             id="tütar">
            <path
               id="Vector_107"
               d="m 211.615,396.834 v -1.292 c 0.026,0.426 0,0.827 0,1.292 z"
               fill="#f7b7b7" />
            <path
               id="Vector_108"
               d="m 201.458,335.514 h -7.289 c -0.839,0 -1.645,-0.333 -2.238,-0.927 -0.594,-0.594 -0.928,-1.399 -0.928,-2.239 v -6.358 c 0.006,-0.157 0.071,-0.306 0.18,-0.418 0.11,-0.112 0.258,-0.18 0.415,-0.189 3.531,-0.166 6.863,-1.686 9.303,-4.245 2.44,-2.558 3.801,-5.957 3.801,-9.493 v -5.453 c 0.267,0.106 0.552,0.163 0.84,0.168 1.77,0 3.205,-2.275 3.205,-5.079 0,-2.804 -1.435,-5.079 -3.205,-5.079 -0.29,0.003 -0.575,0.065 -0.84,0.181 v -3.127 c 0.001,-2.846 -0.559,-5.664 -1.648,-8.293 -1.09,-2.629 -2.688,-5.016 -4.703,-7.026 -2.015,-2.01 -4.406,-3.602 -7.038,-4.686 -2.631,-1.083 -5.45,-1.637 -8.296,-1.628 h -1.189 c -5.737,0.003 -11.237,2.283 -15.293,6.34 -4.057,4.056 -6.337,9.556 -6.34,15.293 v 3.231 c -0.309,-0.17 -0.656,-0.259 -1.008,-0.259 -1.771,0 -3.218,2.275 -3.218,5.079 0,2.804 1.447,5.079 3.218,5.079 0.352,0 0.699,-0.089 1.008,-0.259 v 5.544 c 0.006,3.531 1.37,6.924 3.809,9.477 2.44,2.552 5.768,4.069 9.295,4.235 0.079,0 0.157,0.015 0.23,0.046 0.073,0.031 0.139,0.076 0.195,0.132 0.055,0.057 0.099,0.124 0.128,0.198 0.029,0.073 0.043,0.152 0.041,0.231 v 6.875 c 0,0.686 -0.272,1.343 -0.757,1.828 -0.485,0.484 -1.142,0.757 -1.828,0.757 h -7.753 c -3.778,0 -7.401,1.495 -10.08,4.159 -2.678,2.663 -4.193,6.279 -4.213,10.056 v 35.267 c 0.024,3.776 1.54,7.39 4.217,10.053 2.678,2.663 6.299,4.159 10.076,4.163 h 37.916 c 1.867,0 3.715,-0.368 5.44,-1.083 1.725,-0.714 3.292,-1.761 4.612,-3.081 1.32,-1.32 2.367,-2.887 3.081,-4.612 0.715,-1.725 1.082,-3.573 1.082,-5.44 v -35.086 c 0.016,-1.878 -0.341,-3.74 -1.049,-5.479 -0.709,-1.739 -1.755,-3.32 -3.077,-4.653 -1.323,-1.332 -2.897,-2.389 -4.631,-3.11 -1.734,-0.721 -3.593,-1.091 -5.471,-1.09 z"
               fill="#f7b7b7" />
            <path
               id="Vector_109"
               d="m 176.555,319.399 2.972,0.814 c 1.75,0.453 3.587,0.453 5.337,0 l 3.489,-0.879 -2.326,1.784 c -1.045,0.861 -2.362,1.326 -3.716,1.312 -1.355,-0.015 -2.661,-0.507 -3.689,-1.39 z"
               fill="#e09090" />
            <path
               id="Vector_110"
               d="m 185.601,312.822 c -0.048,0.702 -0.361,1.36 -0.876,1.841 -0.514,0.48 -1.192,0.748 -1.896,0.748 -0.704,0 -1.382,-0.268 -1.897,-0.748 -0.514,-0.481 -0.827,-1.139 -0.875,-1.841 0,-1.538 2.778,-9.266 2.778,-9.266 0,0 2.766,7.728 2.766,9.266 z"
               fill="#e09090" />
            <path
               id="Vector_111"
               d="m 186.558,300.131 c 0,0 2.752,-4.032 8.852,-1.693 -2.494,-1.68 -7.689,-3.864 -8.852,1.693 z"
               fill="#231f20" />
            <path
               id="Vector_112"
               d="m 178.61,300.131 c 0,0 -2.765,-4.032 -8.852,-1.693 2.481,-1.68 7.689,-3.864 8.852,1.693 z"
               fill="#231f20" />
            <path
               id="Vector_113"
               d="m 176.865,303.879 c 0,0 -2.054,1.706 -2.998,1.706 -0.943,0 -2.998,-1.706 -2.998,-1.706 0,0 2.055,-1.706 2.998,-1.706 0.944,0 2.998,1.706 2.998,1.706 z"
               fill="#ffffff" />
            <path
               id="Vector_114"
               d="m 194.092,303.879 c 0,0 -2.055,1.706 -2.998,1.706 -0.944,0 -2.998,-1.706 -2.998,-1.706 0,0 2.054,-1.706 2.998,-1.706 0.943,0 2.998,1.706 2.998,1.706 z"
               fill="#ffffff" />
            <path
               id="Vector_115"
               d="m 174.294,305.378 c 0.828,0 1.499,-0.672 1.499,-1.5 0,-0.827 -0.671,-1.499 -1.499,-1.499 -0.828,0 -1.499,0.672 -1.499,1.499 0,0.828 0.671,1.5 1.499,1.5 z"
               fill="#231f20" />
            <path
               id="Vector_116"
               d="m 190.796,305.378 c 0.828,0 1.499,-0.672 1.499,-1.5 0,-0.827 -0.671,-1.499 -1.499,-1.499 -0.828,0 -1.499,0.672 -1.499,1.499 0,0.828 0.671,1.5 1.499,1.5 z"
               fill="#231f20" />
            <path
               id="Vector_117"
               d="m 201.664,335.166 h -7.379 c -0.742,-0.005 -1.46,-0.264 -2.034,-0.735 -0.573,-0.47 -0.969,-1.123 -1.119,-1.849 0.013,-0.069 0.013,-0.139 0,-0.207 l -2.042,0.969 c -2.005,0.937 -4.197,1.409 -6.41,1.38 -2.213,-0.029 -4.391,-0.558 -6.371,-1.548 L 173.815,332 v 0.517 c -0.004,0.712 -0.288,1.394 -0.791,1.897 -0.504,0.503 -1.185,0.788 -1.897,0.791 h -7.845 c -3.833,-0.003 -7.51,1.515 -10.224,4.222 -2.714,2.706 -4.243,6.38 -4.249,10.213 v 14.215 h 14.473 v 35.694 h 38.382 c 0.327,0 0.65,0 0.969,0 v -35.707 h 13.479 v -14.215 c 0,-3.833 -1.522,-7.509 -4.231,-10.221 -2.709,-2.711 -6.384,-4.236 -10.217,-4.24 z"
               fill="#6ba5b1" />
            <path
               id="Vector_118"
               d="m 197.645,275.383 c 0.581,-1.383 0.88,-2.868 0.879,-4.368 0,-7.237 -7.017,-13.194 -15.508,-13.194 -8.49,0 -15.507,5.919 -15.507,13.194 0.002,1.457 0.282,2.9 0.827,4.252 -5.531,4.032 -8.452,10.584 -8.297,19.178 21.388,-0.336 22.693,-15.017 22.796,-18.92 l 0.065,-0.723 c 0.271,24.67 21.969,18.699 21.969,18.699 -0.039,-9.459 -2.946,-14.952 -7.224,-18.118 z"
               fill="#3c2415" />
          </g>
          <g
             id="tütar_2">
            <g
               id="Group 788">
              <g
                 id="Group 774_2">
                <path
                   id="Vector_119"
                   d="m 290.207,274.348 c -4.678,-5.066 -13.401,14.383 -16.8,27.565 -3.425,-13.182 -12.161,-32.631 -16.8,-27.565 -8.568,9.291 -12.277,35.719 -12.277,45.541 0,9.821 6.668,10.79 15.366,10.933 4.59,0.17 9.186,-0.059 13.737,-0.685 4.555,0.626 9.155,0.855 13.75,0.685 8.697,-0.143 15.366,-1.112 15.366,-10.933 0,-9.822 -3.787,-36.25 -12.342,-45.541 z"
                   fill="#db8dff" />
                <path
                   id="Vector_120"
                   d="m 292.649,337.555 h -7.289 c -0.432,-0.001 -0.859,-0.091 -1.255,-0.264 -0.396,-0.174 -0.752,-0.427 -1.045,-0.744 h -0.582 c -0.486,-0.621 -0.725,-1.398 -0.672,-2.184 v -7.031 c -0.007,-0.159 0.046,-0.316 0.149,-0.438 0.103,-0.123 0.248,-0.201 0.407,-0.221 6.888,-0.387 12.38,-6.991 12.38,-15.068 v -3.153 c 0.246,0.122 0.515,0.188 0.789,0.194 1.667,0 3.024,-2.494 3.024,-5.57 0,-3.076 -1.293,-5.57 -3.024,-5.57 -0.273,0.012 -0.541,0.078 -0.789,0.194 v -6.242 c 0,-13.104 -9.149,-23.714 -20.444,-23.714 h -1.111 c -11.295,0 -20.445,10.61 -20.445,23.714 v 6.345 c -0.281,-0.194 -0.615,-0.297 -0.956,-0.297 -1.68,0 -3.037,2.494 -3.037,5.57 0,3.076 1.357,5.57 3.037,5.57 0.339,-0.001 0.671,-0.1 0.956,-0.285 v 3.244 c 0,8.077 5.493,14.681 12.381,15.055 0.16,0.017 0.307,0.095 0.411,0.218 0.103,0.123 0.155,0.281 0.144,0.442 v 7.534 c 0.05,0.578 -0.095,1.156 -0.413,1.641 h -0.763 c -0.244,0.297 -0.552,0.537 -0.901,0.7 -0.349,0.163 -0.73,0.246 -1.115,0.243 h -7.754 c -3.777,0 -7.401,1.495 -10.079,4.159 -2.678,2.664 -4.193,6.279 -4.214,10.057 v 35.267 c 0.024,3.776 1.54,7.39 4.218,10.053 2.677,2.662 6.299,4.159 10.075,4.162 h 37.917 c 1.866,0 3.715,-0.368 5.44,-1.082 1.724,-0.714 3.291,-1.761 4.611,-3.081 1.321,-1.32 2.368,-2.888 3.082,-4.612 0.714,-1.725 1.082,-3.573 1.082,-5.44 v -35.035 c 0.015,-1.876 -0.341,-3.737 -1.048,-5.475 -0.708,-1.739 -1.753,-3.319 -3.074,-4.652 -1.322,-1.332 -2.894,-2.39 -4.626,-3.111 -1.733,-0.722 -3.591,-1.093 -5.467,-1.093 z"
                   fill="#f7b7b7" />
                <path
                   id="Vector_121"
                   d="m 292.855,336.754 h -7.379 c -0.742,-0.006 -1.459,-0.265 -2.033,-0.735 -0.574,-0.471 -0.969,-1.124 -1.12,-1.85 0.013,-0.068 0.013,-0.139 0,-0.207 l -2.042,0.969 c -2.005,0.938 -4.196,1.41 -6.409,1.38 -2.214,-0.029 -4.392,-0.558 -6.372,-1.548 l -2.494,-1.176 v 0.517 c -0.003,0.712 -0.288,1.394 -0.791,1.897 -0.503,0.504 -1.185,0.788 -1.897,0.791 h -7.844 c -3.833,-0.003 -7.511,1.515 -10.225,4.222 -2.714,2.707 -4.242,6.38 -4.249,10.213 v 14.216 h 14.474 v 35.693 h 38.381 c 0.328,0 0.651,0 0.97,0 V 365.43 h 13.478 v -14.216 c 0,-3.833 -1.521,-7.509 -4.231,-10.22 -2.709,-2.712 -6.384,-4.237 -10.217,-4.24 z"
                   fill="#ffca63" />
                <path
                   id="Vector_122"
                   d="m 269.775,306.991 c -1.259,0.776 -2.621,1.372 -4.045,1.771 -1.417,-0.4 -2.774,-0.992 -4.032,-1.758 1.253,-0.772 2.611,-1.36 4.032,-1.744 1.422,0.388 2.783,0.971 4.045,1.731 z"
                   fill="#ffffff" />
                <path
                   id="Vector_123"
                   d="m 265.769,308.904 c 1.007,0 1.823,-0.816 1.823,-1.822 0,-1.006 -0.816,-1.822 -1.823,-1.822 -1.006,0 -1.822,0.816 -1.822,1.822 0,1.006 0.816,1.822 1.822,1.822 z"
                   fill="#231f20" />
                <path
                   id="Vector_124"
                   d="m 287.04,306.992 c -1.255,0.775 -2.612,1.371 -4.032,1.77 -1.416,-0.399 -2.768,-0.995 -4.019,-1.77 1.253,-0.773 2.611,-1.36 4.032,-1.745 1.414,0.393 2.767,0.98 4.019,1.745 z"
                   fill="#ffffff" />
                <path
                   id="Vector_125"
                   d="m 283.034,308.904 c 1.006,0 1.822,-0.816 1.822,-1.822 0,-1.006 -0.816,-1.822 -1.822,-1.822 -1.006,0 -1.822,0.816 -1.822,1.822 0,1.006 0.816,1.822 1.822,1.822 z"
                   fill="#231f20" />
                <path
                   id="Vector_126"
                   d="m 281.082,322.499 -3.256,0.724 c -1.926,0.414 -3.917,0.414 -5.842,0 l -3.877,-0.775 2.585,1.589 c 1.216,0.78 2.634,1.186 4.078,1.17 1.444,-0.016 2.852,-0.454 4.051,-1.26 z"
                   fill="#ce5967" />
                <path
                   id="Vector_127"
                   d="m 277.697,316.71 c 0,0.805 -0.32,1.578 -0.89,2.147 -0.569,0.57 -1.342,0.89 -2.147,0.89 -0.805,0 -1.578,-0.32 -2.147,-0.89 -0.57,-0.569 -0.89,-1.342 -0.89,-2.147 0,-1.68 3.037,-10.158 3.037,-10.158 0,0 3.037,8.478 3.037,10.158 z"
                   fill="#e09090" />
                <path
                   id="Vector_128"
                   d="m 269.426,300.491 c 0.535,0.176 1.013,0.491 1.386,0.914 0.372,0.423 0.625,0.937 0.733,1.49 l 0.142,0.736 c -0.825,-0.824 -1.821,-1.458 -2.917,-1.857 -1.096,-0.4 -2.266,-0.555 -3.428,-0.456 -1.495,0.292 -2.923,0.857 -4.213,1.667 0,0 1.499,-2.791 4.071,-3.063 1.432,-0.103 2.871,0.091 4.226,0.569 z"
                   fill="#db8dff" />
                <path
                   id="Vector_129"
                   d="m 280.475,300.491 c -0.534,0.177 -1.012,0.493 -1.384,0.915 -0.373,0.423 -0.626,0.936 -0.735,1.489 l -0.142,0.736 c 0.825,-0.825 1.82,-1.459 2.916,-1.859 1.096,-0.399 2.267,-0.554 3.429,-0.454 1.498,0.294 2.93,0.859 4.226,1.667 0,0 -1.512,-2.791 -4.084,-3.063 -1.432,-0.103 -2.871,0.091 -4.226,0.569 z"
                   fill="#db8dff" />
                <path
                   id="Vector_130"
                   d="m 287.958,271.104 c -1.496,-1.699 -3.35,-3.045 -5.428,-3.941 -3.538,-1.029 -7.239,-1.38 -10.907,-1.034 -3.877,0.517 -12.018,1.706 -16.71,10.946 -4.691,9.24 -2.171,20.535 -2.171,20.535 0,0 2.275,-1.176 15.818,-3.296 9.667,-1.499 12.794,-11.217 13.841,-17.821 0,1.137 0.077,2.43 0.129,3.877 0.31,8.801 12.212,17.304 12.212,17.304 1.241,-12.988 -2.92,-22.706 -6.784,-26.57 z"
                   fill="#db8dff" />
              </g>
            </g>
          </g>
        </g>
      </g>
      <g
         id="data labels">
        <g
           id="data-label=tütar">
          <path
             d="m 150,378.5 c 0,-6.904 5.596,-12.5 12.5,-12.5 h 37 c 6.904,0 12.5,5.596 12.5,12.5 v 0 c 0,6.904 -5.596,12.5 -12.5,12.5 h -37 c -6.904,0 -12.5,-5.596 -12.5,-12.5 z"
             fill="#ecf0f2"
             id="path158" />
          <path
             id="test label"
             d="m 158.892,374.912 v -1.094 h 7.636 v 1.094 h -3.201 V 384 h -1.233 v -9.088 z m 16.221,-1.094 h 1.233 v 6.742 c 0,0.696 -0.164,1.317 -0.492,1.864 -0.325,0.544 -0.784,0.973 -1.377,1.288 -0.594,0.311 -1.29,0.467 -2.088,0.467 -0.799,0 -1.495,-0.156 -2.088,-0.467 -0.594,-0.315 -1.054,-0.744 -1.383,-1.288 -0.324,-0.547 -0.487,-1.168 -0.487,-1.864 v -6.742 h 1.233 v 6.642 c 0,0.497 0.11,0.94 0.328,1.328 0.219,0.384 0.531,0.687 0.935,0.909 0.408,0.219 0.895,0.329 1.462,0.329 0.566,0 1.054,-0.11 1.461,-0.329 0.408,-0.222 0.719,-0.525 0.935,-0.909 0.219,-0.388 0.328,-0.831 0.328,-1.328 z m -4.156,-1.273 c -0.209,0 -0.395,-0.079 -0.557,-0.238 -0.159,-0.163 -0.239,-0.348 -0.239,-0.557 0,-0.229 0.08,-0.418 0.239,-0.567 0.162,-0.152 0.348,-0.228 0.557,-0.228 0.228,0 0.417,0.076 0.567,0.228 0.152,0.149 0.228,0.338 0.228,0.567 0,0.209 -0.076,0.394 -0.228,0.557 -0.15,0.159 -0.339,0.238 -0.567,0.238 z m 2.863,0 c -0.208,0 -0.394,-0.079 -0.556,-0.238 -0.16,-0.163 -0.239,-0.348 -0.239,-0.557 0,-0.229 0.079,-0.418 0.239,-0.567 0.162,-0.152 0.348,-0.228 0.556,-0.228 0.229,0 0.418,0.076 0.567,0.228 0.153,0.149 0.229,0.338 0.229,0.567 0,0.209 -0.076,0.394 -0.229,0.557 -0.149,0.159 -0.338,0.238 -0.567,0.238 z m 4.431,2.367 v -1.094 h 7.637 v 1.094 h -3.202 V 384 h -1.233 v -9.088 z m 8.768,9.088 h -1.293 l 3.739,-10.182 h 1.272 L 194.476,384 h -1.292 l -3.043,-8.571 h -0.08 z m 0.477,-3.977 h 5.21 v 1.093 h -5.21 z m 8.566,3.977 v -10.182 h 3.44 c 0.796,0 1.449,0.136 1.959,0.408 0.511,0.268 0.888,0.638 1.134,1.109 0.245,0.47 0.368,1.005 0.368,1.605 0,0.6 -0.123,1.132 -0.368,1.596 -0.246,0.464 -0.622,0.829 -1.129,1.094 -0.507,0.262 -1.155,0.393 -1.944,0.393 h -2.784 v -1.114 h 2.745 c 0.543,0 0.981,-0.079 1.312,-0.239 0.335,-0.159 0.577,-0.384 0.726,-0.676 0.152,-0.295 0.229,-0.646 0.229,-1.054 0,-0.407 -0.077,-0.764 -0.229,-1.069 -0.153,-0.304 -0.396,-0.54 -0.731,-0.706 -0.335,-0.169 -0.777,-0.253 -1.327,-0.253 h -2.168 V 384 Z m 4.793,-4.574 2.505,4.574 h -1.431 l -2.466,-4.574 z"
             fill="#0e1013" />
        </g>
        <g
           id="data-label=lapsed">
          <path
             d="m 241,225.5 c 0,-6.904 5.596,-12.5 12.5,-12.5 h 46 c 6.904,0 12.5,5.596 12.5,12.5 v 0 c 0,6.904 -5.596,12.5 -12.5,12.5 h -46 c -6.904,0 -12.5,-5.596 -12.5,-12.5 z"
             fill="#ecf0f2"
             id="path162" />
          <path
             id="test label_2"
             d="m 250.622,231 v -10.182 h 1.233 v 9.088 h 4.733 V 231 Z m 8.935,0 h -1.293 l 3.739,-10.182 h 1.273 L 267.014,231 h -1.292 l -3.043,-8.571 h -0.08 z m 0.477,-3.977 h 5.21 v 1.093 h -5.21 z M 268.6,231 v -10.182 h 3.44 c 0.799,0 1.452,0.144 1.959,0.433 0.511,0.285 0.889,0.671 1.134,1.158 0.245,0.487 0.368,1.031 0.368,1.631 0,0.6 -0.123,1.145 -0.368,1.635 -0.242,0.491 -0.617,0.882 -1.124,1.174 -0.507,0.288 -1.156,0.432 -1.949,0.432 h -2.466 v -1.093 h 2.427 c 0.546,0 0.986,-0.095 1.317,-0.284 0.332,-0.189 0.572,-0.444 0.721,-0.766 0.152,-0.324 0.229,-0.691 0.229,-1.098 0,-0.408 -0.077,-0.772 -0.229,-1.094 -0.149,-0.321 -0.391,-0.573 -0.726,-0.756 -0.335,-0.185 -0.779,-0.278 -1.332,-0.278 h -2.168 V 231 Z m 14.455,-7.636 c -0.06,-0.504 -0.302,-0.895 -0.726,-1.174 -0.424,-0.278 -0.944,-0.417 -1.561,-0.417 -0.451,0 -0.845,0.073 -1.183,0.218 -0.335,0.146 -0.597,0.347 -0.786,0.602 -0.185,0.255 -0.278,0.545 -0.278,0.87 0,0.272 0.065,0.506 0.194,0.701 0.132,0.192 0.301,0.353 0.507,0.482 0.205,0.126 0.421,0.231 0.646,0.314 0.226,0.079 0.433,0.144 0.622,0.193 l 1.034,0.279 c 0.265,0.069 0.56,0.166 0.885,0.288 0.328,0.123 0.641,0.29 0.939,0.502 0.302,0.209 0.551,0.478 0.746,0.806 0.196,0.328 0.293,0.731 0.293,1.208 0,0.55 -0.144,1.047 -0.432,1.491 -0.285,0.444 -0.703,0.797 -1.253,1.059 -0.547,0.262 -1.211,0.393 -1.994,0.393 -0.729,0 -1.36,-0.118 -1.894,-0.353 -0.53,-0.235 -0.948,-0.563 -1.253,-0.984 -0.301,-0.421 -0.472,-0.91 -0.512,-1.467 h 1.273 c 0.033,0.384 0.162,0.703 0.388,0.955 0.229,0.248 0.517,0.434 0.865,0.556 0.351,0.12 0.729,0.179 1.133,0.179 0.471,0 0.894,-0.076 1.268,-0.228 0.375,-0.156 0.671,-0.372 0.89,-0.647 0.219,-0.278 0.328,-0.603 0.328,-0.974 0,-0.338 -0.094,-0.613 -0.283,-0.825 -0.189,-0.212 -0.438,-0.385 -0.746,-0.517 -0.308,-0.133 -0.641,-0.249 -0.999,-0.348 l -1.253,-0.358 c -0.795,-0.229 -1.425,-0.556 -1.889,-0.98 -0.464,-0.424 -0.696,-0.979 -0.696,-1.665 0,-0.57 0.154,-1.068 0.462,-1.492 0.312,-0.427 0.729,-0.759 1.253,-0.994 0.527,-0.239 1.115,-0.358 1.765,-0.358 0.656,0 1.239,0.118 1.75,0.353 0.51,0.232 0.915,0.55 1.213,0.955 0.302,0.404 0.461,0.863 0.477,1.377 z m 3.36,7.636 v -10.182 h 6.144 v 1.094 h -4.911 v 3.44 h 4.593 v 1.094 h -4.593 v 3.46 h 4.991 V 231 Z m 11.509,0 h -3.142 v -10.182 h 3.281 c 0.988,0 1.833,0.204 2.536,0.612 0.702,0.404 1.241,0.986 1.615,1.745 0.375,0.755 0.562,1.66 0.562,2.714 0,1.061 -0.189,1.974 -0.567,2.74 -0.378,0.762 -0.928,1.349 -1.65,1.759 -0.723,0.408 -1.601,0.612 -2.635,0.612 z m -1.909,-1.094 h 1.829 c 0.842,0 1.54,-0.162 2.093,-0.487 0.554,-0.325 0.966,-0.787 1.238,-1.387 0.272,-0.6 0.408,-1.314 0.408,-2.143 0,-0.822 -0.134,-1.529 -0.403,-2.123 -0.268,-0.596 -0.669,-1.054 -1.203,-1.372 -0.534,-0.321 -1.198,-0.482 -1.994,-0.482 h -1.968 z"
             fill="#0e1013" />
        </g>
        <g
           id="data-label=lapselapsed">
          <path
             d="m 123,420.5 c 0,-6.904 5.596,-12.5 12.5,-12.5 h 90 c 6.904,0 12.5,5.596 12.5,12.5 v 0 c 0,6.904 -5.596,12.5 -12.5,12.5 h -90 c -6.904,0 -12.5,-5.596 -12.5,-12.5 z"
             fill="#ecf0f2"
             id="path166" />
          <path
             id="test label_3"
             d="m 132.542,426 v -10.182 h 1.233 v 9.088 h 4.732 V 426 Z m 8.935,0 h -1.293 l 3.739,-10.182 h 1.272 L 148.934,426 h -1.292 l -3.043,-8.571 h -0.08 z m 0.477,-3.977 h 5.21 v 1.093 h -5.21 z M 150.52,426 v -10.182 h 3.44 c 0.799,0 1.452,0.144 1.959,0.433 0.511,0.285 0.888,0.671 1.134,1.158 0.245,0.487 0.368,1.031 0.368,1.631 0,0.6 -0.123,1.145 -0.368,1.635 -0.242,0.491 -0.617,0.882 -1.124,1.174 -0.507,0.288 -1.157,0.432 -1.949,0.432 h -2.466 v -1.093 h 2.427 c 0.546,0 0.986,-0.095 1.317,-0.284 0.331,-0.189 0.572,-0.444 0.721,-0.766 0.152,-0.324 0.229,-0.691 0.229,-1.098 0,-0.408 -0.077,-0.772 -0.229,-1.094 -0.149,-0.321 -0.391,-0.573 -0.726,-0.756 -0.335,-0.185 -0.779,-0.278 -1.332,-0.278 h -2.168 V 426 Z m 14.455,-7.636 c -0.06,-0.504 -0.302,-0.895 -0.726,-1.174 -0.424,-0.278 -0.944,-0.417 -1.561,-0.417 -0.451,0 -0.845,0.073 -1.183,0.218 -0.335,0.146 -0.597,0.347 -0.786,0.602 -0.185,0.255 -0.278,0.545 -0.278,0.87 0,0.272 0.065,0.506 0.194,0.701 0.132,0.192 0.301,0.353 0.507,0.482 0.205,0.126 0.421,0.231 0.646,0.314 0.226,0.079 0.433,0.144 0.622,0.193 l 1.034,0.279 c 0.265,0.069 0.56,0.166 0.885,0.288 0.328,0.123 0.641,0.29 0.939,0.502 0.302,0.209 0.55,0.478 0.746,0.806 0.196,0.328 0.293,0.731 0.293,1.208 0,0.55 -0.144,1.047 -0.432,1.491 -0.285,0.444 -0.703,0.797 -1.253,1.059 -0.547,0.262 -1.211,0.393 -1.994,0.393 -0.729,0 -1.36,-0.118 -1.894,-0.353 -0.53,-0.235 -0.948,-0.563 -1.253,-0.984 -0.301,-0.421 -0.472,-0.91 -0.512,-1.467 h 1.273 c 0.033,0.384 0.162,0.703 0.388,0.955 0.228,0.248 0.517,0.434 0.865,0.556 0.351,0.12 0.729,0.179 1.133,0.179 0.471,0 0.894,-0.076 1.268,-0.228 0.375,-0.156 0.671,-0.372 0.89,-0.647 0.219,-0.278 0.328,-0.603 0.328,-0.974 0,-0.338 -0.094,-0.613 -0.283,-0.825 -0.189,-0.212 -0.438,-0.385 -0.746,-0.517 -0.308,-0.133 -0.641,-0.249 -0.999,-0.348 l -1.253,-0.358 c -0.796,-0.229 -1.425,-0.556 -1.889,-0.98 -0.464,-0.424 -0.696,-0.979 -0.696,-1.665 0,-0.57 0.154,-1.068 0.462,-1.492 0.312,-0.427 0.729,-0.759 1.253,-0.994 0.527,-0.239 1.115,-0.358 1.765,-0.358 0.656,0 1.239,0.118 1.75,0.353 0.51,0.232 0.915,0.55 1.213,0.955 0.301,0.404 0.461,0.863 0.477,1.377 z m 3.36,7.636 v -10.182 h 6.144 v 1.094 h -4.912 v 3.44 h 4.594 v 1.094 h -4.594 v 3.46 h 4.992 V 426 Z m 8.367,0 v -10.182 h 1.233 v 9.088 h 4.733 V 426 Z m 8.935,0 h -1.293 l 3.739,-10.182 h 1.273 L 193.094,426 h -1.292 l -3.043,-8.571 h -0.079 z m 0.477,-3.977 h 5.21 v 1.093 h -5.21 z M 194.68,426 v -10.182 h 3.441 c 0.798,0 1.451,0.144 1.958,0.433 0.511,0.285 0.889,0.671 1.134,1.158 0.245,0.487 0.368,1.031 0.368,1.631 0,0.6 -0.123,1.145 -0.368,1.635 -0.242,0.491 -0.617,0.882 -1.124,1.174 -0.507,0.288 -1.156,0.432 -1.949,0.432 h -2.465 v -1.093 h 2.426 c 0.547,0 0.986,-0.095 1.317,-0.284 0.332,-0.189 0.572,-0.444 0.721,-0.766 0.152,-0.324 0.229,-0.691 0.229,-1.098 0,-0.408 -0.077,-0.772 -0.229,-1.094 -0.149,-0.321 -0.391,-0.573 -0.726,-0.756 -0.335,-0.185 -0.779,-0.278 -1.332,-0.278 h -2.168 V 426 Z m 14.455,-7.636 c -0.06,-0.504 -0.301,-0.895 -0.726,-1.174 -0.424,-0.278 -0.944,-0.417 -1.561,-0.417 -0.451,0 -0.845,0.073 -1.183,0.218 -0.335,0.146 -0.597,0.347 -0.786,0.602 -0.185,0.255 -0.278,0.545 -0.278,0.87 0,0.272 0.065,0.506 0.194,0.701 0.132,0.192 0.302,0.353 0.507,0.482 0.206,0.126 0.421,0.231 0.646,0.314 0.226,0.079 0.433,0.144 0.622,0.193 l 1.034,0.279 c 0.265,0.069 0.56,0.166 0.885,0.288 0.328,0.123 0.641,0.29 0.939,0.502 0.302,0.209 0.551,0.478 0.746,0.806 0.196,0.328 0.294,0.731 0.294,1.208 0,0.55 -0.145,1.047 -0.433,1.491 -0.285,0.444 -0.703,0.797 -1.253,1.059 -0.547,0.262 -1.211,0.393 -1.993,0.393 -0.73,0 -1.361,-0.118 -1.895,-0.353 -0.53,-0.235 -0.948,-0.563 -1.252,-0.984 -0.302,-0.421 -0.473,-0.91 -0.513,-1.467 h 1.273 c 0.033,0.384 0.163,0.703 0.388,0.955 0.229,0.248 0.517,0.434 0.865,0.556 0.351,0.12 0.729,0.179 1.134,0.179 0.47,0 0.893,-0.076 1.267,-0.228 0.375,-0.156 0.671,-0.372 0.89,-0.647 0.219,-0.278 0.328,-0.603 0.328,-0.974 0,-0.338 -0.094,-0.613 -0.283,-0.825 -0.189,-0.212 -0.438,-0.385 -0.746,-0.517 -0.308,-0.133 -0.641,-0.249 -0.999,-0.348 l -1.253,-0.358 c -0.795,-0.229 -1.425,-0.556 -1.889,-0.98 -0.464,-0.424 -0.696,-0.979 -0.696,-1.665 0,-0.57 0.154,-1.068 0.462,-1.492 0.312,-0.427 0.729,-0.759 1.253,-0.994 0.527,-0.239 1.115,-0.358 1.765,-0.358 0.656,0 1.24,0.118 1.75,0.353 0.51,0.232 0.915,0.55 1.213,0.955 0.302,0.404 0.461,0.863 0.477,1.377 z m 3.36,7.636 v -10.182 h 6.145 v 1.094 h -4.912 v 3.44 h 4.593 v 1.094 h -4.593 v 3.46 h 4.991 V 426 Z m 11.509,0 h -3.142 v -10.182 h 3.281 c 0.988,0 1.833,0.204 2.536,0.612 0.702,0.404 1.241,0.986 1.615,1.745 0.375,0.755 0.562,1.66 0.562,2.714 0,1.061 -0.189,1.974 -0.567,2.74 -0.377,0.762 -0.928,1.349 -1.65,1.759 -0.723,0.408 -1.601,0.612 -2.635,0.612 z m -1.909,-1.094 h 1.829 c 0.842,0 1.54,-0.162 2.093,-0.487 0.554,-0.325 0.967,-0.787 1.238,-1.387 0.272,-0.6 0.408,-1.314 0.408,-2.143 0,-0.822 -0.134,-1.529 -0.403,-2.123 -0.268,-0.596 -0.669,-1.054 -1.203,-1.372 -0.533,-0.321 -1.198,-0.482 -1.993,-0.482 h -1.969 z"
             fill="#0e1013" />
        </g>
        <g
           id="data-label=abikaasa">
          <path
             d="m 140,182.5 c 0,-6.904 5.596,-12.5 12.5,-12.5 h 60 c 6.904,0 12.5,5.596 12.5,12.5 v 0 c 0,6.904 -5.596,12.5 -12.5,12.5 h -60 c -6.904,0 -12.5,-5.596 -12.5,-12.5 z"
             fill="#ecf0f2"
             id="path170" />
          <path
             id="test label_4"
             d="m 149.793,188 h -1.292 l 3.738,-10.182 h 1.273 L 157.251,188 h -1.293 l -3.043,-8.571 h -0.079 z m 0.477,-3.977 h 5.211 v 1.093 h -5.211 z m 8.566,3.977 v -10.182 h 3.56 c 0.709,0 1.294,0.123 1.755,0.368 0.461,0.242 0.804,0.568 1.029,0.979 0.226,0.408 0.338,0.861 0.338,1.358 0,0.437 -0.078,0.798 -0.233,1.084 -0.153,0.285 -0.355,0.51 -0.607,0.676 -0.248,0.165 -0.519,0.288 -0.81,0.368 v 0.099 c 0.311,0.02 0.624,0.129 0.939,0.328 0.315,0.199 0.579,0.484 0.791,0.855 0.212,0.371 0.318,0.826 0.318,1.362 0,0.511 -0.116,0.97 -0.348,1.378 -0.232,0.407 -0.598,0.73 -1.099,0.969 -0.5,0.239 -1.151,0.358 -1.954,0.358 z m 1.233,-1.094 h 2.446 c 0.806,0 1.378,-0.156 1.716,-0.467 0.341,-0.315 0.512,-0.696 0.512,-1.144 0,-0.344 -0.088,-0.662 -0.264,-0.954 -0.175,-0.295 -0.426,-0.53 -0.75,-0.706 -0.325,-0.179 -0.71,-0.269 -1.154,-0.269 h -2.506 z m 0,-4.613 h 2.287 c 0.372,0 0.706,-0.073 1.005,-0.219 0.301,-0.146 0.54,-0.351 0.716,-0.617 0.179,-0.265 0.268,-0.576 0.268,-0.934 0,-0.448 -0.156,-0.827 -0.467,-1.139 -0.312,-0.315 -0.806,-0.472 -1.482,-0.472 h -2.327 z m 9.106,-4.475 V 188 h -1.233 V 177.818 Z M 171.647,188 v -10.182 h 1.233 v 5.051 h 0.119 l 4.574,-5.051 h 1.611 l -4.276,4.594 4.276,5.588 h -1.492 l -3.539,-4.733 -1.273,1.432 V 188 Z m 9.55,0 h -1.292 l 3.738,-10.182 h 1.273 L 188.655,188 h -1.293 l -3.042,-8.571 h -0.08 z m 0.478,-3.977 h 5.21 v 1.093 h -5.21 z m 8.983,3.977 h -1.292 l 3.738,-10.182 h 1.273 L 198.116,188 h -1.293 l -3.042,-8.571 h -0.08 z m 0.478,-3.977 h 5.21 v 1.093 h -5.21 z m 14.134,-3.659 c -0.06,-0.504 -0.302,-0.895 -0.726,-1.174 -0.424,-0.278 -0.945,-0.417 -1.561,-0.417 -0.451,0 -0.845,0.073 -1.183,0.218 -0.335,0.146 -0.597,0.347 -0.786,0.602 -0.185,0.255 -0.278,0.545 -0.278,0.87 0,0.272 0.064,0.506 0.194,0.701 0.132,0.192 0.301,0.353 0.507,0.482 0.205,0.126 0.421,0.231 0.646,0.314 0.225,0.079 0.433,0.144 0.622,0.193 l 1.034,0.279 c 0.265,0.069 0.56,0.166 0.885,0.288 0.328,0.123 0.641,0.29 0.939,0.502 0.302,0.209 0.55,0.478 0.746,0.806 0.195,0.328 0.293,0.731 0.293,1.208 0,0.55 -0.144,1.047 -0.432,1.491 -0.285,0.444 -0.703,0.797 -1.253,1.059 -0.547,0.262 -1.212,0.393 -1.994,0.393 -0.729,0 -1.36,-0.118 -1.894,-0.353 -0.53,-0.235 -0.948,-0.563 -1.253,-0.984 -0.301,-0.421 -0.472,-0.91 -0.512,-1.467 h 1.273 c 0.033,0.384 0.162,0.703 0.388,0.955 0.228,0.248 0.517,0.434 0.865,0.556 0.351,0.12 0.729,0.179 1.133,0.179 0.471,0 0.894,-0.076 1.268,-0.228 0.375,-0.156 0.671,-0.372 0.89,-0.647 0.219,-0.278 0.328,-0.603 0.328,-0.974 0,-0.338 -0.094,-0.613 -0.283,-0.825 -0.189,-0.212 -0.438,-0.385 -0.746,-0.517 -0.308,-0.133 -0.641,-0.249 -0.999,-0.348 l -1.253,-0.358 c -0.796,-0.229 -1.425,-0.556 -1.889,-0.98 -0.464,-0.424 -0.696,-0.979 -0.696,-1.665 0,-0.57 0.154,-1.068 0.462,-1.492 0.312,-0.427 0.729,-0.759 1.253,-0.994 0.527,-0.239 1.115,-0.358 1.765,-0.358 0.656,0 1.239,0.118 1.75,0.353 0.51,0.232 0.915,0.55 1.213,0.955 0.301,0.404 0.46,0.863 0.477,1.377 z m 3.777,7.636 h -1.293 l 3.739,-10.182 h 1.273 L 216.504,188 h -1.292 l -3.043,-8.571 h -0.079 z m 0.477,-3.977 h 5.211 v 1.093 h -5.211 z"
             fill="#0e1013" />
        </g>
        <g
           id="data-label=väimees">
          <path
             d="M 38,378.5 C 38,371.596 43.5964,366 50.5,366 h 51 c 6.904,0 12.5,5.596 12.5,12.5 v 0 c 0,6.904 -5.596,12.5 -12.5,12.5 h -51 C 43.5964,391 38,385.404 38,378.5 Z"
             fill="#ecf0f2"
             id="path174" />
          <path
             id="test label_5"
             d="m 47.716,373.818 3.0227,8.571 h 0.1193 l 3.0228,-8.571 h 1.2926 L 51.4347,384 H 50.162 L 46.4234,373.818 Z M 56.3019,384 h -1.2926 l 3.7387,-10.182 h 1.2727 L 63.7593,384 h -1.2926 l -3.0426,-8.571 h -0.0796 z m 0.4773,-3.977 h 5.2102 v 1.093 h -5.2102 z m 1.1733,-7.478 c -0.2088,0 -0.3944,-0.079 -0.5568,-0.238 -0.1591,-0.163 -0.2387,-0.348 -0.2387,-0.557 0,-0.229 0.0796,-0.418 0.2387,-0.567 0.1624,-0.152 0.348,-0.228 0.5568,-0.228 0.2287,0 0.4176,0.076 0.5668,0.228 0.1524,0.149 0.2287,0.338 0.2287,0.567 0,0.209 -0.0763,0.394 -0.2287,0.557 -0.1492,0.159 -0.3381,0.238 -0.5668,0.238 z m 2.8636,0 c -0.2088,0 -0.3944,-0.079 -0.5568,-0.238 -0.1591,-0.163 -0.2386,-0.348 -0.2386,-0.557 0,-0.229 0.0795,-0.418 0.2386,-0.567 0.1624,-0.152 0.348,-0.228 0.5568,-0.228 0.2287,0 0.4177,0.076 0.5668,0.228 0.1525,0.149 0.2287,0.338 0.2287,0.567 0,0.209 -0.0762,0.394 -0.2287,0.557 -0.1491,0.159 -0.3381,0.238 -0.5668,0.238 z m 5.7621,1.273 V 384 h -1.2329 v -10.182 z m 2.4721,0 h 1.4716 l 3.4603,8.452 h 0.1193 l 3.4602,-8.452 h 1.4716 V 384 h -1.1534 v -7.736 H 77.7805 L 74.5986,384 H 73.485 l -3.1818,-7.736 H 70.2037 V 384 H 69.0503 Z M 81.5054,384 v -10.182 h 6.1449 v 1.094 h -4.9119 v 3.44 h 4.5937 v 1.094 h -4.5937 v 3.46 h 4.9914 V 384 Z m 8.3672,0 v -10.182 h 6.1449 v 1.094 h -4.9119 v 3.44 h 4.5937 v 1.094 h -4.5937 v 3.46 H 96.097 V 384 Z m 13.9354,-7.636 c -0.06,-0.504 -0.302,-0.895 -0.726,-1.174 -0.424,-0.278 -0.944,-0.417 -1.561,-0.417 -0.451,0 -0.845,0.073 -1.183,0.218 -0.335,0.146 -0.5968,0.347 -0.7857,0.602 -0.1856,0.255 -0.2784,0.545 -0.2784,0.87 0,0.272 0.0646,0.506 0.1939,0.701 0.1325,0.192 0.3016,0.353 0.5071,0.482 0.2051,0.126 0.4211,0.231 0.6461,0.314 0.226,0.079 0.433,0.144 0.622,0.193 l 1.034,0.279 c 0.265,0.069 0.56,0.166 0.885,0.288 0.328,0.123 0.641,0.29 0.939,0.502 0.302,0.209 0.55,0.478 0.746,0.806 0.196,0.328 0.293,0.731 0.293,1.208 0,0.55 -0.144,1.047 -0.432,1.491 -0.285,0.444 -0.703,0.797 -1.253,1.059 -0.547,0.262 -1.211,0.393 -1.994,0.393 -0.729,0 -1.36,-0.118 -1.8938,-0.353 -0.5303,-0.235 -0.9479,-0.563 -1.2528,-0.984 -0.3016,-0.421 -0.4723,-0.91 -0.5121,-1.467 h 1.2727 c 0.0332,0.384 0.1624,0.703 0.3878,0.955 0.2287,0.248 0.517,0.434 0.8652,0.556 0.351,0.12 0.729,0.179 1.133,0.179 0.471,0 0.894,-0.076 1.268,-0.228 0.375,-0.156 0.671,-0.372 0.89,-0.647 0.219,-0.278 0.328,-0.603 0.328,-0.974 0,-0.338 -0.094,-0.613 -0.283,-0.825 -0.189,-0.212 -0.438,-0.385 -0.746,-0.517 -0.308,-0.133 -0.641,-0.249 -0.999,-0.348 l -1.253,-0.358 c -0.7955,-0.229 -1.4253,-0.556 -1.8893,-0.98 -0.464,-0.424 -0.696,-0.979 -0.696,-1.665 0,-0.57 0.1541,-1.068 0.4624,-1.492 0.3115,-0.427 0.7291,-0.759 1.2528,-0.994 0.5271,-0.239 1.1151,-0.358 1.7651,-0.358 0.656,0 1.239,0.118 1.75,0.353 0.51,0.232 0.915,0.55 1.213,0.955 0.301,0.404 0.461,0.863 0.477,1.377 z"
             fill="#0e1013" />
        </g>
        <g
           id="data-label=poeg">
          <path
             d="m 340,378.5 c 0,-6.904 5.596,-12.5 12.5,-12.5 h 30 c 6.904,0 12.5,5.596 12.5,12.5 v 0 c 0,6.904 -5.596,12.5 -12.5,12.5 h -30 c -6.904,0 -12.5,-5.596 -12.5,-12.5 z"
             fill="#ecf0f2"
             id="path178" />
          <path
             id="test label_6"
             d="m 349.572,384 v -10.182 h 3.44 c 0.799,0 1.452,0.144 1.959,0.433 0.51,0.285 0.888,0.671 1.133,1.158 0.246,0.487 0.368,1.031 0.368,1.631 0,0.6 -0.122,1.145 -0.368,1.635 -0.241,0.491 -0.616,0.882 -1.123,1.174 -0.507,0.288 -1.157,0.432 -1.949,0.432 h -2.466 v -1.093 h 2.426 c 0.547,0 0.986,-0.095 1.318,-0.284 0.331,-0.189 0.571,-0.444 0.721,-0.766 0.152,-0.324 0.228,-0.691 0.228,-1.098 0,-0.408 -0.076,-0.772 -0.228,-1.094 -0.15,-0.321 -0.391,-0.573 -0.726,-0.756 -0.335,-0.185 -0.779,-0.278 -1.333,-0.278 h -2.167 V 384 Z m 17.477,-5.091 c 0,1.074 -0.193,2.002 -0.581,2.784 -0.388,0.782 -0.92,1.386 -1.596,1.81 -0.676,0.424 -1.448,0.636 -2.317,0.636 -0.868,0 -1.64,-0.212 -2.317,-0.636 -0.676,-0.424 -1.208,-1.028 -1.596,-1.81 -0.387,-0.782 -0.581,-1.71 -0.581,-2.784 0,-1.074 0.194,-2.002 0.581,-2.784 0.388,-0.782 0.92,-1.385 1.596,-1.81 0.677,-0.424 1.449,-0.636 2.317,-0.636 0.869,0 1.641,0.212 2.317,0.636 0.676,0.425 1.208,1.028 1.596,1.81 0.388,0.782 0.581,1.71 0.581,2.784 z m -1.193,0 c 0,-0.882 -0.147,-1.626 -0.442,-2.232 -0.292,-0.607 -0.688,-1.066 -1.188,-1.377 -0.498,-0.312 -1.054,-0.468 -1.671,-0.468 -0.616,0 -1.175,0.156 -1.675,0.468 -0.497,0.311 -0.894,0.77 -1.189,1.377 -0.291,0.606 -0.437,1.35 -0.437,2.232 0,0.882 0.146,1.626 0.437,2.232 0.295,0.607 0.692,1.066 1.189,1.377 0.5,0.312 1.059,0.468 1.675,0.468 0.617,0 1.173,-0.156 1.671,-0.468 0.5,-0.311 0.896,-0.77 1.188,-1.377 0.295,-0.606 0.442,-1.35 0.442,-2.232 z m 3.267,5.091 v -10.182 h 6.144 v 1.094 h -4.911 v 3.44 h 4.593 v 1.094 h -4.593 v 3.46 h 4.991 V 384 Z m 15.327,-7 c -0.109,-0.335 -0.254,-0.635 -0.433,-0.9 -0.175,-0.268 -0.386,-0.497 -0.631,-0.686 -0.242,-0.189 -0.517,-0.333 -0.825,-0.432 -0.308,-0.1 -0.646,-0.15 -1.014,-0.15 -0.604,0 -1.152,0.156 -1.646,0.468 -0.494,0.311 -0.887,0.77 -1.178,1.377 -0.292,0.606 -0.438,1.35 -0.438,2.232 0,0.882 0.148,1.626 0.443,2.232 0.295,0.607 0.694,1.066 1.198,1.377 0.504,0.312 1.07,0.468 1.7,0.468 0.583,0 1.097,-0.124 1.541,-0.373 0.448,-0.252 0.796,-0.607 1.044,-1.064 0.252,-0.461 0.378,-1.003 0.378,-1.626 l 0.378,0.08 h -3.062 v -1.094 h 3.877 v 1.094 c 0,0.838 -0.179,1.568 -0.537,2.187 -0.354,0.62 -0.845,1.101 -1.471,1.442 -0.623,0.338 -1.339,0.507 -2.148,0.507 -0.901,0 -1.694,-0.212 -2.376,-0.636 -0.68,-0.424 -1.21,-1.028 -1.591,-1.81 -0.378,-0.782 -0.567,-1.71 -0.567,-2.784 0,-0.805 0.108,-1.53 0.323,-2.172 0.219,-0.647 0.527,-1.197 0.925,-1.651 0.398,-0.454 0.868,-0.802 1.412,-1.044 0.543,-0.242 1.142,-0.363 1.795,-0.363 0.537,0 1.037,0.081 1.501,0.244 0.467,0.159 0.883,0.386 1.248,0.681 0.368,0.291 0.674,0.641 0.92,1.049 0.245,0.404 0.414,0.853 0.507,1.347 z"
             fill="#0e1013" />
        </g>
        <g
           id="g180">
          <path
             d="m 242,378.5 c 0,-6.904 5.596,-12.5 12.5,-12.5 h 37 c 6.904,0 12.5,5.596 12.5,12.5 v 0 c 0,6.904 -5.596,12.5 -12.5,12.5 h -37 c -6.904,0 -12.5,-5.596 -12.5,-12.5 z"
             fill="#ecf0f2"
             id="path182" />
          <path
             id="test label_7"
             d="m 250.892,374.912 v -1.094 h 7.636 v 1.094 h -3.201 V 384 h -1.233 v -9.088 z m 16.221,-1.094 h 1.233 v 6.742 c 0,0.696 -0.164,1.317 -0.492,1.864 -0.325,0.544 -0.784,0.973 -1.377,1.288 -0.594,0.311 -1.29,0.467 -2.088,0.467 -0.799,0 -1.495,-0.156 -2.088,-0.467 -0.594,-0.315 -1.054,-0.744 -1.383,-1.288 -0.324,-0.547 -0.487,-1.168 -0.487,-1.864 v -6.742 h 1.233 v 6.642 c 0,0.497 0.11,0.94 0.328,1.328 0.219,0.384 0.531,0.687 0.935,0.909 0.408,0.219 0.895,0.329 1.462,0.329 0.566,0 1.054,-0.11 1.461,-0.329 0.408,-0.222 0.719,-0.525 0.935,-0.909 0.219,-0.388 0.328,-0.831 0.328,-1.328 z m -4.156,-1.273 c -0.209,0 -0.395,-0.079 -0.557,-0.238 -0.159,-0.163 -0.239,-0.348 -0.239,-0.557 0,-0.229 0.08,-0.418 0.239,-0.567 0.162,-0.152 0.348,-0.228 0.557,-0.228 0.228,0 0.417,0.076 0.567,0.228 0.152,0.149 0.228,0.338 0.228,0.567 0,0.209 -0.076,0.394 -0.228,0.557 -0.15,0.159 -0.339,0.238 -0.567,0.238 z m 2.863,0 c -0.208,0 -0.394,-0.079 -0.556,-0.238 -0.16,-0.163 -0.239,-0.348 -0.239,-0.557 0,-0.229 0.079,-0.418 0.239,-0.567 0.162,-0.152 0.348,-0.228 0.556,-0.228 0.229,0 0.418,0.076 0.567,0.228 0.153,0.149 0.229,0.338 0.229,0.567 0,0.209 -0.076,0.394 -0.229,0.557 -0.149,0.159 -0.338,0.238 -0.567,0.238 z m 4.431,2.367 v -1.094 h 7.637 v 1.094 h -3.202 V 384 h -1.233 v -9.088 z m 8.768,9.088 h -1.293 l 3.739,-10.182 h 1.272 L 286.476,384 h -1.292 l -3.043,-8.571 h -0.08 z m 0.477,-3.977 h 5.21 v 1.093 h -5.21 z m 8.566,3.977 v -10.182 h 3.44 c 0.796,0 1.449,0.136 1.959,0.408 0.511,0.268 0.888,0.638 1.134,1.109 0.245,0.47 0.368,1.005 0.368,1.605 0,0.6 -0.123,1.132 -0.368,1.596 -0.246,0.464 -0.622,0.829 -1.129,1.094 -0.507,0.262 -1.155,0.393 -1.944,0.393 h -2.784 v -1.114 h 2.745 c 0.543,0 0.981,-0.079 1.312,-0.239 0.335,-0.159 0.577,-0.384 0.726,-0.676 0.152,-0.295 0.229,-0.646 0.229,-1.054 0,-0.407 -0.077,-0.764 -0.229,-1.069 -0.153,-0.304 -0.396,-0.54 -0.731,-0.706 -0.335,-0.169 -0.777,-0.253 -1.327,-0.253 h -2.168 V 384 Z m 4.793,-4.574 2.505,4.574 h -1.431 l -2.466,-4.574 z"
             fill="#0e1013" />
        </g>
        <g
           id="data-label=minia">
          <path
             d="m 435,378.5 c 0,-6.904 5.596,-12.5 12.5,-12.5 h 31 c 6.904,0 12.5,5.596 12.5,12.5 v 0 c 0,6.904 -5.596,12.5 -12.5,12.5 h -31 c -6.904,0 -12.5,-5.596 -12.5,-12.5 z"
             fill="#ecf0f2"
             id="path186" />
          <path
             id="test label_8"
             d="m 444.299,373.818 h 1.472 l 3.46,8.452 h 0.119 l 3.461,-8.452 h 1.471 V 384 h -1.153 v -7.736 h -0.1 L 449.848,384 h -1.114 l -3.182,-7.736 h -0.099 V 384 h -1.154 z m 13.688,0 V 384 h -1.233 v -10.182 z m 10.546,0 V 384 h -1.193 l -5.548,-7.994 h -0.1 V 384 h -1.232 v -10.182 h 1.193 l 5.568,8.014 h 0.099 v -8.014 z m 3.7,0 V 384 h -1.232 v -10.182 z m 2.89,10.182 h -1.292 l 3.738,-10.182 h 1.273 L 482.581,384 h -1.293 l -3.043,-8.571 h -0.079 z m 0.477,-3.977 h 5.211 v 1.093 H 475.6 Z"
             fill="#0e1013" />
        </g>
        <g
           id="data-label=mina">
          <path
             d="m 239,182.5 c 0,-6.904 5.596,-12.5 12.5,-12.5 h 47 c 6.904,0 12.5,5.596 12.5,12.5 v 0 c 0,6.904 -5.596,12.5 -12.5,12.5 h -47 c -6.904,0 -12.5,-5.596 -12.5,-12.5 z"
             fill="#00377a"
             id="path190" />
          <path
             id="test label_9"
             d="m 249.477,174.955 h 3.793 l 4.005,9.772 h 0.171 l 4.006,-9.772 h 3.792 V 189.5 h -2.983 v -9.467 h -0.121 l -3.764,9.396 h -2.031 l -3.764,-9.432 h -0.121 v 9.503 h -2.983 z m 21.376,0 V 189.5 h -3.075 v -14.545 z m 14.697,0 V 189.5 h -2.657 l -6.328,-9.155 h -0.106 v 9.155 h -3.076 v -14.545 h 2.699 l 6.279,9.147 h 0.127 v -9.147 z m 5.047,14.545 h -3.295 l 5.021,-14.545 h 3.963 l 5.015,14.545 h -3.296 l -3.643,-11.222 h -0.114 z m -0.205,-5.717 h 7.784 v 2.4 h -7.784 z"
             fill="#ecf0f2" />
        </g>
      </g>
    </g>
  </g>
</svg>
