<?xml version="1.0" encoding="UTF-8"?>
<svg width="40px" height="20px" viewBox="0 0 40 20" version="1.1" xmlns="http://www.w3.org/2000/svg" xmlns:xlink="http://www.w3.org/1999/xlink">
    <!-- Generator: Sketch 49.1 (51147) - http://www.bohemiancoding.com/sketch -->
    <title>homonym-arrowhead</title>
    <desc>Created with Sketch.</desc>
    <defs></defs>
    <g id="homonym-arrowhead" stroke="none" stroke-width="1" fill="none" fill-rule="evenodd">
        <path d="M38.7299991,2 C36.3427859,2 34.0533467,2.94821156 32.3653321,4.63603897 L23.5359256,13.4644661 C21.5830876,15.4170876 18.4169115,15.4170876 16.4640734,13.4644661 L7.63466696,4.63603897 C5.94665233,2.94821156 3.65721317,2 1.26999998,2 L1.26999998,2 C0.568598359,2 -2.87794933e-13,1.43140164 -2.8788083e-13,0.730000019 L-2.88324919e-13,-1.18099974e-13 C11.7403907,-1.18099974e-13 18.4070573,-1.18099974e-13 20,-1.18099974e-13 C21.8279648,-1.18099974e-13 28.4946314,-1.18099974e-13 40,-1.18099974e-13 L40,0.73 C40,1.43140163 39.4314016,2 38.73,2 L38.7299991,2 Z" id="Rectangle-5-Copy-4" fill="#003F87"></path>
    </g>
</svg>