<?xml version="1.0" standalone="no"?>
<!DOCTYPE svg PUBLIC "-//W3C//DTD SVG 20010904//EN"
 "http://www.w3.org/TR/2001/REC-SVG-20010904/DTD/svg10.dtd">
<svg version="1.0" xmlns="http://www.w3.org/2000/svg"
 width="260.000000pt" height="260.000000pt" viewBox="0 0 260.000000 260.000000"
 preserveAspectRatio="xMidYMid meet">
<metadata>
Created by potrace 1.11, written by Peter Selinger 2001-2013
</metadata>
<g transform="translate(0.000000,260.000000) scale(0.100000,-0.100000)"
fill="#000000" stroke="none">
<path d="M2410 2404 l0 -196 -39 -39 c-39 -39 -39 -39 -120 -39 l-81 0 0 -136
0 -135 193 3 c146 2 198 6 210 17 15 12 17 48 17 327 0 221 -3 321 -12 339
-16 36 -57 55 -118 55 l-50 0 0 -196z"/>
<path d="M0 1735 l0 -95 149 0 c147 0 150 0 181 -26 55 -47 60 -67 60 -249 l0
-165 35 0 c81 0 135 -64 135 -159 0 -42 4 -53 26 -70 25 -20 39 -21 260 -21
l234 0 0 113 -1 112 -39 18 c-55 25 -80 81 -80 175 0 111 -2 112 -203 112
-191 0 -218 8 -254 80 -19 37 -23 60 -23 141 0 136 14 129 -258 129 l-222 0 0
-95z"/>
<path d="M2570 1790 c-14 -4 -109 -8 -211 -9 l-187 -1 -4 -70 c-3 -66 -6 -73
-41 -108 l-37 -37 -134 -5 c-87 -3 -138 -9 -148 -18 -12 -9 -17 -39 -20 -115
-5 -116 -20 -156 -71 -187 -28 -17 -51 -20 -179 -20 l-148 0 0 -90 0 -90 244
0 c294 0 276 -9 276 141 0 83 3 101 23 130 44 66 58 69 380 69 l287 0 0 210
c0 116 -1 210 -2 209 -2 -1 -14 -5 -28 -9z"/>
<path d="M0 1380 l0 -180 155 0 155 0 0 158 c0 213 9 202 -171 202 l-139 0 0
-180z"/>
<path d="M2300 1190 c0 -128 2 -130 170 -130 l130 0 0 110 0 110 -150 0 -150
0 0 -90z"/>
<path d="M2006 1248 c-12 -17 -16 -48 -16 -119 0 -83 -3 -100 -22 -129 -45
-65 -67 -70 -315 -70 l-223 0 0 -205 0 -205 88 0 c80 0 91 2 110 23 16 17 22
36 22 70 0 63 20 109 61 138 31 22 45 24 175 27 125 3 147 1 188 -16 52 -24
86 -70 86 -120 0 -22 8 -41 25 -57 24 -25 25 -25 220 -25 l195 0 0 210 0 210
-133 0 c-118 0 -138 2 -177 23 -63 32 -80 71 -80 179 l0 88 -94 0 c-87 0 -96
-2 -110 -22z"/>
<path d="M0 1009 l0 -121 94 4 c130 4 136 10 136 140 l0 98 -115 0 -115 0 0
-121z"/>
<path d="M318 1021 c-2 -92 -6 -114 -24 -137 -44 -60 -66 -68 -185 -72 l-109
-4 0 -94 0 -94 294 0 c287 0 294 0 326 -22 64 -44 74 -68 80 -190 4 -94 8
-112 25 -124 15 -12 54 -14 190 -12 l170 3 3 303 2 302 -246 0 c-200 0 -252 3
-278 15 -45 21 -76 80 -76 142 0 71 -26 93 -107 93 l-61 0 -4 -109z"/>
<path d="M1752 677 c-16 -17 -22 -36 -22 -68 0 -61 -35 -127 -80 -151 -26 -14
-57 -18 -127 -18 l-93 0 0 -186 0 -186 34 -34 34 -34 517 0 517 0 34 34 34 34
0 205 0 206 -209 3 c-193 3 -212 5 -237 24 -42 31 -64 65 -71 109 -3 22 -15
50 -26 63 -19 21 -28 22 -152 22 -125 0 -133 -1 -153 -23z"/>
<path d="M0 294 l0 -226 34 -34 34 -34 466 0 c519 0 514 -1 542 65 8 19 14 50
14 69 l0 34 -188 4 c-165 3 -191 5 -221 23 -55 32 -71 75 -71 185 0 151 25
140 -321 140 l-289 0 0 -226z"/>
</g>
</svg>
