<svg width="24" height="24" viewBox="0 0 24 24" fill="none" xmlns="http://www.w3.org/2000/svg">
<g id="Emotsioonid">
<path id="Vector" d="M0 12C0 5.37188 5.37188 0 12 0C18.6281 0 24 5.37188 24 12C24 18.6281 18.6281 24 12 24C5.37188 24 0 18.6281 0 12ZM12.0141 15.5531C9.79219 15.5531 7.69219 15.2297 5.83594 14.6625C5.25937 14.4844 4.69687 14.9859 4.93125 15.5391C6.09844 18.3094 8.83125 20.25 12.0141 20.25C15.1969 20.25 17.925 18.3094 19.0969 15.5391C19.3312 14.9859 18.7688 14.4844 18.1922 14.6625C16.3313 15.2297 14.2359 15.5531 12.0141 15.5531ZM8.26875 8.25C7.43906 8.25 6.76875 8.92031 6.76875 9.75C6.76875 10.5797 7.43906 11.25 8.26875 11.25C9.09375 11.25 9.76875 10.5797 9.76875 9.75C9.76875 8.92031 9.09375 8.25 8.26875 8.25ZM15.7687 11.25C16.5937 11.25 17.2687 10.5797 17.2687 9.75C17.2687 8.92031 16.5937 8.25 15.7687 8.25C14.9391 8.25 14.2687 8.92031 14.2687 9.75C14.2687 10.5797 14.9391 11.25 15.7687 11.25Z" fill="#2C6FB6"/>
</g>
</svg>
