<svg width="21" height="24" viewBox="0 0 21 24" fill="none" xmlns="http://www.w3.org/2000/svg">
<g id="Kenaosad" clip-path="url(#clip0_4378_81677)">
<path id="Vector" d="M10.5 6.75C12.3633 6.75 13.875 5.23827 13.875 3.37499C13.875 1.51171 12.3656 -3.05176e-05 10.5 -3.05176e-05C8.63438 -3.05176e-05 7.08282 1.51171 7.08282 3.37499C7.08282 5.23827 8.63907 6.75 10.5 6.75ZM19.4578 5.19374C18.8067 4.39031 17.6269 4.26562 16.8211 4.9169L14.4188 6.86249C12.2081 8.65265 8.78907 8.65265 6.57657 6.86249L4.17985 4.91718C3.37594 4.26562 2.19375 4.39077 1.54313 5.19374C0.891566 5.99999 1.01532 7.18125 1.82016 7.83281L4.21969 9.77672C4.76954 10.2218 5.37422 10.5811 6.00001 10.898L5.95782 22.5C5.95782 23.3259 6.63188 24 7.45782 24H8.16563C8.99157 24 9.66563 23.3259 9.66563 22.5V17.25H11.1656V22.5C11.1656 23.3259 11.8397 24 12.6656 24H13.3734C14.1994 24 14.8734 23.3259 14.8734 22.5L14.8734 10.8984C15.4992 10.5817 16.1039 10.2225 16.6533 9.77765L19.0533 7.83375C19.9828 7.18125 20.0672 5.99999 19.4578 5.19374Z" fill="#2C6FB6"/>
</g>
<defs>
<clipPath id="clip0_4378_81677">
<rect width="21" height="24" fill="white"/>
</clipPath>
</defs>
</svg>
