<svg width="27" height="24" viewBox="0 0 27 24" fill="none" xmlns="http://www.w3.org/2000/svg">
<g id="Kodu ja igap&#195;&#164;evaelu" clip-path="url(#clip0_4378_81681)">
<path id="Vector" d="M13.1423 6.9497L4.49999 14.0677V21.75C4.49999 21.9489 4.57901 22.1397 4.71966 22.2803C4.86032 22.421 5.05108 22.5 5.24999 22.5L10.5028 22.4864C10.7011 22.4854 10.8909 22.406 11.0307 22.2654C11.1705 22.1249 11.2491 21.9347 11.249 21.7364V17.25C11.249 17.0511 11.3281 16.8603 11.4687 16.7197C11.6094 16.579 11.8001 16.5 11.999 16.5H14.999C15.198 16.5 15.3887 16.579 15.5294 16.7197C15.67 16.8603 15.749 17.0511 15.749 17.25V21.7331C15.7487 21.8318 15.7679 21.9296 15.8055 22.0209C15.843 22.1121 15.8982 22.1951 15.9679 22.265C16.0376 22.3349 16.1203 22.3903 16.2115 22.4282C16.3026 22.466 16.4004 22.4855 16.499 22.4855L21.75 22.5C21.9489 22.5 22.1397 22.421 22.2803 22.2803C22.421 22.1397 22.5 21.9489 22.5 21.75V14.0625L13.8595 6.9497C13.7579 6.86782 13.6314 6.82317 13.5009 6.82317C13.3704 6.82317 13.2439 6.86782 13.1423 6.9497V6.9497ZM26.7937 11.7877L22.875 8.55751V2.06485C22.875 1.91567 22.8157 1.77259 22.7102 1.6671C22.6047 1.56161 22.4617 1.50235 22.3125 1.50235H19.6875C19.5383 1.50235 19.3952 1.56161 19.2897 1.6671C19.1842 1.77259 19.125 1.91567 19.125 2.06485V5.46845L14.9283 2.01563C14.5255 1.68422 14.0201 1.50301 13.4986 1.50301C12.977 1.50301 12.4716 1.68422 12.0689 2.01563L0.203438 11.7877C0.146479 11.8347 0.0993545 11.8926 0.064757 11.9579C0.0301596 12.0232 0.00876719 12.0947 0.00180223 12.1682C-0.00516274 12.2418 0.00243621 12.316 0.0241649 12.3866C0.0458936 12.4573 0.0813261 12.5229 0.128438 12.5799L1.32375 14.033C1.37073 14.0901 1.42852 14.1374 1.49381 14.1722C1.5591 14.2069 1.6306 14.2285 1.70423 14.2356C1.77786 14.2427 1.85216 14.2352 1.92289 14.2135C1.99361 14.1919 2.05937 14.1565 2.1164 14.1094L13.1423 5.02782C13.2439 4.94594 13.3704 4.90129 13.5009 4.90129C13.6314 4.90129 13.7579 4.94594 13.8595 5.02782L24.8859 14.1094C24.9428 14.1565 25.0085 14.1919 25.0791 14.2137C25.1498 14.2354 25.224 14.243 25.2975 14.236C25.3711 14.2291 25.4426 14.2077 25.5079 14.1731C25.5732 14.1385 25.631 14.0913 25.6781 14.0344L26.8734 12.5813C26.9205 12.524 26.9557 12.458 26.9772 12.3871C26.9987 12.3161 27.0059 12.2416 26.9985 12.1679C26.9911 12.0942 26.9692 12.0226 26.9341 11.9573C26.8989 11.8921 26.8512 11.8344 26.7937 11.7877V11.7877Z" fill="#2C6FB6"/>
</g>
<defs>
<clipPath id="clip0_4378_81681">
<rect width="27" height="24" fill="white"/>
</clipPath>
</defs>
</svg>
