<svg width="18" height="24" viewBox="0 0 18 24" fill="none" xmlns="http://www.w3.org/2000/svg">
<g id="Liikumine" clip-path="url(#clip0_4378_81699)">
<path id="Vector" d="M3.79452 22.1358C3.59389 22.9402 4.08233 23.7544 4.88577 23.955C5.00811 23.9859 5.13046 23.9995 5.2514 23.9995C5.92311 23.9995 6.53436 23.5448 6.70546 22.8638L7.88858 18.1308L5.41452 15.6567L3.79452 22.1358V22.1358ZM4.49249 12.9427L6.42186 5.48438C6.52452 5.08969 6.27468 4.68984 5.86311 4.59094C3.80624 4.09781 1.72171 5.29734 1.20749 7.27078L0.0229572 11.8706C-0.079699 12.2653 0.170145 12.6652 0.581707 12.7641L3.56108 13.4789C3.97311 13.5773 4.38983 13.3373 4.49249 12.9427ZM17.25 7.5H16.5C16.0856 7.5 15.75 7.83562 15.75 8.25V9H14.1211L11.9283 6.80719C11.4084 6.28641 10.7161 6 9.98015 6C8.71358 6 7.61436 6.85781 7.30686 8.08688L6.04499 13.1362C5.98223 13.3876 5.98559 13.6509 6.05475 13.9005C6.12392 14.1501 6.25653 14.3776 6.43968 14.5608L10.5 18.6211V22.5C10.5 23.3283 11.1717 24 12 24C12.8283 24 13.5 23.3283 13.5 22.5V18.6211C13.5 17.82 13.1878 17.0667 12.6211 16.5L10.4264 14.3053C10.4334 14.2819 10.4494 14.2636 10.4555 14.2392L11.3878 10.5094L12.4392 11.5608C12.7205 11.842 13.102 12.0005 13.4995 12.0005H15.7495V23.2505C15.7495 23.6648 16.0851 24.0005 16.4995 24.0005H17.2495C17.6639 24.0005 17.9995 23.6648 17.9995 23.2505V8.25C18 7.83562 17.6644 7.5 17.25 7.5ZM11.25 4.5C12.4926 4.5 13.5 3.49266 13.5 2.25C13.5 1.00734 12.4926 0 11.25 0C10.0073 0 8.99999 1.00734 8.99999 2.25C8.99999 3.49266 10.0073 4.5 11.25 4.5Z" fill="#2C6FB6"/>
</g>
<defs>
<clipPath id="clip0_4378_81699">
<rect width="18" height="24" fill="white"/>
</clipPath>
</defs>
</svg>
