<svg width="24" height="24" viewBox="0 0 24 24" fill="none" xmlns="http://www.w3.org/2000/svg">
<g id="Lilled" clip-path="url(#clip0_4378_81701)">
<path id="Vector" d="M23.2439 15H21.0286C18.0754 15 15.412 16.042 13.5 17.715V13.1836C14.3427 13.5556 15.2931 13.6036 16.1691 13.3183C17.045 13.033 17.7849 12.4345 18.2469 11.6375C18.7089 10.8405 18.8605 9.90108 18.6728 8.99919C18.485 8.0973 17.971 7.29642 17.2293 6.75C17.6626 6.43048 18.0218 6.02119 18.2823 5.5501C18.5428 5.07901 18.6985 4.55722 18.7389 4.02041C18.7792 3.48359 18.7031 2.94439 18.5159 2.43967C18.3287 1.93495 18.0347 1.4766 17.654 1.09594C17.2734 0.715283 16.815 0.421296 16.3103 0.234071C15.8056 0.0468449 15.2664 -0.0292059 14.7296 0.0111158C14.1928 0.0514374 13.671 0.207181 13.1999 0.467702C12.7288 0.728224 12.3195 1.08738 12 1.52063C11.6805 1.08738 11.2712 0.728224 10.8001 0.467702C10.329 0.207181 9.8072 0.0514374 9.27038 0.0111158C8.73357 -0.0292059 8.19437 0.0468449 7.68965 0.234071C7.18493 0.421296 6.72657 0.715283 6.34592 1.09594C5.96526 1.4766 5.67127 1.93495 5.48405 2.43967C5.29682 2.94439 5.22077 3.48359 5.26109 4.02041C5.30142 4.55722 5.45716 5.07901 5.71768 5.5501C5.9782 6.02119 6.33736 6.43048 6.77061 6.75C6.03004 7.29689 5.51712 8.09764 5.33 8.99903C5.14287 9.90042 5.29468 10.8392 5.75637 11.6356C6.21806 12.4321 6.95722 13.0304 7.83241 13.316C8.7076 13.6016 9.65736 13.5544 10.5 13.1836V17.715C8.58795 16.042 5.92358 15 2.97139 15H0.756082C0.325301 15 -0.0407925 15.3619 0.00326993 15.7894C0.471551 20.3906 4.98889 24 10.492 24H13.5079C19.0111 24 23.5284 20.3906 23.9967 15.7894C24.0398 15.3619 23.6747 15 23.2439 15V15ZM12 9C11.555 9 11.12 8.86804 10.7499 8.62081C10.3799 8.37358 10.0915 8.02217 9.92125 7.61104C9.75095 7.19991 9.7064 6.74751 9.79321 6.31105C9.88003 5.87459 10.0943 5.47368 10.409 5.15901C10.7237 4.84435 11.1246 4.63005 11.561 4.54324C11.9975 4.45642 12.4499 4.50098 12.861 4.67128C13.2721 4.84157 13.6236 5.12996 13.8708 5.49997C14.118 5.86998 14.25 6.305 14.25 6.75C14.25 7.34674 14.0129 7.91904 13.591 8.34099C13.169 8.76295 12.5967 9 12 9Z" fill="#2C6FB6"/>
</g>
<defs>
<clipPath id="clip0_4378_81701">
<rect width="24" height="24" fill="white"/>
</clipPath>
</defs>
</svg>
