<svg width="24" height="24" viewBox="0 0 24 24" fill="none" xmlns="http://www.w3.org/2000/svg">
<g id="Loomad">
<path id="Vector" d="M22.493 21H21.0431C21.8958 20.1375 22.493 19.0256 22.493 18C22.493 16.7555 21.458 15.5245 20.25 15.1364V10.5H22.493C23.4492 10.5 24.1664 9.61359 23.9662 8.67797C23.4769 6.39469 21.8775 4.5 19.4939 4.5V3C17.2434 3 16.0148 5.94047 15.3033 8.07609L12.2405 17.288C12.1753 17.4844 11.963 17.5908 11.7666 17.5256L11.0545 17.2889C10.8581 17.2237 10.7517 17.0114 10.8169 16.8145L12.4355 11.9466C14.6484 5.29172 10.0387 0 5.99813 0C2.68547 0 0 2.68641 0 6C0 9.31359 2.68547 12 5.99813 12C6.01078 12 6.0225 11.9963 6.03516 11.9963C5.05406 13.2933 4.46203 14.9006 4.50047 16.6622C4.59094 20.8069 8.24297 24 12.3877 24H23.243C23.6569 24 23.9925 23.6644 23.9925 23.25V22.5C23.9925 21.6717 23.3213 21 22.493 21ZM20.2439 6.75C20.6578 6.75 20.9934 7.08563 20.9934 7.5C20.9934 7.91437 20.6578 8.25 20.2439 8.25C19.83 8.25 19.4939 7.91437 19.4939 7.5C19.4939 7.08563 19.83 6.75 20.2439 6.75Z" fill="#2C6FB6"/>
</g>
</svg>
