<svg width="24" height="24" viewBox="0 0 24 24" fill="none" xmlns="http://www.w3.org/2000/svg">
<g id="Numbrid">
<path id="Vector" d="M2.89547 18.7969L3.71578 17.8523C3.87904 17.6703 3.96437 17.4315 3.95344 17.1872V17.032C3.95344 16.6875 3.77344 16.5 3.42188 16.5H0.75C0.650544 16.5 0.555161 16.5395 0.484835 16.6098C0.414509 16.6802 0.375 16.7755 0.375 16.875V17.625C0.375 17.7245 0.414509 17.8198 0.484835 17.8902C0.555161 17.9605 0.650544 18 0.75 18H1.82016C1.63831 18.1832 1.46619 18.3758 1.30453 18.577L1.04156 18.9052C0.854062 19.1428 0.795469 19.38 0.910313 19.6027L0.959531 19.6931C1.10016 19.9631 1.25438 20.0625 1.53375 20.0625H1.75547C2.23969 20.0625 2.50266 20.1769 2.50266 20.4886C2.50266 20.7098 2.30578 20.8739 1.82953 20.8739C1.58069 20.8719 1.33453 20.8223 1.10438 20.7277C0.800156 20.5458 0.554062 20.5636 0.373125 20.8739L0.111094 21.3103C-0.0632813 21.5977 -0.0384375 21.8597 0.234375 22.0575C0.595781 22.2773 1.18969 22.5 1.96875 22.5C3.57 22.5 4.24219 21.4336 4.24219 20.4319C4.24078 19.7578 3.81469 19.0369 2.89547 18.7969ZM23.25 10.5H8.25C8.05109 10.5 7.86032 10.579 7.71967 10.7197C7.57902 10.8603 7.5 11.0511 7.5 11.25V12.75C7.5 12.9489 7.57902 13.1397 7.71967 13.2803C7.86032 13.421 8.05109 13.5 8.25 13.5H23.25C23.4489 13.5 23.6397 13.421 23.7803 13.2803C23.921 13.1397 24 12.9489 24 12.75V11.25C24 11.0511 23.921 10.8603 23.7803 10.7197C23.6397 10.579 23.4489 10.5 23.25 10.5ZM23.25 3H8.25C8.05109 3 7.86032 3.07902 7.71967 3.21967C7.57902 3.36032 7.5 3.55109 7.5 3.75V5.25C7.5 5.44891 7.57902 5.63968 7.71967 5.78033C7.86032 5.92098 8.05109 6 8.25 6H23.25C23.4489 6 23.6397 5.92098 23.7803 5.78033C23.921 5.63968 24 5.44891 24 5.25V3.75C24 3.55109 23.921 3.36032 23.7803 3.21967C23.6397 3.07902 23.4489 3 23.25 3ZM23.25 18H8.25C8.05109 18 7.86032 18.079 7.71967 18.2197C7.57902 18.3603 7.5 18.5511 7.5 18.75V20.25C7.5 20.4489 7.57902 20.6397 7.71967 20.7803C7.86032 20.921 8.05109 21 8.25 21H23.25C23.4489 21 23.6397 20.921 23.7803 20.7803C23.921 20.6397 24 20.4489 24 20.25V18.75C24 18.5511 23.921 18.3603 23.7803 18.2197C23.6397 18.079 23.4489 18 23.25 18ZM0.75 7.5H3.75C3.84946 7.5 3.94484 7.46049 4.01516 7.39017C4.08549 7.31984 4.125 7.22446 4.125 7.125V6.375C4.125 6.27554 4.08549 6.18016 4.01516 6.10983C3.94484 6.03951 3.84946 6 3.75 6H3V1.875C3 1.77554 2.96049 1.68016 2.89016 1.60984C2.81984 1.53951 2.72446 1.5 2.625 1.5H1.5C1.43049 1.50012 1.36239 1.51956 1.30329 1.55615C1.24419 1.59274 1.19642 1.64503 1.16531 1.70719L0.790313 2.45719C0.761728 2.51431 0.748209 2.57779 0.751036 2.6416C0.753863 2.70541 0.772943 2.76744 0.806467 2.82181C0.839991 2.87618 0.886847 2.92109 0.942593 2.95227C0.998338 2.98346 1.06113 2.99989 1.125 3H1.5V6H0.75C0.650544 6 0.555161 6.03951 0.484835 6.10983C0.414509 6.18016 0.375 6.27554 0.375 6.375V7.125C0.375 7.22446 0.414509 7.31984 0.484835 7.39017C0.555161 7.46049 0.650544 7.5 0.75 7.5ZM0.566719 15H3.75C3.84946 15 3.94484 14.9605 4.01516 14.8902C4.08549 14.8198 4.125 14.7245 4.125 14.625V13.875C4.125 13.7755 4.08549 13.6802 4.01516 13.6098C3.94484 13.5395 3.84946 13.5 3.75 13.5H1.93687C2.09109 13.0177 4.20281 12.6244 4.20281 10.8544C4.20281 9.49219 3.03094 9 2.11828 9C1.11703 9 0.533906 9.46875 0.221719 9.87891C0.016875 10.1409 0.0810938 10.387 0.352969 10.5994L0.755156 10.9219C1.01813 11.1356 1.27078 11.0377 1.51078 10.8075C1.62916 10.6915 1.78848 10.6268 1.95422 10.6275C2.11031 10.6275 2.38922 10.7006 2.38922 11.0377C2.39062 11.6339 0 12.0614 0 14.2777V14.4652C0 14.8125 0.238125 15 0.566719 15Z" fill="#2C6FB6"/>
</g>
</svg>
