<svg width="30" height="24" viewBox="0 0 30 24" fill="none" xmlns="http://www.w3.org/2000/svg">
<g id="Riietumine" clip-path="url(#clip0_4305_80291)">
<path id="Vector" d="M29.5875 4.52344L20.4609 0C19.5187 1.30312 17.4328 2.2125 15 2.2125C12.5672 2.2125 10.4812 1.30312 9.53905 0L0.412485 4.52344C0.0421729 4.71094 -0.107827 5.16094 0.0749854 5.53125L2.75624 10.8984C2.94374 11.2688 3.39374 11.4187 3.76405 11.2359L6.41717 9.9375C6.91405 9.69375 7.4953 10.0547 7.4953 10.6125V22.5C7.4953 23.3297 8.16561 24 8.9953 24H20.9953C21.825 24 22.4953 23.3297 22.4953 22.5V10.6078C22.4953 10.0547 23.0766 9.68906 23.5734 9.93281L26.2266 11.2313C26.5969 11.4188 27.0469 11.2687 27.2344 10.8937L29.9203 5.53125C30.1078 5.16094 29.9578 4.70625 29.5875 4.52344Z" fill="#2C6FB6"/>
</g>
<defs>
<clipPath id="clip0_4305_80291">
<rect width="30" height="24" fill="white"/>
</clipPath>
</defs>
</svg>
