<svg width="448" height="512" viewBox="0 0 448 512" fill="none" xmlns="http://www.w3.org/2000/svg">
<path d="M64 152.2V127.1C64 110.3 49.67 96 32 96C14.33 96 0 110.3 0 127.1V151.35C0.0001 206.1 19.49 258.4 55.78 298.2C81.74 326.68 96.13 363.89 96 402.4V448.03C96 465.7 110.33 479.13 128 479.13C145.67 479.13 159.1 464.8 159.1 447.13V401.52C159.1 347.62 139.59 295.32 103.26 255.52C78.2 227.9 63.87 190.8 64 152.2ZM391.7 255.8C366.07 227.41 352.01 190.48 352.01 152.2L352.01 127.95C352 110.3 337.7 96 320 96C302.3 96 288 110.3 288 127.1L288 151.35C288 205.21 307.49 257.45 343.77 297.25C369.7 326.7 384.1 363.9 384 402.4V448.03C384 465.7 398.3 480 415.1 480C433.7 480 448 465.7 448 448V402.37C448 348.3 427.9 295.9 391.7 255.8ZM208 152.2V63.1C208 46.33 193.7 32 176 32C158.3 32 144 46.33 144.9 63.1L144.9 151.35C144.9 205.21 164.39 257.45 200.67 297.25C226.63 325.73 241.02 362.94 240.89 401.45V447.08C239.1 465.7 254.3 480 272 480C289.7 480 303.1 465.67 303.1 448V402.39C303.1 348.49 283.59 296.19 247.26 256.39C222.2 227.9 207.9 190.8 208 152.2Z" fill="#2C6FB6"/>
</svg>
