<svg width="24" height="24" viewBox="0 0 24 24" fill="none" xmlns="http://www.w3.org/2000/svg">
<g id="Tervis" clip-path="url(#clip0_4305_80299)">
<path id="Vector" d="M15.0094 11.4281L12.6797 16.0875C12.3984 16.6547 11.5828 16.636 11.325 16.0594L8.65782 10.1391L7.25156 13.5H2.84062L11.3953 22.2422C11.7281 22.5844 12.2672 22.5844 12.6 22.2422L21.1594 13.5H16.0453L15.0094 11.4281ZM22.2047 3.46409L22.0922 3.3469C19.6781 0.881275 15.7266 0.881275 13.3078 3.3469L12 4.68752L10.6922 3.35159C8.27813 0.881274 4.32187 0.881274 1.90781 3.35159L1.79531 3.46409C-0.487506 5.79846 -0.585943 9.51565 1.45312 12H6.25313L7.93594 7.9594C8.18907 7.35471 9.04219 7.34065 9.31407 7.94065L12.0422 14.0016L14.3391 9.41252C14.6156 8.8594 15.4031 8.8594 15.6797 9.41252L16.9735 12H22.5469C24.586 9.51565 24.4875 5.79846 22.2047 3.46409Z" fill="#2C6FB6"/>
</g>
<defs>
<clipPath id="clip0_4305_80299">
<rect width="24" height="24" fill="white"/>
</clipPath>
</defs>
</svg>
